<?xml version="1.0" encoding="UTF-8"?>
<svg id="Ebene_1" data-name="Ebene 1" xmlns="http://www.w3.org/2000/svg" viewBox="0 0 303.9 174.26">
  <defs>
    <style>
      .cls-1 {
        fill: none;
      }
    </style>
  </defs>
  <rect class="cls-1" width="303.9" height="174.25"/>
  <path d="M81.22,74.61c0-.14.09-.23.23-.23h2.21c.14,0,.23.09.23.23v7.21l5.79-7.25c.11-.14.2-.18.36-.18h2.57c.14,0,.2.16.09.29l-4.75,5.72,5.29,9.03c.09.16.02.27-.16.27h-2.5c-.18,0-.25-.05-.34-.18l-4.01-7.07-2.34,2.84v4.19c0,.14-.09.23-.23.23h-2.21c-.14,0-.23-.09-.23-.23,0,0,0-14.87,0-14.87Z"/>
  <path d="M95.64,74.61c0-.14.09-.23.23-.23h2.21c.14,0,.23.09.23.23v14.87c0,.14-.09.23-.23.23h-2.21c-.14,0-.23-.09-.23-.23v-14.87Z"/>
  <path d="M110.32,89.7c-.18,0-.27-.07-.34-.23l-2.93-5.97h-2.64c-.09,0-.13.05-.13.14v5.83c0,.14-.09.23-.23.23h-2.21c-.14,0-.23-.09-.23-.23v-14.87c0-.14.09-.23.23-.23h5.92c2.82,0,4.89,1.87,4.89,4.57,0,2.01-1.15,3.56-2.91,4.21l3.22,6.24c.09.16,0,.29-.16.29h-2.5l.02.02ZM110.03,78.95c0-1.33-.95-2.19-2.34-2.19h-3.27c-.09,0-.13.04-.13.14v4.08c0,.09.04.14.13.14h3.27c1.4,0,2.34-.86,2.34-2.16h0Z"/>
  <path d="M115.12,82.04c0-2.43.09-3.2.41-4.15.79-2.5,2.73-3.76,5.32-3.76s4.3,1.26,5.18,3.29c.04.11,0,.23-.11.27l-1.91.92c-.14.07-.25,0-.29-.11-.5-1.08-1.35-1.98-2.86-1.98s-2.32.79-2.75,2.03c-.2.63-.27,1.24-.27,3.49s.07,2.86.27,3.49c.43,1.24,1.28,2.03,2.75,2.03s2.37-.9,2.86-1.98c.05-.11.16-.18.29-.11l1.91.92c.11.05.16.16.11.27-.88,2.03-2.73,3.29-5.18,3.29-2.59,0-4.53-1.26-5.32-3.76-.32-.95-.41-1.71-.41-4.14h0Z"/>
  <path d="M128.53,74.61c0-.14.09-.23.23-.23h2.21c.14,0,.23.09.23.23v6.04c0,.09.04.14.14.14h5.83c.09,0,.13-.04.13-.14v-6.04c0-.14.09-.23.23-.23h2.21c.14,0,.23.09.23.23v14.87c0,.14-.09.23-.23.23h-2.21c-.14,0-.23-.09-.23-.23v-6.17c0-.09-.04-.14-.13-.14h-5.83c-.09,0-.14.05-.14.14v6.17c0,.14-.09.23-.23.23h-2.21c-.14,0-.23-.09-.23-.23v-14.87Z"/>
  <path d="M143.31,74.61c0-.14.09-.23.23-.23h9.6c.14,0,.23.09.23.23v1.94c0,.14-.09.23-.23.23h-7.03c-.09,0-.14.04-.14.14v3.74c0,.09.05.14.14.14h5.92c.14,0,.23.09.23.23v1.94c0,.14-.09.23-.23.23h-5.92c-.09,0-.14.05-.14.14v3.87c0,.09.05.14.14.14h7.03c.14,0,.23.09.23.23v1.94c0,.14-.09.23-.23.23h-9.6c-.14,0-.23-.09-.23-.23v-14.91Z"/>
  <path d="M81.23,53.91c0-.13.09-.22.22-.22h2.14c.13,0,.22.09.22.22v6.99l5.61-7.03c.11-.13.2-.17.35-.17h2.49c.13,0,.2.15.09.28l-4.61,5.55,5.13,8.76c.09.15.02.26-.15.26h-2.42c-.17,0-.24-.04-.33-.17l-3.89-6.86-2.27,2.75v4.06c0,.13-.09.22-.22.22h-2.14c-.13,0-.22-.09-.22-.22v-14.42Z"/>
  <path d="M99.58,53.91c.04-.13.13-.22.28-.22h2.01c.15,0,.24.09.28.22l5.02,14.42c.04.13,0,.22-.15.22h-2.14c-.15,0-.24-.07-.28-.22l-.98-2.88h-5.59l-.98,2.88c-.04.15-.13.22-.28.22h-2.12c-.15,0-.2-.09-.15-.22l5.09-14.42h0ZM102.84,63.15l-1.97-5.77h-.07l-1.99,5.77h4.03Z"/>
  <path d="M110.97,68.54c-.13,0-.22-.09-.22-.22v-12.19c0-.09-.04-.13-.13-.13h-3.89c-.13,0-.22-.09-.22-.22v-1.88c0-.13.09-.22.22-.22h10.62c.13,0,.22.09.22.22v1.88c0,.13-.09.22-.22.22h-3.89c-.09,0-.13.04-.13.13v12.19c0,.13-.09.22-.22.22h-2.14Z"/>
  <path d="M119.7,53.91c0-.13.09-.22.22-.22h2.14c.13,0,.22.09.22.22v5.85c0,.09.04.13.13.13h5.66c.09,0,.13-.04.13-.13v-5.85c0-.13.09-.22.22-.22h2.14c.13,0,.22.09.22.22v14.42c0,.13-.09.22-.22.22h-2.14c-.13,0-.22-.09-.22-.22v-5.99c0-.09-.04-.13-.13-.13h-5.66c-.09,0-.13.04-.13.13v5.99c0,.13-.09.22-.22.22h-2.14c-.13,0-.22-.09-.22-.22,0,0,0-14.42,0-14.42Z"/>
  <path d="M133.88,65.2c-.31-.92-.39-1.75-.39-4.08s.09-3.17.39-4.08c.76-2.36,2.69-3.58,5.24-3.58s4.5,1.22,5.26,3.58c.31.92.39,1.75.39,4.08s-.09,3.17-.39,4.08c-.76,2.36-2.69,3.58-5.26,3.58s-4.48-1.22-5.24-3.58ZM141.9,64.52c.17-.55.26-1.31.26-3.41s-.09-2.86-.26-3.41c-.42-1.2-1.29-1.94-2.77-1.94s-2.34.74-2.75,1.94c-.17.55-.26,1.29-.26,3.41s.09,2.86.26,3.41c.41,1.2,1.29,1.94,2.75,1.94s2.36-.74,2.77-1.94Z"/>
  <path d="M147.5,53.91c0-.13.09-.22.22-.22h2.14c.13,0,.22.09.22.22v12.19c0,.09.04.13.13.13h6.82c.13,0,.22.09.22.22v1.88c0,.13-.09.22-.22.22h-9.31c-.13,0-.22-.09-.22-.22v-14.42h0Z"/>
  <path d="M159.4,53.91c0-.13.09-.22.22-.22h2.14c.13,0,.22.09.22.22v14.42c0,.13-.09.22-.22.22h-2.14c-.13,0-.22-.09-.22-.22v-14.42Z"/>
  <path d="M164.31,66.82c-.09-.09-.13-.22-.04-.33l1.35-1.57c.09-.11.22-.11.31-.02.96.76,2.38,1.57,4.04,1.57,1.77,0,2.8-.9,2.8-2.14,0-1.07-.66-1.77-2.71-2.05l-.79-.11c-2.86-.39-4.48-1.77-4.48-4.24,0-2.69,1.97-4.48,5.02-4.48,1.86,0,3.63.59,4.81,1.49.11.09.13.17.04.31l-1.05,1.62c-.09.11-.2.13-.31.07-1.2-.79-2.32-1.16-3.56-1.16-1.51,0-2.34.83-2.34,1.99,0,1.03.72,1.73,2.73,2.01l.79.11c2.86.39,4.43,1.75,4.43,4.3s-1.9,4.61-5.59,4.61c-2.18,0-4.3-.87-5.46-1.97h.01Z"/>
  <path d="M177.48,61.11c0-2.36.09-3.1.39-4.02.76-2.42,2.64-3.65,5.15-3.65,2.38,0,4.17,1.22,5.02,3.19.04.11,0,.22-.11.26l-1.86.9c-.13.07-.24,0-.28-.11-.48-1.05-1.31-1.92-2.77-1.92s-2.25.76-2.66,1.97c-.2.61-.26,1.2-.26,3.39s.07,2.77.26,3.39c.41,1.2,1.24,1.97,2.66,1.97s2.29-.87,2.77-1.92c.04-.11.15-.17.28-.11l1.86.9c.11.04.15.15.11.26-.85,1.97-2.64,3.19-5.02,3.19-2.51,0-4.39-1.22-5.15-3.65-.31-.92-.39-1.66-.39-4.02v-.02Z"/>
  <path d="M190.35,53.91c0-.13.09-.22.22-.22h2.14c.13,0,.22.09.22.22v5.85c0,.09.04.13.13.13h5.66c.09,0,.13-.04.13-.13v-5.85c0-.13.09-.22.22-.22h2.14c.13,0,.22.09.22.22v14.42c0,.13-.09.22-.22.22h-2.14c-.13,0-.22-.09-.22-.22v-5.99c0-.09-.04-.13-.13-.13h-5.66c-.09,0-.13.04-.13.13v5.99c0,.13-.09.22-.22.22h-2.14c-.13,0-.22-.09-.22-.22v-14.42Z"/>
  <path d="M204.54,53.91c0-.13.09-.22.22-.22h9.31c.13,0,.22.09.22.22v1.88c0,.13-.09.22-.22.22h-6.82c-.09,0-.13.04-.13.13v3.63c0,.09.04.13.13.13h5.74c.13,0,.22.09.22.22v1.88c0,.13-.09.22-.22.22h-5.74c-.09,0-.13.04-.13.13v3.76c0,.09.04.13.13.13h6.82c.13,0,.22.09.22.22v1.88c0,.13-.09.22-.22.22h-9.31c-.13,0-.22-.09-.22-.22v-14.42h0Z"/>
  <g>
    <path d="M83.84,97.83c.03-.1.09-.15.19-.15h1.35c.1,0,.16.05.19.15l3.37,9.68c.03.1,0,.15-.1.15h-1.44c-.1,0-.16-.05-.19-.15l-.66-1.94h-3.75l-.66,1.94c-.03.1-.09.15-.19.15h-1.42c-.1,0-.13-.05-.1-.15l3.42-9.68h0ZM86.02,104.04l-1.32-3.87h-.04l-1.33,3.87h2.7,0Z"/>
    <path d="M91.27,97.83c0-.1.05-.15.15-.15h1.44c.1,0,.15.05.15.15v4.69l3.77-4.72c.07-.08.15-.12.23-.12h1.67s.08.02.1.06,0,.08-.04.13l-3.09,3.72,3.45,5.88c.07.12.03.18-.1.18h-1.63c-.1,0-.17-.04-.22-.12l-2.61-4.6-1.53,1.85v2.73c0,.1-.05.15-.15.15h-1.44c-.1,0-.15-.05-.15-.15,0,0,0-9.68,0-9.68Z"/>
    <path d="M104.1,97.83c.03-.1.09-.15.19-.15h1.35c.1,0,.16.05.19.15l3.37,9.68c.03.1,0,.15-.1.15h-1.44c-.1,0-.16-.05-.19-.15l-.66-1.94h-3.75l-.66,1.94c-.03.1-.09.15-.19.15h-1.42c-.1,0-.13-.05-.1-.15l3.42-9.68h0ZM106.29,104.04l-1.32-3.87h-.04l-1.33,3.87h2.7,0Z"/>
    <path d="M111.54,97.82c0-.1.05-.15.15-.15h3.57c1.74,0,2.86.74,3.34,2.22.04.13.07.26.1.4s.06.32.08.52c.02.21.04.46.05.76s.01.66.01,1.09,0,.8-.01,1.09c0,.3-.03.55-.05.76s-.05.38-.08.52-.06.28-.1.4c-.48,1.48-1.59,2.22-3.34,2.22h-3.57c-.1,0-.15-.05-.15-.15v-9.69h0ZM113.27,106c0,.06.03.09.09.09h1.48c.56,0,1-.1,1.34-.29s.58-.52.73-.97c.03-.07.05-.15.07-.26s.04-.23.05-.4.03-.36.04-.61c0-.24.01-.55.01-.91s0-.66-.01-.91c-.01-.24-.02-.45-.04-.61s-.03-.3-.05-.4-.04-.18-.07-.25c-.15-.45-.39-.77-.73-.96s-.78-.29-1.34-.29h-1.48c-.06,0-.09.03-.09.09v6.67h0Z"/>
    <path d="M121.67,97.82c0-.1.05-.15.15-.15h6.25c.1,0,.15.05.15.15v1.27c0,.1-.05.15-.15.15h-4.58c-.06,0-.09.03-.09.09v2.42c0,.06.03.09.09.09h3.86c.1,0,.15.05.15.15v1.27c0,.1-.05.15-.15.15h-3.86c-.06,0-.09.03-.09.09v2.51c0,.06.03.09.09.09h4.58c.1,0,.15.05.15.15v1.27c0,.1-.05.15-.15.15h-6.25c-.1,0-.15-.05-.15-.15v-9.69h0Z"/>
    <path d="M131,97.83c0-.1.05-.15.15-.15h1.31c.13,0,.21.05.25.15l2.74,6.14h.06l2.7-6.14c.04-.1.12-.15.25-.15h1.29c.1,0,.15.05.15.15v9.68c0,.1-.05.15-.15.15h-1.28c-.1,0-.15-.05-.15-.15v-6.1h-.06l-2.11,4.69c-.06.13-.15.19-.28.19h-.85c-.13,0-.22-.06-.28-.19l-2.11-4.69h-.06v6.1c0,.1-.05.15-.15.15h-1.28c-.1,0-.15-.05-.15-.15v-9.68h0Z"/>
    <path d="M143.05,97.83c0-.1.05-.15.15-.15h1.44c.1,0,.15.05.15.15v9.68c0,.1-.05.15-.15.15h-1.44c-.1,0-.15-.05-.15-.15v-9.68Z"/>
    <path d="M147.95,97.82c0-.1.05-.15.15-.15h6.25c.1,0,.15.05.15.15v1.27c0,.1-.05.15-.15.15h-4.58c-.06,0-.09.03-.09.09v2.42c0,.06.03.09.09.09h3.86c.1,0,.15.05.15.15v1.27c0,.1-.05.15-.15.15h-3.86c-.06,0-.09.03-.09.09v2.51c0,.06.03.09.09.09h4.58c.1,0,.15.05.15.15v1.27c0,.1-.05.15-.15.15h-6.25c-.1,0-.15-.05-.15-.15v-9.69h0Z"/>
    <path d="M161.7,97.82c0-.1.05-.15.15-.15h3.57c1.74,0,2.86.74,3.33,2.22.04.13.07.26.1.4s.06.32.08.52c.02.21.04.46.05.76s0,.66,0,1.09,0,.8,0,1.09c0,.3-.03.55-.05.76s-.05.38-.08.52-.06.28-.1.4c-.48,1.48-1.59,2.22-3.33,2.22h-3.57c-.1,0-.15-.05-.15-.15v-9.69h0ZM163.43,106c0,.06.03.09.09.09h1.48c.56,0,1-.1,1.34-.29.34-.2.58-.52.73-.97.03-.07.05-.15.07-.26s.04-.23.05-.4.03-.36.04-.61c0-.24,0-.55,0-.91s0-.66,0-.91c0-.24-.02-.45-.04-.61s-.03-.3-.05-.4-.04-.18-.07-.25c-.15-.45-.39-.77-.73-.96-.34-.2-.79-.29-1.34-.29h-1.48c-.06,0-.09.03-.09.09v6.67h0Z"/>
    <path d="M171.84,97.82c0-.1.05-.15.15-.15h6.25c.1,0,.15.05.15.15v1.27c0,.1-.05.15-.15.15h-4.58c-.06,0-.09.03-.09.09v2.42c0,.06.03.09.09.09h3.86c.1,0,.15.05.15.15v1.27c0,.1-.05.15-.15.15h-3.86c-.06,0-.09.03-.09.09v2.51c0,.06.03.09.09.09h4.58c.1,0,.15.05.15.15v1.27c0,.1-.05.15-.15.15h-6.25c-.1,0-.15-.05-.15-.15v-9.69h0Z"/>
    <path d="M184.3,107.82c-.37,0-.73-.03-1.08-.1s-.69-.16-1-.28c-.32-.12-.61-.26-.88-.42-.27-.16-.5-.34-.7-.53-.08-.08-.09-.15-.03-.22l.91-1.06c.07-.08.14-.08.21-.01.16.13.33.25.54.38.2.13.42.24.64.34s.47.18.73.24c.25.06.52.09.81.09.6,0,1.06-.13,1.39-.4.33-.27.49-.61.49-1.03,0-.36-.13-.66-.4-.89-.26-.23-.74-.39-1.42-.49l-.53-.07c-.97-.14-1.71-.44-2.23-.9-.52-.46-.78-1.11-.78-1.94,0-.45.08-.86.23-1.23s.38-.69.67-.95c.29-.26.65-.47,1.06-.61.42-.14.88-.21,1.4-.21.63,0,1.22.09,1.78.27s1.04.43,1.44.73c.07.06.08.13.03.21l-.7,1.09c-.06.08-.13.09-.21.04-.41-.26-.81-.46-1.19-.59s-.78-.19-1.2-.19c-.51,0-.9.12-1.17.37s-.4.57-.4.96c0,.34.14.63.41.86s.75.39,1.43.49l.53.07c.97.14,1.71.44,2.22.9s.76,1.13.76,1.99c0,.44-.08.85-.24,1.23-.16.38-.4.71-.72.98-.32.27-.72.49-1.19.65s-1.01.23-1.63.23h.02Z"/>
    <path d="M81.26,113.2c0-.1.05-.15.15-.15h3.71c1.06,0,1.84.24,2.35.73.51.48.76,1.13.76,1.93,0,.57-.12,1.02-.34,1.36-.23.34-.5.59-.81.75v.03c.16.06.31.15.47.28s.3.29.42.48c.13.19.23.41.32.66.08.25.12.53.12.83,0,1-.3,1.74-.89,2.21-.6.48-1.44.72-2.54.72h-3.56c-.1,0-.15-.05-.15-.15v-9.68h-.01ZM85.07,117.2c.44,0,.79-.12,1.04-.36s.38-.55.38-.95-.13-.72-.38-.96-.6-.36-1.04-.36h-1.99c-.06,0-.09.03-.09.09v2.45c0,.06.03.09.09.09,0,0,1.99,0,1.99,0ZM82.99,121.41c0,.06.03.09.09.09h2.08c.49,0,.86-.13,1.12-.38s.39-.59.39-1.01-.13-.74-.39-1-.63-.38-1.12-.38h-2.08c-.06,0-.09.03-.09.09v2.6h0Z"/>
    <path d="M91.12,113.2c0-.1.05-.15.15-.15h1.44c.1,0,.15.05.15.15v9.68c0,.1-.05.15-.15.15h-1.44c-.1,0-.15-.05-.15-.15v-9.68Z"/>
    <path d="M99.16,123.18c-.37,0-.73-.03-1.08-.1s-.69-.16-1-.28c-.32-.12-.61-.26-.88-.42-.27-.16-.5-.34-.7-.53-.08-.08-.09-.15-.03-.22l.91-1.06c.07-.08.14-.08.21-.01.16.13.33.25.54.38.2.13.42.24.64.34s.47.18.73.24c.25.06.52.09.81.09.6,0,1.06-.13,1.39-.4.33-.27.49-.61.49-1.03,0-.36-.13-.66-.4-.89-.26-.23-.74-.39-1.42-.49l-.53-.07c-.97-.14-1.71-.44-2.23-.9-.52-.46-.78-1.11-.78-1.94,0-.45.08-.86.23-1.23s.38-.69.67-.95c.29-.26.65-.47,1.06-.61.42-.14.88-.21,1.4-.21.63,0,1.22.09,1.78.27s1.04.43,1.44.73c.07.06.08.13.03.21l-.7,1.09c-.06.08-.13.09-.21.04-.41-.26-.81-.46-1.19-.59-.38-.13-.78-.19-1.2-.19-.51,0-.9.12-1.17.37s-.4.57-.4.96c0,.34.14.63.41.86.27.23.75.39,1.43.49l.53.07c.97.14,1.71.44,2.22.9s.76,1.13.76,1.99c0,.44-.08.85-.24,1.23-.16.38-.4.71-.72.98-.32.27-.72.49-1.19.65s-1.01.23-1.63.23h.02Z"/>
    <path d="M107.81,123.02c-.1,0-.15-.05-.15-.15v-8.18c0-.06-.03-.09-.09-.09h-2.61c-.1,0-.15-.05-.15-.15v-1.27c0-.1.05-.15.15-.15h7.13c.1,0,.15.05.15.15v1.27c0,.1-.05.15-.15.15h-2.61c-.06,0-.09.03-.09.09v8.18c0,.1-.05.15-.15.15h-1.44.01Z"/>
    <path d="M118.24,121.61c.58,0,1.05-.18,1.41-.55s.54-.9.54-1.59v-6.28c0-.1.05-.15.15-.15h1.44c.1,0,.15.05.15.15v6.32c0,.58-.09,1.09-.28,1.55-.19.46-.44.84-.77,1.15-.33.31-.72.55-1.17.72s-.94.25-1.47.25-1.01-.08-1.46-.25-.83-.41-1.16-.72-.58-.7-.77-1.15c-.19-.45-.28-.97-.28-1.55v-6.32c0-.1.05-.15.15-.15h1.44c.1,0,.15.05.15.15v6.28c0,.69.18,1.22.54,1.59.36.37.83.55,1.39.55h0Z"/>
    <path d="M125.03,113.2c0-.1.05-.15.15-.15h1.31c.13,0,.21.05.25.15l2.74,6.14h.06l2.7-6.14c.04-.1.12-.15.25-.15h1.29c.1,0,.15.05.15.15v9.68c0,.1-.05.15-.15.15h-1.28c-.1,0-.15-.05-.15-.15v-6.1h-.06l-2.11,4.69c-.06.13-.15.19-.28.19h-.85c-.13,0-.22-.06-.28-.19l-2.11-4.69h-.06v6.1c0,.1-.05.15-.15.15h-1.28c-.1,0-.15-.05-.15-.15v-9.68h.01Z"/>
    <path d="M140.22,123.18c-.37,0-.73-.03-1.08-.1s-.69-.16-1-.28c-.32-.12-.61-.26-.88-.42s-.5-.34-.7-.53c-.08-.08-.09-.15-.03-.22l.91-1.06c.07-.08.14-.08.21-.01.16.13.33.25.54.38s.42.24.65.34.47.18.73.24.52.09.81.09c.6,0,1.06-.13,1.39-.4.33-.27.49-.61.49-1.03,0-.36-.13-.66-.4-.89-.26-.23-.74-.39-1.42-.49l-.53-.07c-.97-.14-1.71-.44-2.23-.9-.52-.46-.78-1.11-.78-1.94,0-.45.08-.86.23-1.23.16-.37.38-.69.67-.95.29-.26.65-.47,1.06-.61.42-.14.88-.21,1.4-.21.62,0,1.22.09,1.78.27s1.04.43,1.44.73c.07.06.08.13.03.21l-.7,1.09c-.06.08-.13.09-.21.04-.41-.26-.81-.46-1.19-.59s-.78-.19-1.2-.19c-.51,0-.9.12-1.17.37s-.4.57-.4.96c0,.34.14.63.41.86s.75.39,1.43.49l.53.07c.97.14,1.71.44,2.22.9s.76,1.13.76,1.99c0,.44-.08.85-.24,1.23-.16.38-.4.71-.72.98-.32.27-.71.49-1.19.65-.47.16-1.01.23-1.63.23h.01Z"/>
    <path d="M153.67,113.2c.03-.1.09-.15.19-.15h1.35c.1,0,.16.05.19.15l3.37,9.68c.03.1,0,.15-.1.15h-1.44c-.1,0-.16-.05-.19-.15l-.66-1.94h-3.75l-.66,1.94c-.03.1-.09.15-.19.15h-1.42c-.1,0-.13-.05-.1-.15l3.42-9.68h0ZM155.85,119.4l-1.32-3.87h-.04l-1.33,3.87h2.7,0Z"/>
    <path d="M163.68,113.2c.03-.1.09-.15.19-.15h1.35c.1,0,.16.05.19.15l3.37,9.68c.03.1,0,.15-.1.15h-1.44c-.1,0-.16-.05-.19-.15l-.66-1.94h-3.75l-.66,1.94c-.03.1-.09.15-.19.15h-1.42c-.1,0-.13-.05-.1-.15l3.42-9.68h0ZM165.87,119.4l-1.32-3.87h-.04l-1.33,3.87h2.7,0Z"/>
    <path d="M170.74,120.73c-.05-.16-.09-.31-.12-.46s-.06-.33-.08-.53-.03-.44-.04-.71c0-.27,0-.6,0-1.01s0-.72,0-1c0-.27.02-.51.04-.71.02-.2.05-.38.08-.53s.08-.31.12-.46c.25-.82.68-1.44,1.28-1.84.6-.41,1.33-.61,2.18-.61.8,0,1.49.19,2.07.58.58.38,1.01.91,1.3,1.58.03.09,0,.15-.07.18l-1.25.6c-.09.05-.15.02-.19-.07-.17-.35-.39-.66-.68-.91s-.68-.38-1.18-.38-.86.12-1.15.35c-.29.23-.5.56-.64.97-.03.11-.06.21-.08.32s-.04.25-.06.42-.02.38-.03.62,0,.55,0,.91v.92c0,.24,0,.44.03.61s.03.31.06.42.05.22.08.31c.14.41.35.73.64.97s.67.35,1.15.35.89-.13,1.18-.38.51-.56.68-.91c.04-.1.1-.12.19-.07l1.25.6c.08.03.1.09.07.18-.28.67-.72,1.19-1.3,1.58-.58.38-1.27.58-2.07.58-.85,0-1.58-.2-2.18-.61-.6-.41-1.03-1.02-1.28-1.84v-.02Z"/>
    <path d="M180.16,113.2c0-.1.05-.15.15-.15h1.44c.1,0,.15.05.15.15v3.92c0,.06.03.09.09.09h3.8c.06,0,.09-.03.09-.09v-3.92c0-.1.05-.15.15-.15h1.44c.1,0,.15.05.15.15v9.68c0,.1-.05.15-.15.15h-1.44c-.1,0-.15-.05-.15-.15v-4.02c0-.06-.03-.09-.09-.09h-3.8c-.06,0-.09.03-.09.09v4.02c0,.1-.05.15-.15.15h-1.44c-.1,0-.15-.05-.15-.15v-9.68Z"/>
    <path d="M190.77,113.18c0-.1.05-.15.15-.15h6.25c.1,0,.15.05.15.15v1.27c0,.1-.05.15-.15.15h-4.58c-.06,0-.09.03-.09.09v2.42c0,.06.03.09.09.09h3.86c.1,0,.15.05.15.15v1.27c0,.1-.05.15-.15.15h-3.86c-.06,0-.09.03-.09.09v2.51c0,.06.03.09.09.09h4.58c.1,0,.15.05.15.15v1.27c0,.1-.05.15-.15.15h-6.25c-.1,0-.15-.05-.15-.15v-9.69h0Z"/>
    <path d="M200.09,113.2c0-.1.05-.15.15-.15h1.35c.11,0,.19.05.25.15l4.06,6.88h.06v-6.88c0-.1.05-.15.15-.15h1.28c.1,0,.15.05.15.15v9.68c0,.1-.05.15-.15.15h-1.33c-.11,0-.19-.05-.25-.15l-4.08-6.86h-.06v6.86c0,.1-.05.15-.15.15h-1.28c-.1,0-.15-.05-.15-.15v-9.68Z"/>
  </g>
  <path d="M70.87,53.47h-15.72l15.72-15.72v15.72ZM70.03,71.19h-15.7v-15.7l15.7,15.7ZM54.32,88.09v-15.7h15.7l-15.7,15.7ZM70.84,88.92h-15.68l15.68-15.68v15.68ZM70.87,105.77l-15.63-15.63h15.63v15.63ZM54.35,106.63v-15.7l15.7,15.7s-15.7,0-15.7,0ZM54.35,36.92h15.67l-15.67,15.67v-15.67ZM53.14,70.36l-15.71-15.71h15.71v15.71ZM36.6,71.17v-15.67l15.67,15.67h-15.67ZM72.05,54.06v-17.61c.03-.12.03-.26-.02-.38-.09-.22-.31-.37-.55-.37h-17.73c-.22,0-.41.12-.51.3-.06.1-.1.21-.1.33v17.13h-16.99c-.13-.04-.27-.04-.41.02-.22.09-.37.31-.37.55v17.73c0,.19.09.36.23.47.11.1.24.16.4.16h17.14v16.99c-.03.11-.04.23,0,.35v17.53c0,.33.27.59.59.59h17.73c.17,0,.33-.07.43-.19.06-.06.1-.12.14-.2.05-.12.06-.26.02-.38v-35.28c0-.17-.08-.33-.2-.44l-16.7-16.7h16.3c.33,0,.59-.27.59-.59"/>
</svg>