<svg xmlns="http://www.w3.org/2000/svg" version="1.1" xmlns:xlink="http://www.w3.org/1999/xlink" width="150" height="150"><svg id="SvgjsSvg1018" data-name="Ebene 1" xmlns="http://www.w3.org/2000/svg" viewBox="0 0 150 150">
  <defs>
    <style>
      .cls-1 {
        fill: #3231e4;
      }

      .cls-2 {
        fill: #96c61c;
      }
    </style>
  </defs>
  <g>
    <path class="cls-2" d="M47.49,41.58s.05.02.07.04c6.42,3.18,11.95,5.06,17.29,3.99.35-.11.47-.25.44-.62-.36-2.89-.76-6.73,1.65-9.25.43-.45.97-.87,1.6-1.27,1.31-.82,1.32-2.75.05-3.64-2.74-1.93-4.69-4.74-5.89-7.82-.2-.52-.74-.83-1.28-.7-8.95,2.05-17.12,6.16-24,11.78-.59.49-.51,1.42.16,1.81l9.92,5.69Z"></path>
    <path class="cls-2" d="M91.33,23.23c-.57-.17-1.18.15-1.36.72-.34,1.05-.77,2.06-1.31,3-.17.29-.35.58-.53.85-.76,1.14-.28,2.74,1.05,3.09,1.46.39,2.59,1.02,3.41,1.91.81.89,1.16,1.99,1.77,4.86l.07.34c.27,1.22.42,2.67.56,4.06.04.42.05.57.1,1.01.05.28.34.27.49.24,3.64-.49,7.08-.96,10.33-2.01,2.61-.84,5.19-2.22,7.72-3.76.63-.38.73-1.28.18-1.77-6.4-5.72-14.05-10.06-22.49-12.56Z"></path>
    <path class="cls-2" d="M121.71,46.86c-6.64,8.93-15.64,12.8-24.72,15.51-.64.19-1.1.74-1.15,1.41-1.62,19.62-3.77,41.35-12.04,59.93-1.11,2.5-3.83,8.05-7.87,12.94-.34.54-.59,1.82.9,1.82,31.48-1.16,56.64-27.05,56.64-58.81,0-12.13-3.68-23.39-9.97-32.75-.42-.62-1.34-.65-1.79-.05Z"></path>
    <path class="cls-2" d="M45.14,119.91l1.38-2.96c.31-.68,1.19-.85,1.75-.35l2.41,2.2c2.5,2.28,7.02,6.42,9.7,6.05.27-.04,1.1-.15,2.13-1.8,5.12-8.23,4.14-36.49,3.71-48.57l-.1-2.95c-.03-.84.02-1.96.07-3.26,0-.17.01-.35.02-.55.04-.99-.7-1.85-1.69-1.93-12.66-1.02-26.1-9.97-34.17-17.79-.08-.08-1.1-1.07-2.23-2.25-.48-.5-1.3-.44-1.7.12-6.72,9.56-10.66,21.21-10.66,33.78,0,20.03,10.02,37.71,25.31,48.34.67.47,1.61.04,1.71-.77.26-2.28,1.12-4.66,2.36-7.33Z"></path>
  </g>
  <path class="cls-1" d="M121.88,40.09c-6.46,12.13-16.5,16.39-29.23,19.88-1.68,20.65-3.53,43.22-12.04,62.32-5.57,12.5-18.06,29.04-31.27,13.42-4.29-5.07-3.75-8.44-1.02-14.32,4.53,4.14,12.31,11.3,17.16,3.51,6.13-9.85,4.52-41.36,4.14-53.47-.07-2.05.43-7.32-.04-8.83-.29-.93-1.34-.23-2.15-.21-12.02.28-26.25-8.76-34.64-16.9-.97-.94-4.01-4.02-4.59-4.96-1.08-1.78-.84-4.47-.86-6.47l18.53,10.63c7.18,3.56,14.96,6.55,22.93,3.38.86-1.23-1.52-7.62.66-9.91,2.85-2.99,17.82-5.96,20.55-2.99.35.39.84,2.86,1.01,3.6.51,2.3.54,6.15,1.18,8.03.08.23.17.44.44.48,4.8-.74,9.71-1.13,14.35-2.63,5.98-1.93,11.31-6.08,16.7-9.22.72-.23-1.62,4.29-1.82,4.66ZM76.29,29.96c16.37,1.28,14.17-29.19-3.67-26.18-11.94,2.01-10.05,25.11,3.67,26.18Z"></path>
</svg><style>@media (prefers-color-scheme: light) { :root { filter: none; } }
@media (prefers-color-scheme: dark) { :root { filter: none; } }
</style></svg>