<?xml version="1.0" encoding="UTF-8"?>
<svg xmlns="http://www.w3.org/2000/svg" version="1.1" viewBox="0 0 40 40">
  <defs>
    <style>
      .st0 {
        fill: #260a3b;
      }

      .st1 {
        fill: none;
        stroke: #14ffe3;
        stroke-linecap: round;
        stroke-linejoin: round;
        stroke-width: 2px;
      }
    </style>
  </defs>
  <circle class="st0" cx="20" cy="20" r="20"/>
  <g id="Style_x3D_Line">
    <path id="Vector" class="st1" d="M16.67,25.56h6.67M16.67,22.22h6.67M21.11,10c-.11,0-.23,0-.36,0h-4.97c-1.24,0-1.87,0-2.34.24-.42.21-.76.55-.97.97-.24.48-.24,1.1-.24,2.34v12.89c0,1.24,0,1.87.24,2.34.21.42.55.76.97.97.47.24,1.1.24,2.34.24h8.45c1.24,0,1.86,0,2.34-.24.42-.21.76-.55.97-.97.24-.47.24-1.1.24-2.34v-9.42c0-.14,0-.26,0-.36M21.11,10c.32,0,.52.01.71.06.23.05.44.14.64.27.22.14.42.33.8.71l3.47,3.47c.38.38.58.58.71.8.12.2.21.42.27.64.05.19.06.39.06.71M21.11,10v3.11c0,1.24,0,1.87.24,2.34.21.42.55.76.97.97.47.24,1.1.24,2.34.24h3.11"/>
  </g>
</svg>