<?xml version="1.0" encoding="UTF-8"?>
<svg xmlns="http://www.w3.org/2000/svg" version="1.1" viewBox="0 0 40 40">
  <defs>
    <style>
      .st0 {
        fill: #14ffe3;
      }

      .st1 {
        fill: none;
        stroke: #260a3b;
        stroke-linecap: round;
        stroke-linejoin: round;
        stroke-width: 2px;
      }
    </style>
  </defs>
  <circle class="st0" cx="20" cy="20" r="20"/>
  <g id="Style_x3D_Line">
    <path id="Vector" class="st1" d="M16.67,24.99c3.95-.22,7.08-3.49,7.08-7.49s-3.36-7.5-7.5-7.5-7.5,3.36-7.5,7.5c0,1.48.43,2.85,1.16,4.01l-.53,1.59h0c-.2.61-.3.92-.23,1.12.06.18.2.32.38.38.2.07.5-.03,1.11-.23h0s1.59-.53,1.59-.53c1.16.74,2.54,1.16,4.01,1.16.14,0,.28,0,.42-.01ZM16.67,24.99s0,0,0,0ZM16.67,24.99c1.03,2.92,3.81,5.01,7.08,5.01,1.48,0,2.85-.43,4.01-1.16l1.59.53h0c.61.2.91.31,1.12.23.18-.06.31-.2.38-.38.07-.2-.03-.51-.23-1.12l-.53-1.59.18-.29c.63-1.1.98-2.37.98-3.72,0-4.14-3.36-7.5-7.5-7.5h-.28s-.14.01-.14.01"/>
  </g>
</svg>