<?xml version="1.0" encoding="UTF-8"?>
<svg xmlns="http://www.w3.org/2000/svg" version="1.1" viewBox="0 0 40 40">
  <defs>
    <style>
      .st0 {
        fill: #260a3b;
      }

      .st1 {
        fill: none;
        stroke: #14ffe3;
        stroke-linecap: round;
        stroke-linejoin: round;
        stroke-width: 2px;
      }
    </style>
  </defs>
  <circle class="st0" cx="20" cy="20" r="20"/>
  <path class="st1" d="M23.33,17.78l-4.44,4.44-2.22-2.22M20,30c-1.82,0-3.52-.48-4.99-1.33-.15-.08-.22-.13-.29-.14-.06-.02-.12-.02-.19-.02-.07,0-.14.03-.29.08l-2.57.86h0c-.54.18-.81.27-.99.21-.16-.06-.28-.18-.34-.34-.06-.18.03-.45.21-.99h0s.85-2.57.85-2.57h0c.05-.15.07-.22.08-.29,0-.07,0-.12-.02-.19-.02-.07-.06-.14-.14-.28h0c-.85-1.47-1.33-3.18-1.33-4.99,0-5.52,4.48-10,10-10s10,4.48,10,10-4.48,10-10,10Z"/>
</svg>