<?xml version="1.0" encoding="UTF-8"?>
<svg xmlns="http://www.w3.org/2000/svg" version="1.1" viewBox="0 0 40 40">
  <defs>
    <style>
      .st0 {
        fill: #14ffe3;
      }

      .st1 {
        fill: none;
        stroke: #260a3b;
        stroke-linecap: round;
        stroke-linejoin: round;
        stroke-width: 2px;
      }
    </style>
  </defs>
  <circle class="st0" cx="20" cy="20" r="20"/>
  <g id="Style_x3D_Line">
    <path id="Vector" class="st1" d="M25.56,28.33c0-1.84-2.49-3.33-5.56-3.33s-5.56,1.49-5.56,3.33M30,25c0-1.37-1.37-2.54-3.33-3.06M10,25c0-1.37,1.37-2.54,3.33-3.06M26.67,17.48c.68-.61,1.11-1.5,1.11-2.48,0-1.84-1.49-3.33-3.33-3.33-.85,0-1.63.32-2.22.85M13.33,17.48c-.68-.61-1.11-1.5-1.11-2.48,0-1.84,1.49-3.33,3.33-3.33.85,0,1.63.32,2.22.85M20,21.67c-1.84,0-3.33-1.49-3.33-3.33s1.49-3.33,3.33-3.33,3.33,1.49,3.33,3.33-1.49,3.33-3.33,3.33Z"/>
  </g>
</svg>