<?xml version="1.0" encoding="UTF-8"?>
<svg xmlns="http://www.w3.org/2000/svg" version="1.1" viewBox="0 0 180 105">
  <title>Logo KATHOLISCHE KIRCHE HERZOGENRATH</title>
  <desc>Logo des pastoralen Raumes Herzogenrath im Bistum Aachen</desc>
  <defs>
    <style>
      .st0 {
        fill: #0085ff;
      }

      .st1 {
        fill: #fff;
      }

      .st2 {
        fill: #0053ff;
      }

      .st3 {
        fill: #3231e4;
      }
    </style>
  </defs>
  <path class="st1" d="M45.5,38.89c0-.14.09-.23.23-.23h2.21c.14,0,.23.09.23.23v7.21l5.79-7.25c.11-.14.2-.18.36-.18h2.57c.14,0,.2.16.09.29l-4.75,5.72,5.29,9.03c.09.16.02.27-.16.27h-2.5c-.18,0-.25-.05-.34-.18l-4.01-7.07-2.34,2.84v4.19c0,.14-.09.23-.23.23h-2.21c-.14,0-.23-.09-.23-.23,0,0,0-14.87,0-14.87Z"/>
  <path class="st1" d="M59.92,38.89c0-.14.09-.23.23-.23h2.21c.14,0,.23.09.23.23v14.87c0,.14-.09.23-.23.23h-2.21c-.14,0-.23-.09-.23-.23v-14.87Z"/>
  <path class="st1" d="M74.6,53.98c-.18,0-.27-.07-.34-.23l-2.93-5.97h-2.64c-.09,0-.13.05-.13.14v5.83c0,.14-.09.23-.23.23h-2.21c-.14,0-.23-.09-.23-.23v-14.87c0-.14.09-.23.23-.23h5.92c2.82,0,4.89,1.87,4.89,4.57,0,2.01-1.15,3.56-2.91,4.21l3.22,6.24c.09.16,0,.29-.16.29h-2.5l.02.02ZM74.31,43.23c0-1.33-.95-2.19-2.34-2.19h-3.27c-.09,0-.13.04-.13.14v4.08c0,.09.04.14.13.14h3.27c1.4,0,2.34-.86,2.34-2.16h0Z"/>
  <path class="st1" d="M79.4,46.32c0-2.43.09-3.2.41-4.15.79-2.5,2.73-3.76,5.32-3.76s4.3,1.26,5.18,3.29c.04.11,0,.23-.11.27l-1.91.92c-.14.07-.25,0-.29-.11-.5-1.08-1.35-1.98-2.86-1.98s-2.32.79-2.75,2.03c-.2.63-.27,1.24-.27,3.49s.07,2.86.27,3.49c.43,1.24,1.28,2.03,2.75,2.03s2.37-.9,2.86-1.98c.05-.11.16-.18.29-.11l1.91.92c.11.05.16.16.11.27-.88,2.03-2.73,3.29-5.18,3.29-2.59,0-4.53-1.26-5.32-3.76-.32-.95-.41-1.71-.41-4.14h0Z"/>
  <path class="st1" d="M92.81,38.89c0-.14.09-.23.23-.23h2.21c.14,0,.23.09.23.23v6.04c0,.09.04.14.14.14h5.83c.09,0,.13-.04.13-.14v-6.04c0-.14.09-.23.23-.23h2.21c.14,0,.23.09.23.23v14.87c0,.14-.09.23-.23.23h-2.21c-.14,0-.23-.09-.23-.23v-6.17c0-.09-.04-.14-.13-.14h-5.83c-.09,0-.14.05-.14.14v6.17c0,.14-.09.23-.23.23h-2.21c-.14,0-.23-.09-.23-.23v-14.87Z"/>
  <path class="st1" d="M107.59,38.89c0-.14.09-.23.23-.23h9.6c.14,0,.23.09.23.23v1.94c0,.14-.09.23-.23.23h-7.03c-.09,0-.14.04-.14.14v3.74c0,.09.05.14.14.14h5.92c.14,0,.23.09.23.23v1.94c0,.14-.09.23-.23.23h-5.92c-.09,0-.14.05-.14.14v3.87c0,.09.05.14.14.14h7.03c.14,0,.23.09.23.23v1.94c0,.14-.09.23-.23.23h-9.6c-.14,0-.23-.09-.23-.23v-14.91Z"/>
  <path class="st1" d="M45.51,18.19c0-.13.09-.22.22-.22h2.14c.13,0,.22.09.22.22v6.99l5.61-7.03c.11-.13.2-.17.35-.17h2.49c.13,0,.2.15.09.28l-4.61,5.55,5.13,8.76c.09.15.02.26-.15.26h-2.42c-.17,0-.24-.04-.33-.17l-3.89-6.86-2.27,2.75v4.06c0,.13-.09.22-.22.22h-2.14c-.13,0-.22-.09-.22-.22,0,0,0-14.42,0-14.42Z"/>
  <path class="st1" d="M63.86,18.19c.04-.13.13-.22.28-.22h2.01c.15,0,.24.09.28.22l5.02,14.42c.04.13,0,.22-.15.22h-2.14c-.15,0-.24-.07-.28-.22l-.98-2.88h-5.59l-.98,2.88c-.04.15-.13.22-.28.22h-2.12c-.15,0-.2-.09-.15-.22l5.09-14.42h0ZM67.12,27.43l-1.97-5.77h-.07l-1.99,5.77h4.03Z"/>
  <path class="st1" d="M75.25,32.82c-.13,0-.22-.09-.22-.22v-12.19c0-.09-.04-.13-.13-.13h-3.89c-.13,0-.22-.09-.22-.22v-1.88c0-.13.09-.22.22-.22h10.62c.13,0,.22.09.22.22v1.88c0,.13-.09.22-.22.22h-3.89c-.09,0-.13.04-.13.13v12.19c0,.13-.09.22-.22.22h-2.14Z"/>
  <path class="st1" d="M83.98,18.19c0-.13.09-.22.22-.22h2.14c.13,0,.22.09.22.22v5.85c0,.09.04.13.13.13h5.66c.09,0,.13-.04.13-.13v-5.85c0-.13.09-.22.22-.22h2.14c.13,0,.22.09.22.22v14.42c0,.13-.09.22-.22.22h-2.14c-.13,0-.22-.09-.22-.22v-5.99c0-.09-.04-.13-.13-.13h-5.66c-.09,0-.13.04-.13.13v5.99c0,.13-.09.22-.22.22h-2.14c-.13,0-.22-.09-.22-.22,0,0,0-14.42,0-14.42Z"/>
  <path class="st1" d="M98.16,29.48c-.31-.92-.39-1.75-.39-4.08s.09-3.17.39-4.08c.76-2.36,2.69-3.58,5.24-3.58s4.5,1.22,5.26,3.58c.31.92.39,1.75.39,4.08s-.09,3.17-.39,4.08c-.76,2.36-2.69,3.58-5.26,3.58s-4.48-1.22-5.24-3.58ZM106.18,28.8c.17-.55.26-1.31.26-3.41s-.09-2.86-.26-3.41c-.42-1.2-1.29-1.94-2.77-1.94s-2.34.74-2.75,1.94c-.17.55-.26,1.29-.26,3.41s.09,2.86.26,3.41c.41,1.2,1.29,1.94,2.75,1.94s2.36-.74,2.77-1.94Z"/>
  <path class="st1" d="M111.78,18.19c0-.13.09-.22.22-.22h2.14c.13,0,.22.09.22.22v12.19c0,.09.04.13.13.13h6.82c.13,0,.22.09.22.22v1.88c0,.13-.09.22-.22.22h-9.31c-.13,0-.22-.09-.22-.22v-14.42h0Z"/>
  <path class="st1" d="M123.68,18.19c0-.13.09-.22.22-.22h2.14c.13,0,.22.09.22.22v14.42c0,.13-.09.22-.22.22h-2.14c-.13,0-.22-.09-.22-.22v-14.42Z"/>
  <path class="st1" d="M128.59,31.1c-.09-.09-.13-.22-.04-.33l1.35-1.57c.09-.11.22-.11.31-.02.96.76,2.38,1.57,4.04,1.57,1.77,0,2.8-.9,2.8-2.14,0-1.07-.66-1.77-2.71-2.05l-.79-.11c-2.86-.39-4.48-1.77-4.48-4.24,0-2.69,1.97-4.48,5.02-4.48,1.86,0,3.63.59,4.81,1.49.11.09.13.17.04.31l-1.05,1.62c-.09.11-.2.13-.31.07-1.2-.79-2.32-1.16-3.56-1.16-1.51,0-2.34.83-2.34,1.99,0,1.03.72,1.73,2.73,2.01l.79.11c2.86.39,4.43,1.75,4.43,4.3s-1.9,4.61-5.59,4.61c-2.18,0-4.3-.87-5.46-1.97h.01Z"/>
  <path class="st1" d="M141.76,25.39c0-2.36.09-3.1.39-4.02.76-2.42,2.64-3.65,5.15-3.65,2.38,0,4.17,1.22,5.02,3.19.04.11,0,.22-.11.26l-1.86.9c-.13.07-.24,0-.28-.11-.48-1.05-1.31-1.92-2.77-1.92s-2.25.76-2.66,1.97c-.2.61-.26,1.2-.26,3.39s.07,2.77.26,3.39c.41,1.2,1.24,1.97,2.66,1.97s2.29-.87,2.77-1.92c.04-.11.15-.17.28-.11l1.86.9c.11.04.15.15.11.26-.85,1.97-2.64,3.19-5.02,3.19-2.51,0-4.39-1.22-5.15-3.65-.31-.92-.39-1.66-.39-4.02v-.02Z"/>
  <path class="st1" d="M154.63,18.19c0-.13.09-.22.22-.22h2.14c.13,0,.22.09.22.22v5.85c0,.09.04.13.13.13h5.66c.09,0,.13-.04.13-.13v-5.85c0-.13.09-.22.22-.22h2.14c.13,0,.22.09.22.22v14.42c0,.13-.09.22-.22.22h-2.14c-.13,0-.22-.09-.22-.22v-5.99c0-.09-.04-.13-.13-.13h-5.66c-.09,0-.13.04-.13.13v5.99c0,.13-.09.22-.22.22h-2.14c-.13,0-.22-.09-.22-.22v-14.42Z"/>
  <path class="st1" d="M168.82,18.19c0-.13.09-.22.22-.22h9.31c.13,0,.22.09.22.22v1.88c0,.13-.09.22-.22.22h-6.82c-.09,0-.13.04-.13.13v3.63c0,.09.04.13.13.13h5.74c.13,0,.22.09.22.22v1.88c0,.13-.09.22-.22.22h-5.74c-.09,0-.13.04-.13.13v3.76c0,.09.04.13.13.13h6.82c.13,0,.22.09.22.22v1.88c0,.13-.09.22-.22.22h-9.31c-.13,0-.22-.09-.22-.22v-14.42h0Z"/>
  <g>
    <rect class="st3" y="17.96" width="18.04" height="18.04"/>
    <polygon class="st0" points="0 17.96 0 36 18.04 36 0 17.96"/>
  </g>
  <g>
    <rect class="st0" x="18.04" width="17.97" height="17.97"/>
    <polyline class="st3" points="36 0 18.04 0 18.04 17.97"/>
  </g>
  <g>
    <rect class="st0" x="18.04" y="36" width="17.97" height="17.97"/>
    <polyline class="st3" points="18.04 53.97 36 53.97 36 36"/>
  </g>
  <g>
    <rect class="st2" x="18.04" y="53.97" width="17.97" height="17.97"/>
    <polyline class="st0" points="36 71.94 18.04 71.94 18.04 53.97"/>
  </g>
  <polygon class="st2" points="18.04 36 36.08 36 18.04 17.96 18.04 36"/>
  <g>
    <path class="st1" d="M45.54,62.11c0-.1.05-.15.15-.15h1.44c.1,0,.15.05.15.15v3.92c0,.06.03.09.09.09h3.8c.06,0,.09-.03.09-.09v-3.92c0-.1.05-.15.15-.15h1.44c.1,0,.15.05.15.15v9.68c0,.1-.05.15-.15.15h-1.44c-.1,0-.15-.05-.15-.15v-4.02c0-.06-.03-.09-.09-.09h-3.8c-.06,0-.09.03-.09.09v4.02c0,.1-.05.15-.15.15h-1.44c-.1,0-.15-.05-.15-.15v-9.68Z"/>
    <path class="st1" d="M56.14,62.1c0-.1.05-.15.15-.15h6.25c.1,0,.15.05.15.15v1.27c0,.1-.05.15-.15.15h-4.58c-.06,0-.09.03-.09.09v2.42c0,.06.03.09.09.09h3.86c.1,0,.15.05.15.15v1.27c0,.1-.05.15-.15.15h-3.86c-.06,0-.09.03-.09.09v2.51c0,.06.03.09.09.09h4.58c.1,0,.15.05.15.15v1.27c0,.1-.05.15-.15.15h-6.25c-.1,0-.15-.05-.15-.15v-9.69h0Z"/>
    <path class="st1" d="M71.13,71.94c-.11,0-.18-.05-.22-.15l-1.91-3.89h-1.72c-.06,0-.09.03-.09.09v3.8c0,.1-.05.15-.15.15h-1.44c-.1,0-.15-.05-.15-.15v-9.69c0-.1.05-.15.15-.15h3.86c.46,0,.88.07,1.27.22s.72.35,1,.61.51.57.67.94c.16.37.24.77.24,1.21,0,.66-.17,1.22-.51,1.7-.34.48-.8.83-1.38,1.04l2.1,4.07s.03.09,0,.13-.06.06-.11.06h-1.63.02ZM69.41,66.34c.46,0,.83-.13,1.11-.38s.42-.59.42-1.02-.14-.78-.42-1.04c-.28-.25-.65-.38-1.11-.38h-2.13c-.06,0-.09.03-.09.09v2.64c0,.06.03.09.09.09h2.13Z"/>
    <path class="st1" d="M75.22,71.94c-.1,0-.15-.05-.15-.15v-1.26s.01-.1.04-.16l4.5-6.82v-.03h-4.24c-.1,0-.15-.05-.15-.15v-1.27c0-.1.05-.15.15-.15h6.04c.1,0,.15.05.15.15v1.27c0,.06-.01.11-.04.15l-4.5,6.82v.03h4.4c.1,0,.15.05.15.15v1.27c0,.1-.05.15-.15.15,0,0-6.2,0-6.2,0Z"/>
    <path class="st1" d="M87.77,72.1c-.86,0-1.6-.2-2.21-.61-.62-.41-1.05-1.01-1.3-1.8-.05-.16-.09-.31-.12-.47-.03-.16-.06-.34-.08-.54-.02-.21-.03-.45-.04-.73,0-.28-.01-.61-.01-1.01s0-.73.01-1.01.02-.52.04-.73c.02-.21.05-.39.08-.54.03-.16.08-.31.12-.47.25-.79.69-1.39,1.3-1.8.62-.41,1.35-.61,2.21-.61s1.61.2,2.23.61,1.05,1.01,1.31,1.8c.05.16.09.31.12.47.03.16.06.34.08.54.02.21.03.45.04.73s.01.61.01,1.01,0,.73-.01,1.01c0,.28-.02.52-.04.73-.02.21-.05.39-.08.54-.03.16-.08.31-.12.47-.25.79-.69,1.39-1.31,1.8-.62.41-1.36.61-2.23.61ZM87.77,70.53c.5,0,.9-.11,1.2-.34.3-.23.52-.55.66-.96.03-.09.05-.19.07-.31s.04-.26.05-.44.03-.39.04-.64c0-.25.01-.55.01-.9s0-.65-.01-.9c0-.25-.02-.46-.04-.64-.01-.18-.03-.32-.05-.44s-.04-.22-.07-.31c-.14-.41-.36-.73-.66-.96s-.7-.34-1.2-.34-.9.11-1.2.34c-.3.23-.52.55-.65.96-.03.09-.06.19-.08.31s-.04.26-.06.44c-.01.17-.02.39-.03.64v1.8c0,.25.01.46.03.64.01.17.03.32.06.44s.05.22.08.31c.14.41.35.73.65.96.3.23.7.34,1.2.34Z"/>
    <path class="st1" d="M94.41,69.69c-.05-.16-.09-.31-.12-.47s-.06-.34-.08-.54c-.02-.21-.03-.45-.04-.73,0-.28,0-.61,0-1.01s0-.73,0-1.01.02-.52.04-.73c.02-.21.05-.39.08-.54.03-.16.08-.31.12-.47.25-.79.69-1.39,1.3-1.8.62-.41,1.37-.61,2.26-.61.47,0,.89.06,1.28.18.38.12.72.27,1.01.47.29.19.54.42.73.68s.35.53.46.8c.04.09.02.16-.06.21l-1.23.54c-.09.03-.15,0-.19-.07-.22-.4-.49-.71-.81-.92-.31-.21-.71-.31-1.2-.31s-.91.11-1.22.34c-.3.23-.52.55-.66.96-.03.09-.06.19-.08.31s-.04.26-.06.44c0,.17-.02.39-.03.64v1.8c0,.25,0,.46.03.64,0,.17.03.32.06.44s.05.22.08.31c.14.41.36.73.66.96.3.23.71.34,1.22.34.44,0,.83-.1,1.17-.31s.58-.52.72-.93c.05-.16.09-.34.12-.55s.04-.45.04-.74c0-.06-.03-.09-.09-.09h-1.64c-.1,0-.15-.05-.15-.15v-1.17c0-.1.05-.15.15-.15h3.3c.1,0,.15.05.15.15v.87c0,.41-.02.81-.06,1.21s-.1.72-.18.97c-.25.78-.68,1.39-1.3,1.81-.62.42-1.36.64-2.22.64s-1.64-.2-2.26-.61-1.05-1.01-1.3-1.8h0Z"/>
    <path class="st1" d="M104.6,62.1c0-.1.05-.15.15-.15h6.25c.1,0,.15.05.15.15v1.27c0,.1-.05.15-.15.15h-4.58c-.06,0-.09.03-.09.09v2.42c0,.06.03.09.09.09h3.86c.1,0,.15.05.15.15v1.27c0,.1-.05.15-.15.15h-3.86c-.06,0-.09.03-.09.09v2.51c0,.06.03.09.09.09h4.58c.1,0,.15.05.15.15v1.27c0,.1-.05.15-.15.15h-6.25c-.1,0-.15-.05-.15-.15v-9.69h0Z"/>
    <path class="st1" d="M113.93,62.11c0-.1.05-.15.15-.15h1.35c.11,0,.19.05.25.15l4.06,6.88h.06v-6.88c0-.1.05-.15.15-.15h1.28c.1,0,.15.05.15.15v9.68c0,.1-.05.15-.15.15h-1.33c-.11,0-.19-.05-.25-.15l-4.08-6.86h-.06v6.86c0,.1-.05.15-.15.15h-1.28c-.1,0-.15-.05-.15-.15v-9.68Z"/>
    <path class="st1" d="M130.19,71.94c-.11,0-.18-.05-.22-.15l-1.91-3.89h-1.72c-.06,0-.09.03-.09.09v3.8c0,.1-.05.15-.15.15h-1.44c-.1,0-.15-.05-.15-.15v-9.69c0-.1.05-.15.15-.15h3.86c.46,0,.88.07,1.27.22s.72.35,1,.61.51.57.67.94.24.77.24,1.21c0,.66-.17,1.22-.51,1.7-.34.48-.8.83-1.38,1.04l2.1,4.07s.03.09,0,.13-.06.06-.11.06h-1.63.02ZM128.48,66.34c.46,0,.83-.13,1.11-.38s.42-.59.42-1.02-.14-.78-.42-1.04-.65-.38-1.11-.38h-2.13c-.06,0-.09.03-.09.09v2.64c0,.06.03.09.09.09h2.13Z"/>
    <path class="st1" d="M137.16,62.11c.03-.1.09-.15.19-.15h1.35c.1,0,.16.05.19.15l3.37,9.68c.03.1,0,.15-.1.15h-1.44c-.1,0-.16-.05-.19-.15l-.66-1.94h-3.75l-.66,1.94c-.03.1-.09.15-.19.15h-1.42c-.1,0-.13-.05-.1-.15l3.42-9.68h0ZM139.34,68.32l-1.32-3.87h-.04l-1.33,3.87h2.7,0Z"/>
    <path class="st1" d="M145.93,71.94c-.1,0-.15-.05-.15-.15v-8.18c0-.06-.03-.09-.09-.09h-2.61c-.1,0-.15-.05-.15-.15v-1.27c0-.1.05-.15.15-.15h7.13c.1,0,.15.05.15.15v1.27c0,.1-.05.15-.15.15h-2.61c-.06,0-.09.03-.09.09v8.18c0,.1-.05.15-.15.15h-1.44,0Z"/>
    <path class="st1" d="M152.74,62.11c0-.1.05-.15.15-.15h1.44c.1,0,.15.05.15.15v3.92c0,.06.03.09.09.09h3.8c.06,0,.09-.03.09-.09v-3.92c0-.1.05-.15.15-.15h1.44c.1,0,.15.05.15.15v9.68c0,.1-.05.15-.15.15h-1.44c-.1,0-.15-.05-.15-.15v-4.02c0-.06-.03-.09-.09-.09h-3.8c-.06,0-.09.03-.09.09v4.02c0,.1-.05.15-.15.15h-1.44c-.1,0-.15-.05-.15-.15v-9.68Z"/>
  </g>
</svg>