<?xml version="1.0" encoding="UTF-8"?>
<svg xmlns="http://www.w3.org/2000/svg" viewBox="0 0 512 85">
  <defs>
    <style>
      .cls-1 {
        fill: #260a3b;
      }
    </style>
  </defs>
  <path class="cls-1" d="M6.49,78.41l6.65-13.02c5.79,3.04,11.59,4.94,18.72,4.94,8.07,0,12.35-4.18,12.35-11.4v-1.52c-2.95,3.32-7.79,7.12-15.01,7.12-13.4,0-23.09-9.5-23.09-23.85v-.19c0-14.54,9.88-24.13,21.85-24.13,7.6,0,12.06,2.85,15.86,6.75v-5.51h21.57v38.76c0,9.6-2,16.15-6.75,20.9-4.65,4.66-11.78,7.6-23.37,7.6s-20.43-2.28-28.79-6.46ZM44.3,40.6v-.19c0-4.47-3.42-8.08-8.65-8.08s-8.65,3.71-8.65,8.27v.19c0,4.47,3.42,7.98,8.65,7.98s8.65-3.61,8.65-8.17Z"/>
  <path class="cls-1" d="M72.04.13h21.57v69.35h-21.57V.13Z"/>
  <path class="cls-1" d="M98.25,54.76v-.19c0-10.36,7.7-16.15,19.76-16.15,4.37,0,9.98.95,12.26,1.9v-.85c0-4.75-2.95-7.5-9.6-7.5-5.32,0-9.79,1.14-14.35,2.94l-3.8-14.35c5.98-2.28,12.83-3.8,21.85-3.8,10.54,0,17.39,2.19,21.95,6.75,3.9,3.9,5.42,8.93,5.42,16.44v29.55h-21.57v-5.23c-3.61,3.9-8.46,6.46-14.92,6.46-9.98,0-17.01-5.7-17.01-15.96ZM130.46,50.29v-2.19c-1.23-.47-3.14-.85-4.94-.85-4.28,0-6.65,2.57-6.65,5.8v.19c0,3.04,2.19,5.04,4.94,5.04,3.8,0,6.65-3.04,6.65-7.98Z"/>
  <path class="cls-1" d="M157.44,51.81V17.61h21.57v27.27c0,4.47,2.66,7.03,5.89,7.03s6.18-2.56,6.18-7.03v-27.27h21.56v51.87h-21.56v-6.94c-3.33,4.27-8.55,8.17-15.87,8.17-10.93,0-17.77-7.22-17.77-18.91Z"/>
  <path class="cls-1" d="M240.66,63.59v5.89h-21.56V.13h21.56v23.85c3.52-3.8,7.51-7.6,15.39-7.6,12.54,0,22.33,10.92,22.33,26.79v.19c0,16.44-9.88,27.36-22.13,27.36-7.89,0-12.26-3.42-15.58-7.12ZM257.47,43.64v-.19c0-5.23-3.71-9.31-8.64-9.31s-8.65,4.08-8.65,9.31v.19c0,5.13,3.71,9.31,8.65,9.31s8.64-4.08,8.64-9.31Z"/>
  <path class="cls-1" d="M279.61,63.21l7.31-12.26c6.27,3.9,13.3,5.8,19.19,5.8,2.09,0,3.13-.48,3.13-1.71v-.19c0-1.04-.95-1.71-6.17-3.04-13.11-3.23-21.19-6.75-21.19-17.48v-.19c0-11.4,9.12-17.77,22.61-17.77,8.55,0,17.01,2.18,23.28,5.98l-6.84,12.83c-5.51-3.04-12.16-4.85-16.53-4.85-2.09,0-3.04.57-3.04,1.62v.19c0,1.04,1.14,1.71,6.37,3.04,13.11,3.23,21,6.84,21,17.48v.19c0,11.3-8.46,17.86-22.52,17.86-10.07,0-19.19-2.56-26.6-7.5Z"/>
  <path class="cls-1" d="M336.23,52.1v-17.86h-6.08v-16.62h6.08V4.59h21.57v13.02h11.97v16.62h-11.97v13.11c0,3.9,1.81,5.32,5.23,5.32,2,0,4.27-.57,6.55-1.61v16.62c-3.42,1.81-8.55,2.95-13.78,2.95-12.73,0-19.57-5.89-19.57-18.53Z"/>
  <path class="cls-1" d="M371.57,43.83v-.19c0-15.49,11.12-27.27,26.7-27.27,18.43,0,26.98,12.83,26.98,28.6,0,1.14,0,2.47-.1,3.61h-33.34c1.52,4.56,5.13,6.94,9.79,6.94,3.89,0,7.12-1.8,10.54-5.32l11.59,9.21c-5.13,6.65-12.45,11.31-23.66,11.31-17,0-28.5-10.73-28.5-26.89ZM405.58,39.08c-.47-4.94-3.42-7.79-7.22-7.79s-6.17,3.04-6.84,7.79h14.06Z"/>
  <path class="cls-1" d="M430.09,17.23V2.98h24.13v14.25l-6.65,31.54h-10.83l-6.65-31.54ZM431.13,52.38h22.04v17.1h-22.04v-17.1Z"/>
  <path class="cls-1" d="M472.55,32.33l1.14-1.14c10.07-1.33,13.21-3.52,13.21-6.56v-.09c0-2.19-2-3.71-5.61-3.71s-8.83,2.38-13.49,5.98l-10.26-15.39c6.08-5.42,14.44-9.59,25.94-9.59,14.16,0,24.42,7.98,24.42,20.14v.19c0,11.88-7.5,17.1-18.33,20.24l-1.14,6.36h-13.21l-2.66-16.44ZM470.46,52.38h22.04v17.1h-22.04v-17.1Z"/>
</svg>