<?xml version="1.0" encoding="UTF-8"?>
<svg xmlns="http://www.w3.org/2000/svg" viewBox="0 0 512 512">
  <defs>
    <style>
      .cls-1 {
        fill: #fff;
        font-family: DMSans-Bold, 'DM Sans', sans-serif;
        font-size: 28px;
        font-variation-settings: 'opsz' 14, 'wght' 700;
        font-weight: 700;
      }

      .cls-2 {
        fill: #007bb8;
        stroke: #f2f2f2;
      stroke-linejoin: round;
        stroke-width: 6px;
      }
    </style>
  </defs>
  <path class="cls-2" d="M487.18,335.11c-52.71-49.5-113.45-107.58-112.8-111.73,1.16-7.31,12.73-32.02,12.73-32.02l2.78-21.72.45-3.52-17.44-28.01-18.11-13.65-40.73,16.8-19.61-106.46-49.73,14.71-4.2-5.6h-9.1l-30.82,13.03-22.41,5.88-21.72,18.21,4.91,7-10.05,15.4,10.05,4.91-3.51,4.9v4.2l-6.55,16.58h6.55l-6.8,14.94-45.73-18.91-12.94,49.19,17.5,6.92,11.18,7.67v25.57l-84.11-33.24-10.7,24.96-11.11-6.59-2.63,6.22-7.65,18.09,6.68,12.64-8.59,7.8,12.2,5.45,20.83,33.49,16.27,7.84,6.84,9.11-11.21,2.8,4.37,19.15,8.24-.72v7.48h9.11l2.8,40.62,16.8,29.72,6.31-.73-3.51,15.13,2.8,7,6.31-4.2,19.95,20.97h9.47l1.71,4.23,8.8,21.73,28.01,8.83v-34.78l23.11,4.24,4.91-4.24h14.01l6.3-11.87,35.02-4.2,7,30.12s17.51,18.21,18.21,20.32c.46,1.38,48.7-.91,81.73-2.65,17.24-.91,30.33-1.66,30.33-1.66l22.56-12.79,22.96-13.01-4.2-4.24,26.61-24.47v-12.27l13.31,4.57,25.91-41.32,7.7-10.5,4.42-2.85c-6.98-6.52-14.31-13.39-21.82-20.43"/>
  <text class="cls-1" text-anchor="middle" alignment-baseline="central"><tspan x="256" y="256">Viersen</tspan></text>
</svg>