<?xml version="1.0" encoding="UTF-8"?>
<svg xmlns="http://www.w3.org/2000/svg" viewBox="0 0 512 512">
  <defs>
    <style>

      .cls-2 {
        fill: #997ca1;
      }

      .cls-2, .cls-3, .cls-4 {
        stroke: #fff;
        stroke-linejoin: round;
        stroke-width: 2px;
      }

      .cls-3 {
        fill: #b19bb8;
      }

      .cls-9 {
        fill: #fff;
        font-family: DMSans-Bold, 'DM Sans', sans-serif;
        font-size: 18px;
        font-variation-settings: 'opsz' 14, 'wght' 700;
        font-weight: 700;
      }

      .cls-10 {
        font-size: 14px;
      }

      .cls-4 {
        fill: #825e8b;
      }
    </style>
  </defs>
  <path class="cls-3" d="M365.67,318.34l-1.27-.8-6.6,3.55-1.99,1.07-1.27,2.23-.3-.24-2.88-2.3-2.62,2.49-.73.69-2.51-3.34-.36-.48v1.75h0s0,0,0,0l-3.02-.8h-4.46l-1.32.81-1.07.65-1.84-1.07-.38-.22-5.25,6.37-5.27.09-3.96.07-1.39.97-3.38,2.37-4.77-5.89-.96.8-4.11-6.37-.82-1.27-.32-2.01-.31-1.97-.5-1.27-1.25-3.18-6.76,4.22-6.76,4.22-.95-2.71,1.73-2.47,1.61-2.3-1.27-1.91h-4.62l-1.76-3.03-1.63-2.81h0s0,0,0,0l1.91-1.27-4.03-3.82h0s0,0,0,0l4.03-2.97-2.33-2.76-.65-2.94-.41-1.88-10.96,6.87-2.83,1.77-2.81,1.8-2.5,1.6h-7s0,0,0,0l-.16-.65-.26-1.05-1.06-3.61,2.97-10.82h0s3.18,0,3.18,0l.1-1.06.11-1.27,4.03.42v-2.12l-8.91-3.18-.96,3.83-1.16,4.66h0s0,0,0,0l-6.66-2.13-3.94-1.26h0s0,0,0,0v-2.76l-3.49-1.6-1.6-.73-3.61.82v16.58h-4.46l-1.49,2.76h-4.56l-3.71,3.61-3.82,4.89,3.4,4.45-6.15,2.76,2.55,8.7,4.46,5.94,3.29,3.4,4.56,1.01v4.51l4.72,5.99,5.57-1.39-.64,6.17,8.91,18.46-3.98,6.37-5.73,4.04-1.06,2.66-.37.94-1.48,2.55-2.18.8-.07.04,1.51,2.03,1.91,5.25-2.23,3.82,1.06,3.02-3.13,2.87,1.75,2.55-3.82,5.09,2.07,1.91-1.59,2.23,7.64,7.16v3.5l2.55,5.98-2.23,1.18,1.12,3.03h1.75v2.86l3.82.8.95,3.66h27.85l17.35,6.15-4.93,23.98,22.07,8.49,14.18,11.44,3.43,2.77s-3.05,13.35-3.28,16.94c-.03.54,0,.86.1.89.85.21,13.79,0,13.79,0l4.5-1.13,3.14-.78,30.77-6.58,1.92-11.95,1.05-6.51-3.82-2.86-3.61-2.24,3.82-8.49-.21-1.7,2.33-7.64,2.33-4.25-1.7-2.33,9.34-13.16v-2.12l2.55-1.27,2.55-5.52v-6.58l5.09-14.45,4.67-2.1,1.27-2.33,4.25-2.97,3.61-6.15v-2.55l2.55-1.58,2.97-2.45,1.27-2.97-2.33-8.49,4.67-1.91,5.29-1.86,3.41,1.86,5.09.85,4.46,2.55,4.67-6.63-4.04-3.77h-4.24s-2.12-2.76-2.33-3.4c-.21-.64,4.67-12.31,4.67-12.31l-5.3,1.27-2.55-3.18.39-2.29.88-5.14-1.49-2.97-.21-5.73s3.4-3.61,3.61-4.93c.21-1.33,1.7-5.04,1.91-5.68.21-.64-3.18-9.12-3.18-9.12l-5.63,6.23h-4.13l-1.27,2.47-1.7,7.64-3.82,1.06-2.97-2.6-2.97,4.08v2.97l-3.61,2.05-7.43-2.69-5.09,2.69v6.65l-9.76.85-4.03-12.73-2.33-3.87,1.7-4.62,4.67-3.96s-1.27-2.62-1.27-3.47-7.75-1.17-7.75-1.17l-2.59-1.32h0s-1.06.69-1.06.69Z"/>
  <text class="cls-9" text-anchor="middle" alignment-baseline="central">
    <tspan x="320" y="400">Stolberg</tspan>
  </text>
  <path class="cls-2" d="M281.02,169.35l-1.61.82-1.01,1.97-1.69,3.28-1.11,5.09-7.8,4.3,1.27,1.91h0s0,0,0,0l-12.25,8.75v5.68h0s-1.85,1.05-1.85,1.05l-1.11.63.15,2.72-1.06,5.94-3.39,6.15-5.94,7.43,2.55,1.62h0s0,0,0,0l-.85,6.66h2.97l4.88,4.88h0s0,0,0,0l-1.86,2.9-3.44,5.37,2.03,1.65,1.36,1.1,1.46,2.74.24.45h0s0,0,0,0l.34,1.35.51,2.04,1.7,2.55h0s0,0,0,0v1.7l-5.76,4.27-6.55,4.86-5.32,2.36-4.02,1.78-2.55.51v4.23l3.61-.82,1.6.73,3.5,1.6v2.76l3.94,1.26,6.66,2.13,1.17-4.66.96-3.83h0s0,0,0,0l8.91,3.18h0s0,0,0,0v2.12h0s0,0,0,0l-4.03-.42-.12,1.27-.1,1.06h0s-3.18,0-3.18,0l-2.97,10.82,1.06,3.61.26,1.05.16.65h7l2.5-1.6,2.81-1.8,2.83-1.77,10.96-6.87h0s0,0,0,0l.41,1.88.65,2.94,2.33,2.76-4.03,2.97,4.03,3.82h0s0,0,0,0l-1.91,1.27,1.63,2.81,1.76,3.03h4.61s0,0,0,0l1.27,1.91-1.61,2.3-1.73,2.47.95,2.7,6.76-4.22,6.76-4.22,1.25,3.18.5,1.27.31,1.96.32,2.01.82,1.27,4.11,6.37.95-.8h0s0,0,0,0l4.77,5.89,3.38-2.37,1.39-.98,3.96-.07,5.27-.09,5.25-6.37.39.22,1.84,1.07,1.06-.65,1.32-.81h4.46l3.02.8v-1.75h0s0,0,0,0l.36.48,2.51,3.34.72-.69,2.62-2.49,2.88,2.31.3.24,1.27-2.23h0s0,0,0,0l1.99-1.07,6.6-3.55,1.27.8,1.07-.68h0s1.16-.75,1.16-.75l-2.07-5.04-4.67-4.24,3.82-6.37,2.92-.42,8.54,5.1,6.79-11.25,3.39.64.49-.88.57-1.03,3.39.21,2.12-8.28,2.76-3.39-1.7-3.4,17.19-14,1.7-3.18-4.24-5.73,4.24-7-7-3.61-.85-3.4h3.61l-2.12-5.44,8.91-4.96-10.4-1.06-4.03-4.03,3.18-3.39-2.34-3.18,8.91-9.13-18.46-12.52-2.55.85-.43-2.12,1.7-5.46-5.94-1.11,1.06-3.61h1.7l.64-2.98-1.49-1.05,4.24-12.52-2.97-1.27,9.25-8.77-3.73,3.46-6.58-9.34-2.55,2.12-3.15-2.46-1.73-1.36-3.18,4.67-5.31-5.09,3.18-6.37-5.73-6.79,2.97-3.61-4.03-4.02-2.55,4.02-3.18-1.49-11.03,10.4-1.49-2.12s-3.18,2.33-4.46,2.76c-1.27.42,0,3.79,0,3.79h-3.18l-6.79,5.97,4.25,5.94-10.4,9.55s-7-7.43-7.64-7.93c-.64-.5-10.19,9.84-10.19,9.84l-12.73-20.37-10.92,10.53,1.8,3.82-5.73,2.2h0s0,0,0,0l-2.69,1.36Z"/>
  <text class="cls-9" text-anchor="middle" alignment-baseline="central">
    <tspan x="330" y="240">Eschweiler</tspan>
  </text>
  <path class="cls-4" d="M249.73,264.36l5.76-4.27v-1.7l-1.7-2.55-.51-2.04-.34-1.35-.24-.45-1.46-2.73-1.36-1.11-2.04-1.65,3.45-5.37,1.86-2.9-4.88-4.88h-2.97,0s0,0,0,0l.85-6.66-2.55-1.62h0s0,0,0,0l5.94-7.43,3.39-6.15,1.06-5.94-.15-2.72-.22.13h0l-7.96-.96-.95.64h0s0,0,0,0l-3.18-3.02v-2.39l-4.88,4.49-4.46,4.1-.14.08-2.3,1.2h-6.37v-1.75h-3.03l-.29-1.18-.02-.1,1.27-2.91v-2.82l-4.46-1.27v-4.09l-1.59-.84-.32-.95h0s.48-.36.48-.36l1.43-1.08v-1.91l-.12-.02-1.63-.29v1.75h0l-3.18-.72-.95,1.83h0s-3.03,0-3.03,0l-.79-1.11-1.44.32-3.5.79v-5.73l-1.09,1.11h-16.26l-1.11-1.27-2.23-4.3-.8-4.61-1.18-2.81-2.8-6.65h0s0,0,0,0v-2.58l-12.52-3.18-2.46-1.09-.12.3-2.51,6.23-4.22,2.69-2.57,1.64,7.64,6.37h0s0,0,0,0l-14.85,22.87-1.32-1.1-2.71-2.25.85-2.71-3.61,1.01v-5.76l-3.86,1.4-3.36,1.22-1.14-2.35-.14-.28h-2.33s0,0,0,0l-.1-.57-.75-4.18-6.79-4.25-1.03.56-1.52.83h0s0,0,0,0l-3.69-3.82-3.4,3.59-1.62,1.71,2.67,2.91,1.03,1.12h0s0,0,0,0l-1.15,6.84,1.15,2.07,1.22.12,1.02.1.88,1.91.39.85.85,1.01h1.48s0,0,0,0l.64,3.23,1.7,1.91h3.4l2.55,1.91h0s0,0,0,0l-.09.88-.33,3.16-2.55,3.61v2.33h3.18l2.76,2.13h0s1.27,3.6,1.27,3.6l-1.49,2.97-.21.42-1.27,1.19-.64,3.05h2.33l2.12-1.27,1.06,1.27,1.31,2.06.18.28h0s0,0,0,0l-.85,5.52-4.88,1.91-1.27,2.55-1.46,1.46-.66.66-1.06,2.97,2.61.83,2.05.65,1.96-.46,1.65-.39h0s0,0,0,0l-.55.67-1.36,1.66-2.12,3.43h-2.33l2.97,9.51-.35,2.33-.1.65-.4,2.74-1.02.88-3.43,2.94-3.61,2.55c1.18.29,4.53.26,7.29.18,2.22-.07,4.06-.18,4.06-.18l4.59-1.74.61-.23v2.2l24.62,3.58,4.88-1.27,26.31,1.27,11.88-1.91,4.45-6.17,2.55,7.02,19.1-3.84,1.06-.21,2.55-.51,4.02-1.78,5.32-2.36,6.55-4.86Z"/>
  <text class="cls-9" text-anchor="middle" alignment-baseline="central">
    <tspan x="190" y="240">Würselen</tspan>
  </text>
  <path class="cls-2" d="M74.69,191.18v4.4l-1.31,5.58,3.22,4.82,6.76,2.12v5.52l1.09,2.76-1.09,2.13-4.64,8.18v4.75l2.76,3.18,3.39,1.57,1.91-1.99,6.57,6.37-8.48,7v3.18l7.59,14.64.88,1.7v4.13h-4.44l1.06,2.87,3.66.41,5.89.66h20.37s0,0,0,0l3.61-2.55,3.43-2.94,1.02-.88.41-2.74.1-.65.35-2.34-2.97-9.51h2.33l2.12-3.43,1.36-1.66.55-.67-1.64.39-1.96.46-2.05-.66-2.61-.83,1.06-2.97h0s.66-.66.66-.66l1.46-1.46,1.27-2.55,4.88-1.91.85-5.52-.18-.28-1.31-2.06-1.06-1.27-2.12,1.27h-2.33l.64-3.05h0s0,0,0,0l1.27-1.19.21-.42,1.48-2.97-1.27-3.59-2.76-2.13h-3.18s0,0,0,0v-2.33h0s2.54-3.61,2.54-3.61l.33-3.15.09-.88-2.55-1.91h-3.4l-1.7-1.91h0s0,0,0,0l-.64-3.23h-1.49l-.85-1.01h0s0,0,0,0l-.39-.85-.88-1.91-1.02-.1-1.23-.11-1.15-2.07,1.15-6.84-1.03-1.12-2.67-2.91h0s0,0,0,0l1.62-1.71,3.39-3.59,3.69,3.82,1.52-.83,1.02-.56,6.79,4.26.75,4.18.1.57h2.33l.14.28,1.14,2.35,3.36-1.22,3.86-1.41h0s0,0,0,0v5.76l3.61-1.01-.85,2.71,2.71,2.25,1.32,1.1,14.85-22.87-7.64-6.37h0s0,0,0,0l2.57-1.64,4.22-2.69,2.51-6.23.12-.3h0s2.46-6.12,2.46-6.12l.66-2.76,1.47-6.15-2.12-4.24h0s0,0,0,0l4.24-2.55-1.47-.58-4.47-1.76-4.67-11.25,4.25-8.49,9.14-2.13,9.96-2.32-2.68-7.65-1.78-5.08h0,0s5.94,0,5.94,0l.93-1.86.13-.27-3.1-4.05-.08.24-5.3,1.06,1.27,2.75-3.82,2.13-3.18-2.46-3.4-.94-2.97,2.12-2.12-4.67-5.52-2.76h-4.67l-1.06-1.7v-4.46h-4.67c-.21,0,0-11.04,0-11.04l-13.37.21-1.27,4.03-14.23-2.97,3.44-9.12-4.1-1.78-.97.97-.33.66-.33.33v.33h-.33v2.62l-.33.33v.33h-.33v.33h-.33v.33l-.33.33h-.33l-.66.65h-.33l-.98.66-.66.66v.33l-.66.33-.33.33-.33.33h-.33v.33h-.33v.33l-.33.33v.33h-.33v.65l-.33.33v.33l-.32.66v.33l-.33.33v.66l-.33.33v.33l-.33.65v.33l-.33.65v.98l-.33.33v.98l.33.33v2.95h-.33v1.31h-.33l-.33.98-.65,1.31-.66,1.31-.33.98-.33.66h-.33v.33l-.33.66v3.6l-.33.33v.66l-.33.33v.33h-.33v1.31l-.33.66v1.96h-.33v.65h-.66v.66h.33l-.33.33v.33l-.33.66h-.33v.98h.33v.33h.33v.33l.33.33v.33h.33v.33h-.33v.66l-.33.33h-.65v1.64h.33v.66l.33.33h.33v1.97l.33.33.33.33v.98l.33.33v.33l.33.33h.33v-.98h.66v.33h.33v.33l.33.33v1.31h.33v1.31h.33v.33l-.33.32v.33h-.33l-.66.33v.33h-.33v.66h.65v1.31h.66v-.33.33h.33l.33.33v.33l.33.33v.66h-.98v.33h-.33v.98l.33.33v.33h.98v-.98l.33-.33h.33v.33h.33v.33h.33v.33l.33.33v.33l.33.33v.33h.33v.33h.33v.98h.65v.33h.98v.33h.33l.33.33v.33h.33l.33.33v.66l.33.32.98.33h.33v.33h.33v.66l.33.98v.33l.33.33-.33.33v.65l-.33.33-.33.33v.33h-.33l-.33.33-1.31,1.64.33.33.33.33.33.33v.33l.33.33v.33l.33.33.33.66v.66l.33.33v.66l.33.66v.65l.66,1.31v.33h.33v.33l-.33.33-.66.33-.65.33-.66.65h-.33l.33.33v.33l.33.33v2.62l-.33.66v.33l-.33.66-.33.33-.33.66v.65l-.33.33-.33.65-.33.66-.33.33-.33.66-1.31,2.62v.33l-.66.33h-1.31l-.33.33h-.65l-.33,1.96v1.97h-.33l-.33.33-1.97,1.31-1.31.65h-.33v.66h-.33v.33l-.33,1.63v.98l-.33.66-.33,1.64v.98l-.33.65-.66,3.28v1.31l-.98,4.26v.65l-.33,1.64-.32,2.62-.33,1.31v.33l-.33,1.31-.33,2.29v.98h-.33v.33l-.33-.33h-.33v-.33l-.66-.33-.33-.33-.33-.32-.65-.33-.98-.33-.66-.33-.66-.66h-.33l-.33-.33-.66-.33-.33-.33-1.31-.33-.65-.66-.98-.33-1.31-.66-.66-.66h-.65l-.33-.33v-.33h-.65v-.33h-.33v.33h-.33v-.33h-.33v-.33h-1.64v-.33h-.33v-.33h-.66v-.33h-.98v-.33h-2.29v1.59l1.31,5.78Z"/>
  <text class="cls-9 cls-10" text-anchor="middle" alignment-baseline="central">
    <tspan x="130" y="100">Her-</tspan>
    <tspan x="135" y="121">zogen-</tspan>
    <tspan x="135" y="142">rath</tspan>
  </text>
  <polygon class="cls-3" points="262.06 126.4 260.15 131.09 260.15 131.09 260.15 131.09 258.24 129.8 257.92 129.84 251.03 130.76 251.03 132.72 247.85 134.04 247.44 134.55 247 135.1 247 135.1 247 135.1 243.39 135.1 239.49 130.51 237.45 128.1 228.75 119.61 226.32 118.16 220.26 114.52 216.02 113.41 214.58 114.51 213.47 115.37 210.93 119.61 210.92 119.61 210.92 119.61 207.74 116.86 197.1 113.53 196.71 113.41 194.37 113.41 194.37 113.41 194.37 113.41 190.13 108.58 181.22 110.91 181.22 110.91 181.22 110.91 181.22 110.91 181.22 110.91 171.26 113.24 162.12 115.37 157.88 123.86 162.54 135.1 167.02 136.86 168.48 137.44 168.48 137.44 168.49 137.44 164.24 139.98 166.36 144.23 164.9 150.38 164.24 153.14 164.24 153.14 164.24 153.14 161.78 159.26 164.24 160.36 176.76 163.54 176.76 166.12 179.56 172.77 180.74 175.58 181.54 180.2 183.76 184.49 184.88 185.77 201.13 185.77 202.23 184.65 202.23 184.65 202.23 184.65 202.23 190.38 205.72 189.59 207.16 189.27 207.16 189.27 207.16 189.27 207.95 190.38 210.98 190.38 211.93 188.55 211.93 188.55 211.93 188.55 215.12 189.27 215.12 187.52 216.74 187.81 216.87 187.83 216.87 189.74 215.43 190.82 214.96 191.18 215.28 192.13 216.87 192.97 216.87 197.06 221.32 198.34 221.32 201.16 220.05 204.07 220.07 204.17 220.37 205.34 223.39 205.34 223.39 205.34 223.39 207.09 229.76 207.09 232.06 205.89 232.2 205.82 236.66 201.72 241.53 197.22 241.53 197.23 241.53 197.22 241.53 199.61 244.72 202.63 245.67 202 245.67 202 245.67 202 253.63 202.95 253.85 202.83 253.85 202.83 253.85 202.83 254.96 202.2 256.81 201.15 256.81 195.47 256.81 195.47 269.06 186.72 267.79 184.81 267.8 184.81 267.79 184.81 275.59 180.51 276.7 175.42 278.4 172.14 279.41 170.17 281.02 169.35 283.71 167.99 277.98 159.3 274.37 160.36 276.7 154.2 283.71 148.44 279.91 146.4 279.04 145.93 274.58 137.65 271.4 125.34 266.61 125.34 266.43 126.37 266.31 127.04 262.06 126.4"/>
  <text class="cls-9" text-anchor="middle" alignment-baseline="central">
    <tspan x="220" y="165">Alsdorf</tspan></text>
  <path class="cls-4" d="M176.76,98.18l1.78,5.08,2.68,7.66,8.91-2.33h0s0,0,0,0l4.24,4.83h2.33s0,0,0,0l.39.12,10.64,3.33,3.18,2.76,2.55-4.24,1.11-.86,1.44-1.11,4.25,1.11,6.06,3.64,2.43,1.46,8.7,8.49,2.04,2.4,3.9,4.6h3.61l.44-.55.41-.51,3.18-1.32v-1.96h0s6.89-.92,6.89-.92l.33-.04,1.91,1.29,1.91-4.68h0s0,0,0,0l4.24.64.12-.67.18-1.03.76-4.24-4.88-4.67-3.18.85-4.22-7.16-5.54-9.4,3.18-4.67-2.97-3.18,9.34-5.52,4.24-5.73,7.85-5.09,3.61-6.58,3.39,1.06,2.12-5.09h-1.7l6.37-7.22-1.91-3.61h2.76l-3.61-4.24,3.61-.64-2.33-2.97.42-1.7-5.3-3.66,4.88-2.92-2.33-2.55,6.48-5.43c-.47-.76-4.42-7.11-4.57-7.56-.16-.48-2.07-5.73-2.07-5.73l-5.59-1.86-7.3-2.43h-13.21l-6.84-10.18-1.6-2.22-7.79,9.22-5.89-3.82s-11.94,5.41-19.26,11.46c-5.15,4.26-9.98,12.28-12.39,16.67-.03.06-4.22,8.93-6.12,15.27-1.91,6.37-4.67,19.73-4.67,19.73l3.4,1.06-3.18,8.27-1.43,1.27-6.43,5.73-2.04,6.12,3.1,4.05-.13.27-.93,1.86h-5.94Z"/>
  <text class="cls-9" text-anchor="middle" alignment-baseline="central">
    <tspan x="235" y="50">Baes-</tspan>
    <tspan x="230" y="77">weiler</tspan>
  </text>
</svg>