<?xml version="1.0" encoding="UTF-8"?>
<svg xmlns="http://www.w3.org/2000/svg" viewBox="0 0 512 512">
  <defs>
    <style>

      .cls-3 {
        fill: #009aa3;
      }

      .cls-6 {
        fill: #60acb5;
      }

      .cls-11 {
        fill: #91c1c8;
      }

      .cls-3, .cls-6, .cls-11 {
      stroke: #fff;
      stroke-linejoin: round;
      stroke-width: 2px;
      }

      .cls-12 {
        fill: #fff;
        font-family: DMSans-Bold, 'DM Sans', sans-serif;
        font-size: 14px;
        font-variation-settings: 'opsz' 14, 'wght' 700;
        font-weight: 700;
      }

    </style>
  </defs>
  <path class="cls-11" d="M179.31,430.39l9.84,2.06.88-2.79,9.25-.15s-.15,7.64,0,7.64h3.23v3.08l.73,1.17h3.23l3.82,1.91,1.47,3.23,2.06-1.47,2.35.65,2.2,1.7,2.64-1.47-.88-1.9,3.67-.73.06-.17,1.41-4.24,4.45-3.97.98-.88,2.2-5.73-2.35-.73s1.91-9.25,3.23-13.66c1.32-4.39,4.22-10.52,4.24-10.56-.7,1.28-1.12,2.12-1.12,2.12h0s0,0,0,0l-7.13-7.26-5.1-5.19-4.82,1.2-.11.03-.36.09-2.97-.33h0s0,0,0,0v-1.32l-5.39,1.54-1.55.44h0s1.87-1.76,1.87-1.76v-2.09l-2.75.33v-8.7l-.65.23-2.77.98-1.67-2.2-3.18-4.19s-.93,1.55-1.63,2.47c-.01.01-.02.02-.03.04-.1.13-.2.26-.29.36-.1.11-.18.19-.25.23-.29.18-.71-.21-1.03-.61-.29-.35-.51-.72-.51-.72l1.59-1.94,1.38-1.69-3.56-.75-2.17-.46-3.19-1-5.06,6.4h0s-1.53-.88-1.53-.88l-4.76,4.62-4.4.55-1.17-.52-2.57-1.13-.38,2.95-.17,1.34h0s-.52.03-.52.03l-1.25.08-7.93,7.82-1.21-.55-1.49,2.13-1.82,2.61v1.87h0s0,0,0,0l-7.05-3.96s-1.65,2.42-1.87,2.86c0,0,0,0,0,0s0,0,0,0c-.08.17-1.16-.32-2.47-.99-2.18-1.12-5.02-2.75-5.02-2.75v-1.65h-2.2c-.23,0-4.56-3.94-8.71-7.76-3.91-3.6-7.67-7.11-7.67-7.11l-1.84-1.09.37,3.28v.23l.23,2.49v.45l.23.45v1.13l.23,1.81.23.91.22,3.63.23,1.36v.91l.91.23,1.81.68.68.22h.22l1.81.68,2.49.91,1.36.45.68.23,3.17,1.13,2.04.68,1.36.45h.23l.22.22h.91l1.36.68h.23v.23l1.59.68.45.45h.23v.23h.23v.23l.22.22.23.46v.45l.23.22.68-.22.46-.23h.22l.23-.22.91-.46.45-.45.45-.23,1.13-.45.23.23,1.59,1.59.45.23,1.13,1.13h.22l.68.68-.22.23-.23,1.13h-.23l-.68,2.94-.23.23-.45,1.36v.45l1.59.45h.23l.45.23h.9l.45.23.91.23,1.81.45.23-.23.23-.23v-.23h.23l.22-.23.46.23.45.23.45.23.91.45.23.22.45.23.23.23h1.13l.68-.68,1.13-.91,1.36-1.59,1.59.45,1.13.22h.45l1.59.45,3.85,1.36.45.45.68.45h.23l.23.23.45.45.68.45,1.13,1.13h.23l.22.23h.23l.45.45.91.45.68-1.36h.23l.22-.45,1.59-.91.23-.23.68-.45h.22v.23l.23.22v.68l-.23.45v.23l-.22.22-.23.91-.23.22v.23l-.23.23v.23l-.23.23-.23.23-.23.45-.23.23v.22h-.23v.23h-.22l-.23.23h-.23l-.68.45h-.23l-.23.23h-.22l-.45.68-.45.45v.23h0s2.84,1.24,2.84,1.24l-2.38,6.31Z"/>
  <text class="cls-12" text-anchor="middle" alignment-baseline="central">
    <tspan x="190" y="405">Übach-</tspan>
    <tspan x="205" y="419">Palen-</tspan>
    <tspan x="210" y="433">berg</tspan>
  </text>
  <path class="cls-6" d="M122.6,375.96l7.83-3.39,4.88-2.12,1.94-.84v-5.51l.89-1.5,16.95-28.57h1.45l1.19-4.08,13.43-14,1.01,1.02,1.06-.57,3.88-2.08-.71-1.04-5.14-7.54,1.44-3.96-.65-.91-.99-1.38-8.93-12.46-7.05-3.08h0s0,0,0,0l3.57-6.01.48-.82-10.22-5.73v-1.54l-3.3-2.43s-2.25,1.4-3.72,2.08c-.36.17-.69.3-.91.35-.09.02-.25-.03-.42-.11-1.91-.83-8.17-6.72-8.17-6.72h0s0,0,0,0l-1.35-5.28-4.15,1.55-1.32-4.41-9.47,1.76h0s0,0,0,0v-2.86l-1.23-.65-2.07-1.09-8.28,1-6.1.74h0s0,0,0,0l-10.65-7.93-1.64-.49-.17.11h-.23l-.22.68-.23,1.36-.68.91h-1.13l-.68.68-.45-.45-.46.23-1.13,1.13v.45l-.68.68-1.13-.23-1.13.68-1.13.68.23,1.36.68,1.13.23.9.23.23-.45,1.36-.68.68-.23.68-.22,1.13-.23.45.23.22h-.23l-1.13-.45v.23l-.45-.23-.45-1.13-.91-.91-1.36-.22-.9-.23-1.13-.23-1.36.23h-1.59l.23-.45-1.59.45h-1.36v.68l-1.36.68h-.68l.23-.23-2.49.68v-1.59l-.22-.23-.91-2.49-.45-1.13-.23-.68-.68-2.04-.68-1.36-.91-1.13v-.23l-.68-.91-.23-.23-1.13-1.81-1.59-2.04-.68-.91-.68-.91v-.23l-.45-2.04-.23-1.13-.23-.45v-.45l-.23-1.13-.23-.23v-.22l-.23-.68v-.23l-.22-.45v-.91l-.23-.23-.23-.68-.45-2.04v-.23l-.22-.68v-.68l-.23-.23-.23-.9-.23-.91-.68-2.49-.23-.91-.23-.91-.22-.91-.46-1.13-.45-.45-.45-.45-1.13-1.13-.45-.23-.9-.91-.23-.22-.68-.68-1.81,1.59-1.13,1.13-.45.45-2.04,2.04-1.13,1.13h-.23l-2.49,1.81-.23.22-2.27,1.81-2.27,1.36v.23l-.68.45-1.81,2.72-.23.23-.23.22-1.36,1.81-.23.22-.9.23h-.23l-1.13.23-.22.23-.68.23h-.45l-.45.23h-3.63l-.68-.23-.68.23h-.68l-.91.23h-2.95l-.45.23h-.22l-.91-.23h-1.81l-1.13-.23H1.45v.45l-.45.23v.9l.45,4.76v.68h.23v.23l3.17,4.98.23.45.45.68,1.13,2.27.45.91.23.23.23.23h.23l.68.45.45.23.23.22h.23l.22.23v.23h.23v.22l.23.23v1.36l-.68,2.95v.9l-.46,2.04v.45h-.22v.45l-.23.23-.22.23-.45.68-.23.23-.9,1.36v.23l.45,1.59v1.59l.23.22.23.46.23.68.23.91v.45h.23v1.36l.45,1.13.91,2.27v.23l.23.23v1.59l-.23.45v.23h-.22v1.36l.22.23v.22l.23.23v.23l.23.23.23.23,1.36,2.04.23.23,1.13,1.36.91,1.59v-.23l.9-.45,2.49.68.9.45.45.22h.23l1.36.68.68.23.45.45.91.68,1.13.68-.22.46v2.27l-.23.91v2.94l-.22.68v1.36h.22l.68.45,1.81.68.91.45.45.23.68.23.45.23h.45l.68.45.68.23,1.13.45-.22,2.04v.45l-.23.45v.23l-.45,2.27v.45l-.23,2.04-.23.68v2.26h-.23v.45l-.23,2.27v.68l-.23,2.27v.45l-.22,2.72-.91,1.13-1.13,1.13-.45.46-.45.45-.45.23-.23.23-.45.45-.68.9-.46.45-.68.68-.23.23-.23.22-.68.91-1.13.22h-.45l-.45.45-.46.23v.23l-.22.23,1.13.91.22.91v.23l.23.45.23.23.23.68h.23v.45l.23.22.23.23h.23l.45.91v.91l.23,1.13.45.23,2.27.23h.9l.68.23h2.04l.68-.23.68-.23.91-.23.45-.23,1.13-.45,2.04-.68.91-.68h.23l.68-.45.22-.22.46-.23h.45l.23-.23h.23l.23-.22h.91l.68.22.45.23h.22l.23-.23,2.27-1.36,1.13-.68,2.04-1.81,1.36-1.13.68-.45.91-.68,3.85-2.72.68-.45,6.12-.91,7.48-1.13,4.31-1.36,1.59,4.53.46.45.45.45,2.04,1.81h-.23l.23.22.23.23,2.94,2.49.23.23v.23l.22.23v.23l.23.23.23.23v.23h.23l.23.23.23.22h.45v.23h.91l.22-.23.91-.22h.45l.45-.23.45-.23h.68l.45-.23.68-.23h.23l.23-.23,1.36-.68.23-.22h.23l.23-.23.45-.23,1.13-.68.91-.68h.45l.91-.23.22-.23h.23v.23h.45l1.36,1.13.23.23h8.84l3.17-.23h8.38l1.59-.23h5.89l-.23-.45h1.36l2.04.23,1.36.45,2.26.23h.68v.22l.23,1.81v.45l-.23.45-2.04,4.99-1.59,4.08-.45,1.59-.91,2.49-1.59,2.49-.45,1.36-.68,1.36-.91,2.26-1.13,2.04-.68,1.59-.23.45-.9.91-.68.9-.23.23-.9.23-.91.22-.68.23-.68.45-1.36.91-1.36,1.36-.68,1.13,1.59,1.36,1.81.91.68.45h.23v.23l.68.45.23.23h.45v.22l.45.23h.23l.22.22,2.49,1.59h.45l-.45,1.59-1.13,3.85-.23.9h0s0,0,0,0l3.11-1.35Z"/>
  <text class="cls-12" text-anchor="middle" alignment-baseline="central">
    <tspan x="80" y="285">Gangelt/</tspan>
    <tspan x="80" y="305">Selfkant</tspan>
  </text>
  <path class="cls-3" d="M129.09,386.3c4.15,3.82,8.48,7.76,8.71,7.76h2.2v1.65s2.84,1.64,5.02,2.75c1.31.67,2.38,1.16,2.47.99.22-.44,1.87-2.86,1.87-2.86l7.05,3.96v-1.87l1.82-2.6,1.49-2.13,1.21.55,7.93-7.82,1.25-.08.52-.03.17-1.34.38-2.95h0s0,0,0,0l2.57,1.14,1.17.52,4.4-.55,4.76-4.62,1.53.88,5.06-6.4h0s3.19,1,3.19,1l2.17.46,3.56.75h0s0,0,0,0l-1.38,1.69-1.59,1.94s.22.36.51.72c.33.4.74.78,1.03.6.07-.04.15-.12.25-.23.09-.1.19-.22.29-.36.01-.01.02-.02.03-.04.7-.92,1.63-2.47,1.63-2.47h0s0,0,0,0l3.18,4.19,1.67,2.2,2.77-.98.65-.23v8.7l2.75-.33h0s0,0,0,0v2.09l-1.87,1.76,1.55-.44,5.39-1.54h0s0,0,0,0v1.32l2.97.33.36-.09.11-.03,4.82-1.2h0s0,0,0,0l5.1,5.19,7.13,7.25s.42-.84,1.12-2.12c1.67-3.04,5.01-8.59,8.57-11.53,5.07-4.18,13.32-7.93,13.32-7.93l4.08,2.64,5.39-6.38,2.43-2.88,4.62-.87-.47-1.2-2.73-7.06h-2.64l-1.65-2.97,2.2-2.97.66-3.19-1.21-1.76,5.84-3.74,2.09.77,3.85-2.42v-2.09l5.51-3.3,9.14-6.83,5.18-8.04,3.3,1.21,1.03-1.55-6.18-4.02-2.78-1.81h0s0,0,0,0c0,0,1.1-1.1,1.21-1.54.11-.44-4.41-6.5-4.41-6.5h0s0,0,0,0l3.41-2.64-7.82-12.33-.35-1.94-.04-.21-.38-2.14h0s0,0,0,0l.77-.88-.67-2.76-.1-.43-3.85-2.36-3.82,5.52-.25.37h0l-2.42-.88-7.61,5.8-.76.58h0s0,0,0,0l-.88-1.32h-2.2l-1.32,1.98h0s-.03-.06-.03-.06l-1.07-1.92-4.75,1.65-.32.11v2.2h0l-13.55-5.46v-2.69l-.88-.14-1.87-.3-.14.6-.96,4.02h0s0,0,0,0l-.96-.23-4.33-1.04-2.3,2.97-.56.72-1.98,4.41-.27.18-1.71,1.14h0s0,0,0,0l-2.06-2.48-.14-.17.88-2.2-3.3-.44-1.1-5.29-.14.08-1.84,1.07-1.98-.23h-.03s-2.17.23-2.17.23v-2.48l-2.64.44-8.81-3.96-5.25,6.41-.7.85h0s0,0,0,0l-1.76-1.27-2.43,2.94-.43.53,2.86,3.08-.39.8-2.7,5.59h0s0,0,0,0c0,0-1.31-.58-2.51-.82-.28-.06-.55-.1-.8-.11-1.32-.05.22,2.48,0,3.36-.01.06-.06.08-.14.09-1.13.05-8.77-5.37-8.77-5.37l-5.66,3.05h0s-1.28.69-1.28.69h0s0,0,0,0h0s-3.88,2.07-3.88,2.07l-1.06.57-1.01-1.02-13.43,14-1.19,4.08h-1.45l-16.95,28.57-.89,1.5v5.51h0s-1.94.84-1.94.84l-4.88,2.12-7.83,3.39-3.11,1.35h0l.09.79,1.84,1.09s3.76,3.5,7.67,7.11Z"/>
  <text class="cls-12" text-anchor="middle" alignment-baseline="central">
    <tspan x="220" y="350">Geilenkirchen</tspan>
  </text>
  <path class="cls-11" d="M98.42,253.76l6.1-.74,8.28-1,2.07,1.09,1.23.65v2.86l9.47-1.76h0s0,0,0,0l1.32,4.41,4.15-1.55,1.35,5.29s6.26,5.89,8.17,6.72c.18.08.33.13.42.11.22-.04.55-.18.91-.34,1.47-.68,3.72-2.08,3.72-2.08l3.3,2.43h0s0,0,0,0v1.54l10.22,5.73-.49.82-3.57,6.01,7.05,3.08h0s0,0,0,0l8.93,12.46.99,1.38.65.91-1.44,3.96,5.14,7.54.71,1.04h0s0,0,0,0h0s1.28-.69,1.28-.69h0s5.66-3.06,5.66-3.06h0s7.63,5.42,8.77,5.37c.08,0,.12-.03.14-.09.22-.88-1.32-3.41,0-3.36h0c.25.01.52.06.8.11,1.2.25,2.5.82,2.51.82l2.7-5.59.39-.8-2.86-3.08.43-.53,2.43-2.95,1.76,1.27.7-.85,5.25-6.41h0s0,0,0,0l8.81,3.96,2.64-.44h0s0,0,0,0v2.48l2.17-.22h.03s0,0,0,0h0l1.98.23,1.84-1.07.14-.08h0s0,0,0,0l1.1,5.29,3.3.44-.88,2.2.14.17,2.06,2.48,1.71-1.14.27-.18,1.98-4.41.56-.72,2.3-2.97,4.33,1.04.96.23.96-4.02.14-.6,1.87.3.88.14v2.69l13.55,5.46v-2.2l.32-.11,4.75-1.65h0s0,0,0,0l1.07,1.92.03.06,1.32-1.98h2.2l.88,1.32.76-.58,7.61-5.81,2.42.88.25-.37,3.82-5.52h0s0,0,0,0h0s3.85-5.56,3.85-5.56l-1.23-.78-1.19-.76v-1.76l-6.17-2.2-1.01-1.24-.97-1.19h0s0,0,0,0l.66-3.52-2.2-1.76,1.03-2.06.07-.14-6.17-5.73-1.1-3.08-2.86-.44-1.54-2.2-1.1-1.1-1.1-1.1h0s0,0,0,0l1.76-1.32-.02-.16-.2-1.6.37-1.21.3-.98-1.11-1.61-1.68-2.44-2.35-.76-3.08-3.05-1.32-.88.15-2.35-4.41-.9-3.52-7.17-1.27-.97-1.81-1.38-1.91-4.85-3.38-4.26h0s0,0,0,0l-.15-5.62,1.93-3h-.05s-.04.03-.04.03v-5.73l-2.97-.74-2.31-.58v-4.19l-2.49-.86-3.24-1.12-7.49-5.07-6.31-.88-5.36-8.81-7.05-3.3h-5.73l-3.17-6.54-.35-.73h-4.41s0,0,0,0v-10.35l-3.96-4.66h0s0,0,0,0v-3.96l-.43-.58-1.99-2.69-1.91-2.81-.19.19h-.45l-.91.45h-.22l-1.13.45-1.13.45h-.23v.45l.23.23.23.91v.45h-.23v.23h-.23l-.22.23h-1.36l-.23.23h-.23v.23h-.23v.45h-.23l-.23-.23v.23h-.68v.23h-.23l-.68-.23h-2.72l-2.04.68v.23l-1.36.23-.68.45-1.81,1.13-.45.45-1.13,1.36-.22.45-.46.45v.23l-.22.23-.45.68-.23.23v.23l-.23.45-.91,1.59-.22.22v.23l.45.22v.23h.45v.23l.45.68-.23.23-.23.22-.45.46-1.36,1.36-.68.91v.23l-.68.68h-.23v.22l-.68.45-.68.68-.91.91-.68.68-1.81,1.59-.91.9v.23l-1.36,1.13-.9-.23h-.23l-.45.23h-.22l-.23.23-.45.68-.23.23-.23.22-1.13,1.36-.45.68v.23h-.23l-.22.45-.23.23-.22.22-.23.23-.23.23-.22.23-.45.45h-.23l-1.36.9-.91.46-.91.22h-.23l-.68.23-.23.23h-.23l-1.13.23-.45.23h-1.59l-.68.23h-.68l-.68.45-.68.45-.23.23h-1.36l-.68.45h-.45l-.23.23-.68-.68-.68-.68h-.23l-.91-1.13-.91,1.36-.23.45-.68,1.13-.45.23-.23.23-.45.45-.23.23-1.13.45h-.91l-.22-.23h-.91l-.45.23-.23.22v.23l-.23.23-.22.22v.23h-.23l-.23.68-.45.23-.22.23-.45.22-.23.23-.45.45-.91,1.13-.46.45-.45.22-.23.23h-.23l-.68.45-.91.68-1.81.91v.23l-.23.22h-.23l-1.13.68-1.59,1.36-1.13,1.59-1.81,2.04-.45.68-1.36,2.72-.23.45-.68,1.36-.23.22-.45.91-.45,1.13-2.95,1.36h-.68l-.45.23h-.46l-.68.23-.23-.23-.23.23h-.23l-.45.68-.45.22h-.23v.68l-.22.23-.23.45,1.59,2.49-.68.68-2.04,1.59v1.13l-.23.45-.22.45-.45.68-.91,1.13h-.45l-.22.23-.68,1.36-.23.45h-.68l-.68.23-1.13,1.36h-.23l-.45.22-.23.23-.45.68-.23.45v.23l.45.23v.68l.23.68v.91l-.23.45v.23l-.45,1.13v.23l-.23.23-.45.22-.45.68-.68.68.68.68.45.23.45.45v1.13l-.45.45v.68l-.22.91-.45.45-.45.68-.23.45v.23l.23,1.13v.46l.45.68v.45l-.23.23v.23l-.23.23-.23.23v.23l.23.91.45.68-.51.34,1.64.49,10.65,7.93Z"/>
  <text class="cls-12" text-anchor="middle" alignment-baseline="central">
    <tspan x="180" y="230">Heinsberg</tspan>
  </text>
  <path class="cls-6" d="M360.65,271.23h0s-1.47-4.7-1.47-4.7l.73-1.17,3.09-4.99,3.09-1.8,1.46-.85-.15-.21-2.05-2.87h-3.51s-1.48-1.91-1.48-1.91c0,0-5.43,2.94-5.87,2.64-.44-.29-5.29-2.06-5.29-2.06l-.15.35-.73,1.71h0s0,0,0,0l-2.94-2.35s-.62.12-1.28.25c-.63.13-1.3.27-1.51.34-.44.15-2.64-8.07-2.64-8.08h-4.26c-.11,0-.28-.13-.48-.32-.6-.58-1.43-1.73-1.43-1.73l-1.91-2.35,4.84-5.72-6.46-9.54-11.6,1.17s.15,1.61,0,2.06c-.15.44-8.81-2.5-8.81-2.5h0s0,0,0,0l5.87-14.98-1.91-2.5s-2.79-11.31-3.08-12.19c-.29-.88-12.63,4.55-13.21,4.55-.07,0-.13-.03-.16-.08-.26-.34.29-1.74.16-2.13-.15-.44-4.41,1.32-4.41,1.32h0s0,0,0,0v-1.47l-3.23,1.47h0s0,0,0,0l-.88-2.5-2.2-1.47-1.45-.73h0s0,0,0,0l-6.04,5.21h0s0,0,0,0c0,0-.01-.12-.03-.28-.01-.1-.03-.23-.05-.37-.03-.23-.07-.5-.13-.78-.14-.7-.35-1.43-.68-1.65-.66-.44-7.93,2.2-7.93,2.2l-4.85,1.32s-.5.34-1.16.74c-.89.54-2.08,1.18-2.8,1.28-.18.02-.33.01-.44-.04-.88-.45-1.32.23-1.98,0-.06-.02-.19.02-.35.1-.92.44-3.28,2.34-5,3.78-1.09.92-1.92,1.64-1.92,1.64l-5.62,2.42-3.75,1.07-1.93,3,.15,5.62,3.38,4.26,1.91,4.84,1.81,1.38,1.27.97,3.52,7.17,4.41.91-.15,2.35,1.32.88,3.08,3.05,2.35.76,1.68,2.44,1.11,1.61h0s0,0,0,0l-.3.98-.36,1.2.2,1.6.02.17-1.76,1.32,1.1,1.1,1.1,1.1,1.54,2.2,2.86.44,1.1,3.08,6.17,5.73-.07.14-1.03,2.07,2.2,1.76h0s0,0,0,0l-.66,3.52.97,1.19,1.01,1.24,6.17,2.2v1.76l1.19.76,1.23.78h0s-3.85,5.57-3.85,5.57h0s3.85,2.36,3.85,2.36l.1.43.67,2.76-.77.88.38,2.14.04.22.35,1.94,7.82,12.33-3.42,2.64s4.52,6.06,4.4,6.5c0,0,0,0,0,0h0c-.11.44-1.21,1.54-1.21,1.54l2.78,1.81,6.18,4.02h0s0,0,0,0l.18.12,4.74,1.43,2.75-4.41,10.24-9.25,2.53,4.29,6.06-3.52,3.41.88-1.54-9.58,3.41-1.54s-.99-3.41,0-3.52c.99-.11,4.4,2.42,4.4,2.42,0,0-1.65-5.95-1.32-5.95s6.39.55,6.72.33c.33-.22,1.1-4.95,1.1-4.95l-1.65-.55,1.65-2.2,1.54-.22-2.09-8.7,4.18-.44s-.33-1.21,0-1.21c.13,0,1.98.16,4.11.36-.21-.96,0-4.28,0-4.28h4.86v-8.81l-.28-.17-.91-.56h0Z"/>
  <text class="cls-12" text-anchor="middle" alignment-baseline="central">
    <tspan x="298" y="250">Hückel-</tspan>
    <tspan x="310" y="270">hoven</tspan>
  </text>
  <path class="cls-11" d="M405.28,179.3l-1.32,1.34h0s0,0,0,0l-1.32-1.34-3.08,2.67-.19-.19-.91-.91-1.76,2.2-2.42-2.64-5.34-.65-3.91-.47-1.58.93-7.45,4.38h0s0,0,0,0l-1.1-5.53-2.57,1.08-2.72,1.15-2.86-3.74h-1.76l-1.98-7.49-.79-1.08-1.41-1.92-2.42,1.24-2.71-.85-1.25-.39-1.71,1.16-4.01,2.72h0s0,0,0,0l-3.08-2.86-1.45.48-1.86.62v5.46h-11.45l-9.69-3.92-1.53-.6-3.54-1.38v-3.96l-4.62,2.28s-2.2,5.87-2.42,7.19c-.1.63-1.79.41-3.54,0-1.94-.44-3.95-1.11-3.95-1.11l-4.35-.13-2.92-.09-1.87-3.74-.11-.22h-1.76l-3.65,2.37-3.7,2.4.83,1.28,2.77,4.28h0s0,0,0,0l-1.63,1.62-1.45,1.44.93,6.21,1.05,7.04h0s0,0,0,0l-.19.16-.16.14,1.45.73,2.2,1.47h0s.88,2.5.88,2.5l3.23-1.47h0s0,0,0,0v1.47s4.26-1.76,4.41-1.32h0s0,0,0,0c.13.39-.42,1.78-.16,2.13.04.05.09.08.16.08.59,0,12.92-5.43,13.21-4.55h0s0,0,0,0c.29.88,3.08,12.19,3.08,12.19l1.91,2.5-5.87,14.98s8.66,2.94,8.81,2.5c.15-.44,0-2.06,0-2.06l11.6-1.17h0s0,0,0,0l6.46,9.54-4.84,5.72,1.91,2.35s.83,1.16,1.43,1.73c.2.19.37.32.48.32h4.26s0,0,0,0c0,0,2.2,8.22,2.64,8.08.21-.07.88-.21,1.51-.34.66-.13,1.28-.25,1.28-.25l2.94,2.35.73-1.71.15-.35s4.85,1.76,5.29,2.06c.44.29,5.87-2.64,5.87-2.64h0s0,0,0,0l1.48,1.91h3.51s0,0,0,0l2.05,2.87.15.21-1.46.85-3.09,1.8-3.09,4.99-.73,1.17,1.47,4.7.91.56.28.17v8.81h-4.86s-.21,3.32,0,4.28c.04.16.08.27.15.27h2.77c.11,0,.21.02.31.03l.59,11.86,18.35,4.55,13.07-1.27,20.26-2.99-.59-9.25,4.8-.74v1.47l4.9-3.82v-10.28l7.93,2.06,1.32-2.2,13.65.15v2.72h3.82l6.9-2.57,15.42.29v-4.41l12.63-.44,5.32-8.22,4.31,4.85,2.81-1.14-.69-.48,14.39-14.79,1.61-1.66-3.96-4.26-2.2,1.32-5.16-2.15v-2.11l-4.23-.44-5.58,1.47-1.47-4.11-3.3,1v-4.38s-1.25-2.64-1.69-3.38c-.44-.73,2.94,0,2.94,0l4.11-8.07-1.47-1.61,1.76-1.32,1.03-3.38.73-3.23-3.08,1.14.44-12.24h-4.31l-.97,1.41-10.28,2.35-.88-1.32-3.82.74-2.79.59h-4.11l-1.32-3.76-7.34.82-3.08,2.94-2.06-1.03,1.17-2.5-4.55-1.02v-3.08l-10.28,1.47,1.47-3.52h3.67s1.76-7.05,1.76-7.64-5.72,1.56-5.72,1.56h-8.81l-2.94-2-2.79,3.67-2.5-1.67-4.26,1.67-2.35-3.96-3.96-2.79,1.18-2.79-1.69-2.98-.08.1-.07.09-2.86-1.34Z"/>
  <text class="cls-12" text-anchor="middle" alignment-baseline="central">
    <tspan x="410" y="235">Erkelenz</tspan>
  </text>
  <path class="cls-3" d="M187.25,154.47l.43.58h0s0,0,0,0v3.96l3.96,4.66h0s0,0,0,0v10.35h4.4l.35.73,3.17,6.54h5.72l7.05,3.3,5.36,8.81,6.31.88,7.49,5.07,3.23,1.12,2.49.86h0s0,0,0,0v4.18l2.31.58,2.97.74v5.73h.04s.05-.03.05-.03l3.75-1.07,5.62-2.42s.83-.72,1.92-1.63c1.72-1.44,4.08-3.34,5-3.78.16-.07.28-.12.35-.1.66.23,1.1-.45,1.98,0,.11.06.26.07.44.04.72-.09,1.91-.74,2.8-1.28.67-.4,1.16-.74,1.16-.74l4.85-1.32s7.27-2.64,7.93-2.2c.32.21.54.95.68,1.65.06.28.1.55.13.78.02.15.04.27.05.37.02.16.03.28.03.28l6.04-5.21.16-.14.19-.16-1.05-7.04-.93-6.21,1.45-1.44,1.63-1.62-2.77-4.28-.83-1.28h0s0,0,0,0l-.11.07-.69.45-9.47-7.19h0s0,0,0,0l2.86-6.24-.7-.6-.84-.72h-2.42s0,0,0,0l-1.88-1.98h-1.64s0,0,0,0l-1.07-1.31-1.13-1.37.66-3.48-.11-.29-1.92-5.22,3.24-2.92.11-.1.51-3.36,1.35-8.88s1.43-1.46,2.26-2.41c.22-.25.41-.48.5-.62.03-.04.03-.08.03-.1-.15-.42-4.21.55-4.21.55l-5.43,2.28-.73.31-6.83.23v-2.37h-5.98l-1.55-1.29-1.62-1.35s-1.16-4.51-1.83-7.41c-.1-.43-.19-.83-.26-1.17h-.17v-.23h-.23v.23h-.22v-.23h-.45v-.22h-.23v-.23h-.45v.23h-.23v-.23h-.23v-.23h-.45v-.23h-.23v.45h-.23v-.23h-.23l-.23.23v-.23h-.22v.23h-1.13v.45h-.23v.23h-.45l-.23-.23h-.23l.23.23v.22h.23v.23h-.23v.23h-.23v.22h-1.36v.23h-.45l-.23.23h-.45v.23h-1.36v.23h-.68v.23h-.23l.23-.23h-1.36l-.23.23h-.22v.23h-.45v.22h-.23v.23h-.23v-.23h-.45l.23.23h-.9v.22h-.23v.23h-.23v-.23h-.45v.23h-.68v-.23h-.45v.23l-.23.23v-.45h-.23v.23h-.22v-.23h-.23v.23h-.45v-.23h-.45v.23h-.45v.23l-.23-.23h-.45v.23h-.45l-.23-.23v.23h-.22v-.23h-.23v-.23h-.23v.23h-.22v.23h-.68v-.23h-.23v.23h-.45v.46h-.68v-.46h-.46v.23h.23v.23h-.23v.91h-.22v.22h-.23v-.45h-.22v.23h-.23v.22h.23v.23h-.23l-.23.23v-.23h-.23v.23h-.45v.22h.23v.23h-.45l.23.22h-.23l-.22-.22v.22l-.23-.22v.68h-.23v.45l.23.23v1.13h-.23l-.23.23h-.45v.22h-.23v-.22h-.23v.22h-.45v.23h-.23v.23h-.23l-.23.23h-.23v-.23h-.45l-.23.23v.45h-.22v-.23h-.23v.23h-.22v.45h-.68l-.23.23h-1.59v.22l-.22.23-.23.23h-1.13v.22h-.68v.23h-.23l-.23.22h-.22l-.23.23h-.68v.23h-2.49v.23h-.23v-.23l-.23.23v.23h-.68v.23h-.68v.45h-.23l-.23.23h-.22.22v-.23l-.22-.22v.22h-.68v-.22l-.23-.23-.23.23v.22h-.91v.23l-.23-.23h-.23v.23h.23v.22h-.45v.46h-.23v-.23h-.23v.45h-.68v.23h-.45l-.23.23h-.22l-.23.23h-.45l-.23.22h-3.17l-.23-.22h-.23v-.23l-.22.23h-.23v.68l-.23.68-.22.68v.45l-.23.23-.22.22-.23.45-.23.23v.68l-.22.45-.23.23h-.23v.23l-.23.9-.45.23v.22l-.9.23v.23h-.23l-.22.22h.22v.23h.23v.23h.68v.23h.23v.45h.23v.45h-.23v.45h-.23l-.68.23h-.91l-.68.68-.23.23-.45.45-.45.46.45.22.68.23.45.22.45,1.36-1.59.45-.91.22-.46.23-.22-.23-.23-.68-.23-.68-.91-.91-.23-.23-.23-.22-.22.45v.22l-.23.23-.23.45v.23l-.23.23v.91l.23.46v1.57l.03.04.2.2-.04.04,1.91,2.81,1.99,2.69ZM225.53,120.62h.22v.23h-.22v-.23Z"/>
  <text class="cls-12" text-anchor="middle" alignment-baseline="central">
    <tspan x="230" y="160">Wassen-</tspan>
    <tspan x="240" y="180">berg</tspan>
  </text>
  <path class="cls-6" d="M246.37,125.8l1.62,1.35,1.55,1.29h5.98s0,0,0,0v2.37l6.83-.23.73-.31,5.43-2.28s4.07-.97,4.21-.54c.01.03,0,.06-.02.1-.09.14-.28.36-.5.62-.83.95-2.26,2.41-2.26,2.41l-1.35,8.88-.51,3.36-.11.1-3.24,2.92,1.92,5.22.11.29-.66,3.48,1.13,1.38,1.07,1.31h1.64s0,0,0,0l1.88,1.98h2.42l.84.72.7.6h0s0,0,0,0l-2.86,6.24,9.47,7.19.69-.45.11-.07,3.7-2.4,3.65-2.37h1.76s0,0,0,0l.11.22,1.87,3.74,2.92.09,4.35.13s2.01.67,3.95,1.11c1.75.4,3.44.62,3.54-.01.22-1.32,2.42-7.19,2.42-7.19l4.62-2.28h0s0,0,0,0v3.96l3.54,1.38,1.53.6,9.69,3.92h11.45v-5.46h0s1.86-.62,1.86-.62l1.45-.48,3.08,2.86,4.01-2.72,1.71-1.16,1.25.39,2.71.85,2.42-1.24h0s0,0,0,0l1.41,1.93.79,1.08,1.98,7.49h1.76l2.86,3.74,2.72-1.15,2.57-1.09h0s0,0,0,0l1.1,5.53,7.45-4.38,1.58-.93h0s3.91.47,3.91.47l5.34.65,2.42,2.64,1.76-2.2.91.91.19.19,3.08-2.67,1.32,1.34,1.32-1.34h0s0,0,0,0l2.86,1.34.07-.09.08-.1,1.84-2.45-1.1-1.98,11.97-8.55,4.98-3.56v-15.56l-3.67-.15-2.35,1.47-3.28-.44-1.27,2.79s-4.26-.44-4.7-.59c-.44-.15-8.22-1.08-8.22-1.08l2.64-4.95-11.75-6.17-.29-9.69-2.87-1.91-4.62-.59-2.2-3.52-1.61-4.95-4.7-1.13-2.79-1.36-5.14.68-.15-5.58,3.67-7.49-.59-4.85-9.1-3.08-.15-7.93-1.02-2.9c-.09.06-.16.11-.16.11l-8.81.22-2.42-4.63-3.52-.22-.44-.26-2.9-1.72-2.39-.44-1.98-5.95-10.57-7.49s-1.98,3.3-2.64,3.74c-.66.44-6.02,1.33-6.02,1.33l-6.17,7.63-3.52,5.06-4.11,4.3h-2.94l-2.35,4.74s-6.46,2.35-6.46,2.97-28.48-23.23-29.71-24.24l-29.57,13.54.11.06,1.81,1.36.23.23,2.94,2.04.45.23,1.36.91.68.68h.23l1.13.91.91.68,1.13.91,1.13.68.91.68.23.23,1.81,1.13.91.68,1.36,1.13,2.49,1.81,2.04,1.13.68.68,2.49,1.81h.23l2.26,1.59,1.36.91-1.36,1.59-2.49,2.04-.45.23-.23.23-2.49,1.36-.45.23-1.59,1.13-.23.23h-.23l-1.13.23v1.13l.23,1.36v2.72h-.91v-.23h-.23l-.22-.23h-.45l-.23-.23v-.23h-.23v.23h-.68v.23h-.23v-.23h-.45l-.23.23v.23h-.23v-.23h-.91v.45h-.22v-.23h-.23v.23h-.22l-.23.23v.22h-.23v-.22h.23l-.23-.23-.23.23v.22h-.23v.23h-.45v.22h-.22v-.45h-.23v.23h-.22v-.23h-.23v-.22h-.23v.22h-.22v-.22h-.23v.22h-.45v.23h-.29c.07.34.16.74.26,1.17.67,2.9,1.83,7.41,1.83,7.41Z"/>
  <text class="cls-12" text-anchor="middle" alignment-baseline="central">
    <tspan x="325" y="130">Wegberg</tspan>
  </text>
</svg>