<?xml version="1.0" encoding="UTF-8"?>
<svg xmlns="http://www.w3.org/2000/svg" viewBox="0 0 512 512">
  <defs>
    <style>

      .cls-2 {
        fill: #009aa3;
      }

      .cls-2, .cls-3, .cls-4 {
        stroke: #fff;
        stroke-linejoin: round;
        stroke-width: 2px;
      }

      .cls-3 {
        fill: #60acb5;
      }

      .cls-14 {
        fill: #fff;
        font-family: DMSans-Bold, 'DM Sans', sans-serif;
        font-size: 12px;
        font-variation-settings: 'opsz' 14, 'wght' 700;
        font-weight: 700;
      }

      .cls-4 {
        fill: #91c1c8;
      }

    </style>
  </defs>
  <path class="cls-3" d="M420.34,488.46l6.35-11.54,13.42-4.79-5.73-7.66-4.89-15.55-4.71-6.48-2.96-3.36-2.96-5.27-2.23-15.81,11.74-8.63,5.46-9.57,17.42-17.29c.26-4.06,3.71-19.12,3.71-19.12l-3.88-3.13-16-12.92-24.91-9.58,5.57-27.07-19.58-6.94h-31.43l-1.08-4.13-4.31-.9v-3.23h-1.98l-1.26-3.41,2.51-1.34-2.87-6.75v-3.95l-8.62-8.08,1.79-2.51-2.34-2.16,4.31-5.75-1.98-2.87,3.53-3.23-1.2-3.41,2.51-4.31-2.16-5.93-1.69-2.29h0s-3.51,2.11-3.51,2.11h-3.24l-.73.87-.17.2-1.79.9-1.08,3.23-2.87,4.39-2.87,2.8v2.51h0s-.9.9-.9.9l-3.95-.9-.18,1.98.89,1.27.37.53h1.44v5.03h0s-2.16-1.8-2.16-1.8l-2.34-.36-.46-.42-1.51-1.37-10.06,7.72-.69,3.02-.21.93-3.95-.72-3.95,3.23-1.26,3.29-1.14-.39-4.79-1.64s-.94.76-1.93,1.35c-.45.27-.91.51-1.31.62-.32.09-.45.07-.48-.03-.08-.24.49-.93.53-1.47,0-.11,0-.21-.05-.3-.36-.72-4.49-1.08-5.03-1.26-.18-.06-.9-.43-1.76-.89-1.7-.9-3.99-2.16-3.99-2.16l-4.38-5.33-1.01-1.23-3.59-3.68-.51,1.38-2.19,5.99-3.77-.72-.92-1.62-.34-.59h-19.22l-4.58,5.64-1.06,1.3-4.07,3.11-4.71,3.11-1.04,2.39-2.16,2.64-1.2,2.71,3.65,5.54h0s.74,0,.74,0h.74l1.11.37v-1.48l2.59,1.48.37.37.74.37,1.11.37.74.37.37.37v.37l.74.37.37.37.37.37v.37l.37.37v.37h.37l.74.74.37.37.37.37.37.37.74,1.11.37-.37.37.37.37,1.11,1.11,1.48v.37h.37l.37.74.37.37.37.37-.37.37h-.74l.37,1.11v.37l.37.37.37,2.59.37.37-.37.74v1.11l.37.37.37.74.37,1.11.37.74.37.37v.37h.37l.37.37.37,1.11.37.74v.37l.37.37.37.37v3.7l-.37.37v.37l-1.48,2.59-.74,1.11v.74h.37v.37l1.48,2.22,2.59,3.33v.74l1.11,1.48.74.74.74,1.11.37.74.74,1.11.37.37.37.37,1.11,1.85.74,1.11.37.37v.37h.37v.37l.37.37.37.37h.37v.74h.37v1.85l-.37.37v.37l.37.37v2.96h.37l.74,1.11.74.74.74.74.74.74.74.37.74.37.74.37,2.22,1.48h.37v1.85l-.37.37v.74h.37l-.37.37.74.74.37.74.37,1.11.74.74v.37h.37v-.37h.37l.37.37h.37l.37.37v.37l.37.37v.37l.37.37h-.37l.37.37.37.74.37.37v.74h-.37v.74l-.37.37-.74,1.11-.37,1.11v.74l1.11,3.33v.37l.74,2.59.37,1.11.37,1.11v.74l-.37,1.85h1.11l.37.37h.74v.37l.74,1.48.37.74.37.37h.37l.37.37h.37v.37l.37.37v1.11l.37,1.85.37.74v.37l4.43,2.59v.37l2.59,1.48,1.11.37.74.74,1.85,1.11v.37h-.37l-.37.37h.37l-.37.37h.74l-.37.37v.37h.37v1.11h.37v.74h.37v-.37.74h.37v.37h.74l-.37.37v.37h.37v-.37h.37v.37h.74v.37h.37l.37.37h.74v.37h.37v.74h.37v-.37.37h.74v-.37h.74v.37h.37v.37h.37v.74h.74v1.11l-.37.37h.37v.37h-.74v.74h-.37v.37h-.37v.37h-.37l.37,1.11v.37l.37,1.48,1.48,5.91,1.48,4.43v.74l1.11,1.48.37.74v.74l.74.74v.37l2.96,4.06.37.74,1.48,1.85.37.37,3.33,3.7.37.37,4.07,2.59,1.85,1.11,1.48,1.11.74.37.74.37,2.22,1.85.74.74.37.37,1.48,1.48-1.48,1.11-.37.37h.37l.37.74-1.11,1.48-1.11,1.48,1.85.74,1.85,1.11v.37l-.37,1.11h.37l-.74,2.22h-1.85l-.74.74-.37.37h-.37v.37l-.37.37-.74.74-.37.37-.74.74-1.48,1.48v.37l-.37-.37v-.37h-1.48l-.37.37v.37h-.37l-.74.37h-.37l-.37-.37v-.37h-.37v-.74l-.37-.37h-.37v.37h-.37v.37h-.74l-.37.37h-.37l-.37.37h-.37v.37h-1.11v-.37l-.37-.74-.37-.37h-1.11l-1.11-.37v.37h-.37l-.37.37h-1.85v.37h.37v.37h-1.11v.37h-.37l-.37.37h-.37v.37l1.11,1.11,1.85,2.59.37.37.37.74,2.22,2.59.37.37.74.74v.37l1.11,1.11v.37l.37.37,1.85,2.22.74.74,1.11,1.48v.37l1.48,1.85,1.85,1.85,1.48,1.85,1.11,1.48.37.74,3.33,2.22-1.85,2.96-2.96,4.44-.74.74-5.17,1.48.74,3.7.74.74,1.85,1.11,4.44,2.59,1.11-.74,2.22-2.59h.37l2.59-3.33.37.37,2.95-1.11-.74-2.95-.37-.37-.74-2.59h3.33l.74-1.48h.37l1.11-1.85,1.48-2.59,3.33-1.85v.37h.37v.37l.37.37.37.37h.37v.37h.37l.37.37h.37l.74.37.74-.37,2.22,1.48h-.37l.37.74.74.74v.37h1.85l.37-.37.74-1.48h1.85l.74.37.37.37,1.48.37,2.22.74,1.84.74.74-1.11,1.85,1.11,1.48.74,2.59-1.48.37-.37,2.96,1.85,2.59-2.22,1.85.74,6.28,3.7,3.33,2.22,2.59,1.48,3.7,2.22,4.44,2.59.37.37,1.48.74.37-.37h.37l.74.37h8.13l5.91-.37,7.37-.35.38-2.98-1.48-16.63Z"/>
  <text class="cls-14" text-anchor="middle" alignment-baseline="central">
    <tspan x="345" y="350">Kornelimünster/</tspan>
    <tspan x="345" y="371">Roetgen</tspan>
  </text>
  <path class="cls-2" d="M330.65,185.92v2.16l-8.62,2.16v6.7l-1.67,4.31h-4.55l-17.01,15.33h0s-18.68-18.44-18.68-18.44v-3.11l-5.03-4.55-11.81-3.35-7.11,1.88h0s0,0,0,0l-1.68-1.4-5.63,4.48h0s-.83-.57-.83-.57h0s0,0,0,0h0s-3.72,4.84-3.72,4.84l-1.92,2.51-.07,1.33-.11,1.9,1.23,1.06.86.74h0s0,0,0,0l-1.91,1.97,2.31,3.59,2.36.72h1.8l7.72,6.41h0s0,0,0,0l-1.26,5.81,1.26,1.79,1.98.9h0v3.59h0s-1.44,0-1.44,0v1.79h0s-.86,2.16-.86,2.16l-1.29,3.23h-1.98l-.91,1.92-.71,1.49-1.44,2.51-2.1.92-.77.34-2.36,2.27.77.68.87.76-1.64,2.4,6.67,6.22h0v2.88h0s-2.51,3.35-2.51,3.35v5.27h0s19.22,0,19.22,0l.34.59.92,1.62,3.77.72,2.19-5.98.51-1.38,3.59,3.68,1.01,1.23,4.38,5.33s2.29,1.26,3.99,2.17c.86.46,1.58.83,1.76.89.54.18,4.67.54,5.03,1.26.04.09.06.19.05.3-.04.54-.61,1.23-.53,1.47.03.1.17.12.48.03.39-.11.85-.35,1.31-.62.99-.6,1.93-1.36,1.93-1.36l4.79,1.65,1.14.39,1.26-3.29,3.95-3.23,3.95.72.21-.93.69-3.02,10.06-7.72,1.51,1.38.46.42,2.34.36,2.16,1.8v-5.03h-1.44l-.37-.53-.89-1.27h0s0,0,0,0l.18-1.98h0s0,0,0,0l3.95.9.9-.9v-2.51h0s2.87-2.8,2.87-2.8l2.87-4.39,1.08-3.23,1.79-.9.17-.2.73-.88h3.24l3.51-2.11h0s.08-.05.08-.05l2.46-.9,1.68-2.87.42-1.06,1.19-3,6.47-4.56,4.49-7.19-10.06-20.84.72-6.96-6.29,1.57-5.33-6.77-4.85-3.61-.29-.22-9.94,2.87Z"/>
  <text class="cls-14" text-anchor="middle" alignment-baseline="central">
    <tspan x="310" y="230">Aachen-Forst/</tspan>
    <tspan x="305" y="251">Brand</tspan></text>
  <path class="cls-3" d="M240.35,123.17l-17.72,25.69,2.87,2.34h0s0,0,0,0l-1.44,4.07-1.44.96v3.83h0s-1.18.85-1.18.85l-.49.35v5.51h0s-2.16,4.07-2.16,4.07l2.39,1.28.24,3.51h3.35l.68,4.96.04.31h0s-.6,6.96-.6,6.96h0s0,0,0,0l1.55.23h2.63l1.58,1.19.33.25,7.43-3.59v3.59h6.7l2.32,1.6.56.38h0s.83.58.83.58l5.63-4.48h0s0,0,0,0l1.68,1.4,7.11-1.88,11.81,3.35h0s0,0,0,0l5.03,4.55v3.11l18.68,18.44,17.01-15.33h4.55l1.67-4.31v-6.7l8.62-2.16v-2.16l9.94-2.87h0s0,0,0,0l.29.22,4.86,3.61v-5.09l-5.15-1.14-3.71-3.83-5.03-6.71-2.87-9.82,6.95-3.11-3.83-5.02,4.31-5.52,4.19-4.07h5.15l1.67-3.11h5.03v-23.49l-1.2.24-21.55,4.33-2.87-7.92-5.03,6.96-13.41,2.16-29.7-1.44-5.51,1.44-27.78-4.05v-2.48l-.69.26h0s0,0,0,0c-2.16,3.96-4.34,7.71-4.34,7.71Z"/>
  <text class="cls-14" text-anchor="middle" alignment-baseline="central">
    <tspan x="285" y="150">Aachen-Nord/</tspan>
    <tspan x="275" y="171">Ost-Eilendorf</tspan></text>
  <polygon class="cls-4" points="230.05 287.78 230.05 287.78 231.25 285.07 233.41 282.44 234.44 280.04 239.15 276.93 243.23 273.82 244.28 272.51 248.86 266.87 248.86 261.6 248.86 261.6 251.37 258.25 251.37 255.37 251.36 255.37 244.7 249.15 244.7 249.15 244.7 249.15 246.34 246.75 245.47 245.99 244.7 245.31 244.7 245.31 244.7 245.31 247.06 243.04 247.06 243.04 247.06 243.04 247.83 242.7 249.93 241.78 251.37 239.27 252.08 237.77 252.99 235.85 254.96 235.85 256.25 232.62 257.12 230.46 257.12 228.67 257.12 228.67 258.55 228.67 258.55 225.08 256.58 224.18 255.32 222.38 255.32 222.38 255.32 222.38 256.58 216.57 248.86 210.17 247.06 210.17 244.7 209.45 242.39 205.86 242.39 205.85 242.39 205.85 244.3 203.88 243.44 203.14 242.21 202.08 242.21 202.08 242.21 202.08 242.31 200.18 242.39 198.85 244.3 196.33 248.02 191.49 247.47 191.11 245.14 189.51 239.3 189.51 238.44 189.51 238.44 185.92 231.01 189.51 231.01 189.51 231.01 189.51 230.68 189.26 229.09 188.07 226.46 188.07 224.91 187.85 224.81 189 224.54 192.07 224.54 192.06 224.54 192.07 220.47 189.75 219.7 190.82 218.8 192.07 218.42 193.44 217.6 196.46 215.68 196.46 214.03 198.2 211.37 201.01 207.3 207.95 206.11 207.74 202.66 207.11 202.66 207.11 200.99 209.49 185.48 231.61 175.92 245.55 175.92 245.55 175.92 245.55 167.3 251.2 166.47 253.58 166.1 254.65 168.79 256.96 169.46 257.53 169.7 257.68 174.2 260.4 181.19 263.52 180.99 264.95 180.71 266.87 180.49 267.14 175.92 272.62 168.26 281 165.59 288.1 166.44 288.52 169.03 289.63 171.61 290.37 173.83 291.11 175.68 291.85 177.16 292.59 178.64 293.33 180.48 293.7 181.96 294.44 183.81 295.17 184.55 295.54 184.92 295.54 184.92 295.91 185.29 295.91 185.66 295.54 186.4 295.54 187.87 295.54 189.72 295.54 190.09 295.54 190.46 295.54 192.31 295.54 193.05 295.54 194.53 295.54 194.9 295.54 195.64 295.17 196.01 295.17 196.74 295.17 198.59 295.17 199.7 295.17 200.07 295.17 200.44 295.17 201.55 295.54 202.66 295.54 204.14 295.54 204.51 295.54 205.25 295.54 205.62 295.17 206.73 294.81 207.46 294.07 207.84 294.07 208.2 293.7 209.68 292.96 210.05 292.59 210.42 292.96 210.42 293.33 210.79 294.07 211.53 295.17 212.64 296.28 214.12 298.13 214.49 298.5 214.49 298.13 214.86 297.76 215.6 296.65 217.07 294.44 217.44 294.07 217.44 293.7 217.81 293.33 218.18 292.96 218.55 292.59 218.92 292.59 218.92 292.22 219.29 292.22 219.66 292.22 221.88 291.85 222.25 292.22 222.99 292.22 223.36 292.22 223.72 292.22 224.1 292.22 225.2 292.22 225.57 292.59 226.31 292.59 231.12 292.96 231.49 292.96 233.7 293.33 230.05 287.78 230.05 287.78"/>
  <text class="cls-14" text-anchor="middle" alignment-baseline="central">
    <tspan x="210" y="258">Burtscheid</tspan>
  </text>
  <path class="cls-2" d="M181.31,144.24h-2.16l-1.79,1.79h-6.33l3.17,2.87-3.17,3.61h0s0,0,0,0l-3.37-3.25s-1.68-2.25-2.95-3.67c-.51-.57-.94-1-1.18-1.11-.12-.05-.18-.03-.18.11,0,1.08,1.61,6.11,1.61,6.11l3.78,3.95s2.74,1.97,6.27,4.58c6.75,4.98,16.47,12.3,16,12.87-.72.87-5.54,4.46-5.54,4.46l2.66,2.51h4.31l.72,4.31,3.66,1.01,2.87.79s.08,5.45.18,6.5c.01.11.02.31.02.55,0,.44,0,1.04-.01,1.74-.02.83-.04,1.77-.07,2.67-.06,1.79-.12,3.36-.12,3.36l2.96,4.95v2.15h0s3.45.62,3.45.62l1.19.21,4.07-6.95,2.66-2.81,1.65-1.74h1.92l.82-3.02.37-1.37.9-1.25.77-1.07h0s0,0,0,0l4.07,2.32.26-3.07.1-1.15h0s.6-6.96.6-6.96l-.04-.31-.68-4.96h-3.35l-.24-3.51-2.39-1.28h0s0,0,0,0l2.16-4.07v-5.51h0s.49-.35.49-.35l1.18-.85v-3.83h0s1.44-.96,1.44-.96l1.44-4.07-2.87-2.34h0s0,0,0,0l17.72-25.69s2.18-3.75,4.34-7.71l-5.18,1.96s-2.08.12-4.59.2c-3.11.1-6.9.13-8.23-.2h-22.99l-6.65-.74-2.09,1.48-1.44,16.03-3.59,5.39-6.47,6.47h0s0,0,0,0l-2.16-1.79Z"/>
  <text class="cls-14" text-anchor="middle" alignment-baseline="central">
    <tspan x="216" y="133">Fran-</tspan>
    <tspan x="209" y="147">ziska</tspan>
    <tspan x="205" y="161">von</tspan>
    <tspan x="207" y="175">Aa-</tspan>
    <tspan x="212" y="189">chen</tspan>
  </text>
  <path class="cls-3" d="M175.92,272.62l4.57-5.48.22-.27.28-1.92.2-1.43-6.99-3.11-4.5-2.73-.25-.15-.66-.57-2.69-2.31.37-1.07.83-2.39,8.62-5.64,9.55-13.94,15.52-22.12,1.67-2.38v-2.16l-2.96-4.95s.06-1.58.12-3.36c.03-.89.05-1.84.07-2.67.01-.7.02-1.3.01-1.74,0-.24,0-.44-.02-.55-.11-1.04-.18-6.5-.18-6.5l-2.87-.79-3.66-1.01-.72-4.31h-4.31l-2.66-2.51s4.82-3.59,5.54-4.46c.47-.57-9.25-7.89-16-12.87-3.54-2.61-6.27-4.58-6.27-4.58l-3.78-3.95s-1.61-5.03-1.61-6.11c0-.13.07-.16.19-.11.24.11.67.54,1.18,1.11,1.26,1.42,2.95,3.67,2.95,3.67l3.37,3.25,3.17-3.61-3.18-2.87h6.33l1.79-1.79h0s2.16,0,2.16,0l2.16,1.79,6.47-6.47,3.59-5.39,1.44-16.03,2.09-1.48-4.12-.46-1.2-3.24h5.01v-4.66l-1-1.92-8.57-16.52v-3.59l9.57-7.9-7.41-7.19-2.16,2.25-3.83-1.76-3.11-3.59v-5.36l5.24-9.24,1.23-2.41-1.23-3.11v-6.23l-7.64-2.39-3.63-5.45,1.48-6.29v-4.97l-1.48-6.53v-1.8h-.74v-.37h-.37v-.37l.37-.37h.37l-.37-.74.74-.37v-.37h-.37v-1.48l.37-2.59v-.37h-.74v-1.48h.37v-.37h.37v-3.33h-.37v-.74l-.37-.37h-1.85l-.74.37h-.37l-.37.37h-.37v.37h-.37l-.37.37v.37l-.37.37h-.37l-.37.37-.37.74h-.37v.37h-1.85v.37l-.37.37v1.11l-.37.37v.37h-.74l-.37.37h-.37l-1.11.37-.74.37h-.37l-.37.37-.37.37h-.37v.74h-1.85v.37l-.37.37v.37l-.37-.37v-.37h-.37l-.37.37h-.37v.37l-.37.37v.37h-1.11v.37h-.37v.37h-.37v.37h-.37v.37h-.37v-.37h-.37v.37h-1.85v.37h-.37v-.37h-.37l-.37.37h-1.48l-.37-.37h-.37l-.37.37h-.37l-.37.37h-.37l-.74.37v.37l-.37-.37h-2.59l-1.11.74-.37-.37-.74.74v.37h-.37l-.37.37h-.37v.37l-.74.74-1.48.74-1.48,1.11-1.48.74-.37.37h-.37l-.74.37-1.11.37-.37-.74-.37-.37-2.59,1.11-.74.37-.37.37-.37.37h-.37l-.37.37h-4.43v.74l-.37.37-.37,1.85-.74,2.22-.37,1.85-.37,1.11-.37.74-.37,1.11v.74l-1.85,5.17,1.11,1.11.74.37.74,1.11.74.74-2.96,7.39.74,2.96.37.37.37,1.48.37,1.48.37.74.37,1.85v.37h.37l.37.37,1.11.37.74.37,2.96,1.48,3.33,1.85-1.11.74-2.22,1.85,1.11,2.22.37,1.11.37,2.59v4.44l.37.37h.37v.37l.37.74,1.11,1.48v.37l.37.37h-.37v.74l-.37.37-.37.74-.37.37-1.11.37v.37h-.37l-.37.37-.74.37v.37l-.74.74-1.11,1.48-.37.37v.37h.37l1.48.74.74.74.74.37-.37.37-.37.74-.37.74-.37.74,1.85,1.48-.37.37-.37.37h-.37v.37h-.37v.37h-.37l-.37.37-1.48,1.11-1.11.74-.74.37-1.85,1.48-1.11.74-1.48.74-1.11,1.11-.74.74-1.85,1.48-.37.74-.37.37-.37.37-.74,1.11-.37.37-.37.74-.74,1.11-.37.74-1.11,1.48-.74.74v.37h-.37l-.74,1.48h-.37l-.37.74-.37.37-.37.37-1.48.74-.37.37-.74.74h-.37l-.74.37-1.11.74-1.48.37-.74.37-1.48.74-1.48-1.48-2.59-2.59-.74-.74-.74-.37-.74-.74-2.22-1.85-1.48-1.11-.74-.74-.74-.37-1.11-.74-.37-.37-.74-.74-.37-.37-.37-.37-.74-1.11-.37-.37-.37-.37-.37-.37-.74-.37v-.37l-.74-.37-1.11-.74-2.59-1.85-.74-.37-.74-.74-.74-.74h-1.11l-.74.37-1.11,1.11h-.37l-.74.74-.74.74-.37.37-.74.37h-.37l.37.37-.74.74-.37.37v.37l-.74.74v.74l-.37.37v2.59l-.37.37v.37l-.74.37-.37.37-.37.74-1.11-.74-1.11,1.48-.37,1.11v.37l-.37.37-.37.37-.37.37-.37.74-.37.74v1.85l-.37.74v1.85l-.37,1.11-.37,1.48v1.11l-.37,1.11v.37h.74v.37h.37l.37.37v.37h.37l.37.37v.37h.37v.37l.37.37h.74v-.37h.37v.37l.37.37v.37h1.11v.74h.37v1.11h.74v1.11h1.85v.37h.37v-.37h1.85v.37h.37v.37h1.11v.37l.37-.37v-.37.37h1.11v.37h-.37v.37h.37v.37h.37l.37.37v.74h1.11l.37.37v-.37h.37l.37-.37h1.11l.37.37.37.37.37.37h.37v.37l.37.37h.37v.37h.37v.37l1.11,1.11,1.11,1.11h.37l.74.74.74.74.37.37,1.48,1.48h.37l.37.37v.37h.74v.37h.37l-.37,2.59v3.33h.37v.37h1.11v.74l.74.37h.37v-.37h.74v-.37h.37v.37h.37v.37h.37l-.37.37h.37l.37.37v.74h.37v.74h.37v.37h.37v.37h.37v.37h.37v.37h.37v.37l.37.37h.37v.37h.37v.74h.74v.37h1.48v.37h.74v.37h.74v.37h.74l.37.37v.74h.37v.37h.37v1.11h.74v.37h-.37v.74h.74l.37.37v.37h.74v.37h.37v.37h.74l.37.37h.37v.37h.37v.74h.37v.37h.74v.37h.37v.37h.37v-.37h.74v.37h.37v-.37h.37v.37h.74v.37h.74v.37h.37v.74h1.48v.37l.37.37.37.37h.37v.37h.74l.37.37h.37v.37l.37-.37.37.37v-.37l.37.37v.37h.37v.74l.37.37.37.37.74.37v-.37h.37v.74h.37l.37.37h.37l.37.37h.37v.37l.37.37h-.37v.74h.74v.37h.74l.74.37v.37h.37v-.37h.74v.37h1.85v.37h.37v.37h.37l.37.37h1.48v.74h.37l.37.37v.37h.37v1.48h.74v.37h.37v1.48l-.74.37h-.37v.37h-.37v.37h-.37v.37l-.37.37-.74,1.48-1.11,1.48v.37h-.37v.37l-.37.37v.37l-.37.37-.37.74-.37.37-.37.37v.37l-.37.37v.74l-.37.37v.37h-.37l-.74,1.85v.37l-.74,1.85-.37.37-.37.37v.37l-.37.37h-.37v.37l-.37.37-.37.37-.74.74v.37l-.74.37-.37.37-.37,1.11-.37,1.11v1.85l.37.37v3.7l.37.74v1.48l.37.37v2.22l.37,1.48v.37l.37.37v1.48l.37.74v1.85l.37,1.11v2.22l.37.37v1.11h.37l.37.37,3.33,2.22,1.48,1.11.74.37,1.11,1.11.74.37.37.37,1.85,1.48-.74.74-.37,1.11-.74,1.85-.37.74h.37l.37.37.74-1.11.37-1.11,1.48-1.85,2.22,1.48.74.37,1.48,1.11.37.37.74.74h.37l.37.37.74.37.74.37.74.74.37.37.74.37,1.48,1.11.37.37.74.37h.37l.37.37.37.37.74.37-1.11,4.06-.37,2.59v.37l.37,1.11.74,1.85.37,1.11-1.11,4.8-.37.37-.37,1.11-3.33,3.33-1.11,1.48-3.33,3.7.74,1.11v.37l.37.37v.37l-.37,1.11v.37h-.37l-.37.37-.37.37-1.11.74v1.48l.37.37v.37l.37.37v.37l.74.37-.37.74v2.59l-.37.37-.37.37-.37.37v.74h-.37v1.85h.37l.37-.37h.37l.74,1.11h-.37v.74h-.37l.37.37h-.37l1.48,1.11.37.37h.37v.37h.74l.37-.37h1.48l-.74,1.48v.37l-.37,1.11v1.11l-.37.37v4.06l-.37,1.48v.37h.37l.37.37v.37h.37v.37l.37.37.37.37,1.48,1.48.74.37h1.85l.37-.37.37-1.11.37-2.22.37-1.85.37-1.48.37-1.11.37-.74v-2.22l.37-.37v-.74l.37-1.85.37-.37v-.37h.37v-1.48l.37-.37.37-.37v-1.48l.37-.74v-1.11l.37-1.11h.37l.37.37.74.37.74.37.74.37.37.37.37.37.37.37v.37h.37v.37h.74v.37l.37.37.37.37.37.37.37.37.37.37h.74l1.48.37.37.37.74.37h.37v.37h.37l.74.37h1.11l.37.37.74.37h.37l.37.37h.74l1.48.74,1.11.37h.74l.63.32,2.67-7.1,7.66-8.38Z"/>
  <text class="cls-14" text-anchor="middle" alignment-baseline="central">
    <tspan x="160" y="100">Aachen-</tspan>
    <tspan x="155" y="114">West/</tspan>
    <tspan x="155" y="128">Nordwest</tspan>
  </text>
</svg>