<?xml version="1.0" encoding="UTF-8"?>
<svg xmlns="http://www.w3.org/2000/svg" viewBox="0 0 512 512">
  <defs>
    <style>

      .cls-3 {
        fill: #89abd6;
        stroke: #f2f2f2;
        stroke-linejoin: round;
        stroke-width: 6px;
      }

      .cls-6 {
        fill: #fff;
        font-family: DMSans-Bold, 'DM Sans', sans-serif;
        font-size: 28px;
        font-variation-settings: 'opsz' 14, 'wght' 700;
        font-weight: 700;
      }

    </style>
  </defs>
  <path class="cls-3" d="M45.08,292.17c51.03-19.04,75.13,41.28,105.21,70.69,17.13-2.52,9.85,5.09,8.18,15.85,6.47,9.62.27,11.56-8.19,14.66,0,0,22.33,58.79,22.33,58.79,6.04-6.6,17.15-24.77,27.53-20.79,4.64-6.78,21.31-31.8,27.44-35.77-8.15-8.58-1.04-19.37,2.76-28.28,12.31,11.86,11.67-6.96,16.69-14.06,0,0,64.36,25.44,64.36,25.44v-19.57c-34.28-17.39-17.74-13.39-12.05-48.81,0,0,35,14.47,35,14.47.02-4.55,10.64-13.5.2-11.43,2.74-5.19,4.51-15.44,7.69-19.66,0,0-7.69-3.75-7.69-3.75,2.57-5.19,11.04-12.16,3.94-17.15,7.16-8.02,22.9-17.74,33.77-18.43,6.92-1.79,29.45-17.41,33.76-5.69,0,0,38.06-11.25,38.06-11.25,0,0,15.01,81.47,15.01,81.47,9.01-9.23,51.55-2.12,20.48-22.74,11.26-6.9,38.32-6.51,26.55-26.9-31.21-43.21-1.44-21.65-11.5-55.69-34.64,8.37-24.98-31.45-33.64-51.98-6.62-23.06-21.67-80.43-40.4-96.89-7.24-3.71-11.65-1.44-17.64,1.11-4.64,1.29-10.49-.39-15.43-.56-3.88.08-6.71-2.6-9.93-2.76-1.63-.77-3.33-1.01-4.96-1.65-.62.2-2.39-1.9-2.21-.55-1.48-.08.19,1.98,0,2.76-.78,2.23-2.04,4.03-3.31,6.06.15,2.44-.56,3.22-2.21,4.41-1.41,2.22-4.14,4.86-5.52,6.62-3.27,3.6-6.69,12.01-11.02,14.89.37.63-1.35,1.37-1.66,1.65.2,1.16-.27,2.81-1.66,2.75-1.19,1.55-3.45.82-4.4,1.66-1.29-.36-3.3-.95-3.31.55-1.79,3-5.79.42-7.72,2.76-6.27,4.05-11.38,6.04-18.75,7.16-2.52,1.53-5.58-.28-8.27,0-.92,1.38-3.95-.41-3.86.55-3.4-1.55-8.42.29-12.13-1.1-2.72-1.8-9.09-.6-12.68,0-.18,1.44-1.09,2.59-2.75,2.2-.03.77.23,1.74-.56,2.2-.66-2.8-1.02,1.65-2.2-1.1,0,.52-.59,1.08-1.1,1.1-.87-.22-.24.78-1.1.56-.54,1.89-1.93.91-2.76.55.28,1.38-.59,1.11-1.66,1.11.25.96-1.07.41-1.66.55-.67.37-1.65.6-2.75,1.1-1.99,2.31-4.46-.15-6.07,2.21-2.65-.53-3.4,1.51-6.06,1.1-2.16.3-3.66,1.82-6.62,2.2-1.44.82-2.2-.11-3.86,0-.72-.5-2.15-1.75-2.76-2.75-1.74.42-1.71-.88-2.75-1.1-3.03.3-.47-2.04,1.1-1.65-5.59-4.34-8.73-12.5-12.12-18.19-20.01-4.21-39.44-9.99-59.55-14.34-11.28,1.35-4.06,10.36-3.31,17.65-3.39,2.66-11.49,9.53-14.89,12.68-16.28,13.19-32.53,27.4-48.53,40.8-4.3,3.6-8.63,6.94-12.68,11.03,1.7,3.14,2.71,5.36,4.41,8.27,8.35,13.54-2.99,3.44-10.47,6.06-4.74.19-9.58,3.14-14.34,2.75-1.47-.11-4.14,3.34-4.41,1.1-5.9,3.02-21.23-3.89-19.85,6.06,5.4,8.08-5.16,13.1-9.38,18.75-3.57,5.72-5.31,13.13-9.92,18.2.37,3.85-.42,8.92-.55,12.68-4.32,6.89-13.09,12.73-11.58,22.05-.8,5.14,37.14,30.4,41.91,27.31Z"/>
  <text class="cls-6" text-anchor="middle" alignment-baseline="central">
    <tspan x="256" y="200">Nettetal/</tspan>
    <tspan x="256" y="242">Grefrath</tspan>
  </text>
</svg>