<?xml version="1.0" encoding="UTF-8"?>
<svg xmlns="http://www.w3.org/2000/svg" viewBox="0 0 512 512">
  <defs>
    <style>

      .cls-2 {
        fill: #fff;
        font-family: DMSans-Bold, 'DM Sans', sans-serif;
        font-size: 28px;
        font-variation-settings: 'opsz' 14, 'wght' 700;
        font-weight: 700;
      }

      .cls-5 {
        fill: #007bb8;
        stroke: #f2f2f2;
        stroke-linejoin: round;
        stroke-width: 6px;
      }
    </style>
  </defs>
  <path class="cls-5" d="M411.91,129.24l-5.81,2.49-15.46-15.87-38.07-39.1v-6.21l-15.62,16.25-2.55-2.39-4.46,3.98-23.9-16.89-4.46,5.26-16.57-12.27,2.23-6.05,3.18-.32v-8.45l-1.91-1.74v-19.75h-3.18l-2.55-8.28-3.19-9.56s2.23-3.82,3.19-4.78c.95-.95-1.91-2.55-1.91-2.55l-6.69,1.27,1.59,3.5-11.15,6.49h-4.78l-8.28,3.39-8.29,1.91-2.23-7.01-11.79,5.74-13.7-.32-1.91-3.71-8.6,6.58-3.82-2.12-12.32,9.34-.85,6.8,5.53-.85,3.4,11.47-10.2,6.37,2.98,5.53-16.33,15.16h0s-18.51,17.55-18.51,17.55l5.95,2.55-8.5,25.07,2.98,2.11-1.28,5.97h-3.4l-2.12,7.22,11.89,2.23-3.4,10.94.85,4.25,5.1-1.7,36.97,25.07-17.85,18.27,4.67,6.37-6.37,6.79,8.07,8.07,20.82,2.12-17.84,9.93,4.25,10.89h-7.22l1.7,6.79,14.02,7.22-8.5,14.02,8.5,11.47-3.4,6.37-34.41,28.04,3.4,6.8-5.53,6.8-4.25,16.57-6.8-.42-1.14,2.06-.98,1.77-6.8-1.27-13.59,22.53-17.1-10.21-5.84.85-7.65,12.75,9.34,8.5,4.14,10.09-2.33,1.5,5.2,2.65s15.5.63,15.5,2.34,2.55,6.95,2.55,6.95l-9.34,7.92-3.4,9.24,4.68,7.75,8.07,25.49,19.54-1.7v-13.3l10.2-5.39,14.87,5.39,7.23-4.12v-5.95l5.95-8.18,5.95,5.2,7.65-2.12,3.4-15.3,2.55-4.94h8.28l11.27-12.47s6.79,17,6.37,18.27c-.43,1.27-3.4,8.71-3.82,11.37-.43,2.65-7.23,9.88-7.23,9.88l.43,11.47,2.98,5.95-1.77,10.29-.78,4.58,5.1,6.37,10.62-2.55s-9.77,23.37-9.34,24.64c.42,1.27,4.67,6.8,4.67,6.8h8.5l8.09,7.54,2.96,2.76,2.55,3.72h15.3v-3.72l-5.1-9.45,9.35-10.2,6.37,2.12,23.37-17.22,11.47,3.21,10.19-8.5,21.67-14.44-.56-3.17-6.3-35.6-.36-2.01,7.22-3.4-2.55-6.22,7.22-17.99,29.74-39.51-4.68-3.82,4.68-6.79v-4.25l5.1-2.97-21.24-9.78,4.67-2.97-2.13-10.2,5.53-7.25-9.77-6.34-28.46,2.12-3.82-14.02h-4.25l-.85-27.19-16.14-13.17,11.47-15.3h-11.9l1.27-9.77h8.5l.43-7.65,9.34-8.07-7.22-5.5,52.26-38.68,4.68,3.94,7.65-2.24v-6.37l2.55-3.82,6.79-9.34,9.74-4.19Z"/>
  <text class="cls-2" text-anchor="middle" alignment-baseline="central">
    <tspan x="270" y="300">Inden/</tspan>
    <tspan x="270" y="342">Langerwehe</tspan>
  </text>
</svg>