<?xml version="1.0" encoding="UTF-8"?>
<svg xmlns="http://www.w3.org/2000/svg" viewBox="0 0 512 512">
  <defs>
    <style>

      .cls-4 {
        fill: #fff;
        font-family: DMSans-Bold, 'DM Sans', sans-serif;
        font-size: 28px;
        font-variation-settings: 'opsz' 14, 'wght' 700;
        font-weight: 700;
      }

      .cls-5 {
        fill: #5992c7;
        stroke: #f2f2f2;
        stroke-linejoin: round;
        stroke-width: 6px;
      }
    </style>
  </defs>
  <path class="cls-5" d="M272.36,474.05c0-1.43,14.94-6.87,14.94-6.87l5.43-10.95h6.79c10.68-10.11,22.1-28.24,31.92-39.29,9.27-1.44,15.51-1.5,20.03-11.73l24.45,17.32,4.58,13.75c3.5-.05,9.47,3,12.23,5,.34.86,8.37.99,9.16,1.11l5.6,10.69,20.37-.51c6.74-3.96,21.12-16.33,28.52-12.94,0,0,3.57,7.43,5.6,6.11,2.04-1.32,9.17,0,9.17,0l8.15-9.47c-1-1.25-7.01-8.77-8.15-10.19-4.92-22.62,8.72-42.06,22.56-58.4,0,0,15.13-9.85,15.13-9.85l.15-25.73-2.19-.95-20.37-6.42c-.91-2.26-6.88-17-7.64-18.87h-6.88l-14.51-15.25-4.58,3.06-2.04-5.09,2.54-11.01-4.58.52-12.22-21.61-2.04-29.54h-6.62v-5.43l-5.99.52-3.18-13.93,8.15-2.04-4.97-6.62-11.83-5.7-15.14-24.35-8.87-3.96s-19.81,28.31-19.82,28.31h-9.19l-16.97,19.76-21.21-55.86,11.31-4.95-3.53-8.98,3.53-15.06h-11.31l-57.28-67.17h-12.73l-2.83-4.25c-41.99,8.8-34.46,2.33-67.3-19.32-.05.36-.23,1.45-.18,1.8l-1.05.52c-8.85,15.78-19.36,30.68-31.43,44.01h-.53c-14.32,14.65-26.37,32.43-27.24,53.44-5.57,5.21-11.67,11.54-16.76,17.29h-.53c-27.73,26.62-50.88,59.76-85.92,77.02,4.27,12.13,9.45,24.94,14.67,36.67.4,3.12,2.96,7.21,3.67,10.48h.52c.8,4.58,3.6,9.99,4.19,14.67-1,.33-3.68,1.23-4.71,1.57-9.51-2.9-22.58-4.24-30.39,3.15v22.01l2.1.52c1.03,30.92,2.63,62.29,3.14,93.26h.52c2.58,6.58,7.99,14.12,10.48,20.43.25,1.26,1.14,4.01,1.57,5.24h.52c.53,2.38,2.33,7.17,3.15,9.43,1.21.37,3.97.86,5.24,1.05l.52.52c.31.05,5.05,1.2,5.24,1.05v.52h.53l.52-.52v.52h1.05v-.52h.52v.52h-.52v.52h1.05v.52h1.04v-.52.52h.52v-.52.52h1.04v-1.05h-.52,1.57v1.05h.52v-.52h.53v.52h1.04v-.52h.52v.52h1.05v.52h.52l.52-.52v-.52l.52.52v-.52h1.57v-.52h.53v-.52h1.57v.52h.52l.52.52h.52v.52l.52-.52v.52h1.05v.52h.52l-.52.52h1.05v.52h1.04l.53.52h.52v.52h1.05v-.52h1.05v-.52h.52v-.52h-.52.52l-.52-.52v-.52l.52-.52h.52v-.52h.52v-.52h.53v-.53h1.04v-.52h1.05v-.52h2.1v-.52.52l.52-.52v-.52h.52v.52h2.62v-.52h1.04v-.52h.52v.52h.52v-.52h.52v-.52l.52.52v-.52h.52v-1.04h1.05v-.53h1.05v-.52h-.53,1.05v.52h.52v-.52h.52v-.52h1.05v.52h.52v-.52h.52v-.53h1.05v-.52h1.04l-.52-.52v-.52l1.05-.52-.53-.52v-.52l.53.52v-.52h1.57v-.52l.52.52v-1.57h1.05v-.52h.52v-.52c.46-.47,1.11-1.11,1.57-1.58v-.52h.52v-1.05h.53v-.52h.52v-1.05h.52v-1.57h.53v-.52c.26-.26.79-.79,1.04-1.05h.52c.26-.26.79-.78,1.05-1.04h.52v-.52h.52v-1.04h1.05v-.53h1.04v-.52c.93-.46,2.21-1.11,3.15-1.57v-.52h.52v-.52h1.05v-.52h.52l.52-.52h.53v-.52h1.04v-.52h.53v-.52h1.04l1.57-1.04h1.05l.52-.52c25.48-12.76,53.51-22.85,79.64-35.1,2.35,1.96,4.8,4.66,7.34,6.29,5.22,5.59,12.36,10.67,17.82,16.24h.52c.66.66,2.46,2.46,3.15,3.15-8.41,3.09-12.05,6.29-12.05,6.29,2.83,2.34,68.7,57.49,68.7,56.06Z"/>
  <text class="cls-4" text-anchor="middle" alignment-baseline="central">
    <tspan x="256" y="260">Schwalmtal/</tspan>
    <tspan class="cls-3" x="256" y="302">Brüggen-Niederkrüchten</tspan>
  </text>
</svg>