<?xml version="1.0" encoding="UTF-8"?>
<svg xmlns="http://www.w3.org/2000/svg" viewBox="0 0 512 512">
  <defs>
    <style>

      .cls-1 {
        fill: #fff;
        font-family: DMSans-Bold, 'DM Sans', sans-serif;
        font-size: 28px;
        font-variation-settings: 'opsz' 14, 'wght' 700;
        font-weight: 700;
      }

      .cls-4 {
        fill: #009aa3;
        stroke: #f2f2f2;
        stroke-linejoin: round;
        stroke-width: 6px;
      }

    </style>
  </defs>
  <path class="cls-4" d="M26.81,211.18c-2.24,25.69,5.35,23.78,19.32,42.03-.03,8.72.02,26.63,0,35.41-.89,22.43-.19,13.23,21.46,15.02,0,0,17.17,35.41,17.17,35.41,27.81-2.68,38.82,4.69,62.23,16.09,0,0,26.11,42.92,26.11,42.92,32.25,1.25,42.61,12.08,67.24,28.97.83,1.09,31.53,8.45,27.9,12.32-1.15,26.35.53,15.71,25.75,24.17,2.11,30.56-8.84,30.78,18.74,22.53,0,0,27.4-11.8,27.4-11.8,4.78-4.21,34.91-33.13,45.07-26.86,4.3,2.18,21.46-9.63,21.46-9.63,0,0,23.61-6.44,23.61-6.44,0,0,35.41-12.88,38.62-10.73,3.22,2.15,4.29,15.02,4.29,15.02l29.42-25.4,1.7-1.46c-2.54-16.33-7.16-48.4-9.65-64.58,22.95-21.22,13.71-12.54-2.54-42-1.96,9.46-47.54-32.71-50.04-32.5,0,0,13.95-30.43,13.95-30.43-7.62-7.74-9.28-6.56-19.31-6.43-6.09-5.99-7.55-11.19-17.17-9.66-12.42-14.06-11.32-12.2-7.51-30.05-8.21-28.35-17.84-21.15,6.44-41.54,0,0,9.07-59.6,9.07-59.6,0,0,11.32-11.52,13.46-14.74,2.15-3.22-20.38,2.15-20.38,2.15-23.25,11.57-37.58,14.37-63.31,13.7,0,0,0-11.55,0-11.55-4.77.16-24.72-.12-29.11,0,0,0-15.45-12.87-15.45-12.87-.29,1.04-6.78-31.79-11.04-41.8,0,0,0-1.11,0-1.11,0,0-1.1,0-1.1,0,0,1.19-.03,1.22-1.1,1.11.5-1.53-1.2-1.08-2.21-1.11,0,0,0-1.1,0-1.1h-1.1v-1.1h-1.11c-.64.26-1.4-.46-1.1,1.1,0,0-1.1,0-1.1,0,0,0,0-1.1,0-1.1h-1.1s0-1.1,0-1.1c-.52.04-1.68-.03-2.21,0,0,0,0-1.11,0-1.11,0,0-1.1,0-1.1,0,.03.59-.02,1.63,0,2.21,0,0-1.1,0-1.1,0,0,0,0-1.1,0-1.1-.76-.16-1.8.41-2.21,1.1v-1.1c-1-.14-1.22.13-1.1,1.1-1.77,0-3.75,0-5.52,0,.44,3.97-1.35.78-1.1,3.31-3.06.5-2.28-1.28-4.42-1.11.58.49,1.39,1.35,1.1,2.21,0,0,1.1,0,1.1,0,.11.99-.1,1.24-1.1,1.1.11.99-.09,1.25-1.1,1.11.41,1.63-1.14.97-2.2,1.1-1.39,0-3.04,0-4.43,0,.36,2.29-2.13.02-3.3,2.21-3.97-.45-.8,1.35-3.31,1.1-1.77,0-3.75,0-5.51,0,.18.97-.15,1.26-1.11,1.1-4.01-.44-.77,1.35-3.31,1.1l1.1-1.1c-2.42.37-6.15-1.02-7.73,1.1-2.49-.24.66,1.55-3.3,1.1.16.98-.14,1.24-1.1,1.1,0,0,0,1.11,0,1.11-.97.14-1.27-.12-1.11-1.11-.55,0-1.65,0-2.2,0l1.1,1.11c-1.32.32-5-.92-4.41,1.1-.99-.14-1.25.12-1.11,1.1-.99.14-1.24-.12-1.1-1.1-1.06.12-2.63-.54-2.21,1.1-1.18-.27-3.82.83-3.31-1.1-3.57-.28-1.1.55-3.3,2.21,0-.55,0-1.66,0-2.21-.99-.14-1.24.12-1.1,1.1-.99.15-1.23-.13-1.1-1.1-.99-.14-1.26.12-1.11,1.1-4.38.4-.02-1.5-4.41-1.1.55,2.45-2.76-.24-2.21,2.21-.72-1.19-2.07-1.21-3.31-1.1.15.98-.13,1.25-1.1,1.1-.84.27-1.74-.5-2.21-1.1.1.98-.08,1.24-1.1,1.1,0,0,0-1.1,0-1.1-2.14.37-.09-1.47-2.22-1.1.11.99-.09,1.24-1.1,1.1.41,1.64-1.15.98-2.21,1.1-2.13.36-.08-1.47-2.22-1.1.42,1.64-1.14.98-2.2,1.1-.13,1.06.54,2.64-1.1,2.22-5.02.55.62-2.77-4.42-2.22-.13.99.12,1.24,1.11,1.1.15.98-.13,1.26-1.11,1.11,0,1.38,0,3.03,0,4.41-.96-.16-1.25.13-1.1,1.1-1.64.41-1-1.13-1.11-2.2-2.12-.36-.07,1.47-2.2,1.11-.12.96.11,1.25,1.1,1.09.25,1.99-1.03.35-2.21,2.22v-1.1c-.99-.14-1.25.12-1.1,1.1-.55,0-1.66,0-2.21,0-.14.98.13,1.24,1.1,1.1.42,1.65-1.14.99-2.21,1.11l1.1,1.1c-.84.27-1.73-.49-2.2-1.1v1.1l-1.11-1.1c.45,5.82-1.27,1.55-1.1,4.41,0,2.68,1.58.58,1.1,5.52.29,3.53-.57,1.13-2.21,3.31-1.08.13-2.6-.54-2.2,1.1-2.13.36-.08-1.46-2.21-1.1.4,1.64-1.14.96-2.21,1.1.09,1-.08,1.23-1.1,1.1.27,1.96-1.02.34-2.21,2.21-2.14.36-.08-1.47-2.2-1.11-2.02-.38-2.44,1.76-2.22,3.31-1.01.15-1.21-.14-1.1-1.1-1.01-.13-1.24.11-1.11,1.1-1.64-.42-.97,1.15-1.1,2.2-4.97-.48-2.81,1.11-5.52,1.11-2.15,0-4.48,0-6.63,0,.28.83-.5,1.73-1.1,2.2-.45.6-1.37,1.39-2.21,1.11-1.38,0-3.04,0-4.42,0,.19.96-.17,1.25-1.1,1.09-1.04.11-2.64-.52-2.2,1.11-.82-.28-1.75.5-2.22,1.1-.82-.28-1.74.51-2.2,1.1-1.18.27-3.82-.83-3.31,1.1-3.64,0-7.39,0-11.04,0-.86-.18-1.34.15-1.1,1.11-.85.1-1.34-.1-1.1-1.11-2.21,1.67.28,2.48-3.31,2.21-2.51-.25.65,1.55-3.31,1.1-2.43-.55.24,2.76-2.2,2.2-.47.6-1.37,1.39-2.21,1.11,1.99.39.94-1.56,0-2.21.5,1.92-2.14.82-3.31,1.1.27-.84-.5-1.73-1.1-2.2-.6.48-1.37,1.36-1.1,2.2-1.33.32-5.01-.93-4.41,1.11-.51-.6-1.34-1.39-2.22-1.11-.18,1.01.15,1.25,1.11,1.11.12,1-.12,1.22-1.11,1.1-1.65-.42-.96,1.17-1.1,2.22-1.01.15-1.23-.14-1.1-1.11-1.65-.42-.97,1.15-1.1,2.21-6.22-.45-.78,1.45-5.52,1.1-.47.6-1.36,1.38-2.2,1.1,0,0-1.11,1.1-1.11,1.1-1.23-.1-2.59-.08-3.31,1.1-2.35,0-13.01,0-15.45,0-1.16-1.85-2.47-.24-2.21-2.2-.5.67-1.34,1.33-2.21,1.1.71,4.06-2.52,8.16-2.2,12.14-1.93,1.34-2.8,3.97-4.43,5.51.24,2.32-.19,5.14-2.2,6.63-.97-.17-1.25.14-1.1,1.11-.79,6.74-3.34,3.82-3.31,6.62-.64.39-5.41.55-4.41,2.22-.83-.29-1.75.5-2.21,1.1.99-.12,1.23.12,1.1,1.1.99-.12,1.26.1,1.11,1.1,5.76-.46,1.6,1.28,4.41,1.1-.44,3.98,1.35.79,1.11,3.31.25,2.49-1.55-.66-1.1,3.3-2.44.3-6.23,1.59-8.84,1.1-2.69,2.71-6.14,6.13-8.82,8.84,7.03,3.16,7.86,1.64,9.93,9.93-3.89,1.36-10.77,2.49-14.36,4.42-1.92-1.58-2.33-5.55-3.3-7.73-1.5-1.51-5.17-5.16-6.63-6.62-.36.75-1.37,2.45-1.09,3.3-.84.55-1.83,2.41-2.21,3.31.41,1.37-1.51,1.95-1.1,3.31,0,.98,0,2.32,0,3.3.78,1.17,1.34,3.03,1.1,4.43.12,1.7-.24,4.04.14,5.65,5.05,7.65,15.99,23.12,21.9,30.77ZM211.19,43.4c.98-.15,1.24.13,1.1,1.1-.98.15-1.24-.13-1.1-1.1Z"/>
  <text class="cls-1" text-anchor="middle" alignment-baseline="central">
    <tspan class="cls-2" x="256" y="250">Wassenberg</tspan>
  </text>
</svg>