<?xml version="1.0" encoding="UTF-8"?>
<svg xmlns="http://www.w3.org/2000/svg" viewBox="0 0 512 512">
  <defs>
    <style>
      .cls-1 {
        fill: #fff;
        font-family: DMSans-Bold, 'DM Sans', sans-serif;
        font-size: 28px;
        font-variation-settings: 'opsz' 14, 'wght' 700;
        font-weight: 700;
      }

      .cls-5 {
        fill: #60acb5;
        stroke: #f2f2f2;
        stroke-linejoin: round;
        stroke-width: 6px;
      }

    </style>
  </defs>
  <path class="cls-5" d="M41.15,266.22h15.84v6.29l18.1-.6,16.35-6.85s12.26-2.92,11.09-1.17c-1.17,1.75-7.33,8.02-7.33,8.02l-4.93,32.44-8.89,8.01,5.38,14.6-1.75,9.23,5.84,7.12h4.35l4.99,5.26h6.43l4.09,3.5-7.59,16.56,25.11,19.07,2.12-1.38,19.49-12.64h4.67l5.25,10.51,19.27.58s19.28,6.43,19.86,2.92c.59-3.5,6.43-19.07,6.43-19.07l12.26-6.05v10.51l13.43,5.26,25.7,10.39h30.37v-14.48l8.76-2.92,8.17,7.59,15.19-10.3,10.51,3.29,6.42-3.29,5.84,7.97,5.26,19.86h4.67l7.59,9.93,14.02-5.91,2.92,14.68,23.94-14.08,24.53,2.98,6.42,7.01,4.67-5.84,2.92,2.92,8.18-7.07,3.5,3.56,3.5-3.56,7.6,3.56.38-.51,4.87-6.5-2.92-5.25,31.75-22.68,13.22-9.44v-41.27l-9.73-.39-6.23,3.9-8.7-1.17-3.37,7.39s-11.29-1.17-12.46-1.55c-1.17-.39-21.8-2.85-21.8-2.85l7.01-13.11-31.15-16.35-.78-25.7-7.6-5.06-12.25-1.56-5.84-9.34-4.28-13.11-12.46-3-7.4-3.61-13.63,1.81-.39-14.79,9.74-19.86-1.56-12.85-24.14-8.18-.39-21.02-2.69-7.68c-.25.16-.43.28-.43.28l-23.36.59-6.43-12.27-9.34-.58-1.16-.69-7.69-4.57-6.33-1.17-5.26-15.77-28.03-19.85s-5.26,8.76-7.01,9.93c-1.75,1.17-15.96,3.51-15.96,3.51l-16.35,20.23-9.34,13.41-10.9,11.41h-7.79l-6.23,12.56s-17.13,6.23-17.13,7.87-75.53-61.6-78.77-64.28L3,147.4l.3.15,4.81,3.6.6.6,7.81,5.41,1.2.6,3.61,2.4,1.8,1.8h.61l3,2.4,2.4,1.8,3,2.4,3.01,1.8,2.4,1.8.61.6,4.8,3.01,2.4,1.8,3.6,3,6.61,4.81,5.41,3,1.8,1.8,6.61,4.8h.6l6,4.21,3.61,2.4-3.61,4.2-6.6,5.41-1.2.6-.6.6-6.61,3.6-1.2.6-4.2,3.01-.61.6h-.6l-3,.6v3l.6,3.61v7.21h-2.4v-.6h-.6l-.6-.6h-1.2l-.6-.6v-.6h-.61v.6h-1.8v.6h-.6v-.6h-1.2l-.6.6v.6h-.6v-.6h-2.4v1.2h-.6v-.6h-.61v.6h-.6l-.6.6v.6h-.6v-.6h.6l-.6-.6-.6.6v.6h-.6v.61h-1.2v.6h-.6v-1.2h-.61v.61h-.6v-.61h-.6v-.6h-.61v.6h-.6v-.6h-.6v.6h-1.2v.61h-.76c1.5,6.93,5.57,22.75,5.57,22.75l8.41,7.01Z"/>
  <text class="cls-1" text-anchor="middle" alignment-baseline="central">
    <tspan class="cls-6" x="225" y="256">Wegberg</tspan>
  </text>
</svg>