<?xml version="1.0" encoding="UTF-8"?>
<svg xmlns="http://www.w3.org/2000/svg" viewBox="0 0 512 512">
  <defs>
    <style>
      .cls-1 {
        fill: #fff;
        font-family: DMSans-Bold, 'DM Sans', sans-serif;
        font-size: 28px;
        font-variation-settings: 'opsz' 14, 'wght' 700;
        font-weight: 700;
      }

      .cls-5 {
        fill: #5992c7;
        stroke: #f2f2f2;
        stroke-linejoin: round;
        stroke-width: 6px;
      }
    </style>
  </defs>
  <path class="cls-5" d="M446.61,184.1c-.21.82-9.6-3.88-9.6-3.88l4.75,11.03-7.15,3.27s-8.83.61-9.65.81c-.82.19-13.28,4.29-13.28,4.29l2.65,8.58-12.66,7.97-8.58-61.08-5.72,1.99-1.98-13.43-17.02-17.57,3.06-9.35h-5.31l-3.27,4.44-2.45-1.02-7.15,6.53-5.31,2.66v3.06l-6.33-.82v-3.51l-22.47,1.88v7.15l-4.49.21v2.25l-5.11-.2v-4.9c0-.61-7.76-1.23-7.76-1.23l1.22-5.15h-4.49l-8.78-6.7,4.9-7.97-12.26-9.19-19.2,32.28s-2.66-2.04-3.88-2.45c-1.23-.41,0,2.66,0,2.66v3.27l-2.25,2.45-1.84-3.47-11.24,9.81-3.47-5.72-17.45,9.19-.94,2.45-2.04-1.02-7.15,2.66v5.72l-8.58,3.68v-6.54l-8.58,6.94-3.27-5.52-2.86,1.02-4.7-8.58-3.81-.62-4.36,4.7-2.86-.2-13.07,7.56-3.68-3.88-21.86,13.69v10.21h-18.38l-2.45,3.27,6.54,2.66-2.86,2.25-2.25,3.07-4.09,5.31s-8.58-7.56-9.19-8.17-1.22,2.87-1.22,2.87c0,0-7.35-1.44-8.17-.42-.82,1.01-8.38,3.68-8.38,3.68l-1.63-1.43-9.19,4.9-3.06-5.11-9.6,6.74-4.29-3.27-5.11,1.43s-.02-.04-.06-.1l-8.31,6.98,3,3.27-6.26,3.74,6.81,4.7-.54,2.18,3,3.81-4.63.82,4.63,5.45h-3.54l2.45,4.63-8.17,9.26h2.18l-2.72,6.53-4.36-1.36-4.63,8.44-10.08,6.54-5.45,7.35-11.98,7.08,3.81,4.08-4.09,6,7.11,12.06,5.42,9.18,4.09-1.09,6.26,5.99-.97,5.45h6.15l4.09,15.8,5.72,10.62,1.12.61,4.87,2.62-8.99,7.4-3,7.9,4.63-1.36,7.35,11.17,7.35-2.82-2.31-4.9,14.02-13.52,16.34,26.15s12.25-13.28,13.07-12.63c.82.65,9.81,10.18,9.81,10.18l13.34-12.26-5.45-7.62,8.72-7.67h4.09s-1.63-4.31,0-4.86c1.63-.54,5.72-3.54,5.72-3.54l1.91,2.72,14.16-13.34,4.09,1.91,3.27-5.16,5.17,5.16-3.81,4.63,7.35,8.72-4.09,8.17,6.81,6.54,4.08-5.99,2.22,1.74,4.04,3.17,3.27-2.72,8.44,11.98,4.78-4.44,10.47-9.72-1.91-3.54,6.54-4.08-2.18-7.35-3.54.54.55-4.36,7.9-5.99,2.45,1.36,5.51-4.21,1.22,2.38,8.78.2,7.56-3.68,1.43,4.49,5.31-1.22,5.31-2.17h3.06l7.15-4.16-1.02-2.25,4.29-.82s1.84,1.02,1.23,1.63c-.62.61-2.04,3.06-2.04,3.06l2.04,6.13,1.63,5.31h2.04v12.67l1.22,1.11v5.42l-2.04.21-1.43,3.88,10.62,7.87,2.86-3.37,15.32,10.82,2.86-2.55,1.63,1.53,10.01-10.42v3.98l24.41,25.06,9.91,10.18,3.73-1.6.56-.24,3.88,4.09h5.1l5.17-2.22.55-.24v-14.1l-2.86-3.06v-3.47l1.22-5.72-2.25-6.54h14.71l-3.06-5.72-13.69-9.4,3.47-1.23-2.25-4.49,2.86-1.84-8.17-13.07,4.49-4.9-2.25-3.27,1.43-1.43s-13.48-16.75-12.87-16.95c.61-.21,11.03-12.05,11.03-12.05l2.25-1.63,1.22-2.86,13.28-13.07.2-4.09.62-3.07-.82-2.86.82-8.58-2.66-8.17,8.37,1.63,12.26,2.45,13.89,3.68,27.17,13.48,8.17,3.47,3.72,3.06,17.11.82,5.1,5.31,4.5,2.86,3.68,5.52,4.7.21,7.56,14.5,12.26,4.77.99-.25v-.17l.42-2.94.42-2.94.42-2.1v-.42l-1.26-3.78v-5.47l-1.26-3.36.42-1.26.42-.42v-.84l.42-.84.42-.42v-.42l.42-.42v-.84l.42-.42v-.84h.42v-1.26l.42-.84-.42-.84-.42-1.68-.42-1.68v-.84h-.42v-.84l-.42-.84v-1.68l-.42-.42v-.84l.42-.42v-2.52l.42-.42v-1.26h.42v-1.26l.42-.42v-.42h-.42v-.84l.84-5.04h-.42v-1.68l-.42-1.26h.42l.42-1.26.84-4.2.84-3.78.42-2.1.42-4.63.42-2.52.42-.42v-.42l2.52-5.88,1.68-3.78h.42v-.42l1.26-2.94v-.42l.42-.42h-4.62l-5.46.42v-.42h-2.94l-2.94.42h-4.21l-3.36.42h-4.63l-4.62.42-2.1-7.57v-.42l-.84-2.94-.84-1.68-.42-2.1-.42-.42-1.26-2.94-.84-1.68-.84-2.52v-.42l-1.68-3.78-.42-.42-.42-3.78-.42-4.21v-.84l-.84-4.62v-.84l-.42-.42v-1.26l-.42-2.52v-1.26h-.42l-2.1-1.26h-1.26l-2.1-.84-.84-.42h-.42l-.42-.42h-.84l-.84-.42h-.42l-.84-.84h-.84l-.42-.42-2.1-.84-.84-.42.15-.54-2.86.54s.21,7.71,0,8.53Z"/>
  <text class="cls-1" text-anchor="middle" alignment-baseline="central">
    <tspan x="210" y="256">Aldenhoven/Jülich</tspan></text>
</svg>