<?xml version="1.0" encoding="UTF-8"?>
<svg xmlns="http://www.w3.org/2000/svg" viewBox="0 0 512 512">
  <defs>
    <style>
      .cls-1 {
        fill: #fff;
        font-family: DMSans-Bold, 'DM Sans', sans-serif;
        font-size: 28px;
        font-variation-settings: 'opsz' 14, 'wght' 700;
        font-weight: 700;
      }

      .cls-4 {
        fill: #009aa3;
        stroke: #f2f2f2;
        stroke-linejoin: round;
        stroke-width: 6px;
      }

    </style>
  </defs>
  <path class="cls-4" d="M479.38,2l-28.45,10.77s-11.41.64-25.18,1.09c-17.11.53-37.91.73-45.2-1.09h-126.29l-36.53-4.06-11.48,8.11-7.89,88.03-19.73,29.59-35.52,35.52-11.84-9.86h-11.84l-9.86,9.86h-34.79l17.44,15.79-17.44,19.83-18.49-17.85s-23.66-31.57-23.66-25.66,8.85,33.55,8.85,33.55l20.74,21.7s126.28,91.05,122.33,95.84-30.42,24.52-30.42,24.52l14.63,13.81h23.68l3.95,23.68,35.9,9.87s.43,29.96,1.01,35.69c.18,1.73.15,6.62.03,12.55-.26,13.71-1.04,33.13-1.04,33.13l16.23,27.16v11.84l25.48,4.59,22.36-38.15,23.68-24.98h10.54l6.57-24.11,9.21-12.73,22.36,12.73,1.98-23.17,3.27-38.23-.23-1.72-3.72-27.23h-18.41l-1.32-19.25-13.14-7.05,11.84-22.36v-30.25l9.2-6.59v-21.04l7.89-5.27,7.89-22.36-15.79-12.83,97.35-141.07s11.99-20.61,23.86-42.34"/>
  <text class="cls-1" text-anchor="middle" alignment-baseline="central">
    <tspan x="240" y="210">Franziska</tspan>
    <tspan x="240" y="252">von Aachen</tspan>
  </text>
</svg>