<?xml version="1.0" encoding="UTF-8"?>
<svg xmlns="http://www.w3.org/2000/svg" viewBox="0 0 512 512">
  <defs>
    <style>
      .cls-1 {
        fill: #fff;
        font-family: DMSans-Bold, 'DM Sans', sans-serif;
        font-size: 28px;
        font-variation-settings: 'opsz' 14, 'wght' 700;
        font-weight: 700;
      }

      .cls-2 {
        fill: #91c1c8;
        stroke: #f2f2f2;
        stroke-linejoin: round;
        stroke-width: 6px;
      }

    </style>
  </defs>
  <path class="cls-2" d="M258.16,341.72l42.06,8.79,3.76-11.92,39.51-.63s-.62,32.62,0,32.62h13.8v13.17l3.13,5.02h13.8l16.31,8.16,6.27,13.8,8.79-6.28,10.03,2.78,9.41,7.26,11.29-6.29-3.76-8.13,15.68-3.13.24-.72,6.03-18.1,19-16.95,4.21-3.76,9.41-24.47-10.03-3.13s8.15-39.52,13.8-58.34c5.63-18.75,18.02-44.94,18.1-45.13-3,5.46-4.77,9.06-4.77,9.06l-52.22-53.16-20.58,5.14-1.99.5-12.7-1.41v-5.65l-29.64,8.46,7.99-7.53v-8.94l-11.76,1.41v-37.17l-14.58,5.18-20.7-27.33s-7.06,11.8-9.41,13.21c-2.35,1.41-6.59-5.65-6.59-5.65l12.71-15.52-24.47-5.18-13.65-4.28-21.64,27.34-6.52-3.76-20.32,19.76-18.79,2.35-16-7.06-2.35,18.35-7.53.47-33.88,33.4-5.17-2.35-14.12,20.23v7.99l-30.1-16.93s-7.06,10.35-8,12.23c-.94,1.88-31.99-15.99-31.99-15.99v-7.06h-9.41c-1.87,0-69.96-63.51-69.96-63.51l-7.85-4.65,1.56,14.03v.97l.97,10.65v1.94l.97,1.94v4.83l.97,7.74.97,3.87.96,15.49.98,5.8v3.87l3.87.97,7.75,2.91,2.91.96h.96l7.75,2.91,10.65,3.87,5.81,1.94,2.9.97,13.55,4.83,8.72,2.91,5.8,1.94h.97l.96.96h3.88l5.8,2.91h.97v.98l6.78,2.9,1.93,1.94h.97v.97h.97v.97l.96.96.98,1.95v1.94l.97.96,2.9-.96,1.95-.98h.96l.97-.96,3.87-1.95,1.93-1.93,1.94-.97,4.84-1.94.97.97,6.78,6.77,1.93.98,4.84,4.83h.96l2.91,2.91-.96.97-.97,4.84h-.98l-2.9,12.58-.97.97-1.94,5.8v1.94l6.78,1.94h.97l1.94.97h3.87l1.94.97,3.87.97,7.74,1.94.97-.97.97-.97v-.97h.97l.96-.97,1.94.97,1.94.97,1.93.97,3.87,1.94.97.96,1.94.98.97.97h4.83l2.91-2.91,4.83-3.87,5.81-6.77,6.78,1.94,4.83.96h1.94l6.78,1.94,16.45,5.81,1.94,1.94,2.9,1.93h.98l.97.98,1.94,1.93,2.9,1.94,4.83,4.84h.98l.96.97h.97l1.94,1.94,3.87,1.93,2.91-5.81h.98l.96-1.93,6.78-3.87.97-.97,2.91-1.94h.96v.98l.97.96v2.91l-.97,1.94v.97l-.96.96-.97,3.88-.97.96v.97l-.97.97v.97l-.97.97-.97.97-.97,1.93-.97.98v.96h-.97v.97h-.96l-.98.98h-.97l-2.9,1.93h-.97l-.98.97h-.96l-1.94,2.91-1.93,1.94v.97l-.03.03,12.12,5.25-10.16,26.97Z"/>
  <text class="cls-1" text-anchor="middle" alignment-baseline="central">
    <tspan x="316" y="210">Übach-</tspan>
    <tspan x="316" y="252">Palenberg</tspan>
  </text>
</svg>