<?xml version="1.0" encoding="UTF-8"?>
<svg xmlns="http://www.w3.org/2000/svg" viewBox="0 0 512 512">
  <defs>
    <style>

      .cls-2 {
        fill: #fff;
        font-family: DMSans-Bold, 'DM Sans', sans-serif;
        font-size: 28px;
        font-variation-settings: 'opsz' 14, 'wght' 700;
        font-weight: 700;
      }

      .cls-3 {
        fill: #997ca1;
        stroke: #f2f2f2;
        stroke-linejoin: round;
        stroke-width: 6px;
      }

    </style>
  </defs>
  <path class="cls-3" d="M491.65,494.49l-13.42-34.12-9.25-8.63,1.13-11.91h-5.67l13.79-22.11-4.72-6.33,2.49-3.54,2.23-3.16h4.35l7.37-13.04-41.95-20.97v-16.15h7.37v-9.94h-9.07l-16.44-50.46h9.07v-22.11l-3.4-7.37-.57-19.04,3.97-12.68-19.28-12.68-11.34-5.69,6.8-10.57-31.75-27.05v-18.31l-5.67,2.26-9.64-18.7-5.67-32.32-2.26-5.1,2.26-11.91-19.27-26.65-4.25,1.75v40.49l-9.36-6.8-22.96,28.91-22.11,5.1-30.55-34.01-12.82-74.3-17.86-17.54-30.62-6.8h-11.91l-73.13,6.8-7.73-2.43,2.63,3.28-13.61,15.82s-11.9-2.21-15.3,0c-3.4,2.21-9.36-10.21-9.36-10.21,0,0-10.21-1.36-13.61,0-3.12,1.25-29.23,18.44-33.39,21.19l3.91,11.18.57,30.61,35.15,11.91,2.26,18.71-14.17,28.92.56,21.54,19.84-2.64,10.78,5.25,18.14,4.37,6.23,19.09,8.5,13.61,17.85,2.27,11.07,7.37,1.13,37.42,45.36,23.81-10.21,19.09s30.05,3.59,31.75,4.15c1.7.57,18.14,2.27,18.14,2.27l4.91-10.77,12.67,1.7,9.07-5.67,14.18.57v60.1l-19.24,13.74-46.24,33.03,4.26,7.65-7.1,9.46,6.53,11.52-4.53,10.78,15.3,10.77,9.07,15.31,16.44-6.44,9.64,6.44,10.78-14.17,11.34,7.73h34.02s22.11-8.3,22.11-6.03-6.8,29.48-6.8,29.48h-14.18l-5.67,13.61,39.69-5.67v11.91l17.57,3.94-4.53,9.66,7.94,3.97,11.91-11.34,28.35-3.17,5.1,14.51h15.87l10.78-2.27,14.74-2.83,3.4,5.1,39.68-9.07,3.76-5.44h-3.19Z"/>
  <text class="cls-2" text-anchor="middle" alignment-baseline="central">
    <tspan x="266" y="175">Mönchen-</tspan>
    <tspan x="266" y="217">gladbach</tspan>
    <tspan x="266" y="259">Südwest</tspan>
  </text>
</svg>