<?xml version="1.0" encoding="UTF-8"?>
<svg xmlns="http://www.w3.org/2000/svg" viewBox="0 0 512 512">
  <defs>
    <style>

      .cls-2 {
        fill: #fff;
        font-family: DMSans-Bold, 'DM Sans', sans-serif;
        font-size: 28px;
        font-variation-settings: 'opsz' 14, 'wght' 700;
        font-weight: 700;
      }

      .cls-5 {
        fill: #60acb5;
        stroke: #f2f2f2;
        stroke-linejoin: round;
        stroke-width: 6px;
      }
    </style>
  </defs>
  <path class="cls-5" d="M374.87,473.46l19.59-8.5v-15.82l51.25-86.39h4.17l3.43-11.71,38.6-40.23,2.9,2.92,14.19-7.6-16.8-24.67,4.15-11.39-4.73-6.59-25.65-35.81-20.25-8.86,11.66-19.62-29.37-16.45v-4.41l-9.5-6.97s-10.12,6.33-13.29,6.96c-3.16.64-24.68-19.62-24.68-19.62l-3.89-15.19-11.93,4.44-3.8-12.67-27.21,5.06v-8.23l-9.5-4.99-41.31,4.99-30.59-22.78-4.72-1.42-.49.33h-.65l-.65,1.95-.66,3.91-1.95,2.6h-3.25l-1.95,1.95-1.3-1.3-1.31.65-3.25,3.25v1.3l-1.95,1.95-3.25-.65-3.26,1.95-3.26,1.95.66,3.9,1.95,3.26.65,2.6.65.65-1.3,3.9-1.95,1.95-.66,1.95-.65,3.26-.65,1.3.65.65h-.65l-3.26-1.3v.65l-1.3-.65-1.3-3.26-2.61-2.61-3.9-.65-2.6-.65-3.26-.66-3.91.66h-4.55l.65-1.3-4.55,1.3h-3.91v1.95l-3.91,1.95h-1.95l.66-.65-7.17,1.96v-4.56l-.65-.65-2.61-7.16-1.3-3.26-.65-1.95-1.95-5.86-1.95-3.91-2.6-3.25v-.65l-1.95-2.6-.65-.66-3.25-5.2-4.56-5.86-1.95-2.61-1.95-2.6v-.65l-1.3-5.86-.65-3.25-.65-1.3v-1.3l-.65-3.25-.65-.66v-.65l-.65-1.95v-.65l-.65-1.3v-2.6l-.66-.65-.65-1.95-1.3-5.86v-.65l-.65-1.95v-1.95l-.65-.66-.65-2.6-.65-2.61-1.95-7.16-.65-2.61-.65-2.6-.65-2.61-1.31-3.26-1.3-1.3-1.3-1.3-3.26-3.26-1.3-.65-2.6-2.61-.65-.65-1.95-1.95-5.21,4.55-3.26,3.26-1.3,1.3-5.86,5.86-3.25,3.25h-.66l-7.15,5.21-.66.65-6.51,5.21-6.51,3.9v.66l-1.95,1.3-5.21,7.81-.65.66-.65.65-3.9,5.21-.66.65-2.6.65h-.65l-3.26.65-.65.65-1.95.65h-1.3l-1.3.65h-10.42l-1.95-.65-1.95.65h-1.95l-2.61.65h-8.46l-1.3.65h-.65l-2.61-.65h-5.21l-3.26-.65H4.3v1.3l-1.3.65v2.6l1.3,13.67v1.95h.65v.65l9.11,14.32.65,1.3,1.3,1.95,3.26,6.51,1.3,2.61.65.65.65.65h.65l1.95,1.3,1.3.66.65.65h.66l.65.65v.66h.65v.65l.65.65v3.9l-1.95,8.47v2.6l-1.31,5.86v1.3h-.65v1.3l-.66.65-.65.65-1.3,1.95-.65.66-2.6,3.9v.65l1.3,4.55v4.56l.65.65.65,1.31.65,1.95.65,2.61v1.3h.65v3.9l1.3,3.26,2.6,6.51v.65l.65.65v4.55l-.65,1.3v.65h-.65v3.9l.65.66v.65l.65.65v.65l.65.65.65.65,3.9,5.86.65.65,3.26,3.91,2.61,4.55v-.65l2.6-1.3,7.17,1.95,2.6,1.3,1.3.65h.65l3.9,1.95,1.95.66,1.3,1.3,2.6,1.95,3.26,1.95-.65,1.31v6.51l-.66,2.61v8.46l-.65,1.95v3.91h.65l1.95,1.3,5.21,1.95,2.6,1.3,1.3.65,1.95.65,1.3.65h1.3l1.95,1.3,1.95.65,3.25,1.3-.65,5.86v1.3l-.65,1.3v.65l-1.3,6.51v1.3l-.65,5.86-.65,1.95v6.5h-.65v1.3l-.65,6.51v1.95l-.65,6.51v1.3l-.65,7.81-2.61,3.26-3.25,3.25-1.3,1.31-1.3,1.3-1.3.65-.66.65-1.3,1.3-1.95,2.6-1.31,1.3-1.95,1.95-.66.65-.65.65-1.95,2.61-3.26.65h-1.3l-1.3,1.3-1.31.65v.65l-.65.65,3.26,2.6.65,2.61v.65l.65,1.3.65.65.65,1.95h.65v1.3l.65.65.65.65h.65l1.3,2.61v2.61l.65,3.25,1.3.65,6.51.65h2.6l1.95.65h5.86l1.95-.65,1.95-.65,2.61-.65,1.3-.65,3.26-1.3,5.86-1.95,2.61-1.95h.65l1.95-1.3.65-.65,1.31-.66h1.3l.65-.65h.65l.65-.65h2.61l1.95.65,1.3.65h.65l.65-.65,6.51-3.9,3.25-1.95,5.86-5.21,3.91-3.26,1.95-1.3,2.61-1.95,11.07-7.81,1.95-1.3,17.57-2.6,21.48-3.26,12.37-3.91,4.55,13.02,1.31,1.3,1.3,1.3,5.86,5.21h-.66l.66.65.65.65,8.46,7.16.66.65v.65l.65.65v.65l.65.65.65.65v.65h.65l.65.65.65.65h1.3v.66h2.61l.65-.66,2.61-.65h1.3l1.3-.65,1.3-.65h1.95l1.3-.65,1.95-.65h.65l.65-.65,3.9-1.95.65-.65h.65l.65-.66,1.3-.65,3.26-1.95,2.6-1.95h1.3l2.61-.65.65-.65h.66v.65h1.3l3.9,3.26.66.65h25.39l9.11-.65h24.09l4.55-.65h16.93l-.65-1.3h3.91l5.86.65,3.91,1.3,6.5.65h1.95v.65l.65,5.21v1.3l-.65,1.3-5.86,14.33-4.55,11.71-1.3,4.55-2.61,7.17-4.56,7.16-1.3,3.9-1.95,3.91-2.61,6.5-3.26,5.87-1.95,4.55-.65,1.3-2.6,2.6-1.95,2.6-.66.66-2.6.65-2.6.65-1.95.66-1.95,1.3-3.91,2.61-3.91,3.91-1.95,3.25,4.56,3.91,5.21,2.6,1.95,1.3h.65v.65l1.95,1.3.65.65h1.3v.65l1.3.66h.65l.65.65,7.17,4.55h1.3l-1.3,4.56-3.26,11.07-.65,2.6h0s0,0,0,0l31.42-13.62Z"/>
  <text class="cls-2" text-anchor="middle" alignment-baseline="central">
    <tspan x="256" y="236">Gangelt/</tspan>
    <tspan x="256" y="272">Selfkant</tspan>
  </text>
</svg>