<?xml version="1.0" encoding="UTF-8"?>
<svg xmlns="http://www.w3.org/2000/svg" viewBox="0 0 512 512">
  <defs>
    <style>
      .cls-1 {
        fill: #fff;
        font-family: DMSans-Bold, 'DM Sans', sans-serif;
        font-size: 28px;
        font-variation-settings: 'opsz' 14, 'wght' 700;
        font-weight: 700;
      }

      .cls-6 {
        fill: #b19bb8;
        stroke: #f2f2f2;
        stroke-linejoin: round;
        stroke-width: 6px;
      }
    </style>
  </defs>
  <path class="cls-6" d="M477.55,222.3l-10.47-24.85,19.19-.87v-11.59l-13.48-34.65-5.71-20.47-16.34-26.63-29.68,26.63-28.83,11.87-27.98,19.5-8.91-10.9h-6.9l-14.73-15.39,43.25-77.95h-58.09l-2.54,9.69h-12.72l-5.51,13.14-13.57,8.48-9.91,2.11-31.64,12.81v3.31l-38.59,14.84-2.97,8.48-12.72-6.78-11.45,4.66-14.41-19.5,1.7-4.13-13.57-28.94,10.6,5.51,13.56-8.05h13.57v-15.62h-7.63l-7.64-2.61v-4.66l-29.13-14.34-3.09,7.98s1.7,5.09,1.7,6.78-8.91,5.09-8.91,5.09l-11.45,1.76v-5.58l-7.21-5.51-6.78,2.55-63.18,12.72-9.75,10.6,6.36,8.05-1.2,3.85-3.04,9.72L3,122.24l50.03,19.51v2.87l4.24-1.75,19.23,26.57-2.26,11.87,2.26,5.09,5.65,32.22,9.62,18.66,5.65-2.26v18.26l31.66,26.97-6.78,10.55,11.31,5.67,19.23,12.65-3.96,12.65.57,18.98,3.39,7.35v22.04h-9.05l16.39,50.32h9.05v9.91h-7.35v16.1l41.84,20.92,10.18-11.31,5.66,5.09,2.82,15.44h16.39l-5.09-8.09,7.92-8.48-2.83-6.22,39.01-26,23.75,22.04v7.92l9.16,4.52,4.4-5.09,3.39-6.22-4.52-20.62,77.45-3.69-35.05-100.99,110.75-5.85v-5.09l10.47-5.63-5.32-8.72,9.04-6.98,5,6.98,12.45-6.07-1.98-1.78h5.63l6.63-3.23-2.66-2-3.5-3.48-5.23-4.36-8.72-6.98,5.23-6.1-5.23-4.36-2.62-2.61,13.09-6.1h.02s-9.61-30.98-9.61-30.98h-12.21Z"/>
  <text class="cls-1" text-anchor="middle" alignment-baseline="central">
    <tspan x="290" y="240">„Rheydter Gürtel“</tspan>
  </text>
</svg>