<?xml version="1.0" encoding="UTF-8"?>
<svg xmlns="http://www.w3.org/2000/svg" viewBox="0 0 512 512">
  <defs>
    <style>
      .cls-1 {
        fill: #fff;
        font-family: DMSans-Bold, 'DM Sans', sans-serif;
        font-size: 28px;
        font-variation-settings: 'opsz' 14, 'wght' 700;
        font-weight: 700;
      }

      .cls-2 {
        letter-spacing: 0em;
      }

      .cls-3 {
        fill: #009aa3;
        stroke: #f2f2f2;
        stroke-linejoin: round;
        stroke-width: 6px;
      }
    </style>
  </defs>
  <path class="cls-3" d="M484.89,193.71s2.96-2.96,3.26-4.15c.3-1.18-11.85-17.48-11.85-17.48l9.19-7.11-21.03-33.18-1.05-5.81-1.03-5.75,2.08-2.37-2.08-8.59-10.36-6.36-10.96,15.84-6.52-2.37-22.51,17.19-2.37-3.56h-5.93l-3.56,5.33-2.97-5.33-13.63,4.74v5.93l-36.46-14.69v-7.23l-7.38-1.18-2.97,12.44-14.22-3.42-7.71,9.93-5.33,11.85-5.34,3.56-5.92-7.11,2.37-5.93-8.89-1.19-2.96-14.22-5.34,3.1-5.33-.61-5.93.61v-6.66l-7.11,1.19-23.7-10.66-16,19.55-4.74-3.42-7.7,9.34,7.7,8.3-8.3,17.18s-5.33-2.37-8.89-2.51c-3.56-.14.6,6.66,0,9.03-.59,2.37-23.95-14.22-23.95-14.22l-15.24,8.21h-.02s-3.44,1.87-3.44,1.87h0s-13.29,7.11-13.29,7.11l-2.71-2.73-36.13,37.66-3.21,10.97h-3.9l-47.99,80.88v14.81l-18.35,7.95-29.41,12.76-2.82.33,8,4.74s42.87,39.99,44.06,39.99h5.93v4.44s19.55,11.26,20.14,10.08c.59-1.19,5.04-7.71,5.04-7.71l18.96,10.67v-5.03l8.89-12.74,3.26,1.48,21.33-21.03,4.74-.29,1.48-11.56,10.07,4.45,11.83-1.48,12.8-12.44,4.11,2.37,13.63-17.22,8.59,2.7,15.41,3.26-8,9.78s2.66,4.44,4.15,3.56c1.48-.89,5.93-8.32,5.93-8.32l13.04,17.21,9.18-3.26v23.4l7.41-.89v5.63l-5.04,4.74,18.66-5.34v3.56l8,.89,1.25-.31,12.97-3.24,32.88,33.47s1.12-2.27,3-5.71c4.49-8.17,13.48-23.11,23.07-31.03,13.63-11.26,35.84-21.33,35.84-21.33l10.96,7.11,14.5-17.18,6.54-7.73,12.44-2.35-1.25-3.24-7.34-18.98h-7.11l-4.44-8,5.93-8,1.78-8.59-3.26-4.74,15.7-10.07,5.63,2.07,10.37-6.52v-5.63l14.81-8.89,24.59-18.37,13.92-21.62,8.89,3.26,2.78-4.16-24.11-15.68Z"/>
  <text class="cls-1" text-anchor="middle" alignment-baseline="central">
    <tspan x="270" y="256">Geilenkirchen</tspan>
  </text>
</svg>