<?xml version="1.0" encoding="UTF-8"?>
<svg xmlns="http://www.w3.org/2000/svg" viewBox="0 0 512 512">
  <defs>
    <style>
      .cls-1 {
        fill: #fff;
        font-family: DMSans-Bold, 'DM Sans', sans-serif;
        font-size: 28px;
        font-variation-settings: 'opsz' 14, 'wght' 700;
        font-weight: 700;
      }

      .cls-2 {
        fill: #825e8b;
        stroke: #f2f2f2;
        stroke-linejoin: round;
        stroke-width: 6px;
      }
    </style>
  </defs>
  <path class="cls-2" d="M86.16,78.7l1.55,5.03-15.47,10.45-2.71,8.51-10.06,9.28,12.77,13.54-16.64,30.17-9.67,7.74,11.99,24.76-21.27,1.93,7.35,13.9-7.74,3.12-6.57-3.12v-5.39l-4.79-3.43-7.78,4.2,4.45,7.35-4.45,3.87,6.39,8.02,5.8,15.97-1.93,3.87,12.77,22.05,13.93-3.09,1.93,8.12-5.8,4.25h-26.3l-20.88,18.95,13.91,12.59,12.59,11.39h-6.38l3.48,15.86-.2.13,5.22,3.74v28.24l19.34-2.7s4.26-1.94,4.26-3.48,19.34-5.42,19.34-5.42l-4.64-8.9-2.71-12.38,12.77-10.06,1.66-10.44,7.24-.77-1.93-8.51,15.58.77,9.17-5.41,7.35,9.28,4.83-3.87,4.45,4.88-4.45,3.44,10.44,9.87-10.44,5.2v4.67l14.51,5.8,10.44,2.9h8.12l2.9,2.9-12.77,67.29h-4.06v5.82h7.54l-5.23,12.19,5.8,9.28,6.39-.58,5.8,9.28-5.8,12.18,9.28,12.71,5.22,3.58,57.45-.6,5.25,12.74,14.03-9.28,6.86,2.52,3.45-5.97h7.54v5.97l23.21-14.12v-15.09l8.12-12.77,8.71-.58,7.54-4.61,5.8,4.03,3.67-8.12,7.35.58,2.32-9.87,3.48,8.71h5.22l27.85,29.01,6.96,2.9,22.63,17.69,9.24,2.22,15.14,9.09,26.05-22.63,1.79,8.17,11.03-8.17,16.42,19.73,12.53-7.39,17.31.16v-3.15l-1.19-1.19-1.2-.6-.59-.6v-1.19l-1.19-.6h-.6l-1.79-.59h-1.19v2.98h-.59v.6h-.6v.6l-.59.59v.6l-.6,1.19h-4.18l-2.99,1.19-4.18.6-2.99,1.19v-.6l-.6-1.19-1.19-1.19,2.99-2.98.6-.6,1.79-1.79v-.6l2.98-5.96,4.18-3.58.6-.6,1.79-2.39.59-.6,1.79-3.58,1.79-3.58,2.39-3.58,1.19-.59-1.19-1.19v-1.19l-.6-.6-1.79-.6-.6-.59-.59-.6-.6-.59h-.59v-.6l-.6-.6.6-.6,2.38-1.79h.6l1.19.6v.6l1.79.6-.59-2.39v-.6l.59-1.19v-1.79l-.59-1.8-.6-.59v-2.38l-.6-.6-2.39.6-1.79-.6-1.79-1.19-.6-1.19-.59-.6v-2.39l-1.19-.6v-1.19l-1.19-1.79-.6-1.19-.6-2.39-.59-1.19-1.79-1.79-1.19-1.19-.6-1.19-.6-.6-1.19-1.19v-.59l-1.19.59-2.38,1.79-1.19-2.38-1.19-1.79-.6-1.79-1.19-2.39h.6l-1.79-4.77v-2.99l-1.19-1.19v-.59l1.79-.6.6-.6.6-1.19h.6l1.79-2.38.59-2.38-5.96-.6-1.79-1.79v-1.19l-.6-.6v.6h-.6l-2.39-1.19,1.19-.59-5.97-7.17-6.57-7.76-2.98-2.99-1.79-1.19-.6.6-.59-.6-1.2-.6-1.19-1.19-1.79-2.98-.6-1.2v-1.79l-1.19.6-2.38,1.19-1.2.6v.6l-4.18,1.19.6-2.99v-.6l-.6-1.19-1.19-1.19-1.19.6-.6-1.19.6-1.19.6-1.19-5.38.6h-1.19l-2.38-.6-3.58-2.38h-.6l-1.19-.6v-.6h-.6l-5.37-3.58-4.18-14.92.59-.6v-.6l1.2-1.79,1.19-1.19h-.6l-.59-1.79-2.39-4.18-1.79-3.58-1.79-2.39-1.19-2.39-8.36,5.97-1.79-1.19-1.19-.6h-.6l-.59-.6-.6-.6-1.19-.6-1.19-.6-.6-.6h-.6l-.6-.6-.6-.6.6-2.38.6-2.39.6-1.19v-2.98l-.6-2.99v-7.16l.6-1.79-.6.6h-.6l-.6-1.19v-.6l-.6-3.59-.6-.59-.59-1.79.59-.59.6-.6-2.39-2.38.6-1.19.6-1.19.59-.6,1.79-1.79h-1.79l-1.19-2.38-1.79-2.38.6-1.2,2.38-4.18-1.19-1.19-2.98-3.58-.6,1.79h-4.18l-.6-1.2h-1.19.59v-.59l2.39-1.79v-1.79l2.39-3.58v-2.39h-.6l-2.39,1.79-6.57-1.19-.6.6v-1.19l.6-3.58v-1.19l.6-1.19.6-2.39h-7.16v.6l-1.79,2.98-2.99,1.19-3.58,1.19-1.79.6-1.79.6,1.79-.6,4.18-4.18-2.39.59-1.19-.59-2.98-.6h-1.79l-1.79-.59h-.6l-1.19-.6-1.19-.6-1.2-.6-.59-.6-2.38-1.19v-.59l-.6-.6v-.59l-8.36-2.99-4.77-1.19-5.97-3.58h-.59l.59-.6-1.19-.6-.6-.6.6-1.19,1.79-1.79.6-1.2-2.39-1.79h.6l-.6-.6-.6-.6-1.79,1.79-.6.6v1.19l-1.79-.6v-.59l-1.79-1.19-2.39-2.99-3.58,2.99-2.98-1.19-4.18-5.97,1.79-2.99-2.98,1.19-.6.6h-1.19l-1.19.6-.59.6-4.18,1.19-1.79,1.19,1.79,2.99v.6l-4.78-1.19h-.6v-.6h-.59l-.6-1.19-.59-.6-4.18-7.16-2.39,2.99-1.79,1.79-3.58,2.38-.59,2.39v.6l-1.79-1.79-3.58-1.19-5.37,10.15v-.6l-2.99-6.57-3.58,1.79-3.58,4.77-4.18,2.99-2.39,4.18-2.99-2.38v.59l-3.58-2.38,1.79-4.18v-.59l-.59-.6h-.6l-.6.6h-.6l-1.19-1.2h-1.79l-.59-.59-2.99,1.79,1.19,3.58-2.39,2.38-1.79,1.79-1.19,1.79-.6.6-.6-.6-.59-1.19-1.79-.6-1.19-.6v-.59h-.6l.6-.6-1.79-.59-1.19-.6-.59-.6v.6l-.6-.6-1.19-.6v.6l-1.19-.6-2.39-.6-.59-.6v-.6l-.6-.6v-3.58l-.59-.59-.6-.6-1.19,1.19v.6h-.6l-.6.59-.6.6-.59.6-.6.59-.6.6-.59,1.19h.59l-.59.6-1.19.6-2.99,1.79-1.19.59v-2.38l-.6-.6h-1.19v-.6l-.6-.6-.59-.6-1.19-.6v-1.19l-.6-.6v-2.38l-1.19-2.99v-.59l-.6-1.79v-1.19l-1.19-2.99v-.6l.6-3.58v-6.57l-2.39-3.58-1.19-4.77.6-2.39v-1.19l.59-1.79,3.58-15.52,1.19-4.18.6-5.37,1.19-4.18-1.79-2.98-.6-2.39.6-.59,1.19-.6,1.19-1.19,1.79-.6.6-.6v-2.98l1.19-1.79.6-1.19.6-1.19.6-1.19v-.6l-.6-.59v-2.39l-.6-1.19.6-.6-.6-1.19.6-1.19-1.79-1.79-2.39-1.19-1.79-1.19v-1.19h.6v-1.19l.59-.6-1.79-2.38.59-1.19.6-1.19v-.6l1.19-1.19v-.6l.6-.6,1.19-1.19,1.19-1.19.6-.6,1.19-1.79,1.19-.6h2.38v-.6l.6-.59v-.6l-.6-.6v-1.79l1.19-.6.6-.6v-.6l.6-1.19.6-1.19.59-1.19h-.59l.59-1.79v-2.39l.6-.6.6-2.38v-1.79l.59-1.79.6-1.19.59-1.79v-.59l1.79-1.19.6-1.2.6-.59v-.6h.6v-1.19l-.6-.59h-.6l-2.98-2.99-.6-.6-1.19-.6-1.79-1.79-2.39-1.79-1.19-1.19-1.8-1.79-.59-2.98v-.6h-.6l-1.19-1.19h-.6l3.58-2.39,2.38-1.79h1.19l2.99-1.79-.6-.6h.6l-.6-.59-1.79-.6,1.19-1.19.59-.6.6-.6.6-.6-1.2-1.79h-.59l-.6-1.19-2.39-1.79-.6-.6v-.59l-1.19-.6-.59-.6v-.59l.59-.6-.59-.6.59-1.19,1.19-1.2v-.59l1.2-1.19v-.6l.59-.6v-.6l-.59-.6h-.6l-1.19-1.79v-.6l.59-.59v-.6h.6l.6-.6h.59v-1.79l-.59-1.19-1.2,1.19v.6h-.59v.6h-2.39l-1.79-.6-.6-.6-.6-.6h-.6l-1.79.6h-1.79l-2.39.6-2.39.6-.6.59h-.59l-2.39.6h-4.77l-.6.6-.59,1.19h-.6l1.19,2.98-4.77,3.58-1.19.6-.6.59-4.77,2.99h-.6v.6l1.19.59-.6.6-2.39.59v.6l-2.98,1.19-4.77,2.39h-.6l.6.6v.6l1.19,1.79v1.19h.6v.6h-1.19l-.59.6-1.2.59h-.59l-1.19,1.19-1.79,1.19h-.6l-.6.6-.6.6-1.19.59.6-1.19.59-1.19-1.79-.6-.59-3.58-2.39,1.79-1.79.59.6,1.79v1.79h-2.39l-.6.59h-5.96l-.6,1.19-2.99,1.79-1.79-.6h-.6v-.6h-.6l-1.19-.6-1.19-.59-1.79-.6h-.59l-1.19-.59-1.19-.6-2.39-.6v-.59h-.59l-2.39-1.19h-.6l-.6-.6h-.6l-1.19-.59h-1.19l-1.19-.6-.6.6-1.19.59-.6.6-2.39,1.79v.6l-.6.6h-.6l-2.38,1.79-2.39,1.79-.6.6-.6.6-1.19.6-.59.59-2.39.6-1.82-2.19-1.38,2.19-13.15,12.58Z"/>
  <text class="cls-1" text-anchor="middle" alignment-baseline="central">
    <tspan x="255" y="300">Mechernich</tspan></text>
</svg>