<?xml version="1.0" encoding="UTF-8"?>
<svg xmlns="http://www.w3.org/2000/svg" viewBox="0 0 512 512">
  <defs>
    <style>
      .cls-1 {
        fill: #fff;
        font-family: DMSans-Bold, 'DM Sans', sans-serif;
        font-size: 28px;
        font-variation-settings: 'opsz' 14, 'wght' 700;
        font-weight: 700;
      }

      .cls-3 {
        fill: #825e8b;
        stroke: #f2f2f2;
        stroke-linejoin: round;
        stroke-width: 6px;
      }

    </style>
  </defs>
  <path class="cls-3" d="M504.13,383.06l-2.94-11.75-5.87-11-11.74-9.55,18.35-28.63-16.88-16.88h-10.28l2.93-23.03-8.81-5.6,20.56-25.69,11.74-21.29,3.68-20.55-.53-9.43-.76.43-27.53-3.31-3.3,2.2-11.01-10.46v-8.26l-16.87,15.54-15.42,14.19-8.45,4.41h-22.02v-6.05h-10.46l-1.11-4.4,4.4-10.07v-9.75l-15.42-4.4v-14.16l-5.5-2.9-1.11-3.3,6.61-4.96v-6.61l-6.05-1.11v6.06l-11.01-2.49-3.3,6.34h-10.47l-2.75-3.85-17.07,3.85v-19.82l-3.78,3.85h-56.24l-3.85-4.4-7.7-14.86-2.76-15.96-13.77-32.73v-8.93l-43.31-11.01-8.52-3.79-9.09,22.61-23.5,14.95,26.43,22.02-51.39,79.12-13.95-11.58,2.94-9.36-12.48,3.49v-19.92l-24.96,9.1-4.4-9.1h-8.07l-2.93-16.42-23.5-14.73-8.8,4.82-12.77-13.21-17.33,18.36,12.8,13.94-3.99,23.67,3.99,7.16,7.76.73,4.4,9.55,2.94,3.51h5.13l2.2,11.17,5.87,6.61h11.75l8.81,6.61-1.47,13.95-8.81,12.48v8.07h11.01l9.54,7.38,4.4,12.44-5.87,11.75-4.4,4.13-2.2,10.55h8.07l7.34-4.4,3.67,4.4,5.14,8.07-2.94,19.09-16.88,6.61-4.4,8.81-7.34,7.34-3.67,10.28,16.15,5.14,12.49-2.94-6.61,8.07-7.34,11.86h-8.07l10.28,32.92-1.2,8.08-1.73,11.74-15.42,13.22-12.49,8.81c4.07,1.01,15.68.9,25.23.61,7.69-.24,14.04-.61,14.04-.61l15.89-6.01,2.1-.79v7.62l85.16,12.39,16.88-4.4,91.03,4.4,41.11-6.61,15.41-21.33,8.81,24.27,66.07-13.28,3.67-.74,8.81-1.77,32.3-14.31,42.58-31.57v-5.87l-5.87-8.81Z"/>
  <text class="cls-1" text-anchor="middle" alignment-baseline="central">
    <tspan x="260" y="295">Würselen</tspan></text>
</svg>