<?xml version="1.0" encoding="UTF-8"?>
<svg xmlns="http://www.w3.org/2000/svg" viewBox="0 0 512 512">
  <defs>
    <style>

      .cls-1 {
        fill: #fff;
        font-family: DMSans-Bold, 'DM Sans', sans-serif;
        font-size: 28px;
        font-variation-settings: 'opsz' 14, 'wght' 700;
        font-weight: 700;
      }

      .cls-4 {
        fill: #825e8b;
        stroke: #f2f2f2;
        stroke-linejoin: round;
        stroke-width: 6px;
      }

    </style>
  </defs>
  <path class="cls-4" d="M234.1,54.93l-28-18.55-22.98,30.09h-11.97s-11.43,7.07-13.06,10.29-9.25-24.45-9.25-24.45l-4.35-27.21-31.03-4.9h-23.95l-7.07,4.35-4.9-4.35-16.33,122.47,19.05,58.78.98,15.1,1.19,18.1-5.45,22.4-55.52,100.06,18.9,19.75h8.85l11.43,13.99,35.92-25.04,37.01-15.23,38.1-34.19,20.97,34.19,7.33,26.28,17.3,44.47v14.88l-24.63,1.13,13.44,31.89h15.68l12.34,39.77,90.69-28,1.11-1.11v-1.13l-1.11-4.47v-3.36l3.35-2.24v-1.12l2.24-2.24h1.12v-1.11l1.12-2.25v-4.47h-1.12l1.12-1.12v-3.36l1.12-1.12v-3.35l-1.12-1.12v-2.24l1.12-1.12,1.12-1.12v-5.59l-6.72-1.13v-10.08h-1.12l-32.47,5.6-1.12-10.08,3.35-1.12,4.49-1.12h1.11l2.24-1.12,2.23-1.12,1.13-1.12h1.12l1.11-1.12,1.13-1.12-2.24-3.36v-2.23h1.11l-1.11-1.13v-1.11l1.11-1.12,1.13-1.12v-4.48l1.11-5.59,1.12-13.44,15.68-1.12h3.36l20.15-1.13v-1.11,1.11l21.28-1.11,1.12-1.12,4.48,1.12,1.12,2.24v1.12h1.11l7.84-6.72-1.12-5.6,4.48-1.11h1.11v-1.12l-1.11-3.36-3.36,1.12-1.12-6.71,14.56-6.72,2.23,4.47,16.81-12.31,8.95-6.72,8.96-6.72,8.96,13.45,3.36,6.71,3.35,4.48,2.24,5.6,2.24-1.13,5.59-5.59,10.08-11.2,10.08-11.2,4.47-4.48v-1.12l-2.23-1.12-4.48-2.24v-1.11h-1.12l-1.11-1.13-1.13-1.12v-1.11h-1.12l-1.11-2.24-3.36-3.36-2.24-3.36-2.24-3.35-2.23-4.49-2.25-2.23-2.24-4.48-1.11-2.23-3.36-6.72v1.12l-2.24,2.24-2.24,3.36-8.95,8.95-11.21-17.91h-1.11l-4.48-12.32,10.08-3.36,5.58-2.23h1.13l2.23-1.13v-2.24h1.13l1.11-1.11,3.36-1.12h2.24l2.24-1.12h2.24l2.24-1.12,2.23-1.12h2.24l-2.24-19.03h-32.47l-5.6-20.16v-5.6h-1.12v-1.11l-10.08,1.11h-8.95v-3.35l-1.13-7.83,4.49-5.6,1.11-1.12v-1.12h-1.11l-5.6-5.6-2.24-3.36-7.84-7.83,5.6-1.12-3.35-10.08,2.23-1.12h1.12l-2.24-5.59v-2.24h3.36v-1.12l-2.24-5.6h1.12v-2.24l-2.24-7.84v-42.55l-6.71,1.12-2.24,1.12h-3.36l-2.23,1.12-12.33,2.23v-4.47l-2.24-11.2v-3.36l-1.11,1.12h-2.25l-1.11,1.12h-2.24l-4.48,2.24-7.84,2.24-14.55,4.47-1.12-6.71-6.72,1.11-15.67,3.36-8.96,1.13-8.95,2.23-3.36,1.12v-24.63l1.12-1.12,1.12-1.12,4.47-3.36v-2.23l1.12-2.24v-2.25l1.12-4.47,1.12-1.11,1.13-7.84,1.11-5.59,1.12-2.25v-2.24l1.12-1.11,1.12-1.12,3.36-2.24v-1.12l3.35-2.24,2.24-3.35,2.24-1.13,1.12-1.12,1.12-1.11,1.11-1.13v-2.05l-62.71-13.48-23.51,51.93Z"/>
  <text class="cls-1" text-anchor="middle" alignment-baseline="central">
    <tspan class="cls-2" x="240" y="200">Korschenbroich</tspan>
  </text>
</svg>