<?xml version="1.0" encoding="UTF-8"?>
<svg xmlns="http://www.w3.org/2000/svg" viewBox="0 0 512 512">
  <defs>
    <style>

      .cls-2 {
        fill: #fff;
        font-family: DMSans-Bold, 'DM Sans', sans-serif;
        font-size: 28px;
        font-variation-settings: 'opsz' 14, 'wght' 700;
        font-weight: 700;
      }

      .cls-8 {
        fill: #60acb5;
        stroke: #f2f2f2;
        stroke-linejoin: round;
        stroke-width: 6px;
      }

    </style>
  </defs>
  <path class="cls-8" d="M334.07,463.26l8.12-9.74.82-5.69-11.85-5.27-8.04-4.87-5.68-4.87,2.03-5.86,14.61-9.56,16.19-23.62,29.12-41.51v-3.65l-5.01-8.38s.24-5.99.33-10.22c.04-1.83.04-3.34-.02-3.87-.18-1.77-.31-11.01-.31-11.01l-11.07-3.05-1.22-7.31h-7.31l-4.51-4.26s8.17-6.09,9.38-7.57-37.75-29.57-37.75-29.57l-6.4-6.69s-2.73-8.52-2.73-10.35,7.31,7.92,7.31,7.92l5.71,5.51,5.38-6.12-5.38-4.87h10.73l3.04-3.04h3.65l3.65,3.04,10.96-10.96,6.09-9.13,2.44-27.16,3.54-2.5-6.99-.78-2.03-5.49h8.5v-7.9l-1.69-3.25-14.53-28v-6.09l16.21-13.39-12.56-12.18-3.65,3.81-6.49-2.99-5.28-6.09v-9.08l8.88-15.66,2.08-4.08-2.08-5.28v-10.55l-12.94-4.06-6.16-9.23,2.51-10.66v-8.42l-2.51-11.06v-3.04h-1.25v-.63h-.63v-.62l.63-.63h.63l-.63-1.25,1.25-.62v-.63h-.63v-2.5l.63-4.39v-.63h-1.25v-2.5h.63v-.63h.63v-5.64h-.63v-1.25l-.63-.63h-3.13l-1.25.63h-.63l-.62.62h-.63v.63h-.62l-.63.63v.62l-.63.63h-.62l-.63.63-.63,1.25h-.63v.63h-3.13v.63l-.62.63v1.87l-.63.63v.63h-1.25l-.63.63h-.63l-1.88.63-1.25.63h-.63l-.62.63-.63.63h-.63v1.25h-3.13v.63l-.63.62v.63l-.62-.63v-.62h-.63l-.63.62h-.62v.63l-.63.62v.63h-1.88v.63h-.62v.62h-.63v.63h-.63v.63h-.63v-.63h-.62v.63h-3.13v.63h-.63v-.63h-.63l-.63.63h-2.5l-.63-.63h-.63l-.63.63h-.63l-.62.62h-.63l-1.25.63v.63l-.63-.63h-4.39l-1.88,1.25-.63-.62-1.25,1.25v.62h-.63l-.63.63h-.63v.63l-1.25,1.25-2.5,1.25-2.51,1.87-2.51,1.26-.62.62h-.63l-1.25.63-1.88.63-.63-1.25-.63-.62-4.38,1.87-1.25.63-.63.63-.63.63h-.63l-.63.63h-7.51v1.25l-.63.62-.63,3.13-1.25,3.76-.62,3.13-.63,1.88-.63,1.25-.62,1.87v1.25l-3.13,8.77,1.88,1.88,1.25.63,1.25,1.88,1.25,1.25-5.01,12.53,1.25,5.01.63.63.63,2.5.62,2.51.63,1.25.63,3.13v.62h.62l.63.63,1.88.62,1.25.63,5.01,2.51,5.63,3.13-1.87,1.25-3.76,3.13,1.88,3.76.63,1.87.63,4.38v7.52l.63.63h.62v.62l.63,1.25,1.88,2.51v.63l.62.63h-.62v1.25l-.63.63-.63,1.25-.62.62-1.88.63v.63h-.63l-.63.62-1.25.63v.63l-1.25,1.25-1.88,2.51-.63.62v.63h.63l2.5,1.25,1.25,1.25,1.25.63-.63.63-.63,1.25-.63,1.26-.63,1.25,3.13,2.5-.63.63-.63.63h-.63v.63h-.63v.62h-.63l-.62.63-2.51,1.88-1.87,1.25-1.25.63-3.13,2.51-1.88,1.25-2.51,1.25-1.88,1.88-1.25,1.25-3.13,2.51-.63,1.25-.63.63-.63.62-1.25,1.88-.63.63-.62,1.25-1.25,1.88-.63,1.25-1.88,2.5-1.25,1.25v.63h-.62l-1.26,2.5h-.62l-.63,1.25-.62.63-.63.63-2.5,1.25-.63.63-1.25,1.25h-.63l-1.25.63-1.88,1.25-2.51.62-1.25.63-2.5,1.25-2.51-2.5-4.38-4.39-1.25-1.25-1.25-.63-1.25-1.25-3.75-3.13-2.51-1.88-1.25-1.25-1.25-.62-1.88-1.25-.62-.63-1.26-1.25-.62-.63-.63-.63-1.25-1.88-.63-.63-.63-.62-.63-.63-1.25-.62v-.63l-1.25-.63-1.88-1.25-4.38-3.13-1.25-.63-1.25-1.25-1.25-1.25h-1.88l-1.25.62-1.88,1.88h-.62l-1.26,1.25-1.25,1.25-.62.63-1.25.63h-.63l.63.63-1.25,1.25-.63.63v.62l-1.25,1.25v1.25l-.63.63v4.38l-.62.63v.62l-1.26.63-.62.63-.63,1.25-1.87-1.25-1.88,2.51-.63,1.87v.63l-.62.63-.63.62-.63.63-.62,1.25-.63,1.25v3.13l-.62,1.25v3.13l-.63,1.88-.63,2.5v1.88l-.63,1.88v.63h1.25v.62h.63l.62.63v.63h.63l.62.62v.63h.63v.62l.63.63h1.25v-.63h.63v.63l.63.63v.63h1.88v1.25h.62v1.88h1.25v1.88h3.13v.62h.63v-.62h3.13v.62h.62v.63h1.88v.63l.63-.63v-.63.63h1.87v.63h-.63v.63h.63v.63h.63l.63.63v1.25h1.88l.63.63v-.63h.62l.63-.62h1.88l.63.62.63.63.63.62h.63v.63l.63.63h.63v.62h.63v.63l1.88,1.88,1.88,1.88h.63l1.25,1.25,1.25,1.25.63.63,2.5,2.51h.63l.62.63v.62h1.25v.63h.63l-.63,4.38v5.63h.63v.63h1.88v1.25l1.25.62h.62v-.62h1.26v-.63h.62v.63h.63v.62h.63l-.63.63h.63l.63.63v1.25h.63v1.25h.63v.62h.63v.63h.63v.63h.63v.63h.62v.63l.63.63h.63v.63h.63v1.25h1.25v.63h2.5v.62h1.26v.63h1.25v.62h1.25l.63.63v1.25h.62v.63h.63v1.87h1.25v.63h-.63v1.25h1.25l.63.63v.62h1.25v.63h.63v.63h1.25l.63.63h.63v.63h.63v1.25h.63v.62h1.25v.63h.63v.62h.62v-.62h1.26v.62h.62v-.62h.63v.62h1.25v.63h1.25v.63h.63v1.25h2.51v.63l.63.63.62.63h.63v.63h1.25l.63.63h.63v.63l.63-.63.63.63v-.63l.63.63v.63h.62v1.25l.63.62.63.63,1.25.63v-.63h.62v1.25h.63l.63.63h.63l.63.63h.63v.63l.63.62h-.63v1.26h1.25v.62h1.25l1.26.63v.62h.62v-.62h1.25v.62h3.13v.63h.63v.63h.62l.63.63h2.5v1.25h.63l.63.63v.62h.63v2.51h1.25v.62h.63v2.51l-1.25.63h-.63v.63h-.63v.63h-.63v.63l-.63.62-1.25,2.51-1.88,2.5v.63h-.62v.63l-.63.63v.62l-.63.63-.63,1.25-.63.63-.63.62v.63l-.63.63v1.25l-.62.63v.63h-.63l-1.25,3.13v.63l-1.25,3.13-.63.62-.63.63v.63l-.63.62h-.63v.63l-.63.62-.63.63-1.25,1.25v.63l-1.25.63-.62.63-.63,1.87-.63,1.88v3.13l.63.63v6.26l.63,1.25v2.51l.62.62v3.76l.63,2.5v.63l.62.62v2.51l.63,1.25v3.13l.63,1.87v3.76l.63.62v1.88h.63l.63.63,5.63,3.75,2.51,1.88,1.25.62,1.88,1.88,1.25.63.62.63,3.13,2.51-1.25,1.25-.63,1.87-1.25,3.13-.62,1.25h.62l.63.63,1.25-1.88.63-1.88,2.51-3.13,3.75,2.5,1.25.63,2.51,1.88.62.63,1.26,1.25h.62l.63.63,1.25.62,1.25.63,1.25,1.25.63.63,1.25.63,2.5,1.88.63.62,1.25.63h.63l.63.62.63.63,1.25.63-1.88,6.88-.63,4.39v.62l.63,1.88,1.25,3.13.63,1.88-1.88,8.14-.63.63-.63,1.88-5.63,5.63-1.88,2.5-5.63,6.27,1.25,1.88v.63l.63.63v.63l-.63,1.88v.62h-.63l-.62.63-.63.63-1.88,1.25v2.51l.63.63v.63l.63.63v.62l1.25.63-.63,1.25v4.39l-.63.63-.63.62-.63.63v1.25h-.63v3.13h.63l.63-.63h.63l1.25,1.88h-.63v1.25h-.63l.63.63h-.63l2.51,1.87.63.63h.62v.63h1.25l.63-.63h2.51l-1.25,2.51v.63l-.63,1.88v1.87l-.63.63v6.89l-.63,2.5v.63h.63l.63.63v.63h.63v.63l.63.62.63.63,2.5,2.51,1.26.63h3.13l.63-.63.63-1.88.62-3.76.63-3.13.62-2.5.63-1.88.63-1.25v-3.75l.62-.63v-1.25l.63-3.13.63-.63v-.63h.63v-2.5l.63-.63.63-.63v-2.5l.63-1.25v-1.88l.62-1.88h.63l.62.63,1.25.63,1.26.62,1.25.63.63.62.63.63.63.63v.62h.63v.63h1.25v.63l.63.63.62.62.63.63.63.63.62.62h1.25l2.51.63.62.62,1.25.63h.63v.63h.63l1.25.63h1.88l.63.63,1.25.62h.63l.62.63h1.25l2.51,1.25,1.88.62h1.26l1.07.54,4.52-12.03,12.99-14.2Z"/>
  <text class="cls-2" text-anchor="middle" alignment-baseline="central">
    <tspan x="286" y="220">Aachen-</tspan>
    <tspan x="256" y="262">West/</tspan>
    <tspan x="303" y="326">Nord-</tspan>
    <tspan x="303" y="362">west</tspan>
  </text>
</svg>