<?xml version="1.0" encoding="UTF-8"?>
<svg xmlns="http://www.w3.org/2000/svg" viewBox="0 0 512 512">
  <defs>
    <style>

      .cls-2 {
        fill: #fff;
        font-family: DMSans-Bold, 'DM Sans', sans-serif;
        font-size: 28px;
        font-variation-settings: 'opsz' 14, 'wght' 700;
        font-weight: 700;
      }

      .cls-10 {
        fill: #5992c7;
        stroke: #f2f2f2;
        stroke-linejoin: round;
        stroke-width: 6px;
      }
    </style>
  </defs>
  <path class="cls-10" d="M448.05,219.36h-5.93l-4.11-1.6.23-9.57,6.16-1.37.91-2.05s-6.38-2.51-6.61-3.19c-.23-.68-10.72-12.54-10.72-12.54l1.87-9.57-1.41-5.7-9.35-11.63.23-4.79,16.65-7.3-17.33-19.38-3.19-4.11v-5.93l6.16-2.28,10.72-5.47,11.86-11.17-4.56-7.53s28.27-16.87,29.87-17.78c1.6-.91-9.35-18.92-9.35-18.92l4.1-2.28-.68-2.51,5.93-2.05-6.84-6.38-7.98,5.24-13.22-25.53,1.82-3.65,6.38-2.97,5.01-5.93-17.61-8.43-5.95,7.35-14.89,9.52,4.26,15.34-3.04,2.59-7,2.74v3.65l-6.08.31-2.13,5.77v12.47h-26.14v2.13l-8.82-.3-6.69.3-3.04,2.74v4.87h-3.04v-3.35h-3.65v3.65l-11.55,2.43v4.26l-8.21,5.95-6.99,14.12-10.34,11.22-6.38-7.87h-3.95l-7.6-17.46-12.16-7.16-2.43,4.87-6.69-1.52-6.38-5.17,6.38-5.77-6.38-7.9-2.74,2.13-8.2-6.08-4.26,6.08-3.65-2.13v-4.56l-1.52-4.87-1.82-6.69-10.94-3.04-3.95-3.65-1.82-4.72,1.82-4.7v-7.3l-1.67-4.4h-8.76l.4,2.27-15.51,10.34-7.3,6.08-8.2-2.29-16.72,12.33-4.56-1.52-6.69,7.3,3.65,6.76v2.66h-10.94l-1.82-2.66-2.12-1.98-6.7,9.5-6.38-3.65-7.3-1.21-4.88-2.66-7.58,2.66-6.69,2.73,3.34,12.16-1.82,4.26-4.26,3.51-3.65,2.26v3.65l-5.17,8.82-6.08,4.26-1.82,3.34-6.69,3.01-7.3,20.71v9.42l-3.65,7.9-3.65,1.82v3.04l-13.38,18.85,2.43,3.34-3.34,6.08-3.34,10.94.31,2.43-5.47,12.16,5.17,3.21,5.47,4.09-1.5,9.33-2.75,17.12-44.08,9.43-4.5,1.12.24,1.75-2.3,11.42v11.25l5.04,10.02,15.81,9.74,3.95,13.25,10.34-7.37,12.16,1.72,3.04,5.65,6.99-3.82,8.82,6.17,2.13,6.29v12.77l1.82,5.8,8.51-2.45,6.08,2.45-3.95,13.96,3.95,1.52,3.34-4.56,9.73-3.04,2.43-4.56,9.73-3.32v-2.15l8.21-4.56,7.9-8.21,5.78,8.82,1.82-1.52,4.56-9.42,20.67-14.9,3.64,11.63-6.38,9.66,4.86,19.76,8.21-.31,6.08,11.86-5.77,7.9-.61,8.51,12.46,1.82-2.13-8.21,2.13-11.25,10.34,14.89,13.68-.3,10.64,2.74v6.38s-8.21,2.13-7.9,3.04c.3.91,6.38,20.67,6.38,20.67l-1.82,11.55-7.9,3.34-9.73-14.59-6.08-1.52-6.08,1.22,4.26,11.25,3.34,3.65.31,7.91-9.43,2.73-12.77-2.13-4.87,2.13-.61,7.99,3.34,4.78,10.54-4.78,7.4,1.44,4.26,9.42-.3,6.69-3.65,5.47-6.38,2.31-5.47,3.47-1.22,7.9,2.36,2.81,3.01,3.58,7.4-7.9,4.56-.3,7.9,8.2,7.9-3.34,3.95,3.34,4.56,7.11,2.74,5.96h1.82v-7.3l5.47-7.9v-6.99l.27-1.17,2.46-10.38,4.86-13.98,3.95-.91,3.04,4.56,35.87,3.04,25.54,8.2,18.85,9.12,32.83,30.7,17.33-3.04,9.12-6.38,4.26,5.47,2.29-2.74,1.96,6.69h12.46v.03s2.13,5.75,2.13,5.75l11.25,3.35,31.07-22.08,2.06,9.61.49.35,3.77,2.69v4.23l5.17,2.46,6.08-2.46-5.78-10.92,16.72-1.52-9.42-19.46,7.6-6.08,13.07-23.71-10.03-10.64,7.9-7.29,2.13-6.69,12.16-8.21-1.22-3.95,10.34-9.88,1.09-1.72-.91-1.1-2.82-3.75-2.35-2.82,5.63-4.22-4.69-4.22,1.41-1.88-2.82-2.34-2.34-1.41-.47-.47-.47-1.41v-1.41l-.47-.47v-.94l.47-.47.47-.94.47-.47.93-.47v-.47l1.41-2.35-.94-.47v-.47h-.47l1.41-.94-3.28-2.35h-.47l.47-.47-.47-.47-.47-.94-1.4-1.88-1.88-2.35-.94-1.4-.47-.47-1.41-.94-.47-.47-.94-.94-1.87-1.4-2.35-1.88v1.41l-.47-.47.47-1.87v-2.35h-2.81l-2.82.47-4.69-1.87-.93-.47h-.94l-1.41-.47v-.47h-1.41l-.47-.47-1.41-.47-1.87-.47-.94-.47h-.47l-3.75.47h-2.82l-5.16.47.47-1.41v-.93h-6.1v.47h-.47l-3.28-2.34v.47l-.47.47h-.47l-2.35-.47h-1.87l-2.82,1.41-.47.47-1.41,1.41-.47.47-1.4.94-.94.94h-.47l-1.41-1.41-.94.93h-.47l-2.35-1.87-.47,1.41v.94h-.47v1.41l-1.4,1.4h-.47l-.47,2.82v.47l-.94,2.35-.47.47h-1.41l-1.87,1.88-.94.93h-.47l-.94,1.41-1.41,1.41-1.41,1.41-.94.47-1.87.47h-.47l-1.87.47h-.47l-1.88.94-4.22-1.87-.93-.47h-.47l-.47.47-.47.47-.47-.94-.47-.47-.94-.47-1.41-.47v-.47h-.94l-.47-.47h-.47l-.47-.47h-.47l-1.41-.47.47-1.4v-1.41h-2.81l-1.87-.47-1.88-.47h-2.35l-.94-.47h-7.03l-.94.47-1.41-.47h-1.41v-3.29l-.47-.47.94-.47-.47-1.41h-.93l-.47-.47-.47-1.41-.47-.93-.47-.47-.47-.93-.47-.47v-.93h-.47l.94-.94h-.47v-.94l-1.4-.93h-.47l-.47-.47v-.47l-.47-.94-.47-.47.47-1.4v-1.88l3.28.47h1.41l.94-.47h.93l.47-.47h.47l.94-.47,1.41-.94v-.47l.93-.47h.47l2.34-.47v-.47h.94l.94-.47h1.87l.47-.47h.47l.47-.47.47-.47.47-.47.47-.47.47-.47v-.47l.47-.47,1.41-.94.94-.94.47-.47v-.47l.47-.94.47.47h3.28v-.47l.47-3.28.47-2.35,36.12-20.17,1.88-.94,2.82-.93.93-.47,3.29.94,7.97,1.87,1.88-.47,4.69-.94h1.41l-.93-6.09v-1.41l-.47-1.41-.47-.47-.47-.94h-1.87v-1.88l.47-.93-.47-.47-.47-.47-.47-1.87h-2.34l2.81-6.1v-.47l.47-2.82v-2.35l.94-2.34.93-2.34-3.75.47h-2.81l1.87-5.16h1.88v-.47l2.34-8.91v-.94l.94-1.4-2.82-2.35.94-1.88h.47l3.75.94h.94l1.88.47.47-1.88.47-2.34.47-2.82.17-.17-13.54-4.43,1.68-6.84Z"/>
  <text class="cls-2" text-anchor="middle" alignment-baseline="central">
    <tspan x="256" y="226">Kreuzau/Hürtgenwald</tspan>
    <tspan x="256" y="262">Heimbach/Nideggen</tspan>
  </text>
</svg>