<?xml version="1.0" encoding="UTF-8"?>
<svg xmlns="http://www.w3.org/2000/svg" viewBox="0 0 512 512">
  <defs>
    <style>

      .cls-2 {
        fill: #fff;
        font-family: DMSans-Bold, 'DM Sans', sans-serif;
        font-size: 28px;
        font-variation-settings: 'opsz' 14, 'wght' 700;
        font-weight: 700;
      }

      .cls-4 {
        fill: #89abd6;
        stroke: #f2f2f2;
        stroke-linejoin: round;
        stroke-width: 6px;
      }
    </style>
  </defs>
  <path class="cls-4" d="M443.87,121.61l-8.48-9.54-10.47,16.19-24.86.87v8.67l-30.35-.58-13.59,5.06h-7.52v-5.35l-26.89-.29-2.6,4.34-15.61-4.05v20.24l-9.64,7.52v-2.89l-9.44,1.46,1.16,18.2-39.89,5.88-25.73,2.5-36.14-8.96-1.15-23.36c-.2-.02-.4-.04-.61-.05h-5.46c-.13,0-.22-.2-.29-.53-4.21-.38-7.83-.7-8.09-.7-.65,0,0,2.38,0,2.38l-8.24.87,4.12,17.13-3.04.44-3.25,4.34,3.25,1.08s-1.52,9.32-2.17,9.76c-.65.43-12.58-.65-13.23-.65s2.6,11.71,2.6,11.71c0,0-6.72-4.99-8.67-4.77-1.95.21,0,6.94,0,6.94l-6.72,3.04,3.04,18.86-6.72-1.73-11.93,6.94-4.99-8.46-20.16,18.21-5.42,8.67-9.33-2.82-.35-.23-2.04,3.05-6.5-2.38-10.19,15.83-18,13.44-10.84,6.51v4.12l-7.59,4.77-4.12-1.52-11.49,7.37,2.38,3.47-1.3,6.29-4.34,5.85,3.25,5.85h5.2l5.37,13.89.92,2.37-9.11,1.72-4.78,5.66,2.18,3.03,9.32,13.87h18l9.94,3.31,7.62,2.54s2.6,7.16,2.82,7.81c.2.61,5.58,9.27,6.22,10.3.04.07.07.11.07.11l5.42-1.52,4.55,3.47,10.19-7.16,3.25,5.42,9.76-5.2,1.73,1.52s8.02-2.83,8.89-3.91c.87-1.07,8.67.45,8.67.45,0,0,.65-3.69,1.3-3.04.65.65,9.75,8.67,9.75,8.67l4.34-5.63,2.38-3.26,3.04-2.38-6.94-2.82,2.6-3.47h19.51v-10.84l23.2-14.53,3.9,4.12,13.88-8.02,3.03.21,4.63-4.99,4.05.65,4.99,9.11,3.04-1.09,3.47,5.85,9.11-7.37v6.94l9.11-3.9v-6.07l7.59-2.82,2.17,1.08.99-2.6,18.52-9.76,3.68,6.07,11.93-10.41,1.95,3.69,2.38-2.6v-3.47s-1.3-3.25,0-2.82c1.3.44,4.12,2.6,4.12,2.6l20.38-34.26,13.01,9.76-5.2,8.46,9.32,7.11h4.77l-1.3,5.47s8.24.65,8.24,1.3v5.2l5.42.21v-2.38l4.77-.22v-7.59l23.85-2v3.73l6.72.87v-3.25l5.64-2.82,7.59-6.94,2.6,1.08,3.47-4.72h5.64l-3.25,9.92,18.07,18.65,2.09,14.26,6.07-2.11,9.11,64.83,13.44-8.46-2.82-9.11s13.23-4.35,14.1-4.56c.86-.21,10.24-.86,10.24-.86l7.58-3.47-5.04-11.71s9.98,4.99,10.19,4.12c.21-.87,0-9.05,0-9.05l3.03-.57,1.18-4.33,4.01-6.69v-.45l.45.45v-.45l.44.45.45-3.12h.45l-.45-.89v-.45l-.45-.45-1.34-.89-.44-.45-1.34-.45h-.89l-.45-.44h-.89l-.45-.45h-.45l-.44-.44h-.45l-.89.44h-.45l-.44-.44h-1.79l-.89.44h-2.23l-.44-.44-.89-6.69v-.45l-.45-1.79h1.78l.45-.44h2.67v-.45h4.91l-.45-5.35h-.89l-.45-2.67v-2.23l14.28-1.79v-2.23l-.45-.45.45-.44-.89-3.57,3.12-.45,7.13-.89,4.91-.44-1.34-14.72-7.14,2.23-2.23-7.14-1.34-12.93-.89-.45h-.9l-6.69,2.23h-.89l-5.36-1.78-5.35-1.34h-10.71l-.45-.89-.45-8.92-1.34-10.26-.45-1.78-1.78-5.35-5.8,1.34-.45-11.6h-5.8l-1.79-11.15-.89-4.91-3.12.45-.89-10.71,5.35-.89-.89-7.58,9.37-.89-2.68-4.46-1.34-5.8-3.12-5.36,6.69-4.01-1.34-2.23-1.79-2.68-1.34.89-1.34-1.79-1.34-1.78-.89-1.34h-.45l-5.8,3.57h-.45l-2.23.89-3.57,1.34v-11.6l-.45-.45v-.45l5.35-.89.45,1.78,8.92-2.23-.45-.89,4.46-1.34,1.34,1.78,1.34-.44h.44l.45-.45,3.12-.89h.45l.45-.45h.45l.89-.44h.44l.45-.45.45-.45h.44l.45-.45.45-.44.45-.45.45-.44h.45v-.45l.45-.45v-.44l.89-.89v-.45h.44l3.12-3.12,1.34-.45.45-.89,2.23-1.34.44-.45.45-.45.45-.45h.45l.45-.45h.45l.89-.44.45-.45h.44v-.44l1.34-3.57.19-.52-32.56-22.4-5.54,2.25Z"/>
  <text class="cls-2" text-anchor="middle" alignment-baseline="central">
    <tspan x="276" y="246">Linnich/Titz</tspan>
  </text>
</svg>