<?xml version="1.0" encoding="UTF-8"?>
<svg xmlns="http://www.w3.org/2000/svg" viewBox="0 0 512 512">
  <defs>
    <style>
      .cls-1 {
        fill: #fff;
        font-family: DMSans-Bold, 'DM Sans', sans-serif;
        font-size: 28px;
        font-variation-settings: 'opsz' 14, 'wght' 700;
        font-weight: 700;
      }

      .cls-2 {
        fill: #825e8b;
        stroke: #f2f2f2;
        stroke-linejoin: round;
        stroke-width: 6px;
      }
    </style>
  </defs>
  <path class="cls-2" d="M292.73,52.62l-7.35,5.67,4.33,7.09-8.51,4.57v4.13l-90,4.76,28.48,82.06-62.93,3,3.67,16.76-2.76,5.05-3.58,4.14-7.45-3.67v-6.44l-19.3-17.91-31.69,21.13,2.3,5.05-6.43,6.89,4.13,6.57h-13.32l-2.3-12.54-4.59-4.14-8.27,9.19-5.97,10.56h-3.52l-1.8,2.56-2.02,2.87,3.82,5.13-11.18,17.92h4.6l-.92,9.65,7.5,7,10.88,27.65h16.08l-1.38,38.27,9.65-3.55-2.3,10.1-3.22,10.57-5.51,4.13,4.6,5.05-12.87,25.27s-10.56-2.3-9.19,0c1.38,2.3,5.28,10.57,5.28,10.57v13.7l10.33-3.14,4.6,12.87,17.46-4.6,13.25,1.38v6.6l16.15,6.72,6.89-4.14,12.4,13.32-5.04,5.18-45.03,46.27,2.16,1.49,51.74,35.6,2.54-6.97,2.84-7.8,2.83-7.09,2.13-7.09,1.42-3.55,4.25-4.25,5.67-5.67,1.41-1.41,6.38-7.09,2.12-2.13,6.38-4.25,8.51-4.96,7.8-4.26,7.09-4.25,7.8-4.97,8.51-4.96,11.34-6.38,13.47-8.51.7.71,1.42,1.42.7.7.71.71.71.71-1.42,1.42.71.71,2.13.71.71.71,2.13,1.41.7.71h.71v-.71l.72-1.41.7-.71,1.42-2.84h1.42l1.42.71,1.42.71h1.42l.7-4.96v-4.96l.71-2.84v-3.54l.72-2.13v-5.67l.7-2.13v-.71l1.42-3.54v-.72l.71-2.83.71-2.13v-1.42h.71v-.7l.71-2.84v-1.42l2.12-2.13.71-.71,2.84-2.83.71-1.42,2.13-2.12,4.97-3.54h2.12l2.13-1.42.71-.71v-2.13l.7-.71v-6.38l-.7-2.13.7-1.42v-2.12l.72-.72v-7.08l-.72-.72v-.7h-.7v-.71h.7v-2.84l-.7-.71v-.7l-.71-.71-.71-.71-1.42-2.83h-1.42l-.7-.71-.72-.71h-1.41l-.71-.71-.7.71-.72-.71h-.7l-.71-.71-1.42-.71-.71-.71h-.71l-.71-.71-3.55-1.41h-.7l-.71-.72h-2.13v-4.25h-.71l-.71-.71-1.42-.71-4.96-1.41v-1.42l-.71-.71-.71-1.42-1.41-2.13-2.84-4.96-3.54-4.26,12.76-5.67,6.38-7.09h2.13l3.54-.7h4.25l2.84-.71,2.84-.71,2.13-1.42,2.12-2.12,2.84-1.42,3.54-2.84,4.26-4.97.72.72,4.96-4.97,2.12-2.84h.72v-1.42l1.41-1.42.72-1.41.7-2.84,1.42-3.54v-.72l.71-.7v-1.42l.7-1.42h9.22l2.13-.71,1.41-.71v-2.84l4.97-1.41,1.42-7.8.71-2.84h.7l1.42-.71h.71l2.13-.71h1.42l7.09-2.13,6.38-2.12,2.84-.71,2.83-.71v-.71h-.7l-.71-1.42-.71-.71-.71-.7-1.42-2.13h-.71v-.71h-.71l.71-.7,2.84-.72,2.12-1.41,2.84-1.42.7-.71,3.55-1.42,2.13-1.42.71-.71.7-1.42.72-.7.7-1.42,1.42-1.42v-2.12l.71-.72v-1.41l.71-2.13v-.71l.71-.71v-.71l.71-1.42v-.71l.7-.71v-1.42l.71-.7v-2.84l1.41.71,2.13.71h.71l6.38-1.42h.7v-.71l.72-.71,3.54-3.55h4.25v-.7l2.13-3.55,1.42-1.41v-.72l.71-.7,1.42-2.84,2.83-5.67.72-.72,2.12-3.54v-.71h-.71l-.71-2.13-.7-.71-2.13-2.83v-.72l.7-.7v-1.42l-2.12-4.96-1.42-3.55v-.71h.71l1.41-1.42h.72v-.7h.7v-.72l1.42-3.54,2.12-5.67.71-1.42v-1.41l4.25-12.05,1.42-2.84-1.42-2.83-2.12-3.55-2.84-4.96-2.12-3.55v-.7l-.72-2.84v-4.25l-.71-1.42v-4.97h.71v-1.41l1.42-2.84,1.42-.7,12.05-8.51,8.51,2.83h2.13l6.38,1.42h1.42l12.76,2.83.7-.7v-2.83l.71-1.42v-7.8h-.71l.71-1.42v-2.13l-19.84-7.08h-.71l-5.67-1.42,1.41-7.79,2.84-7.8,2.13-6.38v-3.55l-4.26-.71h-.72l-12.76-.71-3.54,1.42v-.71h-1.42l-2.84.71h-.71l-2.13.7h-.7l-3.55,1.42h-.71v-.7l-.71-4.26-1.41-10.63-2.13-4.96-.72-2.13-1.41-4.96-.71-1.42-.71-1.42v.71l-2.83,2.84-6.38,6.38-12.05,13.47-.72.7-7.09,7.8-4.25,4.25-6.38,7.09-2.13,2.84-2.84,2.83h-.71v.71l2.83,1.42,1.42.71v.71l-.71,1.41-4.26,4.97v.71l-.71.71-.71.71v.71h-.7l-.72.7-.7,1.42-4.26,3.55-1.42,1.42-.71.71h-.71v.71h-.71l-.7.71h-.71v.71h-.71l-.71.7h-1.42l-.71.72h-1.42l-.71.7h-1.42l-2.12,1.42h-.71l-1.42.7-4.26-4.25-1.42-2.13-.7-.71-.71-1.42h-.72l-5.66-4.97h-.72l-1.41-1.41-.71-.71-.71-.71-1.42-.71-.71-1.42-2.84-2.12-5.48-4.93-10.11,4.93-4.07-5.67Z"/>
  <text class="cls-1" text-anchor="middle" alignment-baseline="central"><tspan x="200" y="256">Jüchen</tspan></text>
</svg>