<?xml version="1.0" encoding="UTF-8"?>
<svg xmlns="http://www.w3.org/2000/svg" viewBox="0 0 512 512">
  <defs>
    <style>
      .cls-1 {
        fill: #5992c7;
      }

      .cls-1, .cls-2, .cls-3, .cls-4 {
        stroke: #fff;
        stroke-linejoin: round;
        stroke-width: 2px;
      }

      .cls-2 {
        fill: #89abd6;
      }

      .cls-3 {
        fill: #007bb8;
      }

      .cls-12 {
        fill: #fff;
        font-family: DMSans-Bold, 'DM Sans', sans-serif;
        font-size: 14px;
        font-variation-settings: 'opsz' 14, 'wght' 700;
        font-weight: 700;
      }

      .cls-4 {
        fill: #bad6da;
      }

    </style>
  </defs>
  <path class="cls-1" d="M308.16,390.67h-2.45l-1.7-.66h0s0,0,0,0l.09-3.96h0s1.1-.24,1.1-.24l1.45-.32.38-.85s-1.49-.58-2.27-1c-.26-.14-.44-.25-.47-.33-.09-.28-4.43-5.19-4.43-5.19l.77-3.96-.49-1.97-.1-.39-3.87-4.81.07-1.42.03-.56h0s6.89-3.02,6.89-3.02l-7.17-8.02-.49-.63-.83-1.07v-2.45l1.36-.5,1.19-.44,4.43-2.26,1.86-1.75,3.05-2.87-1.89-3.11h0s11.7-6.98,12.36-7.36c.05-.03.06-.12.05-.23-.1-1.31-3.92-7.59-3.92-7.59h0s0,0,0,0l.34-.19,1.35-.75-.28-1.04h0s0,0,0,0l.99-.34,1.46-.51-2.83-2.64-3.3,2.17h0s0,0,0,0l-.61-1.17-4.86-9.39.75-1.51,2.18-1.01.46-.22,2.08-2.45-4.45-2.13-2.83-1.35h0s0,0,0,0h0s-.82,1.01-.82,1.01l-1.64,2.03-4.35,2.78-1.81,1.16,1.76,6.35h0s0,0,0,0l-1.26,1.07-2.89,1.13v1.51h0s-2.52.13-2.52.13l-.88,2.39v3.95h0v1.2h0s-1.38,0-1.38,0h-9.43v.88h0s-1.14-.04-1.14-.04l-2.51-.09-1.9.09-.86.04-1.26,1.13v2.01h0s-1.26,0-1.26,0h0v-1.38h-1.51v1.51h0s-1.49.31-1.49.31l-3.29.69v1.76h0s-3.4,2.46-3.4,2.46l-2.89,5.84-4.28,4.64-.43-.53-2.21-2.72h-1.63l-2.22-5.1-.93-2.12-5.03-2.96-.31.63-.69,1.38-1.88-.43-.89-.2-2.64-2.14h0s0,0,0,0l.78-.71,1.86-1.68-2.64-3.27-.78.6-.35.28-3.39-2.52-1.76,2.52-.49-.29-1.02-.59h0s0,0,0,0v-1.89l-.38-1.23-.25-.79-.22-.81-.53-1.95-3.2-.89-1.33-.37-1.63-1.51-.75-1.95h0s0,0,0,0l.24-.61.52-1.34v-3.02l-.69-1.82h-3.62l.17.94h0s-1.01.67-1.01.67l-5.41,3.61-1.46,1.22-1.56,1.3-3.4-.95-1.09.8-5.83,4.29-1.89-.63-2.77,3.02,1.51,2.8v1.1h-4.53l-.47-.69-.28-.41-.88-.82h0l-2.77,3.93-2.64-1.51-3.02-.5-2.02-1.1-3.14,1.1-2.77,1.13,1.38,5.03-.75,1.76-1.76,1.45-1.51.94v1.51l-2.14,3.65-2.52,1.76-.75,1.38-2.77,1.24-3.02,8.57v3.9l-1.51,3.27-1.51.75v1.26l-5.53,7.8,1.01,1.38-1.38,2.52-1.38,4.53.13,1.01-2.26,5.03,2.14,1.33,2.26,1.69-.62,3.86-1.14,7.08-18.24,3.9-1.86.46.1.72-.95,4.72v4.65l2.09,4.15,6.54,4.03,1.63,5.48,4.28-3.05,5.03.71,1.26,2.34,2.89-1.58,3.65,2.55.88,2.6v5.28l.75,2.4,3.52-1.02,2.52,1.02-1.64,5.78,1.64.63,1.38-1.89,4.02-1.26,1.01-1.89,4.02-1.38v-.89l3.4-1.89,3.27-3.4,2.39,3.65.75-.63,1.89-3.9,8.55-6.16,1.51,4.81-2.64,3.99,2.01,8.18,3.4-.13,2.52,4.91-2.39,3.27-.25,3.52,5.16.75-.88-3.4.88-4.65,4.28,6.16,5.66-.12,4.4,1.13v2.64s-3.4.88-3.27,1.26c.12.38,2.64,8.55,2.64,8.55l-.75,4.78-3.27,1.38-4.02-6.04-2.52-.63-2.52.5,1.76,4.65,1.38,1.51.13,3.27-3.9,1.13-5.28-.88-2.01.88-.25,3.31,1.38,1.98,4.36-1.98,3.06.59,1.76,3.9-.12,2.77-1.51,2.26-2.64.96-2.26,1.43-.5,3.27.98,1.16,1.24,1.48,3.06-3.27,1.89-.12,3.27,3.39,3.27-1.38,1.64,1.38,1.89,2.94,1.13,2.47h.75v-3.02l2.26-3.27v-2.89l.11-.48,1.02-4.3,2.01-5.78,1.64-.38,1.26,1.89,14.84,1.26,10.57,3.39,7.8,3.77,13.58,12.7,7.17-1.26,3.77-2.64,1.76,2.26.95-1.13.81,2.77h5.16s.87,2.39.87,2.39l4.65,1.38,12.86-9.13.85,3.98.2.14,1.56,1.11v1.75l2.14,1.02,2.52-1.02-2.39-4.52,6.92-.63-3.9-8.05,3.14-2.52,5.41-9.81-4.15-4.4,3.27-3.02.88-2.77,5.03-3.4-.5-1.63,4.28-4.09.45-.71-.38-.45-1.17-1.55-.97-1.17,2.33-1.75-1.94-1.75.58-.78-1.17-.97-.97-.58-.2-.19-.19-.58v-.58l-.19-.19v-.39l.19-.19.19-.39.2-.19.39-.19v-.19l.58-.97-.39-.19v-.19h-.19l.58-.39-1.36-.97h-.19l.19-.19-.19-.19-.2-.39-.58-.78-.78-.97-.39-.58-.19-.19-.58-.39-.19-.19-.39-.39-.78-.58-.97-.78v.58l-.2-.2.2-.78v-.97h-1.16l-1.17.19-1.94-.78-.39-.19h-.39l-.58-.2v-.19h-.58l-.19-.19-.58-.19-.78-.19-.39-.19h-.19l-1.55.19h-1.17l-2.13.19.19-.58v-.39h-2.52v.19h-.19l-1.36-.97v.19l-.19.19h-.19l-.97-.19h-.78l-1.17.58-.19.19-.58.58-.2.19-.58.39-.39.39h-.19l-.58-.58-.39.39h-.19l-.97-.78-.19.58v.39h-.19v.58l-.58.58h-.2l-.19,1.17v.19l-.39.97-.19.19h-.58l-.78.78-.39.39h-.19l-.39.58-.58.58-.58.58-.39.19-.78.19h-.2l-.78.19h-.19l-.78.39-1.75-.78-.39-.19h-.2l-.19.19-.2.19-.19-.39-.19-.19-.39-.19-.58-.19v-.19h-.39l-.19-.19h-.19l-.2-.2h-.19l-.58-.19.19-.58v-.58h-1.16l-.78-.19-.78-.19h-.97l-.39-.19h-2.91l-.39.19-.58-.19h-.58v-1.36l-.19-.19.39-.19-.2-.58h-.39l-.2-.19-.19-.58-.19-.39-.19-.2-.19-.39-.19-.19v-.39h-.19l.39-.39h-.19v-.39l-.58-.39h-.2l-.19-.19v-.19l-.19-.39-.2-.19.2-.58v-.78l1.36.2h.58l.39-.2h.39l.2-.19h.19l.39-.19.58-.39v-.19l.39-.19h.2l.97-.19v-.19h.39l.39-.2h.78l.2-.19h.19l.19-.19.2-.2.19-.19.19-.19.19-.19v-.19l.19-.19.58-.39.39-.39.19-.19v-.19l.19-.39.2.19h1.36v-.19l.19-1.36.2-.97,14.94-8.35.78-.39,1.17-.39.39-.2,1.36.39,3.3.78.78-.19,1.94-.39h.58l-.39-2.52v-.58l-.2-.58-.19-.19-.2-.39h-.78v-.78l.19-.39-.19-.19-.19-.19-.19-.78h-.97l1.16-2.52v-.19l.19-1.17v-.97l.39-.97.39-.97-1.55.19h-1.16l.78-2.13h.78v-.19l.97-3.69v-.39l.39-.58-1.17-.97.39-.78h.19l1.55.39h.39l.78.19.19-.78.19-.97.2-1.17.07-.07-5.6-1.83.7-2.83Z"/>
  <text class="cls-12" text-anchor="middle" alignment-baseline="central">
    <tspan x="220" y="365">Kreuzau/</tspan>
    <tspan x="220" y="383">Hürtgenwald</tspan>
    <tspan x="230" y="405">Heimbach/</tspan>
    <tspan x="240" y="423">Nideggen</tspan>
  </text>
  <path class="cls-3" d="M186.06,324.76l.28.41.47.69h4.53v-1.1l-1.51-2.8h0s0,0,0,0l2.77-3.02h0s0,0,0,0l1.89.63,5.83-4.29,1.09-.81,3.39.95,1.56-1.3,1.46-1.22,5.41-3.6,1.01-.67-.17-.94-1.87-10.54-.11-.6h0s0,0,0,0l1.88-.88.26-.12-.75-1.84,2.14-5.33,8.81-11.7-.88-.72-.51-.41h0s1.38-2.01,1.38-2.01v-1.26l.13-.07,1.38-.81-2.99-1.38-3.29-1.51,1.06-.68.32-.2-.63-3.02,1.64-2.15-2.89-1.88-8.43.63h0s-1.13-4.15-1.13-4.15h-1.26s0,0,0,0l-.25-8.05-4.78-3.9h0s0,0,0,0l3.39-4.53h-3.52s0,0,0,0l.38-2.89h0s2.52,0,2.52,0l.13-2.26,2.77-2.39-2.14-1.63h0s3.04-2.25,3.04-2.25l12.43-9.21,1.37,1.16h.01s.79-.22.79-.22l1.47-.43v-1.89l.75-1.13,1.62-2.23.39-.54,2.88-1.24-.95.41-.77.33-2.87-2.95-1.7-1.75-4.19-4.3-7.08-7.27v-1.84l-4.62,4.81-.75-.71-.51.46-.81.72-2.91-2.06-4.16-2.94-1.32,1.56-2.91-2.15-2-1.48h0s0,0,0,0l.66-1.79.94-.09v-2.5l-.25-.23-.31-.29v-5.85h-.94l-.75-2.45-.25-.75-.7-2.08h0s0,0,0,0c0,0,.66-1.13.94-1.41.04-.04.05-.07.06-.11.03-.28-.62-.64-.62-.64l-1.98.38.47,1.04h0s0,0,0,0l-3.3,1.92h-1.41l-2.45,1-1.25.29-1.2.28-.17-.53-.49-1.55-1.44.7-2.05,1-2.02-.05-2.04-.05-.57-1.1-1.03.79-1.52,1.16-1.13-.63-2.17,1.65-1.48,1.12-.25,2.01.9-.14.74-.11,1.01,3.4h0s0,0,0,0l-1.27.8-1.74,1.09.88,1.64h0s0,0,0,0l-2.81,2.61-2.02,1.88h0s-5.48,5.2-5.48,5.2l1.76.75-2.52,7.42.88.62-.38,1.77h-1.01l-.63,2.14,3.52.66-1.01,3.24.25,1.26,1.51-.5,10.94,7.42-5.28,5.41,1.38,1.89-1.89,2.01,2.39,2.39,6.16.63-5.28,2.94,1.26,3.22h-2.14l.5,2.01,4.15,2.14-2.52,4.15,2.52,3.4-1.01,1.89-10.19,8.3,1.01,2.01-1.64,2.01-1.26,4.9-2.01-.12-.34.61-.29.52-2.01-.38-4.02,6.67-5.06-3.02-1.73.25-2.26,3.77,2.77,2.52,1.23,2.99-.69.44,1.54.78s4.59.19,4.59.69.75,2.06.75,2.06l-2.77,2.34-1.01,2.74,1.38,2.29,2.39,7.55,5.78-.5v-3.94l3.02-1.6,4.4,1.6,2.14-1.22v-1.76l1.76-2.42,1.76,1.54,2.26-.63,1.01-4.53.75-1.46h2.45l3.34-3.69s2.01,5.03,1.89,5.41c-.13.38-1.01,2.58-1.13,3.36-.13.78-2.14,2.92-2.14,2.92l.13,3.39.88,1.76-.52,3.05-.23,1.36,1.51,1.89,3.14-.75s-2.89,6.92-2.77,7.29c.12.38,1.38,2.01,1.38,2.01h2.52l2.39,2.23h0s.88.82.88.82Z"/>
  <text class="cls-12 cls-13" text-anchor="middle" alignment-baseline="central">
    <tspan x="190" y="220">Inden</tspan>
    <tspan x="193" y="275">Langer-</tspan>
    <tspan x="190" y="289">wehe</tspan>
  </text>
  <path class="cls-2" d="M295.42,170.41h0s0,0,0,0l-1.29-2.48-2.2-4.22-2.17-.09-1.12-1.68-.58-.86-.43-.27-1.65-1.05-1.71-1.78-.65-.68-7.9-.38h0s0,0,0,0l-1.72-1.41-.14-.06-3.63-1.54-12.52-6.22h-.02s-6.41-1.71-6.41-1.71l-5.66-1.13-3.87-.75,1.23,3.77-.38,3.96.38,1.32-.11.56-.17.85-.05.98-.04.91-4.23,4.17-1.9,1.87-.23.54-.33.78-.81.59-.23.17s-4.81,5.47-5.09,5.57c-.16.06,1.88,2.7,3.61,4.9,1.24,1.58,2.33,2.93,2.33,2.93h0s0,0,0,0l-.42.42-.24.24.32.47.72,1.04-2.08,2.26,3.77,6.04-1.07.69-.25.16,1.04,2.07h0s-1.6.57-1.6.57l6.32,4.34,1.41,2.64h-6.79l1.04,3.02-.28,1.28-.29,1.36v1.6l1.32,1.41h0s0,0,0,0v6.51h0s-.25.11-.25.11l-.08.69-.04.33-.09,2.17.25.39,1.16,1.78,1.89,2.45-.09,3.02,2.41.48.42.08,1.41.75h0s.38,1.41.38,1.41l.85.47h0s0,0,0,0l.18.19,1.8,1.98,1.13,2.26,1.6-.28,3.45-.96h.04s-.12-1.01-.12-1.01l-.07-.58h0s0,0,0,0l13.96-6.7-.75-2.2.19-.06,1.79-.57h0s0,0,0,0l4.43,7.17,1.13-.09.66-1.89,2.36-.66,1.51-1.04,1.32.75.19-.66,1.13.38,2.07-2.64h0s0,0,0,0l.16.16,1.16,1.15,5.28-1.32h0s0,0,0,0l3.68,3.68,1.6,3.49,1.17,2.16,1.28,2.36-.38,1.79-1.89,2.55-1.13,2.07-.75,1.96-1.47,1.63-1.36,1.51-.03.91-.07,2.11-1.13,1.51s-1,1.22-2.08,2.45c-1.05,1.2-2.17,2.41-2.54,2.55-.75.28.28,5.47.28,5.47h2.55l2.72-1.03.77-.29h0s0,0,0,0l1.89,1.98,5.09-1.98h0s0,0,0,0l.25.37,1.07,1.61h0s2.07-.57,2.07-.57h0s0,0,0,0l.75,2.08,1.13-.75h0s0,0,0,0l4.06,6.98,2.92,7.45-2.26.94h0s0,0,0,0l-.66-1.51-4.43,1.23.09.17.38.68-1,.72-1.35.97.14.23.71,1.18-.53.23-3.33,1.46.24.85.7,2.45-.22,1.17-1.66,8.74,2.23.79,2.58.91h0s0,0,0,0l1.51,1.89-1.38,1.42v.88l-.05.07,2.83,1.36,4.45,2.13h0s0,0,0,0l-2.07,2.45h0s0,0,0,0l-.46.22-2.18,1.01-.75,1.51,4.86,9.39.61,1.17,3.3-2.17,2.83,2.64h0s0,0,0,0l-1.46.5-.99.34.28,1.04h0s0,0,0,0l-1.35.75-.34.19s3.82,6.29,3.92,7.6c0,.11,0,.2-.05.24-.66.38-12.34,7.35-12.36,7.36l1.89,3.11-3.05,2.87-1.86,1.75-4.43,2.26-1.19.44-1.36.5v2.45l.83,1.07.49.63,7.17,8.02h0s0,0,0,0l-6.89,3.02-.03.56-.07,1.42,3.87,4.81h0s0,0,0,0l.1.39.49,1.97-.77,3.96s4.34,4.91,4.43,5.19c.02.07.21.19.47.33.78.41,2.27.99,2.27.99l-.38.85-1.45.32-1.1.24-.09,3.96,1.7.66h2.45,0s0,0,0,0l-.7,2.83,5.6,1.83.12-.12.39.19.4.23h0s0,0,0,0h0s0,0,0,0h0s.96.55.96.55l1.36.58,1.17.58v.39l-.2.97v.2l.97-.39h1.36l1.36.78,1.17.58.97.39h.19l-.19.19-1.36,2.13-.58.78v.19l1.55.58h.39l.19.19.39.39.58.58h.39l.39.19h.19l.97.2.78.19h1.36l1.36-.19.39,1.55h.19l.78-.19,1.75-.39-1.17-2.52-.58-1.94h.19v-.19l3.1-.58.2-.19,1.55-.2,1.17.78h2.91l.19.39.19-.19.39-.19.19-.19.2-.2h.39l.58-.39.58-.19.58-.39h.2l.39-.19h.39l.97-.39,1.17-.39h.39v-.2l-.2-.39-.19-.39v-2.14h-3.88l-.19-.19h-.19l-.58-.19h.2l.19-.97.19-1.16.97.19.19-.19v-.39l.2-.97v-1.17l.19-.97v-.78l.39-.78.19-.58v-.19l.19-.2.19-.19v-.39h.19l.39.39v-.2h.19l-.58-.39-.58-.58,2.52-1.16,1.36-.58.39-.2,1.16.78h.19l.97-.39,2.13-.97.19.19,1.55-.39,2.13-.19-.39-.58,2.72-1.55v.19l1.94-1.17,1.17-.58-.39-.97-.58-1.17,1.36-.97h.19l-.19-.19,3.49-2.13-.58-.78,3.3-2.52-1.94-2.52,1.36-.97.39-.39.2-.19.39-.58.19-.39,1.17-.97,1.16-.97h.19v-.19l-.39-.39,2.72-2.91-.78-.58-.39-.39-.78-.58-.58-.58h.19l.39-.58,2.72,2.72,1.36,1.16,1.75,1.36,1.55,1.36,1.75,1.17.97.58.97.58.39.19.97.58.19.19.78.39,1.75.97h.2l.39.2.58.39.78.39.39.19,1.36.78.39.19,1.17.39,2.72.97v.19h.19l.39.19,1.36.78v.19h.19l.78.97,2.13,1.36.97.78.97.97,1.94,1.55.78.97,1.36,1.36.58.19h.97l.19.2h.19l.58.58.2-.2.19-.19.19-.19h.19v-.2h.19v-.19h.19v-.19h.19l.39-.39.58-.78.39-.39,1.94-1.94v-.19h.19l1.36-1.55,1.16-1.36.2-.19.39-.39.97-.97v-.19l2.52-2.52.97-.97,2.13-2.33.39-.39.58-.58.78-.97.39-.39.78-.78.39-.58.19-.19-.97-.78-.39-.19-1.36-1.16-.19-.19-2.72-1.94h-.19l-.97-1.36.78-.78.58-.78.97-.97.78-.58.78-.97.78-.78.97-.97-1.94-1.94.39-.19-1.55-2.33.78-.58v-.19l-1.55-2.14.39-.19v-.19l2.91-2.13h.19l.19-.39-.58-.39-1.36-.97v-.19l-.78-.78-1.75-2.33v-.19l-.39-.78-.19-.78h-.19l-.78-2.33-.78-2.52-1.17-3.69-.97.19h-.58l-.19-.58v-.19l-.2-.39-.19-.58v-.39l-.19-.39-.19-.39-.39-1.17h-.97v-.19h-.39l-.39-1.55-.78-2.91-.39-1.55-.78-3.1.97-.2,2.33-.78,3.11-.78.97-.19,1.75-.39-.58-2.33-1.17-4.46-.78-2.72h.19l1.36-.39v-.19l-.78-3.11-.39-2.52h-.19l-.19-.97-.39-1.36-.39-1.36-.78-2.91-.97-2.72v-.19l-1.36-4.27.39-.97-.2-.2h.2v-.19l.78.39h.19l.39.19h.78v.19h2.72v-.39l.2-4.85v.2l6.02-.2v-.19l.19.19-.19,4.66h12.23l2.13-.19,1.17-.19-.2-.58v-1.36l-.39-1.94-.19-2.13-.19-1.75v-.58h-.97l-1.36.19-.97.19v-.19l-.58.19v-5.82l-.19-1.36-.2-.97.2-.19.78.19h2.91v-.78l-.19-1.36v-3.1l-.19-.97h-2.91l-1.36.19h-.78l-.2-.19v-4.66l-.19-.39v-1.55l-.19-.39v-5.82h-.2v-.2h-1.94l-2.14.2h-3.1l-.97.19h-2.13l-.19.19h-1.94l-.19-.19-.19-.19h-.39l-.19-.2h-.19l-.19-.19h-.19l-.2-.19h-.58v-.19h-.19l-1.17-.19h-.19v-.19h-.39l-.2-.2-.58-.39h-.19l-.19-.2h-.19v-.19l-.19-.19-.58-.39-.97-.58-.97-.78v.39l-.2.58v.19l.2.19v.39l.19.19v.19l.19.2v.19h.19v.19l-.19.39v.19l-.19.58v.2l-.39.78v.58h-.19v2.13l-.19.39h-.39l-.19-.19h-.2l-.78-.39h-.19l-.19-.19h-.39l-.78-.19v.58h-.39v-.19h-.39v-.19h-.58l-.39-.39h-.39l-.19-.19-.39-.19h-.19l-.19-.2-.39-.19h-2.13v.19h-.19l-.19-.19-.58-.39v-.19l-.39-.39-.58.2-.39-.39-.58-.19-.19.19h-1.55l-.97-.19h-.78v-.58l-.19-.58v-.39h-.19l-.39-.19h-.19l-.19-.2-1.16.2-.39.19-.39.39h-.19l-.19.19-.78.39h-.19l-.58.39h-.19v.2h-.19v.19l-.19.39-.19.39h-.39l-.39.19-.58.39h-.19l-.19.2h-.39v.19h-.39v.19h-.58l-.39.39v.97l-.39.19-.2.19h-.19l-.19.19-.19.19h-.19l-.19.2-.19.19h-.19l-.19.19h-.2v.2h-.19v.58l.19.19-.19.39-.78.19h-.58v-.19h-.39v.58l.19.19v.78l.19.39v.19l-.78.39-.19.19h-.19l-.39-.39h-.19v-.19l-.19-.19-.39-.78-.78.39h-.19v.78h.19v.19l.19.19h-.19l-1.16.39h-.19l.39.78v.19h-.39l-.19.19-2.13.78-1.55.58-.19.19-1.36.39v-.97l-.19-.78-.19-1.17v-1.36l-.58-3.88h-4.27l-1.36.2h-1.17v-.2l-1.55-.39v-.19l-.19-3.1v-2.72l1.94-.39-.58-3.3h.58l-.39-.39v-.19l-.39-.19-.39-.58-.39-.58-.39-.19-.39-.58-.58.39-.2.39-.39.39-.58.58v.19l-.19.19h-.19l-.19.39-.2.19-1.36.19h-.19v-.19l.19-.19v-.19l.19-1.16v-.39l.19-.19v-.19l.19-1.94v-.97l-.97-1.75-1.36-1.75-.58-.78-.2-.19-1.55-2.13h-.2l-1.16.58-4.27,1.36v-.19l-.19-2.52v-.58l-5.24.39-.19.19-3.88.58-3.49.97-1.36-2.91-1.16-2.91h-.19l-.19-.78-.58-1.36-2.52,1.94-1.36-2.33-1.36.97-5.82,2.72-1.16-2.13.58-.58.19-.19-.19-.19v-.39l.19-.19.2-.19,3.49-1.94.19-.19h.78l.39-.19,1.55-.97-.39-.78-.19-.39.19-.19h1.36v-.2l-1.16-1.55-2.13-2.72-1.17-2.52-.78-1.75,1.36-.58,1.75-1.75,2.72-.97h-.39v-.19l-.19-.19h-.39l-.19-.19-.39-.19h-.19l.39-1.55-.58-1.55-.58-1.17-.19-.58-.39-.97-1.17.39-1.36.58.19-2.33v-.58l.78-.39.58-.2v-.19l.58-.19.39-.19h.39l.58-.19.78-.39h.39l1.55.19-1.55-4.46-.58-2.13-.19-.19-.39-1.17v-.39l-.39-1.17-1.94-5.82-.78-2.13-1.36,2.33v.19l-1.17-.19-2.13-.39-1.55-.39v.2l-.39-.2-1.17-.19-.97-.39-.78-.19-2.33-.58h-.19l-3.1-.78-2.33-.58-1.17-.19-.97-.39h-.58l-.39-.2h-.39l-.39-.19-2.52-1.36v-.31l-.46.12-5.66-2.2Z"/>
  <text class="cls-12 cls-13" text-anchor="middle" alignment-baseline="central">
    <tspan x="365" y="280">Merzenich/</tspan>
    <tspan x="365" y="301">Niederzier</tspan>
    <tspan x="370" y="329">Nörvenich/</tspan>
    <tspan x="370" y="350">Vettweiß</tspan>
  </text>
  <path class="cls-4" d="M228.7,214.68l-.39.54-1.62,2.23-.75,1.13v1.89l-1.47.43-.79.23h-.01s-1.37-1.17-1.37-1.17l-12.43,9.2-3.04,2.25,2.14,1.63h0s-2.77,2.39-2.77,2.39l-.13,2.26h0s-2.52,0-2.52,0l-.38,2.89h3.52l-3.4,4.53,4.78,3.9.25,8.05h1.26s0,0,0,0l1.13,4.15,8.43-.63,2.89,1.88h0s-1.64,2.15-1.64,2.15l.63,3.02-.32.2-1.06.68,3.29,1.51,3,1.38h0s0,0,0,0l-1.38.81-.13.07v1.26l-1.38,2.01.51.41.88.72-8.81,11.7-2.14,5.33.75,1.84-.26.12-1.88.88.11.6,1.87,10.54h3.63l.69,1.82h0v3.02h0s-.52,1.34-.52,1.34l-.24.61.75,1.95,1.63,1.51,1.33.37,3.2.89.53,1.95.22.81.25.79.38,1.23h0s0,0,0,0v1.89l1.02.6.49.29,1.76-2.52,3.39,2.52.35-.27.78-.61,2.64,3.27h0s0,0,0,0l-1.86,1.68-.78.71,2.64,2.14.89.2,1.88.43.69-1.38.31-.63,5.03,2.96.93,2.12,2.22,5.1h1.64l2.21,2.72.43.53,4.28-4.64,2.89-5.84,3.4-2.46v-1.76h0s3.29-.69,3.29-.69l1.49-.31v-1.51h0s1.51,0,1.51,0h0v1.38h1.26v-2.01h0s1.26-1.13,1.26-1.13l.86-.04,1.9-.09,2.51.09,1.14.04v-.88h0s7.04,0,7.04,0h3.77v-1.2h0v-3.96h0s.88-2.39.88-2.39l2.52-.13v-1.51h0s2.89-1.13,2.89-1.13l1.26-1.07-1.76-6.35h0s0,0,0,0l1.81-1.16,4.35-2.78,1.64-2.03.82-1.01h0s.05-.07.05-.07v-.88h0s1.38-1.42,1.38-1.42l-1.51-1.89-2.58-.91-2.23-.79,1.66-8.74.22-1.17-.7-2.45-.24-.85,3.33-1.46.53-.23-.71-1.18-.14-.23,1.35-.97,1-.72-.38-.68-.09-.17,4.43-1.23h0s0,0,0,0l.66,1.51,2.26-.94-2.92-7.45-4.06-6.98-1.13.75h0s0,0,0,0l-.75-2.08-2.07.57h0s0,0,0,0l-1.07-1.61-.25-.37-5.09,1.98h0s0,0,0,0l-1.89-1.98-.77.29-2.72,1.03h-2.55s-1.04-5.19-.28-5.47c.37-.14,1.5-1.35,2.54-2.55,1.08-1.23,2.08-2.45,2.08-2.45l1.13-1.51.07-2.11.03-.91,1.36-1.51,1.47-1.63.75-1.96,1.13-2.08,1.89-2.55.38-1.79-1.28-2.36-1.17-2.16-1.6-3.49-3.68-3.68-5.28,1.32-1.16-1.16-.16-.16-2.07,2.64-1.13-.38-.19.66-1.32-.75-1.51,1.04-2.36.66-.66,1.89-1.13.09h0s0,0,0,0l-4.43-7.17-1.79.57-.19.06.75,2.2-13.96,6.7.07.58.12,1h-.04s-3.45.97-3.45.97l-1.6.28-1.13-2.26-1.8-1.98-.18-.19-.85-.47h0s-.38-1.41-.38-1.41l-1.41-.75-.42-.08-2.41-.48h0s0,0,0,0l.09-3.02-1.89-2.45-1.16-1.78-.25-.39.09-2.17.04-.33.08-.69-2.39,1.02h-2.36l-1.02-1.07-.77-.81-.13.06-.13.06-2.88,1.24Z"/>
  <text class="cls-12" text-anchor="middle" alignment-baseline="central">
    <tspan x="260" y="280">Düren</tspan>
  </text>
  <path class="cls-1" d="M277.97,111.93s-.09.05-.22.03c-.27-.05-.76-.23-1.31-.47-1.28-.54-2.9-1.35-2.91-1.36l2.19,5.09-1.06.48-2.24,1.02s-.83.06-1.78.13c-1.15.09-2.47.19-2.68.25-.38.09-6.13,1.98-6.13,1.98l.64,2.06.59,1.9-5.85,3.68h0s0,0,0,0l-2.06-14.7-1.9-13.51-2.64.92h0s-.44-2.99-.44-2.99l-.47-3.22-3.45-3.56-4.41-4.55,1.41-4.32h-2.45l-1.51,2.05h0s0,0,0,0l-.32-.14-.81-.34-1.43,1.3-1.88,1.72-2.45,1.23v1.41h0s-.03,0-.03,0l-2.89-.37v-1.62l-10.38.87v3.3h0s-2.07.09-2.07.09v1.04h0s-2.36-.09-2.36-.09h0s0,0,0,0v-2.26c0-.23-2.33-.46-3.22-.54-.21-.02-.36-.03-.36-.03l.26-1.09.31-1.29h-2.08l-4.06-3.09,2.26-3.68-5.66-4.25-8.87,14.9h0s0,0,0,0c0,0-1.23-.94-1.79-1.13-.07-.02-.12-.02-.16,0-.08.04-.1.15-.09.3,0,0,0,0,0,0,.03.37.25.92.25.92v1.51l-.41.45-.63.68h0s0,0,0,0l-.4-.75-.45-.85-5.19,4.53h0s0,0,0,0l-.81-1.34-.79-1.3-5.49,2.89-2.57,1.35-.29.76-.14.37h0s0,0,0,0l-.72-.36-.22-.11-3.3,1.23v2.64l-1.32.57-2.64,1.13h0s0,0,0,0v-3.02l-2.39,1.93-1.58,1.28h0s0,0,0,0l-.81-1.37-.7-1.18-.89.32-.43.15h0s0,0,0,0l-.73-1.34-1.44-2.62-1.71-.28h-.05s-1.22,1.3-1.22,1.3l-.79.86h0s-1.32-.09-1.32-.09l-6.04,3.49h0s0,0,0,0l-1.7-1.79-10.09,6.32v4.72h-8.49l-1.13,1.51,3.02,1.23-.77.6-.55.44-1.04,1.42-1.89,2.45h0s0,0,0,0c0,0-1.27-1.12-2.42-2.14-.88-.78-1.7-1.51-1.82-1.63-.03-.03-.07-.04-.1-.02-.04.02-.09.07-.13.15-.19.35-.34,1.2-.34,1.2h0s0,0,0,0c0,0-.85-.17-1.74-.27-.9-.11-1.84-.16-2.03.08-.18.23-1.1.63-1.99.99-.95.38-1.88.71-1.88.71h0s0,0,0,0l-.75-.66-3.19,1.7-1.05.56h0s0,0,0,0l-1.41-2.36-4.43,3.11h0s0,0,0,0l-1.98-1.51-.51.14-1.85.52h0s0,0,0,0c0,0,0-.02-.03-.05l-3.84,3.22,1.38,1.51-2.89,1.73,3.14,2.17-.25,1.01,1.38,1.76-2.14.38,2.14,2.52h-1.63l1.13,2.14-3.77,4.28h1.01l-1.26,3.02-2.01-.63-2.14,3.9-4.65,3.02-2.52,3.4-5.53,3.27,1.76,1.88-1.89,2.77,3.28,5.57,2.5,4.24,1.89-.5,2.89,2.77-.45,2.52h2.84l1.89,7.3,2.64,4.9.52.28,2.25,1.21-4.15,3.42-1.38,3.65,2.14-.63,3.4,5.16,3.4-1.3-1.07-2.26,6.47-6.24,7.55,12.08s5.66-6.13,6.04-5.83c.38.3,4.53,4.7,4.53,4.7l6.16-5.66-2.52-3.52,4.02-3.54h1.89s-.75-1.99,0-2.25c.75-.25,2.64-1.63,2.64-1.63l.88,1.26,6.54-6.16,1.89.88,1.51-2.38,2.39,2.38-1.76,2.14,3.4,4.02-1.89,3.77,3.15,3.02,1.89-2.77,1.03.8,1.87,1.46,1.51-1.26,3.9,5.53,2.21-2.05h0s2.02-1.88,2.02-1.88l2.81-2.61-.88-1.64h0s0,0,0,0l1.75-1.09,1.27-.8-1.01-3.4-.74.11-.9.14h0s0,0,0,0l.25-2.01h0s0,0,0,0l1.48-1.12,2.17-1.65,1.13.63,1.52-1.16,1.03-.79.57,1.1,2.04.05,2.02.05,2.05-1,1.44-.7.49,1.55.17.53,1.2-.28,1.25-.29,2.45-1h1.41l3.3-1.92-.47-1.04h0s0,0,0,0l1.98-.38s.65.36.62.64c0,.04-.02.08-.06.11-.28.28-.94,1.41-.94,1.41l.7,2.08.25.74.75,2.45h.94s0,0,0,0v5.85l.31.29.25.23h0s0,0,0,0v2.5l-.94.09-.66,1.79,2,1.48,2.91,2.15,1.32-1.56,4.16,2.94,2.91,2.06.81-.72.51-.46.75.71,4.62-4.81v1.84l7.08,7.27,4.19,4.3,1.7,1.75,2.88,2.95.77-.33.95-.41.13-.05.13-.06h0s0,0,0,0l.77.81,1.02,1.07h2.36l2.39-1.02h0s.25-.11.25-.11v-6.51l-1.32-1.42v-1.6l.29-1.36.27-1.28-1.04-3.02h0,0s6.79,0,6.79,0l-1.41-2.64-6.32-4.34,1.6-.57-1.04-2.07.25-.16,1.07-.69-3.77-6.04h0s0,0,0,0l2.07-2.26-.72-1.04-.32-.47.24-.24.42-.42s-1.09-1.35-2.33-2.93c-1.74-2.2-3.78-4.85-3.61-4.9.28-.09,5.09-5.57,5.09-5.57l.23-.17.81-.59.33-.78.23-.54,1.9-1.87,4.23-4.17.05-.91.05-.98.17-.85.11-.56-.38-1.32.38-3.96-1.23-3.77,3.87.75,5.66,1.13,6.41,1.7h.02s12.52,6.23,12.52,6.23l3.63,1.54.14.06h0s0,0,0,0l1.72,1.41,7.9.38h0s0,0,0,0l.65.68,1.71,1.78,1.65,1.05.43.27.58.86,1.12,1.68,2.17.09,2.2,4.22,1.29,2.48,5.66,2.2.46-.12v-.08l.19-1.36.19-1.36.19-.97v-.19l-.58-1.75v-2.52l-.58-1.55.19-.58.19-.2v-.39l.19-.39.19-.19v-.2l.19-.19v-.39l.19-.19v-.39h.19v-.58l.19-.39-.19-.39-.19-.78-.19-.78v-.39h-.19v-.39l-.19-.39v-.78l-.19-.19v-.39l.19-.19v-1.17l.19-.19v-.58h.19v-.58l.19-.19v-.19h-.19v-.39l.39-2.33h-.19v-.78l-.19-.58h.19l.19-.58.39-1.94.39-1.75.2-.97.19-2.14.19-1.16.19-.19v-.19l1.17-2.72.78-1.75h.19v-.19l.58-1.36v-.2l.19-.19h-2.13l-2.52.19v-.19h-1.36l-1.36.19h-1.94l-1.55.2h-2.14l-2.13.19-.97-3.49v-.19l-.39-1.36-.39-.78-.19-.97-.19-.19-.58-1.36-.39-.78-.39-1.17v-.19l-.78-1.75-.19-.19-.19-1.75-.19-1.94v-.39l-.39-2.13v-.39l-.2-.19v-.58l-.19-1.16v-.58h-.19l-.97-.58h-.58l-.97-.39-.39-.19h-.19l-.19-.2h-.39l-.39-.19h-.2l-.39-.39h-.39l-.19-.19-.97-.39-.39-.19.07-.25-1.32.25s.09,3.56,0,3.94Z"/>
  <text class="cls-12" text-anchor="middle" alignment-baseline="central">
    <tspan x="190" y="135">Aldenhoven/</tspan>
    <tspan x="190" y="156">Jülich</tspan>
  </text>
  <path class="cls-2" d="M262.73,5.65l-3.69-4.15-4.56,7.04-10.82.38v3.77l-13.21-.25-5.91,2.2h-3.27v-2.33l-11.7-.13-1.13,1.89-6.79-1.76v8.8l-4.19,3.27v-1.26l-4.11.63.5,7.92-17.36,2.56-11.19,1.09-15.72-3.9-.5-10.16c-.09,0-.18-.02-.27-.02h-2.38c-.06,0-.09-.09-.13-.23-1.83-.17-3.41-.31-3.52-.31-.28,0,0,1.04,0,1.04l-3.59.38,1.79,7.45-1.32.19-1.41,1.89,1.41.47s-.66,4.06-.94,4.25c-.28.19-5.47-.28-5.75-.28s1.13,5.09,1.13,5.09c0,0-2.92-2.17-3.77-2.07-.85.09,0,3.02,0,3.02l-2.92,1.32,1.32,8.21-2.92-.75-5.19,3.02-2.17-3.68-8.77,7.92-2.36,3.77-4.06-1.23-.15-.1-.89,1.33-2.83-1.04-4.43,6.89-7.83,5.85-4.72,2.83v1.79l-3.3,2.07-1.79-.66-5,3.21,1.04,1.51-.57,2.74-1.89,2.55,1.41,2.55h2.26l2.34,6.04.4,1.03-3.96.75-2.08,2.46.95,1.32,4.06,6.04h7.83l4.33,1.44,3.32,1.11s1.13,3.11,1.23,3.4c.09.27,2.43,4.03,2.71,4.48.02.03.03.05.03.05l1.85-.52.51-.14h0s0,0,0,0l1.98,1.51,4.43-3.11h0s0,0,0,0l1.41,2.36,1.05-.56,3.19-1.7h0s0,0,0,0l.75.66s.93-.33,1.88-.71c.89-.36,1.8-.76,1.99-.99.19-.23,1.13-.18,2.03-.08.9.11,1.74.27,1.74.27,0,0,.15-.84.34-1.2.04-.08.08-.13.13-.15.03-.01.07-.01.1.02.12.12.94.85,1.82,1.63,1.15,1.02,2.42,2.14,2.42,2.14l1.89-2.45,1.04-1.42.56-.44.77-.6-3.02-1.23,1.13-1.51h8.49v-4.72l10.09-6.32h0s0,0,0,0l1.7,1.79,6.04-3.49,1.32.09.79-.86,1.22-1.31h.05s1.71.28,1.71.28l1.44,2.62.73,1.34.43-.15.89-.32h0s0,0,0,0l.7,1.18.81,1.37,1.58-1.28,2.39-1.93h0s0,0,0,0v3.02l2.64-1.13,1.32-.57v-2.64l3.3-1.23h0s0,0,0,0l.22.11.72.36.14-.37.29-.76,2.57-1.35,5.49-2.89h0s0,0,0,0l.79,1.3.81,1.34,5.19-4.53h0s0,0,0,0l.45.85.4.75.63-.68.41-.45v-1.51s-.22-.55-.25-.92c0,0,0,0,0,0,0-.14.01-.26.09-.3.04-.02.09-.02.16,0,.56.19,1.79,1.13,1.79,1.13l8.87-14.9h0s0,0,0,0l5.66,4.25-2.26,3.68,4.06,3.09h2.07s0,0,0,0l-.31,1.29-.26,1.09s.15.01.36.03c.89.08,3.22.31,3.22.54v2.26l2.36.09v-1.04h0s2.07-.09,2.07-.09v-3.3h0s10.38-.87,10.38-.87v1.62l2.89.37h.03s0-1.41,0-1.41l2.45-1.23,1.88-1.71,1.42-1.3h0s0,0,0,0l.81.34.32.13,1.51-2.05h2.45l-1.41,4.32,4.41,4.55,3.45,3.56.47,3.22.44,2.99,2.64-.92h0s0,0,0,0l1.9,13.51,2.07,14.7,5.85-3.68-.59-1.9-.64-2.06s5.75-1.89,6.13-1.98c.21-.05,1.53-.16,2.68-.24.95-.07,1.77-.13,1.77-.13l2.24-1.02,1.06-.48-2.19-5.09h0s0,0,0,0c0,0,1.63.81,2.91,1.36.55.23,1.04.42,1.31.47.13.02.21.02.22-.03.09-.38,0-3.94,0-3.94l1.32-.25.51-1.88,1.75-2.91v-.19l.2.19v-.19l.19.19.19-1.36h.19l-.19-.39v-.19l-.19-.19-.58-.39-.19-.2-.58-.19h-.39l-.19-.19h-.39l-.19-.2h-.19l-.19-.19h-.2l-.39.19h-.2l-.19-.19h-.78l-.39.19h-.97l-.19-.19-.39-2.91v-.19l-.19-.78h.78l.2-.19h1.16v-.2h2.13l-.19-2.33h-.39l-.19-1.16v-.97l6.21-.78v-.97l-.19-.2.19-.19-.39-1.55,1.36-.19,3.1-.39,2.13-.19-.58-6.41-3.11.97-.97-3.11-.58-5.63-.39-.2h-.39l-2.91.97h-.39l-2.33-.78-2.33-.58h-4.66l-.19-.39-.19-3.88-.58-4.46-.19-.78-.78-2.33-2.52.58-.19-5.05h-2.52l-.78-4.85-.39-2.13-1.36.19-.39-4.66,2.33-.39-.39-3.3,4.08-.39-1.17-1.94-.58-2.52-1.36-2.33,2.91-1.75-.58-.97-.78-1.17-.58.39-.58-.78-.58-.78-.39-.58h-.19l-2.52,1.55h-.2l-.97.39-1.55.58v-5.05l-.19-.19v-.19l2.33-.39.19.78,3.88-.97-.19-.39,1.94-.58.58.78.58-.19h.19l.2-.2,1.36-.39h.19l.19-.2h.19l.39-.19h.19l.19-.19.2-.19h.19l.19-.19.19-.19.19-.2.19-.19h.19v-.19l.19-.2v-.19l.39-.39v-.19h.19l1.36-1.36.58-.2.19-.39.97-.58.19-.19.19-.19.19-.19h.19l.19-.19h.19l.39-.19.2-.2h.19v-.19l.58-1.55.08-.23-14.17-9.75-2.41.98Z"/>
  <text class="cls-12" text-anchor="middle" alignment-baseline="central">
    <tspan x="200" y="60">Linnich/Titz</tspan>
  </text>
</svg>