<?xml version="1.0" encoding="UTF-8"?>
<svg xmlns="http://www.w3.org/2000/svg" viewBox="0 0 512 512">
  <defs>
    <style>
      .cls-1 {
        fill: #fff;
        font-family: DMSans-Bold, 'DM Sans', sans-serif;
        font-size: 28px;
        font-variation-settings: 'opsz' 14, 'wght' 700;
        font-weight: 700;
      }

      .cls-3 {
        fill: #997ca1;
        stroke: #f2f2f2;
        stroke-linejoin: round;
        stroke-width: 6px;
      }

    </style>
  </defs>
  <path class="cls-3" d="M471.66,225.97l-12.09-14.52-8.12,6.01-1.32-6.01-19.17,16.65-11.14-6.69-6.8-1.64-16.65-13.02-5.12-2.14-20.49-21.35h-3.85l-2.56-6.41-1.71,7.26-5.41-.43-2.7,5.98-4.27-2.96-5.55,3.39-6.41.43-5.98,9.39v11.1l-17.08,10.39v-4.4h-5.55l-2.54,4.4-5.05-1.85-10.32,6.83-3.87-9.38-42.27.44-3.85-2.63-6.83-9.35,4.27-8.97-4.27-6.83-4.7.43-4.27-6.83,3.85-8.97h-5.55v-4.28h2.99l9.4-49.52-2.14-2.14h-5.98l-7.69-2.13-10.67-4.27v-3.43l7.69-3.83-7.69-7.26,3.27-2.53-3.27-3.59-3.56,2.85-5.41-6.83-6.75,3.98-11.47-.57,1.42,6.26-5.33.57-1.22,7.69-9.39,7.4,1.99,9.11,3.42,6.55s-14.23,2.85-14.23,3.98-3.13,2.56-3.13,2.56l-14.23,1.99v-20.78l-3.85-2.76-15.51,9.69-3.13-1.53-3.13,1.53-6.26-5.22-3.42,3.98-1.99,7.97-13.38,6.83-2.56,29.89,4.55,14.52-23.06,28.18,3.13,4.27,7.12-2.28s0,9.11-.85,9.4c-.85.29-7.12,3.13-7.12,3.13l1.99,11.1-8.26,5.95-10.53-1.96v16.8l-7.12,1.99-11.1,1.14v23.63l-7.12-1.14-6.26,6.54-9.11,3.42-8.26,18.22v3.7s-4.84,5.12-3.99,5.98,20.5,13.09,20.5,13.09l4.84-5.41,7.4-9.39,4.56-5.89,10.82-6.92s3.42,7.4,4.27,8.26c.85.85,5.69,5.12,5.69,5.12l7.97,5.41,3.98-2.56,8.49,5.98-6.21,3.99-1.42,4.01-10.25,7.66-3.98,3.7-5.12,2.56-4.27,7.69,12.53,3.98,2.85-1.87.85,3.3-3.42,3.42,5.69,3.41-1.42,3.7,7.68,1.71-1.42,5.12h11.1l3.7,3.98h7.69l3.7-1.37,12.24,3.08,9.39-3.08-3.42,5.07h5.41l3.7-3.13,5.69-3.41,5.41,1.48,4.27-2.05,9.68,13.38,5.7,6.83,9.39,8.26,6.83,3.13,10.25,13.38,15.09-2.56-.57-15.37-2.56-3.13v-15.09l6.83,4.84,10.53-.29s9.11,0,9.96-.28c.85-.29,7.69-.57,7.69-.57l-3.13-7.97,3.98-.29,13.38-4.84,9.4-1.65,2.56,2.51,21.63-5.41,14.8-2.84,3.7,2.84,11.1,5.7,20.5-4.56v3.7l5.98.28,13.52-6.83,3.27,2.28,3.42.85,4.55-2.56,12.81-9.96,3.7,7.97,1.71.85,2.84,2.56-2.84,2.62,9.68,19.02h7.97v-5.98l6.26-3.13,8.54-5.64,4.27-3.76,13.38,5.41,14.23-7.12v-2.84l8.82-3.55h0s1.76-8.78,1.76-8.78l.44-2.64.44-.44.44-2.19,2.2-1.32,9.22-5.27,3.96.88.44.44h2.2l3.07.88h1.76l1.32-.44h.44v-.44l.44-.44.88-.88.88-.44.88-1.32.88-1.32.44-.88h.44l.44-1.32v-.88l.88-.88.88-.88.44-1.32,1.75-1.75v-.44l.88-.88,2.63-2.2.88-1.32.88-2.64.44-3.51.44-2.64v-1.75h-3.52l-1.75-.44h-4.83l-3.52-1.76h-.44l-1.32-.88-2.64-1.32-3.07-1.76-4.4-2.2h-.44l-.44-.44-.88-.44-.44-.44v-5.71l.44-.88.44-.88v-.44l.44-.44.88-.44v-.44h.44l.44-.44.44-.44,1.32-.44.88-.88.44-.44h.44l.44-.44v-.44l-.88-.88-.44-.44-.88-.88-1.75-1.32-1.76-2.2h.44l.88-.44.44-.44.44-.44.88-.88.44-.88v-2.2l.44-.44h.88v-.44h.44v-.44h.88l.44-.44v-.44h1.32v-.44h.44v-.44h.44v-.44h.88v-.88h.44v-.44.44l.44-.44h.88v-1.75h.44v-.88h.44v-.44h.44v-.44h.44v-2.64l-.44-.44v-1.32h.44v-.88h.44v-.44h.44v-.44h-.44v-.44h.44v-.88h.88l-.88-.44v-.44h-.44l-.44-.44h-.88l-.44.44h-.88l-.88-.44h-1.76v-.44l-.44-.44-.88-.44-.44-.44-1.76-1.32v-.44l.44-1.75v-.44l-.44-1.32.44-.44,1.32-.88h.44v-.44l.44-1.32,1.32-3.08.44-1.32v-.44l1.32-.44h.44l.88-.44v-.44l.88-.44h.44l.88-.44.44-.44v-1.76l.44-.44.44-.44.44-.88.44-.44.44-.44v-.88l.44-.44.44-.88.44-.88v-.44h.44l2.19-1.76,3.96-3.51.88-.88,1.32-.88h.44l1.32-.88,2.19-1.76h.88v-.44h.88l.44-.44.44-.44.44-.88.44-.44.44-.88.44-.44h.44v-.44h.44v-.88h.44v-.44l.44-.44h.44v-.44h.88v-.44h.44v-.44h.44v-.88h.44v-.88h.44l.88-2.2h-1.75v-.44l-.44-.88h-.44l-.44-.44-.44-.44-.88-.44,1.75-1.32-4.83-.88-.44.44h-2.64l-.44.44-1.76.88h-.88l-1.32-.88v-.44h-.44v-.76l-12.74-.12-9.22,5.44Z"/>
  <text class="cls-1" text-anchor="middle" alignment-baseline="central">
    <tspan x="250" y="280">Kall-Nettersheim</tspan>
    <tspan x="250" y="322">(Steinfeld)</tspan>
  </text>
</svg>