<?xml version="1.0" encoding="UTF-8"?>
<svg xmlns="http://www.w3.org/2000/svg" viewBox="0 0 512 512">
  <defs>
    <style>
      .cls-1 {
        fill: #fff;
        font-family: DMSans-Bold, 'DM Sans', sans-serif;
        font-size: 28px;
        font-variation-settings: 'opsz' 14, 'wght' 700;
        font-weight: 700;
      }

      .cls-4 {
        fill: #825e8b;
        stroke: #f2f2f2;
        stroke-linejoin: round;
        stroke-width: 6px;
      }
    </style>
  </defs>
  <path class="cls-4" d="M449.55,177.53l1.6-6.4-20.01-13.81,18.41-11.02-8.8-9.61,24.43-20.5c-1.78-2.85-16.66-26.84-17.23-28.53-.6-1.8-7.81-21.62-7.81-21.62l-21.11-7.04-27.53-9.18h-49.84l-25.82-38.43-6.04-8.39-29.39,34.81-22.22-14.41s-45.04,20.42-72.66,43.24c-19.44,16.06-37.65,46.33-46.76,62.89-.11.24-15.92,33.68-23.1,57.61-7.21,24.02-17.62,74.46-17.62,74.46l12.82,4.01-12.01,31.22-5.38,4.79-24.25,21.63-7.7,23.11,11.71,15.3-4.01,8.03h-22.41l6.7,19.16,10.11,28.89,33.63-8.8,16.01,18.21h8.8l41.63,13.02,12.01,10.4,9.61-16.01,9.61-7.41,16.01,4.2,32.03,19.22,32.83,32.03,22.41,26.41h13.61l3.21-4,12.01-4.98v-7.42l27.22-3.62,7.21,4.86,7.21-17.68,16.02,2.4,1.14-6.4,2.86-16.01-18.41-17.62-12.01,3.21-15.93-27.01-20.91-35.45,12.01-17.64-11.21-11.98,35.23-20.82,16.01-21.62,29.63-19.22,13.61-24.82,12.81,4,8.01-19.21h-6.4l24.02-27.23-7.21-13.62h10.4l-13.61-16.01,13.61-2.4-8.8-11.21Z"/>
  <text id="Baesweiler"  class="cls-1" text-anchor="middle" alignment-baseline="central">
    <tspan x="266" y="240">Baesweiler</tspan>
  </text>
</svg>