<?xml version="1.0" encoding="UTF-8"?>
<svg xmlns="http://www.w3.org/2000/svg" viewBox="0 0 512 512">
  <defs>
    <style>
      .cls-1 {
        fill: #fff;
        font-family: DMSans-Bold, 'DM Sans', sans-serif;
        font-size: 28px;
        font-variation-settings: 'opsz' 14, 'wght' 700;
        font-weight: 700;
      }

      .cls-2 {
        fill: #91c1c8;
        stroke: #f2f2f2;
        stroke-linejoin: round;
        stroke-width: 6px;
      }

    </style>
  </defs>
  <path class="cls-2" d="M34.02,309.02l35.79-4.33,8.22,4.33v7.13l23.58-4.39,3.29,10.98,10.34-3.85,3.37,13.16s18.64,17.55,21.39,17c2.74-.55,11.51-6.03,11.51-6.03l8.22,6.04v3.83l25.45,14.26-10.1,17,17.55,7.68,22.22,31.02,4.09,5.72-3.59,9.87,14.56,21.37h0s3.18-1.71,3.18-1.71h.02s14.1-7.61,14.1-7.61c0,0,21.62,15.35,22.17,13.16.55-2.19-3.29-8.49,0-8.36,3.29.13,8.23,2.33,8.23,2.33l7.67-15.9-7.13-7.68,7.13-8.64,4.39,3.16,14.81-18.09,21.93,9.87,6.58-1.1v6.17l5.48-.57,4.93.57,4.94-2.88,2.74,13.16,8.23,1.1-2.19,5.48,5.48,6.58,4.93-3.29,4.93-10.97,7.13-9.19,13.16,3.16,2.74-11.51,6.83,1.09v6.69l33.74,13.6v-5.48l12.61-4.39,2.74,4.93,3.29-4.93h5.48l2.19,3.29,20.83-15.9,6.03,2.19,10.15-14.66,9.59-13.85-3.06-1.95-2.97-1.89v-4.39l-15.35-5.48-4.93-6.03,1.64-8.77-5.48-4.38,2.74-5.48-15.35-14.26-2.74-7.68-7.13-1.1-3.84-5.47-5.48-5.5,4.39-3.29-.55-4.39,1.64-5.44-6.95-10.09-5.85-1.9-7.68-7.6-3.29-2.19.37-5.85-10.97-2.25-8.77-17.85-7.68-5.85-4.75-12.06-8.41-10.6-.36-13.99,4.8-7.46-.23.06v-14.26l-13.16-3.29v-10.42l-14.26-4.93-18.64-12.61-15.72-2.19-13.34-21.93-17.54-8.22h-14.26l-8.77-18.1h-10.97v-25.77l-9.87-11.6v-9.87l-6.03-8.13-4.76-7-.47.47h-1.13l-2.26,1.13h-.56l-2.82,1.12-2.82,1.13h-.56v1.13l.56.56.56,2.25v1.13h-.56v.56h-.56l-.56.56h-3.39l-.56.56h-.56v.56h-.56v1.13h-.56l-.56-.56v.56h-1.69v.56h-.56l-1.69-.56h-6.77l-5.08,1.69v.57l-3.38.56-1.69,1.13-4.52,2.82-1.12,1.13-2.82,3.38-.56,1.13-1.13,1.13v.56l-.56.56-1.13,1.69-.56.56v.57l-.56,1.12-2.26,3.95-.56.56v.57l1.12.56v.56h1.13v.57l1.13,1.69-.56.56-.56.56-1.13,1.13-3.39,3.38-1.69,2.26v.56l-1.69,1.69h-.56v.56l-1.69,1.13-1.69,1.69-2.26,2.25-1.69,1.69-4.51,3.95-2.26,2.25v.56l-3.39,2.82-2.25-.56h-.56l-1.13.56h-.56l-.57.56-1.12,1.69-.56.57-.56.56-2.82,3.39-1.13,1.69v.57h-.56l-.56,1.12-.57.57-.56.56-.56.56-.57.56-.56.56-1.13,1.13h-.56l-3.38,2.25-2.26,1.13-2.26.56h-.56l-1.69.56-.56.56h-.56l-2.82.56-1.12.56h-3.96l-1.69.56h-1.69l-1.69,1.12-1.69,1.13-.56.56h-3.39l-1.69,1.13h-1.13l-.56.57-1.69-1.7-1.69-1.69h-.57l-2.25-2.82-2.26,3.39-.56,1.12-1.69,2.82-1.12.56-.57.56-1.12,1.13-.56.56-2.82,1.13h-2.26l-.56-.57h-2.26l-1.13.57-.56.56v.56l-.56.57-.56.56v.56h-.57l-.56,1.69-1.13.57-.56.56-1.13.56-.56.57-1.13,1.12-2.25,2.82-1.13,1.13-1.12.56-.56.56h-.56l-1.69,1.13-2.25,1.69-4.51,2.26v.56l-.56.56h-.56l-2.82,1.69-3.95,3.38-2.82,3.95-4.51,5.08-1.13,1.69-3.39,6.77-.56,1.13-1.69,3.39-.56.56-1.13,2.26-1.12,2.82-7.34,3.38h-1.69l-1.12.56h-1.13l-1.69.56-.56-.56-.56.56h-.56l-1.13,1.69-1.13.56h-.56v1.69l-.56.57-.57,1.12,3.95,6.2-1.69,1.69-5.08,3.95v2.82l-.57,1.13-.56,1.13-1.13,1.69-2.26,2.82h-1.13l-.56.56-1.69,3.39-.56,1.12h-1.69l-1.69.56-2.82,3.39h-.56l-1.13.56-.56.57-1.12,1.69-.57,1.13v.56l1.13.56v1.69l.56,1.69v2.26l-.56,1.13v.56l-1.13,2.82v.56l-.56.57-1.13.56-1.12,1.69-1.69,1.69,1.69,1.69,1.12.56,1.13,1.13v2.82l-1.13,1.13v1.69l-.56,2.25-1.13,1.13-1.13,1.69-.56,1.12v.57l.56,2.81v1.13l1.13,1.69v1.13l-.56.56v.56l-.56.56-.56.56v.56l.56,2.26,1.13,1.69-1.27.85,4.09,1.23,26.51,19.74Z"/>
  <text class="cls-1" text-anchor="middle" alignment-baseline="central">
    <tspan x="226" y="256">Heinsbeberg</tspan>
  </text>
</svg>