<?xml version="1.0" encoding="UTF-8"?>
<svg xmlns="http://www.w3.org/2000/svg" viewBox="0 0 512 512">
  <defs>
    <style>
      .cls-1 {
        fill: #b19bb8;
      }

      .cls-1, .cls-2, .cls-3 {
        stroke: #f2f2f2;
        stroke-linejoin: round;
        stroke-width: 2px;
      }

      .cls-2 {
        fill: #997ca1;
      }

      .cls-3 {
        fill: #825e8b;
      }

      .cls-8 {
        fill: #fff;
        font-family: DMSans-Bold, 'DM Sans', sans-serif;
        font-size: 18px;
        font-variation-settings: 'opsz' 14, 'wght' 700;
        font-weight: 700;
      }

    </style>
  </defs>
  <path class="cls-3" d="M459.79,315.14v1.42l-3.67,1.83-3.45,1.73-3.43-1.39-3.26-1.32-2.14,1.88-4.27,2.82-3.13,1.57v2.99h0s-2.42,0-2.42,0h-1.57l-4.84-9.51h0s0,0,0,0l.75-.69.67-.62-.75-.68-.67-.6-.85-.43-.93-1.99-.93-1.99-6.41,4.98-2.28,1.28-1.71-.43-.86-.6-.78-.54-6.76,3.42-1.49-.07-1.5-.07h0v-1.85l-10.25,2.28-3.83-1.97-1.72-.88-.84-.64-1.01-.78-3.66.7-3.75.72-5.49,1.37-5.32,1.33-.68-.66-.6-.59-2.37.42-2.32.41-3.27,1.18-3.42,1.24-1,.07-.99.07.89,2.27.68,1.72h0,0s-.85.04-1.76.09c-.91.05-1.87.13-2.08.2-.09.03-.39.05-.78.07-1.42.07-4.2.07-4.2.07l-2.48.07-2.78.08-3.42-2.42v7.54l1.28,1.57.28,7.69h0s-7.54,1.28-7.54,1.28h0s-8.4.71-8.4.71l-8.82,1.32h-4.55l-1.39-.3-6.01-1.31-5.83-.28-3.82.92-.88.21-5.65.75h0l-2.32-1.04-2.56,1.04-5.55,3.37-5.41,1.85-2.56,4.55-.45.31-1.4.97-1.43.57-.56.23-.17.67-.68,2.66h-2.99l-4.05-2.96-.51-.37-3.7,2.05-1.28,4.55-2.28,1.42-6.41,1.99-1.05,4.27.62,2.56,1.23,1.28h-6.07l-1.71-1.57v-1.57l-3.12-1.5-.72-.35-3.13.43v1.28l-.56.32-2.43,1.39-3.01,2.66-.69.61-1.42,1h-3.13v-1.85h-2.85l-.21.19-.92.81h0s0,0,0,0v-2.7l-5.41,3.56-2.58,1.06-.55.23v1.38h-1.57l-4.41,2.6-3.98,5.12,1.14,1.14,1.14.71s5.98,4.13,5.98,4.55c0,.14.18.56.41,1.05.46.97,1.15,2.23,1.15,2.23l-.93,3.35-.21.77h-6.55l-.05.21-.23.93h-1.85l-2.8,3.9h0s.88,1.76.88,1.76h.22v.66l.22.22.66,1.32v1.54l.22.22.22.66.22.44h.22v.22l.88.88v.22l.22.44v.22h.44l2.2.22.22.66.22.44-.22.44v1.1l-.44.22h-.44l-.66.22-.22.66-.44,1.54-.22.22-.22.22h-.22v.22l-.22.22-.44.44h-.44l-.22.44-.22.66v.66h-.66l-.22.22h-.22v1.98l.22.22h.22l.66.22h.44v.44h.22l.44.22h.22l.22.22.44.22h1.54l.66.22h-.22v.44l-.44.66v.44h-.22l-.22.22h-.22v.88l.22.44v1.32l.22.44v.22l-.22.22v.44l.22.22.22-.22,1.32.22h.44l.22.22.22.22.22.44.22.22.22.66v.44l.22.22.22.44h.22l.44-.22.22-.22.88.88.22.88.22.44.44.88.22.44.22.44.22.44.44.22,1.32-1.32h1.1v-.88l-.44-1.32v-.44l-.22-.66.66-.66.22-.22.44-.66h.22l.22-.44h.22l.66-.44-.22-.22h1.98l-.44-.44h-.66v-.22l-.22-.44-.22-.22-.22-.22.66-.44.66-.44h.22l.66-.22.44-.22h.44l.44-.22.22-.22.22-.22h.88l.22-.22.22-.22.22.22.22.22h.44l.22-.22.22.22h.88l.22.22.44-.22.66.44h.22l.22.22h.44l.22-.22h.22l.22.22.22.22.22.22.22.22h.22v.44l-.22.66v.44l-.22.88-.22.66-.22.22v.44l-.22.22v1.1l.44.88.22.44v.66l.44.44v.22l.22.88v.44l.44.66.66.22.22.22v-.22l.66-.44.22-.22v.22l.44.44v.22l.66.66v.22h.22l.22.44v-.22h.66v-.22h.22l.88-.22.22-.22h.88v.22h.22l.22.22.22.22v.22l.22.22v.44l.22.22v.22l.44.22.22.22.44.44v.22l-.22.22.66,1.54v.44l-.22.22-.22.44v.22l-.22.22-.22.88v1.1l-.44,1.1-.22.66-.22.22-.88,2.42-.22.44-.22.66v.88l-.22.44v1.32l-.22.44-.22.22.22.22v1.1l-.22.66v1.54l.22.66v.22l.22.44.22.22v.22l.22.66v.22l.22.44v.44l-.22.22-.22.22h-.22v.22h-.22l-.66.88-.88.66v.22h-.22v.22h-.22v.22l-.44.22h-.44l-.22.22-.66.44-.22.66h-.22v.22l-.22.44-.22.22-.22.22v.22l-.44.66-.22.22-.22.22-.22.22h-.22l-.22.22v.22h-.44l.22.22v.22l.44.66v.44l.22.44v.66l.22.44.22.22h.22v.22h.88l.22-.22h.44l.22-.22.22-.22.22-.44.22-.22h.22l.22-.22.22-.22.22-.22.22-.22.22-.22.22-.22h.22v-.22h.66l.44-.44.44-.22v-.22l.44-.44.22-.22.44-.22.22-.22h.22v-.22h.44l.22-.22h.22v-.44h.22l.22-.44v.22l.44-.22.22-.44.44-.88.88-.66.88-.66,1.32.22h.22l1.98.66.88.44.44.66.22,1.1v1.1l.22.22h.44v.22h.66l.44.22.22.22h.44l.22.22v.22l.22-.22.44.44h.22v-.22l.22.22h.88v.22h.22v-.22h.66v-.22h1.32v.22h1.1l.22-.22v.22h.88v.22h1.1l.22-.22h.44v.22h.22v-.44l-.44-.88.44-.22.66-.22.66-.22,1.1-.66h.22v-.22l-.44-.88-.22-.22v-1.1l-.22-.44v-.44h.66v-.22l.44-.22h.44l.22-.22h.22v-.22l1.54-1.32v-.22l.44-.22.22-.44.22-.66h.22l.88-1.76v-.22h.66l.22-.22,1.1-.66.44-.44h.22l.44-.44.44-.44.66-.44.22-.22h.88l.22-.22h.22l.22-.22.22-.22h.44l.22-.22h1.54l.44-.22.22-.22v-.22l.22-.22v-.22h.22v-.66l-.22-.22v.22l-.22-.22.22-.22v-1.1l-.22-.22v-.44l-.22-.22h.22v-.44h-.22l-.22-.44h.22v-.44h.22v-.22h-.22v-.22h-.22l.22-.22h.22v-.22h.22v-.22h.22l-.22-.22v-.22l.22-.22v-1.1h.22v-.22l.22-.22h.22v-.22l.22-.22.44-.44.44-.66.22-.44v-.22l1.32-.22h.44l.44.22h.44l.44.22h.22v.22h.44l.22.22v.22l.44.22.22.22.22.22v.44h.22l.66,1.1.44.44-.22.22.44.44.44.44.44.22.44.44h.44v.22h.22v-.22l-.44-.88-.44-.44v-1.32h.88v-.44h-.22v-.22h.66v.22h.22l.22-.22-.44-.66v-.22l-.22-.22-.44-.66-.44-.44h.22v-.22l-.22-.22-.44-.66v-.22l.22-.22.22-.22.22-.22.22-.44.22-.44v-.22l.22-.22,1.98-.44h.44l.22.22.22.22.22-.44,1.76-1.54.66-.44.44-.44.44-.22.44-.44.22-.22.44-.44.22-.22,1.1-.66.22-.22v-.22l-.44-.44,1.32-1.76.66-.88.22.44h.44l.22-.22.44-.44.88-.22,1.32-.44h.44l.22-.22h.22l.22.88,1.76-.44,1.54-1.1.44-.22h1.76l.44.22h.22l.88.44.22.22.66.44v.88l-.66,1.32-.22.22-.44.44-.22.44.22,1.1v.22h1.98l.22-.22v.22l.22-.22h.22l.22-.22h.22v-.22h.44l.44-.22h.66v-.22h.88l.22-.22h.88v-.22h1.32v-.22h.66v-.22h.22v-.66h.22l.88-.22h.88l.66-.22.66.22.22-.22h.44l.22-.22.66-.44.66-.22.88-.88.22-.22.22-.22.88-.44.44-.22.22-.22h.22l.66-.22h.88l.44-.66.22-.22v-.88l.22-.66.66-1.1.44-1.1.88-1.1v-.22h1.75l1.1-.22.88.44.66-.22h.22l.22-.22h.22l.22-.22h.66l.66-.22.44-.22h.44l.22-.22.22-.22,1.76-.66h1.1v-.44l.22-.44.66-1.1.44-.66.22-.44,1.1-1.98,2.86-1.76,1.1-.22h.22l4.17-.88,1.32-.66.88-.44.44-.44.44-.44.44-.22.44-.22.44-.22,2.42-1.32v.22l.88,1.76h.66v.22h-.22v.44h-.22v.66h-.22v.22l.44.44.22,1.1.22.88v1.32l.44.88v.22l.22,1.1-1.76,1.1-2.85,1.98.88,1.98.44.88.22.22.44,1.1h.88v-.22l.22-.22.44.22.44-.22.66.22h.22l.22-.22.44-.22h.22l.44-.44h1.32l.22-.22,1.54-.22.66-.22h.66l.44-.22.22.44h.22l.22.88,1.54-.88.22.22.44.44v.22l.22.22h.22v.44h.22v.22h.66v.22h.66l.22.44h.22v.22h.22l.22.22h.22v.22h.66v-.22h.88l.22-1.32.22.22.66,1.1.44.88.88,1.32.22.88v.66h-1.54v.22l.22,1.32v1.98l.22.44.22.22.44-.22-.22.66-.22.66v.44l-.22.44v.22l-.22.44v1.76l-.22,1.54-.22.66-.66.22v.22l.22.88v.22l-.66.88v.22l-.88.44v.44l-1.1.66.66,1.32h.22l-.44,1.54v1.1l-.66.66-.22.22v.66l.22.22.22.66.22.44.44.44v.22l-.88.66-.22.22.88,1.32.66,1.1h.22l.66-.44h.66l.22-.22v.22h.22v.22h.22l.22.22.44.22.44.22h.22l.44.22.44.22.44.22-.88.44.44.66.22.22.44.44v.22l.22.22v.44l.22.22.22.22h.22v.22h.22v.22h.22l.88-.66.44.88.44.66,1.1,1.32.66,1.1.44.66.66-.22.66.22.44-.44.88-.88.22-.22.66-.44-.22-.22h.22l.66-.22.44-.22h.66l1.1.22h.22l.88-.22h.22l1.1-.22.88-.22h.44l.88-.22.22-.22.22-.22.22-.22.66-.88h.22v-.66l.22-.22h.22l.22-.44.22-.22h.22l.66-.66h.22v-.22l-.44-.44v-.44l-.44-.22-.22-.22,1.1-.44.22-.22h.44v-.22l.22-.22.22-.66.44-.66v-.44h-.22l.22-.22v-.44l.22-.22.22-.22.88-1.1.22-.44.22-.22v-.44l-.44-.66.22-.22-.22-.22v-.44l-.22-.66v-.22l-.22-7.91v-1.1l.44-.44v-.22l-.44-1.1v-.22l.44-.44.22-.22v-.22l.44-.22.22-.22h.22l.44-.44.66-.44,1.1-.22.66-.22.44-.44.66-.22.66-.44h.22l.88-.22.88-.22.22-.22.66-.44h.22l.22-.22h.88v.66l.22.22h.22v.44l.66.44v.66l1.1.66.88.44v.22l.22,1.1h.88v1.1l.22.22v.22l.66-.22.22.66.44.44.44.66.88.88v.22l.44-.44.88,1.54.22.22.66,1.1.22.66h.44l.66-.44.22.22v.22l.66.66.22.44,1.1,1.32v.22h.22l.88,1.1v.22l.22-.22v.22l.66,1.1v.22l-.22.22v1.54l.22.44v1.1l.22.44v.66l.44,1.32.22.22.22.66.22.66.44.88.88,1.32v.22l.66,1.1.22.22v.44h.22l.44.66,1.1,1.32.22.44h.22l.22.44.88,1.1.22.22.22.44v1.1l-.22.66v1.1l-.44,1.32.22,1.1.22.44v1.98l.22.22.66,1.54.44,1.75.22,2.2h.22l.22-.66.44-.44.44-.44v-.22l.66-.44.66-.66.22-.22.44-.44v-.22l.22-.44.22-.66v-.22l.22-.44v-.22l.44-.44v-.22l.44-.44.22-.22.22-.22.22-.22v-.22l.22-.22.22-.44h.22l.22-.22h.22v-.22h.22v-.22.22h.22v-.22h.22v-.22h.44l.22-.22h.22v-.22l.22.22v-.22l.22-.22h.44l.22-.22h.44l.22-.22v.22h1.1v-.22l.22.22v-.22h.22v-.22h.22v.22h.44v-.22h.22v-.22h.44v-.22h.44l.22-.22h.22v-.22h.22v-.22l.22-.22h.44v-.22h.22v-.22l.22-.22v.22h.22v-.22h.22v-.22h.44v-.22h.22v-.22h1.1v-.22h.66v-.22l.22.22v-.22h.44l.22-.22h.44v-.22h.44v-.22h.88v-.22h.22v.22h.22v-.22h.22v-.22h.66v-.22h.22l.22-.22.22-.22h.22v-.22h.66l.22-.22.22-.22h.44v-.22l.22-.22h.22v-.22h.22l.22-.22.22-.22v-.22h.22v-.22l.22-.22h-.22.22l.22-.44h.22v-.22h.22l.22-.22v-.22l.22-.22.22-.22v-.22h.22v-.22l.22-.22.22.22v-.22h.22l.22-.44h-.22v-.22h.22v-.44l.22.22h.44l1.54.22.66-.44v-.22h.22l.22-.22h.44l.22-.22h.44v-.22h.66l.66-.22.66-.22h.44l.44.44,1.75-.22h.66l1.32-.22h1.1l.88-.22h.22l.66-.22.88-.22.66-.44.66-.22h.22l.22-.22h.22l.22.44.44.66.22.66v.22h.22l.44-.22.44-.22.22-.22.44-.22.44-.22v-.44l.66-.44.22-.44h.88v-.22l.88-.44h.88l.66-.44.44-.44h.22l.22-.22.44-.22h.22v-.22l.44-.22.88-.44.66-.44h.22v-.22h.66l.22-.44.66-.44.44-.22.44-.22h.22l.66-.22.66-.66h.22v-.22l.22-.22.22-.22h.22l.66.66.22.88.22.44,1.54-.66.22.22v.22l.22.66v1.1l.22-.22h.22v.22l.22-.22h.22l-.22.22-.22.44h.88l-.22-.22v-.44l.22-.44v-.44h.22v-.44l.22-.66v-1.1l.22-.44.22-.22.22-.22-.22-.44-.44-.66v-.66l-.22-.44v-.22l.22-.44h1.1l.88.22.88.22.66.88-.88.44.88.44.44.44.44.22v.44l.88-.22.66-.22h.44v-.22l1.1-.22,1.1-.22.44.22.66.22,1.98.88,4.39-1.76v3.29l.66-.22h.22l-.22.22v.22l-.22.22-.22.44,2.42-1.1v-.66l-.22-.22-.22-.44.22-.66v-.22h-.22v-.22l-.22-.44.88-.22v-.44l.44-1.1.44-.88.22-.66.22-.22v-.22l.44-1.32.22-.44v-.88l.22-1.54-.66-.22-.66-.44-1.54-.22h-.44v-.22h-.22l-.22-.22-1.1.22-.44-.22h-.66l-.44-.22-.44-.22-1.76-1.1-1.32-.88-.66-.44-1.1-.66-1.32-.88-1.76-1.1v-.88l1.32-.66-1.1-1.76-.22-.22v-.22l-.66-1.1-.66-1.1h-.22v-.22l-.22-.44-.88-2.64-.88-1.98-.44.22-.44-1.76-.66-1.32h-.22l-.66.22v-.66l-.44-1.54-.22-.22-.44-.66h.22v-.22l-.88-1.54-.44-1.1v-.22l-.44-.66-.66-.66-.66-.88-.66-.88-.88-1.1v-1.98l.22-.66v-1.54h.22l.88-2.85.66-1.32,1.1-1.76.22-.22.66-.66.44-.44v-.22.22l1.32-1.32.44-.22.22-.22v-.22l.88-.66.22-.22.88-.88.66.22-.22-.22v-5.49l-.22-1.1v-2.86l.22-.66v-1.32l.66-.66.22-.44v-.22l.22-.66.22-1.98.22-.22v.22l.22-.66.22-.44.66-.88v-.22h.22v-.22l.22-.22v-.22l.22-.22v-.22l.22-.22h.22v-.22h.22v-.22h.22l.22-.22v-.22h.22v-.22h.22v-.22h-.22v-.22h-.22v-.22h-.22v-.22h-.22v-.44h-.22l-.22-.22v-.22h-.22v-.22h-.22v-.22h-.22v-.22l-.22.22h-.22v-.44l-.22-.22h-.44v-.22l-.22-.22v-.22h-.22v-.22l-.22-.22-.22-.22h-.44l-.22-.22-.22-.22v-.22l-.22.22h-.22v-.22h-.44v-.22l-.22.22h-.22v-.22h-.22v.22h-.22l-.22-.22h-1.1l-.22.22-.22-.22h-.66l-.22-.22-.22-.22h-.22l-.22-.22h-.22v-.22l-.22.22v-.22l-.22.22-.22-.22-.66-.22h-.44l.22-.44.22-.22.22-.44v-.22l.22-.22v-.44h-.22v-.66l-.22-.22v-.66l.22-.22h-.22l.22-.22v-.44h-.22v-.22l-.22-.22v-1.32h-.22v-1.1l-.22-.22v-.66h-.22v-1.98l.22-.44v-.44l.22-.22v-.44l.22-.22.22-.22v-.22h.22v-.22l.22-.22v-.22l.22-.22v-.22l.22-.44v-.22l-.22.22h-.22l-.44.22h-.22l-.22.22h-.22v.22h-.66l-.22.22-.22.22h-.44l-.22.22h-.22v.22h-.22l-.22.22h-.44v.44h-.66v.22h-.22v.22h-.66v.22h-.22v.22h-.22v-.22h-.22l-.22.22h-.22l-.66.88-.22.22h-.22v.22h-.22l-.22.44-.22.22-.22.22-.22-.22-.22-.22v-.44h-.22l-.22-.44-.44-.88h-.22l-.44-.66-.22-.44h-.66l-.44.22h-.22l-.22-.22h-1.54l-.22-.22h-.22l-.22.22h-.44l-.22.22h-.88l-.44-.22h-.44l-.22.22v-.22h-.22l-.22-.22h-.22v-.22h-.22v-.22h-.22l-.22-.22.22-.22h.22l-.22-.22v-.22h-.44l-.22-.22-.44-.22-.66-.22h-.44l-.22-.22v-.44l-.22-.44v-.22l-.22-.66.44-.66v-.22l.44-.44-.22-.22v-.22l-.22-.66-.22-.22v-.22l-.22-.22v-.22l-.22-.22v-.22l-.22-.44-.22-.44-.22-.44.66-.66.44-.44.44-.44.88-.44.44-.44.66-.44.22-.22h.22l.22-.22.66-.44v-.22h.22l.22-.22.44-.22.22-.22.44-.44.44-.22h.22l.22-.22,1.98-1.1h.22l.44-.22.44-.22.44-.22.66-.44.66-.44.66-.66.44-.22.22-.22.66-.22.88-.88,1.76-1.1.44-.44.44-.22v-5.49h-.22l-1.1-.88.22-.66v-.22h.22l-.22-.22h.44v-.66l.22-.22v-.22h.44v-.22h.22v-.22h.44v-.22h1.1v-.22l-.22-.44v-.22h-.22v-.66l-.44-.44-.66-1.32.22-1.1v-.66h-.44l-.22-.22h-.22l-.66-.88-.66.22-.88.44-.88.22-.44.22-.88-.88-.88-.66v-1.1l-.22-.22-.22-1.32,1.54-1.32-.22-1.1v-.22l.66-.88-.22-.22-.22-.22v-1.12l-5.49.5v.84l-.22-.22h-.22l-.22.22v1.1h-.22l-.22.22h-.22v.22h-.22v.22h-.44l-.22.22-.22.22-.22-.22-.22.22-.22-.22h-.44l-.22-.22v.22l-.22-.22h-.66v-.22h-.22v-.22h-.22v-.22h-.44v-.22h-.22v-.22h-.44v-.22l-.22-.22h-.22l-.22-.22v-.22l-2.79,1.12-1.62.65Z"/>
  <text class="cls-8" text-anchor="middle" alignment-baseline="central">
    <tspan x="395" y="375">Blankenheim/</tspan>
    <tspan x="395" y="402">Dahlem</tspan>
  </text>
  <path class="cls-2" d="M478.91,238.7l-4.61,2.72-6.04-7.26-.39.29-3.67,2.72h0s0,0,0,0l-.63-2.87-.03-.14-9.59,8.33-5.57-3.34-3.4-.82-8.33-6.51-2.56-1.07-10.25-10.67h-1.92s-1.28-3.2-1.28-3.2l-.85,3.63-2.7-.21-1.35,2.99-2.14-1.48-.47.29-2.3,1.41-2.79.19-.42.03-.41.64-2.58,4.06v5.55l-6.46,3.93-2.08,1.26h0s0,0,0,0v-2.2h-2.77l-1.11,1.91-.16.29-2.52-.93-5.16,3.42h0s-.02-.05-.02-.05l-1.91-4.64h-1.13s-20.01.22-20.01.22l-1.12-.77-.8-.55-3.41-4.68h0s2.14-4.48,2.14-4.48l-2.13-3.42-.31.03-2.04.19-2.08-3.33-.05-.09h0s1.92-4.48,1.92-4.48h-2.78v-2.14h0s1.49,0,1.49,0l4.7-24.76-1.07-1.07h-2.99l-3.84-1.07-5.34-2.14h0s0,0,0,0v-1.72l.6-.3,3.24-1.61-3.59-3.39-.25-.24h0,0s1.64-1.27,1.64-1.27l-.29-.32-1.35-1.48-.37.29-1.41,1.13h0s0,0,0,0l-2.7-3.42-3.37,1.99-5.73-.28.71,3.13-2.66.28-.61,3.84-4.7,3.7,1,4.55,1.57,3,.14.27h0s-1.89.38-3.72.82c-1.72.42-3.4.89-3.4,1.17,0,.57-1.57,1.28-1.57,1.28l-6.22.87-.9.13h0s0,0,0,0v-10.39l-1.92-1.38-2.51,1.57-5.25,3.28-1.57-.76-1.57.76-1.04-.87-2.09-1.74-.36.41-1.35,1.58-1,3.98h0s0,0,0,0l-2.49,1.27-4.2,2.14-1.28,14.94,2.28,7.26-9.29,11.35-2.24,2.74,1.56,2.13,2.26-.72,1.29-.41s0,4.55-.43,4.7c0,0,0,0,0,0,0,0,0,0,0,0-.04.01-.11.04-.18.07-.37.15-1.16.5-1.9.83-.78.35-1.48.67-1.48.67l1,5.55-1.52,1.1-2.6,1.88-2.1-.39-3.17-.59v8.4l-1.88.53-1.68.47-5.55.57v11.81l-1.54-.25-2.02-.32-3.13,3.27-4.55,1.71-.18.39-3.95,8.72v1.85s-1.73,1.84-2,2.66c-.05.14-.06.27,0,.33.43.43,10.25,6.55,10.25,6.55l.66-.73,1.76-1.97,2.8-3.56.9-1.14,2.28-2.94,5.41-3.46s.94,2.04,1.6,3.27c.23.42.42.75.53.86.14.14.49.46.9.83.85.76,1.95,1.73,1.95,1.73l3.72,2.53.26.18,1.99-1.28,2.95,2.08,1.29.91h0s0,0,0,0l-1.97,1.27-1.13.73-.71,2.01-3.36,2.51-1.76,1.32-.61.57-1.38,1.28-2.56,1.28-2.13,3.84,6.26,1.99.56-.37.87-.57h0s0,0,0,0l.43,1.65-1.71,1.71,1.87,1.12.97.58h0s0,0,0,0l-.32.82-.4,1.03,1.99.44,1.85.41-.71,2.56h5.55l1.26,1.36.59.64h3.84l1.85-.68,6.12,1.54,4.7-1.54h0s0,0,0,0l-1.5,2.23-.21.31h2.7l1.14-.96.71-.6,1.78-1.07,1.06-.64,1.43.39,1.28.35,2.14-1.02,4.84,6.69,2.85,3.42,4.7,4.13,3.42,1.57.97,1.26,4.16,5.43,7.54-1.28-.28-7.69-1.28-1.57v-7.54h0s0,0,0,0l3.42,2.42,2.78-.07,2.48-.07s2.78,0,4.2-.07c.4-.02.69-.04.78-.07.21-.07,1.17-.14,2.08-.2.91-.05,1.76-.09,1.76-.09l-.67-1.72-.89-2.27h0,0s.99-.07.99-.07l1-.07,3.42-1.24,3.27-1.18,2.32-.41,2.37-.42.6.59.68.66,5.32-1.33,5.49-1.37,3.75-.72,3.66-.7,1.01.78.84.64,1.72.88,3.83,1.97,10.25-2.28h0v1.85l1.5.07,1.49.07,6.76-3.42.78.54.86.59,1.71.43,2.28-1.28,6.41-4.98.93,1.99.93,1.99.85.43.67.6.75.68h0s0,0,0,0l-.67.62-.75.69,4.84,9.51h3.99v-2.99h0s3.13-1.57,3.13-1.57l4.27-2.82,2.14-1.88,3.26,1.32,3.43,1.39,3.45-1.72,3.67-1.83v-1.42h0s1.62-.65,1.62-.65l2.79-1.12h0s.88-4.39.88-4.39l.22-1.32.22-.22.22-1.1,1.1-.66,4.61-2.64,1.98.44.22.22h1.1l1.54.44h.88l.66-.22h.22v-.22l.22-.22.44-.44.44-.22.44-.66.44-.66.22-.44h.22l.22-.66v-.44l.44-.44.44-.44.22-.66.88-.88v-.22l.44-.44,1.32-1.1.44-.66.44-1.32.22-1.76.22-1.32v-.88h-1.76l-.88-.22h-2.42l-1.76-.88h-.22l-.66-.44-1.32-.66-1.54-.88-2.2-1.1h-.22l-.22-.22-.44-.22-.22-.22v-2.85l.22-.44.22-.44v-.22l.22-.22.44-.22v-.22h.22l.22-.22.22-.22.66-.22.44-.44.22-.22h.22l.22-.22v-.22l-.44-.44-.22-.22-.44-.44-.88-.66-.88-1.1h.22l.44-.22.22-.22.22-.22.44-.44.22-.44v-1.1l.22-.22h.44v-.22h.22v-.22h.44l.22-.22v-.22h.66v-.22h.22v-.22h.22v-.22h.44v-.44h.22v-.22.22l.22-.22h.44v-.88h.22v-.44h.22v-.22h.22v-.22h.22v-1.32l-.22-.22v-.66h.22v-.44h.22v-.22h.22v-.22h-.22v-.22h.22v-.44h.44l-.44-.22v-.22h-.22l-.22-.22h-.44l-.22.22h-.44l-.44-.22h-.88v-.22l-.22-.22-.44-.22-.22-.22-.88-.66v-.22l.22-.88v-.22l-.22-.66.22-.22.66-.44h.22v-.22l.22-.66.66-1.54.22-.66v-.22l.66-.22h.22l.44-.22v-.22l.44-.22h.22l.44-.22.22-.22v-.88l.22-.22.22-.22.22-.44.22-.22.22-.22v-.44l.22-.22.22-.44.22-.44v-.22h.22l1.1-.88,1.98-1.75.44-.44.66-.44h.22l.66-.44,1.1-.88h.44v-.22h.44l.22-.22.22-.22.22-.44.22-.22.22-.44.22-.22h.22v-.22h.22v-.44h.22v-.22l.22-.22h.22v-.22h.44v-.22h.22v-.22h.22v-.44h.22v-.44h.22l.44-1.1h-.88v-.22l-.22-.44h-.22l-.22-.22-.22-.22-.44-.22.88-.66-2.41-.44-.22.22h-1.32l-.22.22-.88.44h-.44l-.66-.44v-.22h-.22v-.38l-4.35-.04-2.02-.02Z"/>
  <text class="cls-8" text-anchor="middle" alignment-baseline="central">
    <tspan x="375" y="270">Kall-Nettersheim</tspan>
    <tspan x="375" y="297">(Steinfeld))</tspan>
  </text>
  <path class="cls-1" d="M193.35,400.82h1.85l.23-.93.05-.21h6.55l.21-.77.92-3.35s-.69-1.26-1.15-2.23c-.23-.48-.41-.9-.41-1.05,0-.43-5.98-4.55-5.98-4.55l-1.14-.71-1.14-1.14,3.98-5.12,4.41-2.6h1.57v-1.38l.55-.23,2.58-1.06,5.41-3.56h0s0,0,0,0v2.7l.92-.81.21-.19h2.85v1.85h3.13l1.42-1,.69-.61,3.01-2.66,2.43-1.39.56-.32v-1.28l3.13-.43h0l.72.35,3.12,1.5v1.57l1.71,1.57h6.07l-1.23-1.28-.62-2.56,1.05-4.27,6.41-1.99,2.28-1.42,1.28-4.55,3.7-2.05h0s0,0,0,0l.51.37,4.05,2.96h2.99l.68-2.66.17-.67.56-.23,1.43-.57,1.41-.97.45-.31,2.56-4.55,5.41-1.85,5.55-3.37,2.56-1.04h0s0,0,0,0l2.32,1.04,5.65-.75.88-.21,3.82-.92h0s0,0,0,0l5.84.28,6.01,1.31,1.39.3h4.55l8.82-1.32,8.4-.71-4.15-5.43-.97-1.26-3.42-1.57-4.7-4.13-2.85-3.42-4.84-6.69-2.14,1.02-1.28-.35-1.43-.39-1.06.64-1.78,1.07-.71.6-1.14.96h-2.7,0s0,0,0,0l.21-.31,1.5-2.23-4.7,1.54-6.12-1.54-1.85.68h-3.84l-.59-.64-1.26-1.36h-5.55l.71-2.56-1.85-.41-1.99-.44.4-1.03.31-.82-.97-.58-1.87-1.12h0s0,0,0,0l1.71-1.71-.43-1.65-.87.57-.56.37-6.26-1.99h0s0,0,0,0l2.14-3.84,2.56-1.28,1.38-1.28.61-.57,1.76-1.32,3.36-2.51.71-2h0s1.13-.73,1.13-.73l1.97-1.27-1.29-.91-2.95-2.08-1.99,1.28h0s0,0,0,0l-.26-.18-3.72-2.53s-1.1-.97-1.95-1.74c-.41-.37-.76-.69-.9-.83-.11-.11-.3-.44-.53-.86-.66-1.22-1.6-3.27-1.6-3.27l-5.41,3.46-2.28,2.94-.9,1.14-2.8,3.56-1.76,1.97-.66.73s-9.82-6.12-10.25-6.55c-.06-.06-.05-.19,0-.33.26-.82,2-2.66,2-2.66v-1.85l3.95-8.72.18-.39h0s4.55-1.71,4.55-1.71l3.13-3.27,2.02.32,1.54.25v-11.81h0s5.55-.57,5.55-.57l1.68-.47,1.88-.53v-8.4l3.17.59,2.1.39,2.6-1.87,1.52-1.1-1-5.55s.7-.32,1.48-.66c.74-.33,1.53-.68,1.9-.83.07-.03.15-.06.18-.07.43-.15.43-4.7.43-4.7l-1.29.41-2.26.73-1.57-2.14h0s0,0,0,0l2.24-2.74,9.29-11.35-2.28-7.26,1.28-14.95,4.2-2.14,2.49-1.27.99-3.99,1.35-1.58.36-.42,2.09,1.74,1.04.87,1.57-.76,1.57.76,5.25-3.28,2.51-1.57.04-.03.03-.02-1.07-4.87-.21-.96h2.35l-4.63-4.19-5.12-4.63,7.69-6.98h9.68l2.13-1.56-.28-1.17-.43-1.82-2.38.53-2.74.61-.38-.65-4.32-7.46.71-1.42-.66-1.82-1.48-4.06-1.55-1.95-.8-1h0s0,0,0,0l.17-.15,1.47-1.28-.18-.29-1.46-2.41h0s0,0,0,0l.59-.32,2.27-1.23-.23-.16-.97-4.5-14.55,10.34-5.27-1.57-.99-2.69h0s-5.84-.01-5.84-.01l-.92-3.13-1.08,1.28-1.99-2.56-4.27,2.99-8.11,1.42-15.37-14.38-8.82-4.27-11.95-3.84-16.79-1.42-1.42-2.14-1.85.43-2.28,6.55-1.15,4.86,2.79.19v1.49h0s-1.71,2.14-1.71,2.14v5.34l-.68,1.19-.18.31-3.91,2.99-2.28-.14-.07.17-.5,1.26-6.55.43-.71-1.14-4.98,1.57-1.99-.28-.97,7.43-.08.59,4.18,7.2v1.57h0s-1.48,1.44-1.48,1.44l-4.36,4.25-.71,3.56h0s0,0,0,0l-7.69,7.97-7.54,5.63s-.52.58-1.23,1.35c-1.02,1.09-2.44,2.54-3.37,3.23-.2.15-.38.26-.52.33-.08.04-.15.09-.21.16-.73.86-.16,4.16.1,5.44.06.32.11.52.11.52h0s-1.83,4.32-1.83,4.32l-.16.38.85,16.94h0s-.65.05-.65.05l-1.13.09-2.82,6.12-.52,1.13v5.41h0s.86-.46.86-.46l1.28-.68,4.06-5.34h0s3.53-.64,3.53-.64l2.53-1.31.35-.18h0s4.48,1.92,4.48,1.92v3.84l-2.31,2.85-1.32,2.49-4.91,10.9-1.92,3.83-10.08,7.81-4.58,1.36h-.03s-2.82,3.03-2.82,3.03h0s-9.04.82-9.04.82l-4.19-.82-9.61,10.21-1.88,2,.08.08.44.22h.22l.88.66v.22h.22l.44.22.22.22h.22l.22.22.44.22.22-.22.44-.22v.22l.44.88v.22l.22.22h.22v.22h.22v-.22h.22l.22.22h1.1l.22.22.22-.22h.22l.22.22h.22v-.22l.44.22h.22v.22h.44l.22.22h.44l.44.22.22.22h.44v.22h.66v.22h.22l.44.22v.22h.44v.22h.22v.22h.22v1.1l.22.44.22.22v.44l.44.66.22.22h.22v.66h.22v.22h.22v-.22h.44v.22h.44v.22l.22-.22h.88l.22-.22h.22v-.22h.66l.22.22v-.22h.22v.22l.22-.22.22.22.22-.22h.88v-.22.22h.44l.22.22v-.22l.22.22h.88v.22h.44v-.22.22h.22v-.22.22l.22-.22.22.22h1.1l.22.22h.44l.22-.22h.66v.22h.22v.22h.22v.22h.66v.22h.44v.22h.44l.22.22h.22v.44h-.44v.22h-.22l-.22-.22h-.22v.44h-.22v.44h-.22l-.44.22-.44.22h-.44l-.22.22-.22.22h-.22l-.22.22h-.44v.22l-.22.22-.22.22-.88,1.1-.44.22-.22.22h-.22v.22h-.44v.22h-.22v.22h-.22v.22h-.22v.22l-.22-.22-.44.44v.44l-.22.22-.22.22v.44l-.22.22v.22h.22v1.1l-.22.22v.66h.22v1.1h-.22v.22h.22v1.1l.22.22v.22l-.22.22v.44h-.22v.66h-.22l-.22.22h-.22v.22h.22v.22h-.22v.22h-.22l-.22.22v.22l-.22.22v.22h-.44v.44h-.22l-.22.22h-.44v.44l-.22.22h-.22v.44l.44.22v.66h-.22v.22l.22.22h-.22v.44l.22.22h-.22v.22l.22.22v.44h.22l.22.22h.88v.22h.22l.22-.22h.22l.22.22h.22v.22h.22l.22.22v.22l.22.66v.22h.22l.22.22v.44h.22v.22h.22v.88h.22v.66l.22.22v.44l-.22.66-.22.66v.22l-.22.22-.22.66v.22l-.22.44-.22.22v.22l-.22.22v.22l-.22.22v.44l-.22.22v.22l-.44.44v.22l-.44.44v.22h-.22v1.54l.66.66.22.22.22.22h.22l.22.22h.22l.22.22h.22v.22l.88.88v.22l.22.44v.22l.44.22v.22l.44.22.44.44,1.1.22.44.22h.22l.22.44h.22l.22.22.22.44.22.44v.44l.22.22.22.22h.88v.22h1.1l.44.22.22.22h.88l.44-.22.22-.22.22.22h.44l.22-.22.22.22.44.22.44.22,1.1,1.1.66.66.44.22.66.44.88.22.44.44,1.98-.44,4.61-1.32.66-.22,1.1,2.41.88,1.76.22,1.1.22,1.32v.22l.44,2.2v.66l.22.88v1.1l.22.44v1.32l.22,1.98.22.44.22,2.64v1.1l-.88.66.66.44h.22v.88l-.22.44v.66l-.88,4.39v.66l-.22,1.1-.22.88v.88l-.22.22v.44l-.22.22-.44.44-.44.66-.22.22-.22.44v.22l-.22.44v1.1l-.44,1.1-.22.22v.44l-.22.22h-.22v.44l-.22.66-.22.66-1.32,1.76-.22.44-.22.66-1.32,1.54-.22.44v.22l-1.1,1.54v.22l-.22.22v1.76l.22,1.1.88,4.17v.66l.22.22v.44l.66,3.29v.66l.22.22v1.32l-.22.22v.44l-.88,1.76-1.54,3.73-.22.88-.88,2.2-.22.22v.22l-.22.22v.22l-.22.22v.22l-.44.22-.88.66-1.54,1.54h-.22l-.22.22-.22.22-.22.22-.66.88-1.54,1.76-.22.44v.44h-.22v.22l-.22,3.07v1.32h-.22v.66l-.22.44v.22h-.22v.22l-.22.22-.22.22-.22.22-.88.66-1.1.88-1.1.88-.44.22-1.76,1.54-1.32.88-.66.44-.22.22-.22.22h-.22v.22l-1.1,1.76v.22l-.44.44-.66,1.1-.22.66-.22.22-.22.44-.44.66v.22h.22l-.22.22.22.88.22.22.66.22.66.44.66.22h.22l.44.22.22.22h.22l.22.22.22.22,1.1,1.32.88,1.1.22.22.22.22.22.22v.44l.22.22v.22l.22.22.22.66.22.44.44.22v.44h.22l.22.22h1.54v.22h.66l.22.22.22.22h.22l.22.22,1.32,1.1,1.1.66.22.22v.22h.22v.22l.44.66.88,1.98.22.22.22.22.22.44v.22l.44.44.22.44-.22-.22h-.44l.66,1.1.22.44v.22l1.1,1.98.22.22v.22h.22v1.1h.22v.44l.22.22v.22l1.1,1.54.22.44.22.22.22.22.22.22-.88.88.22.22-1.32,1.1.22.22-.66.44.66.44v.22l.22.22.22-.22.44-.22.22-.22.66-.22.44.88.88-.22h.44l.22.22h.22l.22.22h.22l.22-.22v.66l.22.66v.22h.44v-.44h.22v.22l.44.44.22.44.44.66.22.22v.88l.22-.22.44-.88v.22l.44.44v.22l.22.22.22.22.22.66.22.22v.22l.22.22.44.44.22-.22.66.66h.22l.22-.22.88-.44h.22l.44-.44.66.66.22.22.66.66-.66.22.66.88-.22.44v.22l1.1.88.22-.22.66-.88,1.76,1.54.66.66.88.88.44.44.66.66.44.44,1.54,1.32,1.32,1.32.44.22.22.44.22.22.22.22h.22v.22h.22v.22l.22.22v.22l.22.22.22.22.22.22v.44l.22.22v4.83h-.22v2.42l.22.22v.44h.22l.22.22h.22l.22.22h.44l.22.22h.44l.44.22h.44l.22.22h.66l.22.22h.44l.44.22h.22v.22h.22v.22l.22.22.22.22.22.22v.22l.22.22v.66l-.22.66-.22.88v.88l-.22.22v1.1l-.22.66v.44l-.22.66v.44l-.22.44v1.32h-.22v.88l-.22.44v.88l-.22.66v.66l-.22.44v1.1l-.22.66v.44l-.22.66v.66h.66l.22.22.22-.22h.66l.88.44h.66l1.32-.22.44-.22h.66l.22-.22h.22l.22-.22.22-.22.66-.22.44-.22h.66l.44.22h.22l.44.22.66.22.66.22.44.22v.22h.66l.22.22.22.22h1.1l.88.22.88.22.66.22h.88v-.66l-.22-.22-.22-.22v-.22l-.22-.22-.22-.22v-.44l-.22-.22-.22-.22v-.22h-.22v-.22l.22-.44v-.44l.22-.22v-.44l.22-.22.44-.22-.22-.44-.66-.88v-.22l-.22-.22-.66-1.32-.22-.66-.22-.22-.22-.88v-.44l.22-.66v-.44l.22-.22.22-.22h.22l.22-.22.22-.22.44-.88v-.66l.22-.22h-.44l-.44-.22h-1.76l-.44.22h-1.98l-.22.22-1.1.66h-.22v-.22l-.22.22h-.88l-.44-.66-.22-.22-.44-.66-.22-.22-.22-.44v-.44l-.44-.44-.22-.66v-.22h-.22l-.22-.44-.22-.66-.44-.44v-.22l-.22-.22-.22-.22v-.22l-.22-.22-1.32-2.2-.22-.22-.22-.44-.22-.22-.44-.66v-.22l-.44-1.1-.66-1.32-.22-.44v-.22l-.22-.66v-.44l-.22-.44-.22-.44-.22-.66-.22-.44v-.44l-.22-.88v-.88l.22-.88.22-1.1v-.66l.22-.22v-.66l.22-.22v-.22h-.22l.22-.22h.22l.22-.22-.22-.22v-.22h-.22v-.22l-.44-.88-.22-.22-.66-1.32-.44-.66v-.22l-.22-.44v-.22h-.22v-.22l-.22-.66-.22-.22v-.22l-.44-.88h-.22l-.88-1.32-.22-.44-.44-.44-.44-.44.22-.22.22-.22.22-.22.22-.22.22-.22v-.22l.22-.44.22-.22v-.22h.22v-.22h.22l.22-.22h.22l.22-.22.44-.22h.22l.22-.22h.22l.22-.22.22-.22.44-.22.22-.22h.22l.22-.44.44-.22.22-.44.22-.22.22-.44.22-.22.22-.22.22-.44.22-.22v-.22h-.44l-.66.22-.44.22-.88.22-1.76.66-1.32.44-1.54.44-.66.22-.66.22h-.22l-.22-.22-.44-.66v-1.98l.66-.22.22-.22v-.22l.44-.44.22-.44.88-.66.22-.22.22-.22v-.66l-.22-.22v-.22l-.22-.44v-.66h-.44l-.66.22-.44.22h-.44v-.22h-.22v-.22l-.22-.22v-.22h-.22v-.66l-.22.22v-1.1h-.22.22v-.44h-.22v-.44h-.22v-.22h-.22v-.66l-.22-.22v-.22h-.22l-.22-.22h-.22v-.22h-.44v-.22h-.22v-.22h-.22v-.22h-.88l-.44-.22.22-.44v-.44l.44-1.1v-.22l-.22-1.32v-2.86l.22-.88.22-.44v-.44h.22v-.22h.22v-.22l.22-.22.22-.22h.22v-.22h.22l.22-.22.22-.22v-.22h.22v-.22l-.22-.22v-.22h-.66v-.22h-.22v-.22h.22l-.22-.22h-.22v-.22h-.66v-.22h-.66.22v-.44h-.22v-.22h-.22v-.22h-.22v-.22h-.44v-.44l-.22-.22v-.22h-.22v-.22h-.44v-.66h-.22v-.22h-.22v-.44h-.22v-.22h-.22v-.22h-.22v-.44h-.22v-.22l1.32-.22,3.29-.88,2.19-.44h.22l.88-.22.22-.22,1.98-.44h.66l2.2-.66,2.63-.88h.44l1.54-.66h.44l5.27-1.54h0l2.8-3.9Z"/>
  <text class="cls-8" text-anchor="middle" alignment-baseline="central">
    <tspan x="225" y="200">Hellenthal/</tspan>
    <tspan x="225" y="227">Schleiden</tspan></text>
  <path class="cls-3" d="M329.7,93.11l.57,1.85-5.69,3.84-1,3.13-3.7,3.42,4.7,4.98-6.12,11.1-3.56,2.85,4.41,9.11-7.83.71,2.7,5.11-2.85,1.15-2.42-1.15v-1.98l-1.76-1.26h0s0,0,0,0l-2.27,1.23-.59.32,1.46,2.41.18.29h0s0,0,0,0l-1.47,1.28-.17.15.8,1,1.55,1.95,1.47,4.06.66,1.81-.71,1.42,4.32,7.46.38.65,2.74-.61,2.38-.53h0s0,0,0,0l.43,1.82.28,1.17h0s0,0,0,0l-2.13,1.57h-9.68l-7.68,6.97,5.12,4.63,4.63,4.19h0,0s-2.35,0-2.35,0l.21.96,1.07,4.87h0s-.03.02-.03.02l-.04.03,1.92,1.38h0s0,0,0,0v10.39l.9-.13,6.22-.87s1.57-.71,1.57-1.28c0-.28,1.67-.75,3.4-1.17,1.83-.44,3.72-.82,3.72-.82l-.14-.27-1.57-3-1-4.55,4.7-3.7.61-3.84,2.66-.28-.71-3.13,5.73.28,3.37-1.99,2.7,3.42,1.41-1.13.37-.29,1.35,1.48.29.32-1.64,1.26.25.24,3.59,3.39h0s0,0,0,0l-3.24,1.61-.6.3v1.72l5.34,2.14,3.84,1.07h2.99l1.07,1.07h0s0,0,0,0l-4.7,24.76h-1.49v2.14h2.77,0s0,0,0,0l-1.92,4.48.05.09,2.08,3.33,2.04-.18.31-.03,2.14,3.42h0s-2.14,4.48-2.14,4.48l3.42,4.68.8.55,1.12.77,20.01-.21h1.13s1.91,4.62,1.91,4.62l.02.05,5.16-3.42,2.52.93.17-.29,1.1-1.91h0s2.77,0,2.77,0h0s0,0,0,0v2.2l2.08-1.26,6.46-3.93v-5.55l2.58-4.06.41-.64.42-.03,2.79-.19,2.3-1.41.47-.29,2.14,1.48,1.35-2.99,2.7.21.85-3.63h0s0,0,0,0l1.28,3.2h1.92l10.25,10.67,2.56,1.07,8.33,6.51,3.4.82,5.57,3.34,9.59-8.33h0s.03.14.03.14l.63,2.87,3.67-2.72.39-.29,6.04,7.26,4.61-2.72,2.02.02,4.35.04v-1.16l-.44-.44-.44-.22-.22-.22v-.44l-.44-.22h-.22l-.66-.22h-.44v1.1h-.22v.22h-.22v.22l-.22.22v.22l-.22.44h-1.54l-1.1.44-1.54.22-1.1.44v-.22l-.22-.44-.44-.44,1.1-1.1.22-.22.66-.66v-.22l1.1-2.19,1.54-1.32.22-.22.66-.88.22-.22.66-1.32.66-1.32.88-1.32.44-.22-.44-.44v-.44l-.22-.22-.66-.22-.22-.22-.22-.22-.22-.22h-.22v-.22l-.22-.22.22-.22.88-.66h.22l.44.22v.22l.66.22-.22-.88v-.22l.22-.44v-.66l-.22-.66-.22-.22v-.88l-.22-.22-.88.22-.66-.22-.66-.44-.22-.44-.22-.22v-.88l-.44-.22v-.44l-.44-.66-.22-.44-.22-.88-.22-.44-.66-.66-.44-.44-.22-.44-.22-.22-.44-.44v-.22l-.44.22-.88.66-.44-.88-.44-.66-.22-.66-.44-.88h.22l-.66-1.76v-1.1l-.44-.44v-.22l.66-.22.22-.22.22-.44h.22l.66-.88.22-.88-2.19-.22-.66-.66v-.44l-.22-.22v.22h-.22l-.88-.44.44-.22-2.2-2.64-2.42-2.86-1.1-1.1-.66-.44-.22.22-.22-.22-.44-.22-.44-.44-.66-1.1-.22-.44v-.66l-.44.22-.88.44-.44.22v.22l-1.54.44.22-1.1v-.22l-.22-.44-.44-.44-.44.22-.22-.44.22-.44.22-.44-1.98.22h-.44l-.88-.22-1.32-.88h-.22l-.44-.22v-.22h-.22l-1.98-1.32-1.54-5.49.22-.22v-.22l.44-.66.44-.44h-.22l-.22-.66-.88-1.54-.66-1.32-.66-.88-.44-.88-3.07,2.2-.66-.44-.44-.22h-.22l-.22-.22-.22-.22-.44-.22-.44-.22-.22-.22h-.22l-.22-.22-.22-.22.22-.88.22-.88.22-.44v-1.1l-.22-1.1v-2.64l.22-.66-.22.22h-.22l-.22-.44v-.22l-.22-1.32-.22-.22-.22-.66.22-.22.22-.22-.88-.88.22-.44.22-.44.22-.22.66-.66h-.66l-.44-.88-.66-.88.22-.44.88-1.54-.44-.44-1.1-1.32-.22.66h-1.54l-.22-.44h-.44.22v-.22l.88-.66v-.66l.88-1.32v-.88h-.22l-.88.66-2.42-.44-.22.22v-.44l.22-1.32v-.44l.22-.44.22-.88h-2.64v.22l-.66,1.1-1.1.44-1.32.44-.66.22-.66.22.66-.22,1.54-1.54-.88.22-.44-.22-1.1-.22h-.66l-.66-.22h-.22l-.44-.22-.44-.22-.44-.22-.22-.22-.88-.44v-.22l-.22-.22v-.22l-3.07-1.1-1.76-.44-2.2-1.32h-.22l.22-.22-.44-.22-.22-.22.22-.44.66-.66.22-.44-.88-.66h.22l-.22-.22-.22-.22-.66.66-.22.22v.44l-.66-.22v-.22l-.66-.44-.88-1.1-1.32,1.1-1.1-.44-1.54-2.2.66-1.1-1.1.44-.22.22h-.44l-.44.22-.22.22-1.54.44-.66.44.66,1.1v.22l-1.76-.44h-.22v-.22h-.22l-.22-.44-.22-.22-1.54-2.64-.88,1.1-.66.66-1.32.88-.22.88v.22l-.66-.66-1.32-.44-1.98,3.73v-.22l-1.1-2.42-1.32.66-1.32,1.76-1.54,1.1-.88,1.54-1.1-.88v.22l-1.32-.88.66-1.54v-.22l-.22-.22h-.22l-.22.22h-.22l-.44-.44h-.66l-.22-.22-1.1.66.44,1.32-.88.88-.66.66-.44.66-.22.22-.22-.22-.22-.44-.66-.22-.44-.22v-.22h-.22l.22-.22-.66-.22-.44-.22-.22-.22v.22l-.22-.22-.44-.22v.22l-.44-.22-.88-.22-.22-.22v-.22l-.22-.22v-1.32l-.22-.22-.22-.22-.44.44v.22h-.22l-.22.22-.22.22-.22.22-.22.22-.22.22-.22.44h.22l-.22.22-.44.22-1.1.66-.44.22v-.88l-.22-.22h-.44v-.22l-.22-.22-.22-.22-.44-.22v-.44l-.22-.22v-.88l-.44-1.1v-.22l-.22-.66v-.44l-.44-1.1v-.22l.22-1.32v-2.42l-.88-1.32-.44-1.76.22-.88v-.44l.22-.66,1.32-5.71.44-1.54.22-1.98.44-1.54-.66-1.1-.22-.88.22-.22.44-.22.44-.44.66-.22.22-.22v-1.1l.44-.66.22-.44.22-.44.22-.44v-.22l-.22-.22v-.88l-.22-.44.22-.22-.22-.44.22-.44-.66-.66-.88-.44-.66-.44v-.44h.22v-.44l.22-.22-.66-.88.22-.44.22-.44v-.22l.44-.44v-.22l.22-.22.44-.44.44-.44.22-.22.44-.66.44-.22h.88v-.22l.22-.22v-.22l-.22-.22v-.66l.44-.22.22-.22v-.22l.22-.44.22-.44.22-.44h-.22l.22-.66v-.88l.22-.22.22-.88v-.66l.22-.66.22-.44.22-.66v-.22l.66-.44.22-.44.22-.22v-.22h.22v-.44l-.22-.22h-.22l-1.1-1.1-.22-.22-.44-.22-.66-.66-.88-.66-.44-.44-.66-.66-.22-1.1v-.22h-.22l-.44-.44h-.22l1.32-.88.88-.66h.44l1.1-.66-.22-.22h.22l-.22-.22-.66-.22.44-.44.22-.22.22-.22.22-.22-.44-.66h-.22l-.22-.44-.88-.66-.22-.22v-.22l-.44-.22-.22-.22v-.22l.22-.22-.22-.22.22-.44.44-.44v-.22l.44-.44v-.22l.22-.22v-.22l-.22-.22h-.22l-.44-.66v-.22l.22-.22v-.22h.22l.22-.22h.22v-.66l-.22-.44-.44.44v.22h-.22v.22h-.88l-.66-.22-.22-.22-.22-.22h-.22l-.66.22h-.66l-.88.22-.88.22-.22.22h-.22l-.88.22h-1.76l-.22.22-.22.44h-.22l.44,1.1-1.76,1.32-.44.22-.22.22-1.76,1.1h-.22v.22l.44.22-.22.22-.88.22v.22l-1.1.44-1.76.88h-.22l.22.22v.22l.44.66v.44h.22v.22h-.44l-.22.22-.44.22h-.22l-.44.44-.66.44h-.22l-.22.22-.22.22-.44.22.22-.44.22-.44-.66-.22-.22-1.32-.88.66-.66.22.22.66v.66h-.88l-.22.22h-2.19l-.22.44-1.1.66-.66-.22h-.22v-.22h-.22l-.44-.22-.44-.22-.66-.22h-.22l-.44-.22-.44-.22-.88-.22v-.22h-.22l-.88-.44h-.22l-.22-.22h-.22l-.44-.22h-.44l-.44-.22-.22.22-.44.22-.22.22-.88.66v.22l-.22.22h-.22l-.88.66-.88.66-.22.22-.22.22-.44.22-.22.22-.88.22-.67-.81-.51.81-4.84,4.63Z"/>
  <text class="cls-8" text-anchor="middle" alignment-baseline="central">
    <tspan x="400" y="180">Mecher-</tspan>
    <tspan x="400" y="207">nich</tspan></text>
  <polygon class="cls-2" points="128.38 253.19 128.38 253.19 128.38 253.19 132.57 254.01 141.62 253.19 144.43 250.17 144.43 250.17 144.43 250.17 144.47 250.16 149.05 248.8 159.12 240.99 161.05 237.16 165.95 226.26 167.28 223.76 169.58 220.92 169.58 217.08 165.1 215.15 164.75 215.34 162.22 216.65 158.7 217.29 154.64 222.63 153.36 223.31 152.5 223.76 152.5 223.76 152.5 223.76 152.5 223.77 149.8 223.05 147.81 223.77 147.81 223.76 147.81 223.76 146.53 221.92 142.95 219.62 140.55 218.07 134.57 218.07 134.92 217.2 136.42 213.44 135.64 211.32 135.14 209.96 135.26 209.55 135.55 208.51 137.44 201.9 137.99 200 137.99 200 137.99 200 139.84 199.52 142.4 198.86 142.97 197.15 140.26 196.12 135.85 194.45 135.85 192.74 129.02 194.59 124.33 199.28 123.59 201.58 123.33 202.42 123.33 202.42 123.33 202.42 119.82 199.15 119.2 198.57 119.2 198.57 119.2 198.57 119.2 189.32 117.49 183.34 116.36 184.42 114.65 186.05 114.65 186.05 114.65 186.05 113.22 185.05 113.22 185.05 113.22 185.05 113.73 183.94 114.65 181.92 114.11 180.38 113.65 179.08 106.11 179.08 104.54 177.65 103.02 176.25 100.84 174.24 99.13 171.53 94.15 168.97 94.15 168.97 94.15 168.97 92.87 167.83 94.15 165.7 94.15 163.7 90.59 162.99 87.46 158.72 87.03 149.2 94.15 142.95 91.09 138.51 91.09 138.51 91.09 138.51 92.58 138.51 92.58 133.81 87.7 127.52 87.18 126.84 87.18 126.84 87.18 126.84 85.9 122.14 77.19 115.77 76.57 116.59 76.35 117.03 76.13 117.25 76.13 117.47 75.91 117.47 75.69 117.91 75.25 118.35 75.04 118.35 74.82 118.57 74.6 118.79 74.16 119.01 73.94 119.23 73.72 119.45 73.28 119.89 72.62 120.32 72.18 120.76 71.96 120.99 71.74 120.99 71.52 121.2 71.08 121.42 70.86 121.64 70.64 121.64 70.2 121.86 69.98 122.08 69.54 122.3 69.33 122.3 68.89 122.52 68.67 122.74 68.01 122.96 68.01 123.18 67.79 123.4 67.35 123.4 67.13 123.4 67.13 123.62 66.91 123.62 66.69 123.84 66.47 124.06 66.25 124.28 66.03 124.5 65.81 124.72 65.81 124.94 65.59 125.16 65.59 125.38 65.59 125.6 65.37 125.6 65.37 125.81 65.37 126.03 65.37 126.26 65.15 126.26 64.93 126.26 65.15 126.91 65.15 127.13 65.37 127.57 65.37 127.79 65.37 128.01 65.81 129.11 65.81 129.33 66.03 130.43 66.25 130.65 66.25 131.31 66.47 131.96 66.69 132.62 66.25 132.62 66.25 132.84 66.25 133.06 66.25 133.28 66.03 133.5 66.03 133.72 66.03 133.94 65.81 134.16 65.81 134.38 65.59 134.82 65.37 135.04 65.37 135.26 65.15 135.48 64.71 136.14 64.49 136.8 64.27 137.02 64.27 137.24 64.05 137.46 64.05 137.67 63.61 138.11 63.61 138.33 63.4 138.33 62.96 138.99 62.52 139.43 62.3 139.65 62.08 140.09 61.86 140.31 61.86 140.53 61.64 140.75 61.42 140.97 61.2 141.19 61.2 141.41 60.98 141.63 60.98 141.85 60.76 142.29 60.54 142.73 60.54 142.95 60.76 142.95 60.54 143.38 60.32 143.6 60.1 144.04 60.1 143.82 59.88 144.26 59.66 144.7 59.44 145.14 59.44 145.36 59.22 145.8 59 146.24 59 146.46 58.78 146.68 57.03 145.8 56.59 145.58 55.27 144.92 54.83 144.7 53.51 144.04 51.97 143.38 51.1 142.95 50 142.51 49.34 142.07 48.46 142.07 47.8 141.85 47.58 141.85 47.36 141.85 46.92 141.85 46.7 141.85 46.49 141.85 46.26 141.85 46.05 143.17 45.82 143.38 45.61 143.82 45.39 144.04 45.17 144.7 44.95 145.14 44.51 145.36 44.51 145.58 44.07 146.24 43.85 146.9 44.07 147.56 43.85 147.78 43.85 148.66 43.63 149.32 43.19 149.75 43.19 149.97 42.97 149.97 42.97 150.19 42.53 150.85 42.31 151.07 42.09 151.51 41.87 151.51 41.43 152.61 41.43 152.83 41.43 153.05 41.21 153.05 40.78 153.49 40.55 153.71 40.34 153.71 39.68 153.93 39.46 154.14 39.46 154.37 39.24 154.59 39.24 154.8 39.02 154.8 38.8 155.03 38.58 155.24 38.36 155.46 37.92 155.68 37.04 156.34 36.6 156.56 35.72 157 34.84 157.44 34.63 157.88 33.75 158.32 32.65 158.76 32.43 158.98 32.21 158.98 31.99 159.2 31.33 159.64 30.23 159.42 30.01 160.29 30.01 160.95 30.45 161.39 30.23 161.83 29.79 162.49 29.14 162.93 29.14 163.37 29.14 163.59 28.26 164.25 27.82 164.47 27.82 164.69 27.82 165.35 27.82 165.56 28.04 165.56 28.26 165.78 28.48 166 28.26 166.66 27.82 167.32 27.16 168.2 26.28 168.64 25.84 168.86 24.96 169.3 22.99 170.4 22.11 170.62 21.67 170.84 21.45 171.06 20.57 171.49 18.81 172.37 18.15 172.59 18.15 172.81 16.4 172.15 15.96 171.93 15.74 172.37 15.3 173.03 15.52 173.47 15.74 173.91 15.3 174.35 15.08 174.35 14.86 174.13 14.42 173.91 13.98 173.91 13.76 174.13 13.32 174.35 13.1 174.79 13.1 175.01 12.88 175.45 12.66 175.45 12.44 175.67 12 175.67 11.57 175.89 11.35 176.33 11.35 176.55 11.13 176.99 10.69 177.21 10.03 177.42 9.81 177.86 9.37 178.52 9.15 178.52 8.71 178.74 8.27 179.18 7.83 179.18 7.61 179.62 7.17 180.06 6.51 180.5 6.07 180.94 5.64 181.16 5.2 181.38 4.76 181.6 4.54 181.82 4.1 181.82 3.44 181.82 3.22 182.48 3.22 183.13 3 184.01 3.44 184.01 4.1 184.23 4.32 184.23 4.54 184.45 4.76 184.67 4.76 184.89 4.98 185.33 5.42 185.77 5.86 186.43 6.51 187.09 6.51 187.53 6.29 189.5 6.29 190.6 6.29 191.92 6.07 192.14 6.07 192.58 5.86 195.65 5.86 197.19 5.86 197.63 5.86 198.51 5.64 200.04 5.64 202.46 5.64 202.68 5.64 203.12 5.86 203.12 6.07 203.12 6.29 203.12 6.51 203.12 6.73 203.34 6.73 203.56 6.95 203.56 7.17 203.56 7.39 203.56 7.61 203.56 7.83 203.56 8.05 203.56 8.27 203.56 8.49 203.56 8.71 203.56 8.93 203.56 9.15 203.56 9.15 203.34 9.37 203.34 9.37 203.56 9.59 203.34 9.59 203.56 9.81 203.56 9.81 203.34 10.03 203.34 10.25 203.34 10.47 203.34 10.47 203.12 10.47 203.34 10.69 203.34 10.91 203.34 11.35 203.34 11.79 203.78 13.54 204.66 13.76 204.66 13.98 204.66 14.2 205.1 14.2 205.53 14.42 205.53 14.42 205.97 14.64 206.19 14.86 206.63 15.3 207.07 15.74 207.29 15.96 207.73 16.4 207.95 16.84 208.39 17.06 208.61 17.72 209.05 17.93 209.27 18.37 209.49 18.81 209.71 19.03 209.93 19.25 210.37 19.69 210.59 19.91 210.59 20.35 210.59 20.57 210.59 21.01 210.37 21.89 210.37 21.89 210.81 21.89 211.03 21.89 211.24 21.89 211.46 22.11 211.46 22.11 211.68 21.89 212.12 21.89 212.56 21.45 213.22 21.23 213.44 21.01 213.66 21.01 214.1 20.57 214.98 20.35 215.2 20.35 215.86 20.35 216.3 20.35 216.74 19.69 216.95 19.47 216.95 19.25 217.17 18.81 217.17 18.37 217.17 17.93 217.17 17.72 217.17 17.28 217.17 17.06 216.95 16.84 217.17 16.4 217.17 16.18 217.61 15.74 218.05 14.86 218.93 14.2 219.81 13.98 219.81 13.54 220.47 12.66 221.35 12.22 221.79 12.22 222.23 12.22 222.45 12.22 223.1 12.66 223.54 13.1 223.98 13.54 224.42 13.76 224.64 13.98 224.86 14.42 225.3 14.42 225.74 14.64 225.96 14.64 226.18 14.64 226.62 14.64 227.06 14.86 227.28 14.86 227.5 14.86 227.72 15.08 227.72 15.08 227.93 15.08 228.16 15.08 228.37 15.3 228.59 15.3 228.81 15.3 229.03 15.52 229.03 15.74 229.47 15.96 229.69 15.96 229.91 16.18 229.91 16.62 229.69 16.84 229.69 17.28 229.69 17.72 229.69 17.93 229.47 18.15 229.47 18.37 229.47 18.59 229.47 19.03 229.47 19.25 229.47 19.47 229.47 19.69 229.47 21.01 229.69 21.45 229.69 22.33 229.69 22.55 229.69 22.77 229.91 22.99 229.91 23.21 229.91 23.43 230.13 23.65 230.13 23.86 230.13 24.08 230.13 24.08 230.35 24.3 230.35 25.18 230.13 25.4 230.13 25.84 230.13 26.5 230.13 26.72 230.13 27.16 230.13 27.38 230.35 27.82 230.35 27.82 230.57 27.6 231.01 28.04 231.23 28.04 231.45 28.04 231.67 28.04 232.11 28.04 232.55 28.04 232.77 28.26 232.99 28.26 233.21 28.48 233.87 28.48 234.08 28.7 234.3 28.7 234.74 28.92 234.74 28.92 234.96 28.92 235.18 29.36 235.4 29.36 235.62 29.57 235.62 29.79 235.62 30.01 235.84 30.23 236.06 30.45 236.06 30.67 236.28 31.11 236.28 31.11 236.5 31.33 236.5 31.55 236.5 31.77 236.72 31.99 236.94 32.21 237.38 31.99 237.6 29.57 238.48 29.57 238.7 29.79 238.92 29.79 239.13 30.01 239.58 30.01 239.79 30.23 240.23 30.23 240.45 31.11 240.45 31.33 240.67 31.33 240.45 31.55 240.45 31.99 240.45 32.21 240.45 32.43 240.45 32.43 240.67 32.65 240.89 32.65 241.11 32.87 241.11 32.87 241.33 32.87 241.77 32.87 241.99 32.87 242.21 33.09 242.43 33.09 242.65 33.75 243.97 33.75 244.19 33.97 244.63 33.97 244.85 34.18 244.85 34.18 245.06 34.18 245.28 34.18 245.5 34.18 245.72 34.18 245.94 34.18 246.16 34.41 246.16 34.41 246.38 34.41 246.6 34.63 246.6 34.63 246.82 34.84 246.82 34.84 247.04 35.07 247.04 35.07 247.26 35.07 247.48 35.07 247.7 35.07 247.92 35.28 248.14 35.28 248.36 35.28 248.58 35.5 248.8 35.5 249.02 35.72 249.02 35.72 249.24 35.94 249.24 35.94 249.46 36.16 249.46 36.16 249.68 36.38 249.68 36.82 249.9 37.26 250.34 37.48 250.34 37.7 250.56 37.92 250.78 37.92 250.99 37.92 251.21 37.92 251.65 37.92 251.87 38.14 252.31 38.14 252.53 38.14 252.75 38.14 252.97 38.36 252.97 38.36 253.19 38.36 253.41 38.58 253.41 38.58 253.63 38.8 254.29 39.02 254.51 39.02 254.73 39.24 254.73 39.46 254.95 39.46 255.17 39.68 255.17 39.68 255.39 39.68 255.61 39.89 255.61 39.89 255.83 39.89 256.05 39.89 256.27 39.89 256.49 39.89 256.7 39.89 256.92 39.68 257.14 39.68 257.36 39.68 257.58 39.46 257.8 39.46 258.02 39.24 258.24 39.02 258.46 38.8 258.24 37.7 259.34 38.8 260.44 39.02 260.22 39.46 261.1 39.68 261.32 41.21 263.95 41.21 264.17 41.43 264.17 42.53 264.61 42.97 265.05 42.97 264.83 43.19 263.95 43.63 264.39 43.63 264.17 44.07 263.73 44.29 263.51 44.95 262.63 44.95 262.41 45.17 262.41 45.39 262.2 45.39 261.98 45.82 261.54 45.82 261.1 46.05 261.1 46.26 261.1 46.49 261.32 46.92 261.1 47.36 260.88 47.8 260.66 48.24 260.66 48.46 260.66 48.46 260.88 48.9 260.88 49.12 260.66 49.12 260.44 49.12 260.22 49.34 260.22 49.56 260 49.78 260 50 260 50.22 260 50.44 260 50.88 260 51.97 260 52.19 260 52.41 260 52.85 259.78 53.07 259.56 53.07 259.34 53.29 259.34 53.51 259.56 54.61 259.34 55.05 259.34 55.27 259.56 55.49 258.9 55.71 258.9 55.71 258.68 55.93 258.68 56.37 258.46 57.47 257.8 57.9 257.36 58.34 257.14 58.78 256.7 59.22 256.27 59.88 256.05 59.88 255.83 60.1 255.83 60.32 255.61 60.54 255.61 60.76 255.61 60.98 255.39 61.2 255.17 61.42 255.17 61.64 254.95 61.86 254.95 61.86 254.73 62.08 254.51 62.3 254.51 62.96 254.29 63.18 254.29 63.4 254.29 63.61 254.07 63.83 254.07 64.05 254.07 64.05 254.29 64.93 254.73 65.15 254.95 65.37 254.95 65.37 255.17 65.59 255.39 65.59 255.61 65.81 256.05 65.81 256.27 65.81 256.49 66.03 256.7 66.25 256.7 66.03 256.92 66.03 257.14 66.03 257.36 66.03 257.58 66.03 257.8 65.81 257.8 65.81 258.02 65.81 258.24 65.81 258.46 65.81 258.68 66.03 258.46 66.03 258.68 66.03 258.9 66.03 259.12 65.81 259.34 66.03 259.34 66.47 259.78 66.69 259.78 66.91 259.78 67.13 259.78 67.35 259.78 67.57 259.78 67.79 259.78 68.01 259.78 68.23 259.78 68.67 259.78 68.89 259.78 69.11 259.56 69.98 259.78 70.2 259.78 70.2 260 70.86 260.22 71.08 260.22 71.52 260.44 72.18 260.22 72.4 260.22 72.4 260 72.62 260 72.62 259.78 72.62 259.56 72.84 259.56 72.84 259.34 73.06 259.34 73.06 259.12 73.28 258.9 73.28 258.68 73.5 258.46 73.72 258.46 73.94 258.02 74.16 257.8 74.38 257.58 74.6 257.36 75.04 256.92 75.25 256.7 75.25 256.49 75.47 256.27 75.91 255.83 76.13 255.61 76.35 255.39 76.79 254.95 77.01 254.73 77.23 254.73 77.23 254.51 77.45 254.29 77.67 254.29 77.67 254.07 77.89 253.85 78.11 253.85 78.11 253.63 78.33 253.63 78.33 253.41 78.55 253.19 78.99 253.63 79.65 254.07 81.84 255.61 82.72 256.49 83.82 256.05 84.48 255.83 85.8 255.39 86.02 255.39 87.99 255.39 88.21 255.39 88.87 256.7 89.09 257.36 89.97 259.34 90.41 260.22 90.63 260.66 90.85 260.88 91.07 260.88 91.29 260.88 95.46 261.75 95.9 261.75 96.78 261.98 97.44 262.2 98.31 262.41 98.75 262.41 98.97 262.41 99.19 262.41 100.07 262.41 100.29 262.41 100.29 262.63 100.51 262.63 100.51 262.85 100.73 263.07 100.95 263.07 101.17 263.07 101.83 262.41 102.05 262.2 102.27 262.2 102.27 261.98 102.49 261.98 102.71 261.75 103.15 261.75 103.59 261.54 103.81 261.54 104.25 261.1 104.46 261.1 104.46 260.88 104.68 260.66 104.9 260.22 105.12 260.22 105.12 260.44 105.12 260.66 105.12 260.88 105.12 261.1 105.34 261.1 105.56 261.1 105.56 260.88 105.78 260.66 106 260.66 106 260.44 106.22 260.44 106.44 260.22 107.54 259.78 110.39 258.46 110.83 258.68 113.47 260.88 113.69 261.1 113.91 261.32 114.79 261.54 114.57 262.2 114.57 262.41 114.57 263.07 114.79 263.07 114.79 263.29 114.79 263.51 115.01 263.51 115.01 263.73 115.23 263.95 115.44 263.95 115.88 264.39 116.32 264.83 116.54 265.05 116.54 265.27 116.76 265.27 116.9 265.4 118.77 263.4 128.38 253.19"/>
  <text class="cls-8" text-anchor="middle" alignment-baseline="central">
    <tspan x="85" y="230">Monschau</tspan>
  </text>
  <path class="cls-3" d="M87.18,126.84l.52.68,4.88,6.3v4.7h-1.49l3.06,4.43-7.12,6.26.43,9.52,3.13,4.27,3.56.71v1.99l-1.28,2.13,1.28,1.14,4.98,2.56h0s0,0,0,0l1.71,2.7,2.18,2.02,1.52,1.4,1.57,1.42h7.54l.46,1.31.54,1.54-.92,2.02-.51,1.11,1.42,1,1.72-1.63,1.13-1.07h0s0,0,0,0l1.71,5.98v9.25l.62.58,3.5,3.26.27-.84.73-2.29,4.7-4.7,6.83-1.85v1.71l4.4,1.67,2.71,1.03h0s0,0,0,0l-.57,1.71-2.56.66-1.85.48-.54,1.9-1.89,6.61-.3,1.04-.12.41.5,1.36.78,2.12-1.5,3.76-.35.87h5.98l2.4,1.54,3.58,2.3,1.28,1.85,1.99-.71,2.7.71v-5.41h0s.52-1.13.52-1.13l2.82-6.13,1.13-.09.65-.05-.85-16.94h0s.16-.38.16-.38l1.83-4.32s-.05-.2-.11-.52c-.26-1.28-.83-4.58-.1-5.44.06-.07.13-.13.21-.16.14-.06.32-.18.52-.33.93-.68,2.35-2.14,3.37-3.23.72-.76,1.23-1.35,1.23-1.35l7.54-5.63,7.69-7.97.71-3.56,4.36-4.25,1.48-1.44v-1.56l-4.18-7.2.08-.59.97-7.43h0s0,0,0,0l1.99.28,4.98-1.57.71,1.14,6.55-.43.5-1.26.07-.17,2.28.14,3.91-2.99.18-.31.68-1.19v-5.34h0s1.71-2.14,1.71-2.14v-1.49l-2.79-.19-.13.55v3.27l-2.56,3.7v3.42h-.85l-1.28-2.79-2.14-3.33-1.85-1.57-3.7,1.57-3.7-3.84-2.14.14-3.47,3.7-1.41-1.67-1.11-1.32.57-3.7,2.56-1.62,2.99-1.08,1.71-2.56.14-3.13-1.99-4.41-3.47-.67-4.93,2.24-1.57-2.24.28-3.74,2.28-1,5.98,1,4.41-1.28-.14-3.7-1.57-1.71-1.99-5.27,2.85-.57,2.85.71,4.55,6.83,3.7-1.57.85-5.41s-2.85-9.25-2.99-9.68c-.14-.43,3.7-1.42,3.7-1.42v-2.99l-4.98-1.28-6.4.14-4.84-6.98-1,5.27,1,3.84-5.84-.85.28-3.98,2.7-3.7-2.85-5.55-3.84.14-2.28-9.25,2.99-4.52-1.71-5.44-9.68,6.97-2.13,4.41-.85.71-2.71-4.13-3.7,3.84-3.84,2.14v1.01l-4.55,1.55-1.14,2.13-4.55,1.42-1.57,2.13-1.85-.71,1.85-6.54-2.85-1.15-3.98,1.15-.85-2.72v-5.98l-1-2.95-4.13-2.89-3.27,1.79-1.42-2.64-5.69-.8-4.84,3.45-1.85-6.2-7.4-4.56-2.36-4.69v-5.27l1.08-5.35-.11-.82-3.02.76s-8.68.14-9.25,0c-.07-.02-.09-.24-.07-.6l-10.35,10.28-3.24,5.69-6.98,5.13,1.33,9.39,1.76,3.13,1.76,1.99,2.8,3.85,2.91,9.24,3.4,4.55-7.98,2.85-3.77,6.86.88,9.88-.23,1.77h.23s1.32-.01,1.32-.01h1.98v-.22h.22l.66-.22.22-.22h.44l.22-.22.88-.22,1.76-.66v.22h.22l.44.22h.22l.66.44,1.54.44,1.32.44h.22v.66l.22.22.22.22.22.22v.22l.44.66.66.22v.22h.22v3.73l-.22.22v2.41l-.22.22v.66l-.22.22v.44l-.22.22v.44l-.22.22v.22l-.22.22v.22l-.44.44v.22h-.22v.22l-.22.44-.44.44-.22.66h-.22l-.22.22v.22l-.22.22-.44.66-.22.22v.22h-.22v.22l-.66.88-.44.66v.22h-.22l-.44.66-.66.88-.04.06,8.71,6.38,1.28,4.7Z"/>
  <text class="cls-8" text-anchor="middle" alignment-baseline="central">
    <tspan x="130" y="105">Simme-</tspan>
    <tspan x="130" y="132">rath</tspan>
  </text>
</svg>