<?xml version="1.0" encoding="UTF-8"?>
<svg xmlns="http://www.w3.org/2000/svg" viewBox="0 0 512 512">
  <defs>
    <style>

      .cls-1 {
        fill: #fff;
        font-family: DMSans-Bold, 'DM Sans', sans-serif;
        font-size: 28px;
        font-variation-settings: 'opsz' 14, 'wght' 700;
        font-weight: 700;
      }

      .cls-2 {
        fill: #997ca1;
        stroke: #f2f2f2;
        stroke-linejoin: round;
        stroke-width: 6px;
      }

    </style>
  </defs>
  <path class="cls-2" d="M463.97,289.69l-2.14-8.55h9.08l-5.34-13.68,22.43-12.48-26.17-2.67-10.14-10.15,8.01-8.54-5.88-8.01,22.43-22.96-46.45-31.5-6.41,2.14-1.07-5.34,4.28-13.75-14.95-2.8,2.67-9.08h4.27l1.6-7.5-3.74-2.65,10.68-31.5-7.47-3.2,13.88-13.35-16.55-23.49-6.41,5.34-7.93-6.2-4.35-3.41-8.01,11.75-13.35-12.82,8.01-16.02-14.42-17.09,7.48-9.08-10.15-10.11-6.41,10.11-8.01-3.74-27.76,26.17-3.74-5.34s-8.01,5.87-11.21,6.94c-3.2,1.07,0,9.53,0,9.53h-8l-17.09,15.03,10.68,14.95-26.17,24.02s-17.61-18.69-19.22-19.95c-1.6-1.27-25.63,24.76-25.63,24.76l-32.04-51.26-27.48,26.5,4.52,9.61-14.42,5.54-10.81,5.48-6.81,13.21-2.8,12.82-19.62,10.81,3.2,4.81-30.83,22.03v14.3l-7.45,4.22.38,6.85-2.67,14.95-8.54,15.48-14.95,18.69,6.41,4.08-2.13,16.75h7.47l12.28,12.28-13.35,20.83,8.55,6.94,4.27,8.01,2.14,8.55,4.27,6.41v4.27l-30.97,22.96-23.49,10.42-6.41,1.29v10.65l9.08-2.06,12.82,5.88v6.94l26.7,8.55,5.34-21.36,22.42,8.01v5.34l-10.14-1.07-.54,5.87h-8.01l-7.47,27.23,2.67,9.08,1.07,4.27h17.61l13.35-8.55,34.71-21.75,2.67,12.15,5.87,6.94-10.14,7.47,10.14,9.61-4.8,3.2,8.54,14.69h11.62l3.2,4.81-8.41,12.01,2.4,6.81,34.04-21.23,4.4,11.21,1.6,10.01,12.41,19.22,2.41-2,12.01,14.81,12.01-8.41,23.22-.4,13.22-16.02,5.6,3.26,6.01-3.67h11.21l7.61,2v-4.4l7.21,9.61,8.41-8.01,8.01,6.41,3.2-5.61,21.62-11.61,3.2,2,2.67-1.72,2.93-1.88-5.2-12.68-11.75-10.68,9.61-16.02,7.34-1.07,21.5,12.83,17.09-28.32,8.54,1.6,1.23-2.21,1.44-2.59,8.54.53,5.34-20.83,6.94-8.54-4.27-8.55,43.25-35.24,4.28-8.01-10.68-14.42,10.68-17.62-17.62-9.08Z"/>
  <text class="cls-1" text-anchor="middle" alignment-baseline="central">
    <tspan x="260" y="260">Eschweiler</tspan>
  </text>
</svg>