<?xml version="1.0" encoding="UTF-8"?>
<svg xmlns="http://www.w3.org/2000/svg" viewBox="0 0 512 512">
  <defs>
    <style>

      .cls-3 {
        fill: #997ca1;
      }

      .cls-3, .cls-4, .cls-5 {
        stroke: #fff;
        stroke-linejoin: round;
        stroke-width: 2px;
      }

      .cls-4 {
        fill: #b19bb8;
      }

      .cls-10 {
        fill: #fff;
        font-family: DMSans-Bold, 'DM Sans', sans-serif;
        font-size: 14px;
        font-variation-settings: 'opsz' 14, 'wght' 700;
        font-weight: 700;
      }

      .cls-5 {
        fill: #825e8b;
      }
    </style>
  </defs>
  <path class="cls-5" d="M382.62,251.45h0s-2.34-3.27-2.34-3.27l-4.23,3.27,2.49,4.08-4.9,2.63v2.38h0s-51.82,2.74-51.82,2.74l16.4,47.26-36.24,1.73,2.12,9.65-1.59,2.91-2.06,2.38h0s0,0,0,0l-2.96-1.46-1.33-.65v-3.71l-11.11-10.31-14.6,9.73-3.65,2.43.57,1.26.75,1.65-2.59,2.77-1.12,1.2,2.38,3.79h0,0s-5.82,0-5.82,0h-1.85l-.53-2.87-.8-4.35-1.21-1.09-1.43-1.29-4.76,5.29-3.44,6.08h-2.03l-1.04,1.47-1.16,1.65,2.2,2.95h0s0,0,0,0l-6.44,10.32h2.65s0,0,0,0l-.53,5.56,4.32,4.03,1.86,4.73,4.4,11.19h1.49,0s0,0,0,0h7.77l-.79,22.04,5.56-2.04-1.32,5.82-1.85,6.08-3.17,2.38,2.65,2.91-7.41,14.55s-6.08-1.33-5.29,0c.79,1.32,3.04,6.08,3.04,6.08v7.89l5.95-1.81,2.65,7.41,10.05-2.65,7.63.79v3.8l9.3,3.87,3.97-2.38,7.14,7.67-2.9,2.99-25.93,26.64,1.25.86,29.8,20.5,1.46-4.01,1.63-4.49,1.63-4.08,1.23-4.08.82-2.04,2.45-2.45,3.27-3.27.81-.81,3.68-4.08,1.22-1.23,3.68-2.45,4.9-2.86,4.49-2.45,4.08-2.45,4.49-2.86,4.9-2.86,6.53-3.67,7.76-4.9.41.41.82.82.41.41.41.41.41.41-.82.82.41.41,1.23.41.41.41,1.23.81.41.41h.41v-.41l.41-.81.41-.41.82-1.63h.82l.82.41.82.41h.82l.41-2.86v-2.86l.41-1.64v-2.04l.41-1.23v-3.26l.4-1.23v-.41l.82-2.04v-.41l.41-1.63.41-1.23v-.82h.41v-.4l.41-1.63v-.82l1.22-1.23.41-.41,1.63-1.63.41-.82,1.23-1.22,2.86-2.04h1.22l1.23-.82.41-.41v-1.23l.41-.41v-3.67l-.41-1.23.41-.82v-1.22l.41-.41v-4.08l-.41-.41v-.41h-.41v-.41h.41v-1.63l-.41-.41v-.41l-.41-.41-.41-.41-.82-1.63h-.82l-.41-.41-.41-.41h-.81l-.41-.41-.41.41-.41-.41h-.41l-.41-.41-.82-.41-.41-.41h-.41l-.41-.41-2.04-.81h-.41l-.41-.41h-1.23v-2.45h-.41l-.41-.41-.82-.41-2.86-.81v-.82l-.41-.41-.41-.82-.81-1.23-1.64-2.86-2.04-2.45,7.35-3.26,3.67-4.08h1.23l2.04-.41h2.45l1.63-.41,1.63-.41,1.23-.82,1.22-1.22,1.64-.82,2.04-1.63,2.45-2.86.41.41,2.86-2.86,1.22-1.63h.41v-.82l.81-.82.41-.81.4-1.63.82-2.04v-.41l.41-.41v-.82l.41-.82h5.31l1.23-.41.81-.41v-1.63l2.86-.81.82-4.49.41-1.63h.41l.82-.41h.41l1.23-.41h.82l4.08-1.23,3.67-1.22,1.63-.41,1.63-.41v-.41h-.41l-.41-.82-.41-.41-.41-.41-.82-1.23h-.41v-.41h-.41l.41-.41,1.63-.41,1.22-.81,1.64-.82.41-.41,2.04-.82,1.23-.82.41-.41.41-.82.41-.41.4-.82.82-.82v-1.22l.41-.41v-.81l.41-1.23v-.41l.41-.41v-.41l.41-.82v-.41l.41-.41v-.82l.41-.4v-1.63l.81.41,1.23.41h.41l3.68-.82h.41v-.41l.41-.41,2.04-2.04h2.45v-.41l1.23-2.04.82-.81v-.41l.41-.41.82-1.63,1.63-3.26.41-.41,1.22-2.04v-.41h-.41l-.41-1.23-.4-.41-1.23-1.63v-.41l.41-.4v-.82l-1.22-2.86-.82-2.04v-.41h.41l.81-.82h.41v-.41h.41v-.41l.82-2.04,1.22-3.26.41-.82v-.81l2.45-6.94.82-1.63-.82-1.63-1.22-2.04-1.63-2.86-1.22-2.04v-.41l-.41-1.63v-2.45l-.41-.82v-2.86h.41v-.81l.82-1.64.82-.4,6.94-4.9,4.9,1.63h1.23l3.67.82h.82l7.35,1.63.4-.41v-1.63l.41-.82v-4.49h-.41l.41-.82v-1.23l-11.43-4.08h-.41l-3.26-.82.81-4.49,1.64-4.49,1.23-3.67v-2.04l-2.45-.41h-.41l-7.35-.41-2.04.82v-.41h-.82l-1.63.41h-.41l-1.23.41h-.41l-2.04.82h-.41v-.41l-.41-2.45-.81-6.12-1.23-2.86-.41-1.23-.81-2.86-.41-.82-.41-.82v.41l-1.63,1.63-3.68,3.67-6.94,7.76-.41.41-4.08,4.49-2.45,2.45-3.67,4.08-1.23,1.63-1.63,1.63h-.41v.41l1.63.82.82.41v.41l-.41.81-2.45,2.86v.41l-.41.41-.41.41v.41h-.41l-.41.41-.41.82-2.45,2.04-.82.82-.41.41h-.41v.41h-.41l-.41.41h-.41v.41h-.41l-.41.41h-.82l-.41.41h-.82l-.41.41h-.82l-1.22.82h-.41l-.82.41-2.45-2.45-.82-1.23-.41-.41-.41-.82h-.41l-3.26-2.86h-.41l-.81-.81-.41-.41-.41-.41-.82-.41-.41-.82-1.63-1.22-3.15-2.84-5.82,2.84h0Z"/>
  <text class="cls-10" text-anchor="middle" alignment-baseline="central">
    <tspan x="320" y="370">Jüchen</tspan>
  </text>
  <path class="cls-3" d="M251.18,377.59h0l-4.4-11.19-1.86-4.73-4.32-4.03h0s0,0,0,0l.53-5.56h-2.65,0s0,0,0,0l6.44-10.32-2.2-2.96h0s1.16-1.65,1.16-1.65l1.04-1.47h2.03l3.44-6.08h0s-10.08-5.04-10.08-5.04l-9.49-4.74h0s0,0,0,0v-7.53h0s3.44,0,3.44,0v-4.63h-4.23l-7.67-23.55h0,0s4.23,0,4.23,0v-10.31l-1.59-3.44-.27-8.88,1.85-5.92-9-5.92-5.29-2.65,3.17-4.93-5.67-4.83-9.15-7.79v-8.54l-1.44.58-1.2.48h0s0,0,0,0l-4.5-8.73h0s0,0,0,0l-.58-3.3-2.07-11.78-.58-1.31-.48-1.07.24-1.28.81-4.28-4.03-5.57-4.97-6.87-1.98.82v18.89h0s0,0,0,0l-4.3-3.13-.07-.05-10.71,13.49-10.32,2.38h0s0,0,0,0l-14.25-15.87-5.98-34.67-8.33-8.19-14.29-3.17h-5.56l-34.13,3.17-3.61-1.14h0s0,0,0,0l1.23,1.53-6.35,7.38s-5.55-1.03-7.14,0c-1.59,1.03-4.37-4.76-4.37-4.76,0,0-4.76-.63-6.35,0-1.46.58-13.64,8.6-15.58,9.89l1.83,5.22.27,14.28,16.4,5.56,1.06,8.73-6.61,13.49.26,10.05,9.26-1.23,5.03,2.45,8.47,2.04,2.91,8.91,3.97,6.35,8.33,1.06,5.16,3.44.53,17.46,21.16,11.11-4.76,8.91s14.02,1.67,14.81,1.94c.79.27,8.47,1.06,8.47,1.06l2.29-5.02,5.91.79,4.23-2.65,6.62.27v28.04l-8.98,6.41-21.58,15.41,1.99,3.57-3.31,4.41,3.05,5.37-2.12,5.03,7.14,5.02,4.23,7.14,7.67-3.01,4.5,3.01,5.03-6.61,5.29,3.61h15.87s10.32-3.87,10.32-2.81-3.17,13.76-3.17,13.76h-6.62l-2.65,6.35,18.52-2.65v5.56l8.2,1.84-2.12,4.51,3.7,1.85,5.56-5.29,13.23-1.48,2.38,6.77h7.41l5.03-1.06,6.88-1.32,1.59,2.38,18.52-4.23,1.75-2.54h-1.49Z"/>
  <text class="cls-10" text-anchor="middle" alignment-baseline="central">
    <tspan x="150" y="240">Mönchen-</tspan>
    <tspan x="150" y="260">gladbach-</tspan>
    <tspan x="180" y="280">Südwest</tspan>
  </text>
  <path class="cls-5" d="M106.07,148.25h5.56l14.29,3.17h0s0,0,0,0l8.33,8.19,5.98,34.67,14.25,15.87,10.32-2.38,10.71-13.49h0s.07.05.07.05l4.3,3.12v-20.24l-2.8-1.09-20.62-8.04h0s0,0,0,0l13.04-10.81,3.23-2.68.6-1.92.82-2.63.33-1.04.24-.76-2.98-3.77,4.56-4.96h0s0,0,0,0l29.56-5.95,3.17-1.19,3.37,2.58v2.61l5.36-.82s4.16-1.59,4.16-2.38-.79-3.17-.79-3.17l1.45-3.73h0s.13-.34.13-.34l2.19-5.65-2.58-4.56h0s0,0,0,0l3.02-4.22.99-1.39,2.94-4.11-1.99-6.35h0s0,0,0,0l1.99-1.39,2.38,1.19-1.39-9.72,8.13-1.01,4.56-.57s2.58-8.33,1.79-8.14c-.34.09-2.77.31-5.45.55-3.6.32-7.64.64-7.64.64h0s0,0,0,0l-2.89-22.38-12.78,7.25s-7.42.43-17.18.94c-18.71.98-46.05,2.28-46.31,1.5-.4-1.19-10.32-11.51-10.32-11.51l-3.97-17.06-19.84,2.38-3.57,6.72h-7.94l-2.78,2.4-13.09-2.4v10.48l1.58,30.01-11.79,7.67-7.65,10.19-7.93,11.51-2.38,7.54.2,8.16.2,8.11,5.12,6.41,3.61,1.14,34.13-3.17Z"/>
  <text class="cls-10" text-anchor="middle" alignment-baseline="central">
    <tspan x="150" y="90">Mönchen-</tspan>
    <tspan x="150" y="110">gladbach</tspan>
    <tspan x="150" y="130">Nord-West</tspan>
  </text>
  <path class="cls-4" d="M378.54,214.91l-4.9-11.63h0s.56-.03.56-.03l8.42-.39v-5.42l-5.91-15.2-.39-1.01-2.67-9.58-.96-1.56-6.69-10.9-12.15,10.9-1.74,1.56-1.69.69-11.81,4.86-12.22,8.52-.87.61-4.17-5.1h-3.23s-.15-.16-.15-.16l-6.74-7.04h0s0,0,0,0l20.24-36.48h-27.18l-1.19,4.53h-5.95l-.82,1.95-1.76,4.2-6.35,3.97-3.35.72-1.29.28-3.3,1.34-11.5,4.66v1.55l-18.06,6.94-1.39,3.97-5.95-3.17-5.36,2.18-6.74-9.13h0s0,0,0,0l.79-1.93-6.35-13.54,2.36,1.23,2.6,1.35,6.35-3.77h6.35v-7.31h-3.57l-3.57-1.22h0s0,0,0,0v-2.18l-13.63-6.71-1.45,3.73s.79,2.38.79,3.17-4.17,2.38-4.17,2.38l-5.36.82v-2.61l-3.37-2.58-3.17,1.19-29.56,5.95-4.56,4.96,2.98,3.77-.24.76-.32,1.04-.82,2.63-.6,1.92-3.23,2.68-13.04,10.81,20.62,8.04,2.8,1.09v1.35h0s1.98-.82,1.98-.82l4.97,6.87,4.03,5.57-.82,4.28-.24,1.27.48,1.07.58,1.31,2.06,11.78.58,3.3,4.5,8.73,1.2-.48,1.44-.58h0s0,0,0,0v8.54l9.14,7.79,5.67,4.83h0s0,0,0,0l-3.17,4.93,5.29,2.65,9,5.92-1.85,5.92.27,8.88,1.59,3.44v10.31h0s-4.23,0-4.23,0l7.67,23.54h4.23v4.64h0s-3.44,0-3.44,0v7.53l9.49,4.75,10.09,5.04h0s4.76-5.29,4.76-5.29h0s0,0,0,0l1.43,1.29,1.21,1.09.8,4.35.53,2.87h7.67l-2.38-3.79,1.12-1.2,2.58-2.77-.75-1.65-.57-1.26,3.65-2.43,14.6-9.73h0s0,0,0,0l11.11,10.31v3.71l1.32.65,2.96,1.46,2.06-2.38,1.59-2.91-2.12-9.65h0s36.24-1.73,36.24-1.73l-16.4-47.26,51.83-2.74v-2.38l4.9-2.63-2.49-4.08,4.23-3.27h0s0,0,0,0l2.34,3.27,5.82-2.84-.93-.83h2.64l3.1-1.51-1.24-.93-1.64-1.63-2.45-2.04-4.08-3.27,2.45-2.86-2.45-2.04-1.23-1.22,6.12-2.86h0s-4.5-14.5-4.5-14.5h-5.72Z"/>
  <text class="cls-10" text-anchor="middle" alignment-baseline="central">
    <tspan x="280" y="220">„Rheydter</tspan>
    <tspan x="280" y="240">Gürtel“</tspan>
  </text>
  <path class="cls-5" d="M388.74,63.88l-10.2-6.76-8.38,10.97h0s-4.36,0-4.36,0c0,0-.6.37-1.37.89-1.27.86-3.02,2.13-3.39,2.86-.04.07-.08.1-.14.09-.05,0-.1-.06-.16-.13,0,0,0,0-.02-.01-.1-.13-.22-.35-.35-.62-1.03-2.15-2.71-8.25-2.71-8.25l-1.59-9.92-11.31-1.79h-8.73l-2.58,1.59-1.79-1.59-5.95,44.64,6.94,21.43.15,2.23.22,3.28.29,4.45.14,2.15-.89,3.66-1.09,4.51h0l-20.24,36.48,6.74,7.04.15.16h3.23l4.17,5.1.87-.61,12.22-8.52,11.81-4.86,1.69-.69,1.74-1.56,12.15-10.91,6.69,10.91.96,1.56,2.67,9.58.39,1.01,5.91,15.2h0v5.42h0s-8.42.39-8.42.39l-.56.03,4.9,11.63h5.72l4.5,14.5,33.06-10.21.41-.41v-.41l-.41-1.63v-1.23l1.22-.82v-.41l.82-.82h.41v-.41l.41-.82v-1.63h-.41l.41-.41v-1.23l.41-.41v-1.22l-.41-.41v-.82l.41-.41.41-.41v-2.04l-2.45-.41v-3.67h-.41l-11.84,2.04-.41-3.67,1.22-.41,1.64-.41h.41l.82-.41.81-.41.41-.41h.41l.41-.41.41-.41-.82-1.23v-.81h.41l-.41-.41v-.41l.41-.41.41-.41v-1.63l.41-2.04.41-4.9,5.72-.41h1.23l7.35-.41v-.41.41l7.76-.41.41-.41,1.63.41.41.82v.41h.41l2.86-2.45-.41-2.04,1.63-.41h.4v-.41l-.4-1.23-1.23.41-.41-2.45,5.31-2.45.81,1.63,6.13-4.49,3.26-2.45,3.26-2.45,3.27,4.9,1.23,2.45,1.22,1.63.82,2.04.82-.41,2.04-2.04,3.68-4.08,3.67-4.08,1.63-1.63v-.41l-.81-.41-1.63-.82v-.41h-.41l-.4-.41-.41-.41v-.4h-.41l-.41-.82-1.23-1.23-.82-1.23-.82-1.22-.81-1.64-.82-.81-.82-1.63-.41-.81-1.23-2.45v.41l-.82.82-.82,1.23-3.26,3.26-4.08-6.53h-.41l-1.63-4.49,3.68-1.23,2.04-.81h.41l.81-.41v-.82h.41l.4-.41,1.23-.41h.82l.82-.41h.82l.82-.41.81-.41h.82l-.82-6.94h-11.84l-2.04-7.35v-2.04h-.41v-.41l-3.67.41h-3.26v-1.22l-.41-2.86,1.64-2.04.4-.41v-.41h-.4l-2.04-2.04-.82-1.23-2.86-2.86,2.04-.41-1.22-3.67.81-.41h.41l-.82-2.04v-.82h1.23v-.41l-.82-2.04h.41v-.82l-.82-2.86v-15.51l-2.45.41-.82.41h-1.23l-.81.41-4.49.81v-1.63l-.82-4.08v-1.23l-.41.41h-.82l-.41.41h-.82l-1.63.82-2.86.82-5.3,1.63-.41-2.45-2.45.41-5.71,1.23-3.27.41-3.26.81-1.23.41v-8.98l.41-.41.41-.41,1.63-1.23v-.81l.41-.82v-.82l.41-1.63.41-.41.41-2.86.41-2.04.41-.82v-.82l.41-.41.41-.41,1.23-.82v-.41l1.22-.82.82-1.22.82-.41.41-.41.41-.41.41-.41v-.75l-22.86-4.92-8.57,18.93Z"/>
  <text class="cls-10" text-anchor="middle" alignment-baseline="central">
    <tspan x="390" y="110">Korchen-</tspan>
    <tspan x="390" y="130">broich</tspan>
  </text>
  <path class="cls-3" d="M244.76,81.18c.79-.2-1.79,8.14-1.79,8.14h0s-4.56.57-4.56.57l-8.13,1.02,1.39,9.72h0s0,0,0,0l-2.38-1.19-1.99,1.39,1.99,6.35h0s0,0,0,0l-2.94,4.11-.99,1.38-3.02,4.22,2.58,4.56h0s0,0,0,0l-2.19,5.65-.13.33,13.63,6.71v2.18l3.57,1.22h3.57s0,0,0,0v7.31h-6.35l-6.35,3.77-2.6-1.35-2.36-1.23,6.35,13.54-.79,1.93,6.75,9.12,5.36-2.18,5.95,3.17,1.39-3.97,18.06-6.94v-1.55l11.5-4.65,3.31-1.34,1.29-.27,3.35-.72,6.35-3.97,1.76-4.2.82-1.95h0s5.95,0,5.95,0l1.19-4.53h0s27.18,0,27.18,0h0s0,0,0,0h0s1.1-4.51,1.1-4.51l.89-3.66-.14-2.15-.29-4.45-.21-3.28-.15-2.23-6.94-21.43,5.95-44.64h0s0,0,0,0l1.79,1.59,2.58-1.59h8.73l11.31,1.79,1.59,9.92s1.68,6.1,2.71,8.25c.13.27.25.49.35.62,0,0,0,0,.02.01.06.07.12.12.16.13.05,0,.1-.02.14-.09.37-.73,2.12-2,3.39-2.86.78-.52,1.38-.9,1.38-.9h4.36l8.38-10.97h0s0,0,0,0l-7.35-4.87v-7.3l-18.17-4.59v-5.9l-16.26-4.08-3.95-.99h-18.68s-13.33-12.29-30.56-28.39l-2.5,1.61-4.36,5.95-14.68,23.41-7.54-2.59v6.95l-15.08,13.86,2.38,2.4-13.01,7.38,2.89,22.38s4.04-.33,7.64-.64c2.68-.24,5.11-.46,5.45-.55Z"/>
  <text class="cls-10" text-anchor="middle" alignment-baseline="central">
    <tspan x="280" y="65">Mönchen-</tspan>
    <tspan x="285" y="85">gladbach</tspan>
    <tspan x="280" y="105">Mitte</tspan>
    <tspan x="280" y="125">Nordost</tspan>
  </text>
</svg>