<?xml version="1.0" encoding="UTF-8"?>
<svg xmlns="http://www.w3.org/2000/svg" viewBox="0 0 512 512">
  <defs>
    <style>
      .cls-1 {
        fill: #fff;
        font-family: DMSans-Bold, 'DM Sans', sans-serif;
        font-size: 28px;
        font-variation-settings: 'opsz' 14, 'wght' 700;
        font-weight: 700;
      }

      .cls-2 {
        fill: #b19bb8;
        stroke: #f2f2f2;
        stroke-linejoin: round;
        stroke-width: 6px;
      }
    </style>
  </defs>
  <path class="cls-2" d="M217.87,389.01l.38-1.52h8.73l1.52-5.5s-2.09-3.79-2.09-4.36-7.97-6.07-7.97-6.07l-1.52-.95-1.52-1.52,5.31-6.83,5.88-3.47h2.09v-1.84l4.17-1.71,7.21-4.74v3.6l1.52-1.33h3.8v2.47h4.18l1.9-1.33,4.93-4.37,3.99-2.28v-1.71l4.18-.57,5.12,2.47v2.09l2.28,2.09h8.09l-1.64-1.71-.83-3.42,1.4-5.69,8.54-2.66,3.04-1.9,1.71-6.07,4.93-2.73,6.07,4.44h3.99l1.14-4.44,2.66-1.06,2.47-1.71,3.42-6.07,7.21-2.47,7.4-4.5,3.42-1.38,3.1,1.38,7.53-1.01,6.26-1.52,7.78.38,9.87,2.14h6.07l11.77-1.77,11.2-.95-6.83-8.92-4.56-2.09-6.26-5.5-3.79-4.56-6.45-8.92-2.85,1.37-3.61-.99-3.79,2.28-2.47,2.09h-3.6l2.28-3.38-6.26,2.05-8.16-2.05-2.47.91h-5.12l-2.47-2.66h-7.4l.95-3.42-5.12-1.14.95-2.47-3.8-2.28,2.28-2.28-.57-2.2-1.9,1.25-8.35-2.66,2.85-5.12,3.42-1.71,2.66-2.47,6.83-5.11.95-2.68,4.14-2.66-5.66-3.99-2.66,1.71-5.31-3.61s-3.23-2.84-3.8-3.41c-.57-.57-2.85-5.51-2.85-5.51l-7.21,4.61-3.04,3.93-4.93,6.26-3.23,3.6s-13.1-8.16-13.67-8.73c-.57-.57,2.66-3.99,2.66-3.99v-2.47l5.51-12.15,6.07-2.28,4.17-4.36,4.75.76v-15.75l7.4-.76,4.74-1.33v-11.2l7.02,1.31,5.51-3.96-1.33-7.4s4.17-1.9,4.74-2.09c.57-.19.57-6.26.57-6.26l-4.74,1.52-2.09-2.85,15.37-18.79-3.04-9.68,1.71-19.93,8.92-4.56,1.33-5.31,2.28-2.66,4.18,3.49,2.09-1.02,2.09,1.02,10.34-6.46.1-.06-1.71-7.78h3.13l-6.18-5.59-6.82-6.17,10.25-9.3h12.91l2.85-2.09-.95-3.99-6.83,1.52-6.26-10.82.95-1.9-2.85-7.83-3.13-3.94,2.18-1.9-2.18-3.61,3.82-2.06-.3-.22-1.29-6-19.4,13.78-7.02-2.09-1.32-3.59v-.02h-7.79l-1.22-4.18-1.43,1.71-2.66-3.42-5.69,3.99-10.82,1.9-20.5-19.17-11.77-5.69-15.94-5.12-22.39-1.9-1.9-2.85-2.47.57-3.04,8.73-1.53,6.48,3.72.26v1.99l-2.28,2.85v7.12l-1.14,1.99-5.22,3.99-3.04-.19-.76,1.9-8.73.57-.95-1.52-6.64,2.09-2.66-.38-1.39,10.7,5.57,9.61v2.09l-7.78,7.59-.95,4.74-10.25,10.63-10.06,7.51s-5.12,5.77-6.83,6.53c-1.71.76,0,8.16,0,8.16l-2.66,6.26,1.14,22.58-2.38.19-4.45,9.68v7.21l2.85-1.52,5.41-7.12,4.71-.86,3.84-1.99,5.98,2.56v5.12l-3.08,3.8-1.76,3.32-6.55,14.54-2.56,5.1-13.44,10.42-6.15,1.82-3.76,4.03-12.06,1.09-5.59-1.09-12.81,13.62-2.5,2.67.11.11.59.29h.29l1.17.88v.29h.29l.59.29.29.29h.29l.3.3.59.29.29-.29.59-.3v.3l.58,1.17v.29l.29.29h.29v.29h.29v-.29h.29l.29.29h1.47l.29.29.29-.29h.29l.29.29h.29v-.29l.59.29h.29v.29h.59l.29.29h.59l.59.29.29.3h.59v.29h.88v.29h.29l.59.29v.29h.59v.29h.29v.29h.29v1.47l.29.58.29.3v.58l.59.88.29.29h.29v.88h.3v.29h.29v-.29h.59v.29h.59v.29l.29-.29h1.17l.29-.29h.3v-.3h.88l.29.3v-.3h.29v.3l.29-.3.29.3.29-.3h1.17v-.29.29h.58l.29.3v-.3l.29.3h1.17v.29h.58v-.29.29h.3v-.29.29l.29-.29.29.29h1.47l.29.29h.59l.29-.29h.88v.29h.3v.3h.29v.29h.88v.29h.59v.29h.59l.29.29h.29v.59h-.58v.29h-.29l-.29-.29h-.29v.58h-.29v.59h-.29l-.59.29-.59.29h-.58l-.3.29-.29.29h-.29l-.29.29h-.59v.29l-.29.29-.29.29-1.17,1.47-.59.29-.29.29h-.29v.3h-.59v.29h-.29v.29h-.29v.29h-.29v.29l-.29-.29-.58.58v.59l-.3.29-.29.3v.58l-.29.29v.29h.29v1.47l-.29.29v.88h.29v1.47h-.29v.29h.29v1.46l.29.29v.3l-.29.29v.59h-.29v.88h-.29l-.29.29h-.29v.29h.29v.3h-.29v.29h-.29l-.29.29v.29l-.29.29v.29h-.58v.59h-.3l-.29.29h-.59v.59l-.29.29h-.29v.59l.58.3v.88h-.29v.29l.29.29h-.29v.59l.29.29h-.29v.3l.29.29v.59h.3l.29.29h1.17v.29h.29l.29-.29h.29l.29.29h.29v.29h.29l.29.29v.29l.29.88v.3h.3l.29.29v.59h.29v.29h.29v1.17h.29v.88l.29.29v.58l-.29.88-.29.88v.29l-.29.29-.29.88v.3l-.29.58-.3.29v.29l-.29.29v.29l-.29.29v.59l-.29.29v.29l-.59.59v.29l-.59.59v.29h-.29v2.05l.88.88.29.29.29.29h.29l.29.29h.29l.3.29h.29v.29l1.17,1.17v.29l.29.59v.29l.59.29v.29l.59.29.59.59,1.46.29.59.3h.29l.29.58h.29l.29.29.3.59.29.59v.59l.29.29.3.29h1.17v.3h1.47l.58.29.3.29h1.17l.59-.29.29-.29.29.29h.58l.3-.29.29.29.59.29.58.29,1.47,1.47.88.88.59.29.88.59,1.17.29.59.59,2.63-.59,6.15-1.76.88-.29,1.47,3.22,1.17,2.34.29,1.47.29,1.76v.29l.59,2.93v.88l.29,1.17v1.47l.29.58v1.76l.3,2.64.29.58.29,3.51v1.47l-1.17.88.88.59h.29v1.17l-.29.59v.88l-1.17,5.86v.88l-.29,1.47-.29,1.17v1.17l-.29.29v.59l-.29.29-.58.58-.59.88-.29.3-.29.58v.29l-.29.59v1.46l-.59,1.47-.29.29v.59l-.29.29h-.29v.59l-.29.88-.3.88-1.76,2.34-.29.58-.29.88-1.76,2.05-.3.58v.29l-1.46,2.05v.29l-.29.3v2.34l.29,1.46,1.17,5.57v.88l.29.29v.59l.88,4.39v.88l.3.29v1.76l-.3.29v.58l-1.17,2.34-2.05,4.98-.3,1.17-1.17,2.93-.3.29v.29l-.29.29v.29l-.29.29v.29l-.59.29-1.17.88-2.05,2.05h-.29l-.29.29-.29.29-.29.29-.88,1.17-2.05,2.34-.29.58v.59h-.29v.29l-.29,4.1v1.76h-.3v.88l-.29.59v.29h-.3v.29l-.29.29-.29.29-.29.29-1.17.88-1.47,1.17-1.46,1.17-.59.29-2.34,2.05-1.76,1.17-.88.59-.29.29-.29.29h-.3v.29l-1.46,2.34v.29l-.59.59-.88,1.46-.3.88-.29.29-.29.59-.59.88v.29h.29l-.29.3.29,1.17.3.29.88.29.88.58.88.3h.29l.59.29.29.29h.3l.29.3.29.29,1.47,1.76,1.17,1.46.3.29.29.29.29.29v.59l.3.29v.29l.29.29.29.88.29.58.59.3v.58h.29l.29.29h2.05v.29h.88l.29.29.29.3h.29l.29.29,1.76,1.46,1.47.88.29.29v.29h.29v.3l.59.88,1.17,2.63.29.29.29.3.29.58v.3l.59.58.29.58-.29-.29h-.59l.88,1.46.3.59v.29l1.46,2.63.29.3v.29h.29v1.47h.29v.59l.29.29v.29l1.47,2.05.29.59.29.29.3.29.29.29-1.17,1.17.29.29-1.76,1.47.29.29-.88.59.88.58v.29l.29.29.3-.29.59-.29.29-.29.88-.29.59,1.17,1.17-.29h.59l.29.29h.29l.3.29h.29l.29-.29v.88l.29.88v.3h.58v-.59h.3v.29l.58.59.3.59.58.88.3.29v1.17l.29-.29.59-1.17v.29l.58.59v.29l.3.29.29.3.29.88.29.29v.29l.29.29.59.59.29-.29.88.88h.29l.29-.29,1.17-.59h.3l.58-.59.88.88.29.29.88.88-.88.29.88,1.17-.3.58v.29l1.47,1.17.29-.29.88-1.17,2.34,2.05.88.88,1.17,1.17.58.59.88.88.59.58,2.05,1.76,1.76,1.76.59.29.29.59.29.29.29.29h.29v.29h.29v.29l.29.29v.3l.29.29.3.29.29.3v.58l.3.29v6.44h-.3v3.22l.3.29v.59h.29l.29.29h.29l.29.29h.59l.29.29h.59l.58.29h.59l.29.3h.88l.29.29h.58l.59.29h.29v.3h.3v.29l.29.29.29.29.29.29v.29l.29.3v.88l-.29.88-.29,1.17v1.17l-.29.29v1.47l-.29.88v.58l-.3.88v.59l-.29.59v1.76h-.29v1.17l-.3.59v1.17l-.29.88v.88l-.29.59v1.47l-.29.88v.58l-.29.88v.88h.88l.29.3.3-.3h.88l1.17.59h.88l1.76-.29.59-.3h.88l.29-.29h.29l.29-.29.29-.29.88-.29.59-.29h.88l.59.29h.29l.59.29.88.29.88.29.59.29v.3h.88l.29.29.29.29h1.47l1.17.3,1.17.29.88.29h1.17v-.88l-.29-.29-.29-.29v-.3l-.29-.29-.29-.29v-.59l-.3-.29-.29-.29v-.29h-.29v-.29l.29-.59v-.59l.29-.29v-.59l.3-.29.58-.29-.29-.59-.88-1.17v-.29l-.29-.29-.88-1.76-.29-.88-.29-.29-.29-1.17v-.59l.29-.88v-.58l.29-.3.29-.29h.29l.29-.29.3-.29.58-1.17v-.88l.3-.29h-.59l-.59-.3h-2.34l-.58.3h-2.64l-.29.29-1.46.88h-.3v-.29l-.29.29h-1.17l-.59-.88-.29-.29-.59-.88-.29-.29-.3-.59v-.59l-.58-.59-.29-.88v-.29h-.29l-.29-.59-.29-.88-.58-.59v-.29l-.3-.29-.29-.3v-.29l-.29-.29-1.76-2.93-.29-.29-.29-.59-.29-.29-.58-.88v-.29l-.59-1.47-.88-1.76-.29-.59v-.29l-.29-.88v-.59l-.29-.59-.29-.58-.29-.88-.29-.59v-.59l-.29-1.17v-1.17l.29-1.17.29-1.47v-.88l.29-.29v-.88l.29-.29v-.29h-.29l.29-.29h.29l.29-.29-.29-.3v-.29h-.29v-.29l-.59-1.17-.29-.29-.88-1.76-.59-.88v-.3l-.29-.58v-.29h-.29v-.29l-.29-.88-.29-.29v-.3l-.59-1.17h-.29l-1.17-1.76-.29-.59-.58-.58-.59-.59.29-.29.29-.29.29-.29.29-.29.29-.29v-.29l.3-.59.29-.29v-.3h.3v-.29h.29l.29-.29h.29l.29-.29.59-.29h.29l.29-.29h.3l.29-.29.29-.29.59-.29.29-.3h.29l.29-.58.59-.3.29-.58.29-.29.3-.59.29-.29.29-.29.3-.59.29-.29v-.29h-.59l-.88.29-.58.29-1.17.3-2.34.88-1.76.59-2.05.59-.88.29-.88.3h-.29l-.3-.3-.58-.88v-2.64l.88-.29.29-.29v-.29l.59-.59.29-.59,1.17-.88.29-.3.29-.29v-.88l-.29-.29v-.29l-.29-.59v-.88h-.59l-.88.29-.59.29h-.59v-.29h-.29v-.29l-.29-.3v-.29h-.3v-.88l-.29.29v-1.46h-.29.29v-.59h-.29v-.59h-.29v-.29h-.29v-.88l-.29-.29v-.29h-.29l-.29-.29h-.29v-.29h-.59v-.29h-.29v-.29h-.3v-.3h-1.17l-.59-.29.3-.59v-.58l.58-1.47v-.29l-.29-1.76v-3.81l.29-1.17.29-.59v-.59h.29v-.29h.29v-.29l.3-.3.29-.29h.29v-.29h.3l.29-.29.29-.29v-.29h.29v-.3l-.29-.29v-.29h-.88v-.3h-.29v-.29h.29l-.29-.29h-.29v-.29h-.88v-.29h-.88.29v-.59h-.29v-.29h-.3v-.29h-.29v-.3h-.59v-.58l-.29-.3v-.29h-.29v-.29h-.59v-.88h-.29v-.29h-.29v-.59h-.29v-.29h-.29v-.29h-.29v-.59h-.29v-.29l1.76-.3,4.39-1.17,2.93-.59h.3l1.17-.29.29-.29,2.63-.59h.88l2.93-.88,3.51-1.17h.59l2.05-.88h.59l7.03-2.05,3.73-5.2h2.47Z"/>
  <text class="cls-1" text-anchor="middle" alignment-baseline="central">
    <tspan x="220" y="220">Hellen-</tspan>
    <tspan x="220" y="262">thal/</tspan>
    <tspan x="260" y="304">Schleiden</tspan></text>
</svg>