<?xml version="1.0" encoding="UTF-8"?>
<svg xmlns="http://www.w3.org/2000/svg" viewBox="0 0 512 512">
  <defs>
    <style>
      .cls-1 {
        fill: #fff;
        font-family: DMSans-Bold, 'DM Sans', sans-serif;
        font-size: 28px;
        font-variation-settings: 'opsz' 14, 'wght' 700;
        font-weight: 700;
      }

      .cls-2 {
        fill: #b19bb8;
        stroke: #f2f2f2;
        stroke-linejoin: round;
        stroke-width: 6px;
      }
    </style>
  </defs>
  <polygon class="cls-2" points="471.46 266.13 480.84 241.39 509 218.22 493.75 210 490.23 208.11 472.31 174.83 459.51 125.34 440.25 125.34 439.03 132.16 421.97 129.6 414.29 148.44 406.61 143.26 377.59 147.13 377.59 155.02 364.79 160.32 361.38 164.59 346.88 164.59 322.98 136.44 288 102.3 253.87 81.82 236.79 77.34 226.56 85.23 216.32 102.3 203.52 91.21 159.14 77.34 149.76 77.34 132.7 57.93 96.86 67.31 20.06 85.23 3 119.36 21.77 164.59 45.66 173.98 28.59 184.22 37.13 201.28 31.24 226.03 28.59 237.13 18.68 261.73 28.59 266.13 78.94 278.93 78.94 289.32 94.94 327.36 98.14 345.91 107.1 363.19 111.57 368.31 176.95 368.31 181.34 363.83 181.34 386.88 201.18 382.4 204.37 386.88 216.54 386.88 220.37 379.51 233.17 382.4 233.17 375.36 240.21 376.64 240.21 384.32 232.53 390.08 233.82 393.91 240.21 397.29 240.21 413.75 258.13 418.87 258.13 430.2 253.01 441.91 254.29 447.03 266.45 447.03 266.45 454.07 292.04 454.07 301.88 448.95 319.8 432.45 339.41 414.39 339.41 423.99 352.21 436.15 356.05 433.59 388.04 437.43 388.93 436.93 400.84 430.2 400.84 407.36 450.12 372.16 445.01 364.48 476.36 347.2 480.84 326.72 491.72 305.6 509 296.85 485.96 261.87 471.46 266.13"/>
  <text class="cls-1" text-anchor="middle" alignment-baseline="central">
    <tspan x="256" y="250">Alsdorf</tspan></text>
</svg>