<?xml version="1.0" encoding="UTF-8"?>
<svg xmlns="http://www.w3.org/2000/svg" viewBox="0 0 512 512">
  <defs>
    <style>

      .cls-2 {
        fill: #fff;
        font-family: DMSans-Bold, 'DM Sans', sans-serif;
        font-size: 28px;
        font-variation-settings: 'opsz' 14, 'wght' 700;
        font-weight: 700;
      }

      .cls-3 {
        fill: #997ca1;
        stroke: #f2f2f2;
        stroke-linejoin: round;
        stroke-width: 6px;
      }

    </style>
  </defs>
  <path class="cls-3" d="M127.19,309.23v10.53l-3.14,13.33,7.71,11.53,16.17,5.08v13.19l2.6,6.6-2.6,5.1-11.1,19.56v11.35l6.6,7.6,8.11,3.74,4.57-4.76,15.7,15.22-20.26,16.74v7.61l18.16,35,2.11,4.06v9.88h-10.62l2.53,6.86,8.74.97,14.09,1.57h48.7l8.63-6.09,10.65-9.13,1.2-8.12.83-5.58-7.1-22.75h5.58l5.08-8.2,4.57-5.58-8.63,2.04-11.16-3.56,2.53-7.1,5.08-5.07,3.04-6.09,11.67-4.57,2.03-13.19-3.55-5.58-2.53-3.04-5.08,3.04h-5.58l1.52-7.29,3.04-2.85,4.06-8.11-3.04-8.6-6.6-5.1h-7.6v-5.59l6.08-8.62,1.02-9.64-6.09-4.57h-8.12l-4.06-4.57-1.52-7.72h-3.55l-2.03-2.43-3.04-6.6-5.36-.51-2.76-4.95,2.76-16.35-8.85-9.64,11.98-12.68,8.82,9.13,6.09-3.32,16.23,10.17,2.03,11.35h5.58l3.04,6.28,17.25-6.28v13.76l8.62-2.41-2.03,6.47,9.64,8.01,35.51-54.68-18.26-15.22,16.23-10.34,6.29-15.62,5.89-14.63,1.57-6.6,3.5-14.71-5.08-10.14,10.14-6.09-14.2-5.58-11.16-26.89,10.15-20.3,45.65-10.65-6.41-18.3-4.25-12.14h14.21l2.53-5.09-7.42-9.69-.19.58-12.68,2.53,3.04,6.58-9.13,5.09-7.61-5.87-8.12-2.25-7.1,5.08-5.08-11.16-13.19-6.6h-11.16l-2.54-4.06v-10.65h-11.16c-.51,0,0-26.38,0-26.38l-31.96.51-3.04,9.64-34.01-7.11,8.22-21.81-9.8-4.24-2.33,2.32-.79,1.57-.78.78v.78h-.78v6.26l-.78.78v.78h-.78v.78h-.78v.78l-.78.78h-.78l-1.57,1.56h-.78l-2.35,1.57-1.57,1.57v.78l-1.57.78-.78.78-.78.78h-.78v.78h-.78v.78l-.78.78v.78h-.79v1.56l-.78.79v.78l-.78,1.57v.78l-.79.78v1.57l-.78.78v.78l-.78,1.56v.79l-.78,1.56v2.35l-.78.78v2.35l.78.78v7.04h-.78v3.13h-.78l-.78,2.35-1.56,3.13-1.57,3.13-.78,2.35-.79,1.57h-.78v.78l-.78,1.57v8.61l-.78.78v1.57l-.78.78v.78h-.78v3.13l-.78,1.57v4.69h-.78v1.56h-1.57v1.57h.79l-.79.78v.78l-.78,1.57h-.78v2.34h.78v.79h.78v.78l.79.79v.78h.78v.78h-.78v1.57l-.79.78h-1.56v3.92h.78v1.57l.78.78h.79v4.7l.78.78.78.79v2.35l.78.78v.78l.78.78h.78v-2.34h1.57v.78h.78v.78l.79.78v3.13h.78v3.13h.78v.78l-.78.78v.78h-.78l-1.57.78v.78h-.78v1.57h1.56v3.13h1.57v-.78.78h.78l.79.79v.78l.78.78v1.57h-2.35v.78h-.78v2.35l.78.78v.78h2.35v-2.35l.78-.78h.78v.78h.78v.78h.78v.78l.78.78v.78l.78.79v.78h.78v.78h.79v2.35h1.56v.78h2.35v.78h.78l.78.78v.79h.78l.78.78v1.57l.78.78,2.34.78h.79v.78h.78v1.57l.78,2.35v.78l.79.78-.79.79v1.56l-.78.79-.78.78v.78h-.79l-.78.78-3.13,3.91.78.79.78.78.78.78v.79l.78.78v.78l.78.78.79,1.57v1.57l.78.78v1.57l.78,1.57v1.56l1.57,3.13v.78h.78v.78l-.78.78-1.57.78-1.56.79-1.57,1.56h-.78l.78.79v.78l.78.78v6.26l-.78,1.57v.78l-.78,1.57-.78.78-.78,1.57v1.56l-.78.79-.78,1.56-.78,1.57-.78.78-.78,1.57-3.13,6.26v.78l-1.57.78h-3.13l-.78.78h-1.56l-.79,4.69v4.7h-.78l-.78.78-4.7,3.14-3.13,1.56h-.78v1.57h-.78v.79l-.79,3.9v2.35l-.78,1.57-.79,3.92v2.35l-.78,1.56-1.57,7.83v3.13l-2.35,10.18v1.56l-.78,3.92-.78,6.26-.79,3.13v.78l-.78,3.13-.78,5.48v2.35h-.79v.79l-.78-.79h-.78v-.78l-1.57-.78-.78-.79-.78-.78-1.56-.78-2.35-.78-1.57-.78-1.57-1.57h-.78l-.78-.78-1.57-.78-.78-.78-3.14-.78-1.56-1.57-2.35-.78-3.13-1.57-1.57-1.57h-1.56l-.79-.78v-.78h-1.56v-.78h-.78v.78h-.78v-.78h-.78v-.78h-3.91v-.78h-.78v-.79h-1.57v-.78h-2.35v-.78h-5.48v3.8l3.14,13.83Z"/>
  <text class="cls-2" text-anchor="middle" alignment-baseline="central">
    <tspan x="276" y="110">Herzogen-</tspan>
    <tspan x="276" y="152">rath</tspan>
  </text>
</svg>