<?xml version="1.0" encoding="UTF-8"?>
<svg xmlns="http://www.w3.org/2000/svg" viewBox="0 0 512 512">
  <defs>
    <style>
      .cls-1 {
        fill: #fff;
        font-family: DMSans-Bold, 'DM Sans', sans-serif;
        font-size: 28px;
        font-variation-settings: 'opsz' 14, 'wght' 700;
        font-weight: 700;
      }

      .cls-2 {
        fill: #89abd6;
        stroke: #f2f2f2;
        stroke-linejoin: round;
        stroke-width: 6px;
      }
    </style>
  </defs>
  <path class="cls-2" d="M488.06,284.99l-14.73-36.16-30.72,2.91-2.76-19.27-16.07-33.5v-13.07l-3.35-25.44-147.3-18.08-20.09,11.39-15.87-13.39-43.72-9.67-13.47-7.62-34.9,13.24-38.56,13.2-30.45,15.32-11.16-17.35-21.31-16.15-14.21,12.09-12.78-14.99-2.44,19.05s-10.15,21.68-11.16,28.09c-.58,3.64,52.72,54.6,98.96,98.02,6.58,6.18,13.02,12.21,19.13,17.93,26.69,24.94,47.33,43.97,47.33,43.97h28.93l6.11,1.54,25.18,6.32v9.13l28.12,7.1v11.3l11.38,7.54,15.8,10.47,13.27-29.32,35.4,7.61v-.73l7.59,1.89,3.79.64,1.26.63h3.16l.63.63h5.06l4.42.64h3.16v-.64l1.9-3.79,2.53-5.06,1.26-3.79,1.9-3.16.63-1.27.63-.63-.63-.63v-1.26l1.9-.63h1.26l.64.63,3.16-2.53,5.69-3.79v-.63l1.26-1.26h.63v-2.53h.63v-2.53l-12.64-1.26.63-1.9,1.26-1.89,1.27-6.96,5.69.64,1.26.63h4.43l1.9.63,3.16.63h2.53l.63-.63h1.27l1.26.63h3.79l8.22-.63v-3.16h9.48l11.38.64v-.64l12.64.64v-2.54l10.12.64.63-9.48,8.85.63.63-10.11,32.87,1.89-1.9-5.69.63-.63,1.26-.63h3.16l3.16-.63,2.53-.63h1.9l1.9-.63h.02s-8.21-11.95-8.21-11.95h-12.72Z"/>
  <text class="cls-1" text-anchor="middle" alignment-baseline="central"><tspan x="256" y="256">Willich</tspan></text>
</svg>