<?xml version="1.0" encoding="UTF-8"?>
<svg xmlns="http://www.w3.org/2000/svg" viewBox="0 0 512 512">
  <defs>
    <style>

      .cls-2 {
        fill: #fff;
        font-family: DMSans-Bold, 'DM Sans', sans-serif;
        font-size: 28px;
        font-variation-settings: 'opsz' 14, 'wght' 700;
        font-weight: 700;
      }

      .cls-3 {
        fill: #60acb5;
        stroke: #f2f2f2;
        stroke-linejoin: round;
        stroke-width: 6px;
      }

    </style>
  </defs>
  <path class="cls-3" d="M490.41,231.45l-.57-.79-7.57-10.61h-12.97l-5.48-7.05s-20.08,10.85-21.71,9.76c-1.63-1.08-19.54-7.6-19.54-7.6l-3.25,7.6-10.86-8.68s-8.68,1.63-10.31,2.17c-1.63.54-9.77-29.85-9.77-29.85h-15.74c-1.63,0-7.06-7.6-7.06-7.6l-7.05-8.68,17.9-21.16-23.88-35.27-42.87,4.34s.54,5.97,0,7.6c-.55,1.63-32.55-9.22-32.55-9.22l21.7-55.35-7.06-9.22s-10.31-41.78-11.4-45.04c-1.08-3.26-46.66,16.82-48.83,16.82s.55-6.51,0-8.14c-.54-1.63-16.28,4.88-16.28,4.88v-5.42l-11.93,5.42-3.26-9.22-8.14-5.43-5.36-2.71-22.32,19.26s-.81-9.77-3.26-11.4c-2.44-1.63-29.3,8.14-29.3,8.14l-17.91,4.88s-13.02,8.95-16.28,7.3c-3.26-1.66-4.88.84-7.32,0-2.45-.84-26.87,20.37-26.87,20.37l-20.78,8.95-13.87,3.97-7.13,11.08.54,20.77,12.48,15.74,7.06,17.91,11.4,8.68,13.02,26.5,16.28,3.34-.54,8.69,4.88,3.26,11.4,11.28,8.68,2.83,10.31,14.99-2.45,8.08.82,6.51-6.51,4.88,8.14,8.15,5.69,8.12,10.59,1.63,4.07,11.4,22.79,21.16-4.07,8.14,8.14,6.51-2.44,13.02,7.32,8.95,22.79,8.14v6.51l4.41,2.81,4.54,2.89-14.24,20.57,14.24,8.74,2.85,11.8-2.85,3.26,1.42,7.89,1.43,7.98,28.9,45.58-12.62,9.77s16.69,22.38,16.28,24.01-4.48,5.69-4.48,5.69l33.12,21.55.66.43,17.5,5.29,10.17-16.28,37.85-34.18,9.36,15.87,22.38-13.02,12.62,3.26-5.69-35.41,12.62-5.69s-3.66-12.62,0-13.02c3.66-.41,16.27,8.95,16.27,8.95,0,0-6.1-21.97-4.88-21.97s23.61,2.04,24.83,1.22c1.22-.81,4.07-18.31,4.07-18.31l-6.1-2.04,6.1-8.14,5.7-.81-7.73-32.15,15.46-1.63s-1.22-4.48,0-4.48c.5,0,7.3.6,15.19,1.32-.78-3.56,0-15.83,0-15.83h17.96v-32.56l-4.39-2.71-5.43-17.36,14.11-22.79,16.82-9.77Z"/>
  <text class="cls-2" text-anchor="middle" alignment-baseline="central">
    <tspan x="265" y="245">Hückelhoven</tspan>
  </text>
</svg>