<?xml version="1.0" encoding="UTF-8"?>
<svg xmlns="http://www.w3.org/2000/svg" viewBox="0 0 512 512">
  <defs>
    <style>

      .cls-2 {
        fill: #fff;
        font-family: DMSans-Bold, 'DM Sans', sans-serif;
        font-size: 28px;
        font-variation-settings: 'opsz' 14, 'wght' 700;
        font-weight: 700;
      }

      .cls-4 {
        fill: #89abd6;
        stroke: #f2f2f2;
        stroke-linejoin: round;
        stroke-width: 6px;
      }

    </style>
  </defs>
  <path class="cls-4" d="M179.09,53.61l-6.71-12.88-4.17-.18-3.27-4.9-3.99-2.54-4.54-4.72-15.19-.73-3.31-2.72-7.26-3.08-24.12-11.97-12.33-3.26-10.88-2.18-7.44-1.45,2.36,7.26-.73,7.62.73,2.54-.54,2.72-.18,3.63-11.79,11.61-1.09,2.54-1.99,1.45s-9.25,10.52-9.79,10.7c-.54.18,11.43,15.06,11.43,15.06l-1.27,1.27,2,2.9-3.99,4.35,7.26,11.61-2.54,1.63,1.99,3.99-3.08,1.09,12.15,8.34,2.72,5.08h-13.06l1.99,5.8-1.09,5.08v3.08l2.54,2.72v12.51l-.49.21-.24,1.97-.18,4.17,2.72,4.17,3.63,4.72-.18,5.8,5.44,1.09,2.72,1.45.73,2.72,1.63.91,3.81,4.17,2.18,4.35,3.08-.54,6.71-1.86-.36-3.04,26.84-12.88-1.45-4.24,3.81-1.21,8.52,13.79,2.18-.18,1.27-3.63,4.54-1.27,2.9-1.99,2.54,1.45.36-1.27,2.18.73,3.99-5.08,2.54,2.54,10.16-2.54,7.07,7.07,3.08,6.71,4.71,8.71-.73,3.45-3.63,4.9-2.18,3.99-1.45,3.77-5.44,6.03-.18,5.8-2.18,2.9s-7.44,9.07-8.89,9.61c-1.45.54.54,10.52.54,10.52h4.9l6.71-2.54,3.63,3.81,9.79-3.81,2.54,3.81,3.99-1.09,1.45,3.99,2.18-1.45,7.8,13.42,5.62,14.33-4.35,1.81-1.27-2.9-8.52,2.36.9,1.63-4.53,3.26,1.63,2.72-7.43,3.27,1.81,6.35-.43,2.25-3.2,16.8,9.25,3.26,2.9,3.63-2.66,2.72v1.69l-.1.13,14.01,6.7-3.99,4.72-5.08,2.36-1.45,2.9,10.52,20.32,6.35-4.17,5.44,5.08-4.71,1.63.54,1.99-3.27,1.82s8.71,14.33,7.44,15.06c-1.27.73-23.76,14.15-23.76,14.15l3.63,5.98-9.43,8.89-8.52,4.35-4.9,1.81v4.72l2.54,3.26,13.79,15.42-13.24,5.8-.18,3.81,7.44,9.25,1.12,4.54-1.48,7.62s8.35,9.43,8.52,9.98c.18.54,5.26,2.54,5.26,2.54l-.73,1.63-4.9,1.09-.18,7.62,3.27,1.27h4.71l-1.34,5.44,10.77,3.53.24-.24.75.37.76.44h0s0,0,0,0l1.84,1.06,2.61,1.12,2.24,1.12v.75l-.38,1.86v.38l1.87-.75h2.61l2.61,1.49,2.24,1.12,1.86.75h.37l-.37.37-2.61,4.1-1.12,1.49v.37l2.99,1.12h.74l.37.37.74.75,1.12,1.12h.74l.75.37h.37l1.87.38,1.49.37h2.61l2.61-.37.75,2.98h.37l1.49-.37,3.36-.75-2.24-4.85-1.12-3.73h.37v-.37l5.97-1.12.38-.37,2.98-.38,2.24,1.49h5.6l.37.75.37-.37.75-.37.37-.37.38-.38h.74l1.12-.75,1.12-.37,1.12-.75h.38l.74-.37h.75l1.87-.75,2.24-.74h.75v-.38l-.38-.74-.37-.75v-4.11h-7.47l-.37-.37h-.37l-1.12-.37h.38l.37-1.87.37-2.24,1.87.37.37-.37v-.75l.38-1.87v-2.24l.37-1.86v-1.5l.75-1.49.37-1.12v-.37l.37-.38.37-.37v-.75h.37l.75.75v-.38h.37l-1.12-.74-1.12-1.12,4.85-2.24,2.61-1.12.75-.38,2.24,1.5h.37l1.87-.75,4.1-1.87.37.37,2.98-.75,4.1-.37-.74-1.12,5.22-2.99v.37l3.73-2.24,2.24-1.12-.75-1.87-1.12-2.24,2.61-1.86h.37l-.37-.37,6.72-4.1-1.12-1.5,6.35-4.85-3.73-4.85,2.61-1.86.74-.75.38-.37.74-1.12.37-.74,2.24-1.87,2.24-1.87h.37v-.37l-.75-.75,5.22-5.6-1.49-1.12-.75-.75-1.49-1.12-1.12-1.12h.37l.75-1.12,5.22,5.22,2.61,2.24,3.36,2.61,2.99,2.61,3.36,2.24,1.87,1.12,1.86,1.12.75.37,1.87,1.12.37.37,1.49.75,3.36,1.86h.38l.74.38,1.12.74,1.49.75.75.37,2.61,1.5.75.37,2.24.75,5.22,1.86v.37h.37l.75.37,2.61,1.49v.37h.37l1.49,1.87,4.1,2.61,1.87,1.49,1.86,1.86,3.73,2.99,1.49,1.86,2.61,2.61,1.12.37h1.87l.37.38h.37l1.12,1.12.38-.38.37-.37.37-.37h.37v-.38h.37v-.37h.37v-.37h.37l.75-.75,1.12-1.49.74-.74,3.73-3.73v-.37h.37l2.61-2.98,2.24-2.61.38-.37.74-.75,1.87-1.87v-.37l4.85-4.85,1.86-1.86,4.1-4.48.75-.75,1.12-1.12,1.49-1.87.75-.75,1.49-1.49.75-1.12.37-.37-1.86-1.49-.75-.37-2.61-2.24-.37-.37-5.22-3.73h-.37l-1.87-2.61,1.49-1.49,1.12-1.49,1.86-1.87,1.49-1.12,1.49-1.86,1.49-1.49,1.86-1.87-3.73-3.73.74-.37-2.98-4.48,1.49-1.12v-.37l-2.98-4.11.75-.37v-.37l5.6-4.1h.37l.37-.75-1.12-.74-2.61-1.87v-.37l-1.49-1.49-3.36-4.48v-.37l-.75-1.49-.37-1.49h-.37l-1.49-4.48-1.49-4.85-2.24-7.09-1.87.37h-1.12l-.37-1.12v-.37l-.38-.75-.37-1.12v-.75l-.37-.74-.37-.75-.75-2.24h-1.86v-.37h-.75l-.74-2.99-1.49-5.6-.74-2.98-1.5-5.97,1.87-.38,4.48-1.49,5.97-1.49,1.86-.37,3.36-.75-1.12-4.48-2.24-8.58-1.49-5.22h.37l2.61-.75v-.37l-1.5-5.97-.74-4.85h-.37l-.37-1.87-.75-2.61-.75-2.61-1.49-5.6-1.86-5.22v-.37l-2.61-8.21.75-1.86-.38-.38h.38v-.37l1.49.75h.37l.75.37h1.49v.37h5.22v-.74l.38-9.33v.38l11.57-.38v-.37l.37.37-.37,8.96h23.51l4.1-.37,2.24-.37-.38-1.12v-2.61l-.74-3.73-.37-4.1-.37-3.36v-1.12h-1.87l-2.61.37-1.87.37v-.37l-1.12.37v-11.2l-.37-2.61-.38-1.87.38-.37,1.49.37h5.6v-1.49l-.37-2.61v-5.97l-.37-1.87h-5.6l-2.61.37h-1.49l-.38-.37v-8.96l-.37-.75v-2.98l-.37-.75v-11.19h-.38v-.38h-3.73l-4.11.38h-5.97l-1.87.37h-4.1l-.37.37h-3.73l-.37-.37-.37-.37h-.75l-.37-.38h-.37l-.37-.37h-.37l-.38-.37h-1.12v-.37h-.37l-2.24-.37h-.37v-.37h-.74l-.38-.38-1.12-.74h-.37l-.37-.38h-.37v-.37l-.37-.37-1.12-.75-1.87-1.12-1.86-1.49v.75l-.38,1.12v.37l.38.37v.75l.37.37v.37l.37.38v.37h.37v.37l-.37.75v.37l-.37,1.12v.38l-.75,1.49v1.12h-.37v4.1l-.37.75h-.75l-.37-.37h-.38l-1.49-.75h-.37l-.37-.37h-.75l-1.49-.37v1.12h-.75v-.37h-.74v-.37h-1.12l-.75-.75h-.75l-.37-.37-.75-.37h-.37l-.37-.38-.75-.37h-4.1v.37h-.37l-.37-.37-1.12-.75v-.37l-.74-.75-1.12.38-.75-.75-1.12-.37-.37.37h-2.99l-1.87-.37h-1.49v-1.12l-.37-1.12v-.75h-.37l-.75-.37h-.37l-.37-.38-2.24.38-.75.37-.75.75h-.37l-.37.37-1.49.75h-.37l-1.12.74h-.37v.38h-.37v.37l-.37.75-.37.74h-.75l-.75.37-1.12.74h-.37l-.37.38h-.75v.37h-.75v.37h-1.12l-.75.75v1.87l-.74.37-.38.37h-.37l-.37.37-.37.37h-.37l-.37.38-.37.37h-.37l-.37.37h-.38v.38h-.37v1.12l.37.37-.37.75-1.49.37h-1.12v-.37h-.75v1.12l.37.37v1.49l.37.75v.37l-1.49.75-.37.37h-.37l-.75-.74h-.37v-.37l-.37-.37-.75-1.49-1.49.74h-.37v1.49h.37v.37l.37.37h-.37l-2.24.75h-.37l.74,1.49v.37h-.74l-.37.37-4.1,1.49-2.98,1.12-.37.37-2.61.75v-1.86l-.37-1.49-.37-2.24v-2.61l-1.12-7.47h-8.21l-2.61.38h-2.24v-.38l-2.98-.74v-.37l-.37-5.97v-5.23l3.73-.75-1.12-6.34h1.12l-.75-.75v-.37l-.75-.37-.74-1.12-.75-1.12-.75-.37-.74-1.12-1.12.74-.38.75-.74.75-1.12,1.12v.37l-.37.37h-.37l-.37.75-.38.37-2.61.37h-.37v-.37l.37-.37v-.37l.37-2.24v-.75l.37-.37v-.37l.37-3.73v-1.87l-1.87-3.36-2.61-3.36-1.12-1.49-.38-.37-2.98-4.1h-.38l-2.24,1.12-8.21,2.61v-.37l-.37-4.85v-1.12l-10.08.75-.37.37-7.46,1.12-6.72,1.87-2.61-5.6-2.24-5.6h-.37l-.37-1.5-1.12-2.61-4.85,3.73-2.61-4.48-2.61,1.87-11.19,5.22-2.24-4.1,1.12-1.12.37-.37-.37-.37v-.75l.37-.37.38-.37,6.72-3.73.37-.37h1.5l.74-.37,2.99-1.87-.75-1.49-.37-.75.37-.37h2.61v-.38l-2.24-2.98-4.1-5.22-2.24-4.85-1.49-3.36,2.61-1.12,3.36-3.36,5.22-1.87h-.75v-.37l-.37-.37h-.75l-.37-.37-.75-.37h-.37l.74-2.99-1.12-2.98-1.12-2.24-.37-1.12-.75-1.86-2.24.74-2.61,1.12.37-4.48v-1.12l1.49-.74,1.12-.38v-.37l1.12-.37.74-.37h.75l1.12-.37,1.49-.75h.75l2.99.37-2.99-8.58-1.12-4.1-.37-.37-.75-2.24v-.74l-.75-2.24-3.73-11.19-1.49-4.1-2.61,4.48v.37l-2.24-.37-4.1-.75-2.98-.75v.38l-.75-.38-2.24-.37-1.86-.75-1.49-.37-4.48-1.12h-.37l-5.97-1.49-4.48-1.12-2.24-.37-1.87-.74h-1.12l-.75-.38h-.74l-.75-.37-4.85-2.61v-.6l-.88.23-10.88-4.24Z"/>
  <text class="cls-2" text-anchor="middle" alignment-baseline="central">
    <tspan x="310" y="260">Merzenich/</tspan>
    <tspan x="310" y="302">Niederzier</tspan>
    <tspan x="310" y="354">Nörvenich</tspan>
    <tspan x="310" y="396">Vettweiß</tspan>
  </text>
</svg>