<?xml version="1.0" encoding="UTF-8"?>
<svg xmlns="http://www.w3.org/2000/svg" viewBox="0 0 512 512">
  <defs>
    <style>
      .cls-1 {
        fill: #fff;
        font-family: DMSans-Bold, 'DM Sans', sans-serif;
        font-size: 28px;
        font-variation-settings: 'opsz' 14, 'wght' 700;
        font-weight: 700;
      }

      .cls-5 {
        fill: #b19bb8;
        stroke: #f2f2f2;
        stroke-linejoin: round;
        stroke-width: 6px;

      }
    </style>
  </defs>
  <path class="cls-5" d="M494.19,205.59h-9.19s-4.6-5.97-5.05-7.35c-.46-1.38,10.1-26.64,10.1-26.64l-11.48,2.76-5.51-6.89.85-4.95,1.91-11.12-3.22-6.43-.46-12.4s7.35-7.81,7.81-10.68c.46-2.87,3.67-10.91,4.13-12.29.46-1.38-6.89-19.75-6.89-19.75l-12.19,13.48h-8.95l-2.76,5.35-3.67,16.53-8.27,2.3-6.43-5.63-6.43,8.84v6.44l-7.81,4.45-16.08-5.82-11.03,5.82v14.39l-21.13,1.83-8.73-27.56-5.05-8.39,3.68-9.99,10.1-8.56s-2.76-5.67-2.76-7.51-16.77-2.53-16.77-2.53l-5.62-2.86-2.31,1.48-2.76-1.72-18.6,9.99-2.76,4.82-6.89-5.51-7.23,6.89-6.21-8.27v3.79l-6.55-1.72h-9.65l-5.17,3.15-4.82-2.8-11.37,13.78-19.98.34-10.34,7.24-10.33-12.75-2.06,1.72-10.69-16.54-1.37-8.61-3.79-9.65-29.28,18.26-2.06-5.85,7.23-10.34-2.76-4.13h-9.99l-7.35-12.63,4.13-2.76-8.73-8.27,8.73-6.43-5.05-5.97-2.3-10.45-29.86,18.72-11.48,7.35h-15.16l-.92-3.67-2.3-7.81,6.43-23.43h6.89l.46-5.05,8.73.92v-4.59l-19.3-6.89-4.59,18.37-22.97-7.35v-5.97l-11.03-5.05-7.81,1.78v35.89h-9.65l-3.22,5.97h-9.88l-8.04,7.81-8.27,10.58,7.35,9.63-13.32,5.97,5.51,18.84,9.65,12.86,7.12,7.35,9.88,2.18v9.76l10.22,12.98,12.06-3.02-1.38,13.35,19.29,39.97-8.61,13.78-12.4,8.74-2.3,5.76-.81,2.03-3.21,5.51-4.71,1.72-.16.09,3.26,4.39,4.13,11.37-4.83,8.27,2.3,6.55-6.78,6.21,3.79,5.51-8.27,11.03,4.48,4.13-3.44,4.82,16.54,15.51v7.58l5.51,12.94-4.83,2.56,2.42,6.55h3.79v6.2l8.27,1.72,2.06,7.92h60.29l37.56,13.32-10.68,51.92,47.77,18.37,30.7,24.77,7.43,6s-6.61,28.89-7.11,36.67c-.07,1.16-.02,1.86.22,1.93,1.84.46,29.86,0,29.86,0l9.75-2.44,6.79-1.7,66.61-14.24,4.16-25.87,2.27-14.09-8.27-6.18-7.81-4.84,8.27-18.37-.46-3.68,5.05-16.53,5.05-9.19-3.67-5.05,20.21-28.48v-4.59l5.51-2.76,5.51-11.95v-14.24l11.03-31.29,10.1-4.54,2.76-5.05,9.19-6.43,7.81-13.32v-5.51l5.51-3.42,6.43-5.31,2.76-6.43-5.05-18.37,10.1-4.13,11.46-4.03,7.38,4.03,11.03,1.83,9.65,5.51,10.12-14.35-8.74-8.15Z"/>
  <text class="cls-1" text-anchor="middle" alignment-baseline="central">
    <tspan x="240" y="250">Stolberg</tspan>
  </text>
</svg>