<?xml version="1.0" encoding="UTF-8"?>
<svg xmlns="http://www.w3.org/2000/svg" viewBox="0 0 512 512">
  <defs>
    <style>
      .cls-1 {
        fill: #fff;
        font-family: DMSans-Bold, 'DM Sans', sans-serif;
        font-size: 28px;
        font-variation-settings: 'opsz' 14, 'wght' 700;
        font-weight: 700;
      }

      .cls-2 {
        fill: #91c1c8;
        stroke: #f2f2f2;
        stroke-linejoin: round;
        stroke-width: 6px;
      }

    </style>
  </defs>
  <polygon class="cls-2" points="342.19 448.66 351.88 436.81 356.54 426.05 377.72 412.05 396.01 398.06 421.32 366.84 421.32 343.16 432.6 328.09 432.6 315.18 432.59 315.16 402.62 287.19 410.01 276.42 402.62 269.96 413.24 259.73 426.15 254.08 432.6 242.79 439.87 227.44 448.75 227.44 458.44 203.22 458.44 195.15 464.9 195.15 464.9 179.01 456.02 174.97 450.37 166.9 456.02 140.79 421.32 112 413.24 112 402.62 108.77 392.24 92.62 400.85 83.74 391.43 75.66 392.24 61.13 400.85 49.84 417.56 28.07 404.62 19.15 378.38 19.15 374.49 19.15 374.49 3 341.11 19.15 332.5 12.69 320.66 12.69 313.68 11.67 312.04 30.65 293.75 20.23 286.22 30.65 280.83 50.36 272.22 50.36 252.84 70.82 234.55 102.04 213.69 98.27 136.45 208.37 93.52 271.04 54.78 296.41 49.39 311.95 64.47 324.86 85.79 337.78 117.21 351.77 115.06 366.84 93.52 392.67 59.08 430.35 47.1 462.25 50.91 464.16 62.54 469.14 74.16 472.46 84.14 475.79 92.43 479.11 99.08 482.43 105.73 485.74 114.03 487.42 120.68 490.73 128.97 494.05 132.3 495.7 133.96 495.7 133.96 497.38 135.62 497.38 137.28 495.7 140.61 495.7 147.24 495.7 155.55 495.7 157.21 495.7 158.88 495.7 167.17 495.7 170.51 495.7 177.15 495.7 178.81 495.7 182.13 494.05 183.79 494.05 187.11 494.05 195.42 494.05 200.4 494.05 202.06 494.05 203.73 494.05 208.71 495.7 213.7 495.7 220.33 495.7 222 495.7 225.32 495.7 226.98 494.05 231.97 492.39 235.28 489.07 236.95 489.07 238.6 487.42 245.25 484.08 246.91 482.43 248.58 484.08 248.58 485.74 250.22 489.07 253.55 494.05 258.53 499.04 265.18 507.35 266.85 509 266.85 507.35 268.51 505.68 271.83 500.7 278.47 490.73 280.14 489.07 280.14 487.42 281.79 485.74 283.45 484.08 285.11 482.43 286.78 482.43 286.78 480.76 288.44 480.76 290.1 480.76 300.07 479.11 301.72 480.76 305.05 480.76 306.71 480.76 308.36 480.76 310.03 480.76 315.02 480.76 316.67 482.43 320.01 482.43 341.59 484.08 343.26 484.08 353.21 485.74 336.81 460.83 342.19 448.66"/>
  <text class="cls-1" text-anchor="middle" alignment-baseline="central">
    <tspan x="276" y="220">Gregor von</tspan>
    <tspan x="276" y="262">Burtscheid</tspan>
  </text>
</svg>