<?xml version="1.0" encoding="UTF-8"?>
<svg xmlns="http://www.w3.org/2000/svg" viewBox="0 0 512 512">
  <defs>
    <style>
      .cls-1 {
        fill: #fff;
        font-family: DMSans-Bold, 'DM Sans', sans-serif;
        font-size: 28px;
        font-variation-settings: 'opsz' 14, 'wght' 700;
        font-weight: 700;
      }

      .cls-2 {
        fill: #997ca1;
        stroke: #f2f2f2;
        stroke-linejoin: round;
        stroke-width: 6px;
      }

    </style>
  </defs>
  <path class="cls-2" d="M465.76,154.96v-21.64l-53.86-13.6v-17.49l-48.2-12.11-11.72-2.93h-55.38S257.1,50.74,205.99,3l-7.42,4.79-12.94,17.65-43.53,69.42-22.36-7.67v20.61l-44.7,41.11,7.06,7.13-38.58,21.87,8.58,66.38s36.47-2.94,38.82-3.53c2.35-.58-5.3,24.12-5.3,24.12l-37.64,4.71,4.12,28.82-7.06-3.52-5.89,4.12,5.89,18.83-8.71,12.2-11.87,16.63,7.64,13.53-6.88,17.75,40.42,19.89v6.48l10.58,3.62h10.59v21.67h-18.83l-18.83,11.18-14.71-7.65,18.83,40.15-2.35,5.73,20.01,27.06,15.88-6.47,17.64,9.41,4.12-11.77,53.54-20.59v-4.59l43.9-17.76,13.76-2.94,18.83-11.77,7.65-18.24h17.64l3.53-13.43h80.6l5.88-24.22-1.28-19.56-1.07-16.32-20.59-63.53,17.65-132.37,5.3,4.71,7.65-4.71h25.89l33.53,5.3,4.71,29.41s8.23,29.91,10,26.43c1.76-3.49,14.12-11.14,14.12-11.14h12.94l24.84-32.51-21.79-14.45Z"/>
  <text class="cls-1" text-anchor="middle" alignment-baseline="central">
    <tspan x="195" y="300">Mönchengladbach</tspan>
    <tspan x="195" y="342">Mitte-Nordost</tspan>
  </text>
</svg>