<?xml version="1.0" encoding="UTF-8"?>
<svg xmlns="http://www.w3.org/2000/svg" viewBox="0 0 512 512">
  <defs>
    <style>
      .cls-1 {
        fill: #fff;
        font-family: DMSans-Bold, 'DM Sans', sans-serif;
        font-size: 28px;
        font-variation-settings: 'opsz' 14, 'wght' 700;
        font-weight: 700;
      }

      .cls-2 {
        fill: #825e8b;
        stroke: #f2f2f2;
        stroke-linejoin: round;
        stroke-width: 6px;
      }

    </style>
  </defs>
  <path class="cls-2" d="M133.08,266.9l13.51,17.42v11.73h-3.73l7.64,11.08-17.78,15.63,1.07,23.77,7.82,10.67,8.89,1.78v4.98l-3.2,5.33,3.2,2.85,12.44,6.4,4.27,6.75,9.24,8.53,3.91,3.56h18.84l2.49,7.11-3.56,7.82,3.56,2.49,7.11-6.76,4.27,14.93v23.11l10.31,9.6,2.49-7.82,11.73-11.73,17.07-4.62v4.27l17.78,6.75-1.42,4.27-11.02,2.85-6.07,21.26-1.04,3.62,3.2,8.69-4.62,11.57h14.93l14.93,9.59,3.2,4.62,4.98-1.78,6.75,1.78v-13.51l8.35-18.13,4.45-.35-2.13-42.31,4.98-11.73s-3.2-13.87,0-15.29c3.2-1.42,12.8-12.24,12.8-12.24l18.84-14.07,19.2-19.91,1.78-8.89,14.58-14.22v-3.91l-10.43-17.99,2.62-20.05,4.98.71,12.44-3.91,1.78,2.84,16.36-1.07,1.42-3.55,5.69.36,9.77-7.47,2.13-3.74v-13.33l4.27-5.33v-3.73l-6.96-.48-.33,1.37v8.18l-6.4,9.24v8.53h-2.13l-3.2-6.98-5.33-8.31-4.62-3.91-9.24,3.91-9.24-9.6-5.33.35-8.66,9.25-3.51-4.18-2.76-3.28,1.42-9.24,6.4-4.06,7.47-2.7,4.26-6.4.36-7.82-4.98-11.02-8.66-1.68-12.32,5.59-3.91-5.59.71-9.34,5.69-2.49,14.93,2.49,11.02-3.2-.36-9.24-3.91-4.27-4.98-13.16,7.11-1.42,7.11,1.78,11.38,17.07,9.24-3.91,2.13-13.51s-7.11-23.11-7.47-24.18c-.35-1.07,9.25-3.55,9.25-3.55v-7.47l-12.45-3.2-15.99.36-12.09-17.42-2.49,13.16,2.49,9.59-14.58-2.13.71-9.95,6.76-9.24-7.11-13.87-9.6.36-5.69-23.11,7.47-11.29-4.27-13.6-24.18,17.42-5.33,11.02-2.13,1.78-6.76-10.31-9.24,9.6-9.6,5.33v2.52l-11.38,3.88-2.84,5.33-11.38,3.56-3.91,5.33-4.62-1.78,4.62-16.32-7.11-2.87-9.95,2.87-2.13-6.78v-14.93l-2.49-7.36-10.31-7.21-8.18,4.47-3.56-6.6-14.22-2.01-12.09,8.61-4.62-15.49-18.49-11.38-5.89-11.72v-13.15l2.69-13.35-.28-2.04-7.54,1.89s-21.68.35-23.11,0c-.18-.05-.23-.59-.17-1.49l-25.85,25.67-8.1,14.21-17.43,12.81,3.31,23.46,4.39,7.82,4.39,4.98,6.99,9.63,7.27,23.08,8.5,11.38-19.92,7.11-9.43,17.13,2.19,24.68-.57,4.42.57-.03h8.23v-.55h.54l1.65-.55.55-.55h1.09l.55-.55,2.2-.55,4.39-1.64v.54h.55l1.1.55h.55l1.64,1.1,3.84,1.1,3.29,1.1h.54v1.64l.55.55.55.54.54.55v.55l1.1,1.65,1.65.55v.55h.55v9.32l-.55.55v6.03l-.55.55v1.65l-.54.55v1.1l-.55.54v1.1l-.55.54v.55l-.55.54v.55l-1.1,1.1v.55h-.55v.55l-.54,1.09-1.1,1.1-.55,1.65h-.55l-.54.55v.55l-.55.55-1.1,1.65-.54.54v.55h-.55v.54l-1.65,2.2-1.09,1.65v.55h-.55l-1.1,1.65-1.65,2.19-.1.14,21.75,15.93,3.2,11.73Z"/>
  <text class="cls-1" text-anchor="middle" alignment-baseline="central">
    <tspan x="250" y="250">Simmerath</tspan>
  </text>
</svg>