<?xml version="1.0" encoding="UTF-8"?>
<svg xmlns="http://www.w3.org/2000/svg" viewBox="0 0 512 512">
  <defs>
    <style>
      .cls-1 {
        fill: #007bb8;
      }

      .cls-1, .cls-2, .cls-3 {
        stroke: #fff;
        stroke-linejoin: round;
        stroke-width: 2px;
      }

      .cls-2 {
        fill: #5992c7;
      }

      .cls-3 {
        fill: #89abd6;
      }

      .cls-12 {
        fill: #fff;
        font-family: DMSans-Bold, 'DM Sans', sans-serif;
        font-size: 18px;
        font-variation-settings: 'opsz' 14, 'wght' 700;
        font-weight: 700;
      }

    </style>
  </defs>
  <path class="cls-2" d="M129.09,432.13c0-.68,7.1-3.27,7.1-3.27l2.58-5.2h3.23l4.52-4.73,3.88-5.56,6.78-8.39s5.89-.97,6.62-1.46c.73-.48,2.9-4.12,2.9-4.12l11.63,8.24,2.18,6.54,2.63.48,3.19,1.89.48.29,3.88.24,2.66,5.09,9.69-.24s.07-.05.18-.12c1.19-.78,8.62-5.68,9.51-6.03.97-.39,3.87,0,3.87,0,0,0,1.7,3.53,2.67,2.9.97-.63,4.36,0,4.36,0l3.88-4.5-.75-.93-3.13-3.91-.12-4.95-.12-4.98,1.45-4.6,4.84-7.03,4.67-6.22,7.2-4.68-.97-18.32v5.63l-9.69-3.05-3.04-7.51-.59-1.46h-3.27l-6.9-7.25-.93.62-1.25.83-.97-2.42h0s0,0,0,0l.24-1.03.97-4.2-.5.06-1.68.19-1.64-2.9-4.17-7.38-.97-14.05h-3.15v-2.59l-2.85.25-.14-.63-1.37-6h0s0,0,0,0l3.87-.97-1.71-2.28-.65-.86-5.63-2.71-7.2-11.58-4.22-1.88h0s-.01,0-.01,0l-9.41,13.45h-4.37l-8.07,9.39-1.19-3.13-8.9-23.44h0s0,0,0,0l5.04-2.21.34-.15-1.68-4.27,1.04-4.44.64-2.72h-5.38l-27.24-31.94h-6.05l-1.35-2.02-12.9,2.02h-3.23s0,0,0,0l-15.86-11.21-.09.61v.25l-.5.25-.5,1-1.24,1.74-.75,1.5-.25.25-1,1.74-.5.5-1.74,2.99-1.74,2.49-.25.75-.75.75-1.24,1.25-.25.5-.25.25-.75,1-.5.5-.5.5-1,1-.5.5-.5.75-.25.25-.5.75h-.25l-1.49,1.75-.5.5-1.5,1.99-1.49,1.49-.75.75-.5.75-1.99,2.24-.75,1.99-.25.25-.5,1.49-.75,1.99-1,2.99-.5,1.25-.75,1.74v2.24l-.25,1.75v.25l-1.75,1.74-1,.75-1.25,1.5-1.25,1.24-.25.25-2.49,2.74h-.25l-1.74,1.99-1.99,1.99-2.24,2.24-.5.5-1.74,1.74-2.74,2.74-1,1-1.5,1.75-2.49,2.49-2.49,2.49-.5.5-.75.75-1.5,1.49-1,1-1.99,1.99-2.24,2.49-2.49,2.49-.25.25-2.74,1.5-1.25.75-1.75,1-2.99,1.74-2.99,1.75v.5l.75,1.75.5,1.25,1,2.49.75,1.49.25.75.5,1.75.25.5.75,1.75,1,2.24.25,1,.75,1.74.25.25v.5l.5,1v.25l.5,1,.75,2.24h.25v.25l.75,2.49.25.5.5,1.49.5,2.24-.75.25-1.49.5-1-.5h-.5l-1-.25h-1.49l-2.24-.25h-3.24l-2.24.5-1,.75-.25.25-1.5,1v10.46l1,.25.25,3.74v4.24l.25,3.49v5.73l.25.75v4.73l.25,2.99v2.99l.25,5.73.25,3.74v6.23h.25l1.25,2.74,1.74,2.99,1.49,2.74.25.5v.5l.25.25.25,1,.5,1.5h.25v.25l1,2.74.25,1,.25.5,1,.25,1.5.25.25.25,2.24.5h.25v.25h.25l.25-.25v.25h.5v-.25h.25v.25h-.25v.25h.5v.25h.5v-.25.25h.25v-.25.25h.5v-.5h-.25.75v.5h.25v-.25h.25v.25h.5v-.25h.25v.25h.5v.25h.25l.25-.25v-.25l.25.25v-.25h.75v-.25h.25v-.25h.75v.25h.25l.25.25h.25v.25l.25-.25v.25h.5v.25h.25l-.25.25h.5v.25h.5l.25.25h.25v.25h.5v-.25h.5v-.25h.25v-.25h-.25.25l-.25-.25v-.25l.25-.25h.25v-.25h.25v-.25h.25v-.25h.5v-.25h.5v-.25h1v-.25.25l.25-.25v-.25h.25v.25h1.25v-.25h.5v-.25h.25v.25h.25v-.25h.25v-.25l.25.25v-.25h.25v-.5h.5v-.25h.5v-.25h-.25.5v.25h.25v-.25h.25v-.25h.5v.25h.25v-.25h.25v-.25h.5v-.25h.5l-.25-.25v-.25l.5-.25-.25-.25v-.25l.25.25v-.25h.75v-.25l.25.25v-.75h.5v-.25h.25v-.25l.25-.25.25-.25.25-.25v-.25h.25v-.5h.25v-.25h.25v-.5h.25v-.75h.25v-.25l.25-.25.25-.25h.25l.25-.25.25-.25h.25v-.25h.25v-.5h.5v-.25h.5v-.25l.5-.25.5-.25.5-.25v-.25h.25v-.25h.5v-.25h.25l.25-.25h.25v-.25h.5v-.25h.25v-.25h.5l.75-.5h.5l.25-.25h.5l1.25-.5.5-.25.5-.25.25-.25.75-.5,1-.75,1-.5,1-.25,1.74-.75,1.74-.75.5-.25,1-.5.75-.25h.25l1.99-1,1.99-1,1.25-.5,1.25-.5,4.48-1.75.5-.25,2.74-1.25,3.49-1.24,3.49-1.5,3.98-1.99.75.75.75.5.5.5,1,1,.5.25.25.25.25.5,1,.75.5.25,1.49,1.5.25.25,2.24,1.99,1,.75.25.25,1.25,1.24h.25l.5.5,1,1-1.74.75-1.5.5-.5.25-1.99,1h-.25l-2.99,1.5h-.25l-.5.25-1,.5-1,.5h-.25l-.25.25-2.74,1.25-.75.25-1,.5-1.24.5-1,.5-1.5.5v.25l-1.99.75-.75.25-2.74,1.25-1.75,1-1,.25-2.74,1.24-1.25.75-2.24,1-.75.25-3.49,1.5.87.44,32.51-14.89c1.34,1.11,32.67,27.34,32.67,26.66Z"/>
  <text class="cls-12" text-anchor="middle" alignment-baseline="central">
    <tspan x="120" y="330">Schwalmtal/</tspan>
    <tspan x="120" y="357">Brüggen-</tspan>
    <tspan x="120" y="384">Niederkrüchten/</tspan>
  </text>
  <path class="cls-3" d="M502.75,319.54l-5.81-14.25-12.11,1.15-1.09-7.6-6.33-13.2v-5.15l-1.32-10.03-58.06-7.13-7.92,4.49-6.26-5.28-17.23-3.81-5.31-3-.66.25-13.09,4.97-15.2,5.2-4.88,2.46-7.12,3.58-4.31-6.69-.09-.14-8.4-6.37-2.64,2.25-2.96,2.52-5.04-5.91-.96,7.51h0s-3.11,6.65-4.12,9.95c-.13.44-.23.82-.28,1.12-.15.94,8.75,9.82,20.01,20.63,6,5.76,12.66,12.06,18.99,18,2.59,2.44,5.13,4.81,7.54,7.07h0c10.52,9.83,18.65,17.33,18.65,17.33h11.4l2.41.61,9.92,2.49v3.6l11.08,2.8v4.46l4.49,2.97,6.23,4.13,5.23-11.56,13.95,3v-.29l2.99.75,1.5.25.5.25h1.25l.25.25h1.99l1.74.25h1.25v-.25l.75-1.49,1-1.99.5-1.49.75-1.25.25-.5.25-.25-.25-.25v-.5l.75-.25h.5l.25.25,1.24-1,2.24-1.5v-.25l.5-.5h.25v-1h.25v-1l-4.98-.5.25-.75.5-.75.5-2.74,2.24.25.5.25h1.75l.75.25,1.24.25h1l.25-.25h.5l.5.25h1.49l3.24-.25v-1.25h3.74l4.49.25v-.25l4.98.25v-1l3.99.25.25-3.74,3.49.25.25-3.98,12.96.75-.75-2.24.25-.25.5-.25h1.25l1.24-.25,1-.25h.75l.75-.25h0s-3.24-4.71-3.24-4.71h-5.01Z"/>
  <text class="cls-12" text-anchor="middle" alignment-baseline="central">
    <tspan x="410" y="310">Willich</tspan></text>
  <path class="cls-1" d="M350.57,315.06c-6.33-5.95-13-12.25-18.99-18.01-11.26-10.81-20.16-19.69-20.01-20.63.05-.3.15-.68.28-1.12,1.01-3.3,4.11-9.94,4.12-9.95l.96-7.51h0s-1.36-1.6-1.36-1.6l-7.2-10.71-2.77-2.57h0s-14.87,5.06-14.87,5.06h-.01s-5.76-31.24-5.76-31.24l-1.03-5.57-8.39,2.48-8.8,2.6-1.45-1.94h-3.15l-10.66,4.51-7.75,2.03-7.51,6.3,1.7,2.42h0s0,0,0,0l-1.48,2.27-2,3.06,1.35.66,2.13,1.04h0s0,0,0,0l-.5.7-.71,1v1.45l-1.71,4.32-.56,1.41h2.26,0s0,0,0,0l-.78,1.72-1.57,3.44-15.81-6.54-3.68,13.99-.79,3.02,2.5.99,3.55,1.4,3.87,2.65v8.84l-12.01-4.75-17.08-6.75-1.54,3.6-2.16,5.04-3.84-2.28-.91,2.15-2.64,6.25.69,1.31,1.62,3.06h0s0,0,0,0l-1.59,1.44-1.38,1.25,4.22,1.88,7.2,11.58,5.63,2.71.65.87,1.72,2.28h0s0,0,0,0l-3.87.97,1.37,6,.14.63,2.85-.25h0s0,0,0,0v2.58h3.15s0,0,0,0l.97,14.05,4.17,7.38,1.64,2.9,1.68-.19.51-.06-.97,4.2-.24,1.03.97,2.42,1.25-.83.93-.62h0s0,0,0,0l6.9,7.25h3.27l.59,1.46,3.04,7.51,9.69,3.05v-12.03l7.99,1.47,1.7-1.47h4.84l2.18-4.1,12.11-1.45,2.42,10.41s6.06,6.3,6.3,7.03c.16.48,16.84-.32,28.26-.92,5.96-.31,10.49-.58,10.49-.58l7.8-4.42,7.94-4.5-1.45-1.47,9.2-8.46v-4.24l4.6,1.58,8.96-14.29,2.66-3.63,1.53-.99h0c-2.41-2.25-4.95-4.63-7.54-7.07Z"/>
  <text class="cls-12" text-anchor="middle" alignment-baseline="central">
    <tspan x="270" y="310">Viersen</tspan></text>
  <polygon class="cls-3" points="103.65 235.95 116.55 233.93 117.9 235.95 123.95 235.95 151.19 267.89 156.57 267.89 156.57 267.89 156.57 267.89 155.93 270.61 154.89 275.05 156.57 279.32 156.57 279.32 156.57 279.32 156.23 279.47 151.19 281.68 160.09 305.11 161.28 308.24 169.34 298.84 173.72 298.84 183.13 285.39 183.14 285.38 183.14 285.38 183.14 285.38 183.14 285.38 184.52 284.13 186.11 282.69 184.5 279.63 183.8 278.31 183.8 278.31 183.8 278.31 186.45 272.06 187.36 269.91 191.2 272.19 193.36 267.15 194.9 263.56 211.98 270.31 223.98 275.05 223.98 266.21 220.12 263.56 216.56 262.15 214.06 261.17 214.06 261.16 214.06 261.16 214.86 258.15 218.54 244.16 218.54 244.16 218.54 244.16 234.35 250.69 235.92 247.25 236.7 245.53 234.44 245.53 234.44 245.53 234.44 245.53 234.99 244.12 236.7 239.8 236.7 238.34 237.41 237.35 237.91 236.65 235.79 235.61 234.44 234.95 234.44 234.95 234.44 234.95 236.43 231.89 237.91 229.62 236.22 227.2 236.22 227.2 236.22 227.2 243.72 220.9 251.47 218.87 262.13 214.37 265.28 214.37 266.73 216.3 275.54 213.7 283.93 211.22 284.95 216.79 290.71 248.03 290.72 248.02 304.79 242.22 299.97 237.75 299.97 237.75 299.96 237.75 313.56 232.33 313.18 230.72 311.96 225.6 305.31 214.53 304.36 212.95 308.36 207.65 306.76 200.44 296.76 200.44 294.79 191.5 291.56 176.95 282.36 146.25 273.53 133.38 273.31 133.17 271.32 132.42 270.82 132.42 270.57 132.42 270.32 132.17 270.07 132.17 269.82 132.17 269.57 132.17 269.33 132.17 269.08 132.42 268.83 132.42 268.58 132.42 268.33 132.42 267.83 132.67 267.58 132.67 266.58 133.17 266.34 133.42 266.09 133.42 265.84 133.42 265.84 133.67 265.59 133.67 265.34 133.67 264.84 133.92 264.34 133.92 263.84 133.92 263.6 133.92 263.1 133.92 262.6 133.67 261.35 133.67 260.36 133.67 258.36 133.42 257.62 133.42 257.12 133.17 256.87 133.17 256.62 132.92 256.37 132.92 256.12 132.92 255.87 132.92 255.62 132.67 255.37 132.67 255.12 132.42 254.88 132.42 254.63 132.42 254.63 132.17 254.13 132.17 253.88 132.17 253.13 131.92 252.88 131.68 252.63 131.68 252.38 131.68 252.13 131.68 251.64 131.43 251.39 131.43 251.14 131.18 250.64 130.93 250.64 131.18 250.39 131.18 250.39 131.43 250.39 131.68 250.64 132.17 250.64 132.42 250.64 132.67 250.39 132.92 250.14 133.67 249.89 133.67 249.89 133.92 249.64 134.42 249.4 134.66 249.4 134.91 249.15 135.16 249.15 135.41 249.15 135.66 249.15 135.91 249.15 136.16 248.9 136.16 248.9 136.41 248.9 136.66 248.65 136.66 248.65 136.91 248.4 136.91 248.15 137.16 247.9 137.41 247.9 137.65 247.65 137.9 247.4 138.15 247.15 138.4 246.9 138.65 246.65 138.9 246.4 139.4 246.16 139.65 245.91 139.9 245.66 139.9 245.66 140.15 245.41 140.39 245.41 140.64 245.16 140.64 245.16 140.89 244.91 140.89 244.91 141.14 244.91 141.39 244.66 141.64 243.91 142.64 243.67 143.13 243.17 143.88 242.92 144.13 242.42 144.88 242.42 145.13 242.17 145.13 241.92 145.63 241.17 146.62 241.17 146.87 240.68 146.87 240.68 147.12 239.93 147.62 239.93 147.87 239.93 148.12 239.93 148.37 239.68 148.62 239.43 148.86 239.18 148.86 238.93 149.11 238.43 149.36 238.18 149.36 237.94 149.36 237.68 149.36 237.43 149.36 237.43 149.61 237.19 149.61 236.19 149.36 235.94 149.36 235.94 149.61 235.69 149.61 235.69 149.86 235.44 150.11 235.19 150.36 234.95 150.36 234.95 150.61 234.69 150.61 234.45 150.61 234.2 150.61 233.95 150.61 232.95 150.61 232.7 150.61 232.7 150.86 232.45 150.86 232.2 151.11 231.46 151.61 231.21 151.61 230.96 151.86 230.71 152.1 229.71 152.6 229.46 152.6 229.21 152.6 228.22 153.1 227.97 153.1 227.97 153.35 227.72 153.35 227.72 153.6 227.47 153.6 227.22 153.85 225.97 153.85 224.73 154.1 223.98 154.35 223.73 154.35 223.23 154.59 222.99 154.59 222.24 154.59 221.99 154.59 221.74 154.59 220.99 154.35 220.49 154.35 220 154.35 219.5 154.59 218.75 154.59 218.25 154.35 218.25 154.59 218 154.35 217.75 154.35 217.5 154.35 217.26 154.35 216.51 154.35 215.26 154.35 214.27 154.35 214.02 154.35 213.77 154.35 213.02 154.1 212.77 154.1 212.77 153.85 212.52 153.85 211.53 153.85 210.28 153.6 208.53 153.85 208.29 153.85 208.04 153.85 207.54 154.1 207.29 154.1 207.04 154.1 207.04 154.35 206.79 154.59 206.79 154.84 206.54 155.09 206.29 155.09 206.04 155.09 205.8 155.09 205.8 155.34 205.8 155.59 205.8 155.84 205.54 156.09 205.54 155.84 205.3 155.59 205.05 155.84 205.05 156.09 204.8 156.09 204.8 155.84 204.55 155.59 204.55 155.84 204.3 155.84 204.3 156.09 204.05 156.09 203.8 156.09 203.8 156.34 203.55 156.34 203.3 156.84 203.06 156.84 202.81 156.84 202.55 156.84 202.55 156.59 202.31 156.59 202.31 156.84 202.31 157.09 202.06 157.09 201.81 157.09 201.56 157.09 201.56 157.34 201.31 157.34 201.06 157.34 200.81 157.34 200.56 157.34 200.56 157.59 200.31 157.59 200.07 157.59 199.57 157.83 199.32 158.08 199.07 158.08 199.07 158.33 198.82 158.33 198.57 158.33 198.32 158.33 198.07 158.33 197.82 158.33 197.57 158.33 197.32 158.33 197.08 158.33 197.08 158.58 197.08 158.83 196.82 158.83 196.33 158.83 196.08 158.83 195.83 158.83 195.58 158.83 195.58 159.08 195.33 159.08 195.08 159.33 194.83 159.33 194.33 159.33 194.09 159.33 193.83 159.33 193.59 159.33 193.34 159.58 192.84 159.83 192.59 159.83 192.59 160.08 192.34 160.08 192.09 160.08 191.59 160.08 191.35 160.32 191.09 160.32 190.85 160.32 190.6 160.58 190.35 160.58 190.1 160.32 189.85 160.32 189.6 160.32 189.35 160.32 189.1 160.32 189.1 160.08 188.6 159.58 188.36 159.58 188.11 159.08 187.86 159.08 187.61 159.08 187.36 159.08 187.36 158.83 187.11 158.83 187.11 158.58 186.86 158.58 186.61 158.58 186.36 158.58 186.11 158.33 186.86 157.83 187.36 157.83 187.11 157.59 186.61 157.09 186.36 156.84 185.86 156.59 185.12 155.59 184.87 154.84 184.37 154.1 182.62 150.86 182.38 150.86 182.13 150.11 181.88 149.61 181.38 149.61 180.13 149.36 179.39 149.11 179.14 149.11 173.9 147.62 169.42 146.62 168.92 146.37 168.67 146.37 168.67 146.62 166.93 146.12 164.93 145.63 163.69 145.13 162.45 144.88 156.21 143.38 154.97 143.13 152.23 144.13 151.98 144.38 151.98 145.13 152.73 147.62 152.73 147.87 152.73 148.12 153.48 151.11 151.73 152.6 151.48 152.6 150.98 153.1 146.75 156.84 146.25 157.09 144.01 159.08 142.76 160.08 141.52 161.07 140.77 161.82 138.78 163.56 137.28 164.81 135.04 166.55 131.8 169.54 131.55 169.54 128.81 171.78 128.56 172.03 127.32 173.03 125.57 174.77 124.82 175.27 123.58 176.27 123.58 176.52 123.08 176.77 122.83 176.77 121.83 177.76 121.59 178.02 121.34 178.26 120.84 178.51 120.84 178.76 120.34 179.01 119.09 180.26 119.34 180.75 119.84 181.75 120.09 182 120.09 182.25 120.34 182.25 120.34 182.75 120.59 183 120.59 183.25 121.09 183.99 121.59 185.24 121.83 185.74 122.33 186.24 122.58 186.48 122.83 186.98 122.58 186.98 122.08 187.23 121.09 187.23 119.59 186.73 117.35 186.48 116.35 186.73 114.61 186.98 112.87 187.48 112.62 187.73 110.62 187.98 110.38 187.98 109.88 187.98 108.63 188.48 108.13 188.98 107.88 188.48 104.39 188.98 101.9 188.73 99.16 188.98 98.91 190.47 98.91 190.72 98.91 191.22 99.16 191.97 99.41 192.46 99.41 192.71 99.66 192.96 99.66 193.46 99.66 194.21 97.67 196.7 97.17 197.45 96.42 197.7 96.17 197.95 95.92 198.19 94.93 199.44 94.68 199.69 93.93 201.18 92.68 203.18 92.44 204.92 92.19 205.17 90.19 207.91 90.19 210.4 90.19 210.9 90.19 211.65 89.94 212.39 89.94 213.64 89.94 213.89 89.7 214.14 88.2 215.88 86.95 217.38 86.71 217.88 86.21 218.37 85.96 218.87 85.46 219.37 85.21 219.87 84.96 220.12 84.96 220.37 84.71 222.36 84.71 223.11 84.71 223.61 84.55 224.74 100.41 235.95 103.65 235.95"/>
  <text class="cls-12" text-anchor="middle" alignment-baseline="central">
    <tspan x="200" y="200">Nettetal/</tspan>
    <tspan x="180" y="227">Grefrath</tspan>
  </text>
  <path class="cls-2" d="M291.57,176.95l3.22,14.55,1.98,8.94h10l1.6,7.22-4,5.3.95,1.58,6.65,11.07,1.22,5.13.38,1.6-13.6,5.42,4.83,4.47,6.26,4.72,6.03,9.68-.16,1.21h0s5.04,5.91,5.04,5.91l2.96-2.52,2.64-2.25,8.4,6.37.09.14,4.31,6.69,7.12-3.58,4.88-2.46,15.2-5.2,13.09-4.97.66-.25-1.02-.58-1.1-16.63,7.43-2.38,15.83-3.83,5.26,3.83,3.86-7.81,1.67-8.84,1.35-7.1v-13.72l-3.96-6.46-21.74-11.96,1.42-7.18-2.16-2.64,4.53-2.89-1.58-9.25,3.49-1.21-4.28-13.95.53-17.44s-4.22-1.44-5.28-.25c-1.06,1.19.53-4.48.53-4.48h-2.9l1.06-6.98,3.91-1.74v-7.23l6.44-1.12v-5.87h0s-1.96-.98-1.96-.98l-3.24-1.74-.75-.25-.5-.25-5.23-.75-2.49-.5h-1.25l-5.73-3.98h-1l-1.25.5h-.5l-.75,2.99-1.5-.5h-.75l-.75-.25-.75-.25h-.75l-1.25-.5h-.75l-1-.25-1.49-.5h-.25l-.75-.25-.75-.25h-1l-.5-.25h-.25l-.25-.25-1.49-.25-3.99-1-1.24-.25-.75.25h-4.23l-.75.25h-.5v-.25h-.5l-1.99-.75-.25-.25-.5-.5v-.25h-.25v-.25h-.25l-.5-.75-.5-.25h-.25l-1.99-.5-1.24-.5h-.25l-3.99-1h-.75l-.25-.25h-.5l-.5-.25-1.25-.25-.5-.25h-.5l-.75-.25-1-.25-1-.25h-1l-1.25-.5h-.75l-1.49-.5-1.74-.25-1-.25h-.25l-1.5-.5h-2.49l-.5.25h-.5l-.5,1.25-1,2.49-.25,1-.25,1-.25,1.24v.75l-.5,1.5v.5l-.75,1.49-.25.75v.25l-.25.25v.25h-.25l-.25.25h-.5l-1.99.5-4.24,1.5-.75.5-1.24.25-.75.25-.5.25-.75.5-1.25.5.5,1-.25,1v.25h1l.5.25v1.74h1l.75.5,1,.75h.25l.25.25v.25h.25v.25l.25.75v.75l.25.25v.5l-.25.25.5.5v.25l-.25.25h-.25l-.75.5v.5l-.75.5-1.25.5h-.25l-.25.25h-.25l-.25.25h-.25v.25h-.25l-.5.25h-.25v.25h-.5l-.25.25h-.25l-.25.25h-.25v.25h-.25l-.25.25h-.25l-.25.25-.5.5-.5.25-.5.5h-.25l-.5-.5-.25.25-.25.25-1,1h-.25l.25.25v.25l.25.25-1,.75-.5.5-.25.25-.5.25-.5.25-.75.25h-.25l-.5.25-1.25.5h-4.23l-1.75-.25-1,1-.5.75v.25l-.5,1.74v.25l-.25,1v.25h-.25v1.75l.25.5-.25.75v.5l.25,1v.25l.25.25-.25.5h-2.49l-.25.25h-.25v.25l.25.25v3.49l-.25.25v.75l-.25.25-.03-.03,8.83,12.86,9.2,30.7Z"/>
  <text class="cls-12" text-anchor="middle" alignment-baseline="central">
    <tspan x="345" y="180">Kempen/</tspan>
    <tspan x="360" y="207">Tönisvorst</tspan>
  </text>
</svg>