<?xml version="1.0" encoding="UTF-8"?>
<svg xmlns="http://www.w3.org/2000/svg" viewBox="0 0 512 512">
  <defs>
    <style>

      .cls-2 {
        fill: #fff;
        font-family: DMSans-Bold, 'DM Sans', sans-serif;
        font-size: 28px;
        font-variation-settings: 'opsz' 14, 'wght' 700;
        font-weight: 700;
      }

      .cls-4 {
        fill: #bad6da;
        stroke: #f2f2f2;
        stroke-linejoin: round;
        stroke-width: 6px;
      }
    </style>
  </defs>
  <path class="cls-4" d="M452.66,212.82l-15.5-26.68-4.33,2.88-2.88-7.94-7.93,2.17-5.05-7.57-19.47,7.57-7.21-7.57-13.34,5.05h-9.74s-3.96-19.83-1.08-20.91c2.88-1.08,17.67-19.1,17.67-19.1l4.33-5.77.36-11.54,10.82-11.98,2.88-7.49,4.33-7.93,7.21-9.74,1.44-6.85-9.38-17.3-6.13-13.34-14.06-14.06-20.18,5.04-5.05-5.04-7.93,10.1-4.33-1.44-.72,2.52-5.04-2.88-5.77,3.96-9.02,2.52-2.52,7.21-4.33.36-16.94-27.4-7.57,2.4,2.88,8.42-53.36,25.6.72,6.03-13.34,3.7-6.12,1.08-4.33-8.65-7.57-8.29-3.25-1.8-1.44-5.41-5.41-2.88-10.81-2.16.36-11.54-7.21-9.38-5.41-8.29.36-8.29.48-3.91-9.13,3.91h-9.01l-6.85-7.21-.99.43-11.02,4.74-7.69,10.57-2.88,4.33v7.21l-8.65,2.53-5.29-4.46-59.12,43.77,8.17,6.22-10.57,9.14-.48,8.65h-9.61l-1.44,11.06h13.46l-12.97,17.3,18.27,14.9.96,30.76h4.81l4.33,15.86,32.21-2.4,11.05,7.17-6.25,8.21,2.41,11.54-5.29,3.36,24.03,11.05-5.76,3.37v4.81l-5.29,7.69,5.29,4.33-33.65,44.71-8.17,20.36,2.88,7.04-8.17,3.84.4,2.28,7.13,40.27h13.85l2.64,6.96v11.54l-2.88,7.43,2.88,7.47,6.25,5.77,17.31,4.8,2.88,10.58,2.4,7.69v7.21l5.77,3.37,6.73-9.61,12.97,9.61,4.33-3.37,10.1,12.5-10.1,9.14,10.1,8.17,10.58,2.4,3.84-7.69,19.23,11.33,12.02,27.61h6.25l10.09,12.45,16.35-17.73,11.05-22.32,12.98-9.4v-6.73l18.27-3.84v-5.77h5.77v5.29h4.8v-7.69l4.81-4.33,10.58-.48,13.94.48v-3.37h41.34v-19.71l3.36-9.13,9.61-.48v-5.77l11.06-4.33,4.8-4.1-6.73-24.26,23.55-15.06,9.41-11.61.2-.25v-3.36l5.29-5.41-5.77-7.2-18.39-6.49,6.36-33.39.85-4.47-3.61-12.62,14.78-6.49-3.25-5.41,9.02-6.49-1.8-3.25,16.94-4.69,2.52,5.77,8.65-3.6-11.18-28.48Z"/>
  <text class="cls-2" text-anchor="middle" alignment-baseline="central">
    <tspan x="256" y="256">Düren</tspan>
  </text>
</svg>