<?xml version="1.0" encoding="UTF-8"?>
<svg xmlns="http://www.w3.org/2000/svg" viewBox="0 0 512 512">
  <defs>
    <style>
      .cls-1 {
        fill: #fff;
        font-family: DMSans-Bold, 'DM Sans', sans-serif;
        font-size: 28px;
        font-variation-settings: 'opsz' 14, 'wght' 700;
        font-weight: 700;
      }

      .cls-4 {
        fill: #825e8b;
        stroke: #f2f2f2;
        stroke-linejoin: round;
        stroke-width: 6px;
      }
    </style>
  </defs>
  <path class="cls-4" d="M430.81,130.15l-11.31,5.65-10.63-4.3-3.39,2.98-6.79,4.48-4.97,2.49v4.75h-6.33l-7.69-15.11,2.26-2.08-2.26-2.03-1.36-.68-2.94-6.33-10.18,7.91-3.62,2.04-2.71-.68-2.6-1.81-10.74,5.43-4.75-.23v-2.94l-16.28,3.62-8.82-4.52-2.94-2.26-11.76,2.26-17.19,4.3-2.04-1.99-7.46,1.31-10.63,3.85-3.17.22,2.49,6.33s-5.43.22-6.11.45c-.68.23-7.91.23-7.91.23l-8.37.22-5.43-3.84v11.99l2.04,2.49.45,12.21-11.99,2.04-13.34,1.13-14.02,2.1h-7.24l-11.76-2.56-9.27-.45-7.46,1.81-8.97,1.2-3.69-1.65-4.07,1.65-8.82,5.36-8.59,2.94-4.07,7.24-2.94,2.04-3.17,1.27-1.35,5.29h-4.75l-7.24-5.29-5.88,3.25-2.04,7.24-3.62,2.26-10.18,3.17-1.66,6.79.99,4.07,1.95,2.04h-9.64l-2.71-2.49v-2.49l-6.11-2.94-4.98.68v2.04l-4.75,2.71-5.88,5.2-2.26,1.58h-4.98v-2.94h-4.52l-1.81,1.58v-4.3l-8.59,5.65-4.98,2.04v2.2h-2.49l-7.01,4.14-6.33,8.14,1.81,1.81,1.81,1.13s9.5,6.56,9.5,7.24,2.49,5.2,2.49,5.2l-1.81,6.56h-10.4l-.45,1.81h-2.94l-4.45,6.2h0s1.39,2.79,1.39,2.79h.35v1.05l.35.35,1.05,2.09v2.44l.35.35.35,1.05.35.7h.35v.35l1.4,1.4v.35l.35.7v.35h.7l3.49.35.35,1.05.35.7-.35.7v1.74l-.7.35h-.7l-1.04.35-.35,1.05-.7,2.44-.35.35-.35.35h-.35v.35l-.35.35-.7.7h-.7l-.35.7-.35,1.05v1.04h-1.05l-.35.35h-.35v3.14l.35.35h.35l1.05.35h.7v.7h.35l.7.35h.35l.35.35.7.35h2.44l1.05.35h-.35v.7l-.7,1.04v.7h-.35l-.35.35h-.35v1.4l.35.7v2.09l.35.7v.35l-.35.35v.7l.35.35.35-.35,2.1.35h.7l.35.35.35.35.35.7.35.35.35,1.05v.7l.35.35.35.7h.35l.7-.35.35-.35,1.4,1.4.35,1.39.35.7.7,1.39.35.7.35.7.35.7.7.35,2.09-2.09h1.75v-1.4l-.7-2.1v-.7l-.35-1.04,1.05-1.05.35-.35.7-1.05h.35l.35-.7h.35l1.04-.7-.35-.35h3.14l-.7-.7h-1.05v-.35l-.35-.7-.35-.35-.35-.35,1.05-.7,1.05-.7h.35l1.04-.35.7-.35h.7l.7-.35.35-.35.35-.35h1.4l.35-.35.35-.35.35.35.35.35h.7l.35-.35.35.35h1.4l.35.35.7-.35,1.04.7h.35l.35.35h.7l.35-.35h.35l.35.35.35.35.35.35.35.35h.35v.7l-.35,1.05v.7l-.35,1.4-.35,1.05-.35.35v.7l-.35.35v1.75l.7,1.39.35.7v1.05l.7.7v.35l.35,1.39v.7l.7,1.05,1.05.35.35.35v-.35l1.05-.7.35-.35v.35l.7.7v.35l1.05,1.05v.35h.35l.35.7v-.35h1.05v-.35h.35l1.4-.35.35-.35h1.4v.35h.35l.35.35.35.35v.35l.35.35v.7l.35.35v.35l.7.35.35.35.7.7v.35l-.35.35,1.05,2.44v.7l-.35.35-.35.7v.35l-.35.35-.35,1.4v1.74l-.7,1.75-.35,1.05-.35.35-1.4,3.84-.35.7-.35,1.04v1.4l-.35.7v2.09l-.35.7-.35.35.35.35v1.74l-.35,1.05v2.44l.35,1.05v.35l.35.7.35.35v.35l.35,1.05v.35l.35.7v.7l-.35.35-.35.35h-.35v.35h-.35l-1.04,1.39-1.4,1.05v.35h-.35v.35h-.35v.35l-.7.35h-.7l-.35.35-1.04.7-.35,1.05h-.35v.35l-.35.7-.35.35-.35.35v.35l-.7,1.05-.35.35-.35.35-.35.35h-.35l-.35.35v.35h-.7l.35.35v.35l.7,1.05v.7l.35.7v1.05l.35.7.35.35h.35v.35h1.4l.35-.35h.7l.35-.35.35-.35.35-.7.35-.35h.35l.35-.35.35-.35.35-.35.35-.35.35-.35.35-.35h.35v-.35h1.05l.7-.7.7-.35v-.35l.7-.7.35-.35.7-.35.35-.35h.35v-.35h.7l.35-.35h.35v-.7h.35l.35-.7v.35l.7-.35.35-.7.7-1.4,1.39-1.04,1.4-1.05,2.09.35h.35l3.14,1.04,1.39.7.7,1.05.35,1.74v1.75l.35.35h.7v.35h1.04l.7.35.35.35h.7l.35.35v.35l.35-.35.7.7h.35v-.35l.35.35h1.39v.35h.35v-.35h1.04v-.35h2.1v.35h1.75l.35-.35v.35h1.4v.35h1.74l.35-.35h.7v.35h.35v-.7l-.7-1.39.7-.35,1.04-.35,1.05-.35,1.75-1.04h.35v-.35l-.7-1.39-.35-.35v-1.75l-.35-.7v-.7h1.05v-.35l.7-.35h.7l.35-.35h.35v-.35l2.44-2.1v-.35l.7-.35.35-.7.35-1.05h.35l1.4-2.79v-.35h1.04l.35-.35,1.75-1.05.7-.7h.35l.7-.7.7-.7,1.05-.7.35-.35h1.4l.35-.35h.35l.35-.35.35-.35h.7l.35-.35h2.44l.7-.35.35-.35v-.35l.35-.35v-.35h.35v-1.05l-.35-.35v.35l-.35-.35.35-.35v-1.74l-.35-.35v-.7l-.35-.35h.35v-.7h-.35l-.35-.7h.35v-.7h.35v-.35h-.35v-.35h-.35l.35-.35h.35v-.35h.35v-.35h.35l-.35-.35v-.35l.35-.35v-1.74h.35v-.35l.35-.35h.35v-.35l.35-.35.7-.7.7-1.05.35-.7v-.35l2.1-.35h.7l.7.35h.7l.7.35h.35v.35h.7l.35.35v.35l.7.35.35.35.35.35v.7h.35l1.05,1.74.7.7-.35.35.7.7.7.7.7.35.7.7h.7v.35h.35v-.35l-.7-1.4-.7-.7v-2.09h1.4v-.7h-.35v-.35h1.05v.35h.35l.35-.35-.7-1.05v-.35l-.35-.35-.7-1.05-.7-.7h.35v-.35l-.35-.35-.7-1.05v-.35l.35-.35.35-.35.35-.35.35-.7.35-.7v-.35l.35-.35,3.14-.7h.7l.35.35.35.35.35-.7,2.79-2.44,1.05-.7.7-.7.7-.35.7-.7.35-.35.7-.7.35-.35,1.74-1.05.35-.35v-.35l-.7-.7,2.09-2.79,1.05-1.4.35.7h.7l.35-.35.7-.7,1.4-.35,2.09-.7h.7l.35-.35h.35l.35,1.4,2.79-.7,2.44-1.74.7-.35h2.79l.7.35h.35l1.4.7.35.35,1.05.7v1.4l-1.05,2.09-.35.35-.7.7-.35.7.35,1.75v.35h3.14l.35-.35v.35l.35-.35h.35l.35-.35h.35v-.35h.7l.7-.35h1.05v-.35h1.39l.35-.35h1.4v-.35h2.09v-.35h1.05v-.35h.35v-1.04h.35l1.39-.35h1.4l1.05-.35,1.05.35.35-.35h.7l.35-.35,1.04-.7,1.05-.35,1.39-1.4.35-.35.35-.35,1.4-.7.7-.35.35-.35h.35l1.05-.35h1.39l.7-1.05.35-.35v-1.4l.35-1.04,1.04-1.75.7-1.74,1.4-1.75v-.35h2.79l1.75-.35,1.39.7,1.05-.35h.35l.35-.35h.35l.35-.35h1.04l1.05-.35.7-.35h.7l.35-.35.35-.35,2.79-1.05h1.74v-.7l.35-.7,1.04-1.74.7-1.05.35-.7,1.74-3.14,4.54-2.79,1.75-.35h.35l6.63-1.4,2.1-1.05,1.4-.7.7-.7.7-.7.7-.35.7-.35.7-.35,3.84-2.1v.35l1.39,2.79h1.05v.35h-.35v.7h-.35v1.05h-.35v.35l.7.7.35,1.74.35,1.4v2.09l.7,1.4v.35l.35,1.75-2.79,1.75-4.53,3.14,1.39,3.14.7,1.39.35.35.7,1.75h1.39v-.35l.35-.35.7.35.7-.35,1.05.35h.35l.35-.35.7-.35h.35l.7-.7h2.1l.35-.35,2.44-.35,1.05-.35h1.05l.7-.35.35.7h.35l.35,1.39,2.44-1.39.35.35.7.7v.35l.35.35h.35v.7h.35v.35h1.05v.35h1.05l.35.7h.35v.35h.35l.35.35h.35v.35h1.05v-.35h1.39l.35-2.09.35.35,1.04,1.74.7,1.4,1.39,2.09.35,1.39v1.05h-2.44v.35l.35,2.09v3.14l.35.7.35.35.7-.35-.35,1.05-.35,1.05v.7l-.35.7v.35l-.35.7v2.79l-.35,2.44-.35,1.05-1.05.35v.35l.35,1.4v.35l-1.05,1.4v.35l-1.39.7v.7l-1.75,1.05,1.04,2.1h.35l-.7,2.44v1.74l-1.05,1.05-.35.35v1.04l.35.35.35,1.05.35.7.7.7v.35l-1.39,1.04-.35.35,1.4,2.09,1.05,1.75h.35l1.05-.7h1.05l.35-.35v.35h.35v.35h.35l.35.35.7.35.7.35h.35l.7.35.7.35.7.35-1.39.7.7,1.05.35.35.7.7v.35l.35.35v.7l.35.35.35.35h.35v.35h.35v.35h.35l1.4-1.04.7,1.4.7,1.05,1.75,2.09,1.05,1.75.7,1.04,1.04-.35,1.05.35.7-.7,1.4-1.39.35-.35,1.05-.7-.35-.35h.35l1.05-.35.7-.35h1.05l1.74.35h.35l1.39-.35h.35l1.74-.35,1.4-.35h.7l1.4-.35.35-.35.35-.35.35-.35,1.05-1.39h.35v-1.05l.35-.35h.35l.35-.7.35-.35h.35l1.04-1.05h.35v-.35l-.7-.7v-.7l-.7-.35-.35-.35,1.74-.7.35-.35h.7v-.35l.35-.35.35-1.04.7-1.05v-.7h-.35l.35-.35v-.7l.35-.35.35-.35,1.4-1.75.35-.7.35-.35v-.7l-.7-1.05.35-.35-.35-.35v-.7l-.35-1.05v-.35l-.35-12.57v-1.74l.7-.7v-.35l-.7-1.75v-.35l.7-.7.35-.35v-.35l.7-.35.35-.35h.35l.7-.7,1.05-.7,1.75-.35,1.05-.35.7-.7,1.05-.35,1.04-.7h.35l1.39-.35,1.4-.35.35-.35,1.05-.7h.35l.35-.35h1.39v1.05l.35.35h.35v.7l1.04.7v1.05l1.75,1.05,1.39.7v.35l.35,1.74h1.4v1.74l.35.35v.35l1.05-.35.35,1.05.7.7.7,1.05,1.39,1.39v.35l.7-.7,1.39,2.44.35.35,1.05,1.75.35,1.04h.7l1.05-.7.35.35v.35l1.04,1.05.35.7,1.75,2.1v.35h.35l1.4,1.74v.35l.35-.35v.35l1.05,1.75v.35l-.35.35v2.44l.35.7v1.75l.35.7v1.05l.7,2.09.35.35.35,1.04.35,1.05.7,1.4,1.39,2.1v.35l1.05,1.75.35.35v.7h.35l.7,1.05,1.74,2.09.35.7h.35l.35.7,1.4,1.74.35.35.35.7v1.75l-.35,1.05v1.74l-.7,2.09.35,1.75.35.7v3.14l.35.35,1.05,2.44.7,2.79.35,3.49h.35l.35-1.05.7-.7.7-.7v-.35l1.05-.7,1.05-1.04.35-.35.7-.7v-.35l.35-.7.35-1.05v-.35l.35-.7v-.35l.7-.7v-.35l.7-.7.35-.35.35-.35.35-.35v-.35l.35-.35.35-.7h.35l.35-.35h.35v-.35h.35v-.35.35h.35v-.35h.35v-.35h.7l.35-.35h.35v-.35l.35.35v-.35l.35-.35h.7l.35-.35h.7l.35-.35v.35h1.74v-.35l.35.35v-.35h.35v-.35h.35v.35h.7v-.35h.35v-.35h.7v-.35h.7l.35-.35h.35v-.35h.35v-.35l.35-.35h.7v-.35h.35v-.35l.35-.35v.35h.35v-.35h.35v-.35h.7v-.35h.35v-.35h1.75v-.35h1.04v-.35l.35.35v-.35h.7l.35-.35h.7v-.35h.7v-.35h1.39v-.35h.35v.35h.35v-.35h.35v-.35h1.05v-.35h.35l.35-.35.35-.35h.35v-.35h1.05l.35-.35.35-.35h.7v-.35l.35-.35h.35v-.35h.35l.35-.35.35-.35v-.35h.35v-.35l.35-.35h-.35.35l.35-.7h.35v-.35h.35l.35-.35v-.35l.35-.35.35-.35v-.35h.35v-.35l.35-.35.35.35v-.35h.35l.35-.7h-.35v-.35h.35v-.7l.35.35h.7l2.44.35,1.05-.7v-.35h.35l.35-.35h.7l.35-.35h.7v-.35h1.05l1.05-.35,1.04-.35h.7l.7.7,2.79-.35h1.05l2.09-.35h1.75l1.4-.35h.35l1.05-.35,1.39-.35,1.05-.7,1.05-.35h.35l.35-.35h.35l.35.7.7,1.04.35,1.05v.35h.35l.7-.35.7-.35.35-.35.7-.35.7-.35v-.7l1.05-.7.35-.7h1.4v-.35l1.39-.7h1.4l1.04-.7.7-.7h.35l.35-.35.7-.35h.35v-.35l.7-.35,1.39-.7,1.05-.7h.35v-.35h1.05l.35-.7,1.04-.7.7-.35.7-.35h.35l1.05-.35,1.05-1.04h.35v-.35l.35-.35.35-.35h.35l1.05,1.05.35,1.39.35.7,2.44-1.05.35.35v.35l.35,1.05v1.74l.35-.35h.35v.35l.35-.35h.35l-.35.35-.35.7h1.4l-.35-.35v-.7l.35-.7v-.7h.35v-.7l.35-1.05v-1.75l.35-.7.35-.35.35-.35-.35-.7-.7-1.05v-1.05l-.35-.7v-.35l.35-.7h1.75l1.4.35,1.39.35,1.05,1.39-1.39.7,1.39.7.7.7.7.35v.7l1.4-.35,1.04-.35h.7v-.35l1.75-.35,1.75-.35.7.35,1.05.35,3.14,1.4,6.98-2.79v5.24l1.05-.35h.35l-.35.35v.35l-.35.35-.35.7,3.84-1.75v-1.04l-.35-.35-.35-.7.35-1.05v-.35h-.35v-.35l-.35-.7,1.4-.35v-.7l.7-1.74.7-1.4.35-1.05.35-.35v-.35l.7-2.1.35-.7v-1.4l.35-2.44-1.05-.35-1.04-.7-2.44-.35h-.7v-.35h-.35l-.35-.35-1.75.35-.7-.35h-1.04l-.7-.35-.7-.35-2.79-1.74-2.1-1.4-1.05-.7-1.74-1.05-2.1-1.4-2.79-1.74v-1.4l2.1-1.05-1.74-2.79-.35-.35v-.35l-1.04-1.75-1.05-1.75h-.35v-.35l-.35-.7-1.4-4.19-1.39-3.14-.7.35-.7-2.79-1.05-2.1h-.35l-1.05.35v-1.05l-.7-2.44-.35-.35-.7-1.05h.35v-.35l-1.4-2.44-.7-1.74v-.35l-.7-1.05-1.05-1.04-1.05-1.4-1.04-1.4-1.4-1.74v-3.14l.35-1.05v-2.44h.35l1.4-4.53,1.05-2.1,1.74-2.79.35-.35,1.05-1.04.7-.7v-.35.35l2.09-2.09.7-.35.35-.35v-.35l1.39-1.04.35-.35,1.4-1.39,1.05.35-.35-.35v-8.72l-.35-1.75v-4.54l.35-1.05v-2.09l1.05-1.05.35-.7v-.35l.35-1.04.35-3.14.35-.35v.35l.35-1.05.35-.7,1.04-1.4v-.35h.35v-.35l.35-.35v-.35l.35-.35v-.35l.35-.35h.35v-.35h.35v-.35h.35l.35-.35v-.35h.35v-.35h.35v-.35h-.35v-.35h-.35v-.35h-.35v-.35h-.35v-.7h-.35l-.35-.35v-.35h-.35v-.35h-.35v-.35h-.35v-.35l-.35.35h-.35v-.7l-.35-.35h-.7v-.35l-.35-.35v-.35h-.35v-.35l-.35-.35-.35-.35h-.7l-.35-.35-.35-.35v-.35l-.35.35h-.35v-.35h-.7v-.35l-.35.35h-.35v-.35h-.35v.35h-.35l-.35-.35h-1.75l-.35.35-.35-.35h-1.04l-.35-.35-.35-.35h-.35l-.35-.35h-.35v-.35l-.35.35v-.35l-.35.35-.35-.35-1.05-.35h-.7l.35-.7.35-.35.35-.7v-.35l.35-.35v-.7h-.35v-1.04l-.35-.35v-1.05l.35-.35h-.35l.35-.35v-.7h-.35v-.35l-.35-.35v-2.1h-.35v-1.75l-.35-.35v-1.05h-.35v-3.14l.35-.7v-.7l.35-.35v-.7l.35-.35.35-.35v-.35h.35v-.35l.35-.35v-.35l.35-.35v-.35l.35-.7v-.35l-.35.35h-.35l-.7.35h-.35l-.35.35h-.35v.35h-1.04l-.35.35-.35.35h-.7l-.35.35h-.35v.35h-.35l-.35.35h-.7v.7h-1.05v.35h-.35v.35h-1.05v.35h-.35v.35h-.35v-.35h-.35l-.35.35h-.35l-1.05,1.4-.35.35h-.35v.35h-.35l-.35.7-.35.35-.35.35-.35-.35-.35-.35v-.7h-.35l-.35-.7-.7-1.4h-.35l-.7-1.05-.35-.7h-1.05l-.7.35h-.35l-.35-.35h-2.44l-.35-.35h-.35l-.35.35h-.7l-.35.35h-1.39l-.7-.35h-.7l-.35.35v-.35h-.35l-.35-.35h-.35v-.35h-.35v-.35h-.35l-.35-.35.35-.35h.35l-.35-.35v-.35h-.7l-.35-.35-.7-.35-1.04-.35h-.7l-.35-.35v-.7l-.35-.7v-.35l-.35-1.04.7-1.05v-.35l.7-.7-.35-.35v-.35l-.35-1.05-.35-.35v-.35l-.35-.35v-.35l-.35-.35v-.35l-.35-.7-.35-.7-.35-.7,1.05-1.05.7-.7.7-.7,1.39-.7.7-.7,1.05-.7.35-.35h.35l.35-.35,1.04-.7v-.35h.35l.35-.35.7-.35.35-.35.7-.7.7-.35h.35l.35-.35,3.14-1.75h.35l.7-.35.7-.35.7-.35,1.05-.7,1.04-.7,1.05-1.05.7-.35.35-.35,1.05-.35,1.4-1.4,2.79-1.74.7-.7.7-.35v-8.73h-.35l-1.74-1.39.35-1.05v-.35h.35l-.35-.35h.7v-1.04l.35-.35v-.35h.7v-.35h.35v-.35h.7v-.35h1.74v-.35l-.35-.7v-.35h-.35v-1.04l-.7-.7-1.05-2.1.35-1.75v-1.05h-.7l-.35-.35h-.35l-1.05-1.39-1.05.35-1.39.7-1.4.35-.7.35-1.4-1.39-1.39-1.05v-1.74l-.35-.35-.35-2.09,2.44-2.1-.35-1.75v-.35l1.05-1.4-.35-.35-.35-.35v-1.79l-8.73.8v1.34l-.35-.35h-.35l-.35.35v1.75h-.35l-.35.35h-.35v.35h-.35v.35h-.7l-.35.35-.35.35-.35-.35-.35.35-.35-.35h-.7l-.35-.35v.35l-.35-.35h-1.05v-.35h-.35v-.35h-.35v-.35h-.7v-.35h-.35v-.35h-.7v-.35l-.35-.35h-.35l-.35-.35v-.35l-7.01,2.82v2.26Z"/>
  <text class="cls-1" text-anchor="middle" alignment-baseline="central">
    <tspan x="290" y="220">Blankenheim/</tspan>
    <tspan x="290" y="262">Dahlem</tspan>
  </text>
</svg>