<?xml version="1.0" encoding="UTF-8"?>
<svg xmlns="http://www.w3.org/2000/svg" viewBox="0 0 512 512">
  <defs>
    <style>
      .cls-1 {
        fill: #fff;
        font-family: DMSans-Bold, 'DM Sans', sans-serif;
        font-size: 28px;
        font-variation-settings: 'opsz' 14, 'wght' 700;
        font-weight: 700;
      }

      .cls-2 {
        fill: #91c1c8;
        stroke: #f2f2f2;
        stroke-linejoin: round;
        stroke-width: 6px;
      }

    </style>
  </defs>
  <path class="cls-2" d="M509,291.06l-8.81-9.46-4.89,2.94-11.47-4.77v-4.69l-9.4-.98-12.39,3.26-3.26-9.13-7.34,2.23v-9.73s-2.77-5.87-3.75-7.5c-.98-1.63,6.52,0,6.52,0l9.13-17.94-3.26-3.59,3.91-2.94,2.28-7.5,1.63-7.18-6.85,2.52.98-27.18h-9.58l-2.16,3.13-22.83,5.22-1.96-2.94-8.48,1.63-6.2,1.3h-9.13l-2.94-8.35-16.31,1.83-6.85,6.52-4.56-2.28,2.61-5.56-10.11-2.27v-6.85l-22.83,3.26,3.26-7.82h8.15s3.91-15.66,3.91-16.96-12.72,3.47-12.72,3.47h-19.57l-6.52-4.45-6.2,8.16-5.54-3.71-9.46,3.71-5.22-8.81-8.81-6.2,2.61-6.19-3.75-6.63-.32.43-6.36-2.98-2.94,2.98-2.94-2.98-6.85,5.92-2.45-2.44-3.91,4.89-5.38-5.87-20.54-2.5-20.06,11.79-2.44-12.29-11.74,4.96-6.36-8.31h-3.91l-4.41-16.63-4.89-6.68-5.38,2.76-8.81-2.76-12.72,8.63-6.85-6.36-7.34,2.45v12.13h-25.44l-21.53-8.7-11.25-4.4v-8.81l-10.27,5.06s-4.89,13.04-5.38,15.97c-.49,2.94-16.63-2.44-16.63-2.44l-16.14-.49-4.41-8.81h-3.91l-16.32,10.59,8.01,12.35-6.85,6.8,2.06,13.8,2.34,15.64-.77.67,3.22,1.63,4.89,3.26,1.96,5.54,7.17-3.26v3.26s9.46-3.91,9.78-2.94c.33.98-1.31,4.89,0,4.89s28.7-12.06,29.35-10.11c.66,1.96,6.85,27.07,6.85,27.07l4.24,5.55-13.04,33.26s19.24,6.52,19.56,5.54,0-4.56,0-4.56l25.76-2.61,14.35,21.2-10.76,12.72,4.24,5.22s3.26,4.56,4.24,4.56h9.46s4.89,18.26,5.87,17.94c.98-.32,6.19-1.3,6.19-1.3l6.52,5.22,1.96-4.56s10.76,3.91,11.74,4.56c.98.65,13.05-5.87,13.05-5.87l3.29,4.24h7.79l4.55,6.37.34.47-10.11,5.87-8.48,13.7,3.26,10.44,2.64,1.63v19.57h-10.8s-.47,7.37,0,9.51c.08.36.19.59.33.59h6.16c.23.02.46.04.69.07l1.3,26.35,40.76,10.11,29.03-2.82,45-6.64-1.31-20.54,10.65-1.64v3.26l10.87-8.48v-22.83l17.61,4.56,2.94-4.89,30.33.32v6.04h8.48l15.33-5.71,34.24.65v-9.78l28.05-.98,11.81-18.26,9.56,10.76,6.25-2.53-1.54-1.06,31.97-32.85,3.58-3.68Z"/>
  <text class="cls-1" text-anchor="middle" alignment-baseline="central">
    <tspan x="265" y="250">Erkelenz</tspan>
  </text>
</svg>