<?xml version="1.0" encoding="UTF-8"?>
<svg xmlns="http://www.w3.org/2000/svg" viewBox="0 0 512 512">
  <defs>
    <style>
      .cls-1 {
        fill: #fff;
        font-family: DMSans-Bold, 'DM Sans', sans-serif;
        font-size: 28px;
        font-variation-settings: 'opsz' 14, 'wght' 700;
        font-weight: 700;
      }

      .cls-2 {
        fill: #997ca1;
        stroke: #f2f2f2;
        stroke-miterlimit: 10;
        stroke-width: 6px;
      }
    </style>
  </defs>
  <polygon class="cls-2" points="383.85 446.16 396.58 448.65 424.05 446.16 432.61 436.97 446.62 432.82 477.22 409.09 483.06 397.47 497.98 364.34 501.99 356.78 509 348.13 509 336.46 495.38 330.63 486.64 335.16 475.93 337.11 463.61 353.32 457.12 356.78 448.91 354.62 442.86 356.78 438.96 351.16 420.81 339.49 402.65 339.49 408.27 325.42 404.38 314.84 405.64 310.44 413.03 284.58 426.43 281.13 428.16 275.94 406.54 267.72 406.54 262.53 385.79 268.16 371.52 282.42 368.5 291.93 355.96 280.26 355.96 252.16 350.77 234 342.12 242.21 337.8 239.19 342.12 229.68 339.1 221.03 316.19 221.03 311.43 216.71 300.19 206.34 295 198.12 279.87 190.34 275.98 186.88 279.87 180.39 279.87 174.34 269.06 172.18 259.55 159.21 258.25 130.3 279.87 111.29 270.58 97.82 275.12 97.82 275.12 83.55 258.69 62.37 254.8 48.1 228.35 28.74 226.47 31.24 225.81 32.57 225.15 33.25 225.15 33.91 224.47 33.91 223.81 35.25 222.47 36.58 221.81 36.58 221.14 37.24 220.47 37.91 219.14 38.58 218.47 39.25 217.8 39.91 216.47 41.25 214.47 42.58 213.14 43.91 212.47 44.59 211.8 44.59 211.14 45.25 209.8 45.92 209.13 46.58 208.46 46.58 207.13 47.25 206.47 47.92 205.13 48.59 204.46 48.59 203.13 49.25 202.46 49.92 200.46 50.59 200.46 51.25 199.8 51.92 198.46 51.92 197.79 51.92 197.79 52.59 197.13 52.59 196.46 53.25 195.79 53.92 195.12 54.59 194.46 55.26 193.79 55.92 193.79 56.59 193.12 57.26 193.12 57.92 193.12 58.59 192.45 58.59 192.45 59.26 192.45 59.92 192.45 60.6 191.79 60.6 191.12 60.6 191.79 62.59 191.79 63.26 192.45 64.6 192.45 65.26 192.45 65.93 193.79 69.26 193.79 69.93 194.46 73.26 195.12 73.94 195.12 75.94 195.79 77.94 196.46 79.94 195.12 79.94 195.12 80.61 195.12 81.27 195.12 81.94 194.46 82.6 194.46 83.27 194.46 83.94 193.79 84.61 193.79 85.27 193.12 86.61 192.45 87.27 192.45 87.94 191.79 88.61 190.46 90.61 189.79 92.61 189.12 93.28 189.12 93.95 188.45 94.61 188.45 95.28 187.12 96.61 187.12 97.28 186.45 97.28 185.12 99.29 183.79 100.62 183.11 101.29 182.45 102.62 181.78 103.29 181.78 103.95 181.12 104.62 180.45 105.29 179.78 105.96 179.78 106.62 179.11 107.29 179.11 107.95 178.45 109.29 177.78 110.62 177.78 111.29 178.45 111.29 177.78 112.62 177.11 113.29 176.45 114.62 176.45 113.96 175.78 115.3 175.11 116.63 174.45 117.96 174.45 118.63 173.77 119.96 173.11 121.3 173.11 121.96 172.44 122.63 167.11 119.96 165.77 119.3 161.77 117.29 160.44 116.63 156.43 114.62 151.76 112.62 149.1 111.29 145.76 109.96 143.76 108.62 141.09 108.62 139.09 107.95 138.42 107.95 137.75 107.95 136.42 107.95 135.75 107.95 135.09 107.95 134.42 107.95 133.75 111.96 133.08 112.62 132.42 113.96 131.75 114.62 131.08 116.63 130.42 117.96 129.08 118.63 129.08 119.3 127.75 121.3 127.08 123.3 127.75 125.3 127.08 125.97 127.08 128.64 126.41 130.64 125.08 131.97 125.08 132.64 124.41 132.64 124.41 133.3 123.07 135.31 122.41 135.97 121.74 137.3 121.08 137.3 119.75 140.64 119.75 141.31 119.75 141.98 119.07 141.98 117.74 143.31 117.07 143.98 116.41 143.98 114.41 144.65 113.74 145.31 113.74 145.98 113.07 146.65 113.07 147.31 112.4 147.31 111.74 147.98 111.07 148.65 110.4 149.31 109.07 149.98 106.4 151.98 105.07 152.65 102.4 153.99 99.73 155.32 99.06 156.65 96.39 157.99 93.06 159.32 92.39 159.99 91.72 159.99 91.06 160.66 89.06 161.99 85.72 161.32 85.06 163.99 85.06 165.99 86.39 167.33 85.72 168.66 84.39 170.66 82.39 171.99 82.39 173.33 82.39 174 79.72 176 78.38 176.66 78.38 177.33 78.38 179.34 78.38 180 79.05 180 79.72 180.67 80.38 181.33 79.72 183.34 78.38 185.34 76.38 188 73.71 189.34 72.38 190.01 69.71 191.34 63.71 194.68 61.04 195.34 59.71 196.01 59.04 196.68 56.37 198.01 51.03 200.68 49.03 201.35 49.03 202.01 43.7 200.01 42.36 199.35 41.69 200.68 40.36 202.68 41.02 204.01 41.69 205.35 40.36 206.68 39.69 206.68 39.02 206.02 37.69 205.35 36.35 205.35 35.69 206.02 34.36 206.68 33.69 208.01 33.69 208.69 33.02 210.02 32.35 210.02 31.69 210.69 30.35 210.69 29.02 211.35 28.35 212.69 28.35 213.35 27.68 214.69 26.35 215.36 24.35 216.02 23.68 217.35 22.35 219.36 21.68 219.36 20.34 220.03 19.01 221.36 17.67 221.36 17.01 222.69 15.67 224.03 13.67 225.36 12.34 226.69 11 227.36 9.67 228.03 8.34 228.69 7.67 229.36 6.34 229.36 4.33 229.36 3.67 231.37 3.67 233.36 3 236.03 4.33 236.03 6.34 236.7 7.01 236.7 7.67 237.37 8.34 238.03 8.34 238.7 9.01 240.04 10.34 241.37 11.67 243.37 13.67 245.37 13.67 246.71 13.01 252.71 13.01 256.05 13.01 260.05 12.34 260.71 12.34 262.05 11.67 271.39 11.67 276.06 11.67 277.39 11.67 280.06 11 284.73 11 292.07 11 292.73 11 294.07 11.67 294.07 12.34 294.07 13.01 294.07 13.67 294.07 14.34 294.74 14.34 295.4 15.01 295.4 15.67 295.4 16.35 295.4 17.01 295.4 17.67 295.4 18.35 295.4 19.01 295.4 19.68 295.4 20.34 295.4 21.01 295.4 21.68 295.4 21.68 294.74 22.35 294.74 22.35 295.4 23.01 294.74 23.01 295.4 23.68 295.4 23.68 294.74 24.35 294.74 25.02 294.74 25.68 294.74 25.68 294.07 25.68 294.74 26.35 294.74 27.01 294.74 28.35 294.74 29.68 296.07 35.02 298.74 35.69 298.74 36.35 298.74 37.02 300.07 37.02 301.41 37.69 301.41 37.69 302.74 38.36 303.4 39.02 304.74 40.36 306.08 41.69 306.74 42.36 308.08 43.7 308.74 45.03 310.08 45.69 310.75 47.7 312.08 48.36 312.74 49.7 313.42 51.03 314.08 51.7 314.75 52.36 316.08 53.7 316.75 54.37 316.75 55.7 316.75 56.37 316.75 57.7 316.08 60.37 316.08 60.37 317.42 60.37 318.08 60.37 318.75 60.37 319.42 61.04 319.42 61.04 320.09 60.37 321.42 60.37 322.75 59.04 324.75 58.37 325.42 57.7 326.09 57.7 327.42 56.37 330.09 55.7 330.76 55.7 332.76 55.7 334.09 55.7 335.43 53.7 336.09 53.03 336.09 52.36 336.76 51.03 336.76 49.7 336.76 48.36 336.76 47.7 336.76 46.36 336.76 45.69 336.09 45.03 336.76 43.7 336.76 43.02 338.09 41.69 339.43 39.02 342.1 37.02 344.77 36.35 344.77 35.02 346.77 32.35 349.44 31.02 350.77 31.02 352.11 31.02 352.77 31.02 354.77 32.35 356.11 33.69 357.44 35.02 358.78 35.69 359.44 36.35 360.11 37.69 361.44 37.69 362.78 38.36 363.44 38.36 364.12 38.36 365.45 38.36 366.78 39.02 367.44 39.02 368.12 39.02 368.78 39.69 368.78 39.69 369.45 39.69 370.12 39.69 370.78 40.36 371.45 40.36 372.12 40.36 372.78 41.02 372.78 41.69 374.12 42.36 374.79 42.36 375.45 43.02 375.45 44.36 374.79 45.03 374.79 46.36 374.79 47.7 374.79 48.36 374.12 49.03 374.12 49.7 374.12 50.36 374.12 51.7 374.12 52.36 374.12 53.03 374.12 53.7 374.12 57.7 374.79 59.04 374.79 61.7 374.79 62.37 374.79 63.04 375.45 63.71 375.45 64.37 375.45 65.04 376.12 65.71 376.12 66.37 376.12 67.04 376.12 67.04 376.78 67.71 376.78 70.38 376.12 71.04 376.12 72.38 376.12 74.38 376.12 75.05 376.12 76.38 376.12 77.05 376.78 78.38 376.78 78.38 377.45 77.71 378.79 79.05 379.45 79.05 380.12 79.05 380.79 79.05 382.12 79.05 383.46 79.05 384.13 79.72 384.79 79.72 385.46 80.38 387.46 80.38 388.13 81.05 388.79 81.05 390.13 81.72 390.13 81.72 390.79 81.72 391.46 83.05 392.13 83.05 392.79 83.72 392.79 84.39 392.79 85.06 393.47 85.72 394.13 86.39 394.13 87.05 394.79 88.39 394.79 88.39 395.47 89.06 395.47 89.72 395.47 90.39 396.13 91.06 396.8 91.72 398.13 91.06 398.79 83.72 401.47 83.72 402.13 84.39 402.8 84.39 403.47 85.06 404.81 85.06 405.47 85.72 406.81 85.72 407.47 88.39 407.47 89.06 408.13 89.06 407.47 89.72 407.47 91.06 407.47 91.72 407.47 92.39 407.47 92.39 408.13 93.06 408.81 93.06 409.48 93.72 409.48 93.72 410.14 93.72 411.47 93.72 412.14 93.72 412.81 94.4 413.47 94.4 414.14 96.39 418.14 96.39 418.82 97.06 420.14 97.06 420.81 97.72 420.81 97.72 421.48 97.72 422.14 97.72 422.81 97.72 423.48 97.72 424.14 97.72 424.82 98.4 424.82 98.4 425.48 98.4 426.15 99.06 426.15 99.06 426.81 99.73 426.81 99.73 427.48 100.4 427.48 100.4 428.16 100.4 428.82 100.4 429.48 100.4 430.15 101.06 430.82 101.06 431.48 101.06 432.15 101.73 432.82 101.73 433.48 102.4 433.48 102.4 434.16 103.06 434.16 103.06 434.82 103.73 434.82 103.73 435.49 104.4 435.49 105.73 436.15 107.07 437.49 107.74 437.49 108.4 438.16 109.07 438.82 109.07 439.49 109.07 440.16 109.07 441.49 109.07 442.16 109.74 443.49 109.74 444.16 109.74 444.83 109.74 445.49 110.4 445.49 110.4 446.16 110.4 446.83 111.07 446.83 111.07 447.49 111.74 449.5 112.4 450.17 112.4 450.83 113.07 450.83 113.74 451.5 113.74 452.16 114.41 452.16 114.41 452.83 114.41 453.5 115.07 453.5 115.07 454.17 115.07 454.83 115.07 455.5 115.07 456.17 115.07 456.83 115.07 457.5 114.41 458.17 114.41 458.83 114.41 459.51 113.74 460.17 113.74 460.84 113.07 461.5 112.4 462.17 111.74 461.5 108.4 464.84 111.74 468.17 112.4 467.51 113.74 470.18 114.41 470.84 119.07 478.85 119.07 479.52 119.75 479.52 123.07 480.85 124.41 482.18 124.41 481.51 125.08 478.85 126.41 480.18 126.41 479.52 127.75 478.18 128.41 477.51 130.42 474.84 130.42 474.18 131.08 474.18 131.75 473.51 131.75 472.85 133.08 471.51 133.08 470.18 133.75 470.18 134.42 470.18 135.09 470.84 136.42 470.18 137.75 469.51 139.09 468.84 140.42 468.84 141.09 468.84 141.09 469.51 142.42 469.51 143.09 468.84 143.09 468.17 143.09 467.51 143.76 467.51 144.42 466.84 145.09 466.84 145.76 466.84 146.43 466.84 147.09 466.84 148.42 466.84 151.76 466.84 152.43 466.84 153.1 466.84 154.43 466.17 155.1 465.51 155.1 464.84 155.77 464.84 156.43 465.51 159.77 464.84 161.1 464.84 161.77 465.51 162.44 463.51 163.1 463.51 163.1 462.83 163.77 462.83 165.11 462.17 168.44 460.17 169.77 458.83 171.11 458.17 172.44 456.83 173.77 455.5 175.78 454.83 175.78 454.17 176.45 454.17 177.11 453.5 177.78 453.5 178.45 453.5 179.11 452.83 179.78 452.16 180.45 452.16 181.12 451.5 181.78 451.5 181.78 450.83 182.45 450.17 183.11 450.17 185.12 449.5 185.79 449.5 186.45 449.5 187.12 448.83 187.79 448.83 188.45 448.83 188.45 449.5 191.12 450.83 191.79 451.5 192.45 451.5 192.45 452.16 193.12 452.83 193.12 453.5 193.79 454.83 193.79 455.5 193.79 456.17 194.46 456.83 195.12 456.83 194.46 457.5 194.46 458.17 194.46 458.83 194.46 459.51 194.46 460.17 193.79 460.17 193.79 460.84 193.79 461.5 193.79 462.17 193.79 462.83 194.46 462.17 194.46 462.83 194.46 463.51 194.46 464.17 193.79 464.84 194.46 464.84 195.79 466.17 196.46 466.17 197.13 466.17 197.79 466.17 198.46 466.17 199.12 466.17 199.8 466.17 200.46 466.17 201.13 466.17 202.46 466.17 203.13 466.17 203.8 465.51 206.47 466.17 207.13 466.17 207.13 466.84 209.13 467.51 209.8 467.51 211.14 468.17 213.14 467.51 213.8 467.51 213.8 466.84 214.47 466.84 214.47 466.17 214.47 465.51 215.14 465.51 215.14 464.84 215.81 464.84 215.81 464.17 216.47 463.51 216.47 462.83 217.14 462.17 217.8 462.17 218.47 460.84 219.14 460.17 219.8 459.51 220.47 458.83 221.81 457.5 222.47 456.83 222.47 456.17 223.14 455.5 224.47 454.17 225.15 453.5 225.81 452.83 227.14 451.5 227.81 450.83 228.48 450.83 228.48 450.17 229.14 449.5 229.81 449.5 229.81 448.83 230.48 448.16 231.15 448.16 231.15 447.49 231.82 447.49 231.82 446.83 232.48 446.16 233.81 447.49 235.81 448.83 242.49 453.5 245.15 456.17 248.49 454.83 250.5 454.17 254.49 452.83 255.16 452.83 261.16 452.83 261.83 452.83 263.83 456.83 264.5 458.83 267.17 464.84 268.5 467.51 269.17 468.84 269.84 469.51 270.5 469.51 271.17 469.51 283.85 472.17 285.18 472.17 287.85 472.85 289.85 473.51 292.52 474.18 293.85 474.18 294.52 474.18 295.19 474.18 297.86 474.18 298.52 474.18 298.52 474.84 299.19 474.84 299.19 475.51 299.85 476.18 300.52 476.18 301.19 476.18 303.19 474.18 303.86 473.51 304.52 473.51 304.52 472.85 305.19 472.85 305.86 472.17 307.2 472.17 308.53 471.51 309.2 471.51 310.53 470.18 311.2 470.18 311.2 469.51 311.86 468.84 312.53 467.51 313.2 467.51 313.2 468.17 313.2 468.84 313.2 469.51 313.2 470.18 313.87 470.18 314.53 470.18 314.53 469.51 315.2 468.84 315.86 468.84 315.86 468.17 316.54 468.17 317.2 467.51 320.54 466.17 329.21 462.17 330.54 462.83 338.55 469.51 339.22 470.18 339.88 470.84 342.55 471.51 341.89 473.51 341.89 474.18 341.89 476.18 342.55 476.18 342.55 476.85 342.55 477.51 343.22 477.51 343.22 478.18 343.89 478.85 344.55 478.85 345.89 480.18 347.22 481.51 347.89 482.18 347.89 482.85 348.56 482.85 348.96 483.26 354.67 477.18 383.85 446.16"/>
  <text class="cls-1" text-anchor="middle" alignment-baseline="central">
    <tspan x="200" y="295">Monschau</tspan></text>
</svg>