<?xml version="1.0" encoding="UTF-8"?>
<svg xmlns="http://www.w3.org/2000/svg" viewBox="0 0 512 512">
  <defs>
    <style>
      .cls-1 {
        fill: #fff;
        font-family: DMSans-Bold, 'DM Sans', sans-serif;
        font-size: 28px;
        font-variation-settings: 'opsz' 14, 'wght' 700;
        font-weight: 700;
      }

      .cls-8 {
        fill: #60acb5;
        stroke: #f2f2f2;
        stroke-linejoin: round;
        stroke-width: 6px;
      }

    </style>
  </defs>
  <path class="cls-8" d="M401.06,466.99l11.84-21.5,25.01-8.93-10.68-14.28-9.12-28.98-8.79-12.08-5.51-6.25-5.51-9.82-4.16-29.46,21.88-16.08,10.17-17.84,32.46-32.22c.48-7.56,6.91-35.63,6.91-35.63l-7.23-5.83-29.82-24.08-46.42-17.85,10.38-50.45-36.49-12.94h-58.58l-2.01-7.7-8.04-1.68v-6.02h-3.68l-2.34-6.36,4.68-2.49-5.36-12.57v-7.36l-16.06-15.07,3.35-4.68-4.35-4.02,8.04-10.71-3.68-5.36,6.58-6.02-2.23-6.36,4.68-8.04-4.02-11.05-3.16-4.26-6.54,3.93h-6.03l-1.68,2.01-3.35,1.68-2.01,6.02-5.35,8.18-5.36,5.22v4.68l-1.68,1.68-7.37-1.68-.33,3.68,2.34,3.35h2.68v9.37l-4.02-3.35-4.35-.67-3.68-3.35-18.75,14.4-1.67,7.37-7.37-1.34-7.36,6.02-2.34,6.14-11.05-3.79s-3.68,3.01-6.02,3.69c-2.35.67.67-2.01,0-3.35-.67-1.34-8.37-2.01-9.37-2.34s-10.71-5.69-10.71-5.69l-10.04-12.22-6.7-6.86-5.02,13.72-7.03-1.34-2.34-4.12h-35.82l-10.5,12.94-7.59,5.8-8.78,5.81-1.93,4.46-4.02,4.91-2.23,5.05,6.8,10.33h0s1.37,0,1.37,0h1.38l2.07.69v-2.76l4.82,2.76.69.68,1.37.69,2.07.69,1.38.69.69.68v.69l1.37.69.69.69.69.69v.68l.68.69v.69h.69l1.37,1.37.69.69.68.69.69.69,1.38,2.07.68-.69.69.69.69,2.07,2.06,2.75v.69h.69l.69,1.38.69.68.69.69-.69.69h-1.38l.69,2.06v.69l.69.69.69,4.82.69.69-.69,1.38v2.07l.69.69.69,1.38.68,2.06.69,1.38.69.69v.69h.68l.69.68.68,2.07.69,1.38v.69l.69.68.69.69v6.89l-.69.68v.69l-2.76,4.82-1.37,2.06v1.38h.69v.68l2.75,4.14,4.82,6.2v1.38l2.07,2.75,1.38,1.38,1.37,2.07.69,1.38,1.38,2.07.69.68.69.69,2.07,3.44,1.38,2.07.68.69v.69h.69v.68l.69.69.69.69h.69v1.38h.69v3.44l-.69.69v.69l.69.68v5.51h.69l1.38,2.07,1.37,1.38,1.38,1.38,1.38,1.37,1.38.69,1.38.68,1.38.69,4.13,2.76h.69v3.44l-.69.69v1.38h.69l-.69.69,1.38,1.37.69,1.38.69,2.07,1.38,1.38v.69h.68v-.69h.69l.68.69h.69l.69.69v.69l.68.69v.69l.69.69h-.69l.69.68.69,1.38.69.68v1.38h-.69v1.38l-.69.69-1.37,2.07-.69,2.06v1.38l2.07,6.2v.68l1.38,4.82.69,2.07.69,2.07v1.37l-.69,3.45h2.06l.69.68h1.37v.69l1.38,2.75.69,1.38.69.69h.69l.69.69h.69v.69l.69.69v2.06l.69,3.45.69,1.38v.69l8.26,4.82v.69l4.82,2.75,2.06.68,1.38,1.38,3.45,2.06v.69h-.69l-.69.69h.69l-.69.69h1.38l-.69.69v.69h.69v2.07h.68v1.37h.69v-.69,1.38h.69v.68h1.37l-.68.69v.68h.68v-.68h.69v.68h1.38v.69h.69l.68.69h1.38v.69h.69v1.38h.69v-.69.69h1.37v-.69h1.38v.69h.68v.69h.69v1.38h1.37v2.07l-.68.68h.68v.69h-1.37v1.38h-.69v.68h-.68v.69h-.69l.69,2.07v.68l.68,2.76,2.76,11.02,2.75,8.27v1.38l2.07,2.75.68,1.38v1.37l1.38,1.38v.68l5.51,7.58.69,1.38,2.76,3.44.69.69,6.2,6.89.68.69,7.58,4.82,3.45,2.07,2.75,2.07,1.38.69,1.38.69,4.14,3.45,1.37,1.37.69.69,2.76,2.75-2.76,2.07-.69.68h.69l.69,1.38-2.07,2.76-2.06,2.76,3.44,1.38,3.44,2.06v.69l-.68,2.07h.68l-1.37,4.13h-3.45l-1.38,1.38-.68.68h-.69v.69l-.69.69-1.37,1.38-.69.69-1.38,1.37-2.76,2.76v.68l-.68-.68v-.69h-2.76l-.68.69v.68h-.69l-1.38.69h-.69l-.69-.69v-.68h-.69v-1.38l-.68-.68h-.69v.68h-.68v.69h-1.38l-.68.69h-.69l-.69.68h-.69v.69h-2.07v-.69l-.68-1.38-.69-.69h-2.06l-2.07-.68v.68h-.69l-.69.69h-3.44v.69h.68v.68h-2.06v.69h-.69l-.69.69h-.68v.69l2.07,2.07,3.44,4.82.69.69.69,1.38,4.14,4.82.69.69,1.38,1.38v.69l2.06,2.06v.69l.69.68,3.45,4.14,1.37,1.38,2.07,2.75v.69l2.76,3.45,3.44,3.45,2.76,3.45,2.07,2.75.69,1.38,6.2,4.13-3.44,5.51-5.51,8.27-1.38,1.37-9.64,2.76,1.38,6.89,1.38,1.38,3.44,2.07,8.27,4.82,2.07-1.38,4.13-4.82h.69l4.82-6.2.69.68,5.5-2.07-1.37-5.5-.69-.69-1.38-4.82h6.2l1.37-2.76h.69l2.07-3.44,2.75-4.82,6.2-3.44v.69h.69v.68l.69.69.68.69h.69v.68h.68l.69.69h.69l1.37.68,1.38-.68,4.13,2.75h-.68l.68,1.38,1.38,1.37v.69h3.44l.69-.69,1.38-2.75h3.44l1.38.69.69.69,2.76.69,4.14,1.38,3.43,1.37,1.38-2.07,3.45,2.07,2.75,1.38,4.82-2.75.68-.69,5.51,3.45,4.82-4.13,3.45,1.38,11.71,6.89,6.2,4.13,4.82,2.76,6.89,4.14,8.27,4.82.68.69,2.76,1.37.69-.68h.69l1.38.68h15.15l11.02-.68,13.74-.65.72-5.55-2.76-30.99Z"/>
  <text class="cls-1">
    <tspan x="286" y="240">Kornelimünster/</tspan>
    <tspan x="286" y="282">Roetgen</tspan>
  </text>
</svg>