<?xml version="1.0" encoding="UTF-8"?>
<svg xmlns="http://www.w3.org/2000/svg" viewBox="0 0 512 512">
  <defs>
    <style>

      .cls-3 {
        fill: #fff;
        font-family: DMSans-Bold, 'DM Sans', sans-serif;
        font-size: 28px;
        font-variation-settings: 'opsz' 14, 'wght' 700;
        font-weight: 700;
      }

      .cls-4 {
        fill: #825e8b;
        stroke: #f2f2f2;
        stroke-linejoin: round;
        stroke-width: 6px;
      }

    </style>
  </defs>
  <path class="cls-4" d="M508.58,132.5c-2.21.55-36.39,3.3-36.39,3.3l-8.04-62.2-35.52,20.14s-20.62,1.18-47.75,2.61c-52,2.73-127.96,6.34-128.68,4.17-1.11-3.31-28.67-31.98-28.67-31.98l-11.03-47.41-55.14,6.61-9.92,18.69h-22.06l-7.71,6.68-36.39-6.68v29.13l4.4,83.41-32.76,21.31-21.27,28.31-22.05,31.98-6.62,20.95.55,22.67.54,22.54,14.24,17.8,10.02,3.16,94.83-8.82h15.44l39.7,8.82,23.15,22.75,16.63,96.34,39.61,44.1,28.67-6.62,29.77-37.48,12.13,8.82v-56.24l-65.06-25.37,45.22-37.49,3.94-12.63,1.57-5.01-8.27-10.47,12.68-13.79,82.15-16.54,8.82-3.31,9.38,7.17v7.25l14.89-2.29s11.57-4.41,11.57-6.62-2.21-8.82-2.21-8.82l4.02-10.37,6.45-16.65-7.16-12.68,11.13-15.58,8.17-11.43-5.52-17.64,5.52-3.86,6.62,3.3-3.86-27.02,35.28-4.4s7.17-23.16,4.97-22.61"/>
  <text class="cls-3" text-anchor="middle" alignment-baseline="central">
    <tspan x="256" y="200">Mönchengladbach</tspan>
    <tspan x="256" y="242">Nord-West</tspan>
  </text>
</svg>