<?xml version="1.0" encoding="UTF-8"?>
<svg id="Ebene_1" data-name="Ebene 1" xmlns="http://www.w3.org/2000/svg" viewBox="0 0 512 512">
  <defs>
    <style>
      .cls-1 {
        fill: none;
        stroke: #3231e4;
        stroke-linecap: round;
        stroke-linejoin: round;
        stroke-width: 50px;
      }

      .cls-2 {
        fill: #3231e4;
      }
    </style>
  </defs>
  <rect class="cls-1" x="45.79" y="46" width="420" height="420" rx="53.7" ry="53.7"/>
  <g>
    <path class="cls-2" d="M169.13,385.41c-9.57,0-17.27-2.85-23.1-8.58-5.83-5.71-8.75-12.65-8.75-20.83s2.92-15.45,8.75-21.17c5.83-5.71,13.53-8.58,23.1-8.58s16.92,2.86,22.75,8.58c5.83,5.72,8.75,12.78,8.75,21.17s-2.92,15.11-8.75,20.83c-5.83,5.72-13.42,8.58-22.75,8.58ZM146.73,301.06l-5.95-162.4h56.35l-5.95,162.4h-44.45Z"/>
    <path class="cls-2" d="M261.17,301.76l-1.05-56.7h18.55c8.4,0,16.28-.52,23.62-1.57,7.35-1.05,13.65-2.85,18.9-5.43,5.25-2.56,9.39-6.3,12.42-11.2,3.03-4.9,4.55-11.08,4.55-18.55,0-6.3-1.29-11.73-3.85-16.27-2.57-4.55-6.25-8.1-11.03-10.67-4.79-2.56-10.45-3.85-16.97-3.85s-12.31,1.35-17.33,4.02c-5.02,2.69-8.81,6.3-11.38,10.85-2.57,4.55-3.85,9.98-3.85,16.27h-49.35c-.24-14,2.85-26.6,9.28-37.8,6.42-11.2,15.86-20.06,28.35-26.6,12.48-6.53,27.59-9.8,45.33-9.8,16.1,0,30.28,2.86,42.53,8.58,12.25,5.72,21.88,14.12,28.88,25.2,7,11.08,10.5,24.56,10.5,40.42s-3.39,28.35-10.15,38.85c-6.77,10.5-16.16,18.38-28.17,23.62-12.02,5.25-25.96,8-41.83,8.23l-1.4,22.4h-46.55ZM284.97,385.41c-9.57,0-17.27-2.85-23.1-8.58-5.83-5.71-8.75-12.65-8.75-20.83s2.92-15.45,8.75-21.17c5.83-5.71,13.53-8.58,23.1-8.58s16.92,2.86,22.75,8.58c5.83,5.72,8.75,12.78,8.75,21.17s-2.92,15.11-8.75,20.83c-5.83,5.72-13.42,8.58-22.75,8.58Z"/>
  </g>
</svg>