<?xml version="1.0" encoding="utf-8"?>
<!-- Generator: Adobe Illustrator 19.2.1, SVG Export Plug-In . SVG Version: 6.00 Build 0)  -->
<svg version="1.1" id="layer" xmlns="http://www.w3.org/2000/svg" xmlns:xlink="http://www.w3.org/1999/xlink" x="0px" y="0px"
	 viewBox="0 0 652 652" style="enable-background:new 0 0 652 652;" xml:space="preserve">
<path id="path4" d="M570.2,370.2H463.3c-27.5,0-49.8-22.1-49.8-49.2c0-27.2,22.3-49.2,49.8-49.2h106.9c27.5,0,49.8,22.1,49.8,49.2
	C620,348.2,597.7,370.2,570.2,370.2z M570.2,284.9H463.3c-20.2,0-36.6,16.2-36.6,36.1s16.4,36.1,36.6,36.1h106.9
	c20.2,0,36.6-16.2,36.6-36.1S590.4,284.9,570.2,284.9z M557.7,342.9c-13.2,0-22.6-9.7-22.6-21.8V321c0-12.1,9.6-21.9,22.7-21.9
	c13.1,0,22.5,9.7,22.5,21.8v0.1C580.4,333.1,570.8,342.9,557.7,342.9z M570.6,321c0-7.3-5.4-13.4-12.9-13.4s-12.8,6-12.8,13.2v0.1
	c0,7.3,5.4,13.4,12.9,13.4c7.5,0,12.8-6,12.8-13.2C570.6,321.1,570.6,321,570.6,321z M529.1,334.7c0.9,1.2,1.5,2.1,1.5,3.6
	c0,2.6-2.2,4.3-4.5,4.3c-2.1,0-3.5-1-4.6-2.4l-9.1-11.5H505v9.3c0,2.6-2.1,4.7-4.7,4.7s-4.7-2.1-4.7-4.7v-33.4
	c0-2.6,2.1-4.7,4.7-4.7H515c5.4,0,9.6,1.5,12.4,4.3c2.4,2.4,3.6,5.7,3.6,9.7v0.1c0,6.7-3.3,10.8-8.5,12.9
	C522.6,326.8,529.1,334.7,529.1,334.7z M521.6,314.3c0-4-2.8-6.1-7.4-6.1H505v12.2h9.5c4.6,0,7.2-2.4,7.2-6L521.6,314.3L521.6,314.3
	z M474,329.5h-7.1v8.4c0,2.6-2.1,4.7-4.7,4.7c-2.6,0-4.7-2.1-4.7-4.7v-33.4c0-2.6,2.1-4.7,4.7-4.7h12.7c10.2,0,16.3,6,16.3,14.7v0.1
	C491.3,324.4,483.6,329.5,474,329.5L474,329.5z M481.8,314.6c0-4.2-3-6.4-7.6-6.4h-7.2v13h7.4c4.7,0,7.5-2.8,7.5-6.4L481.8,314.6
	L481.8,314.6z M362.3,320.7l30.1,30.6c4.3,4.4,4.2,11.2-0.2,15.5c-4.4,4.3-11.2,4.3-15.6-0.1l-30-30.4l-5.9,5.8v16.6
	c0,6.5-5.2,11.7-11.7,11.7c-6.5,0-11.7-5.2-11.7-11.7v-75.3c0-6.5,5.2-11.7,11.7-11.7c6.6,0,11.7,5.2,11.7,11.7V311l36.2-36.1
	c4.4-4.3,11.2-4.3,15.6,0c4.3,4.3,4.3,11.2,0,15.5L362.3,320.7L362.3,320.7z M288.3,370.4c-6.6,0-11.7-5.2-11.7-11.7v-75.3
	c0-6.5,5.2-11.7,11.7-11.7c6.5,0,11.7,5.2,11.7,11.7v75.3C300,365.2,294.8,370.4,288.3,370.4z M240.8,362.6
	c-1.3,4.6-5.3,7.5-9.8,7.7c-0.2,0-0.5,0-0.7,0c-0.3,0-0.5,0-0.7,0c-4.5-0.2-8.5-3.1-9.8-7.7L207.5,320l-12.2,42.6
	c-1.3,4.5-5.2,7.4-9.6,7.7c-0.3,0-0.5,0-0.8,0c-0.3,0-0.6,0-0.8,0c-4.4-0.3-8.4-3.2-9.6-7.7l-22.2-77.4c-1.6-5.7,1.7-11.6,7.3-13.2
	c5.7-1.6,11.6,1.6,13.2,7.3l12.2,42.3l12.1-42.3c1.3-4.6,5.4-7.5,9.9-7.7c0.2,0,0.4,0,0.6,0c0.3,0,0.5,0,0.7,0
	c4.5,0.2,8.6,3.1,9.9,7.7l12.2,42.5l12.2-42.5c1.6-5.7,7.5-8.9,13.2-7.3c5.7,1.6,8.9,7.5,7.3,13.2
	C263,285.3,240.8,362.6,240.8,362.6z M127.1,370.4c-6.5,0-11.7-5.2-11.7-11.7v-75.3c0-6.5,5.2-11.7,11.7-11.7
	c6.6,0,11.7,5.2,11.7,11.7v75.3C138.9,365.2,133.7,370.4,127.1,370.4z M68.5,341.7L68.5,341.7l-25,0.1v16.7
	c0,6.5-5.2,11.7-11.7,11.7c-6.5,0-11.7-5.2-11.7-11.7v-75c0-6.5,5.2-11.7,11.7-11.7h36.8v0c18.7,0.8,33.6,16.1,33.6,34.9
	S87.2,341,68.5,341.7z M64.3,292.9H43.4V321h21.3l0,0c7.6-0.2,13.7-6.4,13.7-14C78.4,299.2,72.1,292.9,64.3,292.9z"/>
</svg>
