<?xml version="1.0" encoding="UTF-8"?>
<svg id="Gruppe_2085" xmlns="http://www.w3.org/2000/svg" version="1.1" viewBox="0 0 202 74.44">
  <!-- Generator: Adobe Illustrator 29.7.0, SVG Export Plug-In . SVG Version: 2.1.1 Build 138)  -->
  <defs>
    <style>
      .st0 {
        fill: #004283;
      }
    </style>
  </defs>
  <path id="Pfad_14" class="st0" d="M194.66,48.51c-4.02.03-7.26,3.31-7.24,7.34.03,4.02,3.31,7.26,7.34,7.24,4.02-.03,7.26-3.31,7.24-7.34h0c-.06-4.01-3.33-7.23-7.34-7.24"/>
  <path id="Pfad_15" class="st0" d="M179.67,48.32c0-12.3-9.1-21.08-25.42-21.08V11.02l23.35.1V.27h-33.79v36.38c1.96-.1,3.72-.21,5.78-.21,11.99,0,18.3,5.68,18.3,13.43s-5.79,13.64-17.67,13.64c-2.5,0-4.99-.24-7.44-.72l-1.14,10.03c2.61.33,5.23.5,7.86.51,17.57,0,30.18-10.54,30.18-25.01"/>
  <path id="Pfad_16" class="st0" d="M127.45,62.88V27.44c0-11.68-5.48-16.94-15.29-16.94-7.41-.07-14.15,4.28-17.16,11.05-.82-4.55-4.14-11.05-14.26-11.05-7.52-.17-14.39,4.24-17.36,11.15l-.21-.1c.49-3.32.73-6.67.72-10.02h-10.53v51.36h11.05v-24.59c0-10.75,6.1-18.6,13.13-18.6,6.2,0,7.44,4.55,7.44,10.34v32.86h10.85v-24.59c0-11.26,6.61-18.6,13.23-18.6,5.9,0,7.44,4.03,7.44,10.44v32.76h10.95Z"/>
  <path id="Pfad_17" class="st0" d="M38.34,50.12c0-8.37-5.06-15.19-13.64-16.74v-.1c7.13-3,11.99-8.99,11.99-16.74,0-9-6.3-16.54-20.35-16.54C11.15-.02,6.02,1,1.24,3l1.03,9.3c3.64-2.01,7.72-3.08,11.88-3.1,6.82,0,10.96,3.52,10.96,9.3,0,8.26-7.75,12.5-21.49,12.4v8.89c13.64-1.45,22.74,2.17,22.74,11.68,0,7.44-5.58,12.81-16.02,12.81-3.11,0-6.21-.46-9.19-1.34l-1.14,9.71c3.15.75,6.37,1.14,9.61,1.14,18.4,0,28.73-10.54,28.73-23.67"/>
</svg>