<svg width="290" height="228" viewBox="0 0 290 228" fill="none" xmlns="http://www.w3.org/2000/svg">
    <path d="M134.578 202.243C131.041 205.647 124.908 206.601 120.534 204.315L97.3922 191.52L95.6026 195.707L120.092 208.667C132.478 212.981 142.912 204.983 142.518 191.959C142.494 191.168 141.866 190.076 142.5 189.562C155.097 186.44 167.429 182.015 180.038 178.974C182.85 178.297 184.709 177.726 187.636 178.424C199.044 181.143 200.317 196.299 191.14 202.408C164.563 210.213 137.841 218.725 110.988 225.725C104.229 227.487 98.454 229.024 91.7105 225.923L52.4044 202.053L12.5749 213.17L0.835449 170.769L65.2026 152.569C69.8467 151.486 74.7885 152.105 78.9423 154.473C96.2613 165.144 115.611 173.801 132.782 184.551C139.432 188.713 140.223 196.811 134.581 202.243H134.578ZM195.143 32.4125L170.684 19.118C160.622 14.6815 148.871 21.8822 148.209 32.8456C148.125 34.2623 148.687 36.7889 148.537 37.6642C148.474 38.0251 148.408 38.2687 148.014 38.365L107.462 49.545C92.5858 50.6338 87.4965 32.7434 100.099 25.3381C124.676 18.4533 149.1 10.9337 173.725 4.21727C181.334 2.14188 188.947 -1.02835 196.809 1.71478C210.751 9.22228 223.931 18.1194 237.472 26.3307L277.115 15.0003L289.167 57.3804C270.952 62.4305 252.857 67.9889 234.612 72.9247C225.438 75.4062 220.622 78.047 211.379 73.4691C192.611 64.172 174.32 51.9783 155.738 42.1849C146.227 33.4562 157.494 18.6277 168.879 23.3289L192.89 36.6084L195.143 32.4125ZM117.779 73.7008C129.636 72.5458 137.956 78.9614 144.164 88.3518C144.57 88.4541 147.075 84.6672 147.626 83.9995C156.291 73.5203 167.273 70.8072 179.909 76.3657C191.813 81.6023 197.607 91.892 194.015 104.826C189.75 120.193 166.722 142.357 154.992 153.63C151.473 157.011 147.848 160.419 144.104 163.505C143.872 163.526 140.975 160.945 140.539 160.548C133.303 153.922 125.53 145.882 118.733 138.742C108.927 128.443 92.5767 111.121 93.4791 96.0277C94.207 83.8641 106.316 74.8197 117.776 73.7038L117.779 73.7008Z" fill="#F2F1F3"/>
</svg>
