<svg width="33" height="33" viewBox="0 0 33 33" fill="none" xmlns="http://www.w3.org/2000/svg">
    <path d="M6.875 13.6439C6.875 20.3152 12.7112 25.832 15.2944 27.9472C15.6641 28.2499 15.8512 28.403 16.127 28.4807C16.3417 28.5412 16.6578 28.5412 16.8726 28.4807C17.149 28.4029 17.3347 28.2512 17.7058 27.9474C20.289 25.8322 26.1249 20.3158 26.1249 13.6445C26.1249 11.1199 25.1109 8.69832 23.3058 6.91312C21.5008 5.12792 19.0528 4.125 16.5001 4.125C13.9474 4.125 11.4991 5.12807 9.6941 6.91327C7.88906 8.69847 6.875 11.1193 6.875 13.6439Z" stroke="white" stroke-width="2" stroke-linecap="round" stroke-linejoin="round"/>
    <path d="M13.75 12.375C13.75 13.8938 14.9812 15.125 16.5 15.125C18.0188 15.125 19.25 13.8938 19.25 12.375C19.25 10.8562 18.0188 9.625 16.5 9.625C14.9812 9.625 13.75 10.8562 13.75 12.375Z" stroke="white" stroke-width="2" stroke-linecap="round" stroke-linejoin="round"/>
</svg>
