<svg width="27" height="27" viewBox="0 0 27 27" fill="none" xmlns="http://www.w3.org/2000/svg">
    <path d="M1.125 13.5H8M1.125 13.5C1.125 20.3345 6.66548 25.875 13.5 25.875M1.125 13.5C1.125 6.66548 6.66548 1.125 13.5 1.125M8 13.5H19M8 13.5C8 20.3345 10.4624 25.875 13.5 25.875M8 13.5C8 6.66548 10.4624 1.125 13.5 1.125M19 13.5H25.875M19 13.5C19 6.66548 16.5376 1.125 13.5 1.125M19 13.5C19 20.3345 16.5376 25.875 13.5 25.875M25.875 13.5C25.875 6.66548 20.3345 1.125 13.5 1.125M25.875 13.5C25.875 20.3345 20.3345 25.875 13.5 25.875" stroke="white" stroke-width="2" stroke-linecap="round" stroke-linejoin="round"/>
</svg>
