<svg width="232" height="257" viewBox="0 0 232 257" fill="none" xmlns="http://www.w3.org/2000/svg">
    <path d="M64.6658 38.8332H54.4017C40.027 38.8332 32.8343 38.8332 27.3439 41.6307C22.5144 44.0914 18.5908 48.0151 16.13 52.8446C13.3325 58.335 13.3325 65.5277 13.3325 79.9023V90.1665M64.6658 38.8332H167.333M64.6658 38.8332V13.1665M167.333 38.8332H177.602C191.976 38.8332 199.154 38.8332 204.644 41.6307C209.474 44.0914 213.41 48.0151 215.871 52.8446C218.666 58.3296 218.666 65.5136 218.666 79.8602V90.1665M167.333 38.8332V13.1665M13.3325 90.1665V203.102C13.3325 217.477 13.3325 224.661 16.13 230.151C18.5908 234.98 22.5144 238.911 27.3439 241.372C32.8289 244.166 40.0129 244.166 54.3595 244.166H177.639C191.985 244.166 199.159 244.166 204.644 241.372C209.474 238.911 213.41 234.98 215.871 230.151C218.666 224.666 218.666 217.492 218.666 203.146V90.1665M13.3325 90.1665H218.666M167.333 192.833H167.358L167.358 192.859L167.333 192.858V192.833ZM115.999 192.833H116.025L116.024 192.859L115.999 192.858V192.833ZM64.6658 192.833H64.6915L64.6909 192.859L64.6658 192.858V192.833ZM167.358 141.5V141.525L167.333 141.525V141.5H167.358ZM115.999 141.5H116.025L116.024 141.525L115.999 141.525V141.5ZM64.6658 141.5H64.6915L64.6909 141.525L64.6658 141.525V141.5Z" stroke="white" stroke-width="25.6475" stroke-linecap="round" stroke-linejoin="round"/>
</svg>
