<svg width="300" height="300" viewBox="0 0 300 300" fill="none" xmlns="http://www.w3.org/2000/svg">
    <path opacity="0.32" fill-rule="evenodd" clip-rule="evenodd" d="M150 175C129.289 175 112.5 158.211 112.5 137.5C112.5 116.789 129.289 100 150 100C170.711 100 187.5 116.789 187.5 137.5C187.5 158.211 170.711 175 150 175Z" fill="white"/>
    <path d="M212.5 250C212.5 229.289 184.518 212.5 150 212.5C115.482 212.5 87.5 229.289 87.5 250M262.5 212.505C262.5 197.127 247.074 183.912 225 178.125M37.5 212.505C37.5 197.127 52.9262 183.912 75 178.125M225 127.951C232.672 121.085 237.5 111.106 237.5 100C237.5 79.2893 220.711 62.5 200 62.5C190.396 62.5 181.634 66.1107 175 72.0487M75 127.951C67.3281 121.085 62.5 111.106 62.5 100C62.5 79.2893 79.2893 62.5 100 62.5C109.604 62.5 118.366 66.1107 125 72.0487M150 175C129.289 175 112.5 158.211 112.5 137.5C112.5 116.789 129.289 100 150 100C170.711 100 187.5 116.789 187.5 137.5C187.5 158.211 170.711 175 150 175Z" stroke="white" stroke-width="25" stroke-linecap="round" stroke-linejoin="round"/>
</svg>