<svg width="94" height="107" viewBox="0 0 94 107" fill="none" xmlns="http://www.w3.org/2000/svg">
    <path d="M47.0632 53.5858C61.7737 53.5858 73.6961 41.6981 73.6961 27.0303C73.6961 12.3626 61.7737 0.474854 47.0632 0.474854C32.3526 0.474854 20.4303 12.3626 20.4303 27.0303C20.4303 41.6981 32.3526 53.5858 47.0632 53.5858ZM37.5544 63.5441C17.0595 63.5441 0.455566 80.0998 0.455566 100.535C0.455566 103.938 3.22289 106.697 6.63524 106.697H87.4911C90.9034 106.697 93.6708 103.938 93.6708 100.535C93.6708 80.0998 77.0668 63.5441 56.572 63.5441H37.5544ZM54.1375 79.9131H41.2372C39.6351 79.9131 38.3242 78.6061 38.3242 77.0086V70.3697C38.3242 68.7723 39.6351 67.4652 41.2372 67.4652H54.1375C55.7397 67.4652 57.0505 68.7723 57.0505 70.3697V77.0086C57.0505 78.6061 55.7397 79.9131 54.1375 79.9131Z" fill="white"/>
</svg>
