<svg width="27" height="23" viewBox="0 0 27 23" fill="none" xmlns="http://www.w3.org/2000/svg">
    <path d="M2.5 3.25L10.898 9.59187L10.9008 9.59419C11.8333 10.278 12.2998 10.6201 12.8108 10.7523C13.2624 10.8691 13.7372 10.8691 14.1888 10.7523C14.7003 10.62 15.1682 10.2769 16.1023 9.59187C16.1023 9.59187 21.4889 5.45817 24.5 3.25M1.125 16.7253V6.27527C1.125 4.73512 1.125 3.96448 1.42473 3.37622C1.68838 2.85877 2.10877 2.43838 2.62622 2.17473C3.21448 1.875 3.98512 1.875 5.52527 1.875H21.4753C23.0154 1.875 23.7844 1.875 24.3727 2.17473C24.8901 2.43838 25.3119 2.85877 25.5756 3.37622C25.875 3.9639 25.875 4.73362 25.875 6.27075V16.7299C25.875 18.2671 25.875 19.0357 25.5756 19.6233C25.3119 20.1408 24.8901 20.5619 24.3727 20.8256C23.785 21.125 23.0164 21.125 21.4792 21.125H5.52075C3.98362 21.125 3.2139 21.125 2.62622 20.8256C2.10877 20.5619 1.68838 20.1408 1.42473 19.6233C1.125 19.0351 1.125 18.2654 1.125 16.7253Z" stroke="white" stroke-width="2" stroke-linecap="round" stroke-linejoin="round"/>
</svg>
