<?xml version="1.0" encoding="UTF-8"?>
<svg xmlns="http://www.w3.org/2000/svg" version="1.1" viewBox="0 0 93 35">
  <!-- Generator: Adobe Illustrator 29.2.1, SVG Export Plug-In . SVG Version: 2.1.0 Build 116)  -->
  <defs>
    <style>
      .st0 {
        fill: #fff;
      }

      .st2 {
        fill-rule: evenodd;
      }

      .st2, .st3 {
        fill: #0054ff;
      }
    </style>
  </defs>
  <path class="st2" d="M18.7,17.9c0-.5-.1-1.4-1.1-1.4s-1.1.8-1.1,1.4c0,2.5,0,1,0,1.7,0,3.5-2.7,6.1-6.1,6.2-3.3,0-6.1-2.6-6.2-6,0-2.4,0-4.8,0-7.2,0-2.2,1.7-3.8,3.9-3.8,2.1,0,3.7,1.6,3.7,3.8,0,2.2,0,4.3,0,6.5,0,1.2-.4,1.7-1.3,1.7-.8,0-1.2-.6-1.3-1.7,0-2,0-4,0-5.9,0-.8-.2-1.6-1.1-1.6-.9,0-1.1.8-1.1,1.5,0,2.2,0,4.3,0,6.5,0,2,1.5,3.5,3.4,3.6,1.9,0,3.5-1.5,3.5-3.5,0-2.4,0-4.8,0-7.2-.1-3.4-2.8-5.9-6.2-5.9-3.3,0-5.9,2.6-5.9,6,0,2.4,0,4.9,0,7.3,0,4.6,3.8,8.2,8.4,8.2,4.5,0,8.2-3.7,8.3-8.2,0-1.3,0-.2,0-1.9h0Z"/>
  <g class="st1">
    <path class="st3" d="M18.9,13.9c0-.2,0-.4-.2-.6,0-.2-.2-.4-.3-.5-.1-.2-.2-.3-.3-.5,0,0-.1-.1-.2-.2,0,0,0,0-.1-.1h0c0,0,0,0,0,0h0s-.2-.2-.6-.4c0,.4-.3,1-.4,1,0,0,0,.1,0,.2v.2c-.2.1-.3.3-.4.5,0,0,0,.2-.1.3,0,0,0,.2,0,.3,0,.1,0,.2,0,.3,0,.1,0,.2,0,.3,0,.1,0,.2,0,.3,0,0,0,.2.1.3,0,0,.1.2.2.2,0,0,.1.1.2.2,0,0,.1.1.2.1,0,0,0,0,.1,0,0,0,0,0,.1,0v-.2c-.2,0-.2-.2-.2-.2,0-.1-.1-.3-.1-.4,0,0,0-.1,0-.2,0,0,0-.1,0-.2,0-.1,0-.2.1-.3,0,0,0-.1,0-.2,0,0,0-.1.1-.2,0,0,0-.1.1-.2l.2-.2c0,0,.1-.1.2-.2,0,0,0,0,0,0,0,0,0,0,0,0,0,.1.2.2.2.3,0,.1.1.2.2.4,0,.1,0,.3.1.4,0,.1,0,.3,0,.4,0,0,0,0,0,.1,0,0,0,0,0,.1,0,0,0,.1,0,.2,0,0,0,0,0,.1,0,0,0,0,0,.1,0,0,0,.2-.1.2,0,0,.2,0,.2-.1,0,0,.2,0,.2-.2,0,0,.1-.1.2-.2,0,0,.1-.2.2-.2,0,0,.1-.2.1-.3,0,0,0-.2,0-.3,0-.2,0-.4,0-.6h0Z"/>
  </g>
  <path class="st3" d="M29.9,19.5c0,.1,0,.2,0,.4-.2.3-1,.7-2.2.7-2.5,0-3.2-1.8-3.2-3.8s.7-3.8,3.3-3.8,1.8.4,2.1.7c0,0,.1.2,0,.4l-.3.4c0,0-.2,0-.4,0-.3,0-.8-.3-1.4-.3-1.4,0-1.8,1.3-1.8,2.6s.4,2.6,1.7,2.6,1-.2,1.4-.3c.2,0,.3,0,.4,0l.3.4Z"/>
  <path class="st3" d="M36,20.4c-.2,0-.3,0-.3-.3v-3.3c0-2.2-.5-2.6-1.3-2.6s-1.6.6-1.6,2.2v3.7c0,.2,0,.3-.3.3h-1.1c-.2,0-.3,0-.3-.3v-9.7c0-.2,0-.3.3-.3h1.1c.2,0,.3,0,.3.3v3.6h0c.3-.5.8-1,1.8-1,1.5,0,2.7.9,2.7,3.8v3.3c0,.2,0,.3-.3.3h-1.1Z"/>
  <path class="st3" d="M43.8,20.4c-.2,0-.2,0-.3-.3v-.6h-.2c-.3.6-1.1,1-1.8,1-1.5,0-2.8-1-2.8-2.7v-4.4c0-.2,0-.3.3-.3h1.1c.2,0,.3,0,.3.3v3.9c0,1.1.3,2,1.3,2s1.4-.7,1.4-2.2v-3.8c0-.2,0-.3.3-.3h1.1c.2,0,.3,0,.3.3v6.6c0,.2,0,.3-.3.3h-.7Z"/>
  <path class="st3" d="M46.4,20.4c-.2,0-.3,0-.3-.3v-6.6c0-.2,0-.3.3-.3h.7c.2,0,.2,0,.3.3v.5h.2c.6-.9,1.3-.9,1.9-.9.2,0,.2,0,.2.2v1c0,.4-.3.2-.6.2-.9,0-1.3.5-1.3,1.3v4.2c0,.2,0,.3-.3.3h-1.1Z"/>
  <path class="st3" d="M55.7,19.5c0,.1,0,.2,0,.4-.2.3-1,.7-2.2.7-2.5,0-3.2-1.8-3.2-3.8s.7-3.8,3.3-3.8,1.8.4,2.1.7c0,0,.1.2,0,.4l-.3.4c0,0-.2,0-.4,0-.3,0-.8-.3-1.4-.3-1.4,0-1.8,1.3-1.8,2.6s.4,2.6,1.7,2.6,1-.2,1.4-.3c.2,0,.3,0,.4,0l.3.4Z"/>
  <path class="st3" d="M61.8,20.4c-.2,0-.3,0-.3-.3v-3.3c0-2.2-.5-2.6-1.3-2.6s-1.6.6-1.6,2.2v3.7c0,.2,0,.3-.3.3h-1.1c-.2,0-.3,0-.3-.3v-9.7c0-.2,0-.3.3-.3h1.1c.2,0,.3,0,.3.3v3.6h0c.3-.5.8-1,1.8-1,1.5,0,2.7.9,2.7,3.8v3.3c0,.2,0,.3-.3.3h-1.1Z"/>
  <path class="st3" d="M70.2,20.4c-.2,0-.2,0-.3-.3v-.6h-.2c-.6.7-1.4,1-2.4,1-1.6,0-2.9-.9-2.9-3.7s1.4-3.8,3-3.8,1.8.5,2.1,1h0v-3.6c0-.2,0-.3.3-.3h1.1c.2,0,.3,0,.3.3v9.7c0,.2,0,.3-.3.3h-.7ZM69.5,16.9c0-1.9-.7-2.6-1.9-2.6s-1.5.5-1.5,2.6.6,2.6,1.6,2.6,1.9-.7,1.9-2.6Z"/>
  <path class="st3" d="M78.1,19.5c0,.1,0,.2,0,.4-.3.3-1.3.7-2.4.7-2.5,0-3.2-1.8-3.2-3.7s.8-3.8,3.1-3.8,2.9,1,2.9,3-.4,1.4-1.5,1.4h-2.8c.1,1.2.5,2,1.7,2s1.1-.2,1.6-.3c.3,0,.3,0,.4,0l.3.4ZM76.2,16.2c.4,0,.5,0,.5-.5,0-.8-.5-1.6-1.2-1.6s-1.4.9-1.4,2h2.1Z"/>
  <path class="st3" d="M81.1,17.3c-1-.3-1.5-1.1-1.5-2s.9-2.2,2.6-2.2,2.1.4,2.4.7c0,0,.1.2,0,.4l-.3.4c0,.1-.2,0-.4,0-.5-.2-1-.3-1.6-.3s-1.2.4-1.2.9.2.6.5.7l1.6.5c1.2.3,1.6,1,1.6,2.1s-1.4,2.2-2.9,2.2-2.2-.3-2.5-.7c0-.1,0-.2,0-.4l.3-.4c0,0,.2,0,.4,0,.5.2,1.1.3,1.8.3,1.1,0,1.4-.5,1.4-.9s-.3-.6-1.1-.9l-1.2-.4Z"/>
  <path class="st3" d="M90.5,20.4c-.2,0-.3,0-.4-.2l-2.3-2.9v2.9c0,.2,0,.3-.3.3h-1.1c-.2,0-.3,0-.3-.3v-9.7c0-.2,0-.3.3-.3h1.1c.2,0,.3,0,.3.3v5.9l2.3-2.9c.1-.2.2-.2.4-.2h1.1c.2,0,.2,0,.1.2l-2.7,3.2,2.9,3.5c.1.1,0,.2-.1.2h-1.4Z"/>
</svg>