<?xml version="1.0" encoding="UTF-8"?>
<svg id="Ebene_1" xmlns="http://www.w3.org/2000/svg" version="1.1" viewBox="0 0 374 241">
  <!-- Generator: Adobe Illustrator 29.7.0, SVG Export Plug-In . SVG Version: 2.1.1 Build 138)  -->
  <defs>
    <style>
      .st0, .st1, .st2, .st3, .st4, .st5, .st6 {
        fill: none;
        stroke-miterlimit: 10;
        stroke-width: 3.5px;
      }

      .st0, .st4 {
        stroke: #4f2375;
      }

      .st1 {
        stroke: #bd8a48;
      }

      .st1, .st2, .st3, .st4, .st5 {
        stroke-linecap: round;
      }

      .st2, .st6 {
        stroke: #68a341;
      }

      .st3 {
        stroke: #199ecc;
      }

      .st5 {
        stroke: #7b2d7f;
      }
    </style>
  </defs>
  <path class="st1" d="M92.36,22.77c-12.11,53.13,21.94,130.4-8.94,211.85"/>
  <path class="st3" d="M102.55,10.06c-22.21,44.68,19.4,128.3-7.43,225.96"/>
  <path class="st5" d="M112.51,5.98c-29.09,41.49,16.6,122.71-5.16,230.04"/>
  <path class="st0" d="M116.85,11.72c-24.77,36.26,20.94,112.15,2.36,224.3"/>
  <path class="st6" d="M121.33,20.4c-19.88,43.91,25.05,100.1,9.91,214.79"/>
  <path class="st1" d="M276.34,28.83c-78.38,62.04-111.57,65.36-186.24,69.19-19.02.98-44.82,15.06-78.59,6.55"/>
  <path class="st3" d="M304.43,38.02c-91.26,54.59-134.08,64.78-201.94,65.14-19.04.1-62.83,19.88-97.12,5.76"/>
  <path class="st5" d="M334.98,46.28c-76.34,47.74-162.7,67.37-230.48,64.09-21.07-1.02-61.63,19.8-95.46,4.6"/>
  <path class="st4" d="M355.15,63.13c-91.15,44.16-162.75,57.72-242.3,53.62-24.77-1.28-71.49,17.11-96.75,7.91"/>
  <path class="st2" d="M367.66,83.41c-95.49,41.51-182.03,48.91-257.12,40.47-26.96-3.03-63.93,17.77-89.18,8.58"/>
</svg>