<?xml version="1.0" encoding="UTF-8"?>
<svg id="Ebene_1" data-name="Ebene 1" xmlns="http://www.w3.org/2000/svg" viewBox="0 0 414.24 153.84">
  <defs>
    <style>
      .cls-1 {
        fill: #94c11f;
      }

      .cls-2 {
        fill: #3231e4;
      }
    </style>
  </defs>
  <g>
    <path class="cls-1" d="M174.12,49.27h.09c.58-.92,1.22-1.94,1.84-2.84l5.27-7.55h9.28l-9.2,10,10.67,14.91h-9.5l-6.37-10.24-2.08,2.58v7.66h-7.55V27.35h7.55v21.92Z"/>
    <path class="cls-1" d="M202.8,31.86c0,2.16-1.5,3.95-4.08,3.95s-3.98-1.79-3.98-3.95,1.52-3.95,4.03-3.95,3.98,1.74,4.02,3.95ZM194.98,63.79v-24.91h7.55v24.91h-7.55Z"/>
    <path class="cls-1" d="M208.76,47.33c0-4.05-.05-6.37-.19-8.45h6.46l.24,4.93h.18c1.25-3.97,4.38-5.54,6.81-5.54.68,0,1.02.01,1.61.15v7.51c-.61-.14-1.25-.26-2.15-.26-3.1,0-4.92,1.69-5.34,4.06-.07.47-.09.98-.09,1.47v12.59h-7.55v-16.46Z"/>
    <path class="cls-1" d="M246.5,63.1c-1.52.75-4.23,1.3-7.29,1.3-8.03,0-13.11-5.11-13.11-12.83,0-7.14,4.78-13.3,14.12-13.3,2.05,0,4.4.38,6.2,1.09l-1.23,5.93c-.99-.49-2.42-.91-4.61-.91-4.08,0-6.76,2.86-6.72,6.84,0,4.6,3.22,6.9,6.9,6.9,2,0,3.51-.38,4.76-.91l.96,5.88Z"/>
    <path class="cls-1" d="M250.94,27.35h7.55v14.66h.09c.82-1.17,1.83-2.04,3.09-2.73,1.13-.65,2.56-1.02,3.96-1.02,4.72,0,8.85,3.27,8.85,11.17v14.34h-7.55v-13.2c0-3.57-1.26-5.84-4.2-5.84-2.22,0-3.49,1.54-4.02,2.86-.21.48-.23,1.07-.23,1.63v14.54h-7.55V27.35Z"/>
    <path class="cls-1" d="M280.67,27.35h7.55v36.44h-7.55V27.35Z"/>
    <path class="cls-1" d="M302.27,31.86c0,2.16-1.5,3.95-4.08,3.95s-3.97-1.79-3.97-3.95,1.52-3.95,4.03-3.95,3.98,1.74,4.02,3.95ZM294.45,63.79v-24.91h7.55v24.91h-7.55Z"/>
    <path class="cls-1" d="M327.12,63.1c-1.52.75-4.23,1.3-7.29,1.3-8.03,0-13.11-5.11-13.11-12.83,0-7.14,4.78-13.3,14.12-13.3,2.05,0,4.4.38,6.2,1.09l-1.23,5.93c-.99-.49-2.42-.91-4.61-.91-4.08,0-6.76,2.86-6.72,6.84,0,4.6,3.22,6.9,6.9,6.9,2,0,3.51-.38,4.76-.91l.96,5.88Z"/>
    <path class="cls-1" d="M331.56,27.35h7.55v14.66h.09c.82-1.17,1.83-2.04,3.09-2.73,1.13-.65,2.56-1.02,3.96-1.02,4.72,0,8.85,3.27,8.85,11.17v14.34h-7.55v-13.2c0-3.57-1.26-5.84-4.2-5.84-2.22,0-3.49,1.54-4.02,2.86-.21.48-.23,1.07-.23,1.63v14.54h-7.55V27.35Z"/>
    <path class="cls-1" d="M366.96,53.86c.26,2.99,3.5,4.55,7.07,4.55,2.66,0,4.82-.33,7.03-1.12l1.03,5.4c-2.67,1.17-5.71,1.72-9.08,1.72-8.36,0-13.22-5.06-13.22-12.82,0-5.65,3.54-13.31,12.48-13.31,8.35,0,11.17,6.96,11.17,12.66,0,1.2-.15,2.4-.28,2.93h-16.2ZM376.4,48.35c0-1.42-.76-4.83-4.52-4.83-3.39,0-4.76,2.92-5.01,4.83h9.52Z"/>
  </g>
  <g>
    <path class="cls-2" d="M162.06,102.67c1.6-.13,2.79-.54,3.5-1.31.83-.91,1.17-2.45,1.17-6.48v-14.33h5.68v15.89c0,4.05-.83,6.71-2.49,8.45-1.72,1.74-4.39,2.51-7.29,2.51l-.57-4.73ZM172.59,75.27c0,1.62-1.12,2.98-3.07,2.98s-2.99-1.36-2.99-2.98,1.15-2.97,3.04-2.97,2.99,1.32,3.02,2.97Z"/>
    <path class="cls-2" d="M194.65,93.19c0,2.58.06,4.61.14,6.1h-4.92l-.25-2.87h-.13c-.64,1.12-2.33,3.33-5.9,3.33s-6.61-2.3-6.61-8.3v-10.9h5.68v9.82c0,2.84.94,4.5,3.06,4.5,1.7,0,2.69-1.25,3.09-2.31.13-.33.17-.71.17-1.12v-10.9h5.68v12.64Z"/>
    <path class="cls-2" d="M217.25,80.55c-.08,1.04-.14,2.49-.14,5.47v10.34c0,3.45-.67,6.65-2.83,8.67-2.12,1.93-4.96,2.38-7.53,2.38s-5.24-.57-6.9-1.62l1.15-4.6c1.16.75,3.35,1.61,5.62,1.61,2.64,0,4.94-1.41,4.94-5.06v-1.23h-.07c-1.17,1.65-2.99,2.61-5.23,2.61-4.43,0-8.02-3.48-8.02-9.14,0-5.98,3.95-9.88,8.58-9.88,2.74,0,4.34,1.23,5.3,2.81h.07l.16-2.35h4.92ZM211.43,88.45c0-.33-.01-.68-.08-.98-.43-1.79-1.64-2.92-3.39-2.92-2.07,0-3.95,1.77-3.95,5.28,0,2.56,1.41,4.88,3.96,4.88,1.67,0,2.96-1.21,3.32-2.68.1-.45.13-1.09.13-1.57v-2.01Z"/>
    <path class="cls-2" d="M226.05,91.82c.2,2.25,2.64,3.42,5.32,3.42,2,0,3.62-.25,5.29-.85l.77,4.06c-2.01.88-4.3,1.29-6.83,1.29-6.29,0-9.94-3.81-9.94-9.64,0-4.25,2.66-10.02,9.39-10.02,6.28,0,8.4,5.23,8.4,9.53,0,.91-.11,1.81-.21,2.21h-12.19ZM233.15,87.67c0-1.07-.57-3.63-3.4-3.63-2.55,0-3.58,2.2-3.76,3.63h7.16Z"/>
    <path class="cls-2" d="M241.88,86.65c0-2.43-.06-4.46-.14-6.1h4.92l.25,2.74h.13c.64-1.11,2.5-3.2,5.77-3.2,3.64,0,6.77,2.46,6.77,8.41v10.78h-5.68v-9.94c0-2.69-.96-4.39-3.1-4.39-1.73,0-2.69,1.3-3.08,2.37-.14.36-.17.89-.17,1.34v10.61h-5.68v-12.64Z"/>
    <path class="cls-2" d="M282.54,71.88v21.79c0,2.25.06,4.52.14,5.62h-5.08l-.22-2.95h-.07c-1.25,2.36-3.6,3.41-6.07,3.41-4.25,0-8.11-3.59-8.11-9.62-.04-6.21,3.98-10.04,8.53-10.04,2.35,0,4.24.82,5.13,2.19h.07v-10.41h5.68ZM276.86,88.75c0-.32-.02-.72-.07-1.04-.36-1.7-1.75-3.07-3.63-3.07-2.77,0-4.24,2.3-4.24,5.23s1.63,5.06,4.21,5.06c1.85,0,3.32-1.42,3.64-3.18.09-.44.1-.9.1-1.37v-1.62Z"/>
  </g>
  <g>
    <path class="cls-1" d="M298.23,99.29l-.34-1.87h-.13c-1.2,1.51-3.12,2.33-5.35,2.33-3.85,0-5.98-2.86-5.98-5.75,0-4.87,4.08-7.29,10.99-7.26v-.18c0-.84-.4-2.37-3.44-2.37-1.91,0-4.02.73-5.22,1.5l-1.05-3.85c1.3-.8,3.79-1.76,7.23-1.76,5.97,0,8.13,3.59,8.13,8.19v6.39c0,1.88.1,3.64.29,4.62h-5.11ZM297.58,90.52c-3.29-.03-5.51.76-5.51,2.87,0,1.4.9,2.15,2.31,2.15,1.51,0,2.73-1.11,3.1-2.33.09-.32.1-.71.1-1.04v-1.64Z"/>
    <path class="cls-1" d="M307.7,86.91c0-3.05-.04-4.79-.14-6.36h4.86l.18,3.71h.13c.94-2.99,3.3-4.17,5.12-4.17.51,0,.77,0,1.21.11v5.65c-.46-.11-.94-.2-1.62-.2-2.33,0-3.7,1.27-4.01,3.06-.05.36-.07.73-.07,1.11v9.47h-5.68v-12.38Z"/>
    <path class="cls-1" d="M321.99,99.29c.08-1.1.14-3.37.14-5.62v-21.79h5.68v11.01h.07c1.1-1.7,3.14-2.8,5.8-2.8,4.46,0,8,3.58,7.95,9.56,0,6.81-4.5,10.1-8.74,10.1-2.23,0-4.51-.87-5.81-3.2h-.07l-.22,2.74h-4.8ZM327.8,90.92c0,.34.02.66.07.96.35,1.63,1.79,3.13,3.72,3.13,2.55,0,4.24-1.87,4.24-5.17,0-2.81-1.38-5.18-4.23-5.18-1.75,0-3.34,1.3-3.72,3.26-.06.34-.09.66-.09,1.05v1.94Z"/>
    <path class="cls-1" d="M349.62,91.82c.2,2.25,2.64,3.42,5.32,3.42,2,0,3.62-.25,5.29-.85l.77,4.06c-2.01.88-4.3,1.29-6.83,1.29-6.29,0-9.94-3.8-9.94-9.64,0-4.25,2.66-10.02,9.39-10.02,6.28,0,8.4,5.23,8.4,9.53,0,.91-.11,1.81-.21,2.21h-12.19ZM356.72,87.67c0-1.07-.57-3.63-3.4-3.63-2.55,0-3.58,2.2-3.76,3.63h7.16Z"/>
    <path class="cls-1" d="M371.32,75.27c0,1.63-1.13,2.98-3.07,2.98s-2.99-1.35-2.99-2.98,1.15-2.97,3.03-2.97,3,1.31,3.03,2.97ZM365.44,99.29v-18.74h5.68v18.74h-5.68Z"/>
    <path class="cls-1" d="M382.03,75.11v5.44h4.07v4.54h-4.07v6.2c0,2.29.42,3.5,2.26,3.5.78,0,1.38-.09,1.74-.19l.04,4.6c-.72.3-2.11.56-3.73.56-1.89,0-3.44-.76-4.32-1.77-1.02-1.15-1.5-3.05-1.5-5.62v-7.27h-2.4v-4.54h2.4v-4.09l5.51-1.36Z"/>
  </g>
  <g>
    <path class="cls-1" d="M165.15,117.82c0-.99-.02-1.77-.06-2.53h1.18l.05,1.61h.05c.37-1.13,1.22-1.8,2.16-1.8.15,0,.27.01.4.05v1.34c-.16-.04-.3-.05-.51-.05-.98,0-1.66.75-1.86,1.85-.04.19-.06.42-.06.64v4.05h-1.35v-5.15Z"/>
    <path class="cls-1" d="M170.95,119.43c.03,1.73,1.23,2.6,2.7,2.6,1.08,0,1.7-.2,2.25-.43l.24,1.03c-.47.22-1.33.53-2.65.53-2.36,0-3.82-1.59-3.82-3.88s1.37-4.18,3.68-4.18c2.62,0,3.24,2.38,3.24,3.69,0,.29-.02.5-.05.64h-5.58ZM175.27,118.39c.01-.66-.27-2.27-2.04-2.27-1.52,0-2.15,1.33-2.27,2.27h4.31Z"/>
    <path class="cls-1" d="M185.1,115.29c-.04.55-.06,1.15-.06,2v4.52c0,1.7-.37,2.86-1.13,3.57-.79.75-1.9.96-2.84.96s-2.01-.24-2.66-.72l.35-1.11c.54.38,1.36.71,2.36.71,1.47,0,2.58-.79,2.58-2.81v-.88h-.03c-.44.76-1.31,1.42-2.57,1.42-1.95,0-3.36-1.66-3.36-3.75,0-2.53,1.7-4.1,3.55-4.1,1.4,0,2.18.73,2.53,1.44h.03l.05-1.25h1.19ZM183.69,118.44c0-.24-.02-.45-.08-.65-.28-.91-1.03-1.59-2.09-1.59-1.38,0-2.42,1.1-2.42,2.92,0,1.35.77,2.74,2.4,2.74.96,0,1.78-.67,2.07-1.55.07-.22.11-.51.11-.76v-1.1Z"/>
    <path class="cls-1" d="M188.81,113.06c0,.47-.33.89-.87.89-.5,0-.83-.42-.83-.89s.35-.89.85-.89.84.4.85.89ZM187.29,122.97v-7.68h1.35v7.68h-1.35Z"/>
    <path class="cls-1" d="M198.15,119.04c0,2.8-2.02,4.13-3.95,4.13-2.16,0-3.81-1.61-3.81-3.96,0-2.49,1.71-4.11,3.93-4.11s3.82,1.71,3.82,3.94ZM191.78,119.15c0,1.82,1.13,2.94,2.48,2.94s2.51-1.07,2.51-2.99c0-1.34-.75-2.93-2.47-2.93s-2.52,1.43-2.52,2.98Z"/>
    <path class="cls-1" d="M199.91,117.4c0-.77-.02-1.46-.06-2.11h1.2l.08,1.38h.04c.37-.76,1.28-1.57,2.61-1.57.98,0,2.78.58,2.78,3.48v4.39h-1.35v-4.25c0-1.35-.53-2.43-1.87-2.43-.98,0-1.72.73-1.98,1.5-.06.17-.1.42-.1.63v4.56h-1.35v-5.58Z"/>
    <path class="cls-1" d="M209.56,119.43c.03,1.73,1.23,2.6,2.7,2.6,1.08,0,1.7-.2,2.25-.43l.24,1.03c-.47.22-1.33.53-2.65.53-2.36,0-3.82-1.59-3.82-3.88s1.37-4.18,3.68-4.18c2.62,0,3.24,2.38,3.24,3.69,0,.29-.02.5-.05.64h-5.58ZM213.88,118.39c0-.66-.27-2.27-2.04-2.27-1.52,0-2.15,1.33-2.27,2.27h4.31Z"/>
    <path class="cls-1" d="M216.94,117.4c0-.77-.02-1.46-.06-2.11h1.2l.08,1.38h.04c.37-.76,1.28-1.57,2.61-1.57.98,0,2.78.58,2.78,3.48v4.39h-1.35v-4.25c0-1.35-.53-2.43-1.87-2.43-.98,0-1.71.73-1.98,1.5-.06.17-.1.42-.1.63v4.56h-1.35v-5.58Z"/>
  </g>
  <g>
    <path class="cls-2" d="M230.49,118.78h.03c.19-.26.47-.62.7-.88l2.34-2.63h1.67l-3.05,3.14,3.51,4.55h-1.69l-2.76-3.72-.75.83v2.89h-1.35v-11.38h1.35v7.21Z"/>
    <path class="cls-2" d="M237.44,119.42c.03,1.73,1.23,2.61,2.7,2.61,1.08,0,1.7-.2,2.25-.43l.24,1.03c-.47.22-1.33.53-2.65.53-2.36,0-3.82-1.6-3.82-3.89s1.37-4.18,3.68-4.18c2.62,0,3.24,2.38,3.24,3.69,0,.29-.02.5-.05.64h-5.58ZM241.77,118.38c0-.66-.27-2.28-2.04-2.28-1.52,0-2.15,1.33-2.27,2.28h4.31Z"/>
    <path class="cls-2" d="M244.83,117.38c0-.77-.02-1.46-.06-2.11h1.17l.07,1.33h.04c.43-.77,1.14-1.53,2.47-1.53,1.07,0,1.87.73,2.19,1.66h.03c.24-.46.54-.8.84-1.04.48-.4.99-.62,1.77-.62.95,0,2.57.63,2.57,3.54v4.34h-1.32v-4.19c0-1.65-.63-2.5-1.74-2.5-.83,0-1.46.63-1.71,1.29-.07.2-.13.46-.13.7v4.7h-1.32v-4.47c0-1.35-.63-2.22-1.65-2.22-.92,0-1.56.78-1.81,1.44-.07.21-.12.46-.12.7v4.55h-1.32v-5.58Z"/>
    <path class="cls-2" d="M258.22,117.81c0-.91-.02-1.75-.06-2.54h1.21l.08,1.42h.03c.56-.98,1.52-1.61,2.88-1.61,1.89,0,3.36,1.62,3.36,3.89,0,2.74-1.74,4.18-3.6,4.18-1.05,0-2.02-.44-2.52-1.32h-.03v4.31h-1.35v-8.33ZM259.57,119.73c0,.19.02.37.06.55.24.94,1.12,1.76,2.25,1.76,1.52,0,2.48-1.16,2.48-2.99,0-1.51-.88-2.83-2.41-2.83-1.01,0-1.97.67-2.27,1.84-.05.18-.1.38-.1.56v1.12Z"/>
    <path class="cls-2" d="M268.21,119.42c.03,1.73,1.23,2.61,2.7,2.61,1.08,0,1.7-.2,2.25-.43l.24,1.03c-.47.22-1.33.53-2.65.53-2.36,0-3.82-1.6-3.82-3.89s1.37-4.18,3.68-4.18c2.62,0,3.24,2.38,3.24,3.69,0,.29-.02.5-.05.64h-5.58ZM272.53,118.38c0-.66-.27-2.28-2.04-2.28-1.52,0-2.15,1.33-2.27,2.28h4.31Z"/>
    <path class="cls-2" d="M275.59,117.38c0-.77-.02-1.46-.06-2.11h1.2l.08,1.38h.04c.37-.76,1.28-1.57,2.61-1.57.98,0,2.78.59,2.78,3.49v4.39h-1.35v-4.26c0-1.35-.53-2.44-1.87-2.44-.98,0-1.71.73-1.98,1.5-.06.17-.1.42-.1.64v4.56h-1.35v-5.58Z"/>
    <path class="cls-2" d="M287.59,118.09v1.05h-3.79v-1.05h3.79Z"/>
    <path class="cls-2" d="M289.58,115.27l1.57,4.31c.29.78.49,1.39.67,2.02h.04c.19-.64.42-1.27.7-2.02l1.57-4.31h1.44l-3.13,7.69h-1.32l-3.01-7.69h1.46Z"/>
    <path class="cls-2" d="M298.41,113.04c0,.47-.33.89-.87.89-.5,0-.83-.42-.83-.89s.35-.89.86-.89.84.4.84.89ZM296.88,122.96v-7.69h1.35v7.69h-1.35Z"/>
    <path class="cls-2" d="M301.28,119.42c.03,1.73,1.23,2.61,2.7,2.61,1.08,0,1.7-.2,2.25-.43l.24,1.03c-.47.22-1.33.53-2.65.53-2.36,0-3.82-1.6-3.82-3.89s1.37-4.18,3.68-4.18c2.62,0,3.24,2.38,3.24,3.69,0,.29-.02.5-.05.64h-5.58ZM305.61,118.38c0-.66-.27-2.28-2.04-2.28-1.52,0-2.15,1.33-2.27,2.28h4.31Z"/>
    <path class="cls-2" d="M308.67,117.8c0-.99-.01-1.77-.06-2.53h1.18l.05,1.61h.05c.37-1.13,1.22-1.8,2.16-1.8.15,0,.27.01.4.05v1.34c-.16-.04-.3-.05-.51-.05-.98,0-1.67.75-1.86,1.85-.04.19-.06.42-.06.64v4.06h-1.35v-5.16Z"/>
    <path class="cls-2" d="M313.72,121.49c.44.29,1.2.6,1.91.6,1.05,0,1.5-.53,1.5-1.15,0-.7-.44-1.04-1.47-1.38-1.41-.46-2.06-1.24-2.05-2.18,0-1.23.96-2.3,2.64-2.3.78,0,1.48.22,1.91.5l-.33,1.05c-.28-.18-.88-.49-1.64-.49-.82,0-1.27.47-1.27,1.08,0,.68.5.96,1.51,1.31,1.37.47,2,1.12,2.01,2.3,0,1.3-.99,2.33-2.85,2.33-.87,0-1.64-.23-2.21-.57l.33-1.1Z"/>
    <path class="cls-2" d="M320.99,119.42c.03,1.73,1.23,2.61,2.7,2.61,1.08,0,1.7-.2,2.25-.43l.24,1.03c-.47.22-1.33.53-2.65.53-2.36,0-3.82-1.6-3.82-3.89s1.37-4.18,3.68-4.18c2.62,0,3.24,2.38,3.24,3.69,0,.29-.02.5-.05.64h-5.58ZM325.32,118.38c0-.66-.27-2.28-2.04-2.28-1.52,0-2.15,1.33-2.27,2.28h4.31Z"/>
    <path class="cls-2" d="M328.38,117.38c0-.77-.02-1.46-.06-2.11h1.2l.08,1.38h.04c.37-.76,1.28-1.57,2.61-1.57.98,0,2.78.59,2.78,3.49v4.39h-1.35v-4.26c0-1.35-.53-2.44-1.87-2.44-.98,0-1.71.73-1.98,1.5-.06.17-.1.42-.1.64v4.56h-1.35v-5.58Z"/>
    <path class="cls-2" d="M336.09,123.6l4.43-11.54h1.07l-4.46,11.54h-1.03Z"/>
    <path class="cls-2" d="M344.05,118.78h.03c.19-.26.47-.62.7-.88l2.34-2.63h1.67l-3.05,3.14,3.51,4.55h-1.69l-2.76-3.72-.75.83v2.89h-1.35v-11.38h1.35v7.21Z"/>
    <path class="cls-2" d="M350.55,117.8c0-.99-.01-1.77-.06-2.53h1.18l.05,1.61h.05c.37-1.13,1.22-1.8,2.16-1.8.15,0,.27.01.4.05v1.34c-.16-.04-.3-.05-.51-.05-.98,0-1.67.75-1.86,1.85-.04.19-.06.42-.06.64v4.06h-1.35v-5.16Z"/>
    <path class="cls-2" d="M356.36,119.42c.03,1.73,1.23,2.61,2.7,2.61,1.08,0,1.7-.2,2.25-.43l.24,1.03c-.47.22-1.33.53-2.65.53-2.36,0-3.82-1.6-3.82-3.89s1.37-4.18,3.68-4.18c2.62,0,3.24,2.38,3.24,3.69,0,.29-.02.5-.05.64h-5.58ZM360.68,118.38c0-.66-.27-2.28-2.04-2.28-1.52,0-2.15,1.33-2.27,2.28h4.31Z"/>
    <path class="cls-2" d="M363.83,122.96v-6.59h-1.03v-1.1h1.03v-.34c0-1.17.27-2.19.9-2.82.51-.51,1.19-.73,1.84-.73.5,0,.92.11,1.18.24l-.17,1.11c-.22-.1-.49-.19-.91-.19-1.19,0-1.51,1.08-1.51,2.34v.39h1.87v1.1h-1.86v6.59h-1.35Z"/>
    <path class="cls-2" d="M368.85,119.42c.03,1.73,1.23,2.61,2.7,2.61,1.08,0,1.7-.2,2.25-.43l.24,1.03c-.47.22-1.33.53-2.65.53-2.36,0-3.82-1.6-3.82-3.89s1.37-4.18,3.68-4.18c2.62,0,3.24,2.38,3.24,3.69,0,.29-.02.5-.05.64h-5.58ZM373.18,118.38c0-.66-.27-2.28-2.04-2.28-1.52,0-2.15,1.33-2.27,2.28h4.31Z"/>
    <path class="cls-2" d="M376.23,111.58h1.35v11.38h-1.35v-11.38Z"/>
    <path class="cls-2" d="M386.72,111.58v9.35c0,.74.02,1.47.06,2.03h-1.22l-.06-1.45h-.03c-.45.96-1.43,1.64-2.74,1.64-1.91,0-3.4-1.63-3.4-3.89-.01-2.52,1.61-4.18,3.56-4.18,1.29,0,2.11.65,2.44,1.25h.03v-4.76h1.35ZM385.38,118.47c0-.19-.02-.44-.07-.63-.25-.91-1.04-1.65-2.16-1.65-1.48,0-2.45,1.22-2.45,2.96,0,1.54.83,2.84,2.43,2.84,1.04,0,1.93-.78,2.17-1.8.05-.2.07-.4.07-.63v-1.09Z"/>
  </g>
  <path class="cls-2" d="M116.44,57.52c-4.54,8.53-11.61,11.53-20.57,13.99-1.18,14.53-2.49,30.41-8.47,43.85-3.92,8.8-12.71,20.44-22,9.44-3.02-3.57-2.64-5.94-.72-10.08,3.19,2.91,8.66,7.95,12.08,2.47,4.32-6.93,3.18-29.1,2.91-37.63-.05-1.45.3-5.15-.03-6.21-.2-.65-.94-.16-1.51-.14-8.46.2-18.47-6.16-24.37-11.89-.68-.66-2.83-2.83-3.23-3.49-.76-1.25-.59-3.15-.61-4.55l13.04,7.48c5.05,2.51,10.53,4.61,16.13,2.38.61-.87-1.07-5.36.47-6.97,2.01-2.1,12.54-4.19,14.46-2.1.25.27.59,2.01.71,2.53.36,1.62.38,4.33.83,5.65.05.16.12.31.31.34,3.38-.52,6.83-.8,10.1-1.85,4.21-1.36,7.96-4.28,11.75-6.49.51-.16-1.14,3.02-1.28,3.28ZM84.36,50.39c11.52.9,9.97-20.54-2.59-18.42-8.4,1.42-7.07,17.67,2.59,18.42Z"/>
  <g>
    <path class="cls-1" d="M103.91,63.27c.08-.05.17-.1.25-.16-.09.02-.19.04-.28.06l.03.1Z"/>
    <path class="cls-1" d="M112.78,59.84c.16-.21.32-.42.47-.63-.48.29-.96.58-1.44.86.32-.08.65-.15.97-.22Z"/>
    <path class="cls-1" d="M142.03,87.16v-17.02c0-12.25-5.75-21.81-21.66-21.81-9.15,0-15.79,2.57-19.25,4.69l1.79,6.57c.84-.18,1.67-.38,2.49-.64,2.78-.9,5.47-2.61,8.07-4.27,1.08-.69,2.2-1.4,3.32-2.05.12-.07.24-.12.37-.17.72-.23,1.57.02,2.05.59.83.99.6,2.04-1.15,5.32-.17.31-.34.6-.52.9.09,0,.18,0,.27,0,8.1-.02,9.16,4.08,9.16,6.3v.48c-18.4-.06-29.25,6.37-29.25,19.34,0,7.68,5.67,15.31,15.93,15.31,5.95,0,11.07-2.18,14.26-6.2h.34l.91,4.97h13.62c-.49-2.61-.76-7.29-.76-12.31ZM127.43,80.47c0,.9-.04,1.92-.27,2.77-.98,3.26-4.23,6.21-8.26,6.21-3.74,0-6.14-2-6.14-5.72,0-5.61,5.92-7.73,14.67-7.64v4.37Z"/>
  </g>
  <g>
    <path class="cls-1" d="M78.05,99.53l-21.22-29.67,1.91-2.07c-2.32-1.62-4.45-3.38-6.28-5.15-.02-.02-1.67-1.62-2.74-2.86l-3.62,5.18c-1.24,1.79-2.52,3.84-3.68,5.69h-.19V26.74h-15.12v73.01h15.12v-15.35l4.17-5.16,12.77,20.51h18.87c0-.07,0-.14,0-.22Z"/>
    <path class="cls-1" d="M63.83,59.12c.69.34,1.36.66,2.02.95l9.42-10.23h-18.6l-2.58,3.69,9.74,5.59Z"/>
  </g>
</svg>