<?xml version="1.0" encoding="UTF-8"?>
<svg id="Ebene_2" data-name="Ebene 2" xmlns="http://www.w3.org/2000/svg" xmlns:xlink="http://www.w3.org/1999/xlink" viewBox="0 0 625.61 171.28">
  <defs>
    <style>
      .cls-1 {
        fill: none;
      }

      .cls-2 {
        clip-path: url(#clippath-1);
      }

      .cls-3 {
        fill: #fff;
      }

      .cls-4 {
        clip-path: url(#clippath);
      }
    </style>
    <clipPath id="clippath">
      <rect class="cls-1" width="625.61" height="171.28"/>
    </clipPath>
    <clipPath id="clippath-1">
      <rect class="cls-1" width="625.61" height="171.28"/>
    </clipPath>
  </defs>
  <g id="dastäglichebrot_outline" data-name="dastäglichebrot outline">
    <g class="cls-4">
      <g class="cls-2">
        <g>
          <path class="cls-3" d="M49.08,39.79v-20.12c0-3.5,1.72-5.25,5.16-5.25,2.35,0,4.69.03,7.04,0,1.69-.02,2.47.78,2.41,2.45-.02.59,0,1.17,0,1.76v98.02c0,2.69-1.34,4.03-4.01,4.03-2.43,0-4.87-.14-7.29.04-2.51.19-3.64-.69-3.34-3.25.05-.39.08-.84-.35-1.15-.77.08-.96.83-1.38,1.3-5.08,5.65-13.67,5.05-17.89-1.3-2.49-3.75-3.52-7.98-3.54-12.4-.07-16.25-.06-32.51,0-48.76.02-4.24,1.17-8.22,2.95-12.1,3.62-7.89,13.47-9.37,18.48-4.43.34.33.81.54,1.76,1.15h0ZM49.08,78.41c0-8.37,0-16.74,0-25.11,0-2.49-1.47-4.22-3.73-4.54-2.38-.34-3.93.83-4.73,3.46-.55,1.8-.49,3.64-.49,5.48-.02,14.73,0,29.46,0,44.19,0,.92-.03,1.86.13,2.75.46,2.64,2.41,4.67,4.29,4.58,2.28-.11,4.37-2.51,4.52-5.21.04-.75.02-1.51.03-2.26v-23.35h-.02Z"/>
          <path d="M38.84,121.88c-.28,0-.55,0-.83-.03-3.58-.26-6.82-2.2-8.9-5.32-2.37-3.57-3.58-7.81-3.6-12.61-.06-15.16-.06-31.11,0-48.76.02-3.91,1-7.92,2.98-12.25,1.78-3.88,5.17-6.54,9.29-7.3,3.7-.67,7.36.35,9.8,2.76.18.18.44.33.83.57.09.05.19.11.29.18v-19.43c0-3.73,1.86-5.62,5.54-5.62.78,0,1.57,0,2.35,0,1.56,0,3.12.01,4.69,0,.93.02,1.67.23,2.14.71.47.48.68,1.19.65,2.13-.01.39,0,.77,0,1.15v.59s0,98.02,0,98.02c0,2.88-1.52,4.4-4.38,4.4-.74,0-1.48-.01-2.23-.03-1.66-.03-3.37-.06-5.04.07-1.47.11-2.48-.14-3.1-.78-.59-.61-.8-1.56-.64-2.89.04-.33.04-.54-.09-.7-.25.08-.41.3-.63.64-.11.18-.23.35-.36.5-2.31,2.57-5.47,4-8.76,4ZM40.02,36.16c-.69,0-1.39.06-2.1.19-3.88.71-7.06,3.21-8.74,6.87-1.94,4.24-2.9,8.14-2.92,11.95-.06,17.65-.06,33.59,0,48.76.02,4.65,1.19,8.75,3.48,12.2,1.94,2.92,4.98,4.74,8.33,4.98,3.35.24,6.62-1.11,8.97-3.73.11-.12.2-.26.29-.41.27-.42.6-.94,1.33-1.02h.14s.12.07.12.07c.64.46.55,1.16.5,1.5-.13,1.09.02,1.83.44,2.28.45.47,1.27.65,2.5.55,1.7-.13,3.43-.1,5.11-.07.74.01,1.48.03,2.21.03,2.48,0,3.63-1.16,3.63-3.65V18.05c0-.4-.01-.79,0-1.19.03-.73-.12-1.25-.44-1.58-.32-.33-.84-.5-1.59-.48-1.57.02-3.13.01-4.7,0-.78,0-1.56,0-2.35,0-3.22,0-4.79,1.59-4.79,4.88v20.12h-.38l-.2.31c-.34-.22-.62-.38-.85-.52-.43-.26-.72-.43-.97-.67-1.8-1.78-4.34-2.75-7.04-2.75ZM44.43,109.6c-2.04,0-4.06-2.16-4.54-4.89-.14-.8-.14-1.63-.14-2.44v-.38c0-14.73-.02-29.46,0-44.19v-.49c0-1.67-.01-3.41.51-5.1.86-2.83,2.59-4.08,5.14-3.72,2.46.35,4.05,2.28,4.05,4.91,0,5.58,0,11.16,0,16.74v7.76s.02,0,.02,0v23.96c0,.25,0,.5,0,.75,0,.51,0,1.02-.03,1.53-.16,2.9-2.39,5.45-4.88,5.57-.05,0-.09,0-.14,0ZM44.59,49.08c-1.76,0-2.95,1.07-3.61,3.25-.48,1.59-.48,3.19-.47,4.88v.49c-.02,14.73,0,29.46,0,44.19v.38c0,.77,0,1.57.12,2.3.42,2.4,2.17,4.36,3.9,4.27,2.08-.1,4.03-2.37,4.17-4.86.03-.49.03-.99.03-1.49,0-.25,0-.51,0-.76l-.02-31.71c0-5.58,0-11.16,0-16.74,0-2.27-1.31-3.87-3.41-4.17-.25-.04-.48-.05-.71-.05Z"/>
        </g>
        <g>
          <path class="cls-3" d="M476.77,41.9c2.64-3.45,5.14-5.82,9.2-6,5.41-.24,8.93,2.34,11.19,6.93,1.68,3.42,2.56,7.12,2.57,10.92.06,16.16.09,32.32,0,48.49-.03,4.84-1.47,9.36-3.99,13.57-3.7,6.17-12.83,7.55-17.33,1.94-.35-.43-.71-.95-1.37-1-.11.12-.29.23-.31.36-.22,2.39-1.55,3.59-3.98,3.59-2.6,0-5.19-.08-7.79.02-1.91.07-2.75-.6-2.68-2.6.11-2.93.02-5.86.02-8.79V18.13c0-2.49,1.26-3.74,3.78-3.75,2.6,0,5.2.08,7.79-.02,2.06-.08,2.81.73,2.79,2.8-.08,7.45-.03,14.91-.02,22.36,0,.57.06,1.14.14,2.39h0ZM485.45,78.78h.02v-23.85c0-1.26-.07-2.51-.54-3.7-.98-2.53-3.26-3.25-5.43-1.61-2,1.51-2.91,3.52-2.9,6.08.05,11.55.02,23.1.02,34.65,0,4.44-.05,8.87.03,13.31.05,3.08,2.34,5.07,5.21,4.73,2.27-.26,3.53-1.95,3.56-5.25.07-8.12.02-16.23.02-24.35h.01Z"/>
          <path d="M485.99,121.66c-3.14,0-5.98-1.32-7.87-3.68l-.09-.11c-.26-.32-.51-.63-.86-.72-.03.03-.07.07-.08.08-.21,2.48-1.72,3.84-4.33,3.84-.8,0-1.6,0-2.41-.02-1.76-.01-3.58-.03-5.37.04-1.15.04-1.9-.17-2.4-.67-.49-.49-.71-1.24-.67-2.32.08-2.01.06-4.06.04-6.04,0-.91-.02-1.82-.02-2.74V18.13c0-2.69,1.44-4.12,4.15-4.12.8,0,1.61,0,2.41.02,1.76.02,3.59.03,5.37-.04,1.13-.05,1.91.17,2.42.67.53.51.77,1.31.76,2.51-.06,5.69-.05,11.49-.03,17.09v5.27c.01.38.04.75.08,1.34v.03c2.57-3.2,5.05-5.19,8.87-5.36,5.31-.24,9.06,2.1,11.54,7.14,1.72,3.5,2.6,7.23,2.61,11.08.05,14.38.1,31.39,0,48.49-.03,4.7-1.39,9.33-4.04,13.76-1.93,3.21-5.49,5.37-9.3,5.63-.26.02-.52.03-.78.03ZM476.89,116.37h.18c.77.07,1.2.61,1.54,1.04l.09.11c1.89,2.36,4.82,3.6,8.01,3.37,3.57-.24,6.9-2.26,8.71-5.27,2.58-4.32,3.91-8.82,3.94-13.38.1-17.1.05-34.1,0-48.49,0-3.74-.86-7.36-2.53-10.76-2.33-4.74-5.85-6.95-10.84-6.72-3.78.17-6.19,2.31-8.82,5.73l.05.81-.94-.85.12-.17-.06-.87c-.04-.6-.07-1-.07-1.39v-5.27c-.03-5.6-.04-11.4.02-17.1,0-.98-.16-1.6-.53-1.96-.36-.35-.96-.5-1.87-.46-1.8.07-3.63.05-5.4.04-.8,0-1.6-.02-2.4-.02-2.32,0-3.41,1.08-3.41,3.38v91.2c0,.91,0,1.82.02,2.73.02,1.99.04,4.05-.04,6.08-.03.85.12,1.43.45,1.76.34.34.93.49,1.84.45,1.8-.07,3.63-.05,5.4-.04.8,0,1.6.02,2.4.02,2.23,0,3.41-1.06,3.61-3.25.04-.25.2-.39.32-.5.03-.03.06-.05.09-.08l.12-.13ZM481.23,108.81c-1.23,0-2.36-.41-3.24-1.18-1.08-.94-1.69-2.35-1.71-3.96-.06-3.21-.05-6.47-.04-9.63,0-1.23,0-2.46,0-3.69v-9.42c.01-8.27.02-16.82-.02-25.22-.01-2.74.99-4.82,3.05-6.38,1.12-.85,2.35-1.14,3.45-.83,1.12.32,2.03,1.25,2.56,2.61.5,1.26.57,2.58.57,3.83l-.03,24.23c0,2.28,0,4.55,0,6.83.01,5.62.02,11.44-.03,17.16-.04,4.28-2.14,5.42-3.89,5.62-.23.03-.45.04-.67.04ZM481.84,49.12c-.69,0-1.42.27-2.12.8-1.86,1.41-2.76,3.3-2.75,5.78.04,8.41.03,16.96.03,25.23v9.42c0,1.23,0,2.46-.01,3.69,0,3.15-.02,6.41.04,9.61.02,1.39.54,2.6,1.46,3.41.88.77,2.06,1.11,3.33.96,2.14-.25,3.2-1.84,3.23-4.88.05-5.72.04-11.53.03-17.15,0-2.4,0-4.8,0-7.2l.03-23.86c0-1.36-.09-2.48-.51-3.56-.44-1.14-1.17-1.91-2.07-2.16-.22-.06-.44-.09-.67-.09Z"/>
        </g>
        <g>
          <path class="cls-3" d="M370.88,67.4V17.88c0-3.32.12-3.43,3.35-3.45,2.68,0,5.36.07,8.04-.02,2.04-.08,2.84.69,2.81,2.78-.08,6.53-.04,13.07,0,19.6,0,.7-.4,1.67.46,2.03.64.27,1.18-.47,1.74-.81,6.31-3.89,14-1.81,17.7,4.72,2.26,3.99,3.09,8.33,3.1,12.8.06,20.61.03,41.22.02,61.83,0,3.08-.18,3.24-3.29,3.26-2.43,0-4.86,0-7.29,0-2.64,0-3.96-1.37-3.97-4.1v-60.83c0-1.86-.09-3.67-1.21-5.29-1.04-1.5-2.43-2-4.15-1.62-1.73.39-2.8,1.49-3.03,3.26-.13.99-.1,2.01-.1,3.01v61.83c0,3.73,0,3.73-3.8,3.73h-6.54c-2.55,0-3.83-1.32-3.84-3.96v-49.26h0Z"/>
          <path d="M402.38,121c-.81,0-1.62,0-2.43,0h-2.43c-2.83,0-4.34-1.55-4.34-4.48v-60.83c0-1.8-.09-3.55-1.14-5.08-.93-1.34-2.16-1.82-3.76-1.47-1.61.36-2.53,1.35-2.74,2.94-.11.81-.1,1.67-.1,2.49v.47s0,61.83,0,61.83c0,3.95-.16,4.11-4.17,4.11h-6.54c-2.75,0-4.21-1.5-4.21-4.33V17.88c0-3.52.28-3.8,3.72-3.83.93,0,1.86,0,2.79.01,1.72.01,3.5.03,5.24-.03,1.15-.04,1.93.17,2.45.68.53.51.76,1.3.75,2.48-.08,6.53-.04,13.17,0,19.59,0,.18-.02.38-.05.58-.09.72-.06.97.28,1.11.24.1.5-.09.9-.41.17-.14.34-.27.5-.37,3.09-1.91,6.64-2.48,10-1.62,3.44.88,6.36,3.18,8.22,6.48,2.11,3.72,3.14,7.97,3.15,12.98.05,17.05.04,34.39.03,51.15v10.68c0,3.27-.35,3.61-3.67,3.63-.81,0-1.62,0-2.43,0ZM389.24,48.29c1.39,0,2.53.64,3.41,1.9,1.18,1.71,1.28,3.58,1.28,5.5v60.83c0,2.54,1.15,3.72,3.59,3.72h2.43c1.62,0,3.24,0,4.86,0q2.92-.02,2.92-2.88v-10.68c.02-16.76.03-34.1-.02-51.15-.01-4.88-1.01-9.01-3.05-12.62-1.76-3.12-4.52-5.29-7.76-6.12-3.16-.81-6.5-.27-9.42,1.53-.14.09-.28.2-.42.32-.44.36-.99.8-1.66.52-.92-.38-.81-1.29-.73-1.89.02-.17.04-.33.04-.48-.04-6.42-.08-13.07,0-19.6.01-.96-.15-1.58-.52-1.94-.36-.35-.97-.5-1.9-.46-1.76.06-3.55.04-5.28.03-.93,0-1.85-.02-2.78-.01q-2.98.02-2.98,3.08v98.77c0,2.45,1.11,3.58,3.46,3.58h6.54q3.42,0,3.42-3.36v-62.29c0-.85,0-1.73.1-2.59.25-1.91,1.4-3.14,3.32-3.58.39-.09.77-.13,1.14-.13Z"/>
        </g>
        <g>
          <path class="cls-3" d="M251.71,109.3c-2.15,1.5-3.53,3.41-5.69,4.47-5.73,2.81-12.56.16-15.2-6.04-1.42-3.33-2.3-6.82-2.29-10.48.01-13.9-.03-27.81.03-41.71.02-4.23,1.12-8.23,2.82-12.13,3.31-7.56,13.05-10.05,18.7-4.21.32.33.77.54,1.47,1.03-.23-3.64,1.91-3.79,4.39-3.66,2.34.12,4.69.1,7.03.01,2.18-.08,2.95.89,2.92,3.02-.08,5.95-.03,11.89-.03,17.84,0,17.59-.01,35.18.02,52.77,0,2.79-.37,5.52-1.03,8.2-1.67,6.76-5.75,11.38-12.63,12.88-6.78,1.48-13.62,1.81-20.18-1.24-3.82-1.78-3.88-2.07-2.07-5.8.66-1.35,1.33-2.71,1.86-4.12.67-1.79,1.6-2.31,3.42-1.33,2.67,1.45,5.51,2.35,8.64,2.25,5.13-.16,7.69-2.62,7.79-7.78.03-1.32,0-2.65,0-3.97h.03ZM251.72,75.27c0-7.03.02-14.06,0-21.09,0-3.2-1.75-5.33-4.32-5.45-2.47-.12-4.25,1.68-4.57,4.98-.22,2.24-.13,4.51-.13,6.76,0,12.3-.02,24.61.06,36.91.02,3.42,1.44,5.03,3.97,5.05,2.47.01,4.72-2.27,4.95-5.06.08-.92.06-1.84.06-2.76v-19.34h-.02Z"/>
          <path d="M243.08,132.76c-4.14,0-7.81-.78-11.2-2.36-2.03-.95-3.02-1.49-3.34-2.38-.33-.92.17-2.04,1.09-3.93l.05-.11c.63-1.29,1.28-2.62,1.79-3.98.4-1.08.9-1.7,1.55-1.95.64-.24,1.43-.1,2.4.42,2.9,1.57,5.67,2.3,8.45,2.21,4.97-.16,7.33-2.51,7.43-7.41.02-.88.01-1.76,0-2.64,0-.19,0-.37,0-.56-.62.49-1.19,1-1.74,1.51-1.07.97-2.07,1.89-3.38,2.54-2.8,1.37-5.94,1.53-8.85.45-3.07-1.14-5.51-3.52-6.86-6.68-1.57-3.68-2.33-7.16-2.32-10.63,0-4.63,0-9.27,0-13.9,0-9.12,0-18.54.03-27.81.02-3.9.95-7.92,2.85-12.28,1.72-3.94,5.22-6.73,9.36-7.48,3.73-.67,7.36.48,9.95,3.16.17.17.4.32.71.52.03.02.06.04.1.06.03-1.1.31-1.91.86-2.46.93-.94,2.46-.95,3.94-.87,2.09.11,4.38.11,7,0,1.15-.04,1.96.2,2.5.72.57.55.82,1.41.81,2.67-.06,4.28-.05,8.64-.04,12.85,0,1.66,0,3.33,0,4.99v10.95c0,13.94,0,27.88.02,41.82,0,2.7-.35,5.49-1.04,8.29-1.79,7.25-6.14,11.68-12.91,13.16-3.34.73-6.39,1.09-9.22,1.09ZM233.7,118.69c-.15,0-.28.02-.4.07-.44.17-.79.64-1.11,1.51-.52,1.39-1.18,2.74-1.82,4.04l-.05.11c-.88,1.82-1.27,2.74-1.06,3.35.21.59,1.04,1.06,2.95,1.95,5.56,2.58,11.89,2.97,19.94,1.21,6.47-1.41,10.63-5.65,12.35-12.6.68-2.75,1.02-5.47,1.02-8.11-.02-13.94-.02-27.88-.02-41.82v-10.95c0-1.66,0-3.33,0-4.99,0-4.21-.02-8.57.04-12.86.01-1.05-.17-1.73-.58-2.13-.39-.38-1.03-.54-1.95-.51-2.64.1-4.95.1-7.06-.01-1.31-.06-2.65-.07-3.37.65-.5.51-.71,1.36-.63,2.61l.05.78-.64-.45c-.26-.18-.48-.32-.67-.44-.35-.22-.62-.39-.85-.63-2.41-2.5-5.8-3.57-9.28-2.94-3.89.7-7.18,3.33-8.8,7.04-1.86,4.26-2.77,8.18-2.79,11.98-.04,9.27-.04,18.69-.03,27.81,0,4.63,0,9.27,0,13.9,0,3.36.73,6.74,2.26,10.33,1.27,2.97,3.55,5.2,6.43,6.27,2.71,1.01,5.65.86,8.26-.42,1.21-.6,2.18-1.48,3.21-2.42.69-.63,1.41-1.29,2.24-1.89v-.2h1.57l-.82.59c0,.37,0,.74,0,1.11,0,.89.01,1.78,0,2.66-.1,5.31-2.77,7.98-8.15,8.15-2.92.08-5.81-.66-8.83-2.3-.55-.29-1-.44-1.38-.44ZM246.75,102.81h-.02c-1.97-.02-4.32-.97-4.34-5.42-.07-10.22-.06-20.61-.06-30.66v-6.25c0-.5,0-1.01,0-1.52-.02-1.73-.03-3.52.14-5.28.33-3.41,2.26-5.43,4.96-5.32,2.79.13,4.67,2.47,4.68,5.82.01,4.69,0,9.38,0,14.06v6.66s.02,0,.02,0v20.17c0,.76,0,1.55-.06,2.34-.25,2.98-2.62,5.4-5.31,5.4ZM247.17,49.1c-2.21,0-3.68,1.72-3.97,4.65-.17,1.72-.15,3.49-.14,5.2,0,.51,0,1.02,0,1.52v6.25c0,10.05,0,20.44.06,30.66.02,3.13,1.2,4.66,3.6,4.68h.02c2.26,0,4.35-2.16,4.56-4.71.07-.75.06-1.53.06-2.28l-.02-19.79v-7.03c0-4.69.01-9.37,0-14.06,0-2.97-1.56-4.96-3.96-5.08-.07,0-.14,0-.21,0Z"/>
        </g>
        <g>
          <path class="cls-3" d="M94.44,40.52c.42-2.64,1.94-3.96,4.57-3.97,2.51,0,5.02.04,7.53,0,1.79-.04,2.57.68,2.53,2.53-.08,3.85-.02,7.7-.02,11.55v66.56c0,3.46-.04,3.49-3.5,3.5h-6.28c-2.89,0-4.46-1.49-4.71-4.48-.75.71-1.38,1.32-2.03,1.91-5.63,5.21-14.48,3.77-18.28-2.92-2.31-4.07-3.01-8.52-3.03-13.06-.08-14.9-.1-29.8,0-44.71.03-4.95.94-9.76,3.12-14.35,4.08-8.6,14.65-9.78,20.08-2.58l.02.02ZM94.73,78.32c0-8.2.02-16.41-.01-24.61,0-2.47-2.18-4.78-4.45-4.91-2.24-.12-3.93,1.54-4.3,4.34-.24,1.82-.49,3.66-.49,5.49-.04,14.15-.02,28.3-.03,42.45,0,1.78.24,3.52.81,5.19.89,2.62,3.4,3.35,5.63,1.74,2.09-1.5,2.87-3.57,2.86-6.09-.04-7.87,0-15.74,0-23.61h-.01Z"/>
          <path d="M84.56,121.65c-.62,0-1.23-.05-1.85-.14-3.7-.57-6.9-2.8-8.79-6.12-2.08-3.66-3.05-7.87-3.08-13.24-.09-16.67-.09-31.3,0-44.71.03-5.36,1.07-10.1,3.16-14.51,2.01-4.23,5.77-7.01,10.06-7.45,3.85-.39,7.59,1.17,10.17,4.21.62-2.31,2.22-3.49,4.77-3.5.84,0,1.68,0,2.51,0,1.67,0,3.34.02,5.01,0,1.02-.02,1.75.2,2.23.68.48.48.7,1.21.68,2.24-.06,2.69-.04,5.44-.03,8.09,0,1.15.01,2.3.01,3.46v66.56c0,3.65-.22,3.86-3.87,3.88h-6.28c-2.85,0-4.52-1.37-4.99-4.07l-.05.05c-.51.48-.97.92-1.44,1.35-2.28,2.11-5.2,3.25-8.22,3.25ZM85.27,36.16c-.37,0-.75.02-1.13.06-4.03.41-7.57,3.04-9.46,7.03-2.04,4.3-3.05,8.94-3.08,14.19-.09,13.41-.09,28.04,0,44.71.02,5.24.97,9.34,2.98,12.88,1.77,3.11,4.78,5.21,8.25,5.75,3.42.53,6.87-.53,9.45-2.92.47-.43.93-.87,1.43-1.34l1.16-1.1.07.78c.24,2.78,1.65,4.14,4.34,4.14h6.28q3.12,0,3.12-3.12V50.63c0-1.15,0-2.3-.01-3.45-.01-2.66-.03-5.4.03-8.11.02-.81-.13-1.36-.46-1.69-.33-.33-.89-.47-1.69-.46-1.68.03-3.36.02-5.03,0-.84,0-1.67,0-2.51,0-2.43,0-3.81,1.2-4.2,3.65l-.12.75-.54-.57c-2.25-2.97-5.43-4.6-8.88-4.6ZM89.49,109.24c-.37,0-.73-.06-1.08-.17-1.16-.37-2.05-1.32-2.51-2.68-.56-1.64-.83-3.37-.83-5.31,0-4.72,0-9.43,0-14.15,0-9.43,0-18.87.03-28.3,0-1.8.24-3.62.47-5.38l.02-.15c.39-2.97,2.22-4.81,4.69-4.67,2.5.14,4.79,2.66,4.8,5.28.02,5.84.02,11.69.01,17.54v6.23s0,0,0,0v7.95c-.01,5.5-.02,11,0,16.5.01,2.84-.98,4.93-3.02,6.4-.84.61-1.74.92-2.62.92ZM90.04,49.17c-1.96,0-3.37,1.52-3.7,4.02l-.02.15c-.23,1.74-.47,3.53-.47,5.29-.03,9.43-.03,18.87-.03,28.3,0,4.72,0,9.43,0,14.15,0,1.85.26,3.51.79,5.07.38,1.13,1.11,1.91,2.03,2.21.95.3,2.03.07,3.02-.65,1.86-1.33,2.71-3.17,2.71-5.79-.03-5.5-.02-11-.02-16.51v-6.3s0-.79,0-.79v-7.08c0-5.84.01-11.69,0-17.53,0-2.21-2-4.42-4.1-4.54-.07,0-.14,0-.21,0Z"/>
        </g>
        <g>
          <path class="cls-3" d="M206.05,40.6c.59-2.67,2.24-4.01,4.95-4.02,2.09,0,4.19-.02,6.28,0,3.02.04,3.33.33,3.34,3.31.02,7.46,0,14.92,0,22.37v54.8c0,3.47-.07,3.54-3.49,3.55-2.51.01-5.03-.12-7.54.04-2.39.14-3.46-.73-3.18-3.16.04-.38-.1-.78-.14-1.11-.56-.16-.72.17-.94.41-6.37,7.1-16.79,5.24-20.33-3.63-1.42-3.54-2.09-7.26-2.11-11.05-.05-14.91-.12-29.83.03-44.74.06-5.81,1.1-11.48,4.53-16.48,3.96-5.77,10.87-5.94,15.13-3.56,1.37.76,2.13,2.09,3.46,3.27h0ZM206.43,78.51h0c0-8.29.03-16.59-.02-24.88,0-2.55-2.31-4.85-4.73-4.91-2.15-.06-3.89,1.78-4.17,4.5-.21,2-.48,4-.49,6-.04,13.74,0,27.48-.03,41.22,0,1.86.22,3.69.67,5.47.78,3.11,3.8,3.97,6.21,1.91,1.76-1.5,2.64-3.28,2.61-5.69-.1-7.87-.04-15.75-.04-23.62h0Z"/>
          <path d="M196.13,121.52c-.69,0-1.38-.06-2.08-.18-4.23-.75-7.66-3.68-9.4-8.04-1.4-3.48-2.12-7.25-2.14-11.19v-3.8c-.06-13.42-.11-27.3.03-40.95.07-6.92,1.53-12.22,4.6-16.69,4-5.82,11.03-6.24,15.62-3.67.9.5,1.53,1.21,2.2,1.95.28.31.57.63.88.94.74-2.45,2.47-3.69,5.15-3.69h2.09c1.4,0,2.8-.01,4.19,0,3.25.04,3.7.49,3.71,3.68.01,4.97,0,9.95,0,14.92v62.25c0,3.66-.26,3.91-3.87,3.92-.82,0-1.63,0-2.46-.02-1.66-.03-3.38-.05-5.06.06-1.4.08-2.37-.18-2.95-.8-.56-.6-.77-1.51-.62-2.78.02-.19-.03-.42-.07-.65,0-.03-.01-.06-.02-.08-.08.02-.14.09-.24.21l-.1.12c-2.61,2.91-5.98,4.48-9.48,4.48ZM196.89,36.26c-3.32,0-6.78,1.43-9.13,4.85-2.98,4.34-4.4,9.51-4.46,16.27-.14,13.64-.09,27.52-.04,40.94v3.8c.03,3.84.73,7.52,2.1,10.91,1.64,4.11,4.86,6.87,8.83,7.58,3.97.7,7.93-.77,10.87-4.06l.08-.1c.2-.24.52-.63,1.24-.42l.24.07.03.25c.01.1.03.2.06.31.06.27.12.57.08.88-.12,1.04.02,1.75.42,2.18.43.45,1.2.64,2.36.57,1.71-.11,3.44-.09,5.12-.06.81.01,1.62.02,2.44.02q3.12,0,3.12-3.17v-62.25c0-4.97.01-9.95,0-14.92,0-2.76-.15-2.9-2.97-2.94-1.39-.01-2.79,0-4.18,0h-2.09c-2.54.01-4.04,1.23-4.58,3.73l-.06.29h-.45l-.11-.09c-.53-.47-.96-.95-1.38-1.42-.63-.7-1.22-1.36-2.01-1.8-1.61-.9-3.53-1.41-5.51-1.41ZM201.11,109.32c-.38,0-.76-.06-1.12-.17-1.31-.42-2.29-1.57-2.69-3.14-.45-1.79-.68-3.66-.68-5.56,0-5.7,0-11.39,0-17.09,0-8.04,0-16.09.02-24.13,0-1.65.19-3.31.37-4.92l.12-1.12c.3-2.91,2.13-4.89,4.55-4.84,2.66.07,5.08,2.58,5.09,5.28.04,6.02.03,12.14.02,18.06v6.45s0,0,0,0v.38c0,2.14,0,4.29,0,6.43-.01,5.63-.02,11.46.05,17.18.03,2.46-.84,4.36-2.74,5.98-.93.8-1.98,1.21-3.01,1.21ZM201.58,49.1c-1.93,0-3.44,1.7-3.7,4.16l-.12,1.13c-.18,1.59-.36,3.23-.37,4.84-.02,8.04-.02,16.08-.02,24.13,0,5.7,0,11.39,0,17.09,0,1.84.22,3.65.66,5.38.33,1.32,1.13,2.27,2.19,2.61,1.09.35,2.34.02,3.41-.89,1.72-1.46,2.51-3.18,2.48-5.4-.07-5.73-.06-11.56-.05-17.2,0-2.02,0-4.04,0-6.06v-.37s0-6.82,0-6.82c0-5.92.01-12.04-.02-18.05,0-2.32-2.09-4.48-4.37-4.54-.03,0-.06,0-.09,0Z"/>
        </g>
        <g>
          <path class="cls-3" d="M573.19,78.58c0,7.7.17,15.41-.05,23.11-.19,6.52-2.3,12.31-7.84,16.37-9.6,7.04-23.34,2.95-27.47-8.2-1.38-3.74-1.97-7.66-2-11.58-.12-14.49-.1-28.97-.03-43.46.05-8.64,5.69-16.51,13.39-18.34,14.07-3.34,23.39,5.92,23.93,18.48.34,7.86.06,15.74.06,23.61h.01ZM558.92,78.47v-21.34c0-1.25.03-2.53-.16-3.76-.34-2.2-2.47-4.47-4.11-4.56-2-.11-3.62,1.44-4.29,4.18-.2.8-.28,1.65-.28,2.48-.02,15.23,0,30.46,0,45.7,0,1.61.24,3.19.94,4.64.74,1.53,1.94,2.51,3.74,2.5,1.77,0,2.72-1.16,3.39-2.57.73-1.55.8-3.23.8-4.92v-22.35h-.02Z"/>
          <path d="M554.72,121.93c-1.78,0-3.58-.26-5.35-.79-5.56-1.67-9.89-5.73-11.9-11.14-1.31-3.55-1.99-7.49-2.02-11.71-.11-12.69-.11-26.1-.03-43.46.05-8.82,5.93-16.86,13.68-18.7,6.46-1.53,12.24-.55,16.72,2.84,4.59,3.47,7.38,9.29,7.67,15.99.23,5.42.17,10.94.11,16.28-.03,2.4-.05,4.79-.05,7.19v.16c0,2.34.03,4.68.04,7.02.04,5.28.07,10.74-.08,16.1-.22,7.43-2.83,12.88-7.99,16.66-3.2,2.35-6.96,3.56-10.8,3.56ZM554.83,36.17c-1.78,0-3.63.23-5.55.68-7.42,1.76-13.05,9.49-13.1,17.98-.08,17.36-.08,30.77.03,43.46.03,4.13.7,7.98,1.98,11.45,1.92,5.19,6.08,9.08,11.41,10.68,5.35,1.61,11,.64,15.49-2.65,4.96-3.64,7.48-8.9,7.69-16.08.15-5.35.12-10.81.08-16.08-.01-2.29-.03-4.58-.03-6.87h0v-.17c0-2.45.03-4.9.05-7.36.06-5.33.12-10.83-.11-16.24-.28-6.47-2.96-12.09-7.37-15.42-2.98-2.25-6.56-3.39-10.55-3.39ZM554.72,108.69c-1.79,0-3.19-.94-4.05-2.71-.66-1.36-.98-2.93-.98-4.8v-11.7c0-11.34,0-22.67,0-34.01,0-.93.1-1.8.29-2.57.71-2.92,2.44-4.62,4.67-4.46,1.85.1,4.1,2.56,4.46,4.88.17,1.11.17,2.26.17,3.37v21.42s.02,0,.02,0v22.73c0,1.67-.06,3.44-.84,5.08-.57,1.2-1.57,2.79-3.73,2.79h-.03ZM554.45,49.18c-1.74,0-3.13,1.44-3.73,3.9-.18.72-.27,1.52-.27,2.39-.02,11.33-.01,22.67-.01,34v11.7c0,1.76.3,3.22.9,4.48.73,1.52,1.87,2.29,3.38,2.29h.02c1.34,0,2.28-.73,3.05-2.36.71-1.49.76-3.17.76-4.76l-.02-44.14c0-1.08,0-2.2-.16-3.25-.33-2.15-2.38-4.17-3.76-4.24-.06,0-.12,0-.18,0Z"/>
        </g>
        <g>
          <path class="cls-3" d="M416.69,78.34c0-7.71-.07-15.41.02-23.12.11-10.07,5.53-17.28,14.66-18.89,11.64-2.06,19.86,3.11,22.27,13.44.28,1.21.31,2.49.31,3.74.03,8.54.02,17.09.01,25.63,0,3.69-.03,3.71-3.85,3.71-5.36,0-10.72.06-16.08-.02-2.04-.03-2.85.7-2.82,2.78.09,6.11,0,12.23.05,18.34.03,3.3,1.39,4.85,4.09,4.92,2.45.06,4.27-1.87,4.39-4.81.1-2.43.09-4.86.07-7.29,0-1.64.59-2.49,2.36-2.46,3.18.06,6.37.02,9.55.02,1.07,0,2.18.17,2.16,1.51-.05,4.5.78,9.09-.54,13.49-1.94,6.47-6.6,10.38-13.06,11.47-6.98,1.17-13.73.35-18.96-5.36-3.71-4.06-4.53-9.06-4.61-14.24-.12-7.62-.03-15.24-.03-22.87h.01ZM439.82,60.61c0-2.01.02-4.02,0-6.03-.04-4.07-1.48-6.22-4.18-6.31-2.72-.08-4.41,2.04-4.74,5.97-.06.75-.05,1.51-.05,2.26,0,2.68-.04,5.36,0,8.04.12,6.98-1.25,6.19,6.55,6.24,1.68.01,2.46-.67,2.43-2.39-.05-2.59-.01-5.19,0-7.78h-.01Z"/>
          <path d="M435.17,121.63c-5.84,0-10.49-1.96-14.13-5.93-4.02-4.4-4.64-9.79-4.71-14.49-.08-5.34-.07-10.77-.05-16.02,0-2.29.02-4.57.02-6.86v-.91h0c0-2.03,0-4.06-.01-6.1-.01-5.28-.03-10.74.03-16.11.11-10.42,5.71-17.62,14.97-19.25,11.73-2.07,20.21,3.06,22.7,13.72.3,1.28.32,2.64.32,3.82.03,8.54.02,17.09,0,25.63,0,3.89-.2,4.08-4.22,4.08-1.61,0-3.23,0-4.84.01-3.69.01-7.5.03-11.25-.03-.95-.03-1.58.15-1.93.51-.36.36-.52.96-.5,1.89.05,3.44.04,6.94.04,10.33,0,2.67,0,5.35.01,8.02.03,3.04,1.21,4.48,3.72,4.55.03,0,.07,0,.1,0,2.23,0,3.79-1.77,3.9-4.45.1-2.44.09-4.83.07-7.27,0-1.03.21-1.72.69-2.19.46-.45,1.13-.67,2.05-.64,2.27.04,4.57.03,6.81.03.91,0,1.83,0,2.74,0,.74,0,1.56.07,2.08.6.31.32.46.75.46,1.29-.01,1.29.05,2.62.1,3.91.15,3.19.29,6.5-.66,9.68-1.93,6.44-6.67,10.6-13.36,11.73-1.82.3-3.54.46-5.17.46ZM417.05,79.24c0,1.99,0,3.97-.02,5.96-.02,5.25-.04,10.67.05,16,.07,4.55.66,9.78,4.51,13.99,4.47,4.88,10.56,6.6,18.62,5.24,6.48-1.09,10.89-4.97,12.76-11.21.92-3.06.77-6.3.63-9.43-.06-1.3-.12-2.64-.11-3.96,0-.34-.07-.59-.24-.76-.33-.33-1-.37-1.55-.37-.91,0-1.82,0-2.73,0-2.24,0-4.55.02-6.82-.03-.7-.03-1.21.13-1.51.43-.32.31-.47.85-.46,1.65.02,2.35.03,4.86-.07,7.31-.13,3.11-2.06,5.24-4.77,5.17-2.93-.08-4.42-1.86-4.46-5.29-.02-2.67-.02-5.35-.01-8.02,0-3.38.01-6.88-.04-10.31-.02-1.15.21-1.92.72-2.43s1.3-.76,2.48-.73c3.74.06,7.55.04,11.23.03,1.61,0,3.23-.01,4.84-.01q3.47,0,3.47-3.33c0-8.54.02-17.09,0-25.63,0-1.19-.02-2.46-.3-3.66-2.39-10.24-10.56-15.15-21.84-13.16-8.88,1.57-14.24,8.49-14.35,18.52-.06,5.37-.05,10.82-.03,16.1,0,2.34.01,4.68.01,7.02v.91h0ZM434.35,71.16c-1.88,0-2.81-.07-3.36-.62-.58-.58-.56-1.57-.53-3.35.01-.73.03-1.6.01-2.64-.03-1.79-.02-3.58,0-5.37,0-.89,0-1.79,0-2.68v-.27c0-.66,0-1.34.05-2.02.35-4.16,2.17-6.41,5.12-6.31,2.04.07,4.49,1.28,4.54,6.68.01,1.34,0,2.68,0,4.02v1.63s0,0,0,0v2.33c-.03,1.91-.04,3.88,0,5.81.02.94-.2,1.62-.65,2.08-.46.47-1.2.67-2.16.69-.8,0-1.5,0-2.12,0-.33,0-.65,0-.93,0ZM435.5,48.65c-2.42,0-3.92,1.99-4.22,5.63-.05.64-.05,1.31-.05,1.95v.28c0,.89,0,1.79,0,2.68,0,1.78-.02,3.57,0,5.35.02,1.06,0,1.94-.01,2.67-.03,1.58-.04,2.45.31,2.81.41.42,1.6.41,3.75.4.62,0,1.32,0,2.12,0,.76.03,1.3-.15,1.62-.46.31-.31.45-.81.43-1.54-.04-1.94-.02-3.92-.01-5.83v-1.65s0-.31,0-.31v-2.01c0-1.34.01-2.68,0-4.01-.04-3.86-1.32-5.86-3.82-5.94-.04,0-.09,0-.13,0Z"/>
        </g>
        <g>
          <path class="cls-3" d="M340.77,78.26v23.12c0,1.7.15,3.36.98,4.87,1.49,2.71,4.34,2.8,5.97.22.79-1.25,1.07-2.61,1.07-4.07,0-3.69.06-7.37.02-11.06-.02-1.78.64-2.61,2.51-2.56,3.1.08,6.2.03,9.3.03,1.18,0,2.29.19,2.27,1.69-.09,6.75.84,13.56-1.98,20.08-3.24,7.51-8.46,10.79-17.31,10.49-7.28-.25-13.35-4.81-15.57-11.8-.87-2.72-1.37-5.53-1.37-8.4,0-14.66-.11-29.33.04-43.99.07-7.09,1.9-13.65,8.05-18.11,8.85-6.43,22.85-2.14,26.66,8.07,1.63,4.37,1.54,8.87,1.5,13.39-.02,2.09-.03,4.19,0,6.28.02,1.42-.54,2.23-2.05,2.22-3.35-.01-6.7-.01-10.05,0-1.72,0-2.07-1.03-2.06-2.47.02-3.52.03-7.04-.02-10.56-.02-1.16-.16-2.34-.35-3.49-.33-2-1.24-3.49-3.55-3.5-1.85,0-3.71,1.72-3.93,3.9-.19,1.91-.13,3.85-.13,5.77-.01,6.62,0,13.24,0,19.86v.02Z"/>
          <path d="M344.68,121.47c-.36,0-.72,0-1.09-.02-7.42-.25-13.67-4.99-15.91-12.06-.92-2.88-1.39-5.74-1.39-8.51,0-4.36,0-8.72-.02-13.08-.02-10.13-.05-20.61.06-30.92.08-8.56,2.69-14.41,8.21-18.41,4.23-3.08,10.03-3.92,15.5-2.28,5.51,1.66,9.89,5.59,11.73,10.52,1.61,4.31,1.57,8.8,1.53,13.14v.38c-.02,1.85-.04,4.04,0,6.27.01.9-.19,1.55-.63,1.99-.4.41-1,.61-1.77.61h-.03c-3.35-.01-6.7-.01-10.05,0-.79,0-1.38-.2-1.78-.61-.59-.59-.66-1.51-.65-2.24.02-3.19.03-6.9-.02-10.55-.02-1.01-.13-2.14-.34-3.43-.36-2.2-1.34-3.18-3.18-3.19-1.73,0-3.36,1.63-3.55,3.56-.15,1.52-.14,3.1-.13,4.62v1.11c0,4.41,0,8.83,0,13.24v29.76c0,1.55.12,3.2.94,4.69.65,1.18,1.61,1.87,2.63,1.9,1.02.03,1.99-.59,2.7-1.7.69-1.09,1.01-2.32,1.01-3.87,0-1.38,0-2.76.02-4.14.01-2.3.03-4.61,0-6.91-.01-1.07.21-1.8.7-2.28.48-.47,1.2-.67,2.19-.66,2.24.06,4.51.05,6.71.04.86,0,1.72,0,2.58,0,.76,0,1.61.07,2.15.62.34.34.51.83.5,1.45-.02,1.44,0,2.9.04,4.32.1,5.26.2,10.7-2.05,15.9-3.19,7.39-8.33,10.74-16.58,10.74ZM344.47,36.12c-3.48,0-6.82,1.01-9.5,2.96-5.31,3.85-7.81,9.51-7.9,17.81-.11,10.3-.08,20.77-.06,30.91,0,4.36.02,8.72.02,13.08,0,2.69.46,5.48,1.35,8.29,2.15,6.77,8.12,11.3,15.22,11.54,8.65.28,13.72-2.78,16.95-10.26,2.18-5.05,2.08-10.41,1.99-15.59-.03-1.42-.06-2.9-.04-4.35,0-.42-.09-.72-.28-.92-.34-.35-1.01-.39-1.61-.39-.86,0-1.72,0-2.58,0-2.21,0-4.49.02-6.73-.04-.79-.02-1.32.12-1.65.44-.34.33-.49.88-.48,1.74.03,2.31.01,4.62,0,6.93,0,1.38-.02,2.76-.02,4.14,0,1.67-.37,3.07-1.13,4.27-.85,1.34-2.09,2.08-3.35,2.05-1.3-.04-2.49-.87-3.26-2.29-.91-1.65-1.03-3.48-1.03-5.05v-29.76c0-4.41,0-8.83,0-13.24v-1.11c-.01-1.54-.02-3.14.13-4.7.23-2.3,2.2-4.24,4.3-4.24,2.22,0,3.5,1.26,3.92,3.81.22,1.33.34,2.49.35,3.55.05,3.66.04,7.37.02,10.57,0,.87.13,1.4.44,1.71.26.26.67.39,1.25.39,3.35,0,6.7,0,10.05,0h.03c.57,0,.98-.13,1.24-.39.29-.29.42-.76.41-1.45-.03-2.24-.02-4.43,0-6.29v-.38c.04-4.27.08-8.69-1.48-12.87-1.76-4.71-5.96-8.47-11.24-10.06-1.77-.53-3.58-.79-5.34-.79Z"/>
        </g>
        <g>
          <path class="cls-3" d="M115.85,100.47c.11-8-.98-7.1,6.39-7.15,5.46-.04,5.46,0,6.07,5.33.23,1.99.32,4.01.68,5.98.3,1.65,1.15,3.02,3.07,3.16,2.01.15,3.02-1.13,3.7-2.8,2.37-5.78.26-15.09-4.28-19.91-3.38-3.59-6.78-7.18-9.71-11.17-5.89-8.01-7.3-16.75-4.21-26.17,3.67-11.16,17.67-15.69,26.66-8.67,2.91,2.27,4.43,5.4,5.32,8.88,1.09,4.25,1.32,8.59,1.21,12.96-.04,1.56-.64,2.33-2.24,2.31-2.51-.03-5.03-.03-7.54,0-1.71.02-2.4-.84-2.38-2.49.02-1.76,0-3.52-.08-5.28-.05-1-.19-2-.42-2.97-.44-1.85-1.36-3.25-3.55-3.24-2.33.02-3.32,1.63-3.63,3.51-.84,5.04-.42,9.8,3.35,13.84,3.08,3.3,6.36,6.43,9.07,10.07,8.19,10.99,9.92,22.93,4.48,35.51-3.15,7.28-10.18,10.19-19.22,8.87-6.43-.94-10.94-5.97-12.22-13.55-.43-2.57-.63-5.15-.54-7.04l.02.02Z"/>
          <path d="M132.69,121.73c-1.32,0-2.71-.1-4.15-.32-6.55-.96-11.23-6.14-12.54-13.86-.44-2.61-.64-5.21-.54-7.12l.03-.53c0-.8,0-1.5,0-2.11-.02-2.36-.02-3.55.64-4.21.66-.66,1.82-.66,4.12-.64.58,0,1.25.01,2,0,5.63-.04,5.81.12,6.44,5.65.08.7.14,1.39.21,2.08.12,1.29.24,2.61.47,3.89.33,1.81,1.22,2.74,2.73,2.85,1.54.12,2.55-.65,3.33-2.57,2.29-5.58.32-14.7-4.21-19.51l-.23-.24c-3.26-3.46-6.63-7.04-9.51-10.96-5.95-8.09-7.38-17.01-4.26-26.51,1.8-5.48,6.25-9.78,11.91-11.5,5.47-1.66,11.06-.7,15.34,2.65,2.67,2.08,4.4,4.97,5.45,9.08.96,3.76,1.35,7.91,1.22,13.06-.05,1.85-.91,2.67-2.62,2.67-2.5-.03-5.03-.03-7.53,0-.9,0-1.59-.21-2.06-.68-.48-.48-.71-1.2-.7-2.19.02-1.88,0-3.6-.08-5.26-.05-.98-.19-1.96-.41-2.9-.48-2.04-1.46-2.95-3.16-2.95h-.02c-1.82.02-2.92,1.09-3.26,3.2-.98,5.89.02,10.06,3.25,13.52.78.84,1.58,1.67,2.38,2.5,2.3,2.4,4.69,4.87,6.72,7.6,8.42,11.29,9.94,23.36,4.52,35.88-2.66,6.15-8.08,9.41-15.46,9.41ZM116.18,101.34c0,1.75.19,3.91.56,6.09,1.25,7.38,5.7,12.33,11.9,13.24,9.14,1.33,15.83-1.74,18.82-8.65,5.3-12.25,3.81-24.08-4.44-35.14-2-2.69-4.37-5.15-6.66-7.53-.8-.83-1.6-1.66-2.39-2.51-3.36-3.6-4.45-8.1-3.45-14.16.4-2.45,1.82-3.8,4-3.82h.02c2.06,0,3.33,1.15,3.89,3.53.23.98.38,2,.43,3.04.08,1.68.1,3.41.08,5.3,0,.78.15,1.32.48,1.65.32.32.84.48,1.52.46,2.51-.03,5.05-.03,7.55,0,1.32,0,1.82-.51,1.86-1.94.13-5.08-.25-9.17-1.2-12.86-1.01-3.95-2.66-6.7-5.19-8.68-4.09-3.19-9.43-4.11-14.66-2.52-5.42,1.65-9.69,5.76-11.41,11.01-3.04,9.26-1.64,17.95,4.16,25.83,2.85,3.88,6.21,7.45,9.45,10.89l.23.24c4.71,5,6.74,14.49,4.35,20.31-.57,1.39-1.62,3.21-4.08,3.03-1.84-.13-3.02-1.33-3.41-3.47-.24-1.31-.36-2.66-.48-3.96-.06-.68-.12-1.37-.2-2.04-.58-5.03-.56-5.03-5.69-5-.75,0-1.42,0-2.01,0-2.03-.02-3.14-.02-3.58.42s-.44,1.59-.42,3.68c0,.76.01,1.65,0,2.69v.89s-.04-.03-.04-.03Z"/>
        </g>
        <g>
          <path class="cls-3" d="M582.6,84.86v-32.66c0-1.48.06-2.86-1.97-3.13-1.19-.16-1.13-1.29-1.14-2.21-.02-2.18-.02-4.35-.01-6.53,0-1.72-.39-3.57,2.2-4.01,1.1-.19.89-1.47.9-2.37.02-3.52.11-7.04-.02-10.55-.09-2.33.84-3.12,3.11-3.02,3.01.14,6.03.09,9.04.02,1.85-.05,2.54.76,2.52,2.55-.05,3.68,0,7.37-.02,11.05,0,1.4.23,2.51,1.96,2.59,1.28.06,1.67.89,1.66,2.05-.02,2.85,0,5.69-.01,8.54,0,.88-.17,1.87-1.22,1.89-2.55.05-2.39,1.75-2.39,3.48.01,14.82,0,29.64,0,44.47,0,6.78.01,13.57,0,20.35,0,3.16-.16,3.3-3.21,3.32-2.85,0-5.7-.1-8.54.04-2.24.11-2.9-.84-2.89-2.96.06-10.97.03-21.94.03-32.91"/>
          <path d="M585.12,121.12c-.97,0-1.65-.22-2.13-.67-.56-.53-.8-1.36-.8-2.67.04-8.21.04-16.55.03-24.61v-41.08c0-1.59-.07-2.42-1.65-2.63-1.45-.2-1.46-1.54-1.46-2.43v-.15c-.02-2.18-.02-4.35-.01-6.54,0-.19,0-.39-.01-.59-.04-1.49-.09-3.34,2.52-3.79.54-.09.62-.55.59-1.59,0-.14,0-.28,0-.41,0-.85.01-1.71.02-2.56.03-2.62.06-5.32-.04-7.97-.05-1.26.19-2.11.75-2.67.56-.56,1.43-.79,2.75-.74,3.02.14,6.11.09,9.01.02,1.01-.02,1.72.19,2.2.66.49.48.72,1.21.7,2.27-.03,2.17-.02,4.34-.02,6.51,0,1.51,0,3.03,0,4.54,0,1.42.25,2.15,1.6,2.21,1.35.06,2.03.88,2.02,2.43-.01,1.64,0,3.27,0,4.91,0,1.21,0,2.42,0,3.63,0,1.48-.53,2.24-1.59,2.26-1.95.04-2.03.99-2.02,2.81v.29c0,9.88,0,19.76,0,29.64v14.83s0,6.78,0,6.78c0,4.52,0,9.05,0,13.57,0,3.36-.3,3.67-3.58,3.69-.93,0-1.85,0-2.78-.02-1.89-.02-3.84-.04-5.75.06-.12,0-.24,0-.35,0ZM585.3,20.75c-.89,0-1.48.17-1.84.53-.39.39-.57,1.08-.53,2.11.1,2.67.07,5.38.04,8.01,0,.85-.02,1.71-.02,2.56,0,.12,0,.25,0,.39.02.85.05,2.13-1.22,2.35-1.97.33-1.94,1.52-1.9,3.03,0,.2.01.41.01.61,0,2.18,0,4.35.01,6.53v.15c0,1.08.09,1.59.81,1.69,2.3.31,2.3,1.94,2.29,3.38v41.08c0,8.07.02,16.41-.03,24.62,0,1.08.17,1.75.57,2.12.37.35,1.01.51,1.93.46,1.93-.09,3.9-.08,5.79-.06.92,0,1.84.02,2.76.02q2.84-.02,2.84-2.95c0-4.52,0-9.05,0-13.57v-6.78s0-14.83,0-14.83c0-9.88,0-19.76,0-29.64v-.29c0-1.56-.02-3.51,2.76-3.57.42,0,.85-.19.85-1.52,0-1.21,0-2.42,0-3.63,0-1.64,0-3.28,0-4.92,0-1.14-.37-1.63-1.3-1.67-2.04-.09-2.32-1.48-2.32-2.96,0-1.51,0-3.02,0-4.53,0-2.17-.01-4.35.02-6.52,0-.83-.15-1.4-.48-1.73-.33-.32-.86-.48-1.65-.44-2.92.07-6.03.12-9.07-.02-.12,0-.24,0-.35,0Z"/>
        </g>
        <g>
          <path class="cls-3" d="M158.73,84.85v-32.67c0-1.5,0-2.86-1.97-3.17-1.04-.17-1.08-1.16-1.09-2.01-.01-2.68,0-5.36,0-8.04,0-1.08.24-2.04,1.47-2.3,1.55-.33,1.58-1.5,1.58-2.72,0-3.52.07-7.04-.01-10.55-.05-2.17.85-3.01,3-2.94,2.93.1,5.86.07,8.79,0,1.93-.04,2.76.86,2.76,2.72,0,3.6.03,7.2.02,10.81,0,1.38.21,2.5,1.91,2.68,1.24.13,1.64,1,1.64,2.13v8.29c0,1-.23,1.95-1.42,2.01-2.24.11-2.14,1.65-2.14,3.21v65.09c0,3.07-.18,3.23-3.31,3.25-2.51.01-5.03,0-7.54,0-3.62,0-3.7-.07-3.7-3.61v-32.19Z"/>
          <path d="M167.45,121.03c-.84,0-1.68,0-2.52,0h-2.51c-3.85,0-4.08-.23-4.08-3.99V52.18c0-1.67-.06-2.55-1.64-2.8-1.38-.23-1.4-1.57-1.41-2.38,0-1.79,0-3.58,0-5.36v-2.68c0-.98.19-2.33,1.77-2.67,1.22-.26,1.28-1.06,1.28-2.35,0-1.12,0-2.25.01-3.37.01-2.35.03-4.79-.02-7.17-.03-1.19.23-2.03.77-2.57.56-.55,1.39-.79,2.62-.75,3.08.11,6.16.06,8.77,0,1.05-.04,1.83.22,2.36.74.53.52.79,1.29.79,2.36,0,1.55,0,3.1.01,4.65,0,2.05.02,4.11,0,6.16,0,1.42.24,2.17,1.57,2.31.9.09,1.98.61,1.98,2.5v8.29c0,1.52-.6,2.33-1.78,2.38-1.71.08-1.79.96-1.78,2.64v65.28c0,3.26-.34,3.6-3.68,3.62-.84,0-1.68,0-2.52,0ZM159.09,84.96v32.08q0,3.24,3.33,3.24h2.51c1.68,0,3.35,0,5.03,0q2.94-.02,2.94-2.88V52.12c0-1.46,0-3.27,2.5-3.4.55-.03,1.06-.24,1.06-1.63v-8.29c0-1.44-.7-1.69-1.3-1.76-2.25-.24-2.25-2.07-2.25-3.05,0-2.06,0-4.11,0-6.16,0-1.55-.01-3.1-.01-4.65,0-.86-.18-1.45-.56-1.82-.38-.37-.97-.54-1.81-.52-2.62.05-5.71.1-8.81,0-1-.04-1.67.14-2.06.53-.39.39-.57,1.05-.55,2.02.05,2.4.04,4.84.02,7.2,0,1.12-.01,2.24-.01,3.36s0,2.69-1.88,3.09c-.84.18-1.17.72-1.17,1.93v2.68c0,1.79,0,3.57,0,5.36.01,1.03.13,1.54.78,1.64,2.28.36,2.28,2.05,2.28,3.54v32.78Z"/>
        </g>
        <g>
          <path class="cls-3" d="M290.51,67.47v49.74c0,3.29-.12,3.4-3.37,3.42-2.76,0-5.53-.06-8.29.02-1.85.05-2.62-.77-2.5-2.56.03-.5,0-1,0-1.51V18.36c0-2.61,1.29-3.92,3.88-3.93,2.43,0,4.86.11,7.28-.03,2.32-.13,3.05.81,3.04,3.08-.08,12.64-.04,25.29-.04,37.93v12.06Z"/>
          <path d="M278.69,121.03c-.96,0-1.65-.23-2.11-.71-.48-.5-.68-1.24-.61-2.25.02-.32.01-.64,0-.97,0-.17,0-.34,0-.52V18.36c0-2.81,1.47-4.3,4.25-4.31.75,0,1.49.01,2.24.02,1.65.02,3.36.05,5.02-.05,1.22-.07,2.05.15,2.6.67.58.55.84,1.41.83,2.78-.06,9.48-.05,19.12-.04,28.45v71.28c0,3.49-.28,3.77-3.74,3.79-.96,0-1.92,0-2.87,0-1.77-.01-3.61-.02-5.41.03-.06,0-.11,0-.17,0ZM280.23,14.81c-2.39,0-3.5,1.14-3.5,3.56v98.22c0,.17,0,.33,0,.5,0,.34.01.69,0,1.03-.05.8.08,1.35.4,1.68.33.34.9.51,1.71.48,1.81-.05,3.65-.04,5.43-.03.96,0,1.91.01,2.86,0q3-.02,3-3.04V45.93c-.01-9.33-.02-18.97.04-28.45,0-1.13-.19-1.84-.6-2.24-.39-.38-1.04-.52-2.05-.47-1.69.1-3.41.08-5.07.05-.74,0-1.49-.02-2.23-.02Z"/>
        </g>
        <g>
          <path class="cls-3" d="M521.84,44.1c.94-2.38,1.56-4.18,2.35-5.9.83-1.83,2.34-2.6,4.32-2.11,1.87.46,2.4,1.86,2.38,3.63-.03,3.18-.04,6.36,0,9.54.02,1.66-.38,2.4-2.33,2.12-3.08-.45-4.45.51-5.53,3.47-.81,2.21-1.16,4.52-1.16,6.89,0,18.42-.02,36.84-.03,55.25,0,3.66-.03,3.69-3.58,3.69-2.93,0-5.86-.05-8.79,0-1.61.03-2.31-.68-2.28-2.24,0-.59-.01-1.17-.01-1.76V40.59c0-3.99.07-4.05,4.08-4.06,2.68,0,5.36.05,8.04,0,1.78-.04,2.66.64,2.56,2.5-.07,1.47-.02,2.95-.02,5.06v.02Z"/>
          <path d="M509.38,121.07c-.87,0-1.5-.21-1.93-.64-.44-.44-.65-1.09-.63-1.98,0-.35,0-.69,0-1.04,0-.24,0-.48,0-.72V40.59c0-4.18.25-4.42,4.45-4.43.84,0,1.68,0,2.52,0,1.81,0,3.68.02,5.51-.02,1.08-.02,1.84.21,2.32.71.47.49.67,1.2.62,2.19-.04.96-.04,1.95-.03,3.08.04-.12.09-.24.13-.35.53-1.38.98-2.57,1.51-3.73.92-2.03,2.61-2.85,4.75-2.32,1.82.45,2.69,1.76,2.67,4-.04,3.81-.04,6.75,0,9.53,0,.78-.06,1.64-.62,2.14-.44.39-1.12.5-2.14.36-2.83-.41-4.08.37-5.12,3.23-.75,2.06-1.14,4.33-1.14,6.76,0,12.09,0,24.18-.02,36.27v18.98c-.01,3.88-.2,4.06-3.97,4.06-.91,0-1.82,0-2.74,0-1.98-.01-4.03-.02-6.05.02-.03,0-.07,0-.1,0ZM511.26,36.91q-3.71,0-3.71,3.68v76.1c0,.24,0,.47,0,.71,0,.35,0,.7,0,1.06-.01.68.12,1.15.41,1.44.3.3.79.44,1.49.42,2.02-.04,4.08-.03,6.07-.02.91,0,1.82,0,2.73,0q3.21,0,3.21-3.31v-18.98c.02-12.09.03-24.18.03-36.27,0-2.52.4-4.88,1.18-7.02,1.17-3.21,2.73-4.18,5.94-3.71.77.11,1.27.05,1.54-.18.26-.23.38-.71.37-1.57-.04-2.79-.04-5.74,0-9.55.02-1.89-.62-2.9-2.09-3.26-1.77-.44-3.12.22-3.89,1.9-.52,1.14-.97,2.32-1.49,3.68-.26.68-.54,1.41-.85,2.2l-.72,1.83v-1.99c0-.66,0-1.26,0-1.82,0-1.2-.02-2.24.03-3.26.04-.77-.09-1.3-.41-1.62-.33-.34-.93-.51-1.77-.48-1.85.04-3.72.03-5.54.02-.84,0-1.68,0-2.51,0Z"/>
        </g>
        <g>
          <path class="cls-3" d="M315.67,78.58v38.21c0,2.55-1.32,3.83-3.95,3.84h-6.79c-3.33-.02-3.43-.1-3.44-3.35-.01-5.53,0-11.06,0-16.59v-59.82c0-2.85,1.46-4.27,4.38-4.28,2.26,0,4.53.1,6.79-.03,2.28-.12,3.07.75,3.06,3.06-.08,12.99-.04,25.97-.04,38.96h-.01Z"/>
          <path d="M311.72,121.01h-6.79c-3.55-.02-3.8-.26-3.81-3.72,0-3.69,0-7.38,0-11.06V40.87c0-3.04,1.65-4.65,4.76-4.66.69,0,1.38,0,2.07.02,1.54.02,3.14.04,4.7-.05,1.24-.07,2.07.15,2.63.68.57.54.83,1.42.83,2.76-.06,9.74-.05,19.64-.04,29.22v10.12s0,0,0,0v37.83c0,2.75-1.5,4.21-4.32,4.21ZM305.87,36.97c-2.69,0-4,1.28-4,3.91v65.35c0,3.69,0,7.37,0,11.06q0,2.96,3.07,2.98h6.79c2.44,0,3.58-1.11,3.58-3.46v-47.95c0-9.58,0-19.48.05-29.22,0-1.11-.18-1.82-.6-2.21-.4-.38-1.05-.52-2.07-.47-1.58.09-3.19.07-4.75.05-.69,0-1.37-.02-2.06-.02Z"/>
        </g>
        <g>
          <path class="cls-3" d="M308.36,32.05c-4.41-.12-7.51-3.5-7.41-8.11.09-4.27,3.53-7.56,7.82-7.48,4.36.09,7.81,3.7,7.65,8.01-.16,4.43-3.63,7.7-8.06,7.58"/>
          <path d="M308.6,32.43c-.08,0-.17,0-.25,0h0c-4.61-.13-7.88-3.7-7.78-8.49.09-4.49,3.72-7.95,8.2-7.85,2.23.05,4.29.96,5.82,2.57,1.5,1.59,2.28,3.66,2.2,5.82-.17,4.57-3.67,7.94-8.2,7.94ZM308.37,31.68c4.25.11,7.52-2.99,7.67-7.22.07-1.97-.64-3.84-2-5.28-1.38-1.47-3.26-2.3-5.29-2.34-4.12-.11-7.35,3.05-7.44,7.11-.1,4.36,2.87,7.61,7.04,7.73h0Z"/>
        </g>
        <g>
          <path class="cls-3" d="M200.52,23.74c-.24,2.32-.64,4.43-2.14,6.17-1.7,1.99-3.8,3.04-6.44,2.48-2.76-.59-4.18-2.57-4.91-5.16-.65-2.32-.66-4.63.18-6.9,1.08-2.93,3.76-4.89,6.43-4.75,2.77.14,5.53,2.45,6.3,5.33.26.96.39,1.96.56,2.83h.02Z"/>
          <path d="M193.31,32.92c-.47,0-.96-.05-1.45-.16-2.62-.56-4.32-2.33-5.19-5.42-.7-2.5-.64-4.9.19-7.13,1.14-3.09,3.95-5.17,6.8-4.99,2.92.15,5.84,2.61,6.64,5.61.18.68.3,1.36.42,2.02.03.18.06.36.09.54h.1l-.02.41c-.21,2.08-.58,4.47-2.23,6.38-1.57,1.83-3.36,2.76-5.35,2.76ZM193.38,15.95c-2.42,0-4.84,1.86-5.81,4.51-.77,2.08-.83,4.33-.17,6.67.79,2.8,2.3,4.4,4.63,4.89,2.31.49,4.3-.28,6.08-2.36,1.34-1.55,1.78-3.39,2.04-5.84h0c-.05-.28-.1-.57-.15-.87-.11-.64-.23-1.31-.4-1.95-.72-2.7-3.34-4.92-5.96-5.05-.08,0-.16,0-.25,0Z"/>
        </g>
        <g>
          <path class="cls-3" d="M217.42,24.06c-.02.15-.05.48-.1.81-.6,4.84-3.92,8.13-7.65,7.58-4.02-.59-6.97-5.54-6.02-10.09.88-4.24,3.83-6.98,7.2-6.68,3.77.34,6.48,3.71,6.57,8.38"/>
          <path d="M210.49,32.89c-.29,0-.58-.02-.87-.06-1.84-.27-3.54-1.4-4.78-3.17-1.49-2.14-2.07-4.89-1.56-7.36.92-4.43,4.04-7.32,7.6-6.98,3.98.36,6.82,3.96,6.91,8.75l-.02.24c-.02.17-.04.4-.08.63-.35,2.81-1.62,5.24-3.49,6.66-1.13.86-2.4,1.3-3.71,1.3ZM210.35,16.04c-2.97,0-5.54,2.56-6.34,6.4-.48,2.28.06,4.81,1.44,6.78,1.12,1.61,2.64,2.62,4.27,2.86,1.42.21,2.81-.17,4.02-1.09,1.71-1.3,2.88-3.55,3.2-6.16.03-.23.06-.45.08-.61l.02-.17c-.09-4.45-2.6-7.66-6.23-7.99-.15-.01-.31-.02-.46-.02Z"/>
        </g>
        <g>
          <polygon class="cls-3" points="24.71 139.34 32.16 139.34 32.16 141.88 27.31 141.88 27.31 144.31 32.15 144.31 32.15 146.86 27.31 146.86 27.31 150.43 32.15 150.43 32.15 152.98 24.71 152.98 24.71 139.34"/>
          <path d="M32.53,153.36h-8.19v-14.39h8.2v3.29h-4.85v1.68h4.84v3.3h-4.84v2.82h4.84v3.3ZM25.09,152.61h6.69v-1.8h-4.84v-4.32h4.84v-1.8h-4.84v-3.18h4.85v-1.79h-6.7v12.89Z"/>
        </g>
        <g>
          <path class="cls-3" d="M36.91,140.41c0,.89-.72,1.62-1.61,1.62s-1.61-.82-1.61-1.75c0-.87.74-1.54,1.61-1.54s1.61.76,1.61,1.67M34.04,142.9h2.53v10.09h-2.53v-10.09Z"/>
          <path d="M36.95,153.37h-3.28v-10.84h3.28v10.84ZM34.42,152.62h1.78v-9.34h-1.78v9.34ZM35.3,142.41c-1.08,0-1.99-.97-1.99-2.12,0-1.06.89-1.92,1.99-1.92s1.99.94,1.99,2.04-.89,2-1.99,2ZM35.3,139.12c-.68,0-1.24.52-1.24,1.17,0,.75.57,1.38,1.24,1.38s1.24-.56,1.24-1.25-.57-1.29-1.24-1.29Z"/>
        </g>
        <g>
          <path class="cls-3" d="M41.37,143.92c.97-.82,1.86-1.29,2.98-1.29,1.88,0,3.46,1.29,3.46,3.46v6.9h-2.53v-4.77c0-1.99-.17-3.27-1.71-3.27-.7,0-1.31.34-1.71.97-.51.82-.49,1.73-.49,2.77v4.29h-2.53v-10.09h2.53v1.03"/>
          <path d="M48.18,153.37h-3.28v-5.15c0-2.27-.29-2.89-1.33-2.89-.57,0-1.07.28-1.39.8-.43.7-.43,1.51-.43,2.45v4.78h-3.28v-10.84h3.28v.64c.89-.62,1.7-.9,2.6-.9,2.22,0,3.83,1.61,3.83,3.83v7.28ZM45.66,152.62h1.78v-6.53c0-1.82-1.27-3.08-3.08-3.08-.94,0-1.73.35-2.74,1.2l-.62.52v-1.46h-1.78v9.34h1.78v-4.03c0-1.01,0-1.97.55-2.85.47-.74,1.19-1.15,2.03-1.15,2.08,0,2.08,2.11,2.08,3.64v4.4Z"/>
        </g>
        <g>
          <path class="cls-3" d="M59.71,151.03c-1.08,1.54-2.51,2.22-4.64,2.22-3.21,0-5.28-2.36-5.28-5.32,0-2.75,1.99-5.3,5.24-5.3s5.36,2.28,5.36,5.47c0,.23-.02.34-.02.57h-8.13c.25,1.5,1.39,2.34,2.83,2.34,1.08,0,1.8-.3,2.51-.99l2.13,1.01ZM57.84,146.68c-.34-1.18-1.42-1.9-2.77-1.9-1.25,0-2.22.63-2.72,1.9h5.49Z"/>
          <path d="M55.07,153.63c-3.28,0-5.66-2.4-5.66-5.7,0-2.75,1.97-5.67,5.62-5.67,3.38,0,5.73,2.4,5.73,5.84,0,.12,0,.22-.01.31,0,.08,0,.16,0,.26v.38h-8.03c.33,1,1.18,1.59,2.35,1.59.96,0,1.59-.25,2.25-.88l.19-.18,2.77,1.31-.26.36c-1.15,1.65-2.68,2.38-4.95,2.38ZM55.03,143.01c-3.16,0-4.87,2.54-4.87,4.92,0,2.91,2.02,4.95,4.91,4.95,1.85,0,3.09-.51,4.06-1.7l-1.48-.7c-.73.64-1.52.92-2.58.92-1.67,0-2.93-1.04-3.2-2.65l-.07-.44h8.21c0-.06,0-.12,0-.2,0-3.05-2-5.09-4.98-5.09ZM58.34,147.06h-6.54l.2-.51c.54-1.38,1.63-2.14,3.07-2.14,1.52,0,2.75.85,3.13,2.17l.14.48ZM52.95,146.31h4.33c-.41-.72-1.21-1.15-2.21-1.15-.93,0-1.65.39-2.12,1.15Z"/>
        </g>
        <g>
          <rect class="cls-3" x="67.82" y="139.34" width="2.6" height="13.64"/>
          <path d="M70.79,153.36h-3.35v-14.39h3.35v14.39ZM68.2,152.61h1.85v-12.89h-1.85v12.89Z"/>
        </g>
        <g>
          <path class="cls-3" d="M75.57,143.92c.97-.82,1.86-1.29,2.98-1.29,1.88,0,3.46,1.29,3.46,3.46v6.9h-2.53v-4.77c0-1.99-.17-3.27-1.71-3.27-.7,0-1.31.34-1.71.97-.51.82-.49,1.73-.49,2.77v4.29h-2.53v-10.09h2.53v1.03Z"/>
          <path d="M82.38,153.37h-3.28v-5.15c0-2.27-.29-2.89-1.33-2.89-.57,0-1.07.28-1.39.8-.43.7-.43,1.51-.43,2.45v4.78h-3.28v-10.84h3.28v.64c.89-.62,1.7-.9,2.6-.9,2.22,0,3.83,1.61,3.83,3.83v7.28ZM79.85,152.62h1.78v-6.53c0-1.82-1.27-3.08-3.08-3.08-.94,0-1.73.35-2.74,1.2l-.62.52v-1.46h-1.78v9.34h1.78v-4.03c0-1.01,0-1.97.55-2.85.47-.74,1.19-1.15,2.03-1.15,2.08,0,2.08,2.11,2.08,3.64v4.4Z"/>
        </g>
        <g>
          <path class="cls-3" d="M87.07,140.41c0,.89-.72,1.62-1.61,1.62s-1.61-.82-1.61-1.75c0-.87.74-1.54,1.61-1.54s1.61.76,1.61,1.67M84.2,142.9h2.53v10.09h-2.53v-10.09Z"/>
          <path d="M87.1,153.37h-3.28v-10.84h3.28v10.84ZM84.58,152.62h1.78v-9.34h-1.78v9.34ZM85.46,142.41c-1.08,0-1.99-.97-1.99-2.12,0-1.06.89-1.92,1.99-1.92s1.99.94,1.99,2.04-.89,2-1.99,2ZM85.46,139.12c-.68,0-1.24.52-1.24,1.17,0,.75.57,1.38,1.24,1.38s1.24-.56,1.24-1.25-.57-1.29-1.24-1.29Z"/>
        </g>
        <g>
          <polygon class="cls-3" points="89.31 139.17 91.84 139.17 91.84 142.89 93.34 142.89 93.34 145.06 91.84 145.06 91.84 152.98 89.31 152.98 89.31 145.06 88.02 145.06 88.02 142.89 89.31 142.89 89.31 139.17"/>
          <path d="M92.21,153.36h-3.28v-7.92h-1.29v-2.92h1.29v-3.72h3.28v3.72h1.5v2.92h-1.5v7.92ZM89.68,152.61h1.78v-7.92h1.5v-1.42h-1.5v-3.72h-1.78v3.72h-1.29v1.42h1.29v7.92Z"/>
        </g>
        <g>
          <path class="cls-3" d="M97.33,140.41c0,.89-.72,1.62-1.61,1.62s-1.61-.82-1.61-1.75c0-.87.74-1.54,1.61-1.54s1.61.76,1.61,1.67M94.46,142.9h2.53v10.09h-2.53v-10.09Z"/>
          <path d="M97.37,153.37h-3.28v-10.84h3.28v10.84ZM94.84,152.62h1.78v-9.34h-1.78v9.34ZM95.72,142.41c-1.08,0-1.98-.97-1.98-2.12,0-1.06.89-1.92,1.98-1.92s1.99.94,1.99,2.04-.89,2-1.99,2ZM95.72,139.12c-.68,0-1.23.52-1.23,1.17,0,.75.57,1.38,1.23,1.38s1.24-.56,1.24-1.25-.57-1.29-1.24-1.29Z"/>
        </g>
        <g>
          <path class="cls-3" d="M106.73,151.92c-.89.87-1.84,1.33-3.12,1.33-2.56,0-4.81-2.2-4.81-5.3s2.13-5.32,4.75-5.32c1.22,0,2.26.46,3.17,1.37v-1.1h2.53v10.09h-2.53v-1.06h0ZM101.35,147.93c0,1.73,1.14,3,2.72,3s2.77-1.18,2.77-3.02-1.18-2.96-2.77-2.96-2.72,1.33-2.72,2.98Z"/>
          <path d="M103.61,153.63c-2.91,0-5.19-2.49-5.19-5.67s2.2-5.7,5.12-5.7c1.04,0,1.96.3,2.79.92v-.65h3.28v10.84h-3.28v-.62c-.82.61-1.69.88-2.73.88ZM103.55,143.01c-2.49,0-4.38,2.13-4.38,4.95s1.95,4.92,4.44,4.92c1.11,0,1.99-.38,2.86-1.22l.27.28h.35v.69h1.78v-9.34h-1.78v1.63l-.64-.64c-.85-.85-1.8-1.26-2.9-1.26ZM104.07,151.31c-1.79,0-3.1-1.42-3.1-3.38s1.33-3.35,3.1-3.35c1.85,0,3.14,1.37,3.14,3.33s-1.29,3.39-3.14,3.39ZM104.07,145.33c-1.34,0-2.35,1.12-2.35,2.6s.99,2.62,2.35,2.62c1.43,0,2.39-1.06,2.39-2.64s-.94-2.58-2.39-2.58Z"/>
        </g>
        <g>
          <polygon class="cls-3" points="112.11 139.17 114.64 139.17 114.64 142.89 116.14 142.89 116.14 145.06 114.64 145.06 114.64 152.98 112.11 152.98 112.11 145.06 110.82 145.06 110.82 142.89 112.11 142.89 112.11 139.17"/>
          <path d="M115.01,153.36h-3.28v-7.92h-1.29v-2.92h1.29v-3.72h3.28v3.72h1.5v2.92h-1.5v7.92ZM112.49,152.61h1.78v-7.92h1.5v-1.42h-1.5v-3.72h-1.78v3.72h-1.29v1.42h1.29v7.92Z"/>
        </g>
        <g>
          <path class="cls-3" d="M120.13,140.41c0,.89-.72,1.62-1.61,1.62s-1.61-.82-1.61-1.75c0-.87.74-1.54,1.61-1.54s1.61.76,1.61,1.67M117.26,142.9h2.53v10.09h-2.53v-10.09Z"/>
          <path d="M120.17,153.37h-3.28v-10.84h3.28v10.84ZM117.63,152.62h1.78v-9.34h-1.78v9.34ZM118.52,142.41c-1.08,0-1.98-.97-1.98-2.12,0-1.06.89-1.92,1.98-1.92s1.99.94,1.99,2.04-.89,2-1.99,2ZM118.52,139.12c-.68,0-1.23.52-1.23,1.17,0,.75.57,1.38,1.23,1.38s1.24-.56,1.24-1.25-.57-1.29-1.24-1.29Z"/>
        </g>
        <g>
          <polygon class="cls-3" points="120.98 142.9 123.56 142.9 126.11 148.85 128.66 142.9 131.22 142.9 126.93 152.99 125.3 152.99 120.99 142.9 120.98 142.9"/>
          <path d="M127.18,153.37h-2.13l-4.41-10.32.33-.14v-.38h2.83l2.3,5.37,2.3-5.37h3.37l-4.61,10.84ZM125.55,152.62h1.13l3.97-9.34h-1.75l-2.8,6.53-2.8-6.53h-1.75l3.99,9.34Z"/>
        </g>
        <g>
          <path class="cls-3" d="M142.16,151.03c-1.08,1.54-2.51,2.22-4.64,2.22-3.21,0-5.28-2.36-5.28-5.32,0-2.75,1.99-5.3,5.24-5.3s5.36,2.28,5.36,5.47c0,.23-.02.34-.02.57h-8.13c.25,1.5,1.39,2.34,2.83,2.34,1.08,0,1.8-.3,2.51-.99l2.13,1.01ZM140.3,146.68c-.34-1.18-1.42-1.9-2.77-1.9-1.25,0-2.22.63-2.72,1.9h5.49Z"/>
          <path d="M137.52,153.63c-3.28,0-5.65-2.4-5.65-5.7,0-2.75,1.97-5.67,5.61-5.67,3.38,0,5.74,2.4,5.74,5.84,0,.12,0,.22-.01.31,0,.08,0,.16,0,.26v.38h-8.03c.33,1,1.18,1.59,2.35,1.59.96,0,1.59-.25,2.25-.88l.19-.18,2.77,1.31-.26.36c-1.15,1.65-2.68,2.38-4.95,2.38ZM137.48,143.01c-3.16,0-4.86,2.54-4.86,4.92,0,2.91,2.02,4.95,4.9,4.95,1.85,0,3.09-.51,4.06-1.7l-1.48-.7c-.73.64-1.52.92-2.58.92-1.67,0-2.93-1.04-3.2-2.65l-.07-.44h8.21c0-.06,0-.12,0-.2,0-3.05-2-5.09-4.99-5.09ZM140.8,147.06h-6.54l.2-.51c.54-1.38,1.63-2.14,3.07-2.14,1.52,0,2.75.85,3.13,2.17l.14.48ZM135.41,146.31h4.33c-.41-.72-1.21-1.15-2.21-1.15-.93,0-1.65.39-2.12,1.15Z"/>
        </g>
        <g>
          <path class="cls-3" d="M157.65,151.92c-.89.87-1.84,1.33-3.12,1.33-2.56,0-4.81-2.2-4.81-5.3s2.13-5.32,4.75-5.32c1.22,0,2.26.46,3.17,1.37v-5h2.53v13.98h-2.53v-1.06h.01ZM152.27,147.93c0,1.73,1.14,3,2.72,3s2.77-1.18,2.77-3.02-1.18-2.96-2.77-2.96-2.72,1.33-2.72,2.98Z"/>
          <path d="M154.53,153.63c-2.91,0-5.19-2.49-5.19-5.67s2.2-5.7,5.12-5.7c1.04,0,1.96.3,2.79.92v-4.55h3.28v14.73h-3.28v-.61c-.82.61-1.69.88-2.73.88ZM154.47,143.01c-2.49,0-4.38,2.13-4.38,4.95s1.95,4.92,4.44,4.92c1.06,0,1.91-.34,2.73-1.11v-.22h1.3l-.55.54v.52h1.78v-13.23h-1.78v5.53l-.64-.64c-.85-.85-1.8-1.26-2.9-1.26ZM154.99,151.31c-1.79,0-3.1-1.42-3.1-3.38s1.33-3.35,3.1-3.35c1.85,0,3.14,1.37,3.14,3.33s-1.29,3.39-3.14,3.39ZM154.99,145.33c-1.34,0-2.35,1.12-2.35,2.6s.99,2.62,2.35,2.62c1.43,0,2.39-1.06,2.39-2.64s-.94-2.58-2.39-2.58Z"/>
        </g>
        <g>
          <path class="cls-3" d="M172.18,151.03c-1.08,1.54-2.51,2.22-4.64,2.22-3.21,0-5.28-2.36-5.28-5.32,0-2.75,1.99-5.3,5.24-5.3s5.36,2.28,5.36,5.47c0,.23-.02.34-.02.57h-8.13c.25,1.5,1.39,2.34,2.83,2.34,1.08,0,1.8-.3,2.51-.99l2.13,1.01ZM170.32,146.68c-.34-1.18-1.42-1.9-2.77-1.9-1.25,0-2.22.63-2.72,1.9h5.49Z"/>
          <path d="M167.54,153.63c-3.28,0-5.66-2.4-5.66-5.7,0-2.75,1.97-5.67,5.62-5.67,3.38,0,5.74,2.4,5.74,5.84,0,.12,0,.22-.01.31,0,.08,0,.16,0,.26v.38h-8.03c.33,1,1.18,1.59,2.35,1.59.96,0,1.59-.25,2.25-.88l.19-.18,2.77,1.31-.26.36c-1.15,1.65-2.68,2.38-4.95,2.38ZM167.5,143.01c-3.16,0-4.87,2.54-4.87,4.92,0,2.91,2.02,4.95,4.91,4.95,1.85,0,3.09-.51,4.06-1.7l-1.48-.7c-.73.64-1.52.92-2.58.92-1.67,0-2.93-1.04-3.2-2.65l-.07-.44h8.21c0-.06,0-.12,0-.2,0-3.05-2-5.09-4.99-5.09ZM170.82,147.06h-6.54l.2-.51c.54-1.38,1.63-2.14,3.07-2.14,1.54,0,2.74.83,3.13,2.17l.14.48ZM165.43,146.31h4.33c-.41-.72-1.22-1.15-2.21-1.15-.93,0-1.65.39-2.12,1.15Z"/>
        </g>
        <g>
          <path class="cls-3" d="M176.48,144.17c.47-1.04,1.29-1.54,2.13-1.54.53,0,.85.15,1.1.27l-.78,2.17c-.19-.09-.48-.21-.74-.21-.72,0-1.29.84-1.35,2.32-.02.55-.02,1.18-.02,1.73v4.08h-2.53v-10.09h2.18v1.27h0Z"/>
          <path d="M177.2,153.37h-3.28v-10.84h2.93v.47c.49-.47,1.1-.74,1.77-.74.62,0,1.01.18,1.26.31l.31.15-1.04,2.88-.37-.18c-.24-.12-.44-.17-.58-.17-.53,0-.93.81-.97,1.96-.02.54-.02,1.17-.02,1.71v4.46ZM174.67,152.62h1.78v-3.71c0-.55,0-1.19.02-1.74.07-1.63.74-2.68,1.72-2.68.16,0,.33.03.52.09l.53-1.47c-.17-.06-.36-.1-.63-.1-.76,0-1.41.48-1.79,1.32l-.1.22h-.63v-1.27h-1.43v9.34Z"/>
        </g>
        <g>
          <polygon class="cls-3" points="186.3 139 188.83 139 188.83 147.05 192.57 142.89 195.72 142.89 191.39 147.73 196.25 152.97 193.12 152.97 188.83 148.32 188.83 152.97 186.3 152.97 186.3 138.99 186.3 139"/>
          <path d="M197.11,153.35h-4.15l-3.75-4.07v4.07h-3.28v-14.35h.38v-.37h2.91v7.45l3.2-3.56h4.16l-4.66,5.21,5.21,5.62ZM193.28,152.6h2.11l-4.51-4.86,4-4.47h-2.14l-3.98,4.43,4.53,4.9ZM186.67,152.6h1.78v-13.22h-1.78v13.22Z"/>
        </g>
        <g>
          <path class="cls-3" d="M204.77,151.92c-.89.87-1.84,1.33-3.12,1.33-2.56,0-4.81-2.2-4.81-5.3s2.13-5.32,4.75-5.32c1.22,0,2.26.46,3.17,1.37v-1.1h2.53v10.09h-2.53v-1.06h.01ZM199.39,147.93c0,1.73,1.14,3,2.72,3s2.77-1.18,2.77-3.02-1.18-2.96-2.77-2.96-2.72,1.33-2.72,2.98Z"/>
          <path d="M201.65,153.63c-2.91,0-5.19-2.49-5.19-5.67s2.2-5.7,5.12-5.7c1.04,0,1.96.3,2.79.92v-.65h3.28v10.84h-3.28v-.62c-.82.61-1.69.88-2.73.88ZM201.59,143.01c-2.49,0-4.38,2.13-4.38,4.95s1.95,4.92,4.44,4.92c1.11,0,1.99-.38,2.86-1.22l.28.28h.35v.69h1.78v-9.34h-1.78v1.63l-.64-.64c-.85-.85-1.8-1.26-2.9-1.26ZM202.11,151.31c-1.79,0-3.1-1.42-3.1-3.38s1.33-3.35,3.1-3.35c1.85,0,3.14,1.37,3.14,3.33s-1.29,3.39-3.14,3.39ZM202.11,145.33c-1.34,0-2.35,1.12-2.35,2.6s.99,2.62,2.35,2.62c1.43,0,2.39-1.06,2.39-2.64s-.94-2.58-2.39-2.58Z"/>
        </g>
        <g>
          <polygon class="cls-3" points="210.15 139.17 212.68 139.17 212.68 142.89 214.18 142.89 214.18 145.06 212.68 145.06 212.68 152.98 210.15 152.98 210.15 145.06 208.86 145.06 208.86 142.89 210.15 142.89 210.15 139.17"/>
          <path d="M213.05,153.36h-3.28v-7.92h-1.29v-2.92h1.29v-3.72h3.28v3.72h1.5v2.92h-1.5v7.92ZM210.53,152.61h1.78v-7.92h1.5v-1.42h-1.5v-3.72h-1.78v3.72h-1.29v1.42h1.29v7.92Z"/>
        </g>
        <g>
          <path class="cls-3" d="M215.56,139h2.53v4.92c.97-.84,1.9-1.29,2.98-1.29,1.9,0,3.46,1.24,3.46,3.69v6.67h-2.53v-4.77c0-2.05-.25-3.27-1.73-3.27-.7,0-1.31.36-1.71.99-.51.8-.48,1.71-.48,2.75v4.29h-2.53v-13.98h0Z"/>
          <path d="M224.91,153.37h-3.28v-5.15c0-2.22-.32-2.89-1.36-2.89-.56,0-1.06.29-1.39.82-.42.67-.42,1.46-.42,2.38v4.83h-3.28v-14.73h3.29v4.52c.86-.61,1.71-.89,2.61-.89,1.91,0,3.83,1.26,3.83,4.07v7.04ZM222.38,152.62h1.78v-6.29c0-2.44-1.59-3.32-3.08-3.32-.93,0-1.78.37-2.74,1.2l-.62.54v-5.37h-1.79v13.23h1.78v-4.08c0-1,0-1.94.54-2.79.47-.74,1.21-1.16,2.03-1.16,1.94,0,2.11,1.8,2.11,3.64v4.4Z"/>
        </g>
        <g>
          <path class="cls-3" d="M229.77,151.79c0,.8-.63,1.46-1.44,1.46s-1.46-.67-1.46-1.46.67-1.44,1.46-1.44,1.44.65,1.44,1.44"/>
          <path d="M228.33,153.63c-1.01,0-1.83-.82-1.83-1.83s.84-1.82,1.83-1.82,1.81.81,1.81,1.82-.81,1.83-1.81,1.83ZM228.33,150.73c-.59,0-1.08.49-1.08,1.07s.49,1.08,1.08,1.08,1.06-.48,1.06-1.08-.48-1.07-1.06-1.07Z"/>
        </g>
        <g>
          <polygon class="cls-3" points="237.9 139.34 240.5 139.34 240.5 144.03 244.2 139.34 247.33 139.34 242.54 145.42 247.78 152.98 244.7 152.98 240.48 146.92 240.48 152.98 237.88 152.98 237.88 139.34 237.9 139.34"/>
          <path d="M248.5,153.36h-3.99l-3.65-5.24v5.24h-3.35v-14.39h3.37v3.98l3.14-3.98h4.08l-5.1,6.47,5.49,7.92ZM244.9,152.61h2.17l-4.99-7.2,4.48-5.69h-2.18l-4.26,5.4v-5.4h-1.87v12.89h1.85v-6.88l4.79,6.88Z"/>
        </g>
        <g>
          <path class="cls-3" d="M251.98,140.41c0,.89-.72,1.62-1.61,1.62s-1.61-.82-1.61-1.75c0-.87.74-1.54,1.61-1.54s1.61.76,1.61,1.67M249.11,142.9h2.53v10.09h-2.53v-10.09Z"/>
          <path d="M252.01,153.37h-3.28v-10.84h3.28v10.84ZM249.49,152.62h1.78v-9.34h-1.78v9.34ZM250.37,142.41c-1.08,0-1.99-.97-1.99-2.12,0-1.06.89-1.92,1.99-1.92s1.98.94,1.98,2.04-.89,2-1.98,2ZM250.37,139.12c-.68,0-1.24.52-1.24,1.17,0,.75.57,1.38,1.24,1.38s1.23-.56,1.23-1.25-.57-1.29-1.23-1.29Z"/>
        </g>
        <g>
          <path class="cls-3" d="M255.52,144.17c.48-1.04,1.29-1.54,2.13-1.54.53,0,.85.15,1.1.27l-.78,2.17c-.19-.09-.48-.21-.74-.21-.72,0-1.29.84-1.35,2.32-.02.55-.02,1.18-.02,1.73v4.08h-2.53v-10.09h2.18v1.27h0Z"/>
          <path d="M256.24,153.37h-3.28v-10.84h2.93v.46c.49-.48,1.09-.73,1.77-.73.62,0,1.01.18,1.26.31l.31.15-1.04,2.88-.37-.18c-.24-.12-.44-.17-.58-.17-.53,0-.93.81-.97,1.96-.02.54-.02,1.17-.02,1.72v4.46ZM253.71,152.62h1.78v-3.71c0-.55,0-1.19.02-1.74.07-1.63.74-2.68,1.72-2.68.16,0,.33.03.52.09l.53-1.47c-.17-.06-.36-.1-.63-.1-.75,0-1.4.48-1.79,1.32l-.1.22h-.62v-1.27h-1.43v9.34Z"/>
        </g>
        <g>
          <path class="cls-3" d="M269.25,151.14c-1.08,1.41-2.6,2.11-4.58,2.11-3.44,0-5.66-2.34-5.66-5.28s2.36-5.34,5.7-5.34c1.98,0,3.65.82,4.65,2.3l-2.11,1.16c-.72-.76-1.42-1.14-2.53-1.14-1.94,0-3.17,1.31-3.17,3.06s1.2,2.93,3.06,2.93c1.12,0,2.01-.38,2.64-1.16l2,1.37h0Z"/>
          <path d="M264.67,153.63c-3.5,0-6.04-2.38-6.04-5.66s2.61-5.71,6.08-5.71c2.12,0,3.89.88,4.96,2.46l.23.34-2.72,1.5-.2-.21c-.71-.75-1.32-1.02-2.26-1.02-1.67,0-2.79,1.08-2.79,2.68s1.05,2.56,2.69,2.56c1.03,0,1.79-.33,2.35-1.02l.22-.27,1.99,1.36.46-.6v1.83l-.31-.21c-1.13,1.31-2.69,1.97-4.65,1.97ZM264.71,143.01c-3.04,0-5.33,2.13-5.33,4.96s2.17,4.91,5.29,4.91c1.72,0,3.04-.54,4.02-1.65l-1.38-.95c-.68.69-1.58,1.04-2.7,1.04-2.05,0-3.44-1.33-3.44-3.31s1.46-3.43,3.54-3.43c1.05,0,1.82.31,2.6,1.05l1.49-.82c-.94-1.17-2.38-1.8-4.09-1.8Z"/>
        </g>
        <g>
          <path class="cls-3" d="M271.67,139h2.53v4.92c.97-.84,1.9-1.29,2.98-1.29,1.9,0,3.46,1.24,3.46,3.69v6.67h-2.53v-4.77c0-2.05-.25-3.27-1.73-3.27-.7,0-1.31.36-1.71.99-.51.8-.48,1.71-.48,2.75v4.29h-2.53v-13.98h.01Z"/>
          <path d="M281.01,153.37h-3.28v-5.15c0-2.22-.32-2.89-1.36-2.89-.56,0-1.06.29-1.39.82-.42.67-.42,1.46-.42,2.39v4.83h-3.28v-14.73h3.29v4.52c.86-.61,1.71-.89,2.6-.89,1.91,0,3.83,1.26,3.83,4.07v7.04ZM278.49,152.62h1.78v-6.29c0-2.44-1.59-3.32-3.08-3.32-.93,0-1.78.37-2.73,1.2l-.62.54v-5.37h-1.79v13.23h1.78v-4.08c0-1,0-1.94.54-2.79.47-.74,1.21-1.16,2.03-1.16,1.94,0,2.11,1.8,2.11,3.64v4.4Z"/>
        </g>
        <g>
          <path class="cls-3" d="M292.51,151.03c-1.08,1.54-2.51,2.22-4.64,2.22-3.21,0-5.28-2.36-5.28-5.32,0-2.75,1.99-5.3,5.24-5.3s5.36,2.28,5.36,5.47c0,.23-.02.34-.02.57h-8.13c.25,1.5,1.39,2.34,2.83,2.34,1.08,0,1.8-.3,2.51-.99l2.13,1.01ZM290.65,146.68c-.34-1.18-1.42-1.9-2.77-1.9-1.25,0-2.22.63-2.72,1.9h5.49Z"/>
          <path d="M287.87,153.63c-3.28,0-5.66-2.4-5.66-5.7,0-2.75,1.97-5.67,5.62-5.67,3.38,0,5.73,2.4,5.73,5.84,0,.12,0,.22-.01.31,0,.08,0,.16,0,.26v.38h-8.03c.33,1,1.18,1.59,2.35,1.59.96,0,1.59-.25,2.25-.88l.19-.18,2.77,1.31-.26.36c-1.15,1.65-2.68,2.38-4.95,2.38ZM287.83,143.01c-3.16,0-4.87,2.54-4.87,4.92,0,2.91,2.02,4.95,4.91,4.95,1.85,0,3.09-.51,4.06-1.7l-1.48-.7c-.73.64-1.52.92-2.58.92-1.67,0-2.93-1.04-3.2-2.65l-.07-.44h8.21c0-.06,0-.12,0-.2,0-3.05-2-5.09-4.98-5.09ZM291.15,147.06h-6.54l.2-.51c.54-1.38,1.63-2.14,3.07-2.14,1.52,0,2.75.85,3.13,2.17l.14.48ZM285.76,146.31h4.33c-.41-.72-1.22-1.15-2.21-1.15-.93,0-1.65.39-2.12,1.15Z"/>
        </g>
        <g>
          <path class="cls-3" d="M297.73,143.92c.97-.82,1.86-1.29,2.98-1.29,1.88,0,3.46,1.29,3.46,3.46v6.9h-2.53v-4.77c0-1.99-.17-3.27-1.71-3.27-.7,0-1.31.34-1.71.97-.51.82-.49,1.73-.49,2.77v4.29h-2.53v-10.09h2.53v1.03Z"/>
          <path d="M304.54,153.37h-3.28v-5.15c0-2.27-.29-2.89-1.33-2.89-.58,0-1.06.28-1.39.8-.43.7-.43,1.51-.43,2.46v4.78h-3.28v-10.84h3.28v.64c.89-.62,1.7-.9,2.61-.9,2.22,0,3.83,1.61,3.83,3.83v7.28ZM302.01,152.62h1.78v-6.53c0-1.82-1.27-3.08-3.08-3.08-.94,0-1.73.35-2.74,1.2l-.62.52v-1.46h-1.78v9.34h1.78v-4.03c0-1.02,0-1.98.55-2.86.47-.74,1.19-1.15,2.03-1.15,2.08,0,2.08,2.11,2.08,3.64v4.4Z"/>
        </g>
        <g>
          <path class="cls-3" d="M316.6,151.54c0,1.96-.38,3.27-1.54,4.25-.91.76-2.13,1.12-3.67,1.12-2.77,0-4.54-1.08-5.22-3.19h2.79c.51.61,1.27.87,2.34.87.93,0,1.69-.25,2.15-.67.61-.57.63-1.25.63-2.2-.84.82-1.75,1.25-3.06,1.25-2.72,0-4.84-2.17-4.84-5.19s2.15-5.17,4.71-5.17c1.25,0,2.24.47,3.19,1.37v-1.1h2.53v8.66ZM308.72,147.82c0,1.67,1.2,2.85,2.77,2.85s2.72-1.12,2.72-2.83-1.08-2.89-2.75-2.89-2.74,1.31-2.74,2.87"/>
          <path d="M311.39,157.29c-2.92,0-4.85-1.19-5.58-3.45l-.16-.49h3.48l.11.13c.42.5,1.07.74,2.05.74.81,0,1.5-.21,1.9-.57.32-.3.44-.64.48-1.1-.78.55-1.62.8-2.66.8-2.97,0-5.21-2.39-5.21-5.56s2.23-5.54,5.08-5.54c1.04,0,1.95.3,2.82.94v-.67h3.28v9.13c-.03,2.16-.51,3.45-1.68,4.44-.97.81-2.25,1.21-3.91,1.21ZM306.71,154.1c.73,1.62,2.3,2.44,4.67,2.44,1.48,0,2.6-.34,3.43-1.03,1-.84,1.41-1.99,1.41-3.96v-8.29s-1.77,0-1.77,0v1.6l-.63-.6c-.92-.88-1.83-1.27-2.93-1.27-2.43,0-4.33,2.11-4.33,4.79s1.92,4.81,4.46,4.81c1.14,0,1.98-.34,2.8-1.14l.64-.62v.89c0,.91,0,1.77-.75,2.47-.55.5-1.4.77-2.41.77-1.14,0-1.94-.28-2.51-.87h-2.08ZM311.49,151.05c-1.79,0-3.15-1.39-3.15-3.22s1.34-3.25,3.12-3.25c1.87,0,3.12,1.31,3.12,3.26s-1.27,3.21-3.09,3.21ZM311.46,145.33c-1.55,0-2.37,1.25-2.37,2.5,0,1.43,1.01,2.47,2.4,2.47s2.34-.99,2.34-2.46-.93-2.51-2.38-2.51Z"/>
        </g>
        <g>
          <path class="cls-3" d="M328.61,151.03c-1.08,1.54-2.51,2.22-4.64,2.22-3.21,0-5.28-2.36-5.28-5.32,0-2.75,2-5.3,5.24-5.3s5.36,2.28,5.36,5.47c0,.23-.02.34-.02.57h-8.13c.25,1.5,1.39,2.34,2.83,2.34,1.08,0,1.8-.3,2.51-.99l2.13,1.01ZM326.75,146.68c-.34-1.18-1.42-1.9-2.77-1.9-1.25,0-2.22.63-2.72,1.9h5.49Z"/>
          <path d="M323.97,153.63c-3.28,0-5.66-2.4-5.66-5.7,0-2.75,1.97-5.67,5.62-5.67,3.38,0,5.74,2.4,5.74,5.84,0,.12,0,.22-.01.31,0,.08,0,.16,0,.26v.38h-8.03c.33,1,1.18,1.59,2.35,1.59.96,0,1.59-.25,2.25-.88l.19-.18,2.77,1.31-.26.36c-1.15,1.65-2.68,2.38-4.95,2.38ZM323.93,143.01c-3.16,0-4.87,2.54-4.87,4.92,0,2.91,2.02,4.95,4.91,4.95,1.85,0,3.09-.51,4.06-1.7l-1.49-.7c-.73.64-1.52.92-2.58.92-1.67,0-2.93-1.04-3.2-2.65l-.07-.44h8.21c0-.06,0-.12,0-.2,0-3.05-2-5.09-4.99-5.09ZM327.25,147.06h-6.54l.2-.51c.54-1.38,1.63-2.14,3.07-2.14,1.52,0,2.75.85,3.13,2.17l.14.48ZM321.86,146.31h4.33c-.41-.72-1.22-1.15-2.21-1.15-.93,0-1.65.39-2.12,1.15Z"/>
        </g>
        <g>
          <path class="cls-3" d="M340.31,152.98h-2.53v-4.88c0-1.96-.38-3.15-1.79-3.15-1.25,0-2.17,1.03-2.17,3.1v4.94h-2.53v-10.09h2.53v1.16c.85-.93,1.96-1.42,3.15-1.42s2.32.59,2.94,1.8c.93-1.18,1.86-1.8,3.38-1.8,1.12,0,2.13.46,2.7,1.18.67.84.74,1.94.74,3.27v5.91h-2.53v-5.57c0-1.65-.59-2.47-1.73-2.47-1.27,0-2.18.99-2.18,3.06v4.98l.02-.02Z"/>
          <path d="M339.92,153.91v-.55h-2.51v-5.26c0-2.3-.57-2.77-1.42-2.77-1.12,0-1.79,1.02-1.79,2.72v5.32h-3.28v-10.84h3.28v.68c.8-.61,1.76-.94,2.77-.94,1.22,0,2.3.56,2.99,1.53.97-1.08,1.97-1.53,3.33-1.53,1.22,0,2.34.49,2.99,1.32.76.95.82,2.15.82,3.5v6.29h-3.28v-5.95c0-1.88-.77-2.09-1.36-2.09-1.15,0-1.8.98-1.8,2.69v4.58h.55l-1.3,1.3ZM344.58,152.63h1.78v-5.54c0-1.21-.05-2.27-.66-3.04-.51-.64-1.43-1.04-2.41-1.04-1.28,0-2.15.46-3.08,1.66l-.36.46-.27-.52c-.52-1.01-1.47-1.6-2.61-1.6s-2.1.45-2.87,1.3l-.65.71v-1.75h-1.78v9.34h1.78v-4.57c0-2.56,1.31-3.47,2.54-3.47,2.17,0,2.17,2.47,2.17,3.52v4.51h1.76v-4.58c0-2.15.96-3.44,2.55-3.44.96,0,2.11.49,2.11,2.84v5.2Z"/>
        </g>
        <g>
          <path class="cls-3" d="M358.63,151.03c-1.08,1.54-2.51,2.22-4.64,2.22-3.21,0-5.28-2.36-5.28-5.32,0-2.75,2-5.3,5.24-5.3s5.36,2.28,5.36,5.47c0,.23-.02.34-.02.57h-8.13c.25,1.5,1.39,2.34,2.83,2.34,1.08,0,1.8-.3,2.51-.99l2.13,1.01ZM356.77,146.68c-.34-1.18-1.42-1.9-2.77-1.9-1.25,0-2.22.63-2.72,1.9h5.49Z"/>
          <path d="M353.99,153.63c-3.28,0-5.66-2.4-5.66-5.7,0-2.75,1.97-5.67,5.62-5.67,3.38,0,5.73,2.4,5.73,5.84,0,.12,0,.22-.01.31,0,.08,0,.16,0,.26v.38h-8.03c.33,1,1.18,1.59,2.35,1.59.96,0,1.59-.25,2.25-.88l.19-.18,2.77,1.31-.26.36c-1.15,1.65-2.68,2.38-4.95,2.38ZM353.95,143.01c-3.16,0-4.87,2.54-4.87,4.92,0,2.91,2.02,4.95,4.91,4.95,1.85,0,3.09-.51,4.06-1.7l-1.48-.7c-.73.64-1.52.92-2.58.92-1.67,0-2.93-1.04-3.2-2.65l-.07-.44h8.21c0-.06,0-.12,0-.2,0-3.05-2-5.09-4.98-5.09ZM357.27,147.06h-6.54l.2-.51c.54-1.38,1.63-2.14,3.07-2.14,1.52,0,2.75.85,3.13,2.17l.14.48ZM351.88,146.31h4.33c-.41-.72-1.21-1.15-2.21-1.15-.93,0-1.65.39-2.12,1.15Z"/>
        </g>
        <g>
          <path class="cls-3" d="M363.95,140.41c0,.89-.72,1.62-1.62,1.62s-1.61-.82-1.61-1.75c0-.87.74-1.54,1.61-1.54s1.62.76,1.62,1.67M361.08,142.9h2.53v10.09h-2.53v-10.09Z"/>
          <path d="M363.99,153.37h-3.28v-10.84h3.28v10.84ZM361.46,152.62h1.78v-9.34h-1.78v9.34ZM362.33,142.41c-1.09,0-1.99-.95-1.99-2.12,0-1.06.89-1.92,1.99-1.92s2,.94,2,2.04-.89,2-2,2ZM362.33,139.12c-.68,0-1.24.52-1.24,1.17,0,.75.57,1.38,1.24,1.38s1.25-.56,1.25-1.25-.57-1.29-1.25-1.29Z"/>
        </g>
        <g>
          <path class="cls-3" d="M368.42,143.92c.97-.82,1.86-1.29,2.98-1.29,1.88,0,3.46,1.29,3.46,3.46v6.9h-2.53v-4.77c0-1.99-.17-3.27-1.71-3.27-.7,0-1.31.34-1.71.97-.51.82-.49,1.73-.49,2.77v4.29h-2.53v-10.09h2.53v1.03Z"/>
          <path d="M375.24,153.37h-3.28v-5.15c0-2.27-.29-2.89-1.33-2.89-.57,0-1.07.28-1.39.8-.43.7-.43,1.51-.43,2.46v4.78h-3.28v-10.84h3.28v.64c.89-.62,1.7-.9,2.61-.9,2.22,0,3.83,1.61,3.83,3.83v7.28ZM372.71,152.62h1.78v-6.53c0-1.82-1.27-3.08-3.08-3.08-.94,0-1.73.35-2.74,1.2l-.62.52v-1.46h-1.78v9.34h1.78v-4.03c0-1.02,0-1.98.55-2.86.47-.74,1.19-1.15,2.03-1.15,2.08,0,2.08,2.11,2.08,3.64v4.4Z"/>
        </g>
        <g>
          <path class="cls-3" d="M384.75,151.92c-.89.87-1.84,1.33-3.12,1.33-2.56,0-4.81-2.2-4.81-5.3s2.13-5.32,4.75-5.32c1.22,0,2.26.46,3.17,1.37v-5h2.53v13.98h-2.53v-1.06h.01ZM379.38,147.93c0,1.73,1.14,3,2.72,3s2.77-1.18,2.77-3.02-1.18-2.96-2.77-2.96-2.72,1.33-2.72,2.98Z"/>
          <path d="M381.63,153.63c-2.91,0-5.18-2.49-5.18-5.67s2.2-5.7,5.12-5.7c1.04,0,1.96.3,2.79.92v-4.55h3.28v14.73h-3.28v-.61c-.82.61-1.69.88-2.74.88ZM381.57,143.01c-2.49,0-4.38,2.13-4.38,4.95s1.95,4.92,4.43,4.92c1.06,0,1.91-.34,2.74-1.11v-.22h1.29l-.54.54v.52h1.78v-13.23h-1.78v5.53l-.64-.64c-.85-.85-1.8-1.26-2.9-1.26ZM382.1,151.31c-1.79,0-3.09-1.42-3.09-3.38s1.33-3.35,3.09-3.35c1.85,0,3.15,1.37,3.15,3.33s-1.29,3.39-3.15,3.39ZM382.1,145.33c-1.34,0-2.34,1.12-2.34,2.6s.99,2.62,2.34,2.62c1.43,0,2.4-1.06,2.4-2.64s-.94-2.58-2.4-2.58Z"/>
        </g>
        <g>
          <path class="cls-3" d="M399.29,151.03c-1.08,1.54-2.51,2.22-4.64,2.22-3.21,0-5.28-2.36-5.28-5.32,0-2.75,2-5.3,5.24-5.3s5.36,2.28,5.36,5.47c0,.23-.02.34-.02.57h-8.13c.25,1.5,1.39,2.34,2.83,2.34,1.08,0,1.81-.3,2.51-.99l2.13,1.01ZM397.43,146.68c-.34-1.18-1.42-1.9-2.77-1.9-1.25,0-2.22.63-2.72,1.9h5.49Z"/>
          <path d="M394.65,153.63c-3.28,0-5.66-2.4-5.66-5.7,0-2.75,1.97-5.67,5.62-5.67,3.38,0,5.73,2.4,5.73,5.84,0,.12,0,.22-.01.31,0,.08,0,.16,0,.26v.38h-8.03c.33,1,1.18,1.59,2.35,1.59.96,0,1.61-.26,2.25-.88l.19-.18,2.77,1.31-.26.36c-1.15,1.65-2.68,2.38-4.95,2.38ZM394.61,143.01c-3.16,0-4.87,2.54-4.87,4.92,0,2.91,2.02,4.95,4.91,4.95,1.85,0,3.09-.51,4.06-1.7l-1.48-.7c-.73.64-1.51.92-2.58.92-1.67,0-2.93-1.04-3.2-2.65l-.07-.44h8.21c0-.06,0-.12,0-.2,0-3.05-2-5.09-4.98-5.09ZM397.93,147.06h-6.54l.2-.51c.54-1.38,1.63-2.14,3.07-2.14,1.52,0,2.75.85,3.13,2.17l.14.48ZM392.54,146.31h4.33c-.41-.72-1.21-1.15-2.21-1.15-.93,0-1.65.39-2.12,1.15Z"/>
        </g>
        <g>
          <path class="cls-3" d="M407.57,139.34h3.17c1.77,0,3,.27,3.86,1.1.67.65,1.1,1.69,1.1,2.85,0,1.44-.59,2.53-1.73,3.23-1.16.7-2.37.68-3.8.68v5.78h-2.6v-13.64ZM410.18,144.68h1.22c1.18,0,1.77-.46,1.77-1.39s-.65-1.41-1.88-1.41h-1.1v2.79h-.01Z"/>
          <path d="M410.54,153.36h-3.35v-14.39h3.54c2.01,0,3.25.36,4.12,1.21.77.75,1.21,1.89,1.21,3.12,0,1.56-.66,2.78-1.91,3.55-1.15.69-2.3.73-3.62.74v5.78ZM407.95,152.61h1.85v-5.78h.49c1.38,0,2.45,0,3.49-.63,1.03-.63,1.55-1.61,1.55-2.91,0-1.02-.37-1.98-.99-2.58-.72-.7-1.8-1-3.6-1h-2.79v12.89ZM411.4,145.06h-2.13l.54-.54v-3.01h1.48c2.04,0,2.25,1.25,2.25,1.79,0,.66-.28,1.76-2.14,1.76ZM410.56,144.31h.84c1.23,0,1.39-.51,1.39-1.01,0-.28,0-1.04-1.5-1.04h-.73v2.05Z"/>
        </g>
        <g>
          <path class="cls-3" d="M425.41,151.92c-.89.87-1.84,1.33-3.12,1.33-2.56,0-4.81-2.2-4.81-5.3s2.13-5.32,4.75-5.32c1.22,0,2.26.46,3.17,1.37v-1.1h2.53v10.09h-2.53v-1.06h.01ZM420.04,147.93c0,1.73,1.14,3,2.72,3s2.77-1.18,2.77-3.02-1.18-2.96-2.77-2.96-2.72,1.33-2.72,2.98Z"/>
          <path d="M422.29,153.63c-2.91,0-5.19-2.49-5.19-5.67s2.2-5.7,5.12-5.7c1.04,0,1.96.3,2.8.92v-.65h3.28v10.84h-3.28v-.62c-.82.61-1.69.88-2.74.88ZM422.23,143.01c-2.49,0-4.38,2.13-4.38,4.95s1.95,4.92,4.44,4.92c1.11,0,1.99-.38,2.86-1.22l.27.28h.35v.69h1.78v-9.34h-1.78v1.63l-.64-.64c-.85-.85-1.8-1.26-2.91-1.26ZM422.76,151.31c-1.79,0-3.09-1.42-3.09-3.38s1.33-3.35,3.09-3.35c1.85,0,3.15,1.37,3.15,3.33s-1.29,3.39-3.15,3.39ZM422.76,145.33c-1.34,0-2.34,1.12-2.34,2.6s.99,2.62,2.34,2.62c1.43,0,2.4-1.06,2.4-2.64s-.94-2.58-2.4-2.58Z"/>
        </g>
        <g>
          <path class="cls-3" d="M433.01,144c.91-.91,1.96-1.37,3.17-1.37,2.6,0,4.77,2.17,4.77,5.32s-2.26,5.3-4.83,5.3c-1.27,0-2.2-.46-3.12-1.33v4.75h-2.53v-13.77h2.53v1.1h0ZM432.9,147.91c0,1.82,1.22,3.02,2.77,3.02s2.74-1.27,2.74-3-1.06-2.98-2.74-2.98-2.77,1.2-2.77,2.96Z"/>
          <path d="M433.38,157.05h-3.28v-14.52h3.28v.66c.83-.62,1.78-.93,2.8-.93,2.93,0,5.15,2.45,5.15,5.7s-2.29,5.67-5.21,5.67c-1.03,0-1.9-.28-2.75-.9v4.32ZM430.84,156.3h1.78v-5.25l.63.6c.91.86,1.77,1.23,2.86,1.23,2.5,0,4.46-2.16,4.46-4.92s-1.89-4.95-4.4-4.95c-1.11,0-2.06.41-2.9,1.26l-.11.11h-.54v-1.1h-1.78v13.02ZM435.67,151.31c-1.82,0-3.14-1.43-3.14-3.39s1.26-3.33,3.14-3.33,3.12,1.38,3.12,3.35-1.34,3.38-3.12,3.38ZM435.67,145.33c-1.46,0-2.39,1.01-2.39,2.58s.98,2.64,2.39,2.64,2.37-1.13,2.37-2.62c0-1.58-.93-2.6-2.37-2.6Z"/>
        </g>
        <g>
          <path class="cls-3" d="M445.04,148.61c-1.61-.82-2.43-1.8-2.43-3.08,0-1.58,1.33-2.91,3.27-2.91,1.31,0,2.51.59,3.33,1.67l-1.56,1.58c-.57-.57-1.14-.93-1.75-.93-.51,0-.91.21-.91.61s.36.55.91.84l.93.47c1.67.85,2.56,1.73,2.56,3.23,0,1.8-1.42,3.15-3.63,3.15-1.46,0-2.66-.59-3.53-1.73l1.56-1.71c.59.68,1.44,1.18,2.11,1.18.63,0,1.12-.36,1.12-.82s-.42-.76-1.12-1.12l-.86-.44h0Z"/>
          <path d="M445.76,153.62c-1.57,0-2.89-.65-3.83-1.88l-.19-.25,2.06-2.25.28.32c.54.62,1.29,1.05,1.83,1.05.4,0,.74-.2.74-.45s-.25-.44-.92-.79l-.86-.43c-1.77-.9-2.63-2.02-2.63-3.41,0-1.87,1.57-3.29,3.64-3.29,1.43,0,2.75.66,3.63,1.82l.2.26-2.05,2.08-.27-.27c-.56-.56-1.03-.82-1.48-.82-.19,0-.54.05-.54.23,0,.12.12.2.57.44l1.06.54c1.44.73,2.77,1.67,2.77,3.56,0,2.08-1.65,3.53-4,3.53ZM442.72,151.53c.78.89,1.8,1.34,3.04,1.34,1.95,0,3.25-1.12,3.25-2.78,0-1.24-.64-2.02-2.35-2.9l-1.07-.54c-.5-.26-.97-.51-.97-1.1s.52-.98,1.29-.98c.58,0,1.14.25,1.74.78l1.07-1.08c-.73-.82-1.72-1.27-2.83-1.27-1.65,0-2.89,1.09-2.89,2.54,0,1,.59,1.82,1.85,2.54l1.24.63c.67.35,1.32.74,1.32,1.45,0,.67-.66,1.2-1.49,1.2-.66,0-1.46-.39-2.1-1.01l-1.07,1.17Z"/>
        </g>
        <g>
          <polygon class="cls-3" points="451.69 139.17 454.22 139.17 454.22 142.89 455.72 142.89 455.72 145.06 454.22 145.06 454.22 152.98 451.69 152.98 451.69 145.06 450.4 145.06 450.4 142.89 451.69 142.89 451.69 139.17"/>
          <path d="M454.59,153.36h-3.28v-7.92h-1.29v-2.92h1.29v-3.72h3.28v3.72h1.5v2.92h-1.5v7.92ZM452.06,152.61h1.78v-7.92h1.5v-1.42h-1.5v-3.72h-1.78v3.72h-1.29v1.42h1.29v7.92Z"/>
        </g>
        <g>
          <path class="cls-3" d="M466.09,139.34h2.6v9.52c0,1.35-.11,2.39-.72,3.23-.59.8-1.52,1.23-2.66,1.23-1.44,0-2.79-.67-3.84-1.98l1.86-1.75c.63.68,1.2,1.18,1.92,1.18.59,0,.84-.49.84-1.48v-9.95Z"/>
          <path d="M465.31,153.7c-1.57,0-3.04-.75-4.13-2.12l-.22-.27,2.39-2.25.26.28c.61.66,1.09,1.06,1.64,1.06.15,0,.46,0,.46-1.11v-10.33h3.35v9.9c0,1.46-.13,2.54-.79,3.45-.66.89-1.71,1.38-2.96,1.38ZM461.99,151.37c.93,1.03,2.07,1.58,3.32,1.58,1.02,0,1.84-.37,2.36-1.08.54-.74.65-1.7.65-3.01v-9.15h-1.85v9.58c0,1.23-.41,1.86-1.21,1.86s-1.39-.48-1.93-1.03l-1.33,1.25Z"/>
        </g>
        <g>
          <path class="cls-3" d="M481.63,147.93c0,2.93-2.26,5.32-5.34,5.32s-5.24-2.34-5.24-5.3,2.47-5.32,5.22-5.32c2.94,0,5.36,2.32,5.36,5.3M473.6,147.93c0,1.71,1.08,2.93,2.72,2.93s2.77-1.14,2.77-2.91-1.12-2.93-2.77-2.93-2.72,1.24-2.72,2.91"/>
          <path d="M476.29,153.63c-3.2,0-5.62-2.44-5.62-5.67s2.56-5.7,5.59-5.7,5.74,2.55,5.74,5.67-2.51,5.7-5.71,5.7ZM476.27,143.01c-2.63,0-4.84,2.26-4.84,4.95,0,2.85,2.05,4.92,4.87,4.92s4.96-2.17,4.96-4.95-2.24-4.92-4.99-4.92ZM476.32,151.24c-1.82,0-3.1-1.36-3.1-3.31s1.27-3.28,3.1-3.28,3.14,1.33,3.14,3.3-1.26,3.29-3.14,3.29ZM476.32,145.4c-1.4,0-2.35,1.02-2.35,2.53s.94,2.56,2.35,2.56,2.39-1,2.39-2.54-.94-2.55-2.39-2.55Z"/>
        </g>
        <g>
          <path class="cls-3" d="M483.71,139h2.53v4.92c.97-.84,1.9-1.29,2.98-1.29,1.9,0,3.46,1.24,3.46,3.69v6.67h-2.53v-4.77c0-2.05-.25-3.27-1.73-3.27-.7,0-1.31.36-1.71.99-.51.8-.47,1.71-.47,2.75v4.29h-2.53v-13.98Z"/>
          <path d="M493.05,153.37h-3.28v-5.15c0-2.22-.32-2.89-1.36-2.89-.56,0-1.06.29-1.39.82-.42.65-.41,1.43-.41,2.34v4.88h-3.28v-14.73h3.28v4.52c.86-.61,1.71-.89,2.6-.89,1.91,0,3.83,1.26,3.83,4.07v7.04ZM490.53,152.62h1.78v-6.29c0-2.44-1.59-3.32-3.08-3.32-.93,0-1.78.37-2.73,1.2l-.62.54v-5.37h-1.78v13.23h1.78v-4.13c0-.98,0-1.9.53-2.74.47-.74,1.21-1.16,2.03-1.16,1.94,0,2.11,1.8,2.11,3.64v4.4Z"/>
        </g>
        <g>
          <path class="cls-3" d="M502.55,151.92c-.89.87-1.84,1.33-3.12,1.33-2.56,0-4.81-2.2-4.81-5.3s2.13-5.32,4.75-5.32c1.22,0,2.26.46,3.17,1.37v-1.1h2.53v10.09h-2.53v-1.06h.01ZM497.18,147.93c0,1.73,1.14,3,2.72,3s2.77-1.18,2.77-3.02-1.18-2.96-2.77-2.96-2.72,1.33-2.72,2.98Z"/>
          <path d="M499.43,153.63c-2.91,0-5.18-2.49-5.18-5.67s2.2-5.7,5.12-5.7c1.04,0,1.96.3,2.79.92v-.65h3.28v10.84h-3.28v-.62c-.82.61-1.69.88-2.74.88ZM499.37,143.01c-2.49,0-4.38,2.13-4.38,4.95s1.95,4.92,4.43,4.92c1.11,0,1.99-.38,2.86-1.22l.27.28h.35v.69h1.78v-9.34h-1.78v1.63l-.64-.64c-.85-.85-1.8-1.26-2.9-1.26ZM499.9,151.31c-1.79,0-3.1-1.42-3.1-3.38s1.33-3.35,3.1-3.35c1.85,0,3.14,1.37,3.14,3.33s-1.29,3.39-3.14,3.39ZM499.9,145.33c-1.34,0-2.35,1.12-2.35,2.6s.99,2.62,2.35,2.62c1.43,0,2.39-1.06,2.39-2.64s-.94-2.58-2.39-2.58Z"/>
        </g>
        <g>
          <path class="cls-3" d="M510.15,143.92c.97-.82,1.86-1.29,2.98-1.29,1.88,0,3.46,1.29,3.46,3.46v6.9h-2.53v-4.77c0-1.99-.17-3.27-1.71-3.27-.7,0-1.31.34-1.71.97-.51.82-.49,1.73-.49,2.77v4.29h-2.53v-10.09h2.53v1.03Z"/>
          <path d="M516.96,153.37h-3.28v-5.15c0-2.27-.29-2.89-1.33-2.89-.57,0-1.07.28-1.39.8-.43.7-.43,1.51-.43,2.45v4.78h-3.28v-10.84h3.28v.64c.89-.62,1.7-.9,2.6-.9,2.22,0,3.83,1.61,3.83,3.83v7.28ZM514.43,152.62h1.78v-6.53c0-1.82-1.27-3.08-3.08-3.08-.94,0-1.73.35-2.74,1.2l-.62.52v-1.46h-1.78v9.34h1.78v-4.03c0-1.01,0-1.97.55-2.85.47-.74,1.19-1.15,2.03-1.15,2.08,0,2.08,2.11,2.08,3.64v4.4Z"/>
        </g>
        <g>
          <path class="cls-3" d="M521.55,143.92c.97-.82,1.86-1.29,2.98-1.29,1.88,0,3.46,1.29,3.46,3.46v6.9h-2.53v-4.77c0-1.99-.17-3.27-1.71-3.27-.7,0-1.31.34-1.71.97-.51.82-.49,1.73-.49,2.77v4.29h-2.53v-10.09h2.53v1.03Z"/>
          <path d="M528.37,153.37h-3.28v-5.15c0-2.27-.29-2.89-1.33-2.89-.57,0-1.07.28-1.39.8-.43.7-.43,1.51-.43,2.46v4.78h-3.28v-10.84h3.28v.64c.89-.62,1.7-.9,2.61-.9,2.22,0,3.83,1.61,3.83,3.83v7.28ZM525.84,152.62h1.78v-6.53c0-1.82-1.27-3.08-3.08-3.08-.94,0-1.73.35-2.74,1.2l-.62.52v-1.46h-1.78v9.34h1.78v-4.03c0-1.02,0-1.98.55-2.86.47-.74,1.19-1.15,2.03-1.15,2.08,0,2.08,2.11,2.08,3.64v4.4Z"/>
        </g>
        <g>
          <path class="cls-3" d="M539.89,151.03c-1.08,1.54-2.51,2.22-4.64,2.22-3.21,0-5.28-2.36-5.28-5.32,0-2.75,2-5.3,5.24-5.3s5.36,2.28,5.36,5.47c0,.23-.02.34-.02.57h-8.13c.25,1.5,1.39,2.34,2.83,2.34,1.08,0,1.8-.3,2.51-.99l2.13,1.01ZM538.03,146.68c-.34-1.18-1.42-1.9-2.77-1.9-1.25,0-2.22.63-2.72,1.9h5.49Z"/>
          <path d="M535.25,153.63c-3.28,0-5.66-2.4-5.66-5.7,0-2.75,1.97-5.67,5.62-5.67,3.38,0,5.74,2.4,5.74,5.84,0,.12,0,.22-.01.31,0,.08,0,.16,0,.26v.38h-8.03c.33,1,1.18,1.59,2.35,1.59.96,0,1.59-.25,2.25-.88l.19-.18,2.77,1.31-.26.36c-1.15,1.65-2.68,2.38-4.95,2.38ZM535.21,143.01c-3.16,0-4.87,2.54-4.87,4.92,0,2.91,2.02,4.95,4.91,4.95,1.85,0,3.09-.51,4.06-1.7l-1.48-.7c-.73.64-1.52.92-2.58.92-1.67,0-2.93-1.04-3.2-2.65l-.07-.44h8.21c0-.06,0-.12,0-.2,0-3.05-2-5.09-4.99-5.09ZM538.53,147.06h-6.54l.2-.51c.54-1.38,1.63-2.14,3.07-2.14,1.54,0,2.74.83,3.13,2.17l.14.48ZM533.14,146.31h4.33c-.41-.72-1.22-1.15-2.21-1.15-.93,0-1.65.39-2.12,1.15Z"/>
        </g>
        <g>
          <path class="cls-3" d="M544.6,148.61c-1.61-.82-2.43-1.8-2.43-3.08,0-1.58,1.33-2.91,3.27-2.91,1.31,0,2.51.59,3.33,1.67l-1.56,1.58c-.57-.57-1.14-.93-1.75-.93-.51,0-.91.21-.91.61s.36.55.91.84l.93.47c1.67.85,2.56,1.73,2.56,3.23,0,1.8-1.42,3.15-3.63,3.15-1.46,0-2.66-.59-3.53-1.73l1.56-1.71c.59.68,1.44,1.18,2.11,1.18.63,0,1.12-.36,1.12-.82s-.42-.76-1.12-1.12l-.86-.44h0Z"/>
          <path d="M545.32,153.62c-1.57,0-2.89-.65-3.83-1.88l-.19-.25,2.05-2.25.28.32c.54.62,1.29,1.05,1.83,1.05.4,0,.75-.2.75-.45s-.25-.44-.92-.79l-.86-.43c-1.77-.9-2.63-2.02-2.63-3.41,0-1.87,1.57-3.29,3.64-3.29,1.43,0,2.75.66,3.63,1.82l.2.26-2.05,2.08-.27-.27c-.56-.56-1.03-.82-1.48-.82-.19,0-.54.05-.54.23,0,.12.12.2.57.43l1.06.54c1.44.73,2.77,1.67,2.77,3.56,0,2.08-1.65,3.53-4,3.53ZM542.29,151.53c.78.89,1.8,1.34,3.04,1.34,1.95,0,3.25-1.12,3.25-2.78,0-1.24-.64-2.02-2.36-2.9l-1.07-.54c-.5-.26-.97-.51-.97-1.1s.52-.98,1.29-.98c.58,0,1.14.25,1.74.78l1.07-1.08c-.73-.82-1.72-1.27-2.83-1.27-1.65,0-2.89,1.09-2.89,2.54,0,1,.59,1.82,1.85,2.54l1.24.63c.67.34,1.32.74,1.32,1.45,0,.67-.66,1.2-1.5,1.2-.66,0-1.46-.39-2.1-1.01l-1.07,1.17Z"/>
        </g>
        <g>
          <polygon class="cls-3" points="555.66 139.34 558.59 139.34 561.46 143.71 564.33 139.34 567.26 139.34 562.93 145.93 567.53 152.98 564.6 152.98 561.47 148.17 558.34 152.98 555.4 152.98 560.02 145.93 555.69 139.34 555.66 139.34"/>
          <path d="M568.22,153.36h-3.83l-2.93-4.5-2.93,4.5h-3.84l4.87-7.43-4.2-6.38.28-.19v-.39h3.13l2.67,4.06,2.67-4.06h3.83l-4.58,6.97,4.84,7.42ZM564.8,152.61h2.04l-4.36-6.68,4.08-6.21h-2.03l-3.07,4.68-3.07-4.68h-2l4.08,6.21-4.37,6.68h2.04l3.33-5.12,3.33,5.12Z"/>
        </g>
        <g>
          <polygon class="cls-3" points="568.58 139.34 571.51 139.34 574.38 143.71 577.25 139.34 580.18 139.34 575.85 145.93 580.45 152.98 577.52 152.98 574.39 148.17 571.26 152.98 568.32 152.98 572.94 145.93 568.61 139.34 568.58 139.34"/>
          <path d="M581.14,153.36h-3.83l-2.93-4.5-2.93,4.5h-3.84l4.87-7.43-4.19-6.38.28-.19v-.39h3.13l2.67,4.06,2.67-4.06h3.83l-4.58,6.97,4.84,7.42ZM577.72,152.61h2.04l-4.36-6.68,4.08-6.21h-2.03l-3.07,4.68-3.07-4.68h-2l4.08,6.21-4.37,6.68h2.04l3.33-5.12,3.33,5.12Z"/>
        </g>
        <g>
          <rect class="cls-3" x="582.2" y="139.34" width="2.6" height="13.64"/>
          <path d="M585.17,153.36h-3.35v-14.39h3.35v14.39ZM582.58,152.61h1.85v-12.89h-1.85v12.89Z"/>
        </g>
        <g>
          <rect class="cls-3" x="587.52" y="139.34" width="2.6" height="13.64"/>
          <path d="M590.5,153.36h-3.35v-14.39h3.35v14.39ZM587.89,152.61h1.85v-12.89h-1.85v12.89Z"/>
        </g>
        <g>
          <rect class="cls-3" x="592.84" y="139.34" width="2.6" height="13.64"/>
          <path d="M595.81,153.36h-3.35v-14.39h3.35v14.39ZM593.21,152.61h1.85v-12.89h-1.85v12.89Z"/>
        </g>
        <g>
          <path class="cls-3" d="M600.9,151.79c0,.8-.63,1.46-1.44,1.46s-1.46-.67-1.46-1.46.66-1.44,1.46-1.44,1.44.65,1.44,1.44"/>
          <path d="M599.46,153.63c-1.01,0-1.83-.82-1.83-1.83s.82-1.82,1.83-1.82,1.82.81,1.82,1.82-.81,1.83-1.82,1.83ZM599.46,150.73c-.59,0-1.08.49-1.08,1.07s.5,1.08,1.08,1.08,1.07-.49,1.07-1.08-.48-1.07-1.07-1.07Z"/>
        </g>
      </g>
    </g>
  </g>
</svg>