<?xml version="1.0" encoding="UTF-8"?>
<svg id="Ebene_2" data-name="Ebene 2" xmlns="http://www.w3.org/2000/svg" xmlns:xlink="http://www.w3.org/1999/xlink" viewBox="0 0 625.61 171.28">
  <defs>
    <style>
      .cls-1 {
        fill: none;
      }

      .cls-2 {
        clip-path: url(#clippath-1);
      }

      .cls-3 {
        fill: #fff;
      }

      .cls-4 {
        clip-path: url(#clippath);
      }
    </style>
    <clipPath id="clippath">
      <rect class="cls-1" width="625.61" height="171.28"/>
    </clipPath>
    <clipPath id="clippath-1">
      <rect class="cls-1" width="625.61" height="171.28"/>
    </clipPath>
  </defs>
  <g id="dastäglichebrot_weiß" data-name="dastäglichebrot weiß">
    <g class="cls-4">
      <g class="cls-2">
        <path class="cls-3" d="M49.08,39.79v-20.12c0-3.5,1.72-5.25,5.16-5.25,2.35,0,4.69.03,7.04,0,1.69-.02,2.47.78,2.41,2.45-.02.59,0,1.17,0,1.76v98.02c0,2.69-1.34,4.03-4.01,4.03-2.43,0-4.87-.14-7.29.04-2.51.19-3.64-.69-3.34-3.25.05-.39.08-.84-.35-1.15-.77.08-.96.83-1.38,1.3-5.08,5.65-13.67,5.05-17.89-1.3-2.49-3.75-3.52-7.98-3.54-12.4-.07-16.25-.06-32.51,0-48.76.02-4.24,1.17-8.22,2.95-12.1,3.62-7.89,13.47-9.37,18.48-4.43.34.33.81.54,1.76,1.15h0ZM49.08,78.41c0-8.37,0-16.74,0-25.11,0-2.49-1.47-4.22-3.73-4.54-2.38-.34-3.93.83-4.73,3.46-.55,1.8-.49,3.64-.49,5.48-.02,14.73,0,29.46,0,44.19,0,.92-.03,1.86.13,2.75.46,2.64,2.41,4.67,4.29,4.58,2.28-.11,4.37-2.51,4.52-5.21.04-.75.02-1.51.03-2.26v-23.35h-.02Z"/>
        <path class="cls-3" d="M476.77,41.9c2.64-3.45,5.14-5.82,9.2-6,5.41-.24,8.93,2.34,11.19,6.93,1.68,3.42,2.56,7.12,2.57,10.92.06,16.16.09,32.32,0,48.49-.03,4.84-1.47,9.36-3.99,13.57-3.7,6.17-12.83,7.55-17.33,1.94-.35-.43-.71-.95-1.37-1-.11.12-.29.23-.31.36-.22,2.39-1.55,3.59-3.98,3.59-2.6,0-5.19-.08-7.79.02-1.91.07-2.75-.6-2.68-2.6.11-2.93.02-5.86.02-8.79V18.13c0-2.49,1.26-3.74,3.78-3.75,2.6,0,5.2.08,7.79-.02,2.06-.08,2.81.73,2.79,2.8-.08,7.45-.03,14.91-.02,22.36,0,.57.06,1.14.14,2.39h0ZM485.45,78.78h.02v-23.85c0-1.26-.07-2.51-.54-3.7-.98-2.53-3.26-3.25-5.43-1.61-2,1.51-2.91,3.52-2.9,6.08.05,11.55.02,23.1.02,34.65,0,4.44-.05,8.87.03,13.31.05,3.08,2.34,5.07,5.21,4.73,2.27-.26,3.53-1.95,3.56-5.25.07-8.12.02-16.23.02-24.35h.01Z"/>
        <path class="cls-3" d="M370.88,67.4V17.88c0-3.32.12-3.43,3.35-3.45,2.68,0,5.36.07,8.04-.02,2.04-.08,2.84.69,2.81,2.78-.08,6.53-.04,13.07,0,19.6,0,.7-.4,1.67.46,2.03.64.27,1.18-.47,1.74-.81,6.31-3.89,14-1.81,17.7,4.72,2.26,3.99,3.09,8.33,3.1,12.8.06,20.61.03,41.22.02,61.83,0,3.08-.18,3.24-3.29,3.26-2.43,0-4.86,0-7.29,0-2.64,0-3.96-1.37-3.97-4.1v-60.83c0-1.86-.09-3.67-1.21-5.29-1.04-1.5-2.43-2-4.15-1.62-1.73.39-2.8,1.49-3.03,3.26-.13.99-.1,2.01-.1,3.01v61.83c0,3.73,0,3.73-3.8,3.73h-6.54c-2.55,0-3.83-1.32-3.84-3.96v-49.26h0Z"/>
        <path class="cls-3" d="M251.71,109.3c-2.15,1.5-3.53,3.41-5.69,4.47-5.73,2.81-12.56.16-15.2-6.04-1.42-3.33-2.3-6.82-2.29-10.48.01-13.9-.03-27.81.03-41.71.02-4.23,1.12-8.23,2.82-12.13,3.31-7.56,13.05-10.05,18.7-4.21.32.33.77.54,1.47,1.03-.23-3.64,1.91-3.79,4.39-3.66,2.34.12,4.69.1,7.03.01,2.18-.08,2.95.89,2.92,3.02-.08,5.95-.03,11.89-.03,17.84,0,17.59-.01,35.18.02,52.77,0,2.79-.37,5.52-1.03,8.2-1.67,6.76-5.75,11.38-12.63,12.88-6.78,1.48-13.62,1.81-20.18-1.24-3.82-1.78-3.88-2.07-2.07-5.8.66-1.35,1.33-2.71,1.86-4.12.67-1.79,1.6-2.31,3.42-1.33,2.67,1.45,5.51,2.35,8.64,2.25,5.13-.16,7.69-2.62,7.79-7.78.03-1.32,0-2.65,0-3.97h.03ZM251.72,75.27c0-7.03.02-14.06,0-21.09,0-3.2-1.75-5.33-4.32-5.45-2.47-.12-4.25,1.68-4.57,4.98-.22,2.24-.13,4.51-.13,6.76,0,12.3-.02,24.61.06,36.91.02,3.42,1.44,5.03,3.97,5.05,2.47.01,4.72-2.27,4.95-5.06.08-.92.06-1.84.06-2.76v-19.34h-.02Z"/>
        <path class="cls-3" d="M94.44,40.52c.42-2.64,1.94-3.96,4.57-3.97,2.51,0,5.02.04,7.53,0,1.79-.04,2.57.68,2.53,2.53-.08,3.85-.02,7.7-.02,11.55v66.56c0,3.46-.04,3.49-3.5,3.5h-6.28c-2.89,0-4.46-1.49-4.71-4.48-.75.71-1.38,1.32-2.03,1.91-5.63,5.21-14.48,3.77-18.28-2.92-2.31-4.07-3.01-8.52-3.03-13.06-.08-14.9-.1-29.8,0-44.71.03-4.95.94-9.76,3.12-14.35,4.08-8.6,14.65-9.78,20.08-2.58l.02.02ZM94.73,78.32c0-8.2.02-16.41-.01-24.61,0-2.47-2.18-4.78-4.45-4.91-2.24-.12-3.93,1.54-4.3,4.34-.24,1.82-.49,3.66-.49,5.49-.04,14.15-.02,28.3-.03,42.45,0,1.78.24,3.52.81,5.19.89,2.62,3.4,3.35,5.63,1.74,2.09-1.5,2.87-3.57,2.86-6.09-.04-7.87,0-15.74,0-23.61h-.01Z"/>
        <path class="cls-3" d="M206.05,40.6c.59-2.67,2.24-4.01,4.95-4.02,2.09,0,4.19-.02,6.28,0,3.02.04,3.33.33,3.34,3.31.02,7.46,0,14.92,0,22.37v54.8c0,3.47-.07,3.54-3.49,3.55-2.51.01-5.03-.12-7.54.04-2.39.14-3.46-.73-3.18-3.16.04-.38-.1-.78-.14-1.11-.56-.16-.72.17-.94.41-6.37,7.1-16.79,5.24-20.33-3.63-1.42-3.54-2.09-7.26-2.11-11.05-.05-14.91-.12-29.83.03-44.74.06-5.81,1.1-11.48,4.53-16.48,3.96-5.77,10.87-5.94,15.13-3.56,1.37.76,2.13,2.09,3.46,3.27h0ZM206.43,78.51h0c0-8.29.03-16.59-.02-24.88,0-2.55-2.31-4.85-4.73-4.91-2.15-.06-3.89,1.78-4.17,4.5-.21,2-.48,4-.49,6-.04,13.74,0,27.48-.03,41.22,0,1.86.22,3.69.67,5.47.78,3.11,3.8,3.97,6.21,1.91,1.76-1.5,2.64-3.28,2.61-5.69-.1-7.87-.04-15.75-.04-23.62h0Z"/>
        <path class="cls-3" d="M573.19,78.58c0,7.7.17,15.41-.05,23.11-.19,6.52-2.3,12.31-7.84,16.37-9.6,7.04-23.34,2.95-27.47-8.2-1.38-3.74-1.97-7.66-2-11.58-.12-14.49-.1-28.97-.03-43.46.05-8.64,5.69-16.51,13.39-18.34,14.07-3.34,23.39,5.92,23.93,18.48.34,7.86.06,15.74.06,23.61h.01ZM558.92,78.47v-21.34c0-1.25.03-2.53-.16-3.76-.34-2.2-2.47-4.47-4.11-4.56-2-.11-3.62,1.44-4.29,4.18-.2.8-.28,1.65-.28,2.48-.02,15.23,0,30.46,0,45.7,0,1.61.24,3.19.94,4.64.74,1.53,1.94,2.51,3.74,2.5,1.77,0,2.72-1.16,3.39-2.57.73-1.55.8-3.23.8-4.92v-22.35h-.02Z"/>
        <path class="cls-3" d="M416.69,78.34c0-7.71-.07-15.41.02-23.12.11-10.07,5.53-17.28,14.66-18.89,11.64-2.06,19.86,3.11,22.27,13.44.28,1.21.31,2.49.31,3.74.03,8.54.02,17.09.01,25.63,0,3.69-.03,3.71-3.85,3.71-5.36,0-10.72.06-16.08-.02-2.04-.03-2.85.7-2.82,2.78.09,6.11,0,12.23.05,18.34.03,3.3,1.39,4.85,4.09,4.92,2.45.06,4.27-1.87,4.39-4.81.1-2.43.09-4.86.07-7.29,0-1.64.59-2.49,2.36-2.46,3.18.06,6.37.02,9.55.02,1.07,0,2.18.17,2.16,1.51-.05,4.5.78,9.09-.54,13.49-1.94,6.47-6.6,10.38-13.06,11.47-6.98,1.17-13.73.35-18.96-5.36-3.71-4.06-4.53-9.06-4.61-14.24-.12-7.62-.03-15.24-.03-22.87h.01ZM439.82,60.61c0-2.01.02-4.02,0-6.03-.04-4.07-1.48-6.22-4.18-6.31-2.72-.08-4.41,2.04-4.74,5.97-.06.75-.05,1.51-.05,2.26,0,2.68-.04,5.36,0,8.04.12,6.98-1.25,6.19,6.55,6.24,1.68.01,2.46-.67,2.43-2.39-.05-2.59-.01-5.19,0-7.78h-.01Z"/>
        <path class="cls-3" d="M340.77,78.26v23.12c0,1.7.15,3.36.98,4.87,1.49,2.71,4.34,2.8,5.97.22.79-1.25,1.07-2.61,1.07-4.07,0-3.69.06-7.37.02-11.06-.02-1.78.64-2.61,2.51-2.56,3.1.08,6.2.03,9.3.03,1.18,0,2.29.19,2.27,1.69-.09,6.75.84,13.56-1.98,20.08-3.24,7.51-8.46,10.79-17.31,10.49-7.28-.25-13.35-4.81-15.57-11.8-.87-2.72-1.37-5.53-1.37-8.4,0-14.66-.11-29.33.04-43.99.07-7.09,1.9-13.65,8.05-18.11,8.85-6.43,22.85-2.14,26.66,8.07,1.63,4.37,1.54,8.87,1.5,13.39-.02,2.09-.03,4.19,0,6.28.02,1.42-.54,2.23-2.05,2.22-3.35-.01-6.7-.01-10.05,0-1.72,0-2.07-1.03-2.06-2.47.02-3.52.03-7.04-.02-10.56-.02-1.16-.16-2.34-.35-3.49-.33-2-1.24-3.49-3.55-3.5-1.85,0-3.71,1.72-3.93,3.9-.19,1.91-.13,3.85-.13,5.77-.01,6.62,0,13.24,0,19.86v.02Z"/>
        <path class="cls-3" d="M115.85,100.47c.11-8-.98-7.1,6.39-7.15,5.46-.04,5.46,0,6.07,5.33.23,1.99.32,4.01.68,5.98.3,1.65,1.15,3.02,3.07,3.16,2.01.15,3.02-1.13,3.7-2.8,2.37-5.78.26-15.09-4.28-19.91-3.38-3.59-6.78-7.18-9.71-11.17-5.89-8.01-7.3-16.75-4.21-26.17,3.67-11.16,17.67-15.69,26.66-8.67,2.91,2.27,4.43,5.4,5.32,8.88,1.09,4.25,1.32,8.59,1.21,12.96-.04,1.56-.64,2.33-2.24,2.31-2.51-.03-5.03-.03-7.54,0-1.71.02-2.4-.84-2.38-2.49.02-1.76,0-3.52-.08-5.28-.05-1-.19-2-.42-2.97-.44-1.85-1.36-3.25-3.55-3.24-2.33.02-3.32,1.63-3.63,3.51-.84,5.04-.42,9.8,3.35,13.84,3.08,3.3,6.36,6.43,9.07,10.07,8.19,10.99,9.92,22.93,4.48,35.51-3.15,7.28-10.18,10.19-19.22,8.87-6.43-.94-10.94-5.97-12.22-13.55-.43-2.57-.63-5.15-.54-7.04l.02.02Z"/>
        <path class="cls-3" d="M582.6,84.86v-32.66c0-1.48.06-2.86-1.97-3.13-1.19-.16-1.13-1.29-1.14-2.21-.02-2.18-.02-4.35-.01-6.53,0-1.72-.39-3.57,2.2-4.01,1.1-.19.89-1.47.9-2.37.02-3.52.11-7.04-.02-10.55-.09-2.33.84-3.12,3.11-3.02,3.01.14,6.03.09,9.04.02,1.85-.05,2.54.76,2.52,2.55-.05,3.68,0,7.37-.02,11.05,0,1.4.23,2.51,1.96,2.59,1.28.06,1.67.89,1.66,2.05-.02,2.85,0,5.69-.01,8.54,0,.88-.17,1.87-1.22,1.89-2.55.05-2.39,1.75-2.39,3.48.01,14.82,0,29.64,0,44.47,0,6.78.01,13.57,0,20.35,0,3.16-.16,3.3-3.21,3.32-2.85,0-5.7-.1-8.54.04-2.24.11-2.9-.84-2.89-2.96.06-10.97.03-21.94.03-32.91"/>
        <path class="cls-3" d="M158.73,84.85v-32.67c0-1.5,0-2.86-1.97-3.17-1.04-.17-1.08-1.16-1.09-2.01-.01-2.68,0-5.36,0-8.04,0-1.08.24-2.04,1.47-2.3,1.55-.33,1.58-1.5,1.58-2.72,0-3.52.07-7.04-.01-10.55-.05-2.17.85-3.01,3-2.94,2.93.1,5.86.07,8.79,0,1.93-.04,2.76.86,2.76,2.72,0,3.6.03,7.2.02,10.81,0,1.38.21,2.5,1.91,2.68,1.24.13,1.64,1,1.64,2.13v8.29c0,1-.23,1.95-1.42,2.01-2.24.11-2.14,1.65-2.14,3.21v65.09c0,3.07-.18,3.23-3.31,3.25-2.51.01-5.03,0-7.54,0-3.62,0-3.7-.07-3.7-3.61v-32.19Z"/>
        <path class="cls-3" d="M290.51,67.47v49.74c0,3.29-.12,3.4-3.37,3.42-2.76,0-5.53-.06-8.29.02-1.85.05-2.62-.77-2.5-2.56.03-.5,0-1,0-1.51V18.36c0-2.61,1.29-3.92,3.88-3.93,2.43,0,4.86.11,7.28-.03,2.32-.13,3.05.81,3.04,3.08-.08,12.64-.04,25.29-.04,37.93v12.06Z"/>
        <path class="cls-3" d="M521.84,44.1c.94-2.38,1.56-4.18,2.35-5.9.83-1.83,2.34-2.6,4.32-2.11,1.87.46,2.4,1.86,2.38,3.63-.03,3.18-.04,6.36,0,9.54.02,1.66-.38,2.4-2.33,2.12-3.08-.45-4.45.51-5.53,3.47-.81,2.21-1.16,4.52-1.16,6.89,0,18.42-.02,36.84-.03,55.25,0,3.66-.03,3.69-3.58,3.69-2.93,0-5.86-.05-8.79,0-1.61.03-2.31-.68-2.28-2.24,0-.59-.01-1.17-.01-1.76V40.59c0-3.99.07-4.05,4.08-4.06,2.68,0,5.36.05,8.04,0,1.78-.04,2.66.64,2.56,2.5-.07,1.47-.02,2.95-.02,5.06v.02Z"/>
        <path class="cls-3" d="M315.67,78.58v38.21c0,2.55-1.32,3.83-3.95,3.84h-6.79c-3.33-.02-3.43-.1-3.44-3.35-.01-5.53,0-11.06,0-16.59v-59.82c0-2.85,1.46-4.27,4.38-4.28,2.26,0,4.53.1,6.79-.03,2.28-.12,3.07.75,3.06,3.06-.08,12.99-.04,25.97-.04,38.96h-.01Z"/>
        <path class="cls-3" d="M308.36,32.05c-4.41-.12-7.51-3.5-7.41-8.11.09-4.27,3.53-7.56,7.82-7.48,4.36.09,7.81,3.7,7.65,8.01-.16,4.43-3.63,7.7-8.06,7.58"/>
        <path class="cls-3" d="M200.52,23.74c-.24,2.32-.64,4.43-2.14,6.17-1.7,1.99-3.8,3.04-6.44,2.48-2.76-.59-4.18-2.57-4.91-5.16-.65-2.32-.66-4.63.18-6.9,1.08-2.93,3.76-4.89,6.43-4.75,2.77.14,5.53,2.45,6.3,5.33.26.96.39,1.96.56,2.83h.02Z"/>
        <path class="cls-3" d="M217.42,24.06c-.02.15-.05.48-.1.81-.6,4.84-3.92,8.13-7.65,7.58-4.02-.59-6.97-5.54-6.02-10.09.88-4.24,3.83-6.98,7.2-6.68,3.77.34,6.48,3.71,6.57,8.38"/>
        <polygon class="cls-3" points="24.71 139.34 32.16 139.34 32.16 141.88 27.31 141.88 27.31 144.31 32.15 144.31 32.15 146.86 27.31 146.86 27.31 150.43 32.15 150.43 32.15 152.98 24.71 152.98 24.71 139.34"/>
        <path class="cls-3" d="M36.91,140.41c0,.89-.72,1.62-1.61,1.62s-1.61-.82-1.61-1.75c0-.87.74-1.54,1.61-1.54s1.61.76,1.61,1.67M34.04,142.9h2.53v10.09h-2.53v-10.09Z"/>
        <path class="cls-3" d="M41.37,143.92c.97-.82,1.86-1.29,2.98-1.29,1.88,0,3.46,1.29,3.46,3.46v6.9h-2.53v-4.77c0-1.99-.17-3.27-1.71-3.27-.7,0-1.31.34-1.71.97-.51.82-.49,1.73-.49,2.77v4.29h-2.53v-10.09h2.53v1.03"/>
        <path class="cls-3" d="M59.71,151.03c-1.08,1.54-2.51,2.22-4.64,2.22-3.21,0-5.28-2.36-5.28-5.32,0-2.75,1.99-5.3,5.24-5.3s5.36,2.28,5.36,5.47c0,.23-.02.34-.02.57h-8.13c.25,1.5,1.39,2.34,2.83,2.34,1.08,0,1.8-.3,2.51-.99l2.13,1.01ZM57.84,146.68c-.34-1.18-1.42-1.9-2.77-1.9-1.25,0-2.22.63-2.72,1.9h5.49Z"/>
        <rect class="cls-3" x="67.82" y="139.34" width="2.6" height="13.64"/>
        <path class="cls-3" d="M75.57,143.92c.97-.82,1.86-1.29,2.98-1.29,1.88,0,3.46,1.29,3.46,3.46v6.9h-2.53v-4.77c0-1.99-.17-3.27-1.71-3.27-.7,0-1.31.34-1.71.97-.51.82-.49,1.73-.49,2.77v4.29h-2.53v-10.09h2.53v1.03Z"/>
        <path class="cls-3" d="M87.07,140.41c0,.89-.72,1.62-1.61,1.62s-1.61-.82-1.61-1.75c0-.87.74-1.54,1.61-1.54s1.61.76,1.61,1.67M84.2,142.9h2.53v10.09h-2.53v-10.09Z"/>
        <polygon class="cls-3" points="89.31 139.17 91.84 139.17 91.84 142.89 93.34 142.89 93.34 145.06 91.84 145.06 91.84 152.98 89.31 152.98 89.31 145.06 88.02 145.06 88.02 142.89 89.31 142.89 89.31 139.17"/>
        <path class="cls-3" d="M97.33,140.41c0,.89-.72,1.62-1.61,1.62s-1.61-.82-1.61-1.75c0-.87.74-1.54,1.61-1.54s1.61.76,1.61,1.67M94.46,142.9h2.53v10.09h-2.53v-10.09Z"/>
        <path class="cls-3" d="M106.73,151.92c-.89.87-1.84,1.33-3.12,1.33-2.56,0-4.81-2.2-4.81-5.3s2.13-5.32,4.75-5.32c1.22,0,2.26.46,3.17,1.37v-1.1h2.53v10.09h-2.53v-1.06h0ZM101.35,147.93c0,1.73,1.14,3,2.72,3s2.77-1.18,2.77-3.02-1.18-2.96-2.77-2.96-2.72,1.33-2.72,2.98Z"/>
        <polygon class="cls-3" points="112.11 139.17 114.64 139.17 114.64 142.89 116.14 142.89 116.14 145.06 114.64 145.06 114.64 152.98 112.11 152.98 112.11 145.06 110.82 145.06 110.82 142.89 112.11 142.89 112.11 139.17"/>
        <path class="cls-3" d="M120.13,140.41c0,.89-.72,1.62-1.61,1.62s-1.61-.82-1.61-1.75c0-.87.74-1.54,1.61-1.54s1.61.76,1.61,1.67M117.26,142.9h2.53v10.09h-2.53v-10.09Z"/>
        <polygon class="cls-3" points="120.98 142.9 123.56 142.9 126.11 148.85 128.66 142.9 131.22 142.9 126.93 152.99 125.3 152.99 120.99 142.9 120.98 142.9"/>
        <path class="cls-3" d="M142.16,151.03c-1.08,1.54-2.51,2.22-4.64,2.22-3.21,0-5.28-2.36-5.28-5.32,0-2.75,1.99-5.3,5.24-5.3s5.36,2.28,5.36,5.47c0,.23-.02.34-.02.57h-8.13c.25,1.5,1.39,2.34,2.83,2.34,1.08,0,1.8-.3,2.51-.99l2.13,1.01ZM140.3,146.68c-.34-1.18-1.42-1.9-2.77-1.9-1.25,0-2.22.63-2.72,1.9h5.49Z"/>
        <path class="cls-3" d="M157.65,151.92c-.89.87-1.84,1.33-3.12,1.33-2.56,0-4.81-2.2-4.81-5.3s2.13-5.32,4.75-5.32c1.22,0,2.26.46,3.17,1.37v-5h2.53v13.98h-2.53v-1.06h.01ZM152.27,147.93c0,1.73,1.14,3,2.72,3s2.77-1.18,2.77-3.02-1.18-2.96-2.77-2.96-2.72,1.33-2.72,2.98Z"/>
        <path class="cls-3" d="M172.18,151.03c-1.08,1.54-2.51,2.22-4.64,2.22-3.21,0-5.28-2.36-5.28-5.32,0-2.75,1.99-5.3,5.24-5.3s5.36,2.28,5.36,5.47c0,.23-.02.34-.02.57h-8.13c.25,1.5,1.39,2.34,2.83,2.34,1.08,0,1.8-.3,2.51-.99l2.13,1.01ZM170.32,146.68c-.34-1.18-1.42-1.9-2.77-1.9-1.25,0-2.22.63-2.72,1.9h5.49Z"/>
        <path class="cls-3" d="M176.48,144.17c.47-1.04,1.29-1.54,2.13-1.54.53,0,.85.15,1.1.27l-.78,2.17c-.19-.09-.48-.21-.74-.21-.72,0-1.29.84-1.35,2.32-.02.55-.02,1.18-.02,1.73v4.08h-2.53v-10.09h2.18v1.27h0Z"/>
        <polygon class="cls-3" points="186.3 139 188.83 139 188.83 147.05 192.57 142.89 195.72 142.89 191.39 147.73 196.25 152.97 193.12 152.97 188.83 148.32 188.83 152.97 186.3 152.97 186.3 138.99 186.3 139"/>
        <path class="cls-3" d="M204.77,151.92c-.89.87-1.84,1.33-3.12,1.33-2.56,0-4.81-2.2-4.81-5.3s2.13-5.32,4.75-5.32c1.22,0,2.26.46,3.17,1.37v-1.1h2.53v10.09h-2.53v-1.06h.01ZM199.39,147.93c0,1.73,1.14,3,2.72,3s2.77-1.18,2.77-3.02-1.18-2.96-2.77-2.96-2.72,1.33-2.72,2.98Z"/>
        <polygon class="cls-3" points="210.15 139.17 212.68 139.17 212.68 142.89 214.18 142.89 214.18 145.06 212.68 145.06 212.68 152.98 210.15 152.98 210.15 145.06 208.86 145.06 208.86 142.89 210.15 142.89 210.15 139.17"/>
        <path class="cls-3" d="M215.56,139h2.53v4.92c.97-.84,1.9-1.29,2.98-1.29,1.9,0,3.46,1.24,3.46,3.69v6.67h-2.53v-4.77c0-2.05-.25-3.27-1.73-3.27-.7,0-1.31.36-1.71.99-.51.8-.48,1.71-.48,2.75v4.29h-2.53v-13.98h0Z"/>
        <path class="cls-3" d="M229.77,151.79c0,.8-.63,1.46-1.44,1.46s-1.46-.67-1.46-1.46.67-1.44,1.46-1.44,1.44.65,1.44,1.44"/>
        <polygon class="cls-3" points="237.9 139.34 240.5 139.34 240.5 144.03 244.2 139.34 247.33 139.34 242.54 145.42 247.78 152.98 244.7 152.98 240.48 146.92 240.48 152.98 237.88 152.98 237.88 139.34 237.9 139.34"/>
        <path class="cls-3" d="M251.98,140.41c0,.89-.72,1.62-1.61,1.62s-1.61-.82-1.61-1.75c0-.87.74-1.54,1.61-1.54s1.61.76,1.61,1.67M249.11,142.9h2.53v10.09h-2.53v-10.09Z"/>
        <path class="cls-3" d="M255.52,144.17c.48-1.04,1.29-1.54,2.13-1.54.53,0,.85.15,1.1.27l-.78,2.17c-.19-.09-.48-.21-.74-.21-.72,0-1.29.84-1.35,2.32-.02.55-.02,1.18-.02,1.73v4.08h-2.53v-10.09h2.18v1.27h0Z"/>
        <path class="cls-3" d="M269.25,151.14c-1.08,1.41-2.6,2.11-4.58,2.11-3.44,0-5.66-2.34-5.66-5.28s2.36-5.34,5.7-5.34c1.98,0,3.65.82,4.65,2.3l-2.11,1.16c-.72-.76-1.42-1.14-2.53-1.14-1.94,0-3.17,1.31-3.17,3.06s1.2,2.93,3.06,2.93c1.12,0,2.01-.38,2.64-1.16l2,1.37h0Z"/>
        <path class="cls-3" d="M271.67,139h2.53v4.92c.97-.84,1.9-1.29,2.98-1.29,1.9,0,3.46,1.24,3.46,3.69v6.67h-2.53v-4.77c0-2.05-.25-3.27-1.73-3.27-.7,0-1.31.36-1.71.99-.51.8-.48,1.71-.48,2.75v4.29h-2.53v-13.98h.01Z"/>
        <path class="cls-3" d="M292.51,151.03c-1.08,1.54-2.51,2.22-4.64,2.22-3.21,0-5.28-2.36-5.28-5.32,0-2.75,1.99-5.3,5.24-5.3s5.36,2.28,5.36,5.47c0,.23-.02.34-.02.57h-8.13c.25,1.5,1.39,2.34,2.83,2.34,1.08,0,1.8-.3,2.51-.99l2.13,1.01ZM290.65,146.68c-.34-1.18-1.42-1.9-2.77-1.9-1.25,0-2.22.63-2.72,1.9h5.49Z"/>
        <path class="cls-3" d="M297.73,143.92c.97-.82,1.86-1.29,2.98-1.29,1.88,0,3.46,1.29,3.46,3.46v6.9h-2.53v-4.77c0-1.99-.17-3.27-1.71-3.27-.7,0-1.31.34-1.71.97-.51.82-.49,1.73-.49,2.77v4.29h-2.53v-10.09h2.53v1.03Z"/>
        <path class="cls-3" d="M316.6,151.54c0,1.96-.38,3.27-1.54,4.25-.91.76-2.13,1.12-3.67,1.12-2.77,0-4.54-1.08-5.22-3.19h2.79c.51.61,1.27.87,2.34.87.93,0,1.69-.25,2.15-.67.61-.57.63-1.25.63-2.2-.84.82-1.75,1.25-3.06,1.25-2.72,0-4.84-2.17-4.84-5.19s2.15-5.17,4.71-5.17c1.25,0,2.24.47,3.19,1.37v-1.1h2.53v8.66ZM308.72,147.82c0,1.67,1.2,2.85,2.77,2.85s2.72-1.12,2.72-2.83-1.08-2.89-2.75-2.89-2.74,1.31-2.74,2.87"/>
        <path class="cls-3" d="M328.61,151.03c-1.08,1.54-2.51,2.22-4.64,2.22-3.21,0-5.28-2.36-5.28-5.32,0-2.75,2-5.3,5.24-5.3s5.36,2.28,5.36,5.47c0,.23-.02.34-.02.57h-8.13c.25,1.5,1.39,2.34,2.83,2.34,1.08,0,1.8-.3,2.51-.99l2.13,1.01ZM326.75,146.68c-.34-1.18-1.42-1.9-2.77-1.9-1.25,0-2.22.63-2.72,1.9h5.49Z"/>
        <path class="cls-3" d="M340.31,152.98h-2.53v-4.88c0-1.96-.38-3.15-1.79-3.15-1.25,0-2.17,1.03-2.17,3.1v4.94h-2.53v-10.09h2.53v1.16c.85-.93,1.96-1.42,3.15-1.42s2.32.59,2.94,1.8c.93-1.18,1.86-1.8,3.38-1.8,1.12,0,2.13.46,2.7,1.18.67.84.74,1.94.74,3.27v5.91h-2.53v-5.57c0-1.65-.59-2.47-1.73-2.47-1.27,0-2.18.99-2.18,3.06v4.98l.02-.02Z"/>
        <path class="cls-3" d="M358.63,151.03c-1.08,1.54-2.51,2.22-4.64,2.22-3.21,0-5.28-2.36-5.28-5.32,0-2.75,2-5.3,5.24-5.3s5.36,2.28,5.36,5.47c0,.23-.02.34-.02.57h-8.13c.25,1.5,1.39,2.34,2.83,2.34,1.08,0,1.8-.3,2.51-.99l2.13,1.01ZM356.77,146.68c-.34-1.18-1.42-1.9-2.77-1.9-1.25,0-2.22.63-2.72,1.9h5.49Z"/>
        <path class="cls-3" d="M363.95,140.41c0,.89-.72,1.62-1.62,1.62s-1.61-.82-1.61-1.75c0-.87.74-1.54,1.61-1.54s1.62.76,1.62,1.67M361.08,142.9h2.53v10.09h-2.53v-10.09Z"/>
        <path class="cls-3" d="M368.42,143.92c.97-.82,1.86-1.29,2.98-1.29,1.88,0,3.46,1.29,3.46,3.46v6.9h-2.53v-4.77c0-1.99-.17-3.27-1.71-3.27-.7,0-1.31.34-1.71.97-.51.82-.49,1.73-.49,2.77v4.29h-2.53v-10.09h2.53v1.03Z"/>
        <path class="cls-3" d="M384.75,151.92c-.89.87-1.84,1.33-3.12,1.33-2.56,0-4.81-2.2-4.81-5.3s2.13-5.32,4.75-5.32c1.22,0,2.26.46,3.17,1.37v-5h2.53v13.98h-2.53v-1.06h.01ZM379.38,147.93c0,1.73,1.14,3,2.72,3s2.77-1.18,2.77-3.02-1.18-2.96-2.77-2.96-2.72,1.33-2.72,2.98Z"/>
        <path class="cls-3" d="M399.29,151.03c-1.08,1.54-2.51,2.22-4.64,2.22-3.21,0-5.28-2.36-5.28-5.32,0-2.75,2-5.3,5.24-5.3s5.36,2.28,5.36,5.47c0,.23-.02.34-.02.57h-8.13c.25,1.5,1.39,2.34,2.83,2.34,1.08,0,1.81-.3,2.51-.99l2.13,1.01ZM397.43,146.68c-.34-1.18-1.42-1.9-2.77-1.9-1.25,0-2.22.63-2.72,1.9h5.49Z"/>
        <path class="cls-3" d="M407.57,139.34h3.17c1.77,0,3,.27,3.86,1.1.67.65,1.1,1.69,1.1,2.85,0,1.44-.59,2.53-1.73,3.23-1.16.7-2.37.68-3.8.68v5.78h-2.6v-13.64ZM410.18,144.68h1.22c1.18,0,1.77-.46,1.77-1.39s-.65-1.41-1.88-1.41h-1.1v2.79h-.01Z"/>
        <path class="cls-3" d="M425.41,151.92c-.89.87-1.84,1.33-3.12,1.33-2.56,0-4.81-2.2-4.81-5.3s2.13-5.32,4.75-5.32c1.22,0,2.26.46,3.17,1.37v-1.1h2.53v10.09h-2.53v-1.06h.01ZM420.04,147.93c0,1.73,1.14,3,2.72,3s2.77-1.18,2.77-3.02-1.18-2.96-2.77-2.96-2.72,1.33-2.72,2.98Z"/>
        <path class="cls-3" d="M433.01,144c.91-.91,1.96-1.37,3.17-1.37,2.6,0,4.77,2.17,4.77,5.32s-2.26,5.3-4.83,5.3c-1.27,0-2.2-.46-3.12-1.33v4.75h-2.53v-13.77h2.53v1.1h0ZM432.9,147.91c0,1.82,1.22,3.02,2.77,3.02s2.74-1.27,2.74-3-1.06-2.98-2.74-2.98-2.77,1.2-2.77,2.96Z"/>
        <path class="cls-3" d="M445.04,148.61c-1.61-.82-2.43-1.8-2.43-3.08,0-1.58,1.33-2.91,3.27-2.91,1.31,0,2.51.59,3.33,1.67l-1.56,1.58c-.57-.57-1.14-.93-1.75-.93-.51,0-.91.21-.91.61s.36.55.91.84l.93.47c1.67.85,2.56,1.73,2.56,3.23,0,1.8-1.42,3.15-3.63,3.15-1.46,0-2.66-.59-3.53-1.73l1.56-1.71c.59.68,1.44,1.18,2.11,1.18.63,0,1.12-.36,1.12-.82s-.42-.76-1.12-1.12l-.86-.44h0Z"/>
        <polygon class="cls-3" points="451.69 139.17 454.22 139.17 454.22 142.89 455.72 142.89 455.72 145.06 454.22 145.06 454.22 152.98 451.69 152.98 451.69 145.06 450.4 145.06 450.4 142.89 451.69 142.89 451.69 139.17"/>
        <path class="cls-3" d="M466.09,139.34h2.6v9.52c0,1.35-.11,2.39-.72,3.23-.59.8-1.52,1.23-2.66,1.23-1.44,0-2.79-.67-3.84-1.98l1.86-1.75c.63.68,1.2,1.18,1.92,1.18.59,0,.84-.49.84-1.48v-9.95Z"/>
        <path class="cls-3" d="M481.63,147.93c0,2.93-2.26,5.32-5.34,5.32s-5.24-2.34-5.24-5.3,2.47-5.32,5.22-5.32c2.94,0,5.36,2.32,5.36,5.3M473.6,147.93c0,1.71,1.08,2.93,2.72,2.93s2.77-1.14,2.77-2.91-1.12-2.93-2.77-2.93-2.72,1.24-2.72,2.91"/>
        <path class="cls-3" d="M483.71,139h2.53v4.92c.97-.84,1.9-1.29,2.98-1.29,1.9,0,3.46,1.24,3.46,3.69v6.67h-2.53v-4.77c0-2.05-.25-3.27-1.73-3.27-.7,0-1.31.36-1.71.99-.51.8-.47,1.71-.47,2.75v4.29h-2.53v-13.98Z"/>
        <path class="cls-3" d="M502.55,151.92c-.89.87-1.84,1.33-3.12,1.33-2.56,0-4.81-2.2-4.81-5.3s2.13-5.32,4.75-5.32c1.22,0,2.26.46,3.17,1.37v-1.1h2.53v10.09h-2.53v-1.06h.01ZM497.18,147.93c0,1.73,1.14,3,2.72,3s2.77-1.18,2.77-3.02-1.18-2.96-2.77-2.96-2.72,1.33-2.72,2.98Z"/>
        <path class="cls-3" d="M510.15,143.92c.97-.82,1.86-1.29,2.98-1.29,1.88,0,3.46,1.29,3.46,3.46v6.9h-2.53v-4.77c0-1.99-.17-3.27-1.71-3.27-.7,0-1.31.34-1.71.97-.51.82-.49,1.73-.49,2.77v4.29h-2.53v-10.09h2.53v1.03Z"/>
        <path class="cls-3" d="M521.55,143.92c.97-.82,1.86-1.29,2.98-1.29,1.88,0,3.46,1.29,3.46,3.46v6.9h-2.53v-4.77c0-1.99-.17-3.27-1.71-3.27-.7,0-1.31.34-1.71.97-.51.82-.49,1.73-.49,2.77v4.29h-2.53v-10.09h2.53v1.03Z"/>
        <path class="cls-3" d="M539.89,151.03c-1.08,1.54-2.51,2.22-4.64,2.22-3.21,0-5.28-2.36-5.28-5.32,0-2.75,2-5.3,5.24-5.3s5.36,2.28,5.36,5.47c0,.23-.02.34-.02.57h-8.13c.25,1.5,1.39,2.34,2.83,2.34,1.08,0,1.8-.3,2.51-.99l2.13,1.01ZM538.03,146.68c-.34-1.18-1.42-1.9-2.77-1.9-1.25,0-2.22.63-2.72,1.9h5.49Z"/>
        <path class="cls-3" d="M544.6,148.61c-1.61-.82-2.43-1.8-2.43-3.08,0-1.58,1.33-2.91,3.27-2.91,1.31,0,2.51.59,3.33,1.67l-1.56,1.58c-.57-.57-1.14-.93-1.75-.93-.51,0-.91.21-.91.61s.36.55.91.84l.93.47c1.67.85,2.56,1.73,2.56,3.23,0,1.8-1.42,3.15-3.63,3.15-1.46,0-2.66-.59-3.53-1.73l1.56-1.71c.59.68,1.44,1.18,2.11,1.18.63,0,1.12-.36,1.12-.82s-.42-.76-1.12-1.12l-.86-.44h0Z"/>
        <polygon class="cls-3" points="555.66 139.34 558.59 139.34 561.46 143.71 564.33 139.34 567.26 139.34 562.93 145.93 567.53 152.98 564.6 152.98 561.47 148.17 558.34 152.98 555.4 152.98 560.02 145.93 555.69 139.34 555.66 139.34"/>
        <polygon class="cls-3" points="568.58 139.34 571.51 139.34 574.38 143.71 577.25 139.34 580.18 139.34 575.85 145.93 580.45 152.98 577.52 152.98 574.39 148.17 571.26 152.98 568.32 152.98 572.94 145.93 568.61 139.34 568.58 139.34"/>
        <rect class="cls-3" x="582.2" y="139.34" width="2.6" height="13.64"/>
        <rect class="cls-3" x="587.52" y="139.34" width="2.6" height="13.64"/>
        <rect class="cls-3" x="592.84" y="139.34" width="2.6" height="13.64"/>
        <path class="cls-3" d="M600.9,151.79c0,.8-.63,1.46-1.44,1.46s-1.46-.67-1.46-1.46.66-1.44,1.46-1.44,1.44.65,1.44,1.44"/>
      </g>
    </g>
  </g>
</svg>