<?xml version="1.0" encoding="UTF-8"?>
<svg id="Logo" xmlns="http://www.w3.org/2000/svg" viewBox="0 0 507.66 221.25">
  <defs>
    <style>
      .cls-1 {
        fill: #0085ff;
      }

      .cls-2 {
        fill: #0053ff;
      }

      .cls-3 {
        fill: #260a3b;
      }

      .cls-4 {
        fill: #3231e4;
      }
    </style>
  </defs>
  <g>
    <rect class="cls-4" x="36.85" y="73.7" width="37" height="37"/>
    <polygon class="cls-1" points="36.85 73.7 36.85 110.7 73.85 110.7 36.85 73.7"/>
    <rect class="cls-1" x="73.85" y="36.85" width="36.85" height="36.85"/>
    <polyline class="cls-4" points="110.7 36.85 73.85 36.85 73.85 73.7"/>
    <rect class="cls-1" x="73.85" y="110.7" width="36.85" height="36.85" transform="translate(184.55 258.24) rotate(180)"/>
    <polyline class="cls-4" points="73.85 147.55 110.7 147.55 110.7 110.7"/>
    <rect class="cls-2" x="73.85" y="147.55" width="36.85" height="36.85"/>
    <polyline class="cls-1" points="110.7 184.4 73.85 184.4 73.85 147.55"/>
    <polygon class="cls-2" points="73.85 110.7 110.7 110.7 73.85 73.7 73.85 110.7"/>
  </g>
  <g>
    <path class="cls-3" d="M136.52,37.84c0-.54.36-.9.9-.9h22.89c13.03,0,19.18,6.51,19.18,16.37,0,6.97-3.26,10.95-7.15,13.03v.18c3.8,1.45,8.23,6.33,8.23,13.84,0,12.21-7.69,18.09-21.17,18.09h-21.98c-.54,0-.9-.36-.9-.9v-59.71ZM160.04,62.54c5.43,0,8.78-3.26,8.78-8.05s-3.35-8.14-8.78-8.14h-12.3c-.36,0-.54.18-.54.54v15.11c0,.36.18.54.54.54h12.3ZM147.74,89.05h12.85c5.97,0,9.32-3.44,9.32-8.6s-3.35-8.5-9.32-8.5h-12.85c-.36,0-.54.18-.54.54v16.01c0,.36.18.54.54.54Z"/>
    <path class="cls-3" d="M193.96,37.84c0-.54.36-.9.9-.9h8.87c.54,0,.9.36.9.9v59.71c0,.54-.36.9-.9.9h-8.87c-.54,0-.9-.36-.9-.9v-59.71Z"/>
    <path class="cls-3" d="M217.2,91.31c-.36-.36-.54-.9-.18-1.36l5.61-6.51c.36-.45.91-.45,1.27-.09,3.98,3.17,9.86,6.51,16.74,6.51,7.33,0,11.58-3.71,11.58-8.86,0-4.43-2.71-7.33-11.22-8.51l-3.26-.45c-11.85-1.63-18.55-7.33-18.55-17.55,0-11.13,8.14-18.55,20.81-18.55,7.69,0,15.02,2.44,19.9,6.15.45.36.54.72.18,1.27l-4.34,6.69c-.36.45-.82.54-1.27.27-4.97-3.26-9.59-4.8-14.75-4.8-6.24,0-9.68,3.44-9.68,8.23,0,4.25,2.99,7.15,11.31,8.33l3.26.45c11.85,1.63,18.37,7.24,18.37,17.82s-7.87,19.09-23.16,19.09c-9.05,0-17.82-3.62-22.62-8.14Z"/>
    <path class="cls-3" d="M290.37,98.46c-.54,0-.9-.36-.9-.9v-50.48c0-.36-.18-.54-.54-.54h-16.1c-.54,0-.9-.36-.9-.9v-7.78c0-.54.36-.9.9-.9h43.97c.54,0,.9.36.9.9v7.78c0,.54-.36.9-.9.9h-16.1c-.36,0-.54.18-.54.54v50.48c0,.54-.36.9-.9.9h-8.87Z"/>
    <path class="cls-3" d="M363.9,76.65v-38.81c0-.54.36-.9.9-.9h8.87c.54,0,.9.36.9.9v38.99c0,14.29-9.68,22.62-22.71,22.62s-22.62-8.32-22.62-22.62v-38.99c0-.54.36-.9.9-.9h8.87c.54,0,.91.36.91.9v38.81c0,8.5,4.97,13.21,11.94,13.21s12.03-4.7,12.03-13.21Z"/>
    <path class="cls-3" d="M390.01,37.84c0-.54.36-.9.9-.9h8.05c.82,0,1.27.27,1.54.9l16.92,37.91h.36l16.65-37.91c.27-.63.73-.9,1.54-.9h7.96c.54,0,.9.36.9.9v59.71c0,.54-.36.9-.9.9h-7.87c-.54,0-.9-.36-.9-.9v-37.64h-.36l-13.03,28.95c-.36.82-.9,1.18-1.72,1.18h-5.25c-.82,0-1.36-.36-1.72-1.18l-13.03-28.95h-.36v37.64c0,.54-.36.9-.9.9h-7.87c-.54,0-.9-.36-.9-.9v-59.71Z"/>
  </g>
  <g>
    <path class="cls-3" d="M152.43,123.61c.18-.54.54-.9,1.18-.9h8.33c.63,0,.99.36,1.18.9l20.81,59.71c.18.54,0,.9-.63.9h-8.86c-.63,0-1-.27-1.18-.9l-4.07-11.94h-23.16l-4.07,11.94c-.18.63-.54.9-1.18.9h-8.78c-.63,0-.82-.36-.63-.9l21.08-59.71ZM165.9,161.88l-8.14-23.89h-.27l-8.23,23.89h16.64Z"/>
    <path class="cls-3" d="M214.19,123.61c.18-.54.54-.9,1.18-.9h8.33c.63,0,.99.36,1.18.9l20.81,59.71c.18.54,0,.9-.63.9h-8.87c-.63,0-1-.27-1.18-.9l-4.07-11.94h-23.16l-4.07,11.94c-.18.63-.54.9-1.18.9h-8.78c-.63,0-.81-.36-.63-.9l21.08-59.71ZM227.67,161.88l-8.14-23.89h-.27l-8.23,23.89h16.65Z"/>
    <path class="cls-3" d="M253.51,153.47c0-9.77.36-12.85,1.63-16.65,3.17-10.04,10.95-15.11,21.35-15.11,9.86,0,17.28,5.07,20.81,13.21.18.45,0,.9-.45,1.08l-7.69,3.71c-.54.27-.99,0-1.18-.45-1.99-4.34-5.43-7.96-11.49-7.96s-9.32,3.17-11.04,8.14c-.82,2.53-1.09,4.97-1.09,14.02s.27,11.49,1.09,14.02c1.72,4.97,5.16,8.14,11.04,8.14s9.5-3.62,11.49-7.96c.18-.45.63-.73,1.18-.45l7.69,3.71c.45.18.63.63.45,1.09-3.53,8.14-10.95,13.21-20.81,13.21-10.41,0-18.19-5.06-21.35-15.11-1.27-3.8-1.63-6.88-1.63-16.65Z"/>
    <path class="cls-3" d="M309.69,123.61c0-.54.36-.9.91-.9h8.86c.54,0,.9.36.9.9v24.25c0,.36.18.54.54.54h23.43c.36,0,.54-.18.54-.54v-24.25c0-.54.36-.9.9-.9h8.86c.54,0,.9.36.9.9v59.71c0,.54-.36.9-.9.9h-8.86c-.54,0-.9-.36-.9-.9v-24.79c0-.36-.18-.54-.54-.54h-23.43c-.36,0-.54.18-.54.54v24.79c0,.54-.36.9-.9.9h-8.86c-.54,0-.91-.36-.91-.9v-59.71Z"/>
    <path class="cls-3" d="M371.34,123.61c0-.54.36-.9.91-.9h38.54c.54,0,.9.36.9.9v7.78c0,.54-.36.9-.9.9h-28.23c-.36,0-.54.18-.54.54v15.02c0,.36.18.54.54.54h23.79c.54,0,.9.36.9.9v7.78c0,.54-.36.9-.9.9h-23.79c-.36,0-.54.18-.54.54v15.56c0,.36.18.54.54.54h28.23c.54,0,.9.36.9.9v7.78c0,.54-.36.9-.9.9h-38.54c-.54,0-.91-.36-.91-.9v-59.71Z"/>
    <path class="cls-3" d="M424.94,123.61c0-.54.36-.9.91-.9h8.32c.72,0,1.18.27,1.54.9l25.06,42.43h.36v-42.43c0-.54.36-.9.9-.9h7.87c.54,0,.9.36.9.9v59.71c0,.54-.36.9-.9.9h-8.23c-.72,0-1.18-.27-1.54-.9l-25.15-42.34h-.36v42.34c0,.54-.36.9-.9.9h-7.87c-.54,0-.91-.36-.91-.9v-59.71Z"/>
  </g>
</svg>