<?xml version="1.0" encoding="UTF-8"?>
<svg xmlns="http://www.w3.org/2000/svg" viewBox="0 0 510 222">
  <title>Logo KATHOLISCHE KIRCHE BISTUM AACHEN</title>
  <desc>Logo des Bistums Aachen</desc>
  <defs>
    <style>
      .cls-1 {
        fill: none;
      }

      .cls-2 {
        fill: #0085ff;
      }

      .cls-3 {
        fill: #0053ff;
      }

      .cls-4 {
        fill: #260a3b;
      }

      .cls-5 {
        fill: #3231e4;
      }
    </style>
  </defs>
  <g id="Rahmen">
    <rect class="cls-1" x="0" y="0" width="510" height="222"/>
  </g>
  <g id="Logo">
    <g>
      <rect class="cls-5" x="37" y="73.85" width="37" height="37"/>
      <polygon class="cls-2" points="37 73.85 37 110.85 74 110.85 37 73.85"/>
      <rect class="cls-2" x="74" y="37" width="36.85" height="36.85"/>
      <polyline class="cls-5" points="110.85 37 74 37 74 73.85"/>
      <rect class="cls-2" x="74" y="110.85" width="36.85" height="36.85" transform="translate(184.84 258.54) rotate(180)"/>
      <polyline class="cls-5" points="74 147.7 110.85 147.7 110.85 110.85"/>
      <rect class="cls-3" x="74" y="147.7" width="36.85" height="36.85"/>
      <polyline class="cls-2" points="110.85 184.55 74 184.55 74 147.7"/>
      <polygon class="cls-3" points="74 110.85 110.85 110.85 74 73.85 74 110.85"/>
    </g>
    <g>
      <path class="cls-4" d="M152.57,123.76c.18-.54.54-.9,1.18-.9h8.33c.63,0,.99.36,1.18.9l20.81,59.71c.18.54,0,.9-.63.9h-8.86c-.63,0-1-.27-1.18-.9l-4.07-11.94h-23.16l-4.07,11.94c-.18.63-.54.9-1.18.9h-8.78c-.63,0-.82-.36-.63-.9l21.08-59.71ZM166.05,162.03l-8.14-23.89h-.27l-8.23,23.89h16.64Z"/>
      <path class="cls-4" d="M214.34,123.76c.18-.54.54-.9,1.18-.9h8.33c.63,0,.99.36,1.18.9l20.81,59.71c.18.54,0,.9-.63.9h-8.87c-.63,0-1-.27-1.18-.9l-4.07-11.94h-23.16l-4.07,11.94c-.18.63-.54.9-1.18.9h-8.78c-.63,0-.81-.36-.63-.9l21.08-59.71ZM227.82,162.03l-8.14-23.89h-.27l-8.23,23.89h16.65Z"/>
      <path class="cls-4" d="M253.66,153.61c0-9.77.36-12.85,1.63-16.65,3.17-10.04,10.95-15.11,21.35-15.11,9.86,0,17.28,5.07,20.81,13.21.18.45,0,.9-.45,1.08l-7.69,3.71c-.54.27-.99,0-1.18-.45-1.99-4.34-5.43-7.96-11.49-7.96s-9.32,3.17-11.04,8.14c-.82,2.53-1.09,4.97-1.09,14.02s.27,11.49,1.09,14.02c1.72,4.97,5.16,8.14,11.04,8.14s9.5-3.62,11.49-7.96c.18-.45.63-.73,1.18-.45l7.69,3.71c.45.18.63.63.45,1.09-3.53,8.14-10.95,13.21-20.81,13.21-10.41,0-18.19-5.06-21.35-15.11-1.27-3.8-1.63-6.88-1.63-16.65Z"/>
      <path class="cls-4" d="M309.84,123.76c0-.54.36-.9.91-.9h8.86c.54,0,.9.36.9.9v24.25c0,.36.18.54.54.54h23.43c.36,0,.54-.18.54-.54v-24.25c0-.54.36-.9.9-.9h8.86c.54,0,.9.36.9.9v59.71c0,.54-.36.9-.9.9h-8.86c-.54,0-.9-.36-.9-.9v-24.79c0-.36-.18-.54-.54-.54h-23.43c-.36,0-.54.18-.54.54v24.79c0,.54-.36.9-.9.9h-8.86c-.54,0-.91-.36-.91-.9v-59.71Z"/>
      <path class="cls-4" d="M371.49,123.76c0-.54.36-.9.91-.9h38.54c.54,0,.9.36.9.9v7.78c0,.54-.36.9-.9.9h-28.23c-.36,0-.54.18-.54.54v15.02c0,.36.18.54.54.54h23.79c.54,0,.9.36.9.9v7.78c0,.54-.36.9-.9.9h-23.79c-.36,0-.54.18-.54.54v15.56c0,.36.18.54.54.54h28.23c.54,0,.9.36.9.9v7.78c0,.54-.36.9-.9.9h-38.54c-.54,0-.91-.36-.91-.9v-59.71Z"/>
      <path class="cls-4" d="M425.09,123.76c0-.54.36-.9.91-.9h8.32c.72,0,1.18.27,1.54.9l25.06,42.43h.36v-42.43c0-.54.36-.9.9-.9h7.87c.54,0,.9.36.9.9v59.71c0,.54-.36.9-.9.9h-8.23c-.72,0-1.18-.27-1.54-.9l-25.15-42.34h-.36v42.34c0,.54-.36.9-.9.9h-7.87c-.54,0-.91-.36-.91-.9v-59.71Z"/>
    </g>
    <g>
      <path class="cls-4" d="M136.67,97.72v-59.73c0-.6.3-.91.9-.91h22.9c6.33,0,11.12,1.46,14.34,4.39,3.23,2.93,4.84,6.92,4.84,11.99,0,6.15-2.38,10.5-7.15,13.03v.18c2.17.85,4.09,2.49,5.75,4.93,1.66,2.44,2.49,5.42,2.49,8.91,0,6.03-1.83,10.56-5.48,13.58-3.65,3.02-8.88,4.52-15.7,4.52h-21.99c-.6,0-.9-.3-.9-.9ZM147.89,62.69h12.31c2.72,0,4.86-.74,6.43-2.22,1.57-1.48,2.35-3.42,2.35-5.84s-.79-4.45-2.35-5.93c-1.57-1.48-3.71-2.22-6.43-2.22h-12.31c-.36,0-.54.18-.54.54v15.11c0,.36.18.54.54.54ZM147.35,88.67c0,.36.18.54.54.54h12.85c2.96,0,5.25-.78,6.88-2.35,1.63-1.57,2.44-3.65,2.44-6.24s-.81-4.66-2.44-6.2c-1.63-1.54-3.92-2.31-6.88-2.31h-12.85c-.36,0-.54.18-.54.54v16.02Z"/>
      <path class="cls-4" d="M199.48,97.72v-59.73c0-.6.3-.91.9-.91h8.87c.6,0,.91.3.91.91v59.73c0,.6-.3.9-.91.9h-8.87c-.6,0-.9-.3-.9-.9Z"/>
      <path class="cls-4" d="M250.97,99.62c-4.4,0-8.66-.77-12.76-2.31-4.1-1.54-7.39-3.48-9.86-5.84-.48-.48-.54-.93-.18-1.36l5.61-6.52c.42-.48.84-.51,1.27-.09,5.49,4.34,11.07,6.52,16.74,6.52,3.62,0,6.46-.81,8.51-2.44,2.05-1.63,3.08-3.77,3.08-6.43,0-2.35-.85-4.22-2.53-5.61-1.69-1.39-4.58-2.35-8.69-2.9l-3.26-.45c-12.37-1.69-18.55-7.54-18.55-17.56,0-5.61,1.88-10.1,5.66-13.48,3.77-3.38,8.82-5.07,15.16-5.07,7.84,0,14.48,2.05,19.91,6.15.42.36.48.78.18,1.27l-4.34,6.7c-.36.48-.78.57-1.27.27-4.89-3.2-9.8-4.8-14.75-4.8-3.08,0-5.46.75-7.15,2.26-1.69,1.51-2.53,3.5-2.53,5.97,0,4.47,3.77,7.24,11.31,8.33l3.26.45c12.25,1.69,18.37,7.63,18.37,17.83,0,5.67-2.01,10.27-6.02,13.8-4.01,3.53-9.73,5.29-17.15,5.29Z"/>
      <path class="cls-4" d="M315.13,98.62h-8.87c-.6,0-.91-.3-.91-.9v-50.5c0-.36-.18-.54-.54-.54h-16.11c-.6,0-.91-.3-.91-.91v-7.78c0-.6.3-.91.91-.91h43.98c.6,0,.91.3.91.91v7.78c0,.6-.3.91-.91.91h-16.11c-.36,0-.54.18-.54.54v50.5c0,.6-.3.9-.9.9Z"/>
      <path class="cls-4" d="M372.51,90.03c3.62,0,6.53-1.16,8.73-3.48,2.2-2.32,3.3-5.57,3.3-9.73v-38.82c0-.6.3-.91.91-.91h8.87c.6,0,.9.3.9.91v39.01c0,7-2.11,12.52-6.33,16.56-4.22,4.04-9.68,6.06-16.38,6.06s-12.07-2.02-16.29-6.06c-4.22-4.04-6.33-9.56-6.33-16.56v-39.01c0-.6.3-.91.9-.91h8.87c.6,0,.91.3.91.91v38.82c0,4.16,1.1,7.41,3.3,9.73,2.2,2.32,5.08,3.48,8.64,3.48Z"/>
      <path class="cls-4" d="M416.12,97.72v-59.73c0-.6.3-.91.91-.91h8.05c.78,0,1.3.3,1.54.91l16.92,37.92h.36l16.65-37.92c.24-.6.75-.91,1.54-.91h7.96c.6,0,.91.3.91.91v59.73c0,.6-.3.9-.91.9h-7.87c-.6,0-.9-.3-.9-.9v-37.65h-.36l-13.03,28.96c-.36.78-.94,1.18-1.72,1.18h-5.25c-.79,0-1.36-.39-1.72-1.18l-13.03-28.96h-.36v37.65c0,.6-.3.9-.9.9h-7.87c-.6,0-.91-.3-.91-.9Z"/>
    </g>
  </g>
</svg>