<?xml version="1.0" encoding="UTF-8"?>
<svg xmlns="http://www.w3.org/2000/svg" viewBox="0 0 250.02 143.54">
  <title>Logo KATHOLISCHE KIRCHE BISTUM AACHEN</title>
  <desc>Logo des Bistums Aachen</desc>
  <defs>
    <style>
      .cls-1 {
        fill: #0085ff;
      }

      .cls-2 {
        fill: #0053ff;
      }

      .cls-3 {
        fill: #260a3b;
      }

      .cls-4 {
        fill: #3231e4;
      }
    </style>
  </defs>
  <path class="cls-4" d="M81.23,97.96c0-.09.06-.14.14-.14h3.66c2.09,0,3.07,1.04,3.07,2.62,0,1.12-.52,1.75-1.14,2.09v.03c.61.23,1.32,1.01,1.32,2.22,0,1.95-1.23,2.9-3.39,2.9h-3.52c-.09,0-.14-.06-.14-.14v-9.56ZM84.99,101.92c.87,0,1.4-.52,1.4-1.29s-.54-1.3-1.4-1.3h-1.97c-.06,0-.09.03-.09.09v2.42c0,.06.03.09.09.09h1.97ZM83.02,106.16h2.06c.96,0,1.49-.55,1.49-1.38s-.54-1.36-1.49-1.36h-2.06c-.06,0-.09.03-.09.09v2.56c0,.06.03.09.09.09Z"/>
  <path class="cls-4" d="M91.08,97.96c0-.09.06-.14.14-.14h1.42c.09,0,.14.06.14.14v9.56c0,.09-.06.14-.14.14h-1.42c-.09,0-.14-.06-.14-.14v-9.56Z"/>
  <path class="cls-4" d="M95.45,106.52c-.06-.06-.09-.14-.03-.22l.9-1.04c.06-.07.15-.07.2-.01.64.51,1.58,1.04,2.68,1.04,1.17,0,1.85-.59,1.85-1.42,0-.71-.43-1.17-1.8-1.36l-.52-.07c-1.9-.26-2.97-1.17-2.97-2.81,0-1.78,1.3-2.97,3.33-2.97,1.23,0,2.4.39,3.19.98.07.06.09.12.03.2l-.7,1.07c-.06.07-.13.09-.2.04-.8-.52-1.53-.77-2.36-.77-1,0-1.55.55-1.55,1.32,0,.68.48,1.14,1.81,1.33l.52.07c1.9.26,2.94,1.16,2.94,2.85s-1.26,3.05-3.71,3.05c-1.45,0-2.85-.58-3.62-1.3Z"/>
  <path class="cls-4" d="M107.82,107.67c-.09,0-.14-.06-.14-.14v-8.08c0-.06-.03-.09-.09-.09h-2.58c-.09,0-.14-.06-.14-.14v-1.25c0-.09.06-.14.14-.14h7.04c.09,0,.14.06.14.14v1.25c0,.09-.06.14-.14.14h-2.58c-.06,0-.09.03-.09.09v8.08c0,.09-.06.14-.14.14h-1.42Z"/>
  <path class="cls-4" d="M120.25,104.18v-6.21c0-.09.06-.14.14-.14h1.42c.09,0,.14.06.14.14v6.24c0,2.29-1.55,3.62-3.63,3.62s-3.62-1.33-3.62-3.62v-6.24c0-.09.06-.14.14-.14h1.42c.09,0,.15.06.15.14v6.21c0,1.36.8,2.11,1.91,2.11s1.93-.75,1.93-2.11Z"/>
  <path class="cls-4" d="M125.08,97.96c0-.09.06-.14.14-.14h1.29c.13,0,.2.04.25.14l2.71,6.07h.06l2.66-6.07c.04-.1.12-.14.25-.14h1.27c.09,0,.14.06.14.14v9.56c0,.09-.06.14-.14.14h-1.26c-.09,0-.14-.06-.14-.14v-6.02h-.06l-2.09,4.63c-.06.13-.14.19-.28.19h-.84c-.13,0-.22-.06-.28-.19l-2.09-4.63h-.06v6.02c0,.09-.06.14-.14.14h-1.26c-.09,0-.14-.06-.14-.14v-9.56Z"/>
  <path class="cls-4" d="M148.81,97.96c.03-.09.09-.14.19-.14h1.33c.1,0,.16.06.19.14l3.33,9.56c.03.09,0,.14-.1.14h-1.42c-.1,0-.16-.04-.19-.14l-.65-1.91h-3.71l-.65,1.91c-.03.1-.09.14-.19.14h-1.4c-.1,0-.13-.06-.1-.14l3.37-9.56ZM150.96,104.09l-1.3-3.82h-.04l-1.32,3.82h2.66Z"/>
  <path class="cls-4" d="M159.35,97.96c.03-.09.09-.14.19-.14h1.33c.1,0,.16.06.19.14l3.33,9.56c.03.09,0,.14-.1.14h-1.42c-.1,0-.16-.04-.19-.14l-.65-1.91h-3.71l-.65,1.91c-.03.1-.09.14-.19.14h-1.4c-.1,0-.13-.06-.1-.14l3.37-9.56ZM161.5,104.09l-1.3-3.82h-.04l-1.32,3.82h2.66Z"/>
  <path class="cls-4" d="M166.3,102.74c0-1.56.06-2.06.26-2.66.51-1.61,1.75-2.42,3.42-2.42,1.58,0,2.77.81,3.33,2.11.03.07,0,.14-.07.17l-1.23.59c-.09.04-.16,0-.19-.07-.32-.69-.87-1.27-1.84-1.27s-1.49.51-1.77,1.3c-.13.41-.17.8-.17,2.24s.04,1.84.17,2.24c.28.8.83,1.3,1.77,1.3s1.52-.58,1.84-1.27c.03-.07.1-.12.19-.07l1.23.59c.07.03.1.1.07.17-.56,1.3-1.75,2.11-3.33,2.11-1.67,0-2.91-.81-3.42-2.42-.2-.61-.26-1.1-.26-2.66Z"/>
  <path class="cls-4" d="M175.95,97.96c0-.09.06-.14.15-.14h1.42c.09,0,.14.06.14.14v3.88c0,.06.03.09.09.09h3.75c.06,0,.09-.03.09-.09v-3.88c0-.09.06-.14.14-.14h1.42c.09,0,.14.06.14.14v9.56c0,.09-.06.14-.14.14h-1.42c-.09,0-.14-.06-.14-.14v-3.97c0-.06-.03-.09-.09-.09h-3.75c-.06,0-.09.03-.09.09v3.97c0,.09-.06.14-.14.14h-1.42c-.09,0-.15-.06-.15-.14v-9.56Z"/>
  <path class="cls-4" d="M186.47,97.96c0-.09.06-.14.15-.14h6.17c.09,0,.14.06.14.14v1.25c0,.09-.06.14-.14.14h-4.52c-.06,0-.09.03-.09.09v2.4c0,.06.03.09.09.09h3.81c.09,0,.14.06.14.14v1.25c0,.09-.06.14-.14.14h-3.81c-.06,0-.09.03-.09.09v2.49c0,.06.03.09.09.09h4.52c.09,0,.14.06.14.14v1.25c0,.09-.06.14-.14.14h-6.17c-.09,0-.15-.06-.15-.14v-9.56Z"/>
  <path class="cls-4" d="M195.71,97.96c0-.09.06-.14.15-.14h1.33c.12,0,.19.04.25.14l4.01,6.79h.06v-6.79c0-.09.06-.14.14-.14h1.26c.09,0,.14.06.14.14v9.56c0,.09-.06.14-.14.14h-1.32c-.12,0-.19-.04-.25-.14l-4.02-6.78h-.06v6.78c0,.09-.06.14-.14.14h-1.26c-.09,0-.15-.06-.15-.14v-9.56Z"/>
  <path class="cls-3" d="M81.22,74.61c0-.14.09-.23.23-.23h2.21c.14,0,.23.09.23.23v7.21l5.79-7.25c.11-.14.2-.18.36-.18h2.57c.14,0,.2.16.09.29l-4.75,5.72,5.29,9.03c.09.16.02.27-.16.27h-2.5c-.18,0-.25-.05-.34-.18l-4.01-7.07-2.34,2.84v4.19c0,.14-.09.23-.23.23h-2.21c-.14,0-.23-.09-.23-.23v-14.87Z"/>
  <path class="cls-3" d="M95.65,74.61c0-.14.09-.23.23-.23h2.21c.14,0,.23.09.23.23v14.87c0,.14-.09.23-.23.23h-2.21c-.14,0-.23-.09-.23-.23v-14.87Z"/>
  <path class="cls-3" d="M110.33,89.71c-.18,0-.27-.07-.34-.23l-2.93-5.97h-2.64c-.09,0-.14.05-.14.14v5.84c0,.14-.09.23-.23.23h-2.21c-.14,0-.23-.09-.23-.23v-14.87c0-.14.09-.23.23-.23h5.93c2.82,0,4.89,1.87,4.89,4.57,0,2.01-1.15,3.56-2.91,4.21l3.22,6.24c.09.16,0,.29-.16.29h-2.5ZM110.03,78.96c0-1.33-.95-2.19-2.34-2.19h-3.27c-.09,0-.14.04-.14.14v4.08c0,.09.05.14.14.14h3.27c1.4,0,2.34-.86,2.34-2.16Z"/>
  <path class="cls-3" d="M115.12,82.04c0-2.43.09-3.2.41-4.15.79-2.5,2.73-3.76,5.32-3.76,2.46,0,4.3,1.26,5.18,3.29.05.11,0,.23-.11.27l-1.92.92c-.14.07-.25,0-.29-.11-.5-1.08-1.35-1.98-2.86-1.98s-2.32.79-2.75,2.03c-.2.63-.27,1.24-.27,3.49s.07,2.86.27,3.49c.43,1.24,1.28,2.03,2.75,2.03s2.37-.9,2.86-1.98c.05-.11.16-.18.29-.11l1.92.92c.11.05.16.16.11.27-.88,2.03-2.73,3.29-5.18,3.29-2.59,0-4.53-1.26-5.32-3.76-.32-.95-.41-1.71-.41-4.15Z"/>
  <path class="cls-3" d="M128.54,74.61c0-.14.09-.23.23-.23h2.21c.14,0,.23.09.23.23v6.04c0,.09.04.14.14.14h5.84c.09,0,.13-.04.13-.14v-6.04c0-.14.09-.23.23-.23h2.21c.14,0,.23.09.23.23v14.87c0,.14-.09.23-.23.23h-2.21c-.14,0-.23-.09-.23-.23v-6.17c0-.09-.04-.14-.13-.14h-5.84c-.09,0-.14.05-.14.14v6.17c0,.14-.09.23-.23.23h-2.21c-.14,0-.23-.09-.23-.23v-14.87Z"/>
  <path class="cls-3" d="M143.32,74.61c0-.14.09-.23.23-.23h9.6c.14,0,.23.09.23.23v1.94c0,.14-.09.23-.23.23h-7.03c-.09,0-.14.04-.14.14v3.74c0,.09.05.14.14.14h5.93c.14,0,.23.09.23.23v1.94c0,.14-.09.23-.23.23h-5.93c-.09,0-.14.05-.14.14v3.88c0,.09.05.14.14.14h7.03c.14,0,.23.09.23.23v1.94c0,.14-.09.23-.23.23h-9.6c-.14,0-.23-.09-.23-.23v-14.87Z"/>
  <path class="cls-3" d="M81.23,53.91c0-.13.09-.22.22-.22h2.14c.13,0,.22.09.22.22v6.99l5.61-7.03c.11-.13.2-.17.35-.17h2.49c.13,0,.2.15.09.28l-4.61,5.55,5.13,8.76c.09.15.02.26-.15.26h-2.42c-.17,0-.24-.04-.33-.17l-3.89-6.86-2.27,2.75v4.06c0,.13-.09.22-.22.22h-2.14c-.13,0-.22-.09-.22-.22v-14.42Z"/>
  <path class="cls-3" d="M99.59,53.91c.04-.13.13-.22.28-.22h2.01c.15,0,.24.09.28.22l5.02,14.42c.04.13,0,.22-.15.22h-2.14c-.15,0-.24-.07-.28-.22l-.98-2.88h-5.59l-.98,2.88c-.04.15-.13.22-.28.22h-2.12c-.15,0-.2-.09-.15-.22l5.09-14.42ZM102.85,63.15l-1.97-5.77h-.07l-1.99,5.77h4.02Z"/>
  <path class="cls-3" d="M110.98,68.54c-.13,0-.22-.09-.22-.22v-12.19c0-.09-.04-.13-.13-.13h-3.89c-.13,0-.22-.09-.22-.22v-1.88c0-.13.09-.22.22-.22h10.62c.13,0,.22.09.22.22v1.88c0,.13-.09.22-.22.22h-3.89c-.09,0-.13.04-.13.13v12.19c0,.13-.09.22-.22.22h-2.14Z"/>
  <path class="cls-3" d="M119.71,53.91c0-.13.09-.22.22-.22h2.14c.13,0,.22.09.22.22v5.85c0,.09.04.13.13.13h5.66c.09,0,.13-.04.13-.13v-5.85c0-.13.09-.22.22-.22h2.14c.13,0,.22.09.22.22v14.42c0,.13-.09.22-.22.22h-2.14c-.13,0-.22-.09-.22-.22v-5.99c0-.09-.04-.13-.13-.13h-5.66c-.09,0-.13.04-.13.13v5.99c0,.13-.09.22-.22.22h-2.14c-.13,0-.22-.09-.22-.22v-14.42Z"/>
  <path class="cls-3" d="M133.9,65.2c-.31-.92-.39-1.75-.39-4.09s.09-3.17.39-4.09c.76-2.36,2.69-3.58,5.24-3.58s4.5,1.22,5.26,3.58c.31.92.39,1.75.39,4.09s-.09,3.17-.39,4.09c-.76,2.36-2.69,3.58-5.26,3.58s-4.48-1.22-5.24-3.58ZM141.91,64.52c.17-.55.26-1.31.26-3.41s-.09-2.86-.26-3.41c-.42-1.2-1.29-1.94-2.77-1.94s-2.34.74-2.75,1.94c-.17.55-.26,1.29-.26,3.41s.09,2.86.26,3.41c.41,1.2,1.29,1.94,2.75,1.94s2.36-.74,2.77-1.94Z"/>
  <path class="cls-3" d="M147.51,53.91c0-.13.09-.22.22-.22h2.14c.13,0,.22.09.22.22v12.19c0,.09.04.13.13.13h6.82c.13,0,.22.09.22.22v1.88c0,.13-.09.22-.22.22h-9.31c-.13,0-.22-.09-.22-.22v-14.42Z"/>
  <path class="cls-3" d="M159.41,53.91c0-.13.09-.22.22-.22h2.14c.13,0,.22.09.22.22v14.42c0,.13-.09.22-.22.22h-2.14c-.13,0-.22-.09-.22-.22v-14.42Z"/>
  <path class="cls-3" d="M164.33,66.82c-.09-.09-.13-.22-.04-.33l1.35-1.57c.09-.11.22-.11.31-.02.96.76,2.38,1.57,4.04,1.57,1.77,0,2.8-.9,2.8-2.14,0-1.07-.66-1.77-2.71-2.05l-.79-.11c-2.86-.39-4.48-1.77-4.48-4.24,0-2.69,1.97-4.48,5.02-4.48,1.86,0,3.63.59,4.81,1.49.11.09.13.17.04.31l-1.05,1.62c-.09.11-.2.13-.31.07-1.2-.79-2.32-1.16-3.56-1.16-1.51,0-2.34.83-2.34,1.99,0,1.03.72,1.73,2.73,2.01l.79.11c2.86.39,4.43,1.75,4.43,4.3s-1.9,4.61-5.59,4.61c-2.18,0-4.3-.87-5.46-1.97Z"/>
  <path class="cls-3" d="M177.5,61.12c0-2.36.09-3.1.39-4.02.76-2.42,2.64-3.65,5.16-3.65,2.38,0,4.17,1.22,5.02,3.19.04.11,0,.22-.11.26l-1.86.9c-.13.07-.24,0-.28-.11-.48-1.05-1.31-1.92-2.77-1.92s-2.25.76-2.66,1.97c-.2.61-.26,1.2-.26,3.39s.07,2.77.26,3.39c.41,1.2,1.24,1.97,2.66,1.97s2.29-.87,2.77-1.92c.04-.11.15-.17.28-.11l1.86.9c.11.04.15.15.11.26-.85,1.97-2.64,3.19-5.02,3.19-2.51,0-4.39-1.22-5.16-3.65-.31-.92-.39-1.66-.39-4.02Z"/>
  <path class="cls-3" d="M190.37,53.91c0-.13.09-.22.22-.22h2.14c.13,0,.22.09.22.22v5.85c0,.09.04.13.13.13h5.66c.09,0,.13-.04.13-.13v-5.85c0-.13.09-.22.22-.22h2.14c.13,0,.22.09.22.22v14.42c0,.13-.09.22-.22.22h-2.14c-.13,0-.22-.09-.22-.22v-5.99c0-.09-.04-.13-.13-.13h-5.66c-.09,0-.13.04-.13.13v5.99c0,.13-.09.22-.22.22h-2.14c-.13,0-.22-.09-.22-.22v-14.42Z"/>
  <path class="cls-3" d="M204.56,53.91c0-.13.09-.22.22-.22h9.31c.13,0,.22.09.22.22v1.88c0,.13-.09.22-.22.22h-6.82c-.09,0-.13.04-.13.13v3.63c0,.09.04.13.13.13h5.75c.13,0,.22.09.22.22v1.88c0,.13-.09.22-.22.22h-5.75c-.09,0-.13.04-.13.13v3.76c0,.09.04.13.13.13h6.82c.13,0,.22.09.22.22v1.88c0,.13-.09.22-.22.22h-9.31c-.13,0-.22-.09-.22-.22v-14.42Z"/>
  <rect class="cls-4" x="35.72" y="53.69" width="18.04" height="18.04"/>
  <polygon class="cls-1" points="35.72 53.69 35.72 71.73 53.76 71.73 35.72 53.69"/>
  <rect class="cls-1" x="53.76" y="35.72" width="17.97" height="17.97"/>
  <polygon class="cls-4" points="71.73 35.72 53.76 35.72 53.76 53.69 71.73 35.72"/>
  <rect class="cls-1" x="53.76" y="71.73" width="17.97" height="17.97" transform="translate(125.49 161.42) rotate(180)"/>
  <polygon class="cls-4" points="53.76 89.7 71.73 89.7 71.73 71.73 53.76 89.7"/>
  <rect class="cls-2" x="53.76" y="89.7" width="17.97" height="17.97"/>
  <polygon class="cls-1" points="71.73 107.67 53.76 107.67 53.76 89.7 71.73 107.67"/>
  <polygon class="cls-2" points="53.76 71.73 71.73 71.73 53.76 53.69 53.76 71.73"/>
</svg>