<?xml version="1.0" encoding="UTF-8"?>
<svg id="Ebene_1" xmlns="http://www.w3.org/2000/svg" version="1.1" viewBox="0 0 60 85">
  <!-- Generator: Adobe Illustrator 29.6.0, SVG Export Plug-In . SVG Version: 2.1.1 Build 207)  -->
  <defs>
    <style>
      .st0 {
        fill: #fbc346;
      }

      .st1 {
        fill: #252551;
      }
    </style>
  </defs>
  <g>
    <path class="st1" d="M50.44,7.14c-.19-.18-.49-.18-.69,0l-9.27,8.6c-.1.09-.15.22-.15.35v30.86l-10.46-11.96c-.09-.11-.23-.17-.38-.17-.11-.04-.29.06-.38.17l-10.39,12.23v-31.14c0-.15-.07-.29-.19-.38l-8.89-6.94c-.18-.14-.44-.14-.62,0L.19,15.71c-.12.09-.19.23-.19.38v53.65c0,.27.22.49.5.49h58.6c.27,0,.91-.35.91-1.25V16.61c0-.43-.47-.78-.56-.87l-9-8.6Z"/>
    <path class="st1" d="M.28,10.43c.17.08.37.06.52-.06L9.33,3.67l8.58,6.7c.09.07.2.11.31.11.07,0,.15-.02.22-.05.17-.08.28-.25.28-.44V.49c0-.27-.22-.49-.5-.49H.5c-.27,0-.5.22-.5.49v9.5c0,.19.11.36.28.44Z"/>
    <path class="st1" d="M59.5,0h-18.27c-.27,0-.49.21-.5.47v.1s0,0,0,.01v9.41c0,.19.12.37.3.45.18.08.39.04.54-.09l8.93-8.28,8.66,8.27c.09.09.22.14.35.14.06,0,.13-.01.19-.04.18-.08.3-.25.3-.45V.49c0-.27-.22-.49-.5-.49Z"/>
  </g>
  <g id="Katholische_Kirchengemeinde_Logo_bunt">
    <path class="st0" d="M1.41,73.26h56.63c.78,0,1.96.5,1.96,1.87v7.93c0,1.21-1.18,1.94-1.96,1.94H1.41c-.78,0-1.41-.62-1.41-1.38v-8.98c0-.76.63-1.38,1.41-1.38Z"/>
  </g>
</svg>