<svg xmlns="http://www.w3.org/2000/svg" data-name="Ebene 2" viewBox="0 0 335.95 109.74">
    <defs>
        <style>
            .cls-1 {
            fill: #a1191f;
            }

            .cls-2 {
            fill: #252551;
            }

            .cls-3 {
            fill: #fbc346;
            }
        </style>
    </defs>
    <g id="Katholische_Kirchengemeinde_Logo_bunt" data-name="Katholische Kirchengemeinde Logo bunt">
        <g>
            <path class="cls-2" d="M82.69,26.75c-.6.03-.7.64-.73.87-.03.22-.04.43-.04.64v.09c-.02.87-.05,1.75-.07,2.62-.06,1.95-.11,3.96-.12,5.94-.04,7.19-.07,14.39-.09,21.58l-.05,11.92c-.02,4.11-.03,8.22-.08,12.33q-.01,1.4-1.47,1.43c-.95.02-1.91.02-2.86,0h-1.07c-1.18,0-1.83,0-2.08-.26-.25-.26-.24-.94-.23-2.19l.11-7.02c.1-6.12.19-12.44.26-18.67,0-.38.01-.72.02-1.02.03-1.17.05-1.76-.32-2.13-.4-.41-1.13-.41-2.72-.4h-.84c-.09,0-.17.01-.26,0-.51,0-.9.11-1.17.37-.25.25-.38.62-.38,1.11,0,.07,0,.14.01.22.03.29.02.39-.11.45-.83-.32-.85-.9-.81-1.82,0-.15.01-.3.01-.45,0-4.87,0-11.3.03-17.83.03-4.84-1.8-8.6-5.44-11.17-.69-.49-.96-.94-.99-1.68-.08-1.73-.22-3.48-.35-5.17l-.29-3.65c-.28-3.54-.56-7.2-.89-10.79-.01-.13-.01-.28-.01-.44,0-.51,0-1.08-.34-1.42-.17-.17-.42-.25-.7-.25-.95.02-.99,1.03-1.01,1.7,0,.16-.01.31-.03.48-.67,5.79-1.36,11.77-1.91,17.67-.14,1.53-.51,2.8-1.85,4.04-3.28,3.05-4.9,6.86-4.8,11.34.06,2.68.06,5.4.06,8.03,0,1.26,0,2.51,0,3.77,0,.75.01,1.5.02,2.25.01,1.41.02,2.82.02,4.23,0,.81,0,.9-.77,1.26-.21-2.14-.42-2.22-2.76-2.23-.17,0-.34,0-.52,0-.29,0-.58,0-.87,0-.52-.02-.92.1-1.19.37-.25.25-.37.62-.36,1.11,0,.34,0,.68,0,1.02,0,.2,0,.39,0,.59v24.77c0,.3,0,.59,0,.89,0,.62-.01,1.26.01,1.9.02.39-.05.66-.21.83-.17.18-.48.26-.94.25-.9-.02-1.8,0-2.7,0-.57,0-1.13,0-1.7,0q-1.29,0-1.3-1.29v-1.68c-.03-3.17-.06-6.44.01-9.65.04-1.92-.41-3.74-.86-5.51-.13-.53-.26-1.06-.38-1.59-.07-.3-.23-1.01-.92-1.01h0c-.69,0-.84.58-.94.95-.02.07-.04.15-.06.22-.1.3-.12.62-.15.93-.03.41-.06.79-.24,1.17,0-.01-.02-.02-.02-.03-.1-.12-.18-.22-.19-.28-.14-.59-.29-1.18-.43-1.76-.86-3.45-1.74-7.02-1.88-10.67-.06-1.66-.2-3.35-.34-4.98-.05-.65-.11-1.3-.16-1.95,0-.07,0-.15-.01-.23-.02-.5-.05-1.27-.84-1.34-.8-.08-.96.5-1.03.93l-.11-.56c-.23-1.21-.46-2.41-.7-3.6-.02-.11-.03-.23-.04-.35-.04-.45-.1-1.06-.73-1.25-.7-.21-.75-.68-.82-1.29-.01-.12-.03-.25-.05-.37-.66-4.06-1.35-8.34-2.15-13.47-.38-2.41-.75-4.81-1.13-7.22-.79-5.06-1.58-10.11-2.39-15.17-.02-.15-.03-.32-.04-.5-.04-.69-.09-1.72-1.23-1.72h-.03c-1.12.02-1.18,1.06-1.23,1.74-.01.17-.02.34-.04.49-1.37,8.69-2.72,17.38-4.07,26.07l-1.49,9.58c-.02.15-.03.31-.04.47-.03.54-.07.88-.38,1.01-1.1.49-1.24,1.41-1.37,2.22-.02.15-.05.3-.08.45-.16.8-.32,1.61-.47,2.42l-.15.78c-.06-.07-.11-.16-.17-.27-.12-.22-.29-.56-.73-.52-.84.09-.87.81-.88,1.24,0,.09,0,.17-.01.25-.06.66-.13,1.32-.19,1.97-.22,2.22-.45,4.52-.57,6.79-.14,2.76-.84,5.45-1.51,8.05-.24.92-.48,1.84-.69,2.76-.02.06-.04.16-.22.21-.22-.36-.24-.81-.27-1.27-.01-.29-.03-.59-.09-.88l-.02-.07c-.08-.37-.2-.94-.78-1.03-.85-.13-1.03.68-1.12,1.07-.13.59-.28,1.19-.42,1.78-.49,2-1,4.07-.92,6.24.08,1.97.06,3.99.04,5.94,0,.87-.02,1.75-.02,2.62,0,.25,0,.49,0,.74,0,.6-.01,1.21.02,1.82,0,.14,0,.29-.01.45-.03.46-.06.97.24,1.28.15.16.36.24.62.24h0c.33,0,.58-.09.75-.27.29-.31.25-.79.22-1.21-.02-.22-.03-.42,0-.58.04-.28.03-.57.02-.84,0-.12,0-.24,0-.35v-2.78c0-2.62,0-5.25,0-7.87,0-.8.04-1.57.11-2.28.03-.31.08-.42.46-.45,2.27-.15,2.79-.58,3.31-2.71.16-.65.32-1.29.48-1.94.79-3.13,1.6-6.36,1.67-9.69,0-.07,0-.15,0-.22,0-.49.01-.8.39-.96.84-.35.96-1.07,1.07-1.7l.03-.19c.16-.89.34-1.77.52-2.66.11-.55.22-1.1.33-1.65.02-.1.03-.21.05-.31.06-.5.12-.71.48-.78,1.02-.19,1.14-.97,1.23-1.6l.03-.17c.33-2.06.65-4.11.97-6.17l1.83-11.89c.98-6.4,1.97-12.79,2.96-19.25.04-.26.07-.38.18-.43.03.03.05.1.07.29l.28,1.78c1.15,7.33,2.3,14.65,3.45,21.98.22,1.39.43,2.78.64,4.17.46,2.98.93,6.06,1.43,9.08.02.15.03.32.04.49.03.61.07,1.45.97,1.7.65.18.74.61.84,1.16.02.08.03.16.05.24.2.94.36,1.91.51,2.85.06.34.11.68.17,1.01.02.11.03.23.05.35.07.56.14,1.2.71,1.5.88.47.9,1.27.91,2.16.05,2.87.75,5.63,1.43,8.31.24.93.48,1.9.69,2.85.44,1.96,1.41,2.68,3.55,2.63.24.61.22,1.26.21,1.94,0,.18,0,.36,0,.53,0,2.25,0,4.51,0,6.76v4.12c0,.72.02,1.32.05,1.86.06,1.08.62,1.62,1.67,1.62h.04c2.35-.03,4.74-.02,7.18,0h.02c.51,0,.89-.13,1.14-.39.25-.26.37-.62.36-1.12,0-.34,0-.69,0-1.03v-26.75c0-.18,0-.36,0-.54,0-.37.01-.73,0-1.1-.02-.34.04-.57.18-.72.15-.16.42-.24.84-.24h.01c.37,0,.62.07.77.22.15.15.21.41.19.78-.02.47-.03.96.05,1.44.08.48.25.77.53.91.29.15.67.09,1.15-.16,2.07-1.1,2.91-2.54,2.8-4.8-.2-4.19-.22-8.46-.24-12.6,0-1.58-.01-3.16-.03-4.75-.04-4,1.31-7.31,3.92-9.57,2.26-1.96,2.72-4.24,2.88-6.41,0-.09.01-.19.02-.28,0-.13.01-.27.03-.4l.94-8.53.22,2.68c.24,2.93.49,5.97.69,8.95.1,1.49.57,2.38,1.64,3.09,3.27,2.17,4.85,5.34,4.83,9.68-.01,1.97,0,3.95,0,5.92.02,3.9.04,7.93-.11,11.89-.08,2.11.67,3.48,2.58,4.75.51.34.91.43,1.23.29.31-.14.51-.48.59-1.04.05-.32.05-.63.05-.94v-.25c0-.62.25-.88.88-.92.59-.04.89,0,1.04.15.17.16.24.52.24,1.21-.02,5.93-.07,11.3-.13,16.43-.02,1.87-.07,3.74-.11,5.61-.05,2.1-.1,4.28-.12,6.42-.02,1.74.22,1.98,1.95,2,1.24.02,2.49.01,3.73,0,1.23,0,2.45,0,3.68,0,.67,0,1.09-.12,1.39-.42.29-.28.43-.71.43-1.3,0-.81.05-1.64.09-2.44.04-.79.09-1.61.09-2.41.07-14.36.13-28.72.19-43.09l.03-7.54c0-.33,0-.68-.03-1.03-.03-.37-.08-1.04-.86-1.01Z"/>
            <path class="cls-2" d="M124.74,61.74c.01-.08,0-.15,0-.21V29.53c0-.5,0-.95-.04-1.41-.05-.65-.4-1-.96-.96-.43.04-.74.4-.77.89-.04.62-.05,1.25-.05,1.86v8.24c0,6.67,0,13.33-.01,20,0,.21.01.42.03.64.03.53.06,1.04-.11,1.5-.31-.07-.47-.29-.65-.53-.05-.07-.1-.14-.16-.2-1.41-1.67-2.81-3.35-4.22-5.03-1.37-1.64-2.73-3.27-4.11-4.9-.62-.74-1.07-1.23-1.58-1.23h0c-.51,0-.96.51-1.58,1.28-.8.99-1.58,1.99-2.37,3-.54.7-1.09,1.4-1.64,2.09-1.05,1.32-2.11,2.64-3.2,4l-1.24,1.54c-.2-.62-.18-1.16-.15-1.69,0-.18.02-.35.02-.53,0-3.73,0-7.46,0-11.19,0-5.91,0-11.83,0-17.74,0-.15.02-.33.05-.52.07-.52.14-1.11-.19-1.49-.18-.2-.44-.31-.79-.31-.3,0-.51.08-.67.25-.31.35-.25.93-.2,1.44.02.18.04.35.04.49-.03,9.94-.04,20.04-.04,29.81v2.87c0,.46-.01.93.09,1.39.08.35.27.6.55.7.08.03.17.04.25.04.21,0,.43-.09.65-.25.31-.24.55-.56.79-.87l.16-.21c.77-.98,1.55-1.95,2.32-2.93,1.57-1.99,3.14-3.98,4.73-5.95.24-.29.46-.6.69-.9.54-.73,1.1-1.48,1.83-2.12l2.28,2.73c2.58,3.09,5.13,6.15,7.7,9.2.09.11.17.23.26.35.32.47.76,1.1,1.56.87.83-.24.78-.95.75-1.46-.01-.2-.03-.39,0-.54Z"/>
            <path class="cls-2" d="M100.98,26.13c.08,0,.16-.01.22-.03.28-.09.49-.35.6-.73.12-.4.12-.83.12-1.21v-1.72c.01-2.46.02-5.01,0-7.52-.02-1.92-.24-2.12-2.3-2.14-1.78-.02-3.57-.01-5.35,0h-4.67c-1.98.01-3.95.02-5.93,0-.61-.01-1.05.13-1.34.42-.29.29-.43.73-.42,1.35.03,2.29.05,4.58.06,6.86l.02,3.17c0,.38,0,.9.45,1.15.64.37,1.16-.11,1.51-.43.28-.26.55-.53.82-.8l2.11-2.11c1.37-1.37,2.75-2.74,4.13-4.09.49-.48.85-.83,1.07-.83h0c.23,0,.59.38,1.1.91,1.3,1.35,2.59,2.71,3.87,4.07.72.76,1.45,1.53,2.17,2.29l.25.26c.29.31.58.63.92.89.23.18.44.24.6.24ZM100.11,21.23v1.83s-1.63-1.71-1.63-1.71c-1.53-1.6-2.96-3.09-4.39-4.6l-.4-.42c-.73-.78-1.1-1.18-1.59-1.18h-.01c-.52,0-.99.47-2,1.48l-.06.06c-1.46,1.47-2.93,2.92-4.4,4.38l-1.84,1.82-.21-.08v-1.93c0-1.83,0-3.65,0-5.48,0-.31.06-.52.19-.64.21-.21.62-.21,1.05-.21h.12c2.79,0,5.58,0,8.37,0,1.56,0,3.11,0,4.67,0,.43,0,.86.01,1.28,0,.31-.01.52.06.65.19.14.14.2.36.2.69,0,1.88,0,3.75,0,5.78Z"/>
            <path class="cls-2" d="M142.88,14.64c-.02-1.61-.24-1.83-1.84-1.86-1.9-.03-3.83-.02-5.7-.02-.8,0-1.61-.01-2.4,0h-2.31c-1.9-.01-3.86-.02-5.79,0-1.61.02-1.89.29-1.91,1.81-.04,2.62-.03,5.28-.02,7.86v1.85s0,.11,0,.11c0,.44,0,1.03.58,1.33.63.32,1.06-.1,1.38-.4l.09-.09c.33-.31.65-.62.97-.94l2.06-2.05c1.34-1.34,2.69-2.68,4.04-4.01q1.07-1.05,2.19.08c.24.24.47.49.7.74l1.78,1.89c1.39,1.48,2.78,2.96,4.17,4.43l.12.13c.22.24.52.58.94.58.11,0,.23-.02.37-.08.6-.26.58-.85.58-1.28v-.17s0-1.87,0-1.87c0-2.64.02-5.38,0-8.07ZM124.75,15.43c0-.3.06-.52.19-.65.16-.16.44-.24.91-.22,1.25,0,2.49,0,3.73,0h4.14c1.92,0,3.83-.01,5.75,0q1.75.01,1.76,1.84c0,1.98,0,4-.03,5.95v.28s-.04.12-.09.22c0,.02-.02.04-.03.07-1.17-1.03-2.16-2.12-3.12-3.19-.41-.45-.81-.9-1.23-1.34l-.4-.42c-.5-.53-1-1.06-1.51-1.58-.78-.8-1.21-1.2-1.65-1.2s-.84.36-1.58,1.08c-.93.9-1.85,1.8-2.78,2.7-1,.98-2.01,1.96-3.02,2.93-.08.08-.16.17-.24.27-.22.26-.42.49-.81.55v-1.9c0-1.79,0-3.58,0-5.36Z"/>
            <path class="cls-2" d="M142.12,26.81c-.21-.02-.39.03-.53.14-.17.14-.26.36-.29.68-.05.61-.05,1.21-.05,1.87,0,7.16,0,14.32,0,21.48v10.45c0,7.33,0,14.67,0,22,0,.61.03,1.28.08,2.09.02.35.29.62.66.67.03,0,.06,0,.09,0,.15,0,.3-.05.42-.14.15-.11.24-.28.26-.46.08-.62.12-1.25.12-1.87,0-18.13,0-36.26,0-54.39,0-.58,0-1.11-.04-1.64-.05-.71-.48-.86-.73-.88Z"/>
        </g>
        <g>
            <path class="cls-1" d="M154.53,97.55c-.44-.25-.95-.37-1.53-.37h-3.77v9.74h1.37v-3.78h2.41c.58,0,1.09-.12,1.53-.37.44-.25.79-.59,1.03-1.04.24-.45.37-.97.37-1.56s-.12-1.12-.37-1.57c-.24-.45-.59-.8-1.03-1.05ZM154.33,101.04c-.12.25-.3.45-.52.59-.22.14-.48.21-.78.21h-2.45v-3.36h2.45c.29,0,.55.07.78.21.22.14.4.34.52.59.12.25.18.55.18.88s-.06.62-.18.88Z"/>
            <path class="cls-1" d="M161.26,100.17c-.41-.2-.9-.3-1.48-.3-.53,0-1.01.09-1.44.26-.43.18-.78.42-1.04.74l1,.68c.21-.15.44-.27.71-.35.26-.09.54-.13.81-.13.45,0,.79.13,1.04.38.24.25.36.61.36,1.06v.29h-1.92c-.79,0-1.37.17-1.76.52-.39.34-.58.86-.58,1.55,0,.72.21,1.26.64,1.62.42.36,1.06.53,1.92.53.29,0,.55-.03.78-.09.23-.06.44-.15.61-.27.12-.08.21-.2.3-.32v.58h1.3v-4.47c0-.55-.11-1.01-.32-1.4s-.53-.68-.94-.88ZM160.84,105.74c-.26.11-.65.17-1.17.17-.48,0-.83-.08-1.07-.25s-.35-.43-.35-.78c0-.33.09-.57.26-.73.18-.16.44-.24.8-.24h1.91v1.31c0,.24-.13.41-.38.52Z"/>
            <path class="cls-1" d="M169.04,100.19c-.35-.22-.77-.33-1.26-.33-.42,0-.79.11-1.13.33-.27.18-.49.43-.68.73v-.96h-1.37v9.78h1.37v-3.76c.15.3.35.54.62.72.32.21.7.31,1.13.31.5,0,.94-.11,1.3-.33.36-.22.64-.54.82-.96.19-.42.28-.93.28-1.51v-1.51c0-.6-.09-1.11-.27-1.53s-.45-.75-.8-.97ZM168.75,104.21c0,.5-.12.89-.37,1.16-.25.27-.6.41-1.05.41-.29,0-.54-.06-.74-.17-.2-.11-.36-.27-.47-.48-.11-.21-.16-.46-.16-.76v-1.9c0-.29.05-.54.16-.75s.26-.37.47-.47c.2-.11.45-.16.74-.16.45,0,.8.14,1.05.42.25.28.37.68.37,1.19v1.51Z"/>
            <path class="cls-1" d="M176.23,102.94c-.34-.1-.76-.16-1.24-.19-.01,0-.03,0-.04,0h-.04s-.06,0-.09,0-.06,0-.08,0c-.37-.02-.66-.05-.86-.08-.2-.03-.37-.09-.5-.19-.13-.09-.2-.23-.2-.42,0-.32.12-.56.35-.71.23-.16.58-.24,1.05-.24.32,0,.65.06.99.17.34.11.68.28,1.03.5l.82-1c-.28-.2-.57-.37-.87-.5-.3-.13-.61-.23-.94-.3-.33-.07-.67-.1-1.04-.1-.6,0-1.1.08-1.49.24-.4.16-.7.41-.9.73s-.3.73-.3,1.23.1.87.31,1.13c.21.26.47.44.78.54.31.1.69.16,1.15.2.02,0,.04,0,.05,0,.02,0,.04,0,.05,0,.04,0,.07,0,.11,0s.08,0,.11,0c.4.03.71.07.93.1s.4.11.55.22c.15.11.22.28.22.5,0,.33-.14.59-.41.75s-.68.25-1.22.25c-.36,0-.73-.07-1.1-.21s-.74-.36-1.12-.64l-.81,1c.26.24.55.44.86.6.31.16.65.28,1.01.36.36.08.74.12,1.16.12.65,0,1.19-.08,1.63-.25s.75-.41.97-.74c.21-.33.32-.74.32-1.24,0-.55-.12-.97-.35-1.26-.23-.29-.52-.48-.86-.58Z"/>
            <path class="cls-1" d="M180.73,97.94h-1.37v2.02h-.72v1.23h.72v3.91c0,.61.13,1.07.39,1.38.26.31.67.47,1.24.47h.79v-1.3h-.66c-.13,0-.23-.05-.29-.14s-.1-.22-.1-.39v-3.93h1.05v-1.23h-1.05v-2.02Z"/>
            <path class="cls-1" d="M189.29,103.81c0,.6-.15,1.06-.44,1.39s-.7.5-1.24.5c-.31,0-.59-.06-.82-.18-.24-.12-.42-.29-.54-.51l-1.12.8c.27.38.63.67,1.06.88.43.21.91.32,1.43.32.64,0,1.19-.13,1.65-.38.46-.25.8-.62,1.04-1.09s.36-1.05.36-1.73v-6.65h-1.37v6.64Z"/>
            <path class="cls-1" d="M197.15,100.21c-.43-.23-.94-.35-1.55-.35s-1.12.12-1.55.35-.76.58-.98,1.03c-.23.45-.34.99-.34,1.62v1.13c0,.64.11,1.18.34,1.64.22.45.55.8.98,1.04s.95.36,1.55.36,1.12-.12,1.55-.36.76-.58.98-1.03c.23-.45.34-.99.34-1.63v-1.15c0-.63-.11-1.17-.34-1.62-.22-.45-.55-.79-.98-1.03ZM197.11,104.01c0,.54-.13.96-.39,1.26-.26.3-.63.45-1.11.45s-.85-.15-1.11-.45-.39-.72-.39-1.26v-1.15c0-.54.13-.96.39-1.25s.63-.44,1.11-.44.85.15,1.11.44c.26.29.39.71.39,1.25v1.15Z"/>
            <path class="cls-1" d="M203.63,99.86c-.42,0-.8.11-1.15.34-.28.18-.51.44-.7.75v-3.77h-1.37v9.74h1.37v-4.42c0-.42.12-.75.37-.99.24-.23.59-.35,1.03-.35s.82.13,1.07.4c.26.27.38.65.38,1.14v4.22h1.37v-4.22c0-.9-.21-1.6-.62-2.09-.41-.49-1-.74-1.75-.74Z"/>
            <path class="cls-1" d="M212.05,100.17c-.41-.2-.9-.3-1.48-.3-.53,0-1.01.09-1.44.26-.43.18-.78.42-1.04.74l1,.68c.21-.15.44-.27.71-.35.26-.09.54-.13.81-.13.45,0,.79.13,1.04.38.24.25.36.61.36,1.06v.29h-1.92c-.79,0-1.37.17-1.76.52-.39.34-.58.86-.58,1.55,0,.72.21,1.26.64,1.62.42.36,1.06.53,1.92.53.29,0,.55-.03.78-.09.23-.06.44-.15.61-.27.12-.08.21-.2.3-.32v.58h1.3v-4.47c0-.55-.11-1.01-.32-1.4s-.53-.68-.94-.88ZM211.62,105.74c-.26.11-.65.17-1.17.17-.48,0-.83-.08-1.07-.25s-.35-.43-.35-.78c0-.33.09-.57.26-.73.18-.16.44-.24.8-.24h1.91v1.31c0,.24-.13.41-.38.52Z"/>
            <path class="cls-1" d="M218.6,99.86c-.42,0-.8.11-1.15.34-.28.18-.51.45-.7.76v-1h-1.37v6.96h1.37v-4.4c0-.43.12-.76.37-1,.24-.24.59-.36,1.03-.36s.82.13,1.07.4c.26.27.38.65.38,1.14v4.22h1.37v-4.22c0-.9-.21-1.6-.62-2.09-.41-.49-1-.74-1.75-.74Z"/>
            <path class="cls-1" d="M226.27,99.86c-.42,0-.8.11-1.15.34-.28.18-.51.45-.7.76v-1h-1.37v6.96h1.37v-4.4c0-.43.12-.76.37-1,.24-.24.59-.36,1.03-.36s.82.13,1.07.4c.26.27.38.65.38,1.14v4.22h1.37v-4.22c0-.9-.21-1.6-.62-2.09-.41-.49-1-.74-1.75-.74Z"/>
            <path class="cls-1" d="M234.94,100.3c-.41-.29-.91-.44-1.49-.44-.62,0-1.14.13-1.58.38-.44.25-.77.63-1,1.11-.23.49-.34,1.07-.34,1.76v.78c0,.66.12,1.23.36,1.69.24.47.59.82,1.04,1.06.46.24,1.01.36,1.65.36.43,0,.86-.09,1.29-.27.43-.18.82-.44,1.16-.77l-.9-.9c-.21.2-.46.36-.73.47-.27.11-.55.17-.82.17-.56,0-.99-.15-1.29-.46-.29-.3-.44-.72-.45-1.27h4.37v-.46c0-.77-.11-1.43-.32-1.98s-.53-.97-.94-1.26ZM231.84,102.89c.02-.54.15-.98.41-1.29.28-.34.68-.51,1.2-.51.42,0,.76.16,1.02.47s.4.76.44,1.32h-3.06Z"/>
            <path class="cls-1" d="M242.24,102.94c-.34-.1-.76-.16-1.24-.19-.01,0-.03,0-.04,0h-.04s-.06,0-.09,0-.06,0-.08,0c-.37-.02-.66-.05-.86-.08-.2-.03-.37-.09-.5-.19-.13-.09-.2-.23-.2-.42,0-.32.12-.56.35-.71.23-.16.58-.24,1.05-.24.32,0,.65.06.99.17.34.11.68.28,1.03.5l.82-1c-.28-.2-.57-.37-.87-.5-.3-.13-.61-.23-.94-.3-.33-.07-.67-.1-1.04-.1-.6,0-1.1.08-1.49.24-.4.16-.7.41-.9.73s-.3.73-.3,1.23.1.87.31,1.13c.21.26.47.44.78.54.31.1.69.16,1.15.2.02,0,.04,0,.05,0,.02,0,.04,0,.05,0,.04,0,.07,0,.11,0s.08,0,.11,0c.4.03.71.07.93.1s.4.11.55.22c.15.11.22.28.22.5,0,.33-.14.59-.41.75s-.68.25-1.22.25c-.36,0-.73-.07-1.1-.21s-.74-.36-1.12-.64l-.81,1c.26.24.55.44.86.6.31.16.65.28,1.01.36.36.08.74.12,1.16.12.65,0,1.19-.08,1.63-.25s.75-.41.97-.74c.21-.33.32-.74.32-1.24,0-.55-.12-.97-.35-1.26-.23-.29-.52-.48-.86-.58Z"/>
            <polygon class="cls-1" points="253.97 97.17 252.44 97.17 250.34 100.76 248.22 97.17 246.68 97.17 249.63 101.95 246.6 106.92 248.14 106.92 250.35 103.13 252.59 106.92 254.12 106.92 251.06 101.94 253.97 97.17"/>
            <polygon class="cls-1" points="261.76 97.17 260.23 97.17 258.13 100.76 256 97.17 254.47 97.17 257.42 101.95 254.39 106.92 255.92 106.92 258.14 103.13 260.37 106.92 261.91 106.92 258.85 101.94 261.76 97.17"/>
            <rect class="cls-1" x="263.25" y="97.17" width="1.37" height="9.74"/>
            <rect class="cls-1" x="267.03" y="97.17" width="1.37" height="9.74"/>
            <rect class="cls-1" x="270.81" y="97.17" width="1.37" height="9.74"/>
            <rect class="cls-1" x="274.25" y="105.55" width="1.37" height="1.37"/>
            <rect class="cls-1" x="279.91" y="97.17" width="1.37" height="1.37"/>
            <rect class="cls-1" x="279.91" y="99.96" width="1.37" height="6.96"/>
            <path class="cls-1" d="M286.57,99.86c-.42,0-.8.11-1.15.34-.28.18-.51.45-.7.76v-1h-1.37v6.96h1.37v-4.4c0-.43.12-.76.37-1,.24-.24.59-.36,1.03-.36s.82.13,1.07.4c.26.27.38.65.38,1.14v4.22h1.37v-4.22c0-.9-.21-1.6-.62-2.09-.41-.49-1-.74-1.75-.74Z"/>
            <polygon class="cls-1" points="300.56 97.17 298.87 97.17 294.87 102.27 294.87 97.17 293.5 97.17 293.5 106.92 294.87 106.92 294.87 104.09 296.46 102.16 299.29 106.92 300.96 106.92 297.43 100.98 300.56 97.17"/>
            <path class="cls-1" d="M305.22,99.86c-.41,0-.79.12-1.13.34-.27.19-.5.45-.69.76v-1h-1.37v6.96h1.37v-4.4c0-.42.12-.76.36-1,.24-.24.58-.36,1.01-.36.24,0,.45.04.64.11.18.08.34.19.46.33l.89-1.21c-.19-.18-.42-.31-.67-.41-.26-.09-.54-.14-.86-.14Z"/>
            <path class="cls-1" d="M311.97,100.3c-.41-.29-.91-.44-1.49-.44-.62,0-1.14.13-1.58.38-.44.25-.77.63-1,1.11-.23.49-.34,1.07-.34,1.76v.78c0,.66.12,1.23.36,1.69.24.47.59.82,1.04,1.06.46.24,1.01.36,1.65.36.43,0,.86-.09,1.29-.27.43-.18.82-.44,1.16-.77l-.9-.9c-.21.2-.46.36-.73.47-.27.11-.55.17-.82.17-.56,0-.99-.15-1.29-.46-.29-.3-.44-.72-.45-1.27h4.37v-.46c0-.77-.11-1.43-.32-1.98s-.53-.97-.94-1.26ZM308.88,102.89c.02-.54.15-.98.41-1.29.28-.34.68-.51,1.2-.51.42,0,.76.16,1.02.47s.4.76.44,1.32h-3.06Z"/>
            <path class="cls-1" d="M315.74,97.63c-.28.31-.43.77-.43,1.38v.95h-.74v1.17h.74v5.79h1.37v-5.79h1.37v-1.17h-1.37v-.96c0-.16.03-.28.1-.38s.17-.15.3-.15h.98v-1.3h-1.01c-.59,0-1.03.15-1.31.46Z"/>
            <path class="cls-1" d="M323.48,100.3c-.41-.29-.91-.44-1.49-.44-.62,0-1.14.13-1.58.38-.44.25-.77.63-1,1.11-.23.49-.34,1.07-.34,1.76v.78c0,.66.12,1.23.36,1.69.24.47.59.82,1.04,1.06.46.24,1.01.36,1.65.36.43,0,.86-.09,1.29-.27.43-.18.82-.44,1.16-.77l-.9-.9c-.21.2-.46.36-.73.47-.27.11-.55.17-.82.17-.56,0-.99-.15-1.29-.46-.29-.3-.44-.72-.45-1.27h4.37v-.46c0-.77-.11-1.43-.32-1.98s-.53-.97-.94-1.26ZM320.38,102.89c.02-.54.15-.98.41-1.29.28-.34.68-.51,1.2-.51.42,0,.76.16,1.02.47s.4.76.44,1.32h-3.06Z"/>
            <path class="cls-1" d="M328.1,105.51c-.07-.09-.11-.22-.11-.39v-7.95h-1.37v7.93c0,.59.14,1.04.43,1.36.28.32.68.48,1.2.48h.8v-1.3h-.64c-.13,0-.24-.05-.31-.14Z"/>
            <path class="cls-1" d="M334.55,97.17v3.69c-.19-.29-.41-.53-.69-.7-.34-.21-.72-.32-1.13-.32-.49,0-.91.11-1.26.33-.35.22-.62.54-.8.97-.18.42-.27.94-.27,1.53v1.53c0,.59.09,1.1.28,1.53.19.42.46.75.82.97.36.22.79.33,1.3.33.46,0,.85-.12,1.16-.35.26-.19.45-.43.59-.7v.93h1.37v-9.74h-1.37ZM334.39,105.13c-.11.21-.26.38-.47.49-.2.11-.45.17-.74.17-.45,0-.8-.14-1.05-.41s-.37-.66-.37-1.17v-1.51c0-.51.12-.9.37-1.19.25-.28.6-.42,1.05-.42.29,0,.54.05.74.16.2.11.36.27.47.48.11.21.16.46.16.76v1.87c0,.3-.05.56-.16.77Z"/>
        </g>
        <rect class="cls-3" x=".01" y="90.83" width="335.93" height="1.5"/>
        <g>
            <polygon class="cls-2" points="160.28 48.8 157.21 48.8 151.68 56.49 151.68 48.8 149.22 48.8 149.22 63.79 151.68 63.79 151.68 59.99 153.98 57 157.95 63.79 160.91 63.79 155.65 54.83 160.28 48.8"/>
            <path class="cls-2" d="M164.97,60.95h5.77l.99,2.85h2.65l-5.63-14.99h-1.79l-5.63,14.99h2.66l.99-2.85ZM167.85,52.63l2.07,5.96h-4.13l2.06-5.96Z"/>
            <polygon class="cls-2" points="184.75 51.16 184.75 48.8 173.96 48.8 173.96 51.16 178.13 51.16 178.13 63.79 180.59 63.79 180.59 51.16 184.75 51.16"/>
            <polygon class="cls-2" points="197.43 63.79 197.43 48.8 194.96 48.8 194.96 55.2 189.07 55.2 189.07 48.8 186.6 48.8 186.6 63.79 189.07 63.79 189.07 57.56 194.96 57.56 194.96 63.79 197.43 63.79"/>
            <path class="cls-2" d="M210.7,61.33c.44-.83.66-1.8.66-2.91v-4.25c0-1.11-.22-2.08-.66-2.91-.44-.83-1.07-1.47-1.88-1.93-.81-.46-1.75-.69-2.83-.69s-2.02.23-2.83.69c-.81.46-1.43,1.1-1.88,1.93s-.67,1.8-.67,2.91v4.25c0,1.11.22,2.08.67,2.91.45.83,1.07,1.48,1.88,1.93.8.46,1.75.69,2.82.69s2.02-.23,2.83-.69,1.43-1.1,1.88-1.93ZM208.83,58.49c0,.91-.26,1.63-.77,2.18-.52.55-1.2.82-2.06.82s-1.54-.27-2.05-.82c-.51-.55-.77-1.27-.77-2.18v-4.39c0-.91.26-1.64.77-2.19.52-.55,1.2-.82,2.05-.82s1.55.28,2.06.82c.51.55.77,1.28.77,2.19v4.39Z"/>
            <polygon class="cls-2" points="216.82 63.79 224.19 63.79 224.19 61.43 216.82 61.43 216.82 48.8 214.36 48.8 214.36 63.79 215.51 63.79 216.82 63.79"/>
            <rect class="cls-2" x="226.36" y="48.8" width="2.52" height="14.99"/>
            <path class="cls-2" d="M241.02,62.78c.98-.78,1.47-1.87,1.47-3.28v-.02c0-.83-.14-1.51-.41-2.03-.27-.52-.64-.93-1.11-1.23-.46-.3-.98-.53-1.54-.69-.56-.16-1.12-.29-1.69-.4-.56-.11-1.09-.23-1.59-.36-.5-.13-.9-.33-1.2-.6s-.46-.67-.46-1.19h0c0-.64.26-1.13.78-1.48.52-.35,1.25-.52,2.2-.52.58,0,1.17.1,1.76.31.6.21,1.18.52,1.75.94l1.2-2.03c-.72-.52-1.49-.91-2.29-1.17-.8-.26-1.61-.4-2.42-.4-1.73,0-3.06.39-4,1.18-.95.78-1.42,1.89-1.42,3.32h0c0,.9.15,1.61.45,2.14.3.53.69.94,1.19,1.23s1.03.49,1.62.63c.59.13,1.17.25,1.74.33.54.09,1.03.2,1.48.32.45.13.82.32,1.1.59s.42.65.42,1.15h0c0,.66-.28,1.16-.83,1.52-.55.36-1.33.54-2.33.54-.8,0-1.56-.13-2.28-.38s-1.37-.62-1.95-1.1l-1.31,1.97c.49.4,1.02.74,1.6,1.02s1.2.49,1.86.63c.66.14,1.36.21,2.08.21,1.78,0,3.16-.39,4.14-1.17Z"/>
            <path class="cls-2" d="M254.14,61.7c.49-.72.82-1.58,1-2.57h-2.54c-.18.76-.52,1.35-1.02,1.76-.5.41-1.07.61-1.71.61-.85,0-1.53-.28-2.03-.85-.5-.56-.75-1.33-.75-2.3v-4.11c0-.98.25-1.75.75-2.31s1.17-.85,2.03-.85c.43,0,.82.1,1.19.29.37.19.69.47.95.82.27.35.46.78.59,1.27h2.54c-.18-1-.51-1.85-1-2.57-.48-.72-1.09-1.27-1.82-1.66-.73-.39-1.55-.58-2.45-.58-1.09,0-2.04.23-2.83.68-.8.45-1.41,1.09-1.84,1.93-.43.83-.64,1.83-.64,2.99v4.11c0,1.15.21,2.14.64,2.98s1.04,1.48,1.84,1.93c.8.45,1.74.68,2.83.68.91,0,1.72-.19,2.45-.58.72-.39,1.33-.94,1.82-1.67Z"/>
            <polygon class="cls-2" points="266.08 57.56 266.08 63.79 268.54 63.79 268.54 48.8 266.08 48.8 266.08 55.2 260.18 55.2 260.18 48.8 257.72 48.8 257.72 63.79 260.18 63.79 260.18 57.56 266.08 57.56"/>
            <polygon class="cls-2" points="274.51 63.79 281.88 63.79 281.88 61.43 274.51 61.43 274.51 57.52 280.75 57.52 280.75 55.16 274.51 55.16 274.51 51.16 281.88 51.16 281.88 48.8 274.51 48.8 273.07 48.8 272.05 48.8 272.05 63.79 273.07 63.79 274.51 63.79"/>
            <polygon class="cls-2" points="160.28 71 157.21 71 151.68 78.68 151.68 71 149.22 71 149.22 85.99 151.68 85.99 151.68 82.19 153.98 79.2 157.95 85.99 160.91 85.99 155.65 77.03 160.28 71"/>
            <rect class="cls-2" x="162.87" y="71" width="2.52" height="14.99"/>
            <path class="cls-2" d="M177.28,79.25c.64-.37,1.13-.88,1.49-1.54.35-.66.53-1.43.53-2.32s-.17-1.66-.53-2.32-.85-1.17-1.48-1.54c-.64-.36-1.39-.55-2.24-.55h-6.26v15h2.46v-6.19h2.42l3.29,6.19h2.96l-3.52-6.37c.31-.09.61-.21.88-.36ZM171.25,73.35h3.72c.53,0,.95.19,1.27.56.32.37.48.87.48,1.48,0,.62-.17,1.12-.49,1.49-.32.37-.74.56-1.27.56h-3.72v-4.09Z"/>
            <path class="cls-2" d="M185.12,74.13c.5-.57,1.17-.85,2.03-.85.43,0,.82.1,1.19.29.37.19.69.47.95.82.27.35.46.78.59,1.27h2.54c-.18-1-.51-1.85-1-2.57-.48-.72-1.09-1.27-1.82-1.66-.73-.39-1.55-.58-2.45-.58-1.09,0-2.04.23-2.83.68-.8.45-1.41,1.09-1.84,1.93-.43.83-.64,1.83-.64,2.99v4.11c0,1.15.21,2.14.64,2.98s1.04,1.48,1.84,1.93c.8.45,1.74.68,2.83.68.91,0,1.72-.19,2.45-.58.72-.39,1.33-.94,1.82-1.67s.82-1.58,1-2.57h-2.54c-.18.76-.52,1.35-1.02,1.76-.5.41-1.07.61-1.71.61-.85,0-1.53-.28-2.03-.85-.5-.56-.75-1.33-.75-2.3v-4.11c0-.98.25-1.75.75-2.31Z"/>
            <polygon class="cls-2" points="203.36 77.4 197.46 77.4 197.46 71 195 71 195 85.99 197.46 85.99 197.46 79.76 203.36 79.76 203.36 85.99 205.82 85.99 205.82 71 203.36 71 203.36 77.4"/>
            <polygon class="cls-2" points="210.35 71 209.33 71 209.33 85.99 210.35 85.99 211.79 85.99 219.16 85.99 219.16 83.63 211.79 83.63 211.79 79.72 218.03 79.72 218.03 77.36 211.79 77.36 211.79 73.36 219.16 73.36 219.16 71 211.79 71 210.35 71"/>
            <polygon class="cls-2" points="230.83 82.09 224.63 71 221.95 71 221.95 85.98 224.34 85.98 224.34 75.05 230.52 85.98 233.22 85.98 233.22 71 230.83 71 230.83 82.09"/>
            <path class="cls-2" d="M241.99,80.12h2.66v.45c0,.97-.26,1.72-.77,2.26s-1.19.81-2.05.81-1.56-.25-2.08-.76c-.52-.5-.78-1.18-.78-2.03v-4.42c0-.93.25-1.69.76-2.26.51-.57,1.19-.86,2.04-.86.57,0,1.11.17,1.61.51.51.34.84.83,1.02,1.46h2.66c-.17-.89-.51-1.67-1-2.34-.5-.67-1.11-1.19-1.85-1.56-.73-.37-1.54-.56-2.44-.56-1.08,0-2.02.23-2.82.7-.8.46-1.42,1.11-1.87,1.95-.44.84-.67,1.82-.67,2.95v4.42c0,1.06.22,1.98.67,2.78.45.79,1.08,1.41,1.89,1.85.81.44,1.76.65,2.84.65s2.02-.23,2.82-.7c.8-.46,1.42-1.12,1.87-1.96s.67-1.83.67-2.95v-2.77h-5.2v2.36Z"/>
            <polygon class="cls-2" points="251.19 71 250.17 71 250.17 85.99 251.19 85.99 252.64 85.99 260.01 85.99 260.01 83.63 252.64 83.63 252.64 79.72 258.87 79.72 258.87 77.36 252.64 77.36 252.64 73.36 260.01 73.36 260.01 71 252.64 71 251.19 71"/>
            <polygon class="cls-2" points="269.27 81 265.64 71 262.79 71 262.79 85.99 265.1 85.99 265.1 75.69 268.28 84.11 270.26 84.11 273.43 75.49 273.43 85.99 275.74 85.99 275.74 71 272.9 71 269.27 81"/>
            <polygon class="cls-2" points="280.27 71 279.25 71 279.25 85.99 280.27 85.99 281.71 85.99 289.08 85.99 289.08 83.63 281.71 83.63 281.71 79.72 287.95 79.72 287.95 77.36 281.71 77.36 281.71 73.36 289.08 73.36 289.08 71 281.71 71 280.27 71"/>
            <rect class="cls-2" x="291.76" y="71" width="2.52" height="14.99"/>
            <polygon class="cls-2" points="306.57 82.09 300.36 71 297.68 71 297.68 85.98 300.07 85.98 300.07 75.05 306.26 85.98 308.96 85.98 308.96 71 306.57 71 306.57 82.09"/>
            <path class="cls-2" d="M317.32,71h-4.86v14.99h4.85c1.26,0,2.33-.22,3.19-.65.86-.44,1.52-1.06,1.96-1.86s.67-1.76.67-2.86v-4.25c0-1.7-.51-3.03-1.52-3.96-1.01-.94-2.44-1.41-4.29-1.41ZM320.59,80.7c0,.93-.28,1.65-.84,2.16-.56.51-1.35.77-2.37.77h-2.45v-10.27h2.45c1.02,0,1.81.25,2.37.76.56.51.84,1.23.84,2.17v4.41Z"/>
            <polygon class="cls-2" points="335.95 73.36 335.95 71 328.58 71 327.13 71 326.11 71 326.11 85.99 327.13 85.99 328.58 85.99 335.95 85.99 335.95 83.63 328.58 83.63 328.58 79.72 334.81 79.72 334.81 77.36 328.58 77.36 328.58 73.36 335.95 73.36"/>
        </g>
    </g>
</svg>