<?xml version="1.0" encoding="UTF-8"?>
<svg xmlns="http://www.w3.org/2000/svg" version="1.1" viewBox="0 0 180 105">
  <title>Logo KATHOLISCHE KIRCHE WÜRSELEN</title>
  <desc>Logo des pastoralen Raumes Würselen im Bistum Aachen</desc>
  <defs>
    <style>
      .st0 {
        fill: #fff;
      }
    </style>
  </defs>
  <path class="st0" d="M45.74,39.03c0-.14.09-.23.23-.23h2.21c.14,0,.23.09.23.23v7.21l5.79-7.25c.11-.14.2-.18.36-.18h2.57c.14,0,.2.16.09.29l-4.75,5.72,5.29,9.03c.09.16.02.27-.16.27h-2.5c-.18,0-.25-.05-.34-.18l-4.01-7.07-2.34,2.84v4.19c0,.14-.09.23-.23.23h-2.21c-.14,0-.23-.09-.23-.23,0,0,0-14.87,0-14.87Z"/>
  <path class="st0" d="M60.16,39.03c0-.14.09-.23.23-.23h2.21c.14,0,.23.09.23.23v14.87c0,.14-.09.23-.23.23h-2.21c-.14,0-.23-.09-.23-.23v-14.87Z"/>
  <path class="st0" d="M74.84,54.12c-.18,0-.27-.07-.34-.23l-2.93-5.97h-2.64c-.09,0-.13.05-.13.14v5.83c0,.14-.09.23-.23.23h-2.21c-.14,0-.23-.09-.23-.23v-14.87c0-.14.09-.23.23-.23h5.92c2.82,0,4.89,1.87,4.89,4.57,0,2.01-1.15,3.56-2.91,4.21l3.22,6.24c.09.16,0,.29-.16.29h-2.5l.02.02ZM74.55,43.37c0-1.33-.95-2.19-2.34-2.19h-3.27c-.09,0-.13.04-.13.14v4.08c0,.09.04.14.13.14h3.27c1.4,0,2.34-.86,2.34-2.16h0Z"/>
  <path class="st0" d="M79.64,46.46c0-2.43.09-3.2.41-4.15.79-2.5,2.73-3.76,5.32-3.76s4.3,1.26,5.18,3.29c.04.11,0,.23-.11.27l-1.91.92c-.14.07-.25,0-.29-.11-.5-1.08-1.35-1.98-2.86-1.98s-2.32.79-2.75,2.03c-.2.63-.27,1.24-.27,3.49s.07,2.86.27,3.49c.43,1.24,1.28,2.03,2.75,2.03s2.37-.9,2.86-1.98c.05-.11.16-.18.29-.11l1.91.92c.11.05.16.16.11.27-.88,2.03-2.73,3.29-5.18,3.29-2.59,0-4.53-1.26-5.32-3.76-.32-.95-.41-1.71-.41-4.14h0Z"/>
  <path class="st0" d="M93.05,39.03c0-.14.09-.23.23-.23h2.21c.14,0,.23.09.23.23v6.04c0,.09.04.14.14.14h5.83c.09,0,.13-.04.13-.14v-6.04c0-.14.09-.23.23-.23h2.21c.14,0,.23.09.23.23v14.87c0,.14-.09.23-.23.23h-2.21c-.14,0-.23-.09-.23-.23v-6.17c0-.09-.04-.14-.13-.14h-5.83c-.09,0-.14.05-.14.14v6.17c0,.14-.09.23-.23.23h-2.21c-.14,0-.23-.09-.23-.23v-14.87Z"/>
  <path class="st0" d="M107.83,39.03c0-.14.09-.23.23-.23h9.6c.14,0,.23.09.23.23v1.94c0,.14-.09.23-.23.23h-7.03c-.09,0-.14.04-.14.14v3.74c0,.09.05.14.14.14h5.92c.14,0,.23.09.23.23v1.94c0,.14-.09.23-.23.23h-5.92c-.09,0-.14.05-.14.14v3.87c0,.09.05.14.14.14h7.03c.14,0,.23.09.23.23v1.94c0,.14-.09.23-.23.23h-9.6c-.14,0-.23-.09-.23-.23v-14.91Z"/>
  <path class="st0" d="M45.75,18.33c0-.13.09-.22.22-.22h2.14c.13,0,.22.09.22.22v6.99l5.61-7.03c.11-.13.2-.17.35-.17h2.49c.13,0,.2.15.09.28l-4.61,5.55,5.13,8.76c.09.15.02.26-.15.26h-2.42c-.17,0-.24-.04-.33-.17l-3.89-6.86-2.27,2.75v4.06c0,.13-.09.22-.22.22h-2.14c-.13,0-.22-.09-.22-.22,0,0,0-14.42,0-14.42Z"/>
  <path class="st0" d="M64.1,18.33c.04-.13.13-.22.28-.22h2.01c.15,0,.24.09.28.22l5.02,14.42c.04.13,0,.22-.15.22h-2.14c-.15,0-.24-.07-.28-.22l-.98-2.88h-5.59l-.98,2.88c-.04.15-.13.22-.28.22h-2.12c-.15,0-.2-.09-.15-.22l5.09-14.42h0ZM67.36,27.57l-1.97-5.77h-.07l-1.99,5.77h4.03Z"/>
  <path class="st0" d="M75.49,32.96c-.13,0-.22-.09-.22-.22v-12.19c0-.09-.04-.13-.13-.13h-3.89c-.13,0-.22-.09-.22-.22v-1.88c0-.13.09-.22.22-.22h10.62c.13,0,.22.09.22.22v1.88c0,.13-.09.22-.22.22h-3.89c-.09,0-.13.04-.13.13v12.19c0,.13-.09.22-.22.22h-2.14Z"/>
  <path class="st0" d="M84.22,18.33c0-.13.09-.22.22-.22h2.14c.13,0,.22.09.22.22v5.85c0,.09.04.13.13.13h5.66c.09,0,.13-.04.13-.13v-5.85c0-.13.09-.22.22-.22h2.14c.13,0,.22.09.22.22v14.42c0,.13-.09.22-.22.22h-2.14c-.13,0-.22-.09-.22-.22v-5.99c0-.09-.04-.13-.13-.13h-5.66c-.09,0-.13.04-.13.13v5.99c0,.13-.09.22-.22.22h-2.14c-.13,0-.22-.09-.22-.22,0,0,0-14.42,0-14.42Z"/>
  <path class="st0" d="M98.4,29.62c-.31-.92-.39-1.75-.39-4.08s.09-3.17.39-4.08c.76-2.36,2.69-3.58,5.24-3.58s4.5,1.22,5.26,3.58c.31.92.39,1.75.39,4.08s-.09,3.17-.39,4.08c-.76,2.36-2.69,3.58-5.26,3.58s-4.48-1.22-5.24-3.58ZM106.42,28.94c.17-.55.26-1.31.26-3.41s-.09-2.86-.26-3.41c-.42-1.2-1.29-1.94-2.77-1.94s-2.34.74-2.75,1.94c-.17.55-.26,1.29-.26,3.41s.09,2.86.26,3.41c.41,1.2,1.29,1.94,2.75,1.94s2.36-.74,2.77-1.94Z"/>
  <path class="st0" d="M112.02,18.33c0-.13.09-.22.22-.22h2.14c.13,0,.22.09.22.22v12.19c0,.09.04.13.13.13h6.82c.13,0,.22.09.22.22v1.88c0,.13-.09.22-.22.22h-9.31c-.13,0-.22-.09-.22-.22v-14.42h0Z"/>
  <path class="st0" d="M123.92,18.33c0-.13.09-.22.22-.22h2.14c.13,0,.22.09.22.22v14.42c0,.13-.09.22-.22.22h-2.14c-.13,0-.22-.09-.22-.22v-14.42Z"/>
  <path class="st0" d="M128.83,31.24c-.09-.09-.13-.22-.04-.33l1.35-1.57c.09-.11.22-.11.31-.02.96.76,2.38,1.57,4.04,1.57,1.77,0,2.8-.9,2.8-2.14,0-1.07-.66-1.77-2.71-2.05l-.79-.11c-2.86-.39-4.48-1.77-4.48-4.24,0-2.69,1.97-4.48,5.02-4.48,1.86,0,3.63.59,4.81,1.49.11.09.13.17.04.31l-1.05,1.62c-.09.11-.2.13-.31.07-1.2-.79-2.32-1.16-3.56-1.16-1.51,0-2.34.83-2.34,1.99,0,1.03.72,1.73,2.73,2.01l.79.11c2.86.39,4.43,1.75,4.43,4.3s-1.9,4.61-5.59,4.61c-2.18,0-4.3-.87-5.46-1.97h.01Z"/>
  <path class="st0" d="M142,25.53c0-2.36.09-3.1.39-4.02.76-2.42,2.64-3.65,5.15-3.65,2.38,0,4.17,1.22,5.02,3.19.04.11,0,.22-.11.26l-1.86.9c-.13.07-.24,0-.28-.11-.48-1.05-1.31-1.92-2.77-1.92s-2.25.76-2.66,1.97c-.2.61-.26,1.2-.26,3.39s.07,2.77.26,3.39c.41,1.2,1.24,1.97,2.66,1.97s2.29-.87,2.77-1.92c.04-.11.15-.17.28-.11l1.86.9c.11.04.15.15.11.26-.85,1.97-2.64,3.19-5.02,3.19-2.51,0-4.39-1.22-5.15-3.65-.31-.92-.39-1.66-.39-4.02v-.02Z"/>
  <path class="st0" d="M154.87,18.33c0-.13.09-.22.22-.22h2.14c.13,0,.22.09.22.22v5.85c0,.09.04.13.13.13h5.66c.09,0,.13-.04.13-.13v-5.85c0-.13.09-.22.22-.22h2.14c.13,0,.22.09.22.22v14.42c0,.13-.09.22-.22.22h-2.14c-.13,0-.22-.09-.22-.22v-5.99c0-.09-.04-.13-.13-.13h-5.66c-.09,0-.13.04-.13.13v5.99c0,.13-.09.22-.22.22h-2.14c-.13,0-.22-.09-.22-.22v-14.42Z"/>
  <path class="st0" d="M169.06,18.33c0-.13.09-.22.22-.22h9.31c.13,0,.22.09.22.22v1.88c0,.13-.09.22-.22.22h-6.82c-.09,0-.13.04-.13.13v3.63c0,.09.04.13.13.13h5.74c.13,0,.22.09.22.22v1.88c0,.13-.09.22-.22.22h-5.74c-.09,0-.13.04-.13.13v3.76c0,.09.04.13.13.13h6.82c.13,0,.22.09.22.22v1.88c0,.13-.09.22-.22.22h-9.31c-.13,0-.22-.09-.22-.22v-14.42h0Z"/>
  <g>
    <path class="st0" d="M52.84,72.08c-.09,0-.15-.05-.18-.15l-1.91-6.82h-.03l-1.92,6.82c-.03.1-.09.15-.18.15h-1.1c-.09,0-.15-.05-.18-.15l-2.45-9.68c-.02-.1.02-.15.12-.15h1.38c.1,0,.16.05.18.15l1.58,6.72h.03l1.86-6.72c.03-.1.09-.15.18-.15h1.03c.09,0,.15.05.18.15l1.91,6.72h.03l1.54-6.72c0-.1.07-.15.18-.15h1.36c.1,0,.14.05.12.15l-2.43,9.68c-.02.1-.08.15-.18.15h-1.12Z"/>
    <path class="st0" d="M62.48,70.67c.58,0,1.05-.18,1.41-.55s.54-.9.54-1.59v-6.28c0-.1.05-.15.15-.15h1.44c.1,0,.15.05.15.15v6.32c0,.58-.09,1.09-.28,1.55-.19.46-.44.84-.77,1.15-.33.31-.72.55-1.17.72s-.94.25-1.47.25-1.01-.08-1.46-.25c-.44-.17-.83-.41-1.16-.72s-.58-.7-.77-1.15c-.19-.45-.28-.97-.28-1.55v-6.32c0-.1.05-.15.15-.15h1.44c.1,0,.15.05.15.15v6.28c0,.69.18,1.22.54,1.59.36.37.83.55,1.39.55h0ZM60.48,60.8c-.1,0-.15-.05-.15-.15v-1.28c0-.1.05-.15.15-.15h1.07c.1,0,.15.05.15.15v1.28c0,.1-.05.15-.15.15h-1.07ZM63.42,60.8c-.1,0-.15-.05-.15-.15v-1.28c0-.1.05-.15.15-.15h1.07c.1,0,.15.05.15.15v1.28c0,.1-.05.15-.15.15h-1.07Z"/>
    <path class="st0" d="M74.93,72.08c-.11,0-.18-.05-.22-.15l-1.91-3.89h-1.72c-.06,0-.09.03-.09.09v3.8c0,.1-.05.15-.15.15h-1.44c-.1,0-.15-.05-.15-.15v-9.69c0-.1.05-.15.15-.15h3.86c.46,0,.88.07,1.27.22s.72.35,1,.61.51.57.67.94c.16.37.24.77.24,1.21,0,.66-.17,1.22-.51,1.7-.34.48-.8.83-1.38,1.04l2.1,4.07s.03.09,0,.13-.06.06-.11.06h-1.63.02ZM73.21,66.48c.46,0,.83-.13,1.11-.38s.42-.59.42-1.02-.14-.78-.42-1.04c-.28-.25-.65-.38-1.11-.38h-2.13c-.06,0-.09.03-.09.09v2.64c0,.06.03.09.09.09h2.13Z"/>
    <path class="st0" d="M82.45,72.24c-.37,0-.73-.03-1.08-.1s-.69-.16-1-.28c-.32-.12-.61-.26-.88-.42s-.5-.34-.7-.53c-.08-.08-.09-.15-.03-.22l.91-1.06c.07-.08.14-.08.21-.01.16.13.33.25.54.38s.42.24.65.34.47.18.73.24.52.09.81.09c.6,0,1.06-.13,1.39-.4.33-.27.49-.61.49-1.03,0-.36-.13-.66-.4-.89-.26-.23-.74-.39-1.42-.49l-.53-.07c-.97-.14-1.71-.44-2.23-.9-.52-.46-.78-1.11-.78-1.94,0-.45.08-.86.23-1.23.16-.37.38-.69.67-.95.29-.26.65-.47,1.06-.61.42-.14.88-.21,1.4-.21.62,0,1.22.09,1.78.27s1.04.43,1.44.73c.07.06.08.13.03.21l-.7,1.09c-.06.08-.13.09-.21.04-.41-.26-.81-.46-1.19-.59-.38-.13-.78-.19-1.2-.19-.51,0-.9.12-1.17.37s-.4.57-.4.96c0,.34.14.63.41.86.27.23.75.39,1.43.49l.53.07c.97.14,1.71.44,2.22.9s.76,1.13.76,1.99c0,.44-.08.85-.24,1.23-.16.38-.4.71-.72.98-.32.27-.71.49-1.19.65-.47.16-1.01.23-1.63.23h0Z"/>
    <path class="st0" d="M88.89,62.24c0-.1.05-.15.15-.15h6.25c.1,0,.15.05.15.15v1.27c0,.1-.05.15-.15.15h-4.58c-.06,0-.09.03-.09.09v2.42c0,.06.03.09.09.09h3.86c.1,0,.15.05.15.15v1.27c0,.1-.05.15-.15.15h-3.86c-.06,0-.09.03-.09.09v2.51c0,.06.03.09.09.09h4.58c.1,0,.15.05.15.15v1.27c0,.1-.05.15-.15.15h-6.25c-.1,0-.15-.05-.15-.15v-9.69h0Z"/>
    <path class="st0" d="M98.21,62.25c0-.1.05-.15.15-.15h1.44c.1,0,.15.05.15.15v8.17c0,.06.03.09.09.09h4.58c.1,0,.15.05.15.15v1.27c0,.1-.05.15-.15.15h-6.25c-.1,0-.15-.05-.15-.15v-9.68h0Z"/>
    <path class="st0" d="M107.17,62.24c0-.1.05-.15.15-.15h6.25c.1,0,.15.05.15.15v1.27c0,.1-.05.15-.15.15h-4.58c-.06,0-.09.03-.09.09v2.42c0,.06.03.09.09.09h3.86c.1,0,.15.05.15.15v1.27c0,.1-.05.15-.15.15h-3.86c-.06,0-.09.03-.09.09v2.51c0,.06.03.09.09.09h4.58c.1,0,.15.05.15.15v1.27c0,.1-.05.15-.15.15h-6.25c-.1,0-.15-.05-.15-.15v-9.69h0Z"/>
    <path class="st0" d="M116.5,62.25c0-.1.05-.15.15-.15h1.35c.11,0,.19.05.25.15l4.06,6.88h.06v-6.88c0-.1.05-.15.15-.15h1.28c.1,0,.15.05.15.15v9.68c0,.1-.05.15-.15.15h-1.33c-.11,0-.19-.05-.25-.15l-4.08-6.86h-.06v6.86c0,.1-.05.15-.15.15h-1.28c-.1,0-.15-.05-.15-.15v-9.68Z"/>
  </g>
  <path class="st0" d="M35.5,17.77h-15.72l15.72-15.72v15.72ZM34.66,35.49h-15.7v-15.7l15.7,15.7ZM18.95,52.39v-15.7h15.7s-15.7,15.7-15.7,15.7ZM35.47,53.22h-15.68l15.68-15.68v15.68ZM35.5,70.07l-15.63-15.63h15.63v15.63ZM18.98,70.93v-15.7l15.7,15.7s-15.7,0-15.7,0ZM18.98,1.22h15.67l-15.67,15.67V1.22ZM17.77,34.66L2.06,18.95h15.71v15.71ZM1.23,35.47v-15.67l15.67,15.67H1.23ZM36.68,18.36V.75c.03-.12.03-.26-.02-.38-.09-.22-.31-.37-.55-.37h-17.73c-.22,0-.41.12-.51.3-.06.1-.1.21-.1.33v17.13H.78c-.13-.04-.27-.04-.41.02-.22.09-.37.31-.37.55v17.73c0,.19.09.36.23.47.11.1.24.16.4.16h17.14v16.99c-.03.11-.04.23,0,.35v17.53c0,.33.27.59.59.59h17.73c.17,0,.33-.07.43-.19.06-.06.1-.12.14-.2.05-.12.06-.26.02-.38v-35.28c0-.17-.08-.33-.2-.44l-16.7-16.7h16.3c.33,0,.59-.27.59-.59"/>
</svg>